<?xml version="1.0" encoding="UTF-8" standalone="no"?>
<!DOCTYPE svg PUBLIC "-//W3C//DTD SVG 1.1//EN"
 "http://www.w3.org/Graphics/SVG/1.1/DTD/svg11.dtd">
<!-- Generated by graphviz version 2.28.0 (20121221.0049)
 -->
<!-- Title: drivers/vti_ps.c Pages: 1 -->
<svg width="232pt" height="196pt"
 viewBox="0.00 0.00 232.00 196.00" xmlns="http://www.w3.org/2000/svg" xmlns:xlink="http://www.w3.org/1999/xlink">
<g id="graph1" class="graph" transform="scale(1 1) rotate(0) translate(4 192)">
<title>drivers/vti_ps.c</title>
<polygon fill="white" stroke="white" points="-4,5 -4,-192 229,-192 229,5 -4,5"/>
<!-- Node1 -->
<g id="node1" class="node"><title>Node1</title>
<polygon fill="#bfbfbf" stroke="black" points="48.5,-168.5 48.5,-187.5 131.5,-187.5 131.5,-168.5 48.5,-168.5"/>
<text text-anchor="middle" x="90" y="-175.5" font-family="Helvetica,sans-Serif" font-size="10.00">drivers/vti_ps.c</text>
</g>
<!-- Node2 -->
<g id="node3" class="node"><title>Node2</title>
<a xlink:href="../../d9/d95/openchronos_8h.xhtml" target="_top" xlink:title="Main include file.">
<polygon fill="white" stroke="black" points="45,-56.5 45,-75.5 147,-75.5 147,-56.5 45,-56.5"/>
<text text-anchor="middle" x="96" y="-63.5" font-family="Helvetica,sans-Serif" font-size="10.00">core/openchronos.h</text>
</a>
</g>
<!-- Node1&#45;&gt;Node2 -->
<g id="edge2" class="edge"><title>Node1&#45;&gt;Node2</title>
<path fill="none" stroke="midnightblue" d="M79.938,-168.499C66.9009,-156.389 46.7617,-133.274 55,-112 59.454,-100.498 68.3677,-90.1311 76.7494,-82.2546"/>
<polygon fill="midnightblue" stroke="midnightblue" points="79.2371,-84.7286 84.4594,-75.5103 74.6283,-79.4599 79.2371,-84.7286"/>
</g>
<!-- Node6 -->
<g id="node11" class="node"><title>Node6</title>
<a xlink:href="../../de/dfc/vti__ps_8h.xhtml" target="_top" xlink:title="vti_ps.h">
<polygon fill="white" stroke="black" points="64.5,-112.5 64.5,-131.5 115.5,-131.5 115.5,-112.5 64.5,-112.5"/>
<text text-anchor="middle" x="90" y="-119.5" font-family="Helvetica,sans-Serif" font-size="10.00">vti_ps.h</text>
</a>
</g>
<!-- Node1&#45;&gt;Node6 -->
<g id="edge10" class="edge"><title>Node1&#45;&gt;Node6</title>
<path fill="none" stroke="midnightblue" d="M90,-168.083C90,-161.006 90,-150.861 90,-141.986"/>
<polygon fill="midnightblue" stroke="midnightblue" points="93.5001,-141.751 90,-131.751 86.5001,-141.751 93.5001,-141.751"/>
</g>
<!-- Node7 -->
<g id="node13" class="node"><title>Node7</title>
<a xlink:href="../../d5/dd0/timer_8h.xhtml" target="_top" xlink:title="openchronos&#45;ng timer driver">
<polygon fill="white" stroke="black" points="133.5,-112.5 133.5,-131.5 180.5,-131.5 180.5,-112.5 133.5,-112.5"/>
<text text-anchor="middle" x="157" y="-119.5" font-family="Helvetica,sans-Serif" font-size="10.00">timer.h</text>
</a>
</g>
<!-- Node1&#45;&gt;Node7 -->
<g id="edge12" class="edge"><title>Node1&#45;&gt;Node7</title>
<path fill="none" stroke="midnightblue" d="M100.765,-168.324C110.766,-160.263 125.887,-148.077 137.93,-138.369"/>
<polygon fill="midnightblue" stroke="midnightblue" points="140.45,-140.834 146.039,-131.834 136.057,-135.384 140.45,-140.834"/>
</g>
<!-- Node3 -->
<g id="node5" class="node"><title>Node3</title>
<polygon fill="white" stroke="#bfbfbf" points="0,-0.5 0,-19.5 48,-19.5 48,-0.5 0,-0.5"/>
<text text-anchor="middle" x="24" y="-7.5" font-family="Helvetica,sans-Serif" font-size="10.00">stdlib.h</text>
</g>
<!-- Node2&#45;&gt;Node3 -->
<g id="edge4" class="edge"><title>Node2&#45;&gt;Node3</title>
<path fill="none" stroke="midnightblue" d="M84.432,-56.324C73.5798,-48.1849 57.1193,-35.8395 44.1166,-26.0874"/>
<polygon fill="midnightblue" stroke="midnightblue" points="45.8786,-23.0339 35.7785,-19.8339 41.6785,-28.6339 45.8786,-23.0339"/>
</g>
<!-- Node4 -->
<g id="node7" class="node"><title>Node4</title>
<polygon fill="white" stroke="#bfbfbf" points="66.5,-0.5 66.5,-19.5 125.5,-19.5 125.5,-0.5 66.5,-0.5"/>
<text text-anchor="middle" x="96" y="-7.5" font-family="Helvetica,sans-Serif" font-size="10.00">msp430.h</text>
</g>
<!-- Node2&#45;&gt;Node4 -->
<g id="edge6" class="edge"><title>Node2&#45;&gt;Node4</title>
<path fill="none" stroke="midnightblue" d="M96,-56.083C96,-49.0059 96,-38.8611 96,-29.9865"/>
<polygon fill="midnightblue" stroke="midnightblue" points="99.5001,-29.751 96,-19.7511 92.5001,-29.7511 99.5001,-29.751"/>
</g>
<!-- Node5 -->
<g id="node9" class="node"><title>Node5</title>
<a xlink:href="../../db/d16/config_8h.xhtml" target="_top" xlink:title="config/config.h">
<polygon fill="white" stroke="black" points="144,-0.5 144,-19.5 224,-19.5 224,-0.5 144,-0.5"/>
<text text-anchor="middle" x="184" y="-7.5" font-family="Helvetica,sans-Serif" font-size="10.00">config/config.h</text>
</a>
</g>
<!-- Node2&#45;&gt;Node5 -->
<g id="edge8" class="edge"><title>Node2&#45;&gt;Node5</title>
<path fill="none" stroke="midnightblue" d="M110.139,-56.324C123.866,-47.9002 144.936,-34.9709 161.064,-25.0741"/>
<polygon fill="midnightblue" stroke="midnightblue" points="163.204,-27.8678 169.896,-19.6545 159.543,-21.9016 163.204,-27.8678"/>
</g>
<!-- Node7&#45;&gt;Node2 -->
<g id="edge14" class="edge"><title>Node7&#45;&gt;Node2</title>
<path fill="none" stroke="midnightblue" d="M147.199,-112.324C138.182,-104.341 124.594,-92.3128 113.682,-82.6529"/>
<polygon fill="midnightblue" stroke="midnightblue" points="115.787,-79.8416 105.979,-75.8339 111.147,-85.083 115.787,-79.8416"/>
</g>
</g>
</svg>
