<?xml version="1.0" encoding="UTF-8" standalone="no"?>
<!DOCTYPE svg PUBLIC "-//W3C//DTD SVG 1.1//EN"
 "http://www.w3.org/Graphics/SVG/1.1/DTD/svg11.dtd">
<!-- Generated by graphviz version 2.28.0 (20121221.0049)
 -->
<!-- Title: drivers/display.c Pages: 1 -->
<svg width="234pt" height="196pt"
 viewBox="0.00 0.00 234.00 196.00" xmlns="http://www.w3.org/2000/svg" xmlns:xlink="http://www.w3.org/1999/xlink">
<g id="graph1" class="graph" transform="scale(1 1) rotate(0) translate(4 192)">
<title>drivers/display.c</title>
<polygon fill="white" stroke="white" points="-4,5 -4,-192 231,-192 231,5 -4,5"/>
<!-- Node1 -->
<g id="node1" class="node"><title>Node1</title>
<polygon fill="#bfbfbf" stroke="black" points="41,-168.5 41,-187.5 129,-187.5 129,-168.5 41,-168.5"/>
<text text-anchor="middle" x="85" y="-175.5" font-family="Helvetica,sans-Serif" font-size="10.00">drivers/display.c</text>
</g>
<!-- Node2 -->
<g id="node3" class="node"><title>Node2</title>
<a xlink:href="../../d9/d95/openchronos_8h.xhtml" target="_top" xlink:title="Main include file.">
<polygon fill="white" stroke="black" points="49,-56.5 49,-75.5 151,-75.5 151,-56.5 49,-56.5"/>
<text text-anchor="middle" x="100" y="-63.5" font-family="Helvetica,sans-Serif" font-size="10.00">core/openchronos.h</text>
</a>
</g>
<!-- Node1&#45;&gt;Node2 -->
<g id="edge2" class="edge"><title>Node1&#45;&gt;Node2</title>
<path fill="none" stroke="midnightblue" d="M82.5594,-168.481C79.3431,-155.959 74.5819,-131.915 79,-112 81.124,-102.426 85.5066,-92.4756 89.7212,-84.3735"/>
<polygon fill="midnightblue" stroke="midnightblue" points="92.8221,-85.9989 94.6159,-75.557 86.7019,-82.6012 92.8221,-85.9989"/>
</g>
<!-- Node3 -->
<g id="node5" class="node"><title>Node3</title>
<polygon fill="white" stroke="#bfbfbf" points="0,-0.5 0,-19.5 48,-19.5 48,-0.5 0,-0.5"/>
<text text-anchor="middle" x="24" y="-7.5" font-family="Helvetica,sans-Serif" font-size="10.00">stdlib.h</text>
</g>
<!-- Node1&#45;&gt;Node3 -->
<g id="edge12" class="edge"><title>Node1&#45;&gt;Node3</title>
<path fill="none" stroke="midnightblue" d="M80.4851,-168.296C71.6921,-151.066 52.0765,-111.229 40,-76 34.7534,-60.6949 30.4813,-42.813 27.6755,-29.6833"/>
<polygon fill="midnightblue" stroke="midnightblue" points="31.0359,-28.6465 25.5996,-19.5527 24.1783,-30.0518 31.0359,-28.6465"/>
</g>
<!-- Node6 -->
<g id="node11" class="node"><title>Node6</title>
<polygon fill="white" stroke="#bfbfbf" points="87.5,-112.5 87.5,-131.5 136.5,-131.5 136.5,-112.5 87.5,-112.5"/>
<text text-anchor="middle" x="112" y="-119.5" font-family="Helvetica,sans-Serif" font-size="10.00">string.h</text>
</g>
<!-- Node1&#45;&gt;Node6 -->
<g id="edge10" class="edge"><title>Node1&#45;&gt;Node6</title>
<path fill="none" stroke="midnightblue" d="M89.4585,-168.083C93.1543,-160.691 98.5234,-149.953 103.094,-140.811"/>
<polygon fill="midnightblue" stroke="midnightblue" points="106.283,-142.261 107.624,-131.751 100.022,-139.13 106.283,-142.261"/>
</g>
<!-- Node7 -->
<g id="node14" class="node"><title>Node7</title>
<a xlink:href="../../d4/d68/display_8h.xhtml" target="_top" xlink:title="Display driver.">
<polygon fill="white" stroke="black" points="155,-112.5 155,-131.5 211,-131.5 211,-112.5 155,-112.5"/>
<text text-anchor="middle" x="183" y="-119.5" font-family="Helvetica,sans-Serif" font-size="10.00">display.h</text>
</a>
</g>
<!-- Node1&#45;&gt;Node7 -->
<g id="edge14" class="edge"><title>Node1&#45;&gt;Node7</title>
<path fill="none" stroke="midnightblue" d="M100.745,-168.324C116.319,-159.743 140.377,-146.486 158.459,-136.522"/>
<polygon fill="midnightblue" stroke="midnightblue" points="160.224,-139.546 167.294,-131.655 156.846,-133.415 160.224,-139.546"/>
</g>
<!-- Node2&#45;&gt;Node3 -->
<g id="edge4" class="edge"><title>Node2&#45;&gt;Node3</title>
<path fill="none" stroke="midnightblue" d="M87.7893,-56.324C76.2241,-48.1066 58.6246,-35.6017 44.8393,-25.8069"/>
<polygon fill="midnightblue" stroke="midnightblue" points="46.612,-22.7729 36.4329,-19.8339 42.5575,-28.4791 46.612,-22.7729"/>
</g>
<!-- Node4 -->
<g id="node7" class="node"><title>Node4</title>
<polygon fill="white" stroke="#bfbfbf" points="68.5,-0.5 68.5,-19.5 127.5,-19.5 127.5,-0.5 68.5,-0.5"/>
<text text-anchor="middle" x="98" y="-7.5" font-family="Helvetica,sans-Serif" font-size="10.00">msp430.h</text>
</g>
<!-- Node2&#45;&gt;Node4 -->
<g id="edge6" class="edge"><title>Node2&#45;&gt;Node4</title>
<path fill="none" stroke="midnightblue" d="M99.6697,-56.083C99.4076,-49.0059 99.0319,-38.8611 98.7032,-29.9865"/>
<polygon fill="midnightblue" stroke="midnightblue" points="102.192,-29.6147 98.3241,-19.7511 95.1967,-29.8738 102.192,-29.6147"/>
</g>
<!-- Node5 -->
<g id="node9" class="node"><title>Node5</title>
<a xlink:href="../../db/d16/config_8h.xhtml" target="_top" xlink:title="config/config.h">
<polygon fill="white" stroke="black" points="146,-0.5 146,-19.5 226,-19.5 226,-0.5 146,-0.5"/>
<text text-anchor="middle" x="186" y="-7.5" font-family="Helvetica,sans-Serif" font-size="10.00">config/config.h</text>
</a>
</g>
<!-- Node2&#45;&gt;Node5 -->
<g id="edge8" class="edge"><title>Node2&#45;&gt;Node5</title>
<path fill="none" stroke="midnightblue" d="M113.817,-56.324C127.233,-47.9002 147.824,-34.9709 163.586,-25.0741"/>
<polygon fill="midnightblue" stroke="midnightblue" points="165.609,-27.9364 172.217,-19.6545 161.887,-22.0081 165.609,-27.9364"/>
</g>
<!-- Node7&#45;&gt;Node2 -->
<g id="edge16" class="edge"><title>Node7&#45;&gt;Node2</title>
<path fill="none" stroke="midnightblue" d="M169.665,-112.324C156.838,-103.979 137.215,-91.2122 122.06,-81.3524"/>
<polygon fill="midnightblue" stroke="midnightblue" points="123.593,-78.1742 113.302,-75.6545 119.776,-84.0417 123.593,-78.1742"/>
</g>
</g>
</svg>
