<?xml version="1.0" encoding="UTF-8" standalone="no"?>
<!DOCTYPE svg PUBLIC "-//W3C//DTD SVG 1.1//EN"
 "http://www.w3.org/Graphics/SVG/1.1/DTD/svg11.dtd">
<!-- Generated by graphviz version 2.28.0 (20121221.0049)
 -->
<!-- Title: drivers/temperature.h Pages: 1 -->
<svg width="372pt" height="84pt"
 viewBox="0.00 0.00 372.00 84.00" xmlns="http://www.w3.org/2000/svg" xmlns:xlink="http://www.w3.org/1999/xlink">
<g id="graph1" class="graph" transform="scale(1 1) rotate(0) translate(4 80)">
<title>drivers/temperature.h</title>
<polygon fill="white" stroke="white" points="-4,5 -4,-80 369,-80 369,5 -4,5"/>
<!-- Node1 -->
<g id="node1" class="node"><title>Node1</title>
<polygon fill="#bfbfbf" stroke="black" points="120.5,-56.5 120.5,-75.5 229.5,-75.5 229.5,-56.5 120.5,-56.5"/>
<text text-anchor="middle" x="175" y="-63.5" font-family="Helvetica,sans-Serif" font-size="10.00">drivers/temperature.h</text>
</g>
<!-- Node2 -->
<g id="node3" class="node"><title>Node2</title>
<a xlink:href="../../d2/df2/openchronos_8c.xhtml" target="_top" xlink:title="Main loop &amp; user interface.">
<polygon fill="white" stroke="black" points="0,-0.5 0,-19.5 102,-19.5 102,-0.5 0,-0.5"/>
<text text-anchor="middle" x="51" y="-7.5" font-family="Helvetica,sans-Serif" font-size="10.00">core/openchronos.c</text>
</a>
</g>
<!-- Node1&#45;&gt;Node2 -->
<g id="edge2" class="edge"><title>Node1&#45;&gt;Node2</title>
<path fill="none" stroke="midnightblue" d="M145.993,-52.3678C122.771,-42.2553 90.8375,-28.3486 70.5562,-19.5164"/>
<polygon fill="midnightblue" stroke="midnightblue" points="144.786,-55.6597 155.352,-56.4435 147.581,-49.2419 144.786,-55.6597"/>
</g>
<!-- Node3 -->
<g id="node5" class="node"><title>Node3</title>
<a xlink:href="../../d8/dd8/drivers_2temperature_8c.xhtml" target="_top" xlink:title="drivers/temperature.c">
<polygon fill="white" stroke="black" points="120.5,-0.5 120.5,-19.5 229.5,-19.5 229.5,-0.5 120.5,-0.5"/>
<text text-anchor="middle" x="175" y="-7.5" font-family="Helvetica,sans-Serif" font-size="10.00">drivers/temperature.c</text>
</a>
</g>
<!-- Node1&#45;&gt;Node3 -->
<g id="edge4" class="edge"><title>Node1&#45;&gt;Node3</title>
<path fill="none" stroke="midnightblue" d="M175,-45.8045C175,-36.9102 175,-26.7798 175,-19.7511"/>
<polygon fill="midnightblue" stroke="midnightblue" points="171.5,-46.083 175,-56.083 178.5,-46.083 171.5,-46.083"/>
</g>
<!-- Node4 -->
<g id="node7" class="node"><title>Node4</title>
<a xlink:href="../../db/d97/modules_2temperature_8c.xhtml" target="_top" xlink:title="modules/temperature.c">
<polygon fill="white" stroke="black" points="248,-0.5 248,-19.5 364,-19.5 364,-0.5 248,-0.5"/>
<text text-anchor="middle" x="306" y="-7.5" font-family="Helvetica,sans-Serif" font-size="10.00">modules/temperature.c</text>
</a>
</g>
<!-- Node1&#45;&gt;Node4 -->
<g id="edge6" class="edge"><title>Node1&#45;&gt;Node4</title>
<path fill="none" stroke="midnightblue" d="M205.317,-52.503C229.876,-42.3795 263.818,-28.388 285.34,-19.5164"/>
<polygon fill="midnightblue" stroke="midnightblue" points="203.669,-49.3966 195.757,-56.4435 206.337,-55.8683 203.669,-49.3966"/>
</g>
</g>
</svg>
