<?xml version="1.0" encoding="UTF-8" standalone="no"?>
<!DOCTYPE svg PUBLIC "-//W3C//DTD SVG 1.1//EN"
 "http://www.w3.org/Graphics/SVG/1.1/DTD/svg11.dtd">
<!-- Generated by graphviz version 2.28.0 (20121221.0049)
 -->
<!-- Title: mod_rfbsl_init Pages: 1 -->
<svg width="786pt" height="142pt"
 viewBox="0.00 0.00 786.00 142.00" xmlns="http://www.w3.org/2000/svg" xmlns:xlink="http://www.w3.org/1999/xlink">
<g id="graph1" class="graph" transform="scale(1 1) rotate(0) translate(4 138)">
<title>mod_rfbsl_init</title>
<polygon fill="white" stroke="white" points="-4,5 -4,-138 783,-138 783,5 -4,5"/>
<!-- Node1 -->
<g id="node1" class="node"><title>Node1</title>
<polygon fill="#bfbfbf" stroke="black" points="0.5,-57.5 0.5,-76.5 77.5,-76.5 77.5,-57.5 0.5,-57.5"/>
<text text-anchor="middle" x="39" y="-64.5" font-family="Helvetica,sans-Serif" font-size="10.00">mod_rfbsl_init</text>
</g>
<!-- Node2 -->
<g id="node3" class="node"><title>Node2</title>
<a xlink:href="../../d2/df2/openchronos_8c.xhtml#a71490cfda7ca71ac20d681a8a7a994e1" target="_top" xlink:title="Adds an entry to the main menu.">
<polygon fill="white" stroke="black" points="114.5,-114.5 114.5,-133.5 203.5,-133.5 203.5,-114.5 114.5,-114.5"/>
<text text-anchor="middle" x="159" y="-121.5" font-family="Helvetica,sans-Serif" font-size="10.00">menu_add_entry</text>
</a>
</g>
<!-- Node1&#45;&gt;Node2 -->
<g id="edge2" class="edge"><title>Node1&#45;&gt;Node2</title>
<path fill="none" stroke="midnightblue" d="M59.7505,-76.5405C78.7248,-85.7061 107.611,-99.6595 129.158,-110.068"/>
<polygon fill="midnightblue" stroke="midnightblue" points="127.658,-113.23 138.185,-114.428 130.703,-106.927 127.658,-113.23"/>
</g>
<!-- Node3 -->
<g id="node5" class="node"><title>Node3</title>
<a xlink:href="../../d1/dc6/rfbsl_8c.xhtml#adb663cb716f8d414ee1b7a54556f52ae" target="_top" xlink:title="updown_press">
<polygon fill="white" stroke="black" points="240,-76.5 240,-95.5 320,-95.5 320,-76.5 240,-76.5"/>
<text text-anchor="middle" x="280" y="-83.5" font-family="Helvetica,sans-Serif" font-size="10.00">updown_press</text>
</a>
</g>
<!-- Node1&#45;&gt;Node3 -->
<g id="edge4" class="edge"><title>Node1&#45;&gt;Node3</title>
<path fill="none" stroke="midnightblue" d="M77.6067,-69.9897C118.584,-73.2473 184.316,-78.4728 229.47,-82.0625"/>
<polygon fill="midnightblue" stroke="midnightblue" points="229.38,-85.5663 239.626,-82.8699 229.935,-78.5883 229.38,-85.5663"/>
</g>
<!-- Node8 -->
<g id="node15" class="node"><title>Node8</title>
<a xlink:href="../../d1/dc6/rfbsl_8c.xhtml#a9878554343e51488c9a876dda4be7770" target="_top" xlink:title="rfbsl_activate">
<polygon fill="white" stroke="black" points="242.5,-38.5 242.5,-57.5 317.5,-57.5 317.5,-38.5 242.5,-38.5"/>
<text text-anchor="middle" x="280" y="-45.5" font-family="Helvetica,sans-Serif" font-size="10.00">rfbsl_activate</text>
</a>
</g>
<!-- Node1&#45;&gt;Node8 -->
<g id="edge14" class="edge"><title>Node1&#45;&gt;Node8</title>
<path fill="none" stroke="midnightblue" d="M77.6067,-64.0103C119.438,-60.6849 187.065,-55.3086 232.265,-51.7153"/>
<polygon fill="midnightblue" stroke="midnightblue" points="232.705,-55.1915 242.397,-50.9099 232.151,-48.2135 232.705,-55.1915"/>
</g>
<!-- Node9 -->
<g id="node18" class="node"><title>Node9</title>
<a xlink:href="../../d1/dc6/rfbsl_8c.xhtml#a4aadbe8451efb3338b4839a4ce1faef3" target="_top" xlink:title="rfbsl_deactivate">
<polygon fill="white" stroke="black" points="116,-0.5 116,-19.5 202,-19.5 202,-0.5 116,-0.5"/>
<text text-anchor="middle" x="159" y="-7.5" font-family="Helvetica,sans-Serif" font-size="10.00">rfbsl_deactivate</text>
</a>
</g>
<!-- Node1&#45;&gt;Node9 -->
<g id="edge18" class="edge"><title>Node1&#45;&gt;Node9</title>
<path fill="none" stroke="midnightblue" d="M59.7505,-57.4595C78.7248,-48.2939 107.611,-34.3405 129.158,-23.9324"/>
<polygon fill="midnightblue" stroke="midnightblue" points="130.703,-27.0729 138.185,-19.5716 127.658,-20.7698 130.703,-27.0729"/>
</g>
<!-- Node4 -->
<g id="node7" class="node"><title>Node4</title>
<a xlink:href="../../db/d85/display_8c.xhtml#a6f2d5cdda31a73b43a569cb3d1a64165" target="_top" xlink:title="Displays several consecutive characters.">
<polygon fill="white" stroke="black" points="356.5,-38.5 356.5,-57.5 433.5,-57.5 433.5,-38.5 356.5,-38.5"/>
<text text-anchor="middle" x="395" y="-45.5" font-family="Helvetica,sans-Serif" font-size="10.00">display_chars</text>
</a>
</g>
<!-- Node3&#45;&gt;Node4 -->
<g id="edge6" class="edge"><title>Node3&#45;&gt;Node4</title>
<path fill="none" stroke="midnightblue" d="M309.515,-76.411C323.567,-71.6856 340.708,-65.9211 355.87,-60.8226"/>
<polygon fill="midnightblue" stroke="midnightblue" points="357.132,-64.0909 365.494,-57.5859 354.9,-57.456 357.132,-64.0909"/>
</g>
<!-- Node5 -->
<g id="node9" class="node"><title>Node5</title>
<a xlink:href="../../db/d85/display_8c.xhtml#a3ae30196af91197037d50cb49de1d109" target="_top" xlink:title="Displays a single character.">
<polygon fill="white" stroke="black" points="476.5,-38.5 476.5,-57.5 547.5,-57.5 547.5,-38.5 476.5,-38.5"/>
<text text-anchor="middle" x="512" y="-45.5" font-family="Helvetica,sans-Serif" font-size="10.00">display_char</text>
</a>
</g>
<!-- Node4&#45;&gt;Node5 -->
<g id="edge8" class="edge"><title>Node4&#45;&gt;Node5</title>
<path fill="none" stroke="midnightblue" d="M433.655,-48C444.08,-48 455.496,-48 466.281,-48"/>
<polygon fill="midnightblue" stroke="midnightblue" points="466.374,-51.5001 476.374,-48 466.374,-44.5001 466.374,-51.5001"/>
</g>
<!-- Node6 -->
<g id="node11" class="node"><title>Node6</title>
<a xlink:href="../../db/d85/display_8c.xhtml#a9275035317878022cf9eacf6b0a5be72" target="_top" xlink:title="Display a custom collection of segments.">
<polygon fill="white" stroke="black" points="590,-38.5 590,-57.5 658,-57.5 658,-38.5 590,-38.5"/>
<text text-anchor="middle" x="624" y="-45.5" font-family="Helvetica,sans-Serif" font-size="10.00">display_bits</text>
</a>
</g>
<!-- Node5&#45;&gt;Node6 -->
<g id="edge10" class="edge"><title>Node5&#45;&gt;Node6</title>
<path fill="none" stroke="midnightblue" d="M547.503,-48C557.721,-48 569.04,-48 579.738,-48"/>
<polygon fill="midnightblue" stroke="midnightblue" points="579.748,-51.5001 589.748,-48 579.748,-44.5001 579.748,-51.5001"/>
</g>
<!-- Node7 -->
<g id="node13" class="node"><title>Node7</title>
<a xlink:href="../../db/d85/display_8c.xhtml#a710739913e8ea1b71dd433b8311211fd" target="_top" xlink:title="write_lcd_mem">
<polygon fill="white" stroke="black" points="694.5,-19.5 694.5,-38.5 777.5,-38.5 777.5,-19.5 694.5,-19.5"/>
<text text-anchor="middle" x="736" y="-26.5" font-family="Helvetica,sans-Serif" font-size="10.00">write_lcd_mem</text>
</a>
</g>
<!-- Node6&#45;&gt;Node7 -->
<g id="edge12" class="edge"><title>Node6&#45;&gt;Node7</title>
<path fill="none" stroke="midnightblue" d="M658.004,-42.2994C666.28,-40.8698 675.352,-39.3029 684.273,-37.762"/>
<polygon fill="midnightblue" stroke="midnightblue" points="684.972,-41.1931 694.231,-36.042 683.781,-34.2952 684.972,-41.1931"/>
</g>
<!-- Node8&#45;&gt;Node4 -->
<g id="edge16" class="edge"><title>Node8&#45;&gt;Node4</title>
<path fill="none" stroke="midnightblue" d="M317.688,-48C326.774,-48 336.644,-48 346.176,-48"/>
<polygon fill="midnightblue" stroke="midnightblue" points="346.333,-51.5001 356.333,-48 346.333,-44.5001 346.333,-51.5001"/>
</g>
<!-- Node10 -->
<g id="node20" class="node"><title>Node10</title>
<a xlink:href="../../db/d85/display_8c.xhtml#aa150336a018e90f37fd0285047b541f6" target="_top" xlink:title="Clears the screen.">
<polygon fill="white" stroke="black" points="243,-0.5 243,-19.5 317,-19.5 317,-0.5 243,-0.5"/>
<text text-anchor="middle" x="280" y="-7.5" font-family="Helvetica,sans-Serif" font-size="10.00">display_clear</text>
</a>
</g>
<!-- Node9&#45;&gt;Node10 -->
<g id="edge20" class="edge"><title>Node9&#45;&gt;Node10</title>
<path fill="none" stroke="midnightblue" d="M202.29,-10C212.107,-10 222.608,-10 232.592,-10"/>
<polygon fill="midnightblue" stroke="midnightblue" points="232.758,-13.5001 242.758,-10 232.758,-6.5001 232.758,-13.5001"/>
</g>
<!-- Node10&#45;&gt;Node4 -->
<g id="edge22" class="edge"><title>Node10&#45;&gt;Node4</title>
<path fill="none" stroke="midnightblue" d="M309.515,-19.589C323.567,-24.3144 340.708,-30.0789 355.87,-35.1774"/>
<polygon fill="midnightblue" stroke="midnightblue" points="354.9,-38.544 365.494,-38.4141 357.132,-31.9091 354.9,-38.544"/>
</g>
<!-- Node11 -->
<g id="node23" class="node"><title>Node11</title>
<a xlink:href="../../db/d85/display_8c.xhtml#af604e78dcc4e0f1a204b2180c5e54957" target="_top" xlink:title="Displays a symbol.">
<polygon fill="white" stroke="black" points="470,-0.5 470,-19.5 554,-19.5 554,-0.5 470,-0.5"/>
<text text-anchor="middle" x="512" y="-7.5" font-family="Helvetica,sans-Serif" font-size="10.00">display_symbol</text>
</a>
</g>
<!-- Node10&#45;&gt;Node11 -->
<g id="edge24" class="edge"><title>Node10&#45;&gt;Node11</title>
<path fill="none" stroke="midnightblue" d="M317.191,-10C355.605,-10 416.625,-10 459.925,-10"/>
<polygon fill="midnightblue" stroke="midnightblue" points="459.976,-13.5001 469.976,-10 459.976,-6.5001 459.976,-13.5001"/>
</g>
<!-- Node11&#45;&gt;Node7 -->
<g id="edge26" class="edge"><title>Node11&#45;&gt;Node7</title>
<path fill="none" stroke="midnightblue" d="M554.236,-13.5292C590.955,-16.6718 644.802,-21.2804 684.174,-24.65"/>
<polygon fill="midnightblue" stroke="midnightblue" points="684.097,-28.1562 694.359,-25.5218 684.694,-21.1817 684.097,-28.1562"/>
</g>
</g>
</svg>
