<?xml version="1.0" encoding="UTF-8" standalone="no"?>
<!DOCTYPE svg PUBLIC "-//W3C//DTD SVG 1.1//EN"
 "http://www.w3.org/Graphics/SVG/1.1/DTD/svg11.dtd">
<!-- Generated by graphviz version 2.28.0 (20121221.0049)
 -->
<!-- Title: updown_press Pages: 1 -->
<svg width="534pt" height="28pt"
 viewBox="0.00 0.00 534.00 28.00" xmlns="http://www.w3.org/2000/svg" xmlns:xlink="http://www.w3.org/1999/xlink">
<g id="graph1" class="graph" transform="scale(1 1) rotate(0) translate(4 24)">
<title>updown_press</title>
<polygon fill="white" stroke="white" points="-4,5 -4,-24 531,-24 531,5 -4,5"/>
<!-- Node1 -->
<g id="node1" class="node"><title>Node1</title>
<polygon fill="#bfbfbf" stroke="black" points="0,-0.5 0,-19.5 80,-19.5 80,-0.5 0,-0.5"/>
<text text-anchor="middle" x="40" y="-7.5" font-family="Helvetica,sans-Serif" font-size="10.00">updown_press</text>
</g>
<!-- Node2 -->
<g id="node3" class="node"><title>Node2</title>
<a xlink:href="../../db/d85/display_8c.xhtml#a6f2d5cdda31a73b43a569cb3d1a64165" target="_top" xlink:title="Displays several consecutive characters.">
<polygon fill="white" stroke="black" points="116.5,-0.5 116.5,-19.5 193.5,-19.5 193.5,-0.5 116.5,-0.5"/>
<text text-anchor="middle" x="155" y="-7.5" font-family="Helvetica,sans-Serif" font-size="10.00">display_chars</text>
</a>
</g>
<!-- Node1&#45;&gt;Node2 -->
<g id="edge2" class="edge"><title>Node1&#45;&gt;Node2</title>
<path fill="none" stroke="midnightblue" d="M80.2048,-10C88.635,-10 97.6337,-10 106.345,-10"/>
<polygon fill="midnightblue" stroke="midnightblue" points="106.387,-13.5001 116.387,-10 106.387,-6.5001 106.387,-13.5001"/>
</g>
<!-- Node3 -->
<g id="node5" class="node"><title>Node3</title>
<a xlink:href="../../db/d85/display_8c.xhtml#a3ae30196af91197037d50cb49de1d109" target="_top" xlink:title="Displays a single character.">
<polygon fill="white" stroke="black" points="230.5,-0.5 230.5,-19.5 301.5,-19.5 301.5,-0.5 230.5,-0.5"/>
<text text-anchor="middle" x="266" y="-7.5" font-family="Helvetica,sans-Serif" font-size="10.00">display_char</text>
</a>
</g>
<!-- Node2&#45;&gt;Node3 -->
<g id="edge4" class="edge"><title>Node2&#45;&gt;Node3</title>
<path fill="none" stroke="midnightblue" d="M193.512,-10C202.098,-10 211.31,-10 220.17,-10"/>
<polygon fill="midnightblue" stroke="midnightblue" points="220.35,-13.5001 230.35,-10 220.35,-6.5001 220.35,-13.5001"/>
</g>
<!-- Node4 -->
<g id="node7" class="node"><title>Node4</title>
<a xlink:href="../../db/d85/display_8c.xhtml#a9275035317878022cf9eacf6b0a5be72" target="_top" xlink:title="Display a custom collection of segments.">
<polygon fill="white" stroke="black" points="338,-0.5 338,-19.5 406,-19.5 406,-0.5 338,-0.5"/>
<text text-anchor="middle" x="372" y="-7.5" font-family="Helvetica,sans-Serif" font-size="10.00">display_bits</text>
</a>
</g>
<!-- Node3&#45;&gt;Node4 -->
<g id="edge6" class="edge"><title>Node3&#45;&gt;Node4</title>
<path fill="none" stroke="midnightblue" d="M301.63,-10C310.04,-10 319.133,-10 327.882,-10"/>
<polygon fill="midnightblue" stroke="midnightblue" points="327.931,-13.5001 337.931,-10 327.931,-6.5001 327.931,-13.5001"/>
</g>
<!-- Node5 -->
<g id="node9" class="node"><title>Node5</title>
<a xlink:href="../../db/d85/display_8c.xhtml#a710739913e8ea1b71dd433b8311211fd" target="_top" xlink:title="write_lcd_mem">
<polygon fill="white" stroke="black" points="442.5,-0.5 442.5,-19.5 525.5,-19.5 525.5,-0.5 442.5,-0.5"/>
<text text-anchor="middle" x="484" y="-7.5" font-family="Helvetica,sans-Serif" font-size="10.00">write_lcd_mem</text>
</a>
</g>
<!-- Node4&#45;&gt;Node5 -->
<g id="edge8" class="edge"><title>Node4&#45;&gt;Node5</title>
<path fill="none" stroke="midnightblue" d="M406.004,-10C414.191,-10 423.157,-10 431.985,-10"/>
<polygon fill="midnightblue" stroke="midnightblue" points="432.231,-13.5001 442.231,-10 432.231,-6.5001 432.231,-13.5001"/>
</g>
</g>
</svg>
