<?xml version="1.0" encoding="UTF-8" standalone="no"?>
<!DOCTYPE svg PUBLIC "-//W3C//DTD SVG 1.1//EN"
 "http://www.w3.org/Graphics/SVG/1.1/DTD/svg11.dtd">
<!-- Generated by graphviz version 2.28.0 (20121221.0049)
 -->
<!-- Title: rtca_set_date Pages: 1 -->
<svg width="240pt" height="66pt"
 viewBox="0.00 0.00 240.00 66.00" xmlns="http://www.w3.org/2000/svg" xmlns:xlink="http://www.w3.org/1999/xlink">
<g id="graph1" class="graph" transform="scale(1 1) rotate(0) translate(4 62)">
<title>rtca_set_date</title>
<polygon fill="white" stroke="white" points="-4,5 -4,-62 237,-62 237,5 -4,5"/>
<!-- Node1 -->
<g id="node1" class="node"><title>Node1</title>
<polygon fill="#bfbfbf" stroke="black" points="0,-19.5 0,-38.5 76,-38.5 76,-19.5 0,-19.5"/>
<text text-anchor="middle" x="38" y="-26.5" font-family="Helvetica,sans-Serif" font-size="10.00">rtca_set_date</text>
</g>
<!-- Node2 -->
<g id="node3" class="node"><title>Node2</title>
<a xlink:href="../../d4/d9d/rtca_8c.xhtml#ae4754ee1b841e8b4e838253fb0b4ebd3" target="_top" xlink:title="rtca_get_max_days">
<polygon fill="white" stroke="black" points="121,-38.5 121,-57.5 223,-57.5 223,-38.5 121,-38.5"/>
<text text-anchor="middle" x="172" y="-45.5" font-family="Helvetica,sans-Serif" font-size="10.00">rtca_get_max_days</text>
</a>
</g>
<!-- Node1&#45;&gt;Node2 -->
<g id="edge2" class="edge"><title>Node1&#45;&gt;Node2</title>
<path fill="none" stroke="midnightblue" d="M76.1206,-34.3431C86.8547,-35.8882 98.8581,-37.6159 110.622,-39.3092"/>
<polygon fill="midnightblue" stroke="midnightblue" points="110.463,-42.8223 120.86,-40.7828 111.46,-35.8937 110.463,-42.8223"/>
</g>
<!-- Node3 -->
<g id="node5" class="node"><title>Node3</title>
<a xlink:href="../../d4/d53/rtc__dst_8h.xhtml#ad054f92362bb72817d29c5a54898b6f9" target="_top" xlink:title="rtc_dst_calculate_dates">
<polygon fill="white" stroke="black" points="112,-0.5 112,-19.5 232,-19.5 232,-0.5 112,-0.5"/>
<text text-anchor="middle" x="172" y="-7.5" font-family="Helvetica,sans-Serif" font-size="10.00">rtc_dst_calculate_dates</text>
</a>
</g>
<!-- Node1&#45;&gt;Node3 -->
<g id="edge4" class="edge"><title>Node1&#45;&gt;Node3</title>
<path fill="none" stroke="midnightblue" d="M76.1206,-23.6569C84.2096,-22.4926 93.0194,-21.2245 101.904,-19.9456"/>
<polygon fill="midnightblue" stroke="midnightblue" points="102.534,-23.3912 111.933,-18.5021 101.536,-16.4626 102.534,-23.3912"/>
</g>
</g>
</svg>
