<?xml version="1.0" encoding="UTF-8" standalone="no"?>
<!DOCTYPE svg PUBLIC "-//W3C//DTD SVG 1.1//EN"
 "http://www.w3.org/Graphics/SVG/1.1/DTD/svg11.dtd">
<!-- Generated by graphviz version 2.28.0 (20121221.0049)
 -->
<!-- Title: temperature_edit Pages: 1 -->
<svg width="716pt" height="100pt"
 viewBox="0.00 0.00 716.00 99.77" xmlns="http://www.w3.org/2000/svg" xmlns:xlink="http://www.w3.org/1999/xlink">
<g id="graph1" class="graph" transform="scale(1 1) rotate(0) translate(4 95.7719)">
<title>temperature_edit</title>
<polygon fill="white" stroke="white" points="-4,5 -4,-95.7719 713,-95.7719 713,5 -4,5"/>
<!-- Node1 -->
<g id="node1" class="node"><title>Node1</title>
<polygon fill="#bfbfbf" stroke="black" points="0.5,-34.2719 0.5,-53.2719 89.5,-53.2719 89.5,-34.2719 0.5,-34.2719"/>
<text text-anchor="middle" x="45" y="-41.2719" font-family="Helvetica,sans-Serif" font-size="10.00">temperature_edit</text>
</g>
<!-- Node2 -->
<g id="node3" class="node"><title>Node2</title>
<a xlink:href="../../db/d85/display_8c.xhtml#a0e030727a1bc4d1418bb96cc71350203" target="_top" xlink:title="Activates a virtual screen.">
<polygon fill="white" stroke="black" points="272,-72.2719 272,-91.2719 376,-91.2719 376,-72.2719 272,-72.2719"/>
<text text-anchor="middle" x="324" y="-79.2719" font-family="Helvetica,sans-Serif" font-size="10.00">lcd_screen_activate</text>
</a>
</g>
<!-- Node1&#45;&gt;Node2 -->
<g id="edge2" class="edge"><title>Node1&#45;&gt;Node2</title>
<path fill="none" stroke="midnightblue" d="M60.897,-53.3379C76.4347,-62.7015 101.85,-76.3279 126,-81.7719 170.563,-91.8177 222.25,-91.381 261.498,-88.6654"/>
<polygon fill="midnightblue" stroke="midnightblue" points="262.002,-92.1373 271.708,-87.8887 261.471,-85.1574 262.002,-92.1373"/>
</g>
<!-- Node4 -->
<g id="node7" class="node"><title>Node4</title>
<a xlink:href="../../db/d85/display_8c.xhtml#a6f2d5cdda31a73b43a569cb3d1a64165" target="_top" xlink:title="Displays several consecutive characters.">
<polygon fill="white" stroke="black" points="285.5,-15.2719 285.5,-34.2719 362.5,-34.2719 362.5,-15.2719 285.5,-15.2719"/>
<text text-anchor="middle" x="324" y="-22.2719" font-family="Helvetica,sans-Serif" font-size="10.00">display_chars</text>
</a>
</g>
<!-- Node1&#45;&gt;Node4 -->
<g id="edge6" class="edge"><title>Node1&#45;&gt;Node4</title>
<path fill="none" stroke="midnightblue" d="M60.897,-34.2059C76.4347,-24.8423 101.85,-11.2159 126,-5.7719 178.221,6.00041 239.844,-3.59316 280.084,-12.907"/>
<polygon fill="midnightblue" stroke="midnightblue" points="279.293,-16.3166 289.835,-15.2557 280.932,-9.51121 279.293,-16.3166"/>
</g>
<!-- Node8 -->
<g id="node15" class="node"><title>Node8</title>
<a xlink:href="../../d2/df2/openchronos_8c.xhtml#afb7a89cc8739b9788a27e80d8b0d90e9" target="_top" xlink:title="Enters edit mode.">
<polygon fill="white" stroke="black" points="126,-15.2719 126,-34.2719 236,-34.2719 236,-15.2719 126,-15.2719"/>
<text text-anchor="middle" x="181" y="-22.2719" font-family="Helvetica,sans-Serif" font-size="10.00">menu_editmode_start</text>
</a>
</g>
<!-- Node1&#45;&gt;Node8 -->
<g id="edge14" class="edge"><title>Node1&#45;&gt;Node8</title>
<path fill="none" stroke="midnightblue" d="M89.506,-37.6031C97.9456,-36.4065 106.955,-35.1291 115.895,-33.8614"/>
<polygon fill="midnightblue" stroke="midnightblue" points="116.516,-37.3085 125.926,-32.4392 115.533,-30.3778 116.516,-37.3085"/>
</g>
<!-- Node9 -->
<g id="node17" class="node"><title>Node9</title>
<a xlink:href="../../db/d97/modules_2temperature_8c.xhtml#a526be03516a6dde8148ef26954c1ab5a" target="_top" xlink:title="Stuff to do when we exit the edit mode.">
<polygon fill="white" stroke="black" points="151.5,-53.2719 151.5,-72.2719 210.5,-72.2719 210.5,-53.2719 151.5,-53.2719"/>
<text text-anchor="middle" x="181" y="-60.2719" font-family="Helvetica,sans-Serif" font-size="10.00">edit_save</text>
</a>
</g>
<!-- Node1&#45;&gt;Node9 -->
<g id="edge16" class="edge"><title>Node1&#45;&gt;Node9</title>
<path fill="none" stroke="midnightblue" d="M89.506,-49.9407C106.181,-52.305 125.079,-54.9846 141.277,-57.2813"/>
<polygon fill="midnightblue" stroke="midnightblue" points="141.088,-60.7895 151.481,-58.7281 142.071,-53.8588 141.088,-60.7895"/>
</g>
<!-- Node3 -->
<g id="node5" class="node"><title>Node3</title>
<a xlink:href="../../d2/df2/openchronos_8c.xhtml#a72f5591868e0c66a539eacdcd0b520d7" target="_top" xlink:title="Increment/decrements value by one without exiting the [lower, upper] interval.">
<polygon fill="white" stroke="black" points="412.5,-72.2719 412.5,-91.2719 483.5,-91.2719 483.5,-72.2719 412.5,-72.2719"/>
<text text-anchor="middle" x="448" y="-79.2719" font-family="Helvetica,sans-Serif" font-size="10.00">helpers_loop</text>
</a>
</g>
<!-- Node2&#45;&gt;Node3 -->
<g id="edge4" class="edge"><title>Node2&#45;&gt;Node3</title>
<path fill="none" stroke="midnightblue" d="M376.032,-81.7719C384.759,-81.7719 393.766,-81.7719 402.312,-81.7719"/>
<polygon fill="midnightblue" stroke="midnightblue" points="402.458,-85.272 412.458,-81.7719 402.458,-78.272 402.458,-85.272"/>
</g>
<!-- Node5 -->
<g id="node9" class="node"><title>Node5</title>
<a xlink:href="../../db/d85/display_8c.xhtml#a3ae30196af91197037d50cb49de1d109" target="_top" xlink:title="Displays a single character.">
<polygon fill="white" stroke="black" points="412.5,-15.2719 412.5,-34.2719 483.5,-34.2719 483.5,-15.2719 412.5,-15.2719"/>
<text text-anchor="middle" x="448" y="-22.2719" font-family="Helvetica,sans-Serif" font-size="10.00">display_char</text>
</a>
</g>
<!-- Node4&#45;&gt;Node5 -->
<g id="edge8" class="edge"><title>Node4&#45;&gt;Node5</title>
<path fill="none" stroke="midnightblue" d="M362.6,-24.7719C375.085,-24.7719 389.112,-24.7719 402.091,-24.7719"/>
<polygon fill="midnightblue" stroke="midnightblue" points="402.227,-28.272 412.227,-24.7719 402.227,-21.272 402.227,-28.272"/>
</g>
<!-- Node6 -->
<g id="node11" class="node"><title>Node6</title>
<a xlink:href="../../db/d85/display_8c.xhtml#a9275035317878022cf9eacf6b0a5be72" target="_top" xlink:title="Display a custom collection of segments.">
<polygon fill="white" stroke="black" points="520,-15.2719 520,-34.2719 588,-34.2719 588,-15.2719 520,-15.2719"/>
<text text-anchor="middle" x="554" y="-22.2719" font-family="Helvetica,sans-Serif" font-size="10.00">display_bits</text>
</a>
</g>
<!-- Node5&#45;&gt;Node6 -->
<g id="edge10" class="edge"><title>Node5&#45;&gt;Node6</title>
<path fill="none" stroke="midnightblue" d="M483.63,-24.7719C492.04,-24.7719 501.133,-24.7719 509.882,-24.7719"/>
<polygon fill="midnightblue" stroke="midnightblue" points="509.931,-28.272 519.931,-24.7719 509.931,-21.272 509.931,-28.272"/>
</g>
<!-- Node7 -->
<g id="node13" class="node"><title>Node7</title>
<a xlink:href="../../db/d85/display_8c.xhtml#a710739913e8ea1b71dd433b8311211fd" target="_top" xlink:title="write_lcd_mem">
<polygon fill="white" stroke="black" points="624.5,-15.2719 624.5,-34.2719 707.5,-34.2719 707.5,-15.2719 624.5,-15.2719"/>
<text text-anchor="middle" x="666" y="-22.2719" font-family="Helvetica,sans-Serif" font-size="10.00">write_lcd_mem</text>
</a>
</g>
<!-- Node6&#45;&gt;Node7 -->
<g id="edge12" class="edge"><title>Node6&#45;&gt;Node7</title>
<path fill="none" stroke="midnightblue" d="M588.004,-24.7719C596.191,-24.7719 605.157,-24.7719 613.985,-24.7719"/>
<polygon fill="midnightblue" stroke="midnightblue" points="614.231,-28.272 624.231,-24.7719 614.231,-21.272 614.231,-28.272"/>
</g>
<!-- Node9&#45;&gt;Node2 -->
<g id="edge20" class="edge"><title>Node9&#45;&gt;Node2</title>
<path fill="none" stroke="midnightblue" d="M210.533,-66.6168C225.265,-68.602 243.841,-71.105 261.628,-73.5019"/>
<polygon fill="midnightblue" stroke="midnightblue" points="261.596,-77.0292 271.974,-74.8961 262.531,-70.0919 261.596,-77.0292"/>
</g>
<!-- Node9&#45;&gt;Node4 -->
<g id="edge18" class="edge"><title>Node9&#45;&gt;Node4</title>
<path fill="none" stroke="midnightblue" d="M210.533,-55.082C229.793,-49.8914 255.623,-42.9301 277.672,-36.9879"/>
<polygon fill="midnightblue" stroke="midnightblue" points="278.755,-40.3211 287.499,-34.3394 276.933,-33.5623 278.755,-40.3211"/>
</g>
</g>
</svg>
