<?xml version="1.0" encoding="UTF-8" standalone="no"?>
<!DOCTYPE svg PUBLIC "-//W3C//DTD SVG 1.1//EN"
 "http://www.w3.org/Graphics/SVG/1.1/DTD/svg11.dtd">
<!-- Generated by graphviz version 2.28.0 (20121221.0049)
 -->
<!-- Title: temperature_activate Pages: 1 -->
<svg width="1068pt" height="408pt"
 viewBox="0.00 0.00 1068.00 408.00" xmlns="http://www.w3.org/2000/svg" xmlns:xlink="http://www.w3.org/1999/xlink">
<g id="graph1" class="graph" transform="scale(1 1) rotate(0) translate(4 404)">
<title>temperature_activate</title>
<polygon fill="white" stroke="white" points="-4,5 -4,-404 1065,-404 1065,5 -4,5"/>
<!-- Node1 -->
<g id="node1" class="node"><title>Node1</title>
<polygon fill="#bfbfbf" stroke="black" points="0,-304.5 0,-323.5 108,-323.5 108,-304.5 0,-304.5"/>
<text text-anchor="middle" x="54" y="-311.5" font-family="Helvetica,sans-Serif" font-size="10.00">temperature_activate</text>
</g>
<!-- Node2 -->
<g id="node3" class="node"><title>Node2</title>
<a xlink:href="../../db/d85/display_8c.xhtml#a4c1000a508e4527145c75b4827d81dd8" target="_top" xlink:title="Creates virtual screens.">
<polygon fill="white" stroke="black" points="159.5,-380.5 159.5,-399.5 260.5,-399.5 260.5,-380.5 159.5,-380.5"/>
<text text-anchor="middle" x="210" y="-387.5" font-family="Helvetica,sans-Serif" font-size="10.00">lcd_screens_create</text>
</a>
</g>
<!-- Node1&#45;&gt;Node2 -->
<g id="edge2" class="edge"><title>Node1&#45;&gt;Node2</title>
<path fill="none" stroke="midnightblue" d="M69.6828,-323.658C86.9813,-334.778 116.815,-353.161 144,-366 152.298,-369.919 161.423,-373.634 170.145,-376.918"/>
<polygon fill="midnightblue" stroke="midnightblue" points="169.161,-380.285 179.755,-380.431 171.565,-373.71 169.161,-380.285"/>
</g>
<!-- Node3 -->
<g id="node5" class="node"><title>Node3</title>
<a xlink:href="../../db/d85/display_8c.xhtml#a6f2d5cdda31a73b43a569cb3d1a64165" target="_top" xlink:title="Displays several consecutive characters.">
<polygon fill="white" stroke="black" points="647.5,-209.5 647.5,-228.5 724.5,-228.5 724.5,-209.5 647.5,-209.5"/>
<text text-anchor="middle" x="686" y="-216.5" font-family="Helvetica,sans-Serif" font-size="10.00">display_chars</text>
</a>
</g>
<!-- Node1&#45;&gt;Node3 -->
<g id="edge4" class="edge"><title>Node1&#45;&gt;Node3</title>
<path fill="none" stroke="midnightblue" d="M81.2707,-323.554C164.469,-352.098 427.305,-429.003 608,-333 645.798,-312.918 668.41,-265.086 678.575,-238.197"/>
<polygon fill="midnightblue" stroke="midnightblue" points="681.896,-239.305 681.971,-228.711 675.305,-236.946 681.896,-239.305"/>
</g>
<!-- Node7 -->
<g id="node13" class="node"><title>Node7</title>
<a xlink:href="../../d2/df2/openchronos_8c.xhtml#a5aeb07d7031b5d53ca8605bf398714a2" target="_top" xlink:title="Registers a node in the message bus.">
<polygon fill="white" stroke="black" points="144.5,-190.5 144.5,-209.5 275.5,-209.5 275.5,-190.5 144.5,-190.5"/>
<text text-anchor="middle" x="210" y="-197.5" font-family="Helvetica,sans-Serif" font-size="10.00">sys_messagebus_register</text>
</a>
</g>
<!-- Node1&#45;&gt;Node7 -->
<g id="edge12" class="edge"><title>Node1&#45;&gt;Node7</title>
<path fill="none" stroke="midnightblue" d="M61.3566,-304.32C74.469,-285.119 106.456,-242.08 144,-219 147.549,-216.818 151.362,-214.876 155.296,-213.15"/>
<polygon fill="midnightblue" stroke="midnightblue" points="156.592,-216.401 164.631,-209.5 154.043,-209.881 156.592,-216.401"/>
</g>
<!-- Node8 -->
<g id="node15" class="node"><title>Node8</title>
<a xlink:href="../../db/d97/modules_2temperature_8c.xhtml#a56b9c2baadf0cd544149272940d7e781" target="_top" xlink:title="Temperature display routine. Mesure and parse the temperature.">
<polygon fill="white" stroke="black" points="169.5,-228.5 169.5,-247.5 250.5,-247.5 250.5,-228.5 169.5,-228.5"/>
<text text-anchor="middle" x="210" y="-235.5" font-family="Helvetica,sans-Serif" font-size="10.00">measure_temp</text>
</a>
</g>
<!-- Node1&#45;&gt;Node8 -->
<g id="edge14" class="edge"><title>Node1&#45;&gt;Node8</title>
<path fill="none" stroke="midnightblue" d="M74.5042,-304.375C101.234,-291.183 149.44,-267.393 180.295,-252.166"/>
<polygon fill="midnightblue" stroke="midnightblue" points="182.236,-255.111 189.654,-247.547 179.138,-248.834 182.236,-255.111"/>
</g>
<!-- Node4 -->
<g id="node7" class="node"><title>Node4</title>
<a xlink:href="../../db/d85/display_8c.xhtml#a3ae30196af91197037d50cb49de1d109" target="_top" xlink:title="Displays a single character.">
<polygon fill="white" stroke="black" points="764.5,-152.5 764.5,-171.5 835.5,-171.5 835.5,-152.5 764.5,-152.5"/>
<text text-anchor="middle" x="800" y="-159.5" font-family="Helvetica,sans-Serif" font-size="10.00">display_char</text>
</a>
</g>
<!-- Node3&#45;&gt;Node4 -->
<g id="edge6" class="edge"><title>Node3&#45;&gt;Node4</title>
<path fill="none" stroke="midnightblue" d="M705.746,-209.459C723.594,-200.376 750.682,-186.59 771.072,-176.213"/>
<polygon fill="midnightblue" stroke="midnightblue" points="772.868,-179.227 780.193,-171.572 769.693,-172.988 772.868,-179.227"/>
</g>
<!-- Node5 -->
<g id="node9" class="node"><title>Node5</title>
<a xlink:href="../../db/d85/display_8c.xhtml#a9275035317878022cf9eacf6b0a5be72" target="_top" xlink:title="Display a custom collection of segments.">
<polygon fill="white" stroke="black" points="872,-133.5 872,-152.5 940,-152.5 940,-133.5 872,-133.5"/>
<text text-anchor="middle" x="906" y="-140.5" font-family="Helvetica,sans-Serif" font-size="10.00">display_bits</text>
</a>
</g>
<!-- Node4&#45;&gt;Node5 -->
<g id="edge8" class="edge"><title>Node4&#45;&gt;Node5</title>
<path fill="none" stroke="midnightblue" d="M835.63,-155.673C844.04,-154.137 853.133,-152.476 861.882,-150.877"/>
<polygon fill="midnightblue" stroke="midnightblue" points="862.723,-154.282 871.931,-149.041 861.465,-147.396 862.723,-154.282"/>
</g>
<!-- Node6 -->
<g id="node11" class="node"><title>Node6</title>
<a xlink:href="../../db/d85/display_8c.xhtml#a710739913e8ea1b71dd433b8311211fd" target="_top" xlink:title="write_lcd_mem">
<polygon fill="white" stroke="black" points="976.5,-109.5 976.5,-128.5 1059.5,-128.5 1059.5,-109.5 976.5,-109.5"/>
<text text-anchor="middle" x="1018" y="-116.5" font-family="Helvetica,sans-Serif" font-size="10.00">write_lcd_mem</text>
</a>
</g>
<!-- Node5&#45;&gt;Node6 -->
<g id="edge10" class="edge"><title>Node5&#45;&gt;Node6</title>
<path fill="none" stroke="midnightblue" d="M940.004,-135.799C948.28,-133.993 957.352,-132.014 966.273,-130.068"/>
<polygon fill="midnightblue" stroke="midnightblue" points="967.207,-133.446 976.231,-127.895 965.714,-126.607 967.207,-133.446"/>
</g>
<!-- Node9 -->
<g id="node17" class="node"><title>Node9</title>
<a xlink:href="../../d8/dd8/drivers_2temperature_8c.xhtml#a0899f23cfa5c7ad38347b8feceb80b67" target="_top" xlink:title="temperature_measurement">
<polygon fill="white" stroke="black" points="312.5,-76.5 312.5,-95.5 445.5,-95.5 445.5,-76.5 312.5,-76.5"/>
<text text-anchor="middle" x="379" y="-83.5" font-family="Helvetica,sans-Serif" font-size="10.00">temperature_measurement</text>
</a>
</g>
<!-- Node8&#45;&gt;Node9 -->
<g id="edge16" class="edge"><title>Node8&#45;&gt;Node9</title>
<path fill="none" stroke="midnightblue" d="M250.6,-230.732C259.444,-227.969 268.434,-224.182 276,-219 298.944,-203.287 344.485,-136.899 366.091,-104.264"/>
<polygon fill="midnightblue" stroke="midnightblue" points="369.175,-105.946 371.745,-95.6673 363.326,-102.099 369.175,-105.946"/>
</g>
<!-- Node12 -->
<g id="node23" class="node"><title>Node12</title>
<a xlink:href="../../db/d97/modules_2temperature_8c.xhtml#abefc6cc8584628d0a116de3162fde706" target="_top" xlink:title="Common display routine for metric and English units.">
<polygon fill="white" stroke="black" points="327,-190.5 327,-209.5 431,-209.5 431,-190.5 327,-190.5"/>
<text text-anchor="middle" x="379" y="-197.5" font-family="Helvetica,sans-Serif" font-size="10.00">display_temperature</text>
</a>
</g>
<!-- Node8&#45;&gt;Node12 -->
<g id="edge22" class="edge"><title>Node8&#45;&gt;Node12</title>
<path fill="none" stroke="midnightblue" d="M250.577,-228.995C273.211,-223.844 301.865,-217.324 326.266,-211.772"/>
<polygon fill="midnightblue" stroke="midnightblue" points="327.109,-215.17 336.083,-209.538 325.555,-208.344 327.109,-215.17"/>
</g>
<!-- Node10 -->
<g id="node19" class="node"><title>Node10</title>
<a xlink:href="../../dc/ddc/adc12_8c.xhtml#a6202d56d811a4a15e9675420b4b1f8db" target="_top" xlink:title="Init ADC12. Do single conversion. Turn off ADC12.">
<polygon fill="white" stroke="black" points="482,-0.5 482,-19.5 608,-19.5 608,-0.5 482,-0.5"/>
<text text-anchor="middle" x="545" y="-7.5" font-family="Helvetica,sans-Serif" font-size="10.00">adc12_single_conversion</text>
</a>
</g>
<!-- Node9&#45;&gt;Node10 -->
<g id="edge18" class="edge"><title>Node9&#45;&gt;Node10</title>
<path fill="none" stroke="midnightblue" d="M397.425,-76.4273C417.523,-65.5483 451.696,-47.5473 482,-34 490.345,-30.2694 499.46,-26.5501 508.071,-23.1922"/>
<polygon fill="midnightblue" stroke="midnightblue" points="509.425,-26.4213 517.51,-19.5732 506.919,-19.8852 509.425,-26.4213"/>
</g>
<!-- Node11 -->
<g id="node21" class="node"><title>Node11</title>
<a xlink:href="../../df/d41/timer_8c.xhtml#adc3302861aee9d7f4a1c4c6d25d07343" target="_top" xlink:title="1ms &#45; 1s programmable delay">
<polygon fill="white" stroke="black" points="650,-0.5 650,-19.5 722,-19.5 722,-0.5 650,-0.5"/>
<text text-anchor="middle" x="686" y="-7.5" font-family="Helvetica,sans-Serif" font-size="10.00">timer0_delay</text>
</a>
</g>
<!-- Node10&#45;&gt;Node11 -->
<g id="edge20" class="edge"><title>Node10&#45;&gt;Node11</title>
<path fill="none" stroke="midnightblue" d="M608.182,-10C618.804,-10 629.657,-10 639.733,-10"/>
<polygon fill="midnightblue" stroke="midnightblue" points="639.91,-13.5001 649.91,-10 639.91,-6.5001 639.91,-13.5001"/>
</g>
<!-- Node12&#45;&gt;Node3 -->
<g id="edge44" class="edge"><title>Node12&#45;&gt;Node3</title>
<path fill="none" stroke="midnightblue" d="M421.444,-209.511C439.876,-213.276 461.911,-217.145 482,-219 535.057,-223.899 596.248,-223.012 637.46,-221.464"/>
<polygon fill="midnightblue" stroke="midnightblue" points="637.64,-224.96 647.491,-221.059 637.358,-217.965 637.64,-224.96"/>
</g>
<!-- Node12&#45;&gt;Node4 -->
<g id="edge36" class="edge"><title>Node12&#45;&gt;Node4</title>
<path fill="none" stroke="midnightblue" d="M424.499,-190.468C442.303,-186.981 463.048,-183.324 482,-181 578.478,-169.169 692.417,-164.623 754.01,-162.938"/>
<polygon fill="midnightblue" stroke="midnightblue" points="754.255,-166.433 764.16,-162.674 754.072,-159.435 754.255,-166.433"/>
</g>
<!-- Node13 -->
<g id="node25" class="node"><title>Node13</title>
<a xlink:href="../../db/d85/display_8c.xhtml#aa150336a018e90f37fd0285047b541f6" target="_top" xlink:title="Clears the screen.">
<polygon fill="white" stroke="black" points="508,-114.5 508,-133.5 582,-133.5 582,-114.5 508,-114.5"/>
<text text-anchor="middle" x="545" y="-121.5" font-family="Helvetica,sans-Serif" font-size="10.00">display_clear</text>
</a>
</g>
<!-- Node12&#45;&gt;Node13 -->
<g id="edge24" class="edge"><title>Node12&#45;&gt;Node13</title>
<path fill="none" stroke="midnightblue" d="M397.425,-190.427C417.523,-179.548 451.696,-161.547 482,-148 490.345,-144.269 499.46,-140.55 508.071,-137.192"/>
<polygon fill="midnightblue" stroke="midnightblue" points="509.425,-140.421 517.51,-133.573 506.919,-133.885 509.425,-140.421"/>
</g>
<!-- Node14 -->
<g id="node28" class="node"><title>Node14</title>
<a xlink:href="../../db/d85/display_8c.xhtml#af604e78dcc4e0f1a204b2180c5e54957" target="_top" xlink:title="Displays a symbol.">
<polygon fill="white" stroke="black" points="644,-81.5 644,-100.5 728,-100.5 728,-81.5 644,-81.5"/>
<text text-anchor="middle" x="686" y="-88.5" font-family="Helvetica,sans-Serif" font-size="10.00">display_symbol</text>
</a>
</g>
<!-- Node12&#45;&gt;Node14 -->
<g id="edge42" class="edge"><title>Node12&#45;&gt;Node14</title>
<path fill="none" stroke="midnightblue" d="M386.778,-190.168C407.295,-160.556 468.169,-73.8229 482,-67 538.306,-39.2242 613.737,-61.3 654.969,-77.5908"/>
<polygon fill="midnightblue" stroke="midnightblue" points="653.861,-80.9189 664.441,-81.4713 656.514,-74.4415 653.861,-80.9189"/>
</g>
<!-- Node15 -->
<g id="node31" class="node"><title>Node15</title>
<a xlink:href="../../db/d97/modules_2temperature_8c.xhtml#a93405e6d64c48ecb74bc8e94876cf5f2" target="_top" xlink:title="Display the current unit symbol &amp; +/&#45; value indicator.">
<polygon fill="white" stroke="black" points="487,-76.5 487,-95.5 603,-95.5 603,-76.5 487,-76.5"/>
<text text-anchor="middle" x="545" y="-83.5" font-family="Helvetica,sans-Serif" font-size="10.00">display_temp_symbols</text>
</a>
</g>
<!-- Node12&#45;&gt;Node15 -->
<g id="edge32" class="edge"><title>Node12&#45;&gt;Node15</title>
<path fill="none" stroke="midnightblue" d="M387.653,-190.408C403.343,-171.365 441.134,-128.595 482,-105 485.674,-102.878 489.611,-100.97 493.652,-99.2574"/>
<polygon fill="midnightblue" stroke="midnightblue" points="495.107,-102.448 503.199,-95.6097 492.608,-95.9094 495.107,-102.448"/>
</g>
<!-- Node16 -->
<g id="node35" class="node"><title>Node16</title>
<a xlink:href="../../d8/dd8/drivers_2temperature_8c.xhtml#a4792bfaf5c3fa2bee84e6dfaac5ab4d2" target="_top" xlink:title="temperature_get_C">
<polygon fill="white" stroke="black" points="495,-304.5 495,-323.5 595,-323.5 595,-304.5 495,-304.5"/>
<text text-anchor="middle" x="545" y="-311.5" font-family="Helvetica,sans-Serif" font-size="10.00">temperature_get_C</text>
</a>
</g>
<!-- Node12&#45;&gt;Node16 -->
<g id="edge38" class="edge"><title>Node12&#45;&gt;Node16</title>
<path fill="none" stroke="midnightblue" d="M387.653,-209.592C403.343,-228.635 441.134,-271.405 482,-295 485.674,-297.122 489.611,-299.03 493.652,-300.743"/>
<polygon fill="midnightblue" stroke="midnightblue" points="492.608,-304.091 503.199,-304.39 495.107,-297.552 492.608,-304.091"/>
</g>
<!-- Node17 -->
<g id="node37" class="node"><title>Node17</title>
<a xlink:href="../../d8/dd8/drivers_2temperature_8c.xhtml#a02bc88773acbaadf1784ae3352b66fb5" target="_top" xlink:title="temperature_get_F">
<polygon fill="white" stroke="black" points="496,-266.5 496,-285.5 594,-285.5 594,-266.5 496,-266.5"/>
<text text-anchor="middle" x="545" y="-273.5" font-family="Helvetica,sans-Serif" font-size="10.00">temperature_get_F</text>
</a>
</g>
<!-- Node12&#45;&gt;Node17 -->
<g id="edge40" class="edge"><title>Node12&#45;&gt;Node17</title>
<path fill="none" stroke="midnightblue" d="M397.425,-209.573C417.523,-220.452 451.696,-238.453 482,-252 490.345,-255.731 499.46,-259.45 508.071,-262.808"/>
<polygon fill="midnightblue" stroke="midnightblue" points="506.919,-266.115 517.51,-266.427 509.425,-259.579 506.919,-266.115"/>
</g>
<!-- Node18 -->
<g id="node41" class="node"><title>Node18</title>
<a xlink:href="../../db/d85/display_8c.xhtml#a9047d98cd15ffbc79e15c63fca36d70b" target="_top" xlink:title="pseudo sprintf function">
<polygon fill="white" stroke="black" points="520.5,-190.5 520.5,-209.5 569.5,-209.5 569.5,-190.5 520.5,-190.5"/>
<text text-anchor="middle" x="545" y="-197.5" font-family="Helvetica,sans-Serif" font-size="10.00">_sprintf</text>
</a>
</g>
<!-- Node12&#45;&gt;Node18 -->
<g id="edge46" class="edge"><title>Node12&#45;&gt;Node18</title>
<path fill="none" stroke="midnightblue" d="M431.441,-200C457.066,-200 487.339,-200 510.031,-200"/>
<polygon fill="midnightblue" stroke="midnightblue" points="510.194,-203.5 520.194,-200 510.194,-196.5 510.194,-203.5"/>
</g>
<!-- Node13&#45;&gt;Node3 -->
<g id="edge26" class="edge"><title>Node13&#45;&gt;Node3</title>
<path fill="none" stroke="midnightblue" d="M560.093,-133.632C584.237,-150.133 633.696,-183.936 662.608,-203.696"/>
<polygon fill="midnightblue" stroke="midnightblue" points="660.639,-206.59 670.87,-209.343 664.589,-200.81 660.639,-206.59"/>
</g>
<!-- Node13&#45;&gt;Node14 -->
<g id="edge28" class="edge"><title>Node13&#45;&gt;Node14</title>
<path fill="none" stroke="midnightblue" d="M582.158,-115.416C598.161,-111.616 617.256,-107.083 634.624,-102.96"/>
<polygon fill="midnightblue" stroke="midnightblue" points="635.692,-106.304 644.613,-100.588 634.075,-99.4929 635.692,-106.304"/>
</g>
<!-- Node14&#45;&gt;Node6 -->
<g id="edge30" class="edge"><title>Node14&#45;&gt;Node6</title>
<path fill="none" stroke="midnightblue" d="M728.127,-94.4896C788.481,-99.6105 900.942,-109.153 966.318,-114.7"/>
<polygon fill="midnightblue" stroke="midnightblue" points="966.131,-118.196 976.391,-115.554 966.723,-111.221 966.131,-118.196"/>
</g>
<!-- Node15&#45;&gt;Node14 -->
<g id="edge34" class="edge"><title>Node15&#45;&gt;Node14</title>
<path fill="none" stroke="midnightblue" d="M603.339,-88.0626C613.441,-88.4259 623.896,-88.802 633.815,-89.1588"/>
<polygon fill="midnightblue" stroke="midnightblue" points="633.802,-92.6605 643.921,-89.5223 634.054,-85.665 633.802,-92.6605"/>
</g>
</g>
</svg>
