<?xml version="1.0" encoding="UTF-8" standalone="no"?>
<!DOCTYPE svg PUBLIC "-//W3C//DTD SVG 1.1//EN"
 "http://www.w3.org/Graphics/SVG/1.1/DTD/svg11.dtd">
<!-- Generated by graphviz version 2.28.0 (20121221.0049)
 -->
<!-- Title: mod_temperature_init Pages: 1 -->
<svg width="1256pt" height="598pt"
 viewBox="0.00 0.00 1256.00 598.00" xmlns="http://www.w3.org/2000/svg" xmlns:xlink="http://www.w3.org/1999/xlink">
<g id="graph1" class="graph" transform="scale(1 1) rotate(0) translate(4 594)">
<title>mod_temperature_init</title>
<polygon fill="white" stroke="white" points="-4,5 -4,-594 1253,-594 1253,5 -4,5"/>
<!-- Node1 -->
<g id="node1" class="node"><title>Node1</title>
<polygon fill="#bfbfbf" stroke="black" points="0,-494.5 0,-513.5 110,-513.5 110,-494.5 0,-494.5"/>
<text text-anchor="middle" x="55" y="-501.5" font-family="Helvetica,sans-Serif" font-size="10.00">mod_temperature_init</text>
</g>
<!-- Node2 -->
<g id="node3" class="node"><title>Node2</title>
<a xlink:href="../../d2/df2/openchronos_8c.xhtml#a71490cfda7ca71ac20d681a8a7a994e1" target="_top" xlink:title="Adds an entry to the main menu.">
<polygon fill="white" stroke="black" points="161.5,-570.5 161.5,-589.5 250.5,-589.5 250.5,-570.5 161.5,-570.5"/>
<text text-anchor="middle" x="206" y="-577.5" font-family="Helvetica,sans-Serif" font-size="10.00">menu_add_entry</text>
</a>
</g>
<!-- Node1&#45;&gt;Node2 -->
<g id="edge2" class="edge"><title>Node1&#45;&gt;Node2</title>
<path fill="none" stroke="midnightblue" d="M71.2552,-513.682C88.8793,-524.66 118.932,-542.753 146,-556 153.626,-559.732 161.985,-563.385 169.951,-566.669"/>
<polygon fill="midnightblue" stroke="midnightblue" points="168.815,-569.985 179.398,-570.474 171.43,-563.491 168.815,-569.985"/>
</g>
<!-- Node3 -->
<g id="node5" class="node"><title>Node3</title>
<a xlink:href="../../db/d97/modules_2temperature_8c.xhtml#ab15d289d737ee8f5f210c9be2052e350" target="_top" xlink:title="temperature_edit">
<polygon fill="white" stroke="black" points="502.5,-532.5 502.5,-551.5 591.5,-551.5 591.5,-532.5 502.5,-532.5"/>
<text text-anchor="middle" x="547" y="-539.5" font-family="Helvetica,sans-Serif" font-size="10.00">temperature_edit</text>
</a>
</g>
<!-- Node1&#45;&gt;Node3 -->
<g id="edge4" class="edge"><title>Node1&#45;&gt;Node3</title>
<path fill="none" stroke="midnightblue" d="M110.311,-508.212C204.698,-515.532 397.904,-530.515 492.044,-537.816"/>
<polygon fill="midnightblue" stroke="midnightblue" points="491.962,-541.32 502.203,-538.603 492.503,-534.341 491.962,-541.32"/>
</g>
<!-- Node12 -->
<g id="node25" class="node"><title>Node12</title>
<a xlink:href="../../db/d97/modules_2temperature_8c.xhtml#a7a667a75eaef2697bcf4ba1edc3441d6" target="_top" xlink:title="Temperature screen activation. Display defaul stuff, register the mesuring loop.">
<polygon fill="white" stroke="black" points="152,-456.5 152,-475.5 260,-475.5 260,-456.5 152,-456.5"/>
<text text-anchor="middle" x="206" y="-463.5" font-family="Helvetica,sans-Serif" font-size="10.00">temperature_activate</text>
</a>
</g>
<!-- Node1&#45;&gt;Node12 -->
<g id="edge26" class="edge"><title>Node1&#45;&gt;Node12</title>
<path fill="none" stroke="midnightblue" d="M93.599,-494.411C113.084,-489.442 137.075,-483.323 157.796,-478.039"/>
<polygon fill="midnightblue" stroke="midnightblue" points="158.846,-481.383 167.671,-475.52 157.117,-474.6 158.846,-481.383"/>
</g>
<!-- Node26 -->
<g id="node60" class="node"><title>Node26</title>
<a xlink:href="../../db/d97/modules_2temperature_8c.xhtml#aaf395433c11fa3dfde7c872f79e62d31" target="_top" xlink:title="Temperature screen desactivation. Clear the screen, reset the events &amp; values.">
<polygon fill="white" stroke="black" points="146.5,-238.5 146.5,-257.5 265.5,-257.5 265.5,-238.5 146.5,-238.5"/>
<text text-anchor="middle" x="206" y="-245.5" font-family="Helvetica,sans-Serif" font-size="10.00">temperature_deactivate</text>
</a>
</g>
<!-- Node1&#45;&gt;Node26 -->
<g id="edge68" class="edge"><title>Node1&#45;&gt;Node26</title>
<path fill="none" stroke="midnightblue" d="M61.659,-494.277C83.7858,-456.261 164.676,-317.281 194.157,-266.629"/>
<polygon fill="midnightblue" stroke="midnightblue" points="197.33,-268.136 199.335,-257.733 191.28,-264.615 197.33,-268.136"/>
</g>
<!-- Node4 -->
<g id="node7" class="node"><title>Node4</title>
<a xlink:href="../../db/d85/display_8c.xhtml#a0e030727a1bc4d1418bb96cc71350203" target="_top" xlink:title="Activates a virtual screen.">
<polygon fill="white" stroke="black" points="812,-551.5 812,-570.5 916,-570.5 916,-551.5 812,-551.5"/>
<text text-anchor="middle" x="864" y="-558.5" font-family="Helvetica,sans-Serif" font-size="10.00">lcd_screen_activate</text>
</a>
</g>
<!-- Node3&#45;&gt;Node4 -->
<g id="edge6" class="edge"><title>Node3&#45;&gt;Node4</title>
<path fill="none" stroke="midnightblue" d="M589.444,-551.511C607.876,-555.276 629.911,-559.145 650,-561 700.856,-565.696 758.835,-565.325 801.448,-563.988"/>
<polygon fill="midnightblue" stroke="midnightblue" points="801.788,-567.478 811.663,-563.639 801.549,-560.482 801.788,-567.478"/>
</g>
<!-- Node6 -->
<g id="node11" class="node"><title>Node6</title>
<a xlink:href="../../db/d85/display_8c.xhtml#a6f2d5cdda31a73b43a569cb3d1a64165" target="_top" xlink:title="Displays several consecutive characters.">
<polygon fill="white" stroke="black" points="825.5,-418.5 825.5,-437.5 902.5,-437.5 902.5,-418.5 825.5,-418.5"/>
<text text-anchor="middle" x="864" y="-425.5" font-family="Helvetica,sans-Serif" font-size="10.00">display_chars</text>
</a>
</g>
<!-- Node3&#45;&gt;Node6 -->
<g id="edge10" class="edge"><title>Node3&#45;&gt;Node6</title>
<path fill="none" stroke="midnightblue" d="M562.624,-532.288C581.926,-519.836 617.294,-498.274 650,-485 704.955,-462.697 771.408,-446.512 815.313,-437.209"/>
<polygon fill="midnightblue" stroke="midnightblue" points="816.07,-440.627 825.146,-435.161 814.643,-433.774 816.07,-440.627"/>
</g>
<!-- Node10 -->
<g id="node19" class="node"><title>Node10</title>
<a xlink:href="../../d2/df2/openchronos_8c.xhtml#afb7a89cc8739b9788a27e80d8b0d90e9" target="_top" xlink:title="Enters edit mode.">
<polygon fill="white" stroke="black" points="658,-494.5 658,-513.5 768,-513.5 768,-494.5 658,-494.5"/>
<text text-anchor="middle" x="713" y="-501.5" font-family="Helvetica,sans-Serif" font-size="10.00">menu_editmode_start</text>
</a>
</g>
<!-- Node3&#45;&gt;Node10 -->
<g id="edge18" class="edge"><title>Node3&#45;&gt;Node10</title>
<path fill="none" stroke="midnightblue" d="M589.384,-532.411C611.123,-527.374 637.957,-521.156 660.975,-515.823"/>
<polygon fill="midnightblue" stroke="midnightblue" points="661.962,-519.187 670.913,-513.52 660.381,-512.368 661.962,-519.187"/>
</g>
<!-- Node11 -->
<g id="node21" class="node"><title>Node11</title>
<a xlink:href="../../db/d97/modules_2temperature_8c.xhtml#a526be03516a6dde8148ef26954c1ab5a" target="_top" xlink:title="Stuff to do when we exit the edit mode.">
<polygon fill="white" stroke="black" points="683.5,-532.5 683.5,-551.5 742.5,-551.5 742.5,-532.5 683.5,-532.5"/>
<text text-anchor="middle" x="713" y="-539.5" font-family="Helvetica,sans-Serif" font-size="10.00">edit_save</text>
</a>
</g>
<!-- Node3&#45;&gt;Node11 -->
<g id="edge20" class="edge"><title>Node3&#45;&gt;Node11</title>
<path fill="none" stroke="midnightblue" d="M591.518,-542C616.926,-542 648.709,-542 673.251,-542"/>
<polygon fill="midnightblue" stroke="midnightblue" points="673.285,-545.5 683.285,-542 673.285,-538.5 673.285,-545.5"/>
</g>
<!-- Node5 -->
<g id="node9" class="node"><title>Node5</title>
<a xlink:href="../../d2/df2/openchronos_8c.xhtml#a72f5591868e0c66a539eacdcd0b520d7" target="_top" xlink:title="Increment/decrements value by one without exiting the [lower, upper] interval.">
<polygon fill="white" stroke="black" points="952.5,-551.5 952.5,-570.5 1023.5,-570.5 1023.5,-551.5 952.5,-551.5"/>
<text text-anchor="middle" x="988" y="-558.5" font-family="Helvetica,sans-Serif" font-size="10.00">helpers_loop</text>
</a>
</g>
<!-- Node4&#45;&gt;Node5 -->
<g id="edge8" class="edge"><title>Node4&#45;&gt;Node5</title>
<path fill="none" stroke="midnightblue" d="M916.032,-561C924.759,-561 933.766,-561 942.312,-561"/>
<polygon fill="midnightblue" stroke="midnightblue" points="942.458,-564.5 952.458,-561 942.458,-557.5 942.458,-564.5"/>
</g>
<!-- Node7 -->
<g id="node13" class="node"><title>Node7</title>
<a xlink:href="../../db/d85/display_8c.xhtml#a3ae30196af91197037d50cb49de1d109" target="_top" xlink:title="Displays a single character.">
<polygon fill="white" stroke="black" points="952.5,-152.5 952.5,-171.5 1023.5,-171.5 1023.5,-152.5 952.5,-152.5"/>
<text text-anchor="middle" x="988" y="-159.5" font-family="Helvetica,sans-Serif" font-size="10.00">display_char</text>
</a>
</g>
<!-- Node6&#45;&gt;Node7 -->
<g id="edge12" class="edge"><title>Node6&#45;&gt;Node7</title>
<path fill="none" stroke="midnightblue" d="M902.65,-418.7C907.622,-416.195 912.276,-413.021 916,-409 976.927,-343.21 985.95,-228.494 987.014,-182.214"/>
<polygon fill="midnightblue" stroke="midnightblue" points="990.517,-182.036 987.14,-171.994 983.517,-181.95 990.517,-182.036"/>
</g>
<!-- Node8 -->
<g id="node15" class="node"><title>Node8</title>
<a xlink:href="../../db/d85/display_8c.xhtml#a9275035317878022cf9eacf6b0a5be72" target="_top" xlink:title="Display a custom collection of segments.">
<polygon fill="white" stroke="black" points="1060,-152.5 1060,-171.5 1128,-171.5 1128,-152.5 1060,-152.5"/>
<text text-anchor="middle" x="1094" y="-159.5" font-family="Helvetica,sans-Serif" font-size="10.00">display_bits</text>
</a>
</g>
<!-- Node7&#45;&gt;Node8 -->
<g id="edge14" class="edge"><title>Node7&#45;&gt;Node8</title>
<path fill="none" stroke="midnightblue" d="M1023.63,-162C1032.04,-162 1041.13,-162 1049.88,-162"/>
<polygon fill="midnightblue" stroke="midnightblue" points="1049.93,-165.5 1059.93,-162 1049.93,-158.5 1049.93,-165.5"/>
</g>
<!-- Node9 -->
<g id="node17" class="node"><title>Node9</title>
<a xlink:href="../../db/d85/display_8c.xhtml#a710739913e8ea1b71dd433b8311211fd" target="_top" xlink:title="write_lcd_mem">
<polygon fill="white" stroke="black" points="1164.5,-133.5 1164.5,-152.5 1247.5,-152.5 1247.5,-133.5 1164.5,-133.5"/>
<text text-anchor="middle" x="1206" y="-140.5" font-family="Helvetica,sans-Serif" font-size="10.00">write_lcd_mem</text>
</a>
</g>
<!-- Node8&#45;&gt;Node9 -->
<g id="edge16" class="edge"><title>Node8&#45;&gt;Node9</title>
<path fill="none" stroke="midnightblue" d="M1128,-156.299C1136.28,-154.87 1145.35,-153.303 1154.27,-151.762"/>
<polygon fill="midnightblue" stroke="midnightblue" points="1154.97,-155.193 1164.23,-150.042 1153.78,-148.295 1154.97,-155.193"/>
</g>
<!-- Node11&#45;&gt;Node4 -->
<g id="edge24" class="edge"><title>Node11&#45;&gt;Node4</title>
<path fill="none" stroke="midnightblue" d="M742.729,-545.663C759.44,-547.794 781.168,-550.565 801.551,-553.164"/>
<polygon fill="midnightblue" stroke="midnightblue" points="801.373,-556.67 811.736,-554.463 802.259,-549.726 801.373,-556.67"/>
</g>
<!-- Node11&#45;&gt;Node6 -->
<g id="edge22" class="edge"><title>Node11&#45;&gt;Node6</title>
<path fill="none" stroke="midnightblue" d="M742.522,-536.639C753.547,-533.725 765.911,-529.373 776,-523 808.118,-502.713 835.917,-467.523 850.988,-446.138"/>
<polygon fill="midnightblue" stroke="midnightblue" points="854.044,-447.87 856.815,-437.644 848.272,-443.91 854.044,-447.87"/>
</g>
<!-- Node12&#45;&gt;Node6 -->
<g id="edge30" class="edge"><title>Node12&#45;&gt;Node6</title>
<path fill="none" stroke="midnightblue" d="M246.984,-456.493C263.863,-452.874 283.789,-449.115 302,-447 491.131,-425.034 718.343,-425.53 815.344,-426.996"/>
<polygon fill="midnightblue" stroke="midnightblue" points="815.365,-430.497 825.42,-427.16 815.478,-423.498 815.365,-430.497"/>
</g>
<!-- Node13 -->
<g id="node27" class="node"><title>Node13</title>
<a xlink:href="../../db/d85/display_8c.xhtml#a4c1000a508e4527145c75b4827d81dd8" target="_top" xlink:title="Creates virtual screens.">
<polygon fill="white" stroke="black" points="322.5,-494.5 322.5,-513.5 423.5,-513.5 423.5,-494.5 322.5,-494.5"/>
<text text-anchor="middle" x="373" y="-501.5" font-family="Helvetica,sans-Serif" font-size="10.00">lcd_screens_create</text>
</a>
</g>
<!-- Node12&#45;&gt;Node13 -->
<g id="edge28" class="edge"><title>Node12&#45;&gt;Node13</title>
<path fill="none" stroke="midnightblue" d="M248.636,-475.589C270.508,-480.626 297.506,-486.844 320.664,-492.177"/>
<polygon fill="midnightblue" stroke="midnightblue" points="320.133,-495.646 330.663,-494.48 321.704,-488.825 320.133,-495.646"/>
</g>
<!-- Node14 -->
<g id="node30" class="node"><title>Node14</title>
<a xlink:href="../../d2/df2/openchronos_8c.xhtml#a5aeb07d7031b5d53ca8605bf398714a2" target="_top" xlink:title="Registers a node in the message bus.">
<polygon fill="white" stroke="black" points="307.5,-456.5 307.5,-475.5 438.5,-475.5 438.5,-456.5 307.5,-456.5"/>
<text text-anchor="middle" x="373" y="-463.5" font-family="Helvetica,sans-Serif" font-size="10.00">sys_messagebus_register</text>
</a>
</g>
<!-- Node12&#45;&gt;Node14 -->
<g id="edge32" class="edge"><title>Node12&#45;&gt;Node14</title>
<path fill="none" stroke="midnightblue" d="M260.115,-466C272.009,-466 284.84,-466 297.423,-466"/>
<polygon fill="midnightblue" stroke="midnightblue" points="297.439,-469.5 307.439,-466 297.439,-462.5 297.439,-469.5"/>
</g>
<!-- Node15 -->
<g id="node32" class="node"><title>Node15</title>
<a xlink:href="../../db/d97/modules_2temperature_8c.xhtml#a56b9c2baadf0cd544149272940d7e781" target="_top" xlink:title="Temperature display routine. Mesure and parse the temperature.">
<polygon fill="white" stroke="black" points="332.5,-342.5 332.5,-361.5 413.5,-361.5 413.5,-342.5 332.5,-342.5"/>
<text text-anchor="middle" x="373" y="-349.5" font-family="Helvetica,sans-Serif" font-size="10.00">measure_temp</text>
</a>
</g>
<!-- Node12&#45;&gt;Node15 -->
<g id="edge34" class="edge"><title>Node12&#45;&gt;Node15</title>
<path fill="none" stroke="midnightblue" d="M220.784,-456.477C249.224,-436.827 314.646,-391.627 349.378,-367.63"/>
<polygon fill="midnightblue" stroke="midnightblue" points="351.668,-370.302 357.905,-361.738 347.689,-364.543 351.668,-370.302"/>
</g>
<!-- Node16 -->
<g id="node34" class="node"><title>Node16</title>
<a xlink:href="../../d8/dd8/drivers_2temperature_8c.xhtml#a0899f23cfa5c7ad38347b8feceb80b67" target="_top" xlink:title="temperature_measurement">
<polygon fill="white" stroke="black" points="480.5,-361.5 480.5,-380.5 613.5,-380.5 613.5,-361.5 480.5,-361.5"/>
<text text-anchor="middle" x="547" y="-368.5" font-family="Helvetica,sans-Serif" font-size="10.00">temperature_measurement</text>
</a>
</g>
<!-- Node15&#45;&gt;Node16 -->
<g id="edge36" class="edge"><title>Node15&#45;&gt;Node16</title>
<path fill="none" stroke="midnightblue" d="M413.893,-356.407C430.71,-358.264 450.867,-360.491 470.31,-362.639"/>
<polygon fill="midnightblue" stroke="midnightblue" points="470.068,-366.133 480.391,-363.753 470.836,-359.176 470.068,-366.133"/>
</g>
<!-- Node19 -->
<g id="node40" class="node"><title>Node19</title>
<a xlink:href="../../db/d97/modules_2temperature_8c.xhtml#abefc6cc8584628d0a116de3162fde706" target="_top" xlink:title="Common display routine for metric and English units.">
<polygon fill="white" stroke="black" points="495,-228.5 495,-247.5 599,-247.5 599,-228.5 495,-228.5"/>
<text text-anchor="middle" x="547" y="-235.5" font-family="Helvetica,sans-Serif" font-size="10.00">display_temperature</text>
</a>
</g>
<!-- Node15&#45;&gt;Node19 -->
<g id="edge42" class="edge"><title>Node15&#45;&gt;Node19</title>
<path fill="none" stroke="midnightblue" d="M388.369,-342.477C418.141,-322.744 486.793,-277.242 522.878,-253.325"/>
<polygon fill="midnightblue" stroke="midnightblue" points="524.906,-256.18 531.308,-247.738 521.038,-250.345 524.906,-256.18"/>
</g>
<!-- Node17 -->
<g id="node36" class="node"><title>Node17</title>
<a xlink:href="../../dc/ddc/adc12_8c.xhtml#a6202d56d811a4a15e9675420b4b1f8db" target="_top" xlink:title="Init ADC12. Do single conversion. Turn off ADC12.">
<polygon fill="white" stroke="black" points="650,-380.5 650,-399.5 776,-399.5 776,-380.5 650,-380.5"/>
<text text-anchor="middle" x="713" y="-387.5" font-family="Helvetica,sans-Serif" font-size="10.00">adc12_single_conversion</text>
</a>
</g>
<!-- Node16&#45;&gt;Node17 -->
<g id="edge38" class="edge"><title>Node16&#45;&gt;Node17</title>
<path fill="none" stroke="midnightblue" d="M613.76,-378.619C622.343,-379.613 631.173,-380.636 639.853,-381.642"/>
<polygon fill="midnightblue" stroke="midnightblue" points="639.615,-385.137 649.951,-382.811 640.42,-378.184 639.615,-385.137"/>
</g>
<!-- Node18 -->
<g id="node38" class="node"><title>Node18</title>
<a xlink:href="../../df/d41/timer_8c.xhtml#adc3302861aee9d7f4a1c4c6d25d07343" target="_top" xlink:title="1ms &#45; 1s programmable delay">
<polygon fill="white" stroke="black" points="828,-380.5 828,-399.5 900,-399.5 900,-380.5 828,-380.5"/>
<text text-anchor="middle" x="864" y="-387.5" font-family="Helvetica,sans-Serif" font-size="10.00">timer0_delay</text>
</a>
</g>
<!-- Node17&#45;&gt;Node18 -->
<g id="edge40" class="edge"><title>Node17&#45;&gt;Node18</title>
<path fill="none" stroke="midnightblue" d="M776.326,-390C790.169,-390 804.589,-390 817.603,-390"/>
<polygon fill="midnightblue" stroke="midnightblue" points="817.701,-393.5 827.701,-390 817.701,-386.5 817.701,-393.5"/>
</g>
<!-- Node19&#45;&gt;Node6 -->
<g id="edge64" class="edge"><title>Node19&#45;&gt;Node6</title>
<path fill="none" stroke="midnightblue" d="M555.644,-247.608C571.318,-266.678 609.082,-309.496 650,-333 700.719,-362.134 726.216,-340.295 776,-371 795.801,-383.213 792.598,-396.163 812,-409 814.925,-410.936 818.075,-412.709 821.322,-414.328"/>
<polygon fill="midnightblue" stroke="midnightblue" points="820.068,-417.601 830.626,-418.481 822.922,-411.209 820.068,-417.601"/>
</g>
<!-- Node19&#45;&gt;Node7 -->
<g id="edge56" class="edge"><title>Node19&#45;&gt;Node7</title>
<path fill="none" stroke="midnightblue" d="M560.669,-228.383C579.156,-214.966 615.132,-191.138 650,-181 751.216,-151.571 876.574,-154.118 942.177,-158.234"/>
<polygon fill="midnightblue" stroke="midnightblue" points="941.968,-161.728 952.18,-158.904 942.436,-154.744 941.968,-161.728"/>
</g>
<!-- Node20 -->
<g id="node42" class="node"><title>Node20</title>
<a xlink:href="../../db/d85/display_8c.xhtml#aa150336a018e90f37fd0285047b541f6" target="_top" xlink:title="Clears the screen.">
<polygon fill="white" stroke="black" points="676,-304.5 676,-323.5 750,-323.5 750,-304.5 676,-304.5"/>
<text text-anchor="middle" x="713" y="-311.5" font-family="Helvetica,sans-Serif" font-size="10.00">display_clear</text>
</a>
</g>
<!-- Node19&#45;&gt;Node20 -->
<g id="edge44" class="edge"><title>Node19&#45;&gt;Node20</title>
<path fill="none" stroke="midnightblue" d="M562.699,-247.532C582.082,-259.789 617.537,-281.142 650,-295 655.177,-297.21 660.697,-299.282 666.228,-301.184"/>
<polygon fill="midnightblue" stroke="midnightblue" points="665.533,-304.639 676.125,-304.421 667.708,-297.986 665.533,-304.639"/>
</g>
<!-- Node21 -->
<g id="node45" class="node"><title>Node21</title>
<a xlink:href="../../db/d85/display_8c.xhtml#af604e78dcc4e0f1a204b2180c5e54957" target="_top" xlink:title="Displays a symbol.">
<polygon fill="white" stroke="black" points="822,-114.5 822,-133.5 906,-133.5 906,-114.5 822,-114.5"/>
<text text-anchor="middle" x="864" y="-121.5" font-family="Helvetica,sans-Serif" font-size="10.00">display_symbol</text>
</a>
</g>
<!-- Node19&#45;&gt;Node21 -->
<g id="edge62" class="edge"><title>Node19&#45;&gt;Node21</title>
<path fill="none" stroke="midnightblue" d="M555.444,-228.286C570.757,-209.12 607.906,-166.677 650,-148 701.754,-125.038 767.228,-120.892 811.832,-121.308"/>
<polygon fill="midnightblue" stroke="midnightblue" points="811.8,-124.808 821.859,-121.481 811.921,-117.809 811.8,-124.808"/>
</g>
<!-- Node22 -->
<g id="node48" class="node"><title>Node22</title>
<a xlink:href="../../db/d97/modules_2temperature_8c.xhtml#a93405e6d64c48ecb74bc8e94876cf5f2" target="_top" xlink:title="Display the current unit symbol &amp; +/&#45; value indicator.">
<polygon fill="white" stroke="black" points="655,-76.5 655,-95.5 771,-95.5 771,-76.5 655,-76.5"/>
<text text-anchor="middle" x="713" y="-83.5" font-family="Helvetica,sans-Serif" font-size="10.00">display_temp_symbols</text>
</a>
</g>
<!-- Node19&#45;&gt;Node22 -->
<g id="edge52" class="edge"><title>Node19&#45;&gt;Node22</title>
<path fill="none" stroke="midnightblue" d="M556.019,-228.351C568.537,-213.246 593.421,-183.047 614,-157 630.312,-136.354 628.946,-125.782 650,-110 655.461,-105.907 661.706,-102.424 668.082,-99.4883"/>
<polygon fill="midnightblue" stroke="midnightblue" points="669.569,-102.66 677.442,-95.5708 666.866,-96.2031 669.569,-102.66"/>
</g>
<!-- Node23 -->
<g id="node52" class="node"><title>Node23</title>
<a xlink:href="../../d8/dd8/drivers_2temperature_8c.xhtml#a4792bfaf5c3fa2bee84e6dfaac5ab4d2" target="_top" xlink:title="temperature_get_C">
<polygon fill="white" stroke="black" points="663,-228.5 663,-247.5 763,-247.5 763,-228.5 663,-228.5"/>
<text text-anchor="middle" x="713" y="-235.5" font-family="Helvetica,sans-Serif" font-size="10.00">temperature_get_C</text>
</a>
</g>
<!-- Node19&#45;&gt;Node23 -->
<g id="edge58" class="edge"><title>Node19&#45;&gt;Node23</title>
<path fill="none" stroke="midnightblue" d="M599.441,-238C616.402,-238 635.399,-238 652.887,-238"/>
<polygon fill="midnightblue" stroke="midnightblue" points="652.982,-241.5 662.982,-238 652.982,-234.5 652.982,-241.5"/>
</g>
<!-- Node24 -->
<g id="node54" class="node"><title>Node24</title>
<a xlink:href="../../d8/dd8/drivers_2temperature_8c.xhtml#a02bc88773acbaadf1784ae3352b66fb5" target="_top" xlink:title="temperature_get_F">
<polygon fill="white" stroke="black" points="664,-190.5 664,-209.5 762,-209.5 762,-190.5 664,-190.5"/>
<text text-anchor="middle" x="713" y="-197.5" font-family="Helvetica,sans-Serif" font-size="10.00">temperature_get_F</text>
</a>
</g>
<!-- Node19&#45;&gt;Node24 -->
<g id="edge60" class="edge"><title>Node19&#45;&gt;Node24</title>
<path fill="none" stroke="midnightblue" d="M589.384,-228.411C611.123,-223.374 637.957,-217.156 660.975,-211.823"/>
<polygon fill="midnightblue" stroke="midnightblue" points="661.962,-215.187 670.913,-209.52 660.381,-208.368 661.962,-215.187"/>
</g>
<!-- Node25 -->
<g id="node58" class="node"><title>Node25</title>
<a xlink:href="../../db/d85/display_8c.xhtml#a9047d98cd15ffbc79e15c63fca36d70b" target="_top" xlink:title="pseudo sprintf function">
<polygon fill="white" stroke="black" points="688.5,-266.5 688.5,-285.5 737.5,-285.5 737.5,-266.5 688.5,-266.5"/>
<text text-anchor="middle" x="713" y="-273.5" font-family="Helvetica,sans-Serif" font-size="10.00">_sprintf</text>
</a>
</g>
<!-- Node19&#45;&gt;Node25 -->
<g id="edge66" class="edge"><title>Node19&#45;&gt;Node25</title>
<path fill="none" stroke="midnightblue" d="M589.384,-247.589C616.906,-253.966 652.594,-262.235 678.365,-268.206"/>
<polygon fill="midnightblue" stroke="midnightblue" points="677.873,-271.685 688.405,-270.533 679.453,-264.866 677.873,-271.685"/>
</g>
<!-- Node20&#45;&gt;Node6 -->
<g id="edge46" class="edge"><title>Node20&#45;&gt;Node6</title>
<path fill="none" stroke="midnightblue" d="M750.295,-323.009C759.446,-326.561 768.725,-331.418 776,-338 802.236,-361.737 785.614,-385.43 812,-409 813.746,-410.56 815.632,-411.996 817.615,-413.317"/>
<polygon fill="midnightblue" stroke="midnightblue" points="816.347,-416.616 826.789,-418.406 819.742,-410.495 816.347,-416.616"/>
</g>
<!-- Node20&#45;&gt;Node21 -->
<g id="edge48" class="edge"><title>Node20&#45;&gt;Node21</title>
<path fill="none" stroke="midnightblue" d="M750.226,-308.133C759.377,-305.318 768.673,-301.156 776,-295 824.556,-254.205 849.009,-179.505 858.354,-143.898"/>
<polygon fill="midnightblue" stroke="midnightblue" points="861.848,-144.352 860.869,-133.803 855.055,-142.66 861.848,-144.352"/>
</g>
<!-- Node21&#45;&gt;Node9 -->
<g id="edge50" class="edge"><title>Node21&#45;&gt;Node9</title>
<path fill="none" stroke="midnightblue" d="M906.012,-126.292C968.339,-129.775 1086.78,-136.394 1154.38,-140.171"/>
<polygon fill="midnightblue" stroke="midnightblue" points="1154.19,-143.666 1164.37,-140.73 1154.58,-136.677 1154.19,-143.666"/>
</g>
<!-- Node22&#45;&gt;Node21 -->
<g id="edge54" class="edge"><title>Node22&#45;&gt;Node21</title>
<path fill="none" stroke="midnightblue" d="M751.599,-95.589C771.084,-100.558 795.075,-106.677 815.796,-111.961"/>
<polygon fill="midnightblue" stroke="midnightblue" points="815.117,-115.4 825.671,-114.48 816.846,-108.617 815.117,-115.4"/>
</g>
<!-- Node26&#45;&gt;Node15 -->
<g id="edge72" class="edge"><title>Node26&#45;&gt;Node15</title>
<path fill="none" stroke="midnightblue" d="M221.751,-257.601C240.381,-269.696 273.452,-291.069 302,-309 317.014,-318.43 333.953,-328.842 347.407,-337.057"/>
<polygon fill="midnightblue" stroke="midnightblue" points="345.737,-340.139 356.098,-342.355 349.381,-334.162 345.737,-340.139"/>
</g>
<!-- Node26&#45;&gt;Node20 -->
<g id="edge74" class="edge"><title>Node26&#45;&gt;Node20</title>
<path fill="none" stroke="midnightblue" d="M265.918,-255.7C367.507,-268.977 573.576,-295.909 665.692,-307.948"/>
<polygon fill="midnightblue" stroke="midnightblue" points="665.453,-311.446 675.822,-309.272 666.36,-304.505 665.453,-311.446"/>
</g>
<!-- Node26&#45;&gt;Node21 -->
<g id="edge78" class="edge"><title>Node26&#45;&gt;Node21</title>
<path fill="none" stroke="midnightblue" d="M216.069,-238.437C231.996,-222.164 266.669,-189.007 302,-170 444.048,-93.5816 490.225,-89.1239 650,-67 705.471,-59.319 722.338,-50.9866 776,-67 802.523,-74.9147 828.474,-93.7864 845.03,-107.657"/>
<polygon fill="midnightblue" stroke="midnightblue" points="842.933,-110.47 852.785,-114.369 847.515,-105.178 842.933,-110.47"/>
</g>
<!-- Node26&#45;&gt;Node22 -->
<g id="edge76" class="edge"><title>Node26&#45;&gt;Node22</title>
<path fill="none" stroke="midnightblue" d="M236.705,-238.471C323.183,-210.729 574.826,-130.004 672.55,-98.6553"/>
<polygon fill="midnightblue" stroke="midnightblue" points="673.88,-101.904 682.333,-95.517 671.742,-95.239 673.88,-101.904"/>
</g>
<!-- Node27 -->
<g id="node62" class="node"><title>Node27</title>
<a xlink:href="../../d2/df2/openchronos_8c.xhtml#a60705ce0564ce52c1977a32cee3215c2" target="_top" xlink:title="Unregisters a node from the message bus.">
<polygon fill="white" stroke="black" points="302.5,-0.5 302.5,-19.5 443.5,-19.5 443.5,-0.5 302.5,-0.5"/>
<text text-anchor="middle" x="373" y="-7.5" font-family="Helvetica,sans-Serif" font-size="10.00">sys_messagebus_unregister</text>
</a>
</g>
<!-- Node26&#45;&gt;Node27 -->
<g id="edge70" class="edge"><title>Node26&#45;&gt;Node27</title>
<path fill="none" stroke="midnightblue" d="M208.491,-238.303C214.137,-204.884 237.259,-93.3109 302,-34 306.43,-29.9415 311.578,-26.5649 317.033,-23.7565"/>
<polygon fill="midnightblue" stroke="midnightblue" points="318.736,-26.8288 326.431,-19.5465 315.874,-20.4405 318.736,-26.8288"/>
</g>
</g>
</svg>
