<?xml version="1.0" encoding="UTF-8" standalone="no"?>
<!DOCTYPE svg PUBLIC "-//W3C//DTD SVG 1.1//EN"
 "http://www.w3.org/Graphics/SVG/1.1/DTD/svg11.dtd">
<!-- Generated by graphviz version 2.28.0 (20121221.0049)
 -->
<!-- Title: display_temp_symbols Pages: 1 -->
<svg width="364pt" height="28pt"
 viewBox="0.00 0.00 364.00 28.00" xmlns="http://www.w3.org/2000/svg" xmlns:xlink="http://www.w3.org/1999/xlink">
<g id="graph1" class="graph" transform="scale(1 1) rotate(0) translate(4 24)">
<title>display_temp_symbols</title>
<polygon fill="white" stroke="white" points="-4,5 -4,-24 361,-24 361,5 -4,5"/>
<!-- Node1 -->
<g id="node1" class="node"><title>Node1</title>
<polygon fill="#bfbfbf" stroke="black" points="0,-0.5 0,-19.5 116,-19.5 116,-0.5 0,-0.5"/>
<text text-anchor="middle" x="58" y="-7.5" font-family="Helvetica,sans-Serif" font-size="10.00">display_temp_symbols</text>
</g>
<!-- Node2 -->
<g id="node3" class="node"><title>Node2</title>
<a xlink:href="../../db/d85/display_8c.xhtml#af604e78dcc4e0f1a204b2180c5e54957" target="_top" xlink:title="Displays a symbol.">
<polygon fill="white" stroke="black" points="152,-0.5 152,-19.5 236,-19.5 236,-0.5 152,-0.5"/>
<text text-anchor="middle" x="194" y="-7.5" font-family="Helvetica,sans-Serif" font-size="10.00">display_symbol</text>
</a>
</g>
<!-- Node1&#45;&gt;Node2 -->
<g id="edge2" class="edge"><title>Node1&#45;&gt;Node2</title>
<path fill="none" stroke="midnightblue" d="M116.217,-10C124.619,-10 133.232,-10 141.51,-10"/>
<polygon fill="midnightblue" stroke="midnightblue" points="141.776,-13.5001 151.776,-10 141.776,-6.5001 141.776,-13.5001"/>
</g>
<!-- Node3 -->
<g id="node5" class="node"><title>Node3</title>
<a xlink:href="../../db/d85/display_8c.xhtml#a710739913e8ea1b71dd433b8311211fd" target="_top" xlink:title="write_lcd_mem">
<polygon fill="white" stroke="black" points="272.5,-0.5 272.5,-19.5 355.5,-19.5 355.5,-0.5 272.5,-0.5"/>
<text text-anchor="middle" x="314" y="-7.5" font-family="Helvetica,sans-Serif" font-size="10.00">write_lcd_mem</text>
</a>
</g>
<!-- Node2&#45;&gt;Node3 -->
<g id="edge4" class="edge"><title>Node2&#45;&gt;Node3</title>
<path fill="none" stroke="midnightblue" d="M236.271,-10C244.678,-10 253.615,-10 262.306,-10"/>
<polygon fill="midnightblue" stroke="midnightblue" points="262.35,-13.5001 272.35,-10 262.35,-6.5001 262.35,-13.5001"/>
</g>
</g>
</svg>
