<?xml version="1.0" encoding="UTF-8" standalone="no"?>
<!DOCTYPE svg PUBLIC "-//W3C//DTD SVG 1.1//EN"
 "http://www.w3.org/Graphics/SVG/1.1/DTD/svg11.dtd">
<!-- Generated by graphviz version 2.28.0 (20121221.0049)
 -->
<!-- Title: temperature_deactivate Pages: 1 -->
<!--zoomable 355 -->
<svg id="main" version="1.1" xmlns="http://www.w3.org/2000/svg" xmlns:xlink="http://www.w3.org/1999/xlink" xml:space="preserve" onload="init(evt)">
        <defs>
                <circle id="rim" cx="0" cy="0" r="7"/>
                <circle id="rim2" cx="0" cy="0" r="3.5"/>
                <g id="zoomPlus">
                        <use xlink:href="#rim" fill="#404040">
                                <set attributeName="fill" to="#808080" begin="zoomplus.mouseover" end="zoomplus.mouseout"/>
                        </use>
                        <path d="M-4,0h8M0,-4v8" fill="none" stroke="white" stroke-width="1.5" pointer-events="none"/>
                </g>
                <g id="zoomMin">
                        <use xlink:href="#rim" fill="#404040">
                                <set attributeName="fill" to="#808080" begin="zoomminus.mouseover" end="zoomminus.mouseout"/>
                        </use>
                        <path d="M-4,0h8" fill="none" stroke="white" stroke-width="1.5" pointer-events="none"/>
                </g>
                <g id="dirArrow">
                        <path fill="none" stroke="white" stroke-width="1.5" d="M0,-3.0v7 M-2.5,-0.5L0,-3.0L2.5,-0.5"/>
                </g>
               <g id="resetDef">
                       <use xlink:href="#rim2" fill="#404040">
                               <set attributeName="fill" to="#808080" begin="reset.mouseover" end="reset.mouseout"/>
                       </use>
               </g>
        </defs>

<script type="text/javascript">
var viewWidth = 1090;
var viewHeight = 355;
var sectionId = 'dynsection-11';
</script>
<script xlink:href="../../svgpan.js"/>
<svg id="graph" class="graph">
<g id="viewport">
<title>temperature_deactivate</title>
<polygon fill="white" stroke="white" points="-4,5 -4,-351.477 1087,-351.477 1087,5 -4,5"/>
<!-- Node1 -->
<g id="node1" class="node"><title>Node1</title>
<polygon fill="#bfbfbf" stroke="black" points="0.5,-251.977 0.5,-270.977 119.5,-270.977 119.5,-251.977 0.5,-251.977"/>
<text text-anchor="middle" x="60" y="-258.977" font-family="Helvetica,sans-Serif" font-size="10.00">temperature_deactivate</text>
</g>
<!-- Node2 -->
<g id="node3" class="node"><title>Node2</title>
<a xlink:href="../../d2/df2/openchronos_8c.xhtml#a60705ce0564ce52c1977a32cee3215c2" target="_top" xlink:title="Unregisters a node from the message bus.">
<polygon fill="white" stroke="black" points="156.5,-327.977 156.5,-346.977 297.5,-346.977 297.5,-327.977 156.5,-327.977"/>
<text text-anchor="middle" x="227" y="-334.977" font-family="Helvetica,sans-Serif" font-size="10.00">sys_messagebus_unregister</text>
</a>
</g>
<!-- Node1&#45;&gt;Node2 -->
<g id="edge2" class="edge"><title>Node1&#45;&gt;Node2</title>
<path fill="none" stroke="midnightblue" d="M76.7146,-271.166C95.2187,-282.315 127.101,-300.725 156,-313.477 165.16,-317.519 175.229,-321.324 184.806,-324.662"/>
<polygon fill="midnightblue" stroke="midnightblue" points="183.955,-328.069 194.549,-327.961 186.201,-321.438 183.955,-328.069"/>
</g>
<!-- Node3 -->
<g id="node5" class="node"><title>Node3</title>
<a xlink:href="../../db/d97/modules_2temperature_8c.xhtml#a56b9c2baadf0cd544149272940d7e781" target="_top" xlink:title="Temperature display routine. Mesure and parse the temperature.">
<polygon fill="white" stroke="black" points="186.5,-213.977 186.5,-232.977 267.5,-232.977 267.5,-213.977 186.5,-213.977"/>
<text text-anchor="middle" x="227" y="-220.977" font-family="Helvetica,sans-Serif" font-size="10.00">measure_temp</text>
</a>
</g>
<!-- Node1&#45;&gt;Node3 -->
<g id="edge4" class="edge"><title>Node1&#45;&gt;Node3</title>
<path fill="none" stroke="midnightblue" d="M102.636,-251.888C125.107,-246.713 152.989,-240.292 176.558,-234.864"/>
<polygon fill="midnightblue" stroke="midnightblue" points="177.408,-238.26 186.367,-232.605 175.836,-231.438 177.408,-238.26"/>
</g>
<!-- Node8 -->
<g id="node15" class="node"><title>Node8</title>
<a xlink:href="../../db/d85/display_8c.xhtml#aa150336a018e90f37fd0285047b541f6" target="_top" xlink:title="Clears the screen.">
<polygon fill="white" stroke="black" points="530,-23.9769 530,-42.9769 604,-42.9769 604,-23.9769 530,-23.9769"/>
<text text-anchor="middle" x="567" y="-30.9769" font-family="Helvetica,sans-Serif" font-size="10.00">display_clear</text>
</a>
</g>
<!-- Node1&#45;&gt;Node8 -->
<g id="edge44" class="edge"><title>Node1&#45;&gt;Node8</title>
<path fill="none" stroke="midnightblue" d="M75.4552,-251.952C93.7786,-240.078 126.534,-219.518 156,-204.477 289.508,-136.327 456.62,-73.0927 529.356,-46.5918"/>
<polygon fill="midnightblue" stroke="midnightblue" points="530.773,-49.8008 538.979,-43.0995 528.385,-43.2206 530.773,-49.8008"/>
</g>
<!-- Node13 -->
<g id="node25" class="node"><title>Node13</title>
<a xlink:href="../../db/d85/display_8c.xhtml#af604e78dcc4e0f1a204b2180c5e54957" target="_top" xlink:title="Displays a symbol.">
<polygon fill="white" stroke="black" points="666,-213.977 666,-232.977 750,-232.977 750,-213.977 666,-213.977"/>
<text text-anchor="middle" x="708" y="-220.977" font-family="Helvetica,sans-Serif" font-size="10.00">display_symbol</text>
</a>
</g>
<!-- Node1&#45;&gt;Node13 -->
<g id="edge48" class="edge"><title>Node1&#45;&gt;Node13</title>
<path fill="none" stroke="midnightblue" d="M96.8391,-270.996C188.46,-293.583 437.577,-343.949 630,-280.477 653.989,-272.564 676.615,-253.978 691.053,-240.168"/>
<polygon fill="midnightblue" stroke="midnightblue" points="693.556,-242.615 698.188,-233.086 688.625,-237.647 693.556,-242.615"/>
</g>
<!-- Node14 -->
<g id="node28" class="node"><title>Node14</title>
<a xlink:href="../../db/d97/modules_2temperature_8c.xhtml#a93405e6d64c48ecb74bc8e94876cf5f2" target="_top" xlink:title="Display the current unit symbol &amp; +/&#45; value indicator.">
<polygon fill="white" stroke="black" points="509,-251.977 509,-270.977 625,-270.977 625,-251.977 509,-251.977"/>
<text text-anchor="middle" x="567" y="-258.977" font-family="Helvetica,sans-Serif" font-size="10.00">display_temp_symbols</text>
</a>
</g>
<!-- Node1&#45;&gt;Node14 -->
<g id="edge46" class="edge"><title>Node1&#45;&gt;Node14</title>
<path fill="none" stroke="midnightblue" d="M119.918,-261.477C214.277,-261.477 398.775,-261.477 498.373,-261.477"/>
<polygon fill="midnightblue" stroke="midnightblue" points="498.62,-264.977 508.62,-261.477 498.62,-257.977 498.62,-264.977"/>
</g>
<!-- Node4 -->
<g id="node7" class="node"><title>Node4</title>
<a xlink:href="../../d8/dd8/drivers_2temperature_8c.xhtml#a0899f23cfa5c7ad38347b8feceb80b67" target="_top" xlink:title="temperature_measurement">
<polygon fill="white" stroke="black" points="334.5,-327.977 334.5,-346.977 467.5,-346.977 467.5,-327.977 334.5,-327.977"/>
<text text-anchor="middle" x="401" y="-334.977" font-family="Helvetica,sans-Serif" font-size="10.00">temperature_measurement</text>
</a>
</g>
<!-- Node3&#45;&gt;Node4 -->
<g id="edge6" class="edge"><title>Node3&#45;&gt;Node4</title>
<path fill="none" stroke="midnightblue" d="M242.369,-233C272.141,-252.733 340.793,-298.235 376.878,-322.152"/>
<polygon fill="midnightblue" stroke="midnightblue" points="375.038,-325.132 385.308,-327.739 378.906,-319.297 375.038,-325.132"/>
</g>
<!-- Node7 -->
<g id="node13" class="node"><title>Node7</title>
<a xlink:href="../../db/d97/modules_2temperature_8c.xhtml#abefc6cc8584628d0a116de3162fde706" target="_top" xlink:title="Common display routine for metric and English units.">
<polygon fill="white" stroke="black" points="349,-137.977 349,-156.977 453,-156.977 453,-137.977 349,-137.977"/>
<text text-anchor="middle" x="401" y="-144.977" font-family="Helvetica,sans-Serif" font-size="10.00">display_temperature</text>
</a>
</g>
<!-- Node3&#45;&gt;Node7 -->
<g id="edge12" class="edge"><title>Node3&#45;&gt;Node7</title>
<path fill="none" stroke="midnightblue" d="M249.784,-213.851C279.896,-200.546 334.413,-176.457 368.831,-161.249"/>
<polygon fill="midnightblue" stroke="midnightblue" points="370.661,-164.267 378.393,-157.024 367.831,-157.865 370.661,-164.267"/>
</g>
<!-- Node5 -->
<g id="node9" class="node"><title>Node5</title>
<a xlink:href="../../dc/ddc/adc12_8c.xhtml#a6202d56d811a4a15e9675420b4b1f8db" target="_top" xlink:title="Init ADC12. Do single conversion. Turn off ADC12.">
<polygon fill="white" stroke="black" points="504,-327.977 504,-346.977 630,-346.977 630,-327.977 504,-327.977"/>
<text text-anchor="middle" x="567" y="-334.977" font-family="Helvetica,sans-Serif" font-size="10.00">adc12_single_conversion</text>
</a>
</g>
<!-- Node4&#45;&gt;Node5 -->
<g id="edge8" class="edge"><title>Node4&#45;&gt;Node5</title>
<path fill="none" stroke="midnightblue" d="M467.76,-337.477C476.343,-337.477 485.173,-337.477 493.853,-337.477"/>
<polygon fill="midnightblue" stroke="midnightblue" points="493.951,-340.977 503.951,-337.477 493.951,-333.977 493.951,-340.977"/>
</g>
<!-- Node6 -->
<g id="node11" class="node"><title>Node6</title>
<a xlink:href="../../df/d41/timer_8c.xhtml#adc3302861aee9d7f4a1c4c6d25d07343" target="_top" xlink:title="1ms &#45; 1s programmable delay">
<polygon fill="white" stroke="black" points="672,-327.977 672,-346.977 744,-346.977 744,-327.977 672,-327.977"/>
<text text-anchor="middle" x="708" y="-334.977" font-family="Helvetica,sans-Serif" font-size="10.00">timer0_delay</text>
</a>
</g>
<!-- Node5&#45;&gt;Node6 -->
<g id="edge10" class="edge"><title>Node5&#45;&gt;Node6</title>
<path fill="none" stroke="midnightblue" d="M630.182,-337.477C640.804,-337.477 651.657,-337.477 661.733,-337.477"/>
<polygon fill="midnightblue" stroke="midnightblue" points="661.91,-340.977 671.91,-337.477 661.91,-333.977 661.91,-340.977"/>
</g>
<!-- Node7&#45;&gt;Node8 -->
<g id="edge14" class="edge"><title>Node7&#45;&gt;Node8</title>
<path fill="none" stroke="midnightblue" d="M411.932,-137.894C433.423,-117.296 483.92,-69.682 504,-57.4769 510.727,-53.3881 518.27,-49.7744 525.717,-46.673"/>
<polygon fill="midnightblue" stroke="midnightblue" points="526.998,-49.9303 535.03,-43.0213 524.443,-43.4134 526.998,-49.9303"/>
</g>
<!-- Node9 -->
<g id="node17" class="node"><title>Node9</title>
<a xlink:href="../../db/d85/display_8c.xhtml#a6f2d5cdda31a73b43a569cb3d1a64165" target="_top" xlink:title="Displays several consecutive characters.">
<polygon fill="white" stroke="black" points="669.5,-23.9769 669.5,-42.9769 746.5,-42.9769 746.5,-23.9769 669.5,-23.9769"/>
<text text-anchor="middle" x="708" y="-30.9769" font-family="Helvetica,sans-Serif" font-size="10.00">display_chars</text>
</a>
</g>
<!-- Node7&#45;&gt;Node9 -->
<g id="edge40" class="edge"><title>Node7&#45;&gt;Node9</title>
<path fill="none" stroke="midnightblue" d="M405.843,-137.653C416.631,-111.637 449.981,-41.125 504,-14.4769 559.134,12.721 632.894,-5.73044 674.63,-20.4094"/>
<polygon fill="midnightblue" stroke="midnightblue" points="673.679,-23.7881 684.273,-23.9357 676.083,-17.2139 673.679,-23.7881"/>
</g>
<!-- Node10 -->
<g id="node19" class="node"><title>Node10</title>
<a xlink:href="../../db/d85/display_8c.xhtml#a3ae30196af91197037d50cb49de1d109" target="_top" xlink:title="Displays a single character.">
<polygon fill="white" stroke="black" points="786.5,-61.9769 786.5,-80.9769 857.5,-80.9769 857.5,-61.9769 786.5,-61.9769"/>
<text text-anchor="middle" x="822" y="-68.9769" font-family="Helvetica,sans-Serif" font-size="10.00">display_char</text>
</a>
</g>
<!-- Node7&#45;&gt;Node10 -->
<g id="edge32" class="edge"><title>Node7&#45;&gt;Node10</title>
<path fill="none" stroke="midnightblue" d="M414.674,-137.877C433.167,-124.48 469.15,-100.677 504,-90.4769 597.787,-63.0271 713.665,-64.4799 776.085,-67.9716"/>
<polygon fill="midnightblue" stroke="midnightblue" points="776.174,-71.4833 786.367,-68.5929 776.596,-64.496 776.174,-71.4833"/>
</g>
<!-- Node7&#45;&gt;Node13 -->
<g id="edge38" class="edge"><title>Node7&#45;&gt;Node13</title>
<path fill="none" stroke="midnightblue" d="M415.034,-157.141C433.676,-170.387 469.52,-193.756 504,-204.477 554.012,-220.027 614.025,-223.949 655.773,-224.49"/>
<polygon fill="midnightblue" stroke="midnightblue" points="655.952,-227.991 665.976,-224.56 656,-220.991 655.952,-227.991"/>
</g>
<!-- Node7&#45;&gt;Node14 -->
<g id="edge28" class="edge"><title>Node7&#45;&gt;Node14</title>
<path fill="none" stroke="midnightblue" d="M410.672,-157.124C427.252,-175.076 465.253,-213.925 504,-237.477 510.727,-241.566 518.27,-245.179 525.717,-248.281"/>
<polygon fill="midnightblue" stroke="midnightblue" points="524.443,-251.54 535.03,-251.933 526.998,-245.024 524.443,-251.54"/>
</g>
<!-- Node15 -->
<g id="node32" class="node"><title>Node15</title>
<a xlink:href="../../d8/dd8/drivers_2temperature_8c.xhtml#a4792bfaf5c3fa2bee84e6dfaac5ab4d2" target="_top" xlink:title="temperature_get_C">
<polygon fill="white" stroke="black" points="517,-175.977 517,-194.977 617,-194.977 617,-175.977 517,-175.977"/>
<text text-anchor="middle" x="567" y="-182.977" font-family="Helvetica,sans-Serif" font-size="10.00">temperature_get_C</text>
</a>
</g>
<!-- Node7&#45;&gt;Node15 -->
<g id="edge34" class="edge"><title>Node7&#45;&gt;Node15</title>
<path fill="none" stroke="midnightblue" d="M443.384,-157.066C465.123,-162.103 491.957,-168.321 514.975,-173.654"/>
<polygon fill="midnightblue" stroke="midnightblue" points="514.381,-177.109 524.913,-175.957 515.962,-170.29 514.381,-177.109"/>
</g>
<!-- Node16 -->
<g id="node34" class="node"><title>Node16</title>
<a xlink:href="../../d8/dd8/drivers_2temperature_8c.xhtml#a02bc88773acbaadf1784ae3352b66fb5" target="_top" xlink:title="temperature_get_F">
<polygon fill="white" stroke="black" points="518,-137.977 518,-156.977 616,-156.977 616,-137.977 518,-137.977"/>
<text text-anchor="middle" x="567" y="-144.977" font-family="Helvetica,sans-Serif" font-size="10.00">temperature_get_F</text>
</a>
</g>
<!-- Node7&#45;&gt;Node16 -->
<g id="edge36" class="edge"><title>Node7&#45;&gt;Node16</title>
<path fill="none" stroke="midnightblue" d="M453.441,-147.477C470.638,-147.477 489.927,-147.477 507.615,-147.477"/>
<polygon fill="midnightblue" stroke="midnightblue" points="507.816,-150.977 517.816,-147.477 507.815,-143.977 507.816,-150.977"/>
</g>
<!-- Node17 -->
<g id="node38" class="node"><title>Node17</title>
<a xlink:href="../../db/d85/display_8c.xhtml#a9047d98cd15ffbc79e15c63fca36d70b" target="_top" xlink:title="pseudo sprintf function">
<polygon fill="white" stroke="black" points="542.5,-99.9769 542.5,-118.977 591.5,-118.977 591.5,-99.9769 542.5,-99.9769"/>
<text text-anchor="middle" x="567" y="-106.977" font-family="Helvetica,sans-Serif" font-size="10.00">_sprintf</text>
</a>
</g>
<!-- Node7&#45;&gt;Node17 -->
<g id="edge42" class="edge"><title>Node7&#45;&gt;Node17</title>
<path fill="none" stroke="midnightblue" d="M443.384,-137.888C470.906,-131.511 506.594,-123.242 532.365,-117.27"/>
<polygon fill="midnightblue" stroke="midnightblue" points="533.453,-120.611 542.405,-114.944 531.873,-113.792 533.453,-120.611"/>
</g>
<!-- Node8&#45;&gt;Node9 -->
<g id="edge16" class="edge"><title>Node8&#45;&gt;Node9</title>
<path fill="none" stroke="midnightblue" d="M604.158,-33.4769C620.912,-33.4769 641.054,-33.4769 659.055,-33.4769"/>
<polygon fill="midnightblue" stroke="midnightblue" points="659.081,-36.977 669.081,-33.4769 659.081,-29.977 659.081,-36.977"/>
</g>
<!-- Node8&#45;&gt;Node13 -->
<g id="edge24" class="edge"><title>Node8&#45;&gt;Node13</title>
<path fill="none" stroke="midnightblue" d="M580.453,-43.0235C593.77,-53.6403 614.995,-71.7725 630,-90.4769 659.773,-127.59 685.43,-177.535 698.259,-204.426"/>
<polygon fill="midnightblue" stroke="midnightblue" points="695.255,-206.263 702.669,-213.832 701.593,-203.292 695.255,-206.263"/>
</g>
<!-- Node9&#45;&gt;Node10 -->
<g id="edge18" class="edge"><title>Node9&#45;&gt;Node10</title>
<path fill="none" stroke="midnightblue" d="M737.262,-43.0659C751.19,-47.7914 768.18,-53.5558 783.207,-58.6543"/>
<polygon fill="midnightblue" stroke="midnightblue" points="782.152,-61.9924 792.747,-61.891 784.401,-55.3635 782.152,-61.9924"/>
</g>
<!-- Node11 -->
<g id="node21" class="node"><title>Node11</title>
<a xlink:href="../../db/d85/display_8c.xhtml#a9275035317878022cf9eacf6b0a5be72" target="_top" xlink:title="Display a custom collection of segments.">
<polygon fill="white" stroke="black" points="894,-89.9769 894,-108.977 962,-108.977 962,-89.9769 894,-89.9769"/>
<text text-anchor="middle" x="928" y="-96.9769" font-family="Helvetica,sans-Serif" font-size="10.00">display_bits</text>
</a>
</g>
<!-- Node10&#45;&gt;Node11 -->
<g id="edge20" class="edge"><title>Node10&#45;&gt;Node11</title>
<path fill="none" stroke="midnightblue" d="M857.63,-80.8005C866.131,-83.0891 875.331,-85.5661 884.167,-87.9449"/>
<polygon fill="midnightblue" stroke="midnightblue" points="883.365,-91.3535 893.931,-90.5737 885.185,-84.5942 883.365,-91.3535"/>
</g>
<!-- Node12 -->
<g id="node23" class="node"><title>Node12</title>
<a xlink:href="../../db/d85/display_8c.xhtml#a710739913e8ea1b71dd433b8311211fd" target="_top" xlink:title="write_lcd_mem">
<polygon fill="white" stroke="black" points="998.5,-136.977 998.5,-155.977 1081.5,-155.977 1081.5,-136.977 998.5,-136.977"/>
<text text-anchor="middle" x="1040" y="-143.977" font-family="Helvetica,sans-Serif" font-size="10.00">write_lcd_mem</text>
</a>
</g>
<!-- Node11&#45;&gt;Node12 -->
<g id="edge22" class="edge"><title>Node11&#45;&gt;Node12</title>
<path fill="none" stroke="midnightblue" d="M951.26,-108.988C967.257,-115.823 989.063,-125.14 1006.93,-132.776"/>
<polygon fill="midnightblue" stroke="midnightblue" points="1005.82,-136.108 1016.4,-136.819 1008.57,-129.671 1005.82,-136.108"/>
</g>
<!-- Node13&#45;&gt;Node12 -->
<g id="edge26" class="edge"><title>Node13&#45;&gt;Node12</title>
<path fill="none" stroke="midnightblue" d="M749.795,-213.958C810.033,-199.903 922.691,-173.616 988.203,-158.329"/>
<polygon fill="midnightblue" stroke="midnightblue" points="989.355,-161.655 998.298,-155.974 987.764,-154.838 989.355,-161.655"/>
</g>
<!-- Node14&#45;&gt;Node13 -->
<g id="edge30" class="edge"><title>Node14&#45;&gt;Node13</title>
<path fill="none" stroke="midnightblue" d="M603.076,-251.888C621.019,-246.982 643.058,-240.957 662.217,-235.72"/>
<polygon fill="midnightblue" stroke="midnightblue" points="663.213,-239.076 671.936,-233.063 661.367,-232.324 663.213,-239.076"/>
</g>
</g>
</svg>
        <g id="navigator" transform="translate(0 0)" fill="#404254">
                <rect fill="#f2f5e9" fill-opacity="0.5" stroke="#606060" stroke-width=".5" x="0" y="0" width="60" height="60"/>
                <use id="zoomplus" xlink:href="#zoomPlus" x="17" y="9" onmousedown="handleZoom(evt,'in')"/>
                <use id="zoomminus" xlink:href="#zoomMin" x="42" y="9" onmousedown="handleZoom(evt,'out')"/>
                <use id="reset" xlink:href="#resetDef" x="30" y="36" onmousedown="handleReset()"/>
                <g id="arrowUp" xlink:href="#dirArrow" transform="translate(30 24)" onmousedown="handlePan(0,-1)">
                  <use xlink:href="#rim" fill="#404040">
                        <set attributeName="fill" to="#808080" begin="arrowUp.mouseover" end="arrowUp.mouseout"/>
                  </use>
                  <path fill="none" stroke="white" stroke-width="1.5" d="M0,-3.0v7 M-2.5,-0.5L0,-3.0L2.5,-0.5"/>
                </g>
                <g id="arrowRight" xlink:href="#dirArrow" transform="rotate(90) translate(36 -43)" onmousedown="handlePan(1,0)">
                  <use xlink:href="#rim" fill="#404040">
                        <set attributeName="fill" to="#808080" begin="arrowRight.mouseover" end="arrowRight.mouseout"/>
                  </use>
                  <path fill="none" stroke="white" stroke-width="1.5" d="M0,-3.0v7 M-2.5,-0.5L0,-3.0L2.5,-0.5"/>
                </g>
                <g id="arrowDown" xlink:href="#dirArrow" transform="rotate(180) translate(-30 -48)" onmousedown="handlePan(0,1)">
                  <use xlink:href="#rim" fill="#404040">
                        <set attributeName="fill" to="#808080" begin="arrowDown.mouseover" end="arrowDown.mouseout"/>
                  </use>
                  <path fill="none" stroke="white" stroke-width="1.5" d="M0,-3.0v7 M-2.5,-0.5L0,-3.0L2.5,-0.5"/>
                </g>
                <g id="arrowLeft" xlink:href="#dirArrow" transform="rotate(270) translate(-36 17)" onmousedown="handlePan(-1,0)">
                  <use xlink:href="#rim" fill="#404040">
                        <set attributeName="fill" to="#808080" begin="arrowLeft.mouseover" end="arrowLeft.mouseout"/>
                  </use>
                  <path fill="none" stroke="white" stroke-width="1.5" d="M0,-3.0v7 M-2.5,-0.5L0,-3.0L2.5,-0.5"/>
                </g>
        </g>
        <svg viewBox="0 0 15 15" width="100%" height="30px" preserveAspectRatio="xMaxYMin meet">
         <g id="arrow_out" transform="scale(0.3 0.3)">
          <a xlink:href="modules_2temperature_8c_aaf395433c11fa3dfde7c872f79e62d31_cgraph_org.svg" target="_base">
           <rect id="button" ry="5" rx="5" y="6" x="6" height="38" width="38"
                fill="#f2f5e9" fill-opacity="0.5" stroke="#606060" stroke-width="1.0"/>
           <path id="arrow"
             d="M 11.500037,31.436501 C 11.940474,20.09759 22.043105,11.32322 32.158766,21.979434 L 37.068811,17.246167 C 37.068811,17.246167 37.088388,32 37.088388,32 L 22.160133,31.978069 C 22.160133,31.978069 26.997745,27.140456 26.997745,27.140456 C 18.528582,18.264221 13.291696,25.230495 11.500037,31.436501 z"
             style="fill:#404040;"/>
          </a>
         </g>
        </svg>
</svg>
