<?xml version="1.0" encoding="UTF-8" standalone="no"?>
<!DOCTYPE svg PUBLIC "-//W3C//DTD SVG 1.1//EN"
 "http://www.w3.org/Graphics/SVG/1.1/DTD/svg11.dtd">
<!-- Generated by graphviz version 2.28.0 (20121221.0049)
 -->
<!-- Title: measure_temp Pages: 1 -->
<!--zoomable 332 -->
<svg id="main" version="1.1" xmlns="http://www.w3.org/2000/svg" xmlns:xlink="http://www.w3.org/1999/xlink" xml:space="preserve" onload="init(evt)">
        <defs>
                <circle id="rim" cx="0" cy="0" r="7"/>
                <circle id="rim2" cx="0" cy="0" r="3.5"/>
                <g id="zoomPlus">
                        <use xlink:href="#rim" fill="#404040">
                                <set attributeName="fill" to="#808080" begin="zoomplus.mouseover" end="zoomplus.mouseout"/>
                        </use>
                        <path d="M-4,0h8M0,-4v8" fill="none" stroke="white" stroke-width="1.5" pointer-events="none"/>
                </g>
                <g id="zoomMin">
                        <use xlink:href="#rim" fill="#404040">
                                <set attributeName="fill" to="#808080" begin="zoomminus.mouseover" end="zoomminus.mouseout"/>
                        </use>
                        <path d="M-4,0h8" fill="none" stroke="white" stroke-width="1.5" pointer-events="none"/>
                </g>
                <g id="dirArrow">
                        <path fill="none" stroke="white" stroke-width="1.5" d="M0,-3.0v7 M-2.5,-0.5L0,-3.0L2.5,-0.5"/>
                </g>
               <g id="resetDef">
                       <use xlink:href="#rim2" fill="#404040">
                               <set attributeName="fill" to="#808080" begin="reset.mouseover" end="reset.mouseout"/>
                       </use>
               </g>
        </defs>

<script type="text/javascript">
var viewWidth = 874;
var viewHeight = 332;
var sectionId = 'dynsection-8';
</script>
<script xlink:href="../../svgpan.js"/>
<svg id="graph" class="graph">
<g id="viewport">
<title>measure_temp</title>
<polygon fill="white" stroke="white" points="-4,5 -4,-328 871,-328 871,5 -4,5"/>
<!-- Node1 -->
<g id="node1" class="node"><title>Node1</title>
<polygon fill="#bfbfbf" stroke="black" points="0.5,-199.5 0.5,-218.5 81.5,-218.5 81.5,-199.5 0.5,-199.5"/>
<text text-anchor="middle" x="41" y="-206.5" font-family="Helvetica,sans-Serif" font-size="10.00">measure_temp</text>
</g>
<!-- Node2 -->
<g id="node3" class="node"><title>Node2</title>
<a xlink:href="../../d8/dd8/drivers_2temperature_8c.xhtml#a0899f23cfa5c7ad38347b8feceb80b67" target="_top" xlink:title="temperature_measurement">
<polygon fill="white" stroke="black" points="118.5,-247.5 118.5,-266.5 251.5,-266.5 251.5,-247.5 118.5,-247.5"/>
<text text-anchor="middle" x="185" y="-254.5" font-family="Helvetica,sans-Serif" font-size="10.00">temperature_measurement</text>
</a>
</g>
<!-- Node1&#45;&gt;Node2 -->
<g id="edge2" class="edge"><title>Node1&#45;&gt;Node2</title>
<path fill="none" stroke="midnightblue" d="M70.3945,-218.598C92.0651,-225.923 122.139,-236.089 145.9,-244.121"/>
<polygon fill="midnightblue" stroke="midnightblue" points="145.06,-247.532 155.655,-247.418 147.302,-240.9 145.06,-247.532"/>
</g>
<!-- Node5 -->
<g id="node9" class="node"><title>Node5</title>
<a xlink:href="../../db/d97/modules_2temperature_8c.xhtml#abefc6cc8584628d0a116de3162fde706" target="_top" xlink:title="Common display routine for metric and English units.">
<polygon fill="white" stroke="black" points="133,-152.5 133,-171.5 237,-171.5 237,-152.5 133,-152.5"/>
<text text-anchor="middle" x="185" y="-159.5" font-family="Helvetica,sans-Serif" font-size="10.00">display_temperature</text>
</a>
</g>
<!-- Node1&#45;&gt;Node5 -->
<g id="edge8" class="edge"><title>Node1&#45;&gt;Node5</title>
<path fill="none" stroke="midnightblue" d="M70.7358,-199.489C92.1508,-192.401 121.631,-182.643 145.147,-174.86"/>
<polygon fill="midnightblue" stroke="midnightblue" points="146.426,-178.123 154.82,-171.658 144.226,-171.478 146.426,-178.123"/>
</g>
<!-- Node3 -->
<g id="node5" class="node"><title>Node3</title>
<a xlink:href="../../dc/ddc/adc12_8c.xhtml#a6202d56d811a4a15e9675420b4b1f8db" target="_top" xlink:title="Init ADC12. Do single conversion. Turn off ADC12.">
<polygon fill="white" stroke="black" points="288,-304.5 288,-323.5 414,-323.5 414,-304.5 288,-304.5"/>
<text text-anchor="middle" x="351" y="-311.5" font-family="Helvetica,sans-Serif" font-size="10.00">adc12_single_conversion</text>
</a>
</g>
<!-- Node2&#45;&gt;Node3 -->
<g id="edge4" class="edge"><title>Node2&#45;&gt;Node3</title>
<path fill="none" stroke="midnightblue" d="M213.45,-266.541C240.649,-275.994 282.502,-290.54 312.703,-301.037"/>
<polygon fill="midnightblue" stroke="midnightblue" points="311.866,-304.451 322.461,-304.428 314.164,-297.839 311.866,-304.451"/>
</g>
<!-- Node4 -->
<g id="node7" class="node"><title>Node4</title>
<a xlink:href="../../df/d41/timer_8c.xhtml#adc3302861aee9d7f4a1c4c6d25d07343" target="_top" xlink:title="1ms &#45; 1s programmable delay">
<polygon fill="white" stroke="black" points="456,-304.5 456,-323.5 528,-323.5 528,-304.5 456,-304.5"/>
<text text-anchor="middle" x="492" y="-311.5" font-family="Helvetica,sans-Serif" font-size="10.00">timer0_delay</text>
</a>
</g>
<!-- Node3&#45;&gt;Node4 -->
<g id="edge6" class="edge"><title>Node3&#45;&gt;Node4</title>
<path fill="none" stroke="midnightblue" d="M414.182,-314C424.804,-314 435.657,-314 445.733,-314"/>
<polygon fill="midnightblue" stroke="midnightblue" points="445.91,-317.5 455.91,-314 445.91,-310.5 445.91,-317.5"/>
</g>
<!-- Node6 -->
<g id="node11" class="node"><title>Node6</title>
<a xlink:href="../../db/d85/display_8c.xhtml#aa150336a018e90f37fd0285047b541f6" target="_top" xlink:title="Clears the screen.">
<polygon fill="white" stroke="black" points="314,-190.5 314,-209.5 388,-209.5 388,-190.5 314,-190.5"/>
<text text-anchor="middle" x="351" y="-197.5" font-family="Helvetica,sans-Serif" font-size="10.00">display_clear</text>
</a>
</g>
<!-- Node5&#45;&gt;Node6 -->
<g id="edge10" class="edge"><title>Node5&#45;&gt;Node6</title>
<path fill="none" stroke="midnightblue" d="M227.384,-171.589C250.715,-176.995 279.915,-183.761 303.967,-189.334"/>
<polygon fill="midnightblue" stroke="midnightblue" points="303.395,-192.794 313.927,-191.642 304.975,-185.975 303.395,-192.794"/>
</g>
<!-- Node7 -->
<g id="node13" class="node"><title>Node7</title>
<a xlink:href="../../db/d85/display_8c.xhtml#a6f2d5cdda31a73b43a569cb3d1a64165" target="_top" xlink:title="Displays several consecutive characters.">
<polygon fill="white" stroke="black" points="453.5,-209.5 453.5,-228.5 530.5,-228.5 530.5,-209.5 453.5,-209.5"/>
<text text-anchor="middle" x="492" y="-216.5" font-family="Helvetica,sans-Serif" font-size="10.00">display_chars</text>
</a>
</g>
<!-- Node5&#45;&gt;Node7 -->
<g id="edge36" class="edge"><title>Node5&#45;&gt;Node7</title>
<path fill="none" stroke="midnightblue" d="M198.289,-171.655C216.592,-185.356 252.664,-209.797 288,-219 339.72,-232.471 401.399,-229.982 443.09,-225.715"/>
<polygon fill="midnightblue" stroke="midnightblue" points="443.682,-229.171 453.24,-224.6 442.918,-222.213 443.682,-229.171"/>
</g>
<!-- Node8 -->
<g id="node15" class="node"><title>Node8</title>
<a xlink:href="../../db/d85/display_8c.xhtml#a3ae30196af91197037d50cb49de1d109" target="_top" xlink:title="Displays a single character.">
<polygon fill="white" stroke="black" points="570.5,-209.5 570.5,-228.5 641.5,-228.5 641.5,-209.5 570.5,-209.5"/>
<text text-anchor="middle" x="606" y="-216.5" font-family="Helvetica,sans-Serif" font-size="10.00">display_char</text>
</a>
</g>
<!-- Node5&#45;&gt;Node8 -->
<g id="edge28" class="edge"><title>Node5&#45;&gt;Node8</title>
<path fill="none" stroke="midnightblue" d="M194.645,-171.643C210.89,-188.953 247.964,-224.725 288,-238 382.434,-269.313 501.247,-247.04 563.147,-231.168"/>
<polygon fill="midnightblue" stroke="midnightblue" points="564.164,-234.52 572.942,-228.587 562.38,-227.751 564.164,-234.52"/>
</g>
<!-- Node11 -->
<g id="node21" class="node"><title>Node11</title>
<a xlink:href="../../db/d85/display_8c.xhtml#af604e78dcc4e0f1a204b2180c5e54957" target="_top" xlink:title="Displays a symbol.">
<polygon fill="white" stroke="black" points="450,-152.5 450,-171.5 534,-171.5 534,-152.5 450,-152.5"/>
<text text-anchor="middle" x="492" y="-159.5" font-family="Helvetica,sans-Serif" font-size="10.00">display_symbol</text>
</a>
</g>
<!-- Node5&#45;&gt;Node11 -->
<g id="edge34" class="edge"><title>Node5&#45;&gt;Node11</title>
<path fill="none" stroke="midnightblue" d="M237.05,-162C293.245,-162 383.077,-162 439.465,-162"/>
<polygon fill="midnightblue" stroke="midnightblue" points="439.589,-165.5 449.589,-162 439.589,-158.5 439.589,-165.5"/>
</g>
<!-- Node12 -->
<g id="node24" class="node"><title>Node12</title>
<a xlink:href="../../db/d97/modules_2temperature_8c.xhtml#a93405e6d64c48ecb74bc8e94876cf5f2" target="_top" xlink:title="Display the current unit symbol &amp; +/&#45; value indicator.">
<polygon fill="white" stroke="black" points="293,-114.5 293,-133.5 409,-133.5 409,-114.5 293,-114.5"/>
<text text-anchor="middle" x="351" y="-121.5" font-family="Helvetica,sans-Serif" font-size="10.00">display_temp_symbols</text>
</a>
</g>
<!-- Node5&#45;&gt;Node12 -->
<g id="edge24" class="edge"><title>Node5&#45;&gt;Node12</title>
<path fill="none" stroke="midnightblue" d="M227.384,-152.411C249.123,-147.374 275.957,-141.156 298.975,-135.823"/>
<polygon fill="midnightblue" stroke="midnightblue" points="299.962,-139.187 308.913,-133.52 298.381,-132.368 299.962,-139.187"/>
</g>
<!-- Node13 -->
<g id="node28" class="node"><title>Node13</title>
<a xlink:href="../../d8/dd8/drivers_2temperature_8c.xhtml#a4792bfaf5c3fa2bee84e6dfaac5ab4d2" target="_top" xlink:title="temperature_get_C">
<polygon fill="white" stroke="black" points="301,-76.5 301,-95.5 401,-95.5 401,-76.5 301,-76.5"/>
<text text-anchor="middle" x="351" y="-83.5" font-family="Helvetica,sans-Serif" font-size="10.00">temperature_get_C</text>
</a>
</g>
<!-- Node5&#45;&gt;Node13 -->
<g id="edge30" class="edge"><title>Node5&#45;&gt;Node13</title>
<path fill="none" stroke="midnightblue" d="M200.699,-152.468C220.082,-140.211 255.537,-118.858 288,-105 293.177,-102.79 298.697,-100.718 304.228,-98.8156"/>
<polygon fill="midnightblue" stroke="midnightblue" points="305.708,-102.014 314.125,-95.5792 303.533,-95.3607 305.708,-102.014"/>
</g>
<!-- Node14 -->
<g id="node30" class="node"><title>Node14</title>
<a xlink:href="../../d8/dd8/drivers_2temperature_8c.xhtml#a02bc88773acbaadf1784ae3352b66fb5" target="_top" xlink:title="temperature_get_F">
<polygon fill="white" stroke="black" points="302,-38.5 302,-57.5 400,-57.5 400,-38.5 302,-38.5"/>
<text text-anchor="middle" x="351" y="-45.5" font-family="Helvetica,sans-Serif" font-size="10.00">temperature_get_F</text>
</a>
</g>
<!-- Node5&#45;&gt;Node14 -->
<g id="edge32" class="edge"><title>Node5&#45;&gt;Node14</title>
<path fill="none" stroke="midnightblue" d="M193.653,-152.408C209.343,-133.365 247.134,-90.5953 288,-67 291.674,-64.8785 295.611,-62.9698 299.652,-61.2574"/>
<polygon fill="midnightblue" stroke="midnightblue" points="301.107,-64.4484 309.199,-57.6097 298.608,-57.9094 301.107,-64.4484"/>
</g>
<!-- Node15 -->
<g id="node34" class="node"><title>Node15</title>
<a xlink:href="../../db/d85/display_8c.xhtml#a9047d98cd15ffbc79e15c63fca36d70b" target="_top" xlink:title="pseudo sprintf function">
<polygon fill="white" stroke="black" points="326.5,-0.5 326.5,-19.5 375.5,-19.5 375.5,-0.5 326.5,-0.5"/>
<text text-anchor="middle" x="351" y="-7.5" font-family="Helvetica,sans-Serif" font-size="10.00">_sprintf</text>
</a>
</g>
<!-- Node5&#45;&gt;Node15 -->
<g id="edge38" class="edge"><title>Node5&#45;&gt;Node15</title>
<path fill="none" stroke="midnightblue" d="M190.698,-152.319C203.07,-127.843 239.002,-63.0243 288,-29 296.442,-23.1381 306.747,-19.0408 316.513,-16.195"/>
<polygon fill="midnightblue" stroke="midnightblue" points="317.577,-19.5354 326.394,-13.6609 315.838,-12.7548 317.577,-19.5354"/>
</g>
<!-- Node6&#45;&gt;Node7 -->
<g id="edge12" class="edge"><title>Node6&#45;&gt;Node7</title>
<path fill="none" stroke="midnightblue" d="M388.158,-204.942C404.912,-207.233 425.054,-209.986 443.055,-212.446"/>
<polygon fill="midnightblue" stroke="midnightblue" points="442.699,-215.93 453.081,-213.817 443.647,-208.995 442.699,-215.93"/>
</g>
<!-- Node6&#45;&gt;Node11 -->
<g id="edge20" class="edge"><title>Node6&#45;&gt;Node11</title>
<path fill="none" stroke="midnightblue" d="M387.076,-190.411C405.019,-185.506 427.058,-179.48 446.217,-174.243"/>
<polygon fill="midnightblue" stroke="midnightblue" points="447.213,-177.599 455.936,-171.586 445.367,-170.847 447.213,-177.599"/>
</g>
<!-- Node7&#45;&gt;Node8 -->
<g id="edge14" class="edge"><title>Node7&#45;&gt;Node8</title>
<path fill="none" stroke="midnightblue" d="M530.606,-219C540.133,-219 550.46,-219 560.301,-219"/>
<polygon fill="midnightblue" stroke="midnightblue" points="560.326,-222.5 570.326,-219 560.326,-215.5 560.326,-222.5"/>
</g>
<!-- Node9 -->
<g id="node17" class="node"><title>Node9</title>
<a xlink:href="../../db/d85/display_8c.xhtml#a9275035317878022cf9eacf6b0a5be72" target="_top" xlink:title="Display a custom collection of segments.">
<polygon fill="white" stroke="black" points="678,-209.5 678,-228.5 746,-228.5 746,-209.5 678,-209.5"/>
<text text-anchor="middle" x="712" y="-216.5" font-family="Helvetica,sans-Serif" font-size="10.00">display_bits</text>
</a>
</g>
<!-- Node8&#45;&gt;Node9 -->
<g id="edge16" class="edge"><title>Node8&#45;&gt;Node9</title>
<path fill="none" stroke="midnightblue" d="M641.63,-219C650.04,-219 659.133,-219 667.882,-219"/>
<polygon fill="midnightblue" stroke="midnightblue" points="667.931,-222.5 677.931,-219 667.931,-215.5 667.931,-222.5"/>
</g>
<!-- Node10 -->
<g id="node19" class="node"><title>Node10</title>
<a xlink:href="../../db/d85/display_8c.xhtml#a710739913e8ea1b71dd433b8311211fd" target="_top" xlink:title="write_lcd_mem">
<polygon fill="white" stroke="black" points="782.5,-190.5 782.5,-209.5 865.5,-209.5 865.5,-190.5 782.5,-190.5"/>
<text text-anchor="middle" x="824" y="-197.5" font-family="Helvetica,sans-Serif" font-size="10.00">write_lcd_mem</text>
</a>
</g>
<!-- Node9&#45;&gt;Node10 -->
<g id="edge18" class="edge"><title>Node9&#45;&gt;Node10</title>
<path fill="none" stroke="midnightblue" d="M746.004,-213.299C754.28,-211.87 763.352,-210.303 772.273,-208.762"/>
<polygon fill="midnightblue" stroke="midnightblue" points="772.972,-212.193 782.231,-207.042 771.781,-205.295 772.972,-212.193"/>
</g>
<!-- Node11&#45;&gt;Node10 -->
<g id="edge22" class="edge"><title>Node11&#45;&gt;Node10</title>
<path fill="none" stroke="midnightblue" d="M534.127,-166.736C594.481,-173.686 706.942,-186.636 772.318,-194.164"/>
<polygon fill="midnightblue" stroke="midnightblue" points="772.056,-197.657 782.391,-195.324 772.857,-190.703 772.056,-197.657"/>
</g>
<!-- Node12&#45;&gt;Node11 -->
<g id="edge26" class="edge"><title>Node12&#45;&gt;Node11</title>
<path fill="none" stroke="midnightblue" d="M387.076,-133.589C405.019,-138.494 427.058,-144.52 446.217,-149.757"/>
<polygon fill="midnightblue" stroke="midnightblue" points="445.367,-153.153 455.936,-152.414 447.213,-146.401 445.367,-153.153"/>
</g>
</g>
</svg>
        <g id="navigator" transform="translate(0 0)" fill="#404254">
                <rect fill="#f2f5e9" fill-opacity="0.5" stroke="#606060" stroke-width=".5" x="0" y="0" width="60" height="60"/>
                <use id="zoomplus" xlink:href="#zoomPlus" x="17" y="9" onmousedown="handleZoom(evt,'in')"/>
                <use id="zoomminus" xlink:href="#zoomMin" x="42" y="9" onmousedown="handleZoom(evt,'out')"/>
                <use id="reset" xlink:href="#resetDef" x="30" y="36" onmousedown="handleReset()"/>
                <g id="arrowUp" xlink:href="#dirArrow" transform="translate(30 24)" onmousedown="handlePan(0,-1)">
                  <use xlink:href="#rim" fill="#404040">
                        <set attributeName="fill" to="#808080" begin="arrowUp.mouseover" end="arrowUp.mouseout"/>
                  </use>
                  <path fill="none" stroke="white" stroke-width="1.5" d="M0,-3.0v7 M-2.5,-0.5L0,-3.0L2.5,-0.5"/>
                </g>
                <g id="arrowRight" xlink:href="#dirArrow" transform="rotate(90) translate(36 -43)" onmousedown="handlePan(1,0)">
                  <use xlink:href="#rim" fill="#404040">
                        <set attributeName="fill" to="#808080" begin="arrowRight.mouseover" end="arrowRight.mouseout"/>
                  </use>
                  <path fill="none" stroke="white" stroke-width="1.5" d="M0,-3.0v7 M-2.5,-0.5L0,-3.0L2.5,-0.5"/>
                </g>
                <g id="arrowDown" xlink:href="#dirArrow" transform="rotate(180) translate(-30 -48)" onmousedown="handlePan(0,1)">
                  <use xlink:href="#rim" fill="#404040">
                        <set attributeName="fill" to="#808080" begin="arrowDown.mouseover" end="arrowDown.mouseout"/>
                  </use>
                  <path fill="none" stroke="white" stroke-width="1.5" d="M0,-3.0v7 M-2.5,-0.5L0,-3.0L2.5,-0.5"/>
                </g>
                <g id="arrowLeft" xlink:href="#dirArrow" transform="rotate(270) translate(-36 17)" onmousedown="handlePan(-1,0)">
                  <use xlink:href="#rim" fill="#404040">
                        <set attributeName="fill" to="#808080" begin="arrowLeft.mouseover" end="arrowLeft.mouseout"/>
                  </use>
                  <path fill="none" stroke="white" stroke-width="1.5" d="M0,-3.0v7 M-2.5,-0.5L0,-3.0L2.5,-0.5"/>
                </g>
        </g>
        <svg viewBox="0 0 15 15" width="100%" height="30px" preserveAspectRatio="xMaxYMin meet">
         <g id="arrow_out" transform="scale(0.3 0.3)">
          <a xlink:href="modules_2temperature_8c_a56b9c2baadf0cd544149272940d7e781_cgraph_org.svg" target="_base">
           <rect id="button" ry="5" rx="5" y="6" x="6" height="38" width="38"
                fill="#f2f5e9" fill-opacity="0.5" stroke="#606060" stroke-width="1.0"/>
           <path id="arrow"
             d="M 11.500037,31.436501 C 11.940474,20.09759 22.043105,11.32322 32.158766,21.979434 L 37.068811,17.246167 C 37.068811,17.246167 37.088388,32 37.088388,32 L 22.160133,31.978069 C 22.160133,31.978069 26.997745,27.140456 26.997745,27.140456 C 18.528582,18.264221 13.291696,25.230495 11.500037,31.436501 z"
             style="fill:#404040;"/>
          </a>
         </g>
        </svg>
</svg>
