<?xml version="1.0" encoding="UTF-8" standalone="no"?>
<!DOCTYPE svg PUBLIC "-//W3C//DTD SVG 1.1//EN"
 "http://www.w3.org/Graphics/SVG/1.1/DTD/svg11.dtd">
<!-- Generated by graphviz version 2.28.0 (20121221.0049)
 -->
<!-- Title: display_temperature Pages: 1 -->
<svg width="716pt" height="267pt"
 viewBox="0.00 0.00 716.00 267.38" xmlns="http://www.w3.org/2000/svg" xmlns:xlink="http://www.w3.org/1999/xlink">
<g id="graph1" class="graph" transform="scale(1 1) rotate(0) translate(4 263.377)">
<title>display_temperature</title>
<polygon fill="white" stroke="white" points="-4,5 -4,-263.377 713,-263.377 713,5 -4,5"/>
<!-- Node1 -->
<g id="node1" class="node"><title>Node1</title>
<polygon fill="#bfbfbf" stroke="black" points="0,-133.5 0,-152.5 104,-152.5 104,-133.5 0,-133.5"/>
<text text-anchor="middle" x="52" y="-140.5" font-family="Helvetica,sans-Serif" font-size="10.00">display_temperature</text>
</g>
<!-- Node2 -->
<g id="node3" class="node"><title>Node2</title>
<a xlink:href="../../db/d85/display_8c.xhtml#aa150336a018e90f37fd0285047b541f6" target="_top" xlink:title="Clears the screen.">
<polygon fill="white" stroke="black" points="161,-190.5 161,-209.5 235,-209.5 235,-190.5 161,-190.5"/>
<text text-anchor="middle" x="198" y="-197.5" font-family="Helvetica,sans-Serif" font-size="10.00">display_clear</text>
</a>
</g>
<!-- Node1&#45;&gt;Node2 -->
<g id="edge2" class="edge"><title>Node1&#45;&gt;Node2</title>
<path fill="none" stroke="midnightblue" d="M73.5252,-152.59C91.0188,-160.612 116.921,-172.134 140,-181 145.489,-183.109 151.325,-185.21 157.089,-187.205"/>
<polygon fill="midnightblue" stroke="midnightblue" points="156.052,-190.549 166.646,-190.445 158.299,-183.92 156.052,-190.549"/>
</g>
<!-- Node3 -->
<g id="node5" class="node"><title>Node3</title>
<a xlink:href="../../db/d85/display_8c.xhtml#a6f2d5cdda31a73b43a569cb3d1a64165" target="_top" xlink:title="Displays several consecutive characters.">
<polygon fill="white" stroke="black" points="295.5,-209.5 295.5,-228.5 372.5,-228.5 372.5,-209.5 295.5,-209.5"/>
<text text-anchor="middle" x="334" y="-216.5" font-family="Helvetica,sans-Serif" font-size="10.00">display_chars</text>
</a>
</g>
<!-- Node1&#45;&gt;Node3 -->
<g id="edge28" class="edge"><title>Node1&#45;&gt;Node3</title>
<path fill="none" stroke="midnightblue" d="M60.0418,-152.608C73.3587,-169.86 104.136,-205.541 140,-219 187.04,-236.653 245.189,-233.626 285.295,-228.089"/>
<polygon fill="midnightblue" stroke="midnightblue" points="285.961,-231.528 295.339,-226.597 284.933,-224.604 285.961,-231.528"/>
</g>
<!-- Node4 -->
<g id="node7" class="node"><title>Node4</title>
<a xlink:href="../../db/d85/display_8c.xhtml#a3ae30196af91197037d50cb49de1d109" target="_top" xlink:title="Displays a single character.">
<polygon fill="white" stroke="black" points="412.5,-209.5 412.5,-228.5 483.5,-228.5 483.5,-209.5 412.5,-209.5"/>
<text text-anchor="middle" x="448" y="-216.5" font-family="Helvetica,sans-Serif" font-size="10.00">display_char</text>
</a>
</g>
<!-- Node1&#45;&gt;Node4 -->
<g id="edge20" class="edge"><title>Node1&#45;&gt;Node4</title>
<path fill="none" stroke="midnightblue" d="M58.1041,-152.771C69.5076,-173.394 99.286,-220.951 140,-239 230.701,-279.208 351.411,-250.536 410.827,-231.774"/>
<polygon fill="midnightblue" stroke="midnightblue" points="412.075,-235.048 420.506,-228.632 409.914,-228.39 412.075,-235.048"/>
</g>
<!-- Node7 -->
<g id="node13" class="node"><title>Node7</title>
<a xlink:href="../../db/d85/display_8c.xhtml#af604e78dcc4e0f1a204b2180c5e54957" target="_top" xlink:title="Displays a symbol.">
<polygon fill="white" stroke="black" points="292,-152.5 292,-171.5 376,-171.5 376,-152.5 292,-152.5"/>
<text text-anchor="middle" x="334" y="-159.5" font-family="Helvetica,sans-Serif" font-size="10.00">display_symbol</text>
</a>
</g>
<!-- Node1&#45;&gt;Node7 -->
<g id="edge26" class="edge"><title>Node1&#45;&gt;Node7</title>
<path fill="none" stroke="midnightblue" d="M104.096,-139.6C145.271,-137.677 204.571,-136.749 256,-143 267.84,-144.439 280.484,-147.08 292.032,-149.944"/>
<polygon fill="midnightblue" stroke="midnightblue" points="291.291,-153.368 301.85,-152.494 293.051,-146.593 291.291,-153.368"/>
</g>
<!-- Node8 -->
<g id="node16" class="node"><title>Node8</title>
<a xlink:href="../../db/d97/modules_2temperature_8c.xhtml#a93405e6d64c48ecb74bc8e94876cf5f2" target="_top" xlink:title="Display the current unit symbol &amp; +/&#45; value indicator.">
<polygon fill="white" stroke="black" points="140,-152.5 140,-171.5 256,-171.5 256,-152.5 140,-152.5"/>
<text text-anchor="middle" x="198" y="-159.5" font-family="Helvetica,sans-Serif" font-size="10.00">display_temp_symbols</text>
</a>
</g>
<!-- Node1&#45;&gt;Node8 -->
<g id="edge16" class="edge"><title>Node1&#45;&gt;Node8</title>
<path fill="none" stroke="midnightblue" d="M104.174,-149.752C112.425,-150.841 121.075,-151.982 129.637,-153.112"/>
<polygon fill="midnightblue" stroke="midnightblue" points="129.247,-156.591 139.619,-154.429 130.162,-149.651 129.247,-156.591"/>
</g>
<!-- Node9 -->
<g id="node20" class="node"><title>Node9</title>
<a xlink:href="../../d8/dd8/drivers_2temperature_8c.xhtml#a4792bfaf5c3fa2bee84e6dfaac5ab4d2" target="_top" xlink:title="temperature_get_C">
<polygon fill="white" stroke="black" points="148,-76.5 148,-95.5 248,-95.5 248,-76.5 148,-76.5"/>
<text text-anchor="middle" x="198" y="-83.5" font-family="Helvetica,sans-Serif" font-size="10.00">temperature_get_C</text>
</a>
</g>
<!-- Node1&#45;&gt;Node9 -->
<g id="edge22" class="edge"><title>Node1&#45;&gt;Node9</title>
<path fill="none" stroke="midnightblue" d="M77.1024,-133.459C100.673,-124.13 136.777,-109.838 163.209,-99.3758"/>
<polygon fill="midnightblue" stroke="midnightblue" points="164.809,-102.507 172.819,-95.5716 162.233,-95.9979 164.809,-102.507"/>
</g>
<!-- Node10 -->
<g id="node22" class="node"><title>Node10</title>
<a xlink:href="../../d8/dd8/drivers_2temperature_8c.xhtml#a02bc88773acbaadf1784ae3352b66fb5" target="_top" xlink:title="temperature_get_F">
<polygon fill="white" stroke="black" points="149,-38.5 149,-57.5 247,-57.5 247,-38.5 149,-38.5"/>
<text text-anchor="middle" x="198" y="-45.5" font-family="Helvetica,sans-Serif" font-size="10.00">temperature_get_F</text>
</a>
</g>
<!-- Node1&#45;&gt;Node10 -->
<g id="edge24" class="edge"><title>Node1&#45;&gt;Node10</title>
<path fill="none" stroke="midnightblue" d="M61.4601,-133.473C76.0322,-117.596 107.451,-85.6312 140,-67 143.666,-64.9013 147.599,-62.9911 151.623,-61.2623"/>
<polygon fill="midnightblue" stroke="midnightblue" points="153.057,-64.4597 161.092,-57.5543 150.504,-57.9416 153.057,-64.4597"/>
</g>
<!-- Node11 -->
<g id="node26" class="node"><title>Node11</title>
<a xlink:href="../../db/d85/display_8c.xhtml#a9047d98cd15ffbc79e15c63fca36d70b" target="_top" xlink:title="pseudo sprintf function">
<polygon fill="white" stroke="black" points="173.5,-0.5 173.5,-19.5 222.5,-19.5 222.5,-0.5 173.5,-0.5"/>
<text text-anchor="middle" x="198" y="-7.5" font-family="Helvetica,sans-Serif" font-size="10.00">_sprintf</text>
</a>
</g>
<!-- Node1&#45;&gt;Node11 -->
<g id="edge30" class="edge"><title>Node1&#45;&gt;Node11</title>
<path fill="none" stroke="midnightblue" d="M57.8516,-133.177C69.1737,-111.244 99.484,-57.9455 140,-29 147,-23.9993 155.405,-20.2488 163.583,-17.4618"/>
<polygon fill="midnightblue" stroke="midnightblue" points="164.774,-20.7587 173.338,-14.5211 162.753,-14.0567 164.774,-20.7587"/>
</g>
<!-- Node2&#45;&gt;Node3 -->
<g id="edge4" class="edge"><title>Node2&#45;&gt;Node3</title>
<path fill="none" stroke="midnightblue" d="M235.262,-205.142C250.667,-207.326 268.84,-209.903 285.311,-212.238"/>
<polygon fill="midnightblue" stroke="midnightblue" points="284.913,-215.717 295.306,-213.655 285.896,-208.786 284.913,-215.717"/>
</g>
<!-- Node2&#45;&gt;Node7 -->
<g id="edge12" class="edge"><title>Node2&#45;&gt;Node7</title>
<path fill="none" stroke="midnightblue" d="M232.814,-190.411C250.033,-185.528 271.164,-179.536 289.573,-174.315"/>
<polygon fill="midnightblue" stroke="midnightblue" points="290.531,-177.681 299.197,-171.586 288.621,-170.947 290.531,-177.681"/>
</g>
<!-- Node3&#45;&gt;Node4 -->
<g id="edge6" class="edge"><title>Node3&#45;&gt;Node4</title>
<path fill="none" stroke="midnightblue" d="M372.606,-219C382.133,-219 392.46,-219 402.301,-219"/>
<polygon fill="midnightblue" stroke="midnightblue" points="402.326,-222.5 412.326,-219 402.326,-215.5 402.326,-222.5"/>
</g>
<!-- Node5 -->
<g id="node9" class="node"><title>Node5</title>
<a xlink:href="../../db/d85/display_8c.xhtml#a9275035317878022cf9eacf6b0a5be72" target="_top" xlink:title="Display a custom collection of segments.">
<polygon fill="white" stroke="black" points="520,-209.5 520,-228.5 588,-228.5 588,-209.5 520,-209.5"/>
<text text-anchor="middle" x="554" y="-216.5" font-family="Helvetica,sans-Serif" font-size="10.00">display_bits</text>
</a>
</g>
<!-- Node4&#45;&gt;Node5 -->
<g id="edge8" class="edge"><title>Node4&#45;&gt;Node5</title>
<path fill="none" stroke="midnightblue" d="M483.63,-219C492.04,-219 501.133,-219 509.882,-219"/>
<polygon fill="midnightblue" stroke="midnightblue" points="509.931,-222.5 519.931,-219 509.931,-215.5 509.931,-222.5"/>
</g>
<!-- Node6 -->
<g id="node11" class="node"><title>Node6</title>
<a xlink:href="../../db/d85/display_8c.xhtml#a710739913e8ea1b71dd433b8311211fd" target="_top" xlink:title="write_lcd_mem">
<polygon fill="white" stroke="black" points="624.5,-190.5 624.5,-209.5 707.5,-209.5 707.5,-190.5 624.5,-190.5"/>
<text text-anchor="middle" x="666" y="-197.5" font-family="Helvetica,sans-Serif" font-size="10.00">write_lcd_mem</text>
</a>
</g>
<!-- Node5&#45;&gt;Node6 -->
<g id="edge10" class="edge"><title>Node5&#45;&gt;Node6</title>
<path fill="none" stroke="midnightblue" d="M588.004,-213.299C596.28,-211.87 605.352,-210.303 614.273,-208.762"/>
<polygon fill="midnightblue" stroke="midnightblue" points="614.972,-212.193 624.231,-207.042 613.781,-205.295 614.972,-212.193"/>
</g>
<!-- Node7&#45;&gt;Node6 -->
<g id="edge14" class="edge"><title>Node7&#45;&gt;Node6</title>
<path fill="none" stroke="midnightblue" d="M376.127,-166.736C436.481,-173.686 548.942,-186.636 614.318,-194.164"/>
<polygon fill="midnightblue" stroke="midnightblue" points="614.056,-197.657 624.391,-195.324 614.857,-190.703 614.056,-197.657"/>
</g>
<!-- Node8&#45;&gt;Node7 -->
<g id="edge18" class="edge"><title>Node8&#45;&gt;Node7</title>
<path fill="none" stroke="midnightblue" d="M256.217,-162C264.619,-162 273.232,-162 281.51,-162"/>
<polygon fill="midnightblue" stroke="midnightblue" points="281.776,-165.5 291.776,-162 281.776,-158.5 281.776,-165.5"/>
</g>
</g>
</svg>
