<?xml version="1.0" encoding="UTF-8" standalone="no"?>
<!DOCTYPE svg PUBLIC "-//W3C//DTD SVG 1.1//EN"
 "http://www.w3.org/Graphics/SVG/1.1/DTD/svg11.dtd">
<!-- Generated by graphviz version 2.28.0 (20121221.0049)
 -->
<!-- Title: mod_altitude_init Pages: 1 -->
<svg width="1068pt" height="526pt"
 viewBox="0.00 0.00 1068.00 525.55" xmlns="http://www.w3.org/2000/svg" xmlns:xlink="http://www.w3.org/1999/xlink">
<g id="graph1" class="graph" transform="scale(1 1) rotate(0) translate(4 521.55)">
<title>mod_altitude_init</title>
<polygon fill="white" stroke="white" points="-4,5 -4,-521.55 1065,-521.55 1065,5 -4,5"/>
<!-- Node1 -->
<g id="node1" class="node"><title>Node1</title>
<polygon fill="#bfbfbf" stroke="black" points="0,-313.5 0,-332.5 90,-332.5 90,-313.5 0,-313.5"/>
<text text-anchor="middle" x="45" y="-320.5" font-family="Helvetica,sans-Serif" font-size="10.00">mod_altitude_init</text>
</g>
<!-- Node2 -->
<g id="node3" class="node"><title>Node2</title>
<a xlink:href="../../d2/df2/openchronos_8c.xhtml#a71490cfda7ca71ac20d681a8a7a994e1" target="_top" xlink:title="Adds an entry to the main menu.">
<polygon fill="white" stroke="black" points="130.5,-418.5 130.5,-437.5 219.5,-437.5 219.5,-418.5 130.5,-418.5"/>
<text text-anchor="middle" x="175" y="-425.5" font-family="Helvetica,sans-Serif" font-size="10.00">menu_add_entry</text>
</a>
</g>
<!-- Node1&#45;&gt;Node2 -->
<g id="edge2" class="edge"><title>Node1&#45;&gt;Node2</title>
<path fill="none" stroke="midnightblue" d="M52.633,-332.569C65.135,-349.973 93.8375,-387.033 126,-409 128.701,-410.845 131.608,-412.55 134.607,-414.118"/>
<polygon fill="midnightblue" stroke="midnightblue" points="133.225,-417.336 143.766,-418.411 136.196,-410.997 133.225,-417.336"/>
</g>
<!-- Node3 -->
<g id="node5" class="node"><title>Node3</title>
<a xlink:href="../../dd/d09/altitude_8c.xhtml#a1c5780aafb0e259eb34bb95dcb952d2b" target="_top" xlink:title="altitude_edit">
<polygon fill="white" stroke="black" points="140.5,-380.5 140.5,-399.5 209.5,-399.5 209.5,-380.5 140.5,-380.5"/>
<text text-anchor="middle" x="175" y="-387.5" font-family="Helvetica,sans-Serif" font-size="10.00">altitude_edit</text>
</a>
</g>
<!-- Node1&#45;&gt;Node3 -->
<g id="edge4" class="edge"><title>Node1&#45;&gt;Node3</title>
<path fill="none" stroke="midnightblue" d="M64.3393,-332.599C85.9156,-343.893 121.939,-362.749 146.777,-375.75"/>
<polygon fill="midnightblue" stroke="midnightblue" points="145.212,-378.882 155.695,-380.418 148.458,-372.68 145.212,-378.882"/>
</g>
<!-- Node21 -->
<g id="node46" class="node"><title>Node21</title>
<a xlink:href="../../dd/d09/altitude_8c.xhtml#a30b0576ebe54127f33390423c407fa39" target="_top" xlink:title="altitude_activate">
<polygon fill="white" stroke="black" points="131,-247.5 131,-266.5 219,-266.5 219,-247.5 131,-247.5"/>
<text text-anchor="middle" x="175" y="-254.5" font-family="Helvetica,sans-Serif" font-size="10.00">altitude_activate</text>
</a>
</g>
<!-- Node1&#45;&gt;Node21 -->
<g id="edge50" class="edge"><title>Node1&#45;&gt;Node21</title>
<path fill="none" stroke="midnightblue" d="M64.6123,-313.403C86.1311,-302.307 121.754,-283.939 146.476,-271.192"/>
<polygon fill="midnightblue" stroke="midnightblue" points="148.081,-274.302 155.365,-266.609 144.873,-268.081 148.081,-274.302"/>
</g>
<!-- Node36 -->
<g id="node84" class="node"><title>Node36</title>
<a xlink:href="../../dd/d09/altitude_8c.xhtml#ad4494c76933076bcec7c92ebb0e48149" target="_top" xlink:title="altitude_deactivate">
<polygon fill="white" stroke="black" points="126,-95.5 126,-114.5 224,-114.5 224,-95.5 126,-95.5"/>
<text text-anchor="middle" x="175" y="-102.5" font-family="Helvetica,sans-Serif" font-size="10.00">altitude_deactivate</text>
</a>
</g>
<!-- Node1&#45;&gt;Node36 -->
<g id="edge96" class="edge"><title>Node1&#45;&gt;Node36</title>
<path fill="none" stroke="midnightblue" d="M51.6652,-313.352C71.3667,-279.797 137.111,-167.827 163.199,-123.396"/>
<polygon fill="midnightblue" stroke="midnightblue" points="166.355,-124.933 168.4,-114.537 160.319,-121.388 166.355,-124.933"/>
</g>
<!-- Node4 -->
<g id="node7" class="node"><title>Node4</title>
<a xlink:href="../../db/d85/display_8c.xhtml#a0e030727a1bc4d1418bb96cc71350203" target="_top" xlink:title="Activates a virtual screen.">
<polygon fill="white" stroke="black" points="443,-494.5 443,-513.5 547,-513.5 547,-494.5 443,-494.5"/>
<text text-anchor="middle" x="495" y="-501.5" font-family="Helvetica,sans-Serif" font-size="10.00">lcd_screen_activate</text>
</a>
</g>
<!-- Node3&#45;&gt;Node4 -->
<g id="edge6" class="edge"><title>Node3&#45;&gt;Node4</title>
<path fill="none" stroke="midnightblue" d="M209.93,-399.652C215.038,-402.128 219.944,-405.202 224,-409 251.279,-434.549 229.253,-463.751 260,-485 310.505,-519.903 382.585,-520.312 433.368,-514.734"/>
<polygon fill="midnightblue" stroke="midnightblue" points="434.038,-518.179 443.546,-513.506 433.199,-511.229 434.038,-518.179"/>
</g>
<!-- Node6 -->
<g id="node11" class="node"><title>Node6</title>
<a xlink:href="../../db/d85/display_8c.xhtml#a6f2d5cdda31a73b43a569cb3d1a64165" target="_top" xlink:title="Displays several consecutive characters.">
<polygon fill="white" stroke="black" points="607.5,-190.5 607.5,-209.5 684.5,-209.5 684.5,-190.5 607.5,-190.5"/>
<text text-anchor="middle" x="646" y="-197.5" font-family="Helvetica,sans-Serif" font-size="10.00">display_chars</text>
</a>
</g>
<!-- Node3&#45;&gt;Node6 -->
<g id="edge10" class="edge"><title>Node3&#45;&gt;Node6</title>
<path fill="none" stroke="midnightblue" d="M209.76,-384.26C254.675,-376.004 336.08,-358.866 402,-333 487.296,-299.531 580.223,-242.215 622.18,-215.084"/>
<polygon fill="midnightblue" stroke="midnightblue" points="624.1,-218.01 630.57,-209.62 620.28,-212.145 624.1,-218.01"/>
</g>
<!-- Node10 -->
<g id="node19" class="node"><title>Node10</title>
<a xlink:href="../../d2/df2/openchronos_8c.xhtml#afb7a89cc8739b9788a27e80d8b0d90e9" target="_top" xlink:title="Enters edit mode.">
<polygon fill="white" stroke="black" points="276,-418.5 276,-437.5 386,-437.5 386,-418.5 276,-418.5"/>
<text text-anchor="middle" x="331" y="-425.5" font-family="Helvetica,sans-Serif" font-size="10.00">menu_editmode_start</text>
</a>
</g>
<!-- Node3&#45;&gt;Node10 -->
<g id="edge18" class="edge"><title>Node3&#45;&gt;Node10</title>
<path fill="none" stroke="midnightblue" d="M209.796,-398.339C230.868,-403.539 258.324,-410.314 281.675,-416.076"/>
<polygon fill="midnightblue" stroke="midnightblue" points="280.853,-419.478 291.4,-418.475 282.53,-412.682 280.853,-419.478"/>
</g>
<!-- Node11 -->
<g id="node21" class="node"><title>Node11</title>
<a xlink:href="../../dd/d09/altitude_8c.xhtml#aaf27ce1b2e6b72fd545354a840702d12" target="_top" xlink:title="edit_save">
<polygon fill="white" stroke="black" points="301.5,-456.5 301.5,-475.5 360.5,-475.5 360.5,-456.5 301.5,-456.5"/>
<text text-anchor="middle" x="331" y="-463.5" font-family="Helvetica,sans-Serif" font-size="10.00">edit_save</text>
</a>
</g>
<!-- Node3&#45;&gt;Node11 -->
<g id="edge20" class="edge"><title>Node3&#45;&gt;Node11</title>
<path fill="none" stroke="midnightblue" d="M205.956,-399.521C212.178,-402.129 218.506,-405.284 224,-409 243.271,-422.033 240.031,-435.064 260,-447 269.502,-452.679 280.732,-456.698 291.383,-459.528"/>
<polygon fill="midnightblue" stroke="midnightblue" points="290.804,-462.988 301.342,-461.892 292.421,-456.177 290.804,-462.988"/>
</g>
<!-- Node5 -->
<g id="node9" class="node"><title>Node5</title>
<a xlink:href="../../d2/df2/openchronos_8c.xhtml#a72f5591868e0c66a539eacdcd0b520d7" target="_top" xlink:title="Increment/decrements value by one without exiting the [lower, upper] interval.">
<polygon fill="white" stroke="black" points="610.5,-494.5 610.5,-513.5 681.5,-513.5 681.5,-494.5 610.5,-494.5"/>
<text text-anchor="middle" x="646" y="-501.5" font-family="Helvetica,sans-Serif" font-size="10.00">helpers_loop</text>
</a>
</g>
<!-- Node4&#45;&gt;Node5 -->
<g id="edge8" class="edge"><title>Node4&#45;&gt;Node5</title>
<path fill="none" stroke="midnightblue" d="M547.277,-504C564.426,-504 583.4,-504 600.03,-504"/>
<polygon fill="midnightblue" stroke="midnightblue" points="600.046,-507.5 610.046,-504 600.045,-500.5 600.046,-507.5"/>
</g>
<!-- Node7 -->
<g id="node13" class="node"><title>Node7</title>
<a xlink:href="../../db/d85/display_8c.xhtml#a3ae30196af91197037d50cb49de1d109" target="_top" xlink:title="Displays a single character.">
<polygon fill="white" stroke="black" points="750.5,-68.5 750.5,-87.5 821.5,-87.5 821.5,-68.5 750.5,-68.5"/>
<text text-anchor="middle" x="786" y="-75.5" font-family="Helvetica,sans-Serif" font-size="10.00">display_char</text>
</a>
</g>
<!-- Node6&#45;&gt;Node7 -->
<g id="edge12" class="edge"><title>Node6&#45;&gt;Node7</title>
<path fill="none" stroke="midnightblue" d="M684.652,-191.876C691.578,-189.202 698.384,-185.667 704,-181 729.398,-159.893 719.039,-141.518 740,-116 746.673,-107.876 755.244,-100.149 763.113,-93.8092"/>
<polygon fill="midnightblue" stroke="midnightblue" points="765.477,-96.4051 771.252,-87.5221 761.198,-90.8654 765.477,-96.4051"/>
</g>
<!-- Node8 -->
<g id="node15" class="node"><title>Node8</title>
<a xlink:href="../../db/d85/display_8c.xhtml#a9275035317878022cf9eacf6b0a5be72" target="_top" xlink:title="Display a custom collection of segments.">
<polygon fill="white" stroke="black" points="870,-59.5 870,-78.5 938,-78.5 938,-59.5 870,-59.5"/>
<text text-anchor="middle" x="904" y="-66.5" font-family="Helvetica,sans-Serif" font-size="10.00">display_bits</text>
</a>
</g>
<!-- Node7&#45;&gt;Node8 -->
<g id="edge14" class="edge"><title>Node7&#45;&gt;Node8</title>
<path fill="none" stroke="midnightblue" d="M821.804,-75.2997C833.691,-74.3774 847.135,-73.3344 859.613,-72.3662"/>
<polygon fill="midnightblue" stroke="midnightblue" points="860.113,-75.838 869.812,-71.5749 859.572,-68.859 860.113,-75.838"/>
</g>
<!-- Node9 -->
<g id="node17" class="node"><title>Node9</title>
<a xlink:href="../../db/d85/display_8c.xhtml#a710739913e8ea1b71dd433b8311211fd" target="_top" xlink:title="write_lcd_mem">
<polygon fill="white" stroke="black" points="976.5,-31.5 976.5,-50.5 1059.5,-50.5 1059.5,-31.5 976.5,-31.5"/>
<text text-anchor="middle" x="1018" y="-38.5" font-family="Helvetica,sans-Serif" font-size="10.00">write_lcd_mem</text>
</a>
</g>
<!-- Node8&#45;&gt;Node9 -->
<g id="edge16" class="edge"><title>Node8&#45;&gt;Node9</title>
<path fill="none" stroke="midnightblue" d="M938.3,-60.6749C947.976,-58.2561 958.739,-55.5652 969.122,-52.9695"/>
<polygon fill="midnightblue" stroke="midnightblue" points="970.06,-56.3429 978.912,-50.522 968.362,-49.5519 970.06,-56.3429"/>
</g>
<!-- Node11&#45;&gt;Node4 -->
<g id="edge48" class="edge"><title>Node11&#45;&gt;Node4</title>
<path fill="none" stroke="midnightblue" d="M360.589,-472.706C383.484,-478.076 416.168,-485.743 443.455,-492.144"/>
<polygon fill="midnightblue" stroke="midnightblue" points="442.701,-495.562 453.236,-494.438 444.299,-488.747 442.701,-495.562"/>
</g>
<!-- Node11&#45;&gt;Node6 -->
<g id="edge46" class="edge"><title>Node11&#45;&gt;Node6</title>
<path fill="none" stroke="midnightblue" d="M360.576,-461.022C407.576,-451.32 501.054,-425.388 552,-366 583.028,-329.83 563.861,-306.089 588,-265 598.602,-246.953 614.568,-229.28 626.907,-216.928"/>
<polygon fill="midnightblue" stroke="midnightblue" points="629.679,-219.115 634.4,-209.63 624.794,-214.1 629.679,-219.115"/>
</g>
<!-- Node12 -->
<g id="node23" class="node"><title>Node12</title>
<a xlink:href="../../dd/d09/altitude_8c.xhtml#a6b117227c1c8f3009385a8382ee2fb25" target="_top" xlink:title="altitude_reconfigure">
<polygon fill="white" stroke="black" points="444.5,-456.5 444.5,-475.5 545.5,-475.5 545.5,-456.5 444.5,-456.5"/>
<text text-anchor="middle" x="495" y="-463.5" font-family="Helvetica,sans-Serif" font-size="10.00">altitude_reconfigure</text>
</a>
</g>
<!-- Node11&#45;&gt;Node12 -->
<g id="edge22" class="edge"><title>Node11&#45;&gt;Node12</title>
<path fill="none" stroke="midnightblue" d="M360.589,-466C380.947,-466 409.046,-466 434.207,-466"/>
<polygon fill="midnightblue" stroke="midnightblue" points="434.412,-469.5 444.412,-466 434.412,-462.5 434.412,-469.5"/>
</g>
<!-- Node13 -->
<g id="node25" class="node"><title>Node13</title>
<a xlink:href="../../d8/d28/vti__ps_8c.xhtml#a58b7096908222f24db9c85082d3e5f3d" target="_top" xlink:title="ps_stop">
<polygon fill="white" stroke="black" points="620.5,-274.5 620.5,-293.5 671.5,-293.5 671.5,-274.5 620.5,-274.5"/>
<text text-anchor="middle" x="646" y="-281.5" font-family="Helvetica,sans-Serif" font-size="10.00">ps_stop</text>
</a>
</g>
<!-- Node12&#45;&gt;Node13 -->
<g id="edge24" class="edge"><title>Node12&#45;&gt;Node13</title>
<path fill="none" stroke="midnightblue" d="M531.39,-456.455C539.048,-452.972 546.49,-448.282 552,-442 590.969,-397.573 550.83,-359.942 588,-314 594.095,-306.466 602.595,-300.596 611.173,-296.125"/>
<polygon fill="midnightblue" stroke="midnightblue" points="612.825,-299.216 620.402,-291.811 609.861,-292.875 612.825,-299.216"/>
</g>
<!-- Node19 -->
<g id="node38" class="node"><title>Node19</title>
<a xlink:href="../../d8/d28/vti__ps_8c.xhtml#a194b3e8854517fa03dc6318411d88ba8" target="_top" xlink:title="update_pressure_table">
<polygon fill="white" stroke="black" points="588.5,-456.5 588.5,-475.5 703.5,-475.5 703.5,-456.5 588.5,-456.5"/>
<text text-anchor="middle" x="646" y="-463.5" font-family="Helvetica,sans-Serif" font-size="10.00">update_pressure_table</text>
</a>
</g>
<!-- Node12&#45;&gt;Node19 -->
<g id="edge38" class="edge"><title>Node12&#45;&gt;Node19</title>
<path fill="none" stroke="midnightblue" d="M545.615,-466C556.115,-466 567.36,-466 578.373,-466"/>
<polygon fill="midnightblue" stroke="midnightblue" points="578.394,-469.5 588.394,-466 578.394,-462.5 578.394,-469.5"/>
</g>
<!-- Node20 -->
<g id="node40" class="node"><title>Node20</title>
<a xlink:href="../../d8/d28/vti__ps_8c.xhtml#a212b0d3875c0104d851e6792dc2d6037" target="_top" xlink:title="ps_start">
<polygon fill="white" stroke="black" points="620,-323.5 620,-342.5 672,-342.5 672,-323.5 620,-323.5"/>
<text text-anchor="middle" x="646" y="-330.5" font-family="Helvetica,sans-Serif" font-size="10.00">ps_start</text>
</a>
</g>
<!-- Node12&#45;&gt;Node20 -->
<g id="edge40" class="edge"><title>Node12&#45;&gt;Node20</title>
<path fill="none" stroke="midnightblue" d="M525.275,-456.413C534.316,-452.697 543.993,-447.895 552,-442 587.014,-416.219 617.571,-374.827 633.433,-351.162"/>
<polygon fill="midnightblue" stroke="midnightblue" points="636.391,-353.034 638.95,-342.753 630.538,-349.195 636.391,-353.034"/>
</g>
<!-- Node14 -->
<g id="node27" class="node"><title>Node14</title>
<a xlink:href="../../d8/d28/vti__ps_8c.xhtml#af2ab66da002d7051cd8e27b63bb04d06" target="_top" xlink:title="ps_write_register">
<polygon fill="white" stroke="black" points="740.5,-222.5 740.5,-241.5 831.5,-241.5 831.5,-222.5 740.5,-222.5"/>
<text text-anchor="middle" x="786" y="-229.5" font-family="Helvetica,sans-Serif" font-size="10.00">ps_write_register</text>
</a>
</g>
<!-- Node13&#45;&gt;Node14 -->
<g id="edge26" class="edge"><title>Node13&#45;&gt;Node14</title>
<path fill="none" stroke="midnightblue" d="M671.672,-274.703C693.476,-266.487 725.522,-254.412 749.978,-245.197"/>
<polygon fill="midnightblue" stroke="midnightblue" points="751.485,-248.369 759.608,-241.568 749.016,-241.819 751.485,-248.369"/>
</g>
<!-- Node18 -->
<g id="node36" class="node"><title>Node18</title>
<a xlink:href="../../df/d41/timer_8c.xhtml#adc3302861aee9d7f4a1c4c6d25d07343" target="_top" xlink:title="1ms &#45; 1s programmable delay">
<polygon fill="white" stroke="black" points="750,-288.5 750,-307.5 822,-307.5 822,-288.5 750,-288.5"/>
<text text-anchor="middle" x="786" y="-295.5" font-family="Helvetica,sans-Serif" font-size="10.00">timer0_delay</text>
</a>
</g>
<!-- Node13&#45;&gt;Node18 -->
<g id="edge36" class="edge"><title>Node13&#45;&gt;Node18</title>
<path fill="none" stroke="midnightblue" d="M671.672,-286.503C690.563,-288.419 717.143,-291.116 739.814,-293.416"/>
<polygon fill="midnightblue" stroke="midnightblue" points="739.611,-296.913 749.913,-294.44 740.318,-289.949 739.611,-296.913"/>
</g>
<!-- Node15 -->
<g id="node29" class="node"><title>Node15</title>
<a xlink:href="../../d8/d28/vti__ps_8c.xhtml#a5a111736e7d7fbbed73c189ed1d45b81" target="_top" xlink:title="ps_twi_sda">
<polygon fill="white" stroke="black" points="871,-201.5 871,-220.5 937,-220.5 937,-201.5 871,-201.5"/>
<text text-anchor="middle" x="904" y="-208.5" font-family="Helvetica,sans-Serif" font-size="10.00">ps_twi_sda</text>
</a>
</g>
<!-- Node14&#45;&gt;Node15 -->
<g id="edge28" class="edge"><title>Node14&#45;&gt;Node15</title>
<path fill="none" stroke="midnightblue" d="M831.517,-223.941C841.089,-222.208 851.179,-220.381 860.665,-218.664"/>
<polygon fill="midnightblue" stroke="midnightblue" points="861.452,-222.079 870.668,-216.853 860.205,-215.191 861.452,-222.079"/>
</g>
<!-- Node17 -->
<g id="node33" class="node"><title>Node17</title>
<a xlink:href="../../d8/d28/vti__ps_8c.xhtml#a49dfd78503815814186a48488c6a991f" target="_top" xlink:title="ps_twi_write">
<polygon fill="white" stroke="black" points="868.5,-163.5 868.5,-182.5 939.5,-182.5 939.5,-163.5 868.5,-163.5"/>
<text text-anchor="middle" x="904" y="-170.5" font-family="Helvetica,sans-Serif" font-size="10.00">ps_twi_write</text>
</a>
</g>
<!-- Node14&#45;&gt;Node17 -->
<g id="edge32" class="edge"><title>Node14&#45;&gt;Node17</title>
<path fill="none" stroke="midnightblue" d="M805.896,-222.389C824.686,-212.832 853.726,-198.062 875.156,-187.162"/>
<polygon fill="midnightblue" stroke="midnightblue" points="876.786,-190.26 884.113,-182.607 873.612,-184.02 876.786,-190.26"/>
</g>
<!-- Node16 -->
<g id="node31" class="node"><title>Node16</title>
<a xlink:href="../../d8/d28/vti__ps_8c.xhtml#aeec2d2e61bf0b7d2e9f09c4b4fac4490" target="_top" xlink:title="twi_delay">
<polygon fill="white" stroke="black" points="989,-163.5 989,-182.5 1047,-182.5 1047,-163.5 989,-163.5"/>
<text text-anchor="middle" x="1018" y="-170.5" font-family="Helvetica,sans-Serif" font-size="10.00">twi_delay</text>
</a>
</g>
<!-- Node15&#45;&gt;Node16 -->
<g id="edge30" class="edge"><title>Node15&#45;&gt;Node16</title>
<path fill="none" stroke="midnightblue" d="M933.262,-201.411C947.19,-196.686 964.18,-190.921 979.207,-185.823"/>
<polygon fill="midnightblue" stroke="midnightblue" points="980.401,-189.113 988.747,-182.586 978.152,-182.485 980.401,-189.113"/>
</g>
<!-- Node17&#45;&gt;Node16 -->
<g id="edge34" class="edge"><title>Node17&#45;&gt;Node16</title>
<path fill="none" stroke="midnightblue" d="M939.518,-173C951.87,-173 965.867,-173 978.532,-173"/>
<polygon fill="midnightblue" stroke="midnightblue" points="978.793,-176.5 988.793,-173 978.793,-169.5 978.793,-176.5"/>
</g>
<!-- Node20&#45;&gt;Node14 -->
<g id="edge42" class="edge"><title>Node20&#45;&gt;Node14</title>
<path fill="none" stroke="midnightblue" d="M667.99,-323.43C679.063,-318.02 692.664,-310.79 704,-303 727.886,-286.585 752.538,-264.023 768.275,-248.773"/>
<polygon fill="midnightblue" stroke="midnightblue" points="770.96,-251.041 775.64,-241.536 766.054,-246.048 770.96,-251.041"/>
</g>
<!-- Node20&#45;&gt;Node18 -->
<g id="edge44" class="edge"><title>Node20&#45;&gt;Node18</title>
<path fill="none" stroke="midnightblue" d="M672.311,-326.58C691.29,-321.767 717.76,-315.054 740.277,-309.343"/>
<polygon fill="midnightblue" stroke="midnightblue" points="741.143,-312.734 749.976,-306.883 739.422,-305.949 741.143,-312.734"/>
</g>
<!-- Node21&#45;&gt;Node6 -->
<g id="edge54" class="edge"><title>Node21&#45;&gt;Node6</title>
<path fill="none" stroke="midnightblue" d="M192.386,-247.342C208.85,-238.188 235.262,-224.977 260,-219 378.576,-190.35 523.489,-192.867 597.113,-196.692"/>
<polygon fill="midnightblue" stroke="midnightblue" points="597.269,-200.206 607.446,-197.263 597.654,-193.217 597.269,-200.206"/>
</g>
<!-- Node21&#45;&gt;Node20 -->
<g id="edge94" class="edge"><title>Node21&#45;&gt;Node20</title>
<path fill="none" stroke="midnightblue" d="M182.717,-266.599C195.441,-283.837 224.948,-319.497 260,-333 381.026,-379.624 539.772,-355.569 609.526,-341.194"/>
<polygon fill="midnightblue" stroke="midnightblue" points="610.492,-344.567 619.548,-339.067 609.039,-337.719 610.492,-344.567"/>
</g>
<!-- Node22 -->
<g id="node48" class="node"><title>Node22</title>
<a xlink:href="../../db/d85/display_8c.xhtml#a4c1000a508e4527145c75b4827d81dd8" target="_top" xlink:title="Creates virtual screens.">
<polygon fill="white" stroke="black" points="280.5,-304.5 280.5,-323.5 381.5,-323.5 381.5,-304.5 280.5,-304.5"/>
<text text-anchor="middle" x="331" y="-311.5" font-family="Helvetica,sans-Serif" font-size="10.00">lcd_screens_create</text>
</a>
</g>
<!-- Node21&#45;&gt;Node22 -->
<g id="edge52" class="edge"><title>Node21&#45;&gt;Node22</title>
<path fill="none" stroke="midnightblue" d="M194.99,-266.646C211.783,-274.919 237.104,-286.773 260,-295 266.529,-297.346 273.49,-299.562 280.394,-301.596"/>
<polygon fill="midnightblue" stroke="midnightblue" points="279.837,-305.076 290.413,-304.438 281.748,-298.342 279.837,-305.076"/>
</g>
<!-- Node23 -->
<g id="node51" class="node"><title>Node23</title>
<a xlink:href="../../dd/d09/altitude_8c.xhtml#a2b70e51410666081d87354770f15521e" target="_top" xlink:title="display_alt_symbols">
<polygon fill="white" stroke="black" points="278.5,-76.5 278.5,-95.5 383.5,-95.5 383.5,-76.5 278.5,-76.5"/>
<text text-anchor="middle" x="331" y="-83.5" font-family="Helvetica,sans-Serif" font-size="10.00">display_alt_symbols</text>
</a>
</g>
<!-- Node21&#45;&gt;Node23 -->
<g id="edge56" class="edge"><title>Node21&#45;&gt;Node23</title>
<path fill="none" stroke="midnightblue" d="M178.442,-247.445C185.812,-220.597 210.432,-143.908 260,-105 262.809,-102.795 265.855,-100.845 269.05,-99.1216"/>
<polygon fill="midnightblue" stroke="midnightblue" points="270.753,-102.191 278.38,-94.8371 267.832,-95.8297 270.753,-102.191"/>
</g>
<!-- Node25 -->
<g id="node56" class="node"><title>Node25</title>
<a xlink:href="../../d2/df2/openchronos_8c.xhtml#a5aeb07d7031b5d53ca8605bf398714a2" target="_top" xlink:title="Registers a node in the message bus.">
<polygon fill="white" stroke="black" points="265.5,-266.5 265.5,-285.5 396.5,-285.5 396.5,-266.5 265.5,-266.5"/>
<text text-anchor="middle" x="331" y="-273.5" font-family="Helvetica,sans-Serif" font-size="10.00">sys_messagebus_register</text>
</a>
</g>
<!-- Node21&#45;&gt;Node25 -->
<g id="edge62" class="edge"><title>Node21&#45;&gt;Node25</title>
<path fill="none" stroke="midnightblue" d="M219.307,-262.343C230.497,-263.724 242.87,-265.25 255.169,-266.768"/>
<polygon fill="midnightblue" stroke="midnightblue" points="255.101,-270.286 265.454,-268.037 255.958,-263.338 255.101,-270.286"/>
</g>
<!-- Node26 -->
<g id="node58" class="node"><title>Node26</title>
<a xlink:href="../../dd/d09/altitude_8c.xhtml#ae3db0e1669bd567ba9e53c0d97218039" target="_top" xlink:title="ps_event">
<polygon fill="white" stroke="black" points="303,-114.5 303,-133.5 359,-133.5 359,-114.5 303,-114.5"/>
<text text-anchor="middle" x="331" y="-121.5" font-family="Helvetica,sans-Serif" font-size="10.00">ps_event</text>
</a>
</g>
<!-- Node21&#45;&gt;Node26 -->
<g id="edge64" class="edge"><title>Node21&#45;&gt;Node26</title>
<path fill="none" stroke="midnightblue" d="M180.893,-247.317C192.039,-226.205 221.368,-175.711 260,-148 269.77,-140.992 281.751,-135.9 293.022,-132.261"/>
<polygon fill="midnightblue" stroke="midnightblue" points="294.063,-135.603 302.67,-129.424 292.089,-128.887 294.063,-135.603"/>
</g>
<!-- Node35 -->
<g id="node81" class="node"><title>Node35</title>
<a xlink:href="../../d8/d28/vti__ps_8c.xhtml#a50a7aa70325a8986593edcd295ca9c44" target="_top" xlink:title="init_pressure_table">
<polygon fill="white" stroke="black" points="282,-228.5 282,-247.5 380,-247.5 380,-228.5 282,-228.5"/>
<text text-anchor="middle" x="331" y="-235.5" font-family="Helvetica,sans-Serif" font-size="10.00">init_pressure_table</text>
</a>
</g>
<!-- Node21&#45;&gt;Node35 -->
<g id="edge92" class="edge"><title>Node21&#45;&gt;Node35</title>
<path fill="none" stroke="midnightblue" d="M219.307,-251.657C235.594,-249.647 254.386,-247.329 271.809,-245.179"/>
<polygon fill="midnightblue" stroke="midnightblue" points="272.384,-248.635 281.88,-243.937 271.526,-241.688 272.384,-248.635"/>
</g>
<!-- Node24 -->
<g id="node53" class="node"><title>Node24</title>
<a xlink:href="../../db/d85/display_8c.xhtml#af604e78dcc4e0f1a204b2180c5e54957" target="_top" xlink:title="Displays a symbol.">
<polygon fill="white" stroke="black" points="453,-0.5 453,-19.5 537,-19.5 537,-0.5 453,-0.5"/>
<text text-anchor="middle" x="495" y="-7.5" font-family="Helvetica,sans-Serif" font-size="10.00">display_symbol</text>
</a>
</g>
<!-- Node23&#45;&gt;Node24 -->
<g id="edge58" class="edge"><title>Node23&#45;&gt;Node24</title>
<path fill="none" stroke="midnightblue" d="M380.862,-76.4586C388.224,-73.9793 395.515,-70.8763 402,-67 421.969,-55.0642 418.411,-41.5495 438,-29 441.123,-26.9994 444.48,-25.185 447.942,-23.5442"/>
<polygon fill="midnightblue" stroke="midnightblue" points="449.421,-26.7189 457.265,-19.5975 446.692,-20.2727 449.421,-26.7189"/>
</g>
<!-- Node24&#45;&gt;Node9 -->
<g id="edge60" class="edge"><title>Node24&#45;&gt;Node9</title>
<path fill="none" stroke="midnightblue" d="M537.317,-12.4584C631.789,-18.0796 863.336,-31.8568 966.259,-37.9809"/>
<polygon fill="midnightblue" stroke="midnightblue" points="966.207,-41.4839 976.398,-38.5841 966.623,-34.4962 966.207,-41.4839"/>
</g>
<!-- Node27 -->
<g id="node60" class="node"><title>Node27</title>
<a xlink:href="../../dd/d09/altitude_8c.xhtml#a4884d6d29145a48a4bbf98acfb0a888f" target="_top" xlink:title="altitude_measurement">
<polygon fill="white" stroke="black" points="438.5,-38.5 438.5,-57.5 551.5,-57.5 551.5,-38.5 438.5,-38.5"/>
<text text-anchor="middle" x="495" y="-45.5" font-family="Helvetica,sans-Serif" font-size="10.00">altitude_measurement</text>
</a>
</g>
<!-- Node26&#45;&gt;Node27 -->
<g id="edge66" class="edge"><title>Node26&#45;&gt;Node27</title>
<path fill="none" stroke="midnightblue" d="M359.212,-118.551C372.434,-115.421 388.372,-110.921 402,-105 427.681,-93.8423 454.639,-76.3595 472.685,-63.6965"/>
<polygon fill="midnightblue" stroke="midnightblue" points="475.153,-66.2344 481.255,-57.573 471.084,-60.5388 475.153,-66.2344"/>
</g>
<!-- Node33 -->
<g id="node76" class="node"><title>Node33</title>
<a xlink:href="../../dd/d09/altitude_8c.xhtml#a50710235162aa8e09c6a46ccc2e69927" target="_top" xlink:title="display_altitude">
<polygon fill="white" stroke="black" points="453,-114.5 453,-133.5 537,-133.5 537,-114.5 453,-114.5"/>
<text text-anchor="middle" x="495" y="-121.5" font-family="Helvetica,sans-Serif" font-size="10.00">display_altitude</text>
</a>
</g>
<!-- Node26&#45;&gt;Node33 -->
<g id="edge86" class="edge"><title>Node26&#45;&gt;Node33</title>
<path fill="none" stroke="midnightblue" d="M359.115,-124C381.798,-124 414.799,-124 442.48,-124"/>
<polygon fill="midnightblue" stroke="midnightblue" points="442.797,-127.5 452.796,-124 442.796,-120.5 442.797,-127.5"/>
</g>
<!-- Node28 -->
<g id="node62" class="node"><title>Node28</title>
<a xlink:href="../../d8/d28/vti__ps_8c.xhtml#a9ede906177cc352bf1779ad77b31adfd" target="_top" xlink:title="ps_get_temp">
<polygon fill="white" stroke="black" points="609.5,-114.5 609.5,-133.5 682.5,-133.5 682.5,-114.5 609.5,-114.5"/>
<text text-anchor="middle" x="646" y="-121.5" font-family="Helvetica,sans-Serif" font-size="10.00">ps_get_temp</text>
</a>
</g>
<!-- Node27&#45;&gt;Node28 -->
<g id="edge68" class="edge"><title>Node27&#45;&gt;Node28</title>
<path fill="none" stroke="midnightblue" d="M523.427,-57.5983C532.835,-61.4427 543.203,-66.319 552,-72 570.233,-83.7752 569.293,-93.9927 588,-105 591.692,-107.172 595.666,-109.136 599.736,-110.903"/>
<polygon fill="midnightblue" stroke="midnightblue" points="598.735,-114.271 609.322,-114.674 601.297,-107.756 598.735,-114.271"/>
</g>
<!-- Node31 -->
<g id="node71" class="node"><title>Node31</title>
<a xlink:href="../../d8/d28/vti__ps_8c.xhtml#a8a91cc2854b65a63e9b3882823847b7e" target="_top" xlink:title="ps_get_pa">
<polygon fill="white" stroke="black" points="615,-76.5 615,-95.5 677,-95.5 677,-76.5 615,-76.5"/>
<text text-anchor="middle" x="646" y="-83.5" font-family="Helvetica,sans-Serif" font-size="10.00">ps_get_pa</text>
</a>
</g>
<!-- Node27&#45;&gt;Node31 -->
<g id="edge80" class="edge"><title>Node27&#45;&gt;Node31</title>
<path fill="none" stroke="midnightblue" d="M533.599,-57.589C555.429,-63.1564 582.915,-70.1662 605.122,-75.8298"/>
<polygon fill="midnightblue" stroke="midnightblue" points="604.36,-79.2474 614.915,-78.3273 606.09,-72.4645 604.36,-79.2474"/>
</g>
<!-- Node32 -->
<g id="node74" class="node"><title>Node32</title>
<a xlink:href="../../d8/d28/vti__ps_8c.xhtml#aa425045d1d3dd394df256d4b0087bc24" target="_top" xlink:title="conv_pa_to_meter">
<polygon fill="white" stroke="black" points="597.5,-38.5 597.5,-57.5 694.5,-57.5 694.5,-38.5 597.5,-38.5"/>
<text text-anchor="middle" x="646" y="-45.5" font-family="Helvetica,sans-Serif" font-size="10.00">conv_pa_to_meter</text>
</a>
</g>
<!-- Node27&#45;&gt;Node32 -->
<g id="edge84" class="edge"><title>Node27&#45;&gt;Node32</title>
<path fill="none" stroke="midnightblue" d="M551.906,-48C563.286,-48 575.285,-48 586.744,-48"/>
<polygon fill="midnightblue" stroke="midnightblue" points="587.083,-51.5001 597.083,-48 587.083,-44.5001 587.083,-51.5001"/>
</g>
<!-- Node29 -->
<g id="node64" class="node"><title>Node29</title>
<a xlink:href="../../d8/d28/vti__ps_8c.xhtml#aa8c959c733fb193f7db8c74889fc8f01" target="_top" xlink:title="ps_read_register">
<polygon fill="white" stroke="black" points="741.5,-125.5 741.5,-144.5 830.5,-144.5 830.5,-125.5 741.5,-125.5"/>
<text text-anchor="middle" x="786" y="-132.5" font-family="Helvetica,sans-Serif" font-size="10.00">ps_read_register</text>
</a>
</g>
<!-- Node28&#45;&gt;Node29 -->
<g id="edge70" class="edge"><title>Node28&#45;&gt;Node29</title>
<path fill="none" stroke="midnightblue" d="M682.538,-126.833C697.419,-128.019 715.038,-129.423 731.433,-130.73"/>
<polygon fill="midnightblue" stroke="midnightblue" points="731.2,-134.223 741.447,-131.528 731.757,-127.245 731.2,-134.223"/>
</g>
<!-- Node29&#45;&gt;Node15 -->
<g id="edge72" class="edge"><title>Node29&#45;&gt;Node15</title>
<path fill="none" stroke="midnightblue" d="M799.596,-144.552C815.267,-156.274 843.014,-176.499 868,-192 870.343,-193.453 872.805,-194.915 875.292,-196.347"/>
<polygon fill="midnightblue" stroke="midnightblue" points="873.805,-199.525 884.244,-201.336 877.213,-193.41 873.805,-199.525"/>
</g>
<!-- Node29&#45;&gt;Node17 -->
<g id="edge74" class="edge"><title>Node29&#45;&gt;Node17</title>
<path fill="none" stroke="midnightblue" d="M816.272,-144.589C830.697,-149.314 848.293,-155.079 863.857,-160.177"/>
<polygon fill="midnightblue" stroke="midnightblue" points="863.145,-163.627 873.738,-163.414 865.324,-156.975 863.145,-163.627"/>
</g>
<!-- Node30 -->
<g id="node68" class="node"><title>Node30</title>
<a xlink:href="../../d8/d28/vti__ps_8c.xhtml#acbe3495716ae246bf71d2419dfabed72" target="_top" xlink:title="ps_twi_read">
<polygon fill="white" stroke="black" points="869.5,-125.5 869.5,-144.5 938.5,-144.5 938.5,-125.5 869.5,-125.5"/>
<text text-anchor="middle" x="904" y="-132.5" font-family="Helvetica,sans-Serif" font-size="10.00">ps_twi_read</text>
</a>
</g>
<!-- Node29&#45;&gt;Node30 -->
<g id="edge76" class="edge"><title>Node29&#45;&gt;Node30</title>
<path fill="none" stroke="midnightblue" d="M830.524,-135C839.866,-135 849.743,-135 859.099,-135"/>
<polygon fill="midnightblue" stroke="midnightblue" points="859.385,-138.5 869.385,-135 859.385,-131.5 859.385,-138.5"/>
</g>
<!-- Node30&#45;&gt;Node16 -->
<g id="edge78" class="edge"><title>Node30&#45;&gt;Node16</title>
<path fill="none" stroke="midnightblue" d="M933.262,-144.589C947.19,-149.314 964.18,-155.079 979.207,-160.177"/>
<polygon fill="midnightblue" stroke="midnightblue" points="978.152,-163.515 988.747,-163.414 980.401,-156.887 978.152,-163.515"/>
</g>
<!-- Node31&#45;&gt;Node29 -->
<g id="edge82" class="edge"><title>Node31&#45;&gt;Node29</title>
<path fill="none" stroke="midnightblue" d="M676.354,-95.5791C685.255,-98.539 695.045,-101.85 704,-105 719.287,-110.377 736.101,-116.56 750.429,-121.911"/>
<polygon fill="midnightblue" stroke="midnightblue" points="749.31,-125.229 759.902,-125.462 751.767,-118.674 749.31,-125.229"/>
</g>
<!-- Node33&#45;&gt;Node6 -->
<g id="edge88" class="edge"><title>Node33&#45;&gt;Node6</title>
<path fill="none" stroke="midnightblue" d="M523.427,-133.598C532.835,-137.443 543.203,-142.319 552,-148 570.233,-159.775 569.293,-169.993 588,-181 591.59,-183.113 595.448,-185.029 599.402,-186.758"/>
<polygon fill="midnightblue" stroke="midnightblue" points="598.136,-190.021 608.722,-190.458 600.719,-183.515 598.136,-190.021"/>
</g>
<!-- Node34 -->
<g id="node79" class="node"><title>Node34</title>
<a xlink:href="../../db/d85/display_8c.xhtml#a9047d98cd15ffbc79e15c63fca36d70b" target="_top" xlink:title="pseudo sprintf function">
<polygon fill="white" stroke="black" points="621.5,-152.5 621.5,-171.5 670.5,-171.5 670.5,-152.5 621.5,-152.5"/>
<text text-anchor="middle" x="646" y="-159.5" font-family="Helvetica,sans-Serif" font-size="10.00">_sprintf</text>
</a>
</g>
<!-- Node33&#45;&gt;Node34 -->
<g id="edge90" class="edge"><title>Node33&#45;&gt;Node34</title>
<path fill="none" stroke="midnightblue" d="M533.599,-133.589C557.63,-139.718 588.515,-147.594 611.667,-153.499"/>
<polygon fill="midnightblue" stroke="midnightblue" points="610.836,-156.899 621.391,-155.979 612.566,-150.116 610.836,-156.899"/>
</g>
<!-- Node36&#45;&gt;Node13 -->
<g id="edge102" class="edge"><title>Node36&#45;&gt;Node13</title>
<path fill="none" stroke="midnightblue" d="M196.186,-114.638C213.089,-122.585 237.923,-133.978 260,-143 387.856,-195.25 543.078,-249.298 610.726,-272.401"/>
<polygon fill="midnightblue" stroke="midnightblue" points="609.842,-275.797 620.437,-275.71 612.1,-269.171 609.842,-275.797"/>
</g>
<!-- Node36&#45;&gt;Node23 -->
<g id="edge110" class="edge"><title>Node36&#45;&gt;Node23</title>
<path fill="none" stroke="midnightblue" d="M224.304,-99.0404C238.28,-97.3161 253.727,-95.4103 268.397,-93.6003"/>
<polygon fill="midnightblue" stroke="midnightblue" points="268.905,-97.0643 278.402,-92.366 268.048,-90.117 268.905,-97.0643"/>
</g>
<!-- Node36&#45;&gt;Node26 -->
<g id="edge100" class="edge"><title>Node36&#45;&gt;Node26</title>
<path fill="none" stroke="midnightblue" d="M224.304,-110.96C246.489,-113.697 272.383,-116.891 292.989,-119.434"/>
<polygon fill="midnightblue" stroke="midnightblue" points="292.584,-122.91 302.937,-120.661 293.441,-115.963 292.584,-122.91"/>
</g>
<!-- Node37 -->
<g id="node86" class="node"><title>Node37</title>
<a xlink:href="../../d2/df2/openchronos_8c.xhtml#a60705ce0564ce52c1977a32cee3215c2" target="_top" xlink:title="Unregisters a node from the message bus.">
<polygon fill="white" stroke="black" points="260.5,-38.5 260.5,-57.5 401.5,-57.5 401.5,-38.5 260.5,-38.5"/>
<text text-anchor="middle" x="331" y="-45.5" font-family="Helvetica,sans-Serif" font-size="10.00">sys_messagebus_unregister</text>
</a>
</g>
<!-- Node36&#45;&gt;Node37 -->
<g id="edge98" class="edge"><title>Node36&#45;&gt;Node37</title>
<path fill="none" stroke="midnightblue" d="M194.99,-95.3543C211.783,-87.0807 237.104,-75.2267 260,-67 266.529,-64.6541 273.49,-62.4379 280.394,-60.4043"/>
<polygon fill="midnightblue" stroke="midnightblue" points="281.748,-63.6584 290.413,-57.5616 279.837,-56.9243 281.748,-63.6584"/>
</g>
<!-- Node38 -->
<g id="node90" class="node"><title>Node38</title>
<a xlink:href="../../db/d85/display_8c.xhtml#aa150336a018e90f37fd0285047b541f6" target="_top" xlink:title="Clears the screen.">
<polygon fill="white" stroke="black" points="294,-0.5 294,-19.5 368,-19.5 368,-0.5 294,-0.5"/>
<text text-anchor="middle" x="331" y="-7.5" font-family="Helvetica,sans-Serif" font-size="10.00">display_clear</text>
</a>
</g>
<!-- Node36&#45;&gt;Node38 -->
<g id="edge104" class="edge"><title>Node36&#45;&gt;Node38</title>
<path fill="none" stroke="midnightblue" d="M183.985,-95.257C197.783,-79.0611 227.73,-46.6392 260,-29 267.465,-24.9193 275.866,-21.6692 284.188,-19.0954"/>
<polygon fill="midnightblue" stroke="midnightblue" points="285.181,-22.4519 293.861,-16.3755 283.286,-15.7132 285.181,-22.4519"/>
</g>
<!-- Node38&#45;&gt;Node6 -->
<g id="edge106" class="edge"><title>Node38&#45;&gt;Node6</title>
<path fill="none" stroke="midnightblue" d="M368.051,-15.8098C379.444,-18.6637 391.732,-22.8625 402,-29 421.969,-40.9358 418.377,-54.5029 438,-67 483.048,-95.6891 512.028,-69.5802 552,-105 579.974,-129.788 560.026,-156.212 588,-181 591.031,-183.686 594.454,-185.994 598.081,-187.978"/>
<polygon fill="midnightblue" stroke="midnightblue" points="596.858,-191.268 607.406,-192.269 599.784,-184.909 596.858,-191.268"/>
</g>
<!-- Node38&#45;&gt;Node24 -->
<g id="edge108" class="edge"><title>Node38&#45;&gt;Node24</title>
<path fill="none" stroke="midnightblue" d="M368.356,-10C390.313,-10 418.636,-10 442.831,-10"/>
<polygon fill="midnightblue" stroke="midnightblue" points="442.917,-13.5001 452.917,-10 442.917,-6.5001 442.917,-13.5001"/>
</g>
</g>
</svg>
