<?xml version="1.0" encoding="UTF-8" standalone="no"?>
<!DOCTYPE svg PUBLIC "-//W3C//DTD SVG 1.1//EN"
 "http://www.w3.org/Graphics/SVG/1.1/DTD/svg11.dtd">
<!-- Generated by graphviz version 2.28.0 (20121221.0049)
 -->
<!-- Title: display_altitude Pages: 1 -->
<svg width="538pt" height="66pt"
 viewBox="0.00 0.00 538.00 66.00" xmlns="http://www.w3.org/2000/svg" xmlns:xlink="http://www.w3.org/1999/xlink">
<g id="graph1" class="graph" transform="scale(1 1) rotate(0) translate(4 62)">
<title>display_altitude</title>
<polygon fill="white" stroke="white" points="-4,5 -4,-62 535,-62 535,5 -4,5"/>
<!-- Node1 -->
<g id="node1" class="node"><title>Node1</title>
<polygon fill="#bfbfbf" stroke="black" points="0,-19.5 0,-38.5 84,-38.5 84,-19.5 0,-19.5"/>
<text text-anchor="middle" x="42" y="-26.5" font-family="Helvetica,sans-Serif" font-size="10.00">display_altitude</text>
</g>
<!-- Node2 -->
<g id="node3" class="node"><title>Node2</title>
<a xlink:href="../../db/d85/display_8c.xhtml#a6f2d5cdda31a73b43a569cb3d1a64165" target="_top" xlink:title="Displays several consecutive characters.">
<polygon fill="white" stroke="black" points="120.5,-38.5 120.5,-57.5 197.5,-57.5 197.5,-38.5 120.5,-38.5"/>
<text text-anchor="middle" x="159" y="-45.5" font-family="Helvetica,sans-Serif" font-size="10.00">display_chars</text>
</a>
</g>
<!-- Node1&#45;&gt;Node2 -->
<g id="edge2" class="edge"><title>Node1&#45;&gt;Node2</title>
<path fill="none" stroke="midnightblue" d="M84.1928,-35.8058C92.6236,-37.1987 101.564,-38.6758 110.204,-40.1033"/>
<polygon fill="midnightblue" stroke="midnightblue" points="109.722,-43.5711 120.159,-41.7481 110.864,-36.6647 109.722,-43.5711"/>
</g>
<!-- Node6 -->
<g id="node11" class="node"><title>Node6</title>
<a xlink:href="../../db/d85/display_8c.xhtml#a9047d98cd15ffbc79e15c63fca36d70b" target="_top" xlink:title="pseudo sprintf function">
<polygon fill="white" stroke="black" points="134.5,-0.5 134.5,-19.5 183.5,-19.5 183.5,-0.5 134.5,-0.5"/>
<text text-anchor="middle" x="159" y="-7.5" font-family="Helvetica,sans-Serif" font-size="10.00">_sprintf</text>
</a>
</g>
<!-- Node1&#45;&gt;Node6 -->
<g id="edge10" class="edge"><title>Node1&#45;&gt;Node6</title>
<path fill="none" stroke="midnightblue" d="M84.1928,-22.1942C97.3848,-20.0147 111.825,-17.6289 124.407,-15.5501"/>
<polygon fill="midnightblue" stroke="midnightblue" points="125.175,-18.9707 134.471,-13.8874 124.034,-12.0643 125.175,-18.9707"/>
</g>
<!-- Node3 -->
<g id="node5" class="node"><title>Node3</title>
<a xlink:href="../../db/d85/display_8c.xhtml#a3ae30196af91197037d50cb49de1d109" target="_top" xlink:title="Displays a single character.">
<polygon fill="white" stroke="black" points="234.5,-38.5 234.5,-57.5 305.5,-57.5 305.5,-38.5 234.5,-38.5"/>
<text text-anchor="middle" x="270" y="-45.5" font-family="Helvetica,sans-Serif" font-size="10.00">display_char</text>
</a>
</g>
<!-- Node2&#45;&gt;Node3 -->
<g id="edge4" class="edge"><title>Node2&#45;&gt;Node3</title>
<path fill="none" stroke="midnightblue" d="M197.512,-48C206.098,-48 215.31,-48 224.17,-48"/>
<polygon fill="midnightblue" stroke="midnightblue" points="224.35,-51.5001 234.35,-48 224.35,-44.5001 224.35,-51.5001"/>
</g>
<!-- Node4 -->
<g id="node7" class="node"><title>Node4</title>
<a xlink:href="../../db/d85/display_8c.xhtml#a9275035317878022cf9eacf6b0a5be72" target="_top" xlink:title="Display a custom collection of segments.">
<polygon fill="white" stroke="black" points="342,-38.5 342,-57.5 410,-57.5 410,-38.5 342,-38.5"/>
<text text-anchor="middle" x="376" y="-45.5" font-family="Helvetica,sans-Serif" font-size="10.00">display_bits</text>
</a>
</g>
<!-- Node3&#45;&gt;Node4 -->
<g id="edge6" class="edge"><title>Node3&#45;&gt;Node4</title>
<path fill="none" stroke="midnightblue" d="M305.63,-48C314.04,-48 323.133,-48 331.882,-48"/>
<polygon fill="midnightblue" stroke="midnightblue" points="331.931,-51.5001 341.931,-48 331.931,-44.5001 331.931,-51.5001"/>
</g>
<!-- Node5 -->
<g id="node9" class="node"><title>Node5</title>
<a xlink:href="../../db/d85/display_8c.xhtml#a710739913e8ea1b71dd433b8311211fd" target="_top" xlink:title="write_lcd_mem">
<polygon fill="white" stroke="black" points="446.5,-38.5 446.5,-57.5 529.5,-57.5 529.5,-38.5 446.5,-38.5"/>
<text text-anchor="middle" x="488" y="-45.5" font-family="Helvetica,sans-Serif" font-size="10.00">write_lcd_mem</text>
</a>
</g>
<!-- Node4&#45;&gt;Node5 -->
<g id="edge8" class="edge"><title>Node4&#45;&gt;Node5</title>
<path fill="none" stroke="midnightblue" d="M410.004,-48C418.191,-48 427.157,-48 435.985,-48"/>
<polygon fill="midnightblue" stroke="midnightblue" points="436.231,-51.5001 446.231,-48 436.231,-44.5001 436.231,-51.5001"/>
</g>
</g>
</svg>
