<?xml version="1.0" encoding="UTF-8" standalone="no"?>
<!DOCTYPE svg PUBLIC "-//W3C//DTD SVG 1.1//EN"
 "http://www.w3.org/Graphics/SVG/1.1/DTD/svg11.dtd">
<!-- Generated by graphviz version 2.28.0 (20121221.0049)
 -->
<!-- Title: altitude_activate Pages: 1 -->
<svg width="904pt" height="313pt"
 viewBox="0.00 0.00 904.00 313.00" xmlns="http://www.w3.org/2000/svg" xmlns:xlink="http://www.w3.org/1999/xlink">
<g id="graph1" class="graph" transform="scale(1 1) rotate(0) translate(4 309)">
<title>altitude_activate</title>
<polygon fill="white" stroke="white" points="-4,5 -4,-309 901,-309 901,5 -4,5"/>
<!-- Node1 -->
<g id="node1" class="node"><title>Node1</title>
<polygon fill="#bfbfbf" stroke="black" points="0,-152.5 0,-171.5 88,-171.5 88,-152.5 0,-152.5"/>
<text text-anchor="middle" x="44" y="-159.5" font-family="Helvetica,sans-Serif" font-size="10.00">altitude_activate</text>
</g>
<!-- Node2 -->
<g id="node3" class="node"><title>Node2</title>
<a xlink:href="../../db/d85/display_8c.xhtml#a4c1000a508e4527145c75b4827d81dd8" target="_top" xlink:title="Creates virtual screens.">
<polygon fill="white" stroke="black" points="139.5,-285.5 139.5,-304.5 240.5,-304.5 240.5,-285.5 139.5,-285.5"/>
<text text-anchor="middle" x="190" y="-292.5" font-family="Helvetica,sans-Serif" font-size="10.00">lcd_screens_create</text>
</a>
</g>
<!-- Node1&#45;&gt;Node2 -->
<g id="edge2" class="edge"><title>Node1&#45;&gt;Node2</title>
<path fill="none" stroke="midnightblue" d="M48.9358,-171.606C58.4285,-193.561 84.7381,-247.698 124,-276 126.67,-277.925 129.534,-279.656 132.517,-281.213"/>
<polygon fill="midnightblue" stroke="midnightblue" points="131.195,-284.456 141.75,-285.379 134.075,-278.076 131.195,-284.456"/>
</g>
<!-- Node3 -->
<g id="node5" class="node"><title>Node3</title>
<a xlink:href="../../db/d85/display_8c.xhtml#a6f2d5cdda31a73b43a569cb3d1a64165" target="_top" xlink:title="Displays several consecutive characters.">
<polygon fill="white" stroke="black" points="452.5,-209.5 452.5,-228.5 529.5,-228.5 529.5,-209.5 452.5,-209.5"/>
<text text-anchor="middle" x="491" y="-216.5" font-family="Helvetica,sans-Serif" font-size="10.00">display_chars</text>
</a>
</g>
<!-- Node1&#45;&gt;Node3 -->
<g id="edge4" class="edge"><title>Node1&#45;&gt;Node3</title>
<path fill="none" stroke="midnightblue" d="M80.5915,-171.547C94.1073,-174.912 109.691,-178.48 124,-181 237.103,-200.918 371.843,-211.601 442.056,-216.197"/>
<polygon fill="midnightblue" stroke="midnightblue" points="442.144,-219.71 452.348,-216.857 442.592,-212.724 442.144,-219.71"/>
</g>
<!-- Node7 -->
<g id="node13" class="node"><title>Node7</title>
<a xlink:href="../../dd/d09/altitude_8c.xhtml#a2b70e51410666081d87354770f15521e" target="_top" xlink:title="display_alt_symbols">
<polygon fill="white" stroke="black" points="137.5,-247.5 137.5,-266.5 242.5,-266.5 242.5,-247.5 137.5,-247.5"/>
<text text-anchor="middle" x="190" y="-254.5" font-family="Helvetica,sans-Serif" font-size="10.00">display_alt_symbols</text>
</a>
</g>
<!-- Node1&#45;&gt;Node7 -->
<g id="edge12" class="edge"><title>Node1&#45;&gt;Node7</title>
<path fill="none" stroke="midnightblue" d="M53.3379,-171.53C66.847,-186.461 94.9485,-215.471 124,-233 130.88,-237.151 138.595,-240.77 146.241,-243.852"/>
<polygon fill="midnightblue" stroke="midnightblue" points="145.229,-247.211 155.82,-247.468 147.701,-240.662 145.229,-247.211"/>
</g>
<!-- Node9 -->
<g id="node18" class="node"><title>Node9</title>
<a xlink:href="../../d2/df2/openchronos_8c.xhtml#a5aeb07d7031b5d53ca8605bf398714a2" target="_top" xlink:title="Registers a node in the message bus.">
<polygon fill="white" stroke="black" points="124.5,-57.5 124.5,-76.5 255.5,-76.5 255.5,-57.5 124.5,-57.5"/>
<text text-anchor="middle" x="190" y="-64.5" font-family="Helvetica,sans-Serif" font-size="10.00">sys_messagebus_register</text>
</a>
</g>
<!-- Node1&#45;&gt;Node9 -->
<g id="edge18" class="edge"><title>Node1&#45;&gt;Node9</title>
<path fill="none" stroke="midnightblue" d="M53.3379,-152.47C66.847,-137.539 94.9485,-108.529 124,-91 130.88,-86.8488 138.595,-83.2299 146.241,-80.1482"/>
<polygon fill="midnightblue" stroke="midnightblue" points="147.701,-83.3382 155.82,-76.5323 145.229,-76.7892 147.701,-83.3382"/>
</g>
<!-- Node10 -->
<g id="node20" class="node"><title>Node10</title>
<a xlink:href="../../dd/d09/altitude_8c.xhtml#ae3db0e1669bd567ba9e53c0d97218039" target="_top" xlink:title="ps_event">
<polygon fill="white" stroke="black" points="162,-152.5 162,-171.5 218,-171.5 218,-152.5 162,-152.5"/>
<text text-anchor="middle" x="190" y="-159.5" font-family="Helvetica,sans-Serif" font-size="10.00">ps_event</text>
</a>
</g>
<!-- Node1&#45;&gt;Node10 -->
<g id="edge20" class="edge"><title>Node1&#45;&gt;Node10</title>
<path fill="none" stroke="midnightblue" d="M88.2047,-162C108.336,-162 132.063,-162 151.437,-162"/>
<polygon fill="midnightblue" stroke="midnightblue" points="151.703,-165.5 161.703,-162 151.703,-158.5 151.703,-165.5"/>
</g>
<!-- Node22 -->
<g id="node48" class="node"><title>Node22</title>
<a xlink:href="../../d8/d28/vti__ps_8c.xhtml#a50a7aa70325a8986593edcd295ca9c44" target="_top" xlink:title="init_pressure_table">
<polygon fill="white" stroke="black" points="141,-19.5 141,-38.5 239,-38.5 239,-19.5 141,-19.5"/>
<text text-anchor="middle" x="190" y="-26.5" font-family="Helvetica,sans-Serif" font-size="10.00">init_pressure_table</text>
</a>
</g>
<!-- Node1&#45;&gt;Node22 -->
<g id="edge52" class="edge"><title>Node1&#45;&gt;Node22</title>
<path fill="none" stroke="midnightblue" d="M48.9358,-152.394C58.4285,-130.439 84.7381,-76.3024 124,-48 126.67,-46.075 129.534,-44.3438 132.517,-42.787"/>
<polygon fill="midnightblue" stroke="midnightblue" points="134.075,-45.9242 141.75,-38.6206 131.195,-39.5438 134.075,-45.9242"/>
</g>
<!-- Node23 -->
<g id="node50" class="node"><title>Node23</title>
<a xlink:href="../../d8/d28/vti__ps_8c.xhtml#a212b0d3875c0104d851e6792dc2d6037" target="_top" xlink:title="ps_start">
<polygon fill="white" stroke="black" points="465,-19.5 465,-38.5 517,-38.5 517,-19.5 465,-19.5"/>
<text text-anchor="middle" x="491" y="-26.5" font-family="Helvetica,sans-Serif" font-size="10.00">ps_start</text>
</a>
</g>
<!-- Node1&#45;&gt;Node23 -->
<g id="edge54" class="edge"><title>Node1&#45;&gt;Node23</title>
<path fill="none" stroke="midnightblue" d="M77.0033,-152.435C158.104,-128.196 371.199,-64.5069 455.223,-39.394"/>
<polygon fill="midnightblue" stroke="midnightblue" points="456.234,-42.7451 464.812,-36.528 454.229,-36.0382 456.234,-42.7451"/>
</g>
<!-- Node4 -->
<g id="node7" class="node"><title>Node4</title>
<a xlink:href="../../db/d85/display_8c.xhtml#a3ae30196af91197037d50cb49de1d109" target="_top" xlink:title="Displays a single character.">
<polygon fill="white" stroke="black" points="586.5,-209.5 586.5,-228.5 657.5,-228.5 657.5,-209.5 586.5,-209.5"/>
<text text-anchor="middle" x="622" y="-216.5" font-family="Helvetica,sans-Serif" font-size="10.00">display_char</text>
</a>
</g>
<!-- Node3&#45;&gt;Node4 -->
<g id="edge6" class="edge"><title>Node3&#45;&gt;Node4</title>
<path fill="none" stroke="midnightblue" d="M529.659,-219C544.161,-219 560.865,-219 575.992,-219"/>
<polygon fill="midnightblue" stroke="midnightblue" points="576.165,-222.5 586.165,-219 576.165,-215.5 576.165,-222.5"/>
</g>
<!-- Node5 -->
<g id="node9" class="node"><title>Node5</title>
<a xlink:href="../../db/d85/display_8c.xhtml#a9275035317878022cf9eacf6b0a5be72" target="_top" xlink:title="Display a custom collection of segments.">
<polygon fill="white" stroke="black" points="706,-209.5 706,-228.5 774,-228.5 774,-209.5 706,-209.5"/>
<text text-anchor="middle" x="740" y="-216.5" font-family="Helvetica,sans-Serif" font-size="10.00">display_bits</text>
</a>
</g>
<!-- Node4&#45;&gt;Node5 -->
<g id="edge8" class="edge"><title>Node4&#45;&gt;Node5</title>
<path fill="none" stroke="midnightblue" d="M657.804,-219C669.691,-219 683.135,-219 695.613,-219"/>
<polygon fill="midnightblue" stroke="midnightblue" points="695.812,-222.5 705.812,-219 695.812,-215.5 695.812,-222.5"/>
</g>
<!-- Node6 -->
<g id="node11" class="node"><title>Node6</title>
<a xlink:href="../../db/d85/display_8c.xhtml#a710739913e8ea1b71dd433b8311211fd" target="_top" xlink:title="write_lcd_mem">
<polygon fill="white" stroke="black" points="812.5,-228.5 812.5,-247.5 895.5,-247.5 895.5,-228.5 812.5,-228.5"/>
<text text-anchor="middle" x="854" y="-235.5" font-family="Helvetica,sans-Serif" font-size="10.00">write_lcd_mem</text>
</a>
</g>
<!-- Node5&#45;&gt;Node6 -->
<g id="edge10" class="edge"><title>Node5&#45;&gt;Node6</title>
<path fill="none" stroke="midnightblue" d="M774.3,-224.649C783.202,-226.159 793.025,-227.826 802.624,-229.454"/>
<polygon fill="midnightblue" stroke="midnightblue" points="802.055,-232.908 812.5,-231.129 803.226,-226.006 802.055,-232.908"/>
</g>
<!-- Node8 -->
<g id="node15" class="node"><title>Node8</title>
<a xlink:href="../../db/d85/display_8c.xhtml#af604e78dcc4e0f1a204b2180c5e54957" target="_top" xlink:title="Displays a symbol.">
<polygon fill="white" stroke="black" points="307,-247.5 307,-266.5 391,-266.5 391,-247.5 307,-247.5"/>
<text text-anchor="middle" x="349" y="-254.5" font-family="Helvetica,sans-Serif" font-size="10.00">display_symbol</text>
</a>
</g>
<!-- Node7&#45;&gt;Node8 -->
<g id="edge14" class="edge"><title>Node7&#45;&gt;Node8</title>
<path fill="none" stroke="midnightblue" d="M242.843,-257C260.077,-257 279.256,-257 296.467,-257"/>
<polygon fill="midnightblue" stroke="midnightblue" points="296.894,-260.5 306.894,-257 296.893,-253.5 296.894,-260.5"/>
</g>
<!-- Node8&#45;&gt;Node6 -->
<g id="edge16" class="edge"><title>Node8&#45;&gt;Node6</title>
<path fill="none" stroke="midnightblue" d="M391.163,-255.445C482.6,-251.991 702.407,-243.688 802.193,-239.919"/>
<polygon fill="midnightblue" stroke="midnightblue" points="802.464,-243.412 812.325,-239.536 802.2,-236.416 802.464,-243.412"/>
</g>
<!-- Node11 -->
<g id="node22" class="node"><title>Node11</title>
<a xlink:href="../../dd/d09/altitude_8c.xhtml#a4884d6d29145a48a4bbf98acfb0a888f" target="_top" xlink:title="altitude_measurement">
<polygon fill="white" stroke="black" points="292.5,-133.5 292.5,-152.5 405.5,-152.5 405.5,-133.5 292.5,-133.5"/>
<text text-anchor="middle" x="349" y="-140.5" font-family="Helvetica,sans-Serif" font-size="10.00">altitude_measurement</text>
</a>
</g>
<!-- Node10&#45;&gt;Node11 -->
<g id="edge22" class="edge"><title>Node10&#45;&gt;Node11</title>
<path fill="none" stroke="midnightblue" d="M218.347,-158.69C236.023,-156.551 259.826,-153.671 282.213,-150.962"/>
<polygon fill="midnightblue" stroke="midnightblue" points="282.864,-154.408 292.371,-149.732 282.023,-147.459 282.864,-154.408"/>
</g>
<!-- Node20 -->
<g id="node43" class="node"><title>Node20</title>
<a xlink:href="../../dd/d09/altitude_8c.xhtml#a50710235162aa8e09c6a46ccc2e69927" target="_top" xlink:title="display_altitude">
<polygon fill="white" stroke="black" points="307,-171.5 307,-190.5 391,-190.5 391,-171.5 307,-171.5"/>
<text text-anchor="middle" x="349" y="-178.5" font-family="Helvetica,sans-Serif" font-size="10.00">display_altitude</text>
</a>
</g>
<!-- Node10&#45;&gt;Node20 -->
<g id="edge46" class="edge"><title>Node10&#45;&gt;Node20</title>
<path fill="none" stroke="midnightblue" d="M218.347,-165.31C239.909,-167.919 270.59,-171.632 296.693,-174.791"/>
<polygon fill="midnightblue" stroke="midnightblue" points="296.466,-178.289 306.814,-176.016 297.307,-171.34 296.466,-178.289"/>
</g>
<!-- Node12 -->
<g id="node24" class="node"><title>Node12</title>
<a xlink:href="../../d8/d28/vti__ps_8c.xhtml#a9ede906177cc352bf1779ad77b31adfd" target="_top" xlink:title="ps_get_temp">
<polygon fill="white" stroke="black" points="454.5,-57.5 454.5,-76.5 527.5,-76.5 527.5,-57.5 454.5,-57.5"/>
<text text-anchor="middle" x="491" y="-64.5" font-family="Helvetica,sans-Serif" font-size="10.00">ps_get_temp</text>
</a>
</g>
<!-- Node11&#45;&gt;Node12 -->
<g id="edge24" class="edge"><title>Node11&#45;&gt;Node12</title>
<path fill="none" stroke="midnightblue" d="M377.427,-133.402C386.835,-129.557 397.203,-124.681 406,-119 424.233,-107.225 423.604,-97.5189 442,-86 445.016,-84.1116 448.251,-82.3519 451.564,-80.7264"/>
<polygon fill="midnightblue" stroke="midnightblue" points="453.297,-83.7857 460.994,-76.5055 450.437,-77.3966 453.297,-83.7857"/>
</g>
<!-- Node18 -->
<g id="node38" class="node"><title>Node18</title>
<a xlink:href="../../d8/d28/vti__ps_8c.xhtml#a8a91cc2854b65a63e9b3882823847b7e" target="_top" xlink:title="ps_get_pa">
<polygon fill="white" stroke="black" points="460,-95.5 460,-114.5 522,-114.5 522,-95.5 460,-95.5"/>
<text text-anchor="middle" x="491" y="-102.5" font-family="Helvetica,sans-Serif" font-size="10.00">ps_get_pa</text>
</a>
</g>
<!-- Node11&#45;&gt;Node18 -->
<g id="edge40" class="edge"><title>Node11&#45;&gt;Node18</title>
<path fill="none" stroke="midnightblue" d="M385.328,-133.411C405.098,-128.045 429.804,-121.339 450.248,-115.79"/>
<polygon fill="midnightblue" stroke="midnightblue" points="451.168,-119.167 459.902,-113.169 449.334,-112.411 451.168,-119.167"/>
</g>
<!-- Node19 -->
<g id="node41" class="node"><title>Node19</title>
<a xlink:href="../../d8/d28/vti__ps_8c.xhtml#aa425045d1d3dd394df256d4b0087bc24" target="_top" xlink:title="conv_pa_to_meter">
<polygon fill="white" stroke="black" points="442.5,-133.5 442.5,-152.5 539.5,-152.5 539.5,-133.5 442.5,-133.5"/>
<text text-anchor="middle" x="491" y="-140.5" font-family="Helvetica,sans-Serif" font-size="10.00">conv_pa_to_meter</text>
</a>
</g>
<!-- Node11&#45;&gt;Node19 -->
<g id="edge44" class="edge"><title>Node11&#45;&gt;Node19</title>
<path fill="none" stroke="midnightblue" d="M405.734,-143C414.393,-143 423.357,-143 432.064,-143"/>
<polygon fill="midnightblue" stroke="midnightblue" points="432.134,-146.5 442.134,-143 432.134,-139.5 432.134,-146.5"/>
</g>
<!-- Node13 -->
<g id="node26" class="node"><title>Node13</title>
<a xlink:href="../../d8/d28/vti__ps_8c.xhtml#aa8c959c733fb193f7db8c74889fc8f01" target="_top" xlink:title="ps_read_register">
<polygon fill="white" stroke="black" points="577.5,-76.5 577.5,-95.5 666.5,-95.5 666.5,-76.5 577.5,-76.5"/>
<text text-anchor="middle" x="622" y="-83.5" font-family="Helvetica,sans-Serif" font-size="10.00">ps_read_register</text>
</a>
</g>
<!-- Node12&#45;&gt;Node13 -->
<g id="edge26" class="edge"><title>Node12&#45;&gt;Node13</title>
<path fill="none" stroke="midnightblue" d="M527.591,-72.2421C539.834,-74.0452 553.828,-76.1064 567.192,-78.0748"/>
<polygon fill="midnightblue" stroke="midnightblue" points="566.846,-81.5615 577.249,-79.5561 567.866,-74.6362 566.846,-81.5615"/>
</g>
<!-- Node14 -->
<g id="node28" class="node"><title>Node14</title>
<a xlink:href="../../d8/d28/vti__ps_8c.xhtml#a5a111736e7d7fbbed73c189ed1d45b81" target="_top" xlink:title="ps_twi_sda">
<polygon fill="white" stroke="black" points="707,-38.5 707,-57.5 773,-57.5 773,-38.5 707,-38.5"/>
<text text-anchor="middle" x="740" y="-45.5" font-family="Helvetica,sans-Serif" font-size="10.00">ps_twi_sda</text>
</a>
</g>
<!-- Node13&#45;&gt;Node14 -->
<g id="edge28" class="edge"><title>Node13&#45;&gt;Node14</title>
<path fill="none" stroke="midnightblue" d="M652.272,-76.411C666.697,-71.6856 684.293,-65.9211 699.857,-60.8226"/>
<polygon fill="midnightblue" stroke="midnightblue" points="701.324,-64.0252 709.738,-57.5859 699.145,-57.373 701.324,-64.0252"/>
</g>
<!-- Node16 -->
<g id="node32" class="node"><title>Node16</title>
<a xlink:href="../../d8/d28/vti__ps_8c.xhtml#a49dfd78503815814186a48488c6a991f" target="_top" xlink:title="ps_twi_write">
<polygon fill="white" stroke="black" points="704.5,-0.5 704.5,-19.5 775.5,-19.5 775.5,-0.5 704.5,-0.5"/>
<text text-anchor="middle" x="740" y="-7.5" font-family="Helvetica,sans-Serif" font-size="10.00">ps_twi_write</text>
</a>
</g>
<!-- Node13&#45;&gt;Node16 -->
<g id="edge32" class="edge"><title>Node13&#45;&gt;Node16</title>
<path fill="none" stroke="midnightblue" d="M650.6,-76.4738C656.584,-73.8367 662.702,-70.6708 668,-67 687.122,-53.7496 685.548,-43.1696 704,-29 705.827,-27.5972 707.771,-26.2377 709.77,-24.9341"/>
<polygon fill="midnightblue" stroke="midnightblue" points="711.903,-27.7381 718.704,-19.6149 708.322,-21.7234 711.903,-27.7381"/>
</g>
<!-- Node17 -->
<g id="node35" class="node"><title>Node17</title>
<a xlink:href="../../d8/d28/vti__ps_8c.xhtml#acbe3495716ae246bf71d2419dfabed72" target="_top" xlink:title="ps_twi_read">
<polygon fill="white" stroke="black" points="705.5,-76.5 705.5,-95.5 774.5,-95.5 774.5,-76.5 705.5,-76.5"/>
<text text-anchor="middle" x="740" y="-83.5" font-family="Helvetica,sans-Serif" font-size="10.00">ps_twi_read</text>
</a>
</g>
<!-- Node13&#45;&gt;Node17 -->
<g id="edge36" class="edge"><title>Node13&#45;&gt;Node17</title>
<path fill="none" stroke="midnightblue" d="M666.524,-86C675.866,-86 685.743,-86 695.099,-86"/>
<polygon fill="midnightblue" stroke="midnightblue" points="695.385,-89.5001 705.385,-86 695.385,-82.5001 695.385,-89.5001"/>
</g>
<!-- Node15 -->
<g id="node30" class="node"><title>Node15</title>
<a xlink:href="../../d8/d28/vti__ps_8c.xhtml#aeec2d2e61bf0b7d2e9f09c4b4fac4490" target="_top" xlink:title="twi_delay">
<polygon fill="white" stroke="black" points="825,-38.5 825,-57.5 883,-57.5 883,-38.5 825,-38.5"/>
<text text-anchor="middle" x="854" y="-45.5" font-family="Helvetica,sans-Serif" font-size="10.00">twi_delay</text>
</a>
</g>
<!-- Node14&#45;&gt;Node15 -->
<g id="edge30" class="edge"><title>Node14&#45;&gt;Node15</title>
<path fill="none" stroke="midnightblue" d="M773.095,-48C785.948,-48 800.87,-48 814.315,-48"/>
<polygon fill="midnightblue" stroke="midnightblue" points="814.713,-51.5001 824.713,-48 814.713,-44.5001 814.713,-51.5001"/>
</g>
<!-- Node16&#45;&gt;Node15 -->
<g id="edge34" class="edge"><title>Node16&#45;&gt;Node15</title>
<path fill="none" stroke="midnightblue" d="M769.262,-19.589C783.19,-24.3144 800.18,-30.0789 815.207,-35.1774"/>
<polygon fill="midnightblue" stroke="midnightblue" points="814.152,-38.5155 824.747,-38.4141 816.401,-31.8866 814.152,-38.5155"/>
</g>
<!-- Node17&#45;&gt;Node15 -->
<g id="edge38" class="edge"><title>Node17&#45;&gt;Node15</title>
<path fill="none" stroke="midnightblue" d="M769.262,-76.411C783.19,-71.6856 800.18,-65.9211 815.207,-60.8226"/>
<polygon fill="midnightblue" stroke="midnightblue" points="816.401,-64.1134 824.747,-57.5859 814.152,-57.4845 816.401,-64.1134"/>
</g>
<!-- Node18&#45;&gt;Node13 -->
<g id="edge42" class="edge"><title>Node18&#45;&gt;Node13</title>
<path fill="none" stroke="midnightblue" d="M522.245,-100.545C535.684,-98.5659 551.919,-96.1747 567.309,-93.908"/>
<polygon fill="midnightblue" stroke="midnightblue" points="567.879,-97.3619 577.262,-92.4421 566.859,-90.4366 567.879,-97.3619"/>
</g>
<!-- Node20&#45;&gt;Node3 -->
<g id="edge48" class="edge"><title>Node20&#45;&gt;Node3</title>
<path fill="none" stroke="midnightblue" d="M385.328,-190.589C403.401,-195.494 425.598,-201.52 444.895,-206.757"/>
<polygon fill="midnightblue" stroke="midnightblue" points="444.116,-210.172 454.683,-209.414 445.949,-203.417 444.116,-210.172"/>
</g>
<!-- Node21 -->
<g id="node46" class="node"><title>Node21</title>
<a xlink:href="../../db/d85/display_8c.xhtml#a9047d98cd15ffbc79e15c63fca36d70b" target="_top" xlink:title="pseudo sprintf function">
<polygon fill="white" stroke="black" points="466.5,-171.5 466.5,-190.5 515.5,-190.5 515.5,-171.5 466.5,-171.5"/>
<text text-anchor="middle" x="491" y="-178.5" font-family="Helvetica,sans-Serif" font-size="10.00">_sprintf</text>
</a>
</g>
<!-- Node20&#45;&gt;Node21 -->
<g id="edge50" class="edge"><title>Node20&#45;&gt;Node21</title>
<path fill="none" stroke="midnightblue" d="M391.247,-181C411.936,-181 436.68,-181 456.224,-181"/>
<polygon fill="midnightblue" stroke="midnightblue" points="456.488,-184.5 466.488,-181 456.488,-177.5 456.488,-184.5"/>
</g>
<!-- Node24 -->
<g id="node52" class="node"><title>Node24</title>
<a xlink:href="../../d8/d28/vti__ps_8c.xhtml#af2ab66da002d7051cd8e27b63bb04d06" target="_top" xlink:title="ps_write_register">
<polygon fill="white" stroke="black" points="576.5,-0.5 576.5,-19.5 667.5,-19.5 667.5,-0.5 576.5,-0.5"/>
<text text-anchor="middle" x="622" y="-7.5" font-family="Helvetica,sans-Serif" font-size="10.00">ps_write_register</text>
</a>
</g>
<!-- Node23&#45;&gt;Node24 -->
<g id="edge56" class="edge"><title>Node23&#45;&gt;Node24</title>
<path fill="none" stroke="midnightblue" d="M517.179,-25.2915C531.215,-23.2242 549.269,-20.5651 566.373,-18.0458"/>
<polygon fill="midnightblue" stroke="midnightblue" points="566.914,-21.504 576.297,-16.5842 565.894,-14.5787 566.914,-21.504"/>
</g>
<!-- Node25 -->
<g id="node56" class="node"><title>Node25</title>
<a xlink:href="../../df/d41/timer_8c.xhtml#adc3302861aee9d7f4a1c4c6d25d07343" target="_top" xlink:title="1ms &#45; 1s programmable delay">
<polygon fill="white" stroke="black" points="586,-38.5 586,-57.5 658,-57.5 658,-38.5 586,-38.5"/>
<text text-anchor="middle" x="622" y="-45.5" font-family="Helvetica,sans-Serif" font-size="10.00">timer0_delay</text>
</a>
</g>
<!-- Node23&#45;&gt;Node25 -->
<g id="edge62" class="edge"><title>Node23&#45;&gt;Node25</title>
<path fill="none" stroke="midnightblue" d="M517.179,-32.7085C533.788,-35.1548 556.021,-38.4295 575.652,-41.3209"/>
<polygon fill="midnightblue" stroke="midnightblue" points="575.234,-44.7969 585.637,-42.7915 576.254,-37.8716 575.234,-44.7969"/>
</g>
<!-- Node24&#45;&gt;Node14 -->
<g id="edge58" class="edge"><title>Node24&#45;&gt;Node14</title>
<path fill="none" stroke="midnightblue" d="M652.272,-19.589C666.697,-24.3144 684.293,-30.0789 699.857,-35.1774"/>
<polygon fill="midnightblue" stroke="midnightblue" points="699.145,-38.627 709.738,-38.4141 701.324,-31.9748 699.145,-38.627"/>
</g>
<!-- Node24&#45;&gt;Node16 -->
<g id="edge60" class="edge"><title>Node24&#45;&gt;Node16</title>
<path fill="none" stroke="midnightblue" d="M667.517,-10C676.242,-10 685.398,-10 694.135,-10"/>
<polygon fill="midnightblue" stroke="midnightblue" points="694.147,-13.5001 704.147,-10 694.147,-6.5001 694.147,-13.5001"/>
</g>
</g>
</svg>
