<?xml version="1.0" encoding="UTF-8" standalone="no"?>
<!DOCTYPE svg PUBLIC "-//W3C//DTD SVG 1.1//EN"
 "http://www.w3.org/Graphics/SVG/1.1/DTD/svg11.dtd">
<!-- Generated by graphviz version 2.28.0 (20121221.0049)
 -->
<!-- Title: altitude_reconfigure Pages: 1 -->
<svg width="592pt" height="123pt"
 viewBox="0.00 0.00 592.00 123.00" xmlns="http://www.w3.org/2000/svg" xmlns:xlink="http://www.w3.org/1999/xlink">
<g id="graph1" class="graph" transform="scale(1 1) rotate(0) translate(4 119)">
<title>altitude_reconfigure</title>
<polygon fill="white" stroke="white" points="-4,5 -4,-119 589,-119 589,5 -4,5"/>
<!-- Node1 -->
<g id="node1" class="node"><title>Node1</title>
<polygon fill="#bfbfbf" stroke="black" points="0.5,-38.5 0.5,-57.5 101.5,-57.5 101.5,-38.5 0.5,-38.5"/>
<text text-anchor="middle" x="51" y="-45.5" font-family="Helvetica,sans-Serif" font-size="10.00">altitude_reconfigure</text>
</g>
<!-- Node2 -->
<g id="node3" class="node"><title>Node2</title>
<a xlink:href="../../d8/d28/vti__ps_8c.xhtml#a58b7096908222f24db9c85082d3e5f3d" target="_top" xlink:title="ps_stop">
<polygon fill="white" stroke="black" points="170.5,-38.5 170.5,-57.5 221.5,-57.5 221.5,-38.5 170.5,-38.5"/>
<text text-anchor="middle" x="196" y="-45.5" font-family="Helvetica,sans-Serif" font-size="10.00">ps_stop</text>
</a>
</g>
<!-- Node1&#45;&gt;Node2 -->
<g id="edge2" class="edge"><title>Node1&#45;&gt;Node2</title>
<path fill="none" stroke="midnightblue" d="M101.613,-48C120.852,-48 142.431,-48 159.996,-48"/>
<polygon fill="midnightblue" stroke="midnightblue" points="160.356,-51.5001 170.356,-48 160.356,-44.5001 160.356,-51.5001"/>
</g>
<!-- Node8 -->
<g id="node16" class="node"><title>Node8</title>
<a xlink:href="../../d8/d28/vti__ps_8c.xhtml#a194b3e8854517fa03dc6318411d88ba8" target="_top" xlink:title="update_pressure_table">
<polygon fill="white" stroke="black" points="138.5,-0.5 138.5,-19.5 253.5,-19.5 253.5,-0.5 138.5,-0.5"/>
<text text-anchor="middle" x="196" y="-7.5" font-family="Helvetica,sans-Serif" font-size="10.00">update_pressure_table</text>
</a>
</g>
<!-- Node1&#45;&gt;Node8 -->
<g id="edge16" class="edge"><title>Node1&#45;&gt;Node8</title>
<path fill="none" stroke="midnightblue" d="M88.0849,-38.411C106.63,-33.4831 129.426,-27.4251 149.199,-22.1709"/>
<polygon fill="midnightblue" stroke="midnightblue" points="150.161,-25.5368 158.927,-19.5859 148.363,-18.7716 150.161,-25.5368"/>
</g>
<!-- Node9 -->
<g id="node18" class="node"><title>Node9</title>
<a xlink:href="../../d8/d28/vti__ps_8c.xhtml#a212b0d3875c0104d851e6792dc2d6037" target="_top" xlink:title="ps_start">
<polygon fill="white" stroke="black" points="170,-76.5 170,-95.5 222,-95.5 222,-76.5 170,-76.5"/>
<text text-anchor="middle" x="196" y="-83.5" font-family="Helvetica,sans-Serif" font-size="10.00">ps_start</text>
</a>
</g>
<!-- Node1&#45;&gt;Node9 -->
<g id="edge18" class="edge"><title>Node1&#45;&gt;Node9</title>
<path fill="none" stroke="midnightblue" d="M88.0849,-57.589C110.085,-63.4351 138.069,-70.8714 159.888,-76.6696"/>
<polygon fill="midnightblue" stroke="midnightblue" points="159.18,-80.1027 169.743,-79.2884 160.977,-73.3375 159.18,-80.1027"/>
</g>
<!-- Node3 -->
<g id="node5" class="node"><title>Node3</title>
<a xlink:href="../../d8/d28/vti__ps_8c.xhtml#af2ab66da002d7051cd8e27b63bb04d06" target="_top" xlink:title="ps_write_register">
<polygon fill="white" stroke="black" points="290.5,-76.5 290.5,-95.5 381.5,-95.5 381.5,-76.5 290.5,-76.5"/>
<text text-anchor="middle" x="336" y="-83.5" font-family="Helvetica,sans-Serif" font-size="10.00">ps_write_register</text>
</a>
</g>
<!-- Node2&#45;&gt;Node3 -->
<g id="edge4" class="edge"><title>Node2&#45;&gt;Node3</title>
<path fill="none" stroke="midnightblue" d="M221.672,-54.7936C240.783,-60.0563 267.764,-67.4857 290.605,-73.7752"/>
<polygon fill="midnightblue" stroke="midnightblue" points="289.864,-77.2014 300.434,-76.4819 291.722,-70.4526 289.864,-77.2014"/>
</g>
<!-- Node7 -->
<g id="node14" class="node"><title>Node7</title>
<a xlink:href="../../df/d41/timer_8c.xhtml#adc3302861aee9d7f4a1c4c6d25d07343" target="_top" xlink:title="1ms &#45; 1s programmable delay">
<polygon fill="white" stroke="black" points="300,-38.5 300,-57.5 372,-57.5 372,-38.5 300,-38.5"/>
<text text-anchor="middle" x="336" y="-45.5" font-family="Helvetica,sans-Serif" font-size="10.00">timer0_delay</text>
</a>
</g>
<!-- Node2&#45;&gt;Node7 -->
<g id="edge14" class="edge"><title>Node2&#45;&gt;Node7</title>
<path fill="none" stroke="midnightblue" d="M221.672,-48C240.563,-48 267.143,-48 289.814,-48"/>
<polygon fill="midnightblue" stroke="midnightblue" points="289.913,-51.5001 299.913,-48 289.913,-44.5001 289.913,-51.5001"/>
</g>
<!-- Node4 -->
<g id="node7" class="node"><title>Node4</title>
<a xlink:href="../../d8/d28/vti__ps_8c.xhtml#a5a111736e7d7fbbed73c189ed1d45b81" target="_top" xlink:title="ps_twi_sda">
<polygon fill="white" stroke="black" points="421,-95.5 421,-114.5 487,-114.5 487,-95.5 421,-95.5"/>
<text text-anchor="middle" x="454" y="-102.5" font-family="Helvetica,sans-Serif" font-size="10.00">ps_twi_sda</text>
</a>
</g>
<!-- Node3&#45;&gt;Node4 -->
<g id="edge6" class="edge"><title>Node3&#45;&gt;Node4</title>
<path fill="none" stroke="midnightblue" d="M381.517,-93.2916C391.089,-94.8594 401.179,-96.5121 410.665,-98.0659"/>
<polygon fill="midnightblue" stroke="midnightblue" points="410.234,-101.542 420.668,-99.7043 411.366,-94.6338 410.234,-101.542"/>
</g>
<!-- Node6 -->
<g id="node11" class="node"><title>Node6</title>
<a xlink:href="../../d8/d28/vti__ps_8c.xhtml#a49dfd78503815814186a48488c6a991f" target="_top" xlink:title="ps_twi_write">
<polygon fill="white" stroke="black" points="418.5,-57.5 418.5,-76.5 489.5,-76.5 489.5,-57.5 418.5,-57.5"/>
<text text-anchor="middle" x="454" y="-64.5" font-family="Helvetica,sans-Serif" font-size="10.00">ps_twi_write</text>
</a>
</g>
<!-- Node3&#45;&gt;Node6 -->
<g id="edge10" class="edge"><title>Node3&#45;&gt;Node6</title>
<path fill="none" stroke="midnightblue" d="M381.517,-78.7084C390.242,-77.2793 399.398,-75.7796 408.135,-74.3486"/>
<polygon fill="midnightblue" stroke="midnightblue" points="408.844,-77.7791 418.147,-72.7087 407.713,-70.8712 408.844,-77.7791"/>
</g>
<!-- Node5 -->
<g id="node9" class="node"><title>Node5</title>
<a xlink:href="../../d8/d28/vti__ps_8c.xhtml#aeec2d2e61bf0b7d2e9f09c4b4fac4490" target="_top" xlink:title="twi_delay">
<polygon fill="white" stroke="black" points="526,-76.5 526,-95.5 584,-95.5 584,-76.5 526,-76.5"/>
<text text-anchor="middle" x="555" y="-83.5" font-family="Helvetica,sans-Serif" font-size="10.00">twi_delay</text>
</a>
</g>
<!-- Node4&#45;&gt;Node5 -->
<g id="edge8" class="edge"><title>Node4&#45;&gt;Node5</title>
<path fill="none" stroke="midnightblue" d="M487.142,-98.8312C496.264,-97.0806 506.286,-95.1572 515.732,-93.3443"/>
<polygon fill="midnightblue" stroke="midnightblue" points="516.525,-96.7561 525.686,-91.4339 515.206,-89.8815 516.525,-96.7561"/>
</g>
<!-- Node6&#45;&gt;Node5 -->
<g id="edge12" class="edge"><title>Node6&#45;&gt;Node5</title>
<path fill="none" stroke="midnightblue" d="M489.625,-73.6453C498.122,-75.2759 507.263,-77.0302 515.912,-78.6901"/>
<polygon fill="midnightblue" stroke="midnightblue" points="515.291,-82.1348 525.771,-80.5824 516.61,-75.2602 515.291,-82.1348"/>
</g>
<!-- Node9&#45;&gt;Node3 -->
<g id="edge20" class="edge"><title>Node9&#45;&gt;Node3</title>
<path fill="none" stroke="midnightblue" d="M222.311,-86C238.479,-86 260.083,-86 280.049,-86"/>
<polygon fill="midnightblue" stroke="midnightblue" points="280.303,-89.5001 290.303,-86 280.303,-82.5001 280.303,-89.5001"/>
</g>
<!-- Node9&#45;&gt;Node7 -->
<g id="edge22" class="edge"><title>Node9&#45;&gt;Node7</title>
<path fill="none" stroke="midnightblue" d="M222.311,-79.0302C241.426,-73.7669 268.138,-66.4112 290.759,-60.1824"/>
<polygon fill="midnightblue" stroke="midnightblue" points="291.782,-63.531 300.494,-57.5017 289.923,-56.7822 291.782,-63.531"/>
</g>
</g>
</svg>
