<?xml version="1.0" encoding="UTF-8" standalone="no"?>
<!DOCTYPE svg PUBLIC "-//W3C//DTD SVG 1.1//EN"
 "http://www.w3.org/Graphics/SVG/1.1/DTD/svg11.dtd">
<!-- Generated by graphviz version 2.28.0 (20121221.0049)
 -->
<!-- Title: altitude_deactivate Pages: 1 -->
<svg width="924pt" height="256pt"
 viewBox="0.00 0.00 924.00 256.00" xmlns="http://www.w3.org/2000/svg" xmlns:xlink="http://www.w3.org/1999/xlink">
<g id="graph1" class="graph" transform="scale(1 1) rotate(0) translate(4 252)">
<title>altitude_deactivate</title>
<polygon fill="white" stroke="white" points="-4,5 -4,-252 921,-252 921,5 -4,5"/>
<!-- Node1 -->
<g id="node1" class="node"><title>Node1</title>
<polygon fill="#bfbfbf" stroke="black" points="0,-76.5 0,-95.5 98,-95.5 98,-76.5 0,-76.5"/>
<text text-anchor="middle" x="49" y="-83.5" font-family="Helvetica,sans-Serif" font-size="10.00">altitude_deactivate</text>
</g>
<!-- Node2 -->
<g id="node3" class="node"><title>Node2</title>
<a xlink:href="../../d2/df2/openchronos_8c.xhtml#a60705ce0564ce52c1977a32cee3215c2" target="_top" xlink:title="Unregisters a node from the message bus.">
<polygon fill="white" stroke="black" points="134.5,-152.5 134.5,-171.5 275.5,-171.5 275.5,-152.5 134.5,-152.5"/>
<text text-anchor="middle" x="205" y="-159.5" font-family="Helvetica,sans-Serif" font-size="10.00">sys_messagebus_unregister</text>
</a>
</g>
<!-- Node1&#45;&gt;Node2 -->
<g id="edge2" class="edge"><title>Node1&#45;&gt;Node2</title>
<path fill="none" stroke="midnightblue" d="M61.4895,-95.6415C77.0115,-108.217 105.974,-130.126 134,-143 139.078,-145.333 144.498,-147.427 149.991,-149.297"/>
<polygon fill="midnightblue" stroke="midnightblue" points="149.305,-152.751 159.895,-152.421 151.411,-146.075 149.305,-152.751"/>
</g>
<!-- Node3 -->
<g id="node5" class="node"><title>Node3</title>
<a xlink:href="../../dd/d09/altitude_8c.xhtml#ae3db0e1669bd567ba9e53c0d97218039" target="_top" xlink:title="ps_event">
<polygon fill="white" stroke="black" points="177,-114.5 177,-133.5 233,-133.5 233,-114.5 177,-114.5"/>
<text text-anchor="middle" x="205" y="-121.5" font-family="Helvetica,sans-Serif" font-size="10.00">ps_event</text>
</a>
</g>
<!-- Node1&#45;&gt;Node3 -->
<g id="edge4" class="edge"><title>Node1&#45;&gt;Node3</title>
<path fill="none" stroke="midnightblue" d="M88.8607,-95.589C112.767,-101.488 143.235,-109.006 166.824,-114.827"/>
<polygon fill="midnightblue" stroke="midnightblue" points="166.253,-118.291 176.8,-117.288 167.93,-111.495 166.253,-118.291"/>
</g>
<!-- Node19 -->
<g id="node40" class="node"><title>Node19</title>
<a xlink:href="../../d8/d28/vti__ps_8c.xhtml#a58b7096908222f24db9c85082d3e5f3d" target="_top" xlink:title="ps_stop">
<polygon fill="white" stroke="black" points="485.5,-76.5 485.5,-95.5 536.5,-95.5 536.5,-76.5 485.5,-76.5"/>
<text text-anchor="middle" x="511" y="-83.5" font-family="Helvetica,sans-Serif" font-size="10.00">ps_stop</text>
</a>
</g>
<!-- Node1&#45;&gt;Node19 -->
<g id="edge42" class="edge"><title>Node1&#45;&gt;Node19</title>
<path fill="none" stroke="midnightblue" d="M98.3586,-86C191.519,-86 393.836,-86 475.139,-86"/>
<polygon fill="midnightblue" stroke="midnightblue" points="475.337,-89.5001 485.337,-86 475.337,-82.5001 475.337,-89.5001"/>
</g>
<!-- Node22 -->
<g id="node48" class="node"><title>Node22</title>
<a xlink:href="../../db/d85/display_8c.xhtml#aa150336a018e90f37fd0285047b541f6" target="_top" xlink:title="Clears the screen.">
<polygon fill="white" stroke="black" points="168,-38.5 168,-57.5 242,-57.5 242,-38.5 168,-38.5"/>
<text text-anchor="middle" x="205" y="-45.5" font-family="Helvetica,sans-Serif" font-size="10.00">display_clear</text>
</a>
</g>
<!-- Node1&#45;&gt;Node22 -->
<g id="edge52" class="edge"><title>Node1&#45;&gt;Node22</title>
<path fill="none" stroke="midnightblue" d="M88.8607,-76.411C109.878,-71.2249 135.967,-64.7873 157.995,-59.352"/>
<polygon fill="midnightblue" stroke="midnightblue" points="158.926,-62.7272 167.797,-56.9333 157.249,-55.931 158.926,-62.7272"/>
</g>
<!-- Node24 -->
<g id="node54" class="node"><title>Node24</title>
<a xlink:href="../../dd/d09/altitude_8c.xhtml#a2b70e51410666081d87354770f15521e" target="_top" xlink:title="display_alt_symbols">
<polygon fill="white" stroke="black" points="152.5,-0.5 152.5,-19.5 257.5,-19.5 257.5,-0.5 152.5,-0.5"/>
<text text-anchor="middle" x="205" y="-7.5" font-family="Helvetica,sans-Serif" font-size="10.00">display_alt_symbols</text>
</a>
</g>
<!-- Node1&#45;&gt;Node24 -->
<g id="edge60" class="edge"><title>Node1&#45;&gt;Node24</title>
<path fill="none" stroke="midnightblue" d="M61.4895,-76.3585C77.0115,-63.7832 105.974,-41.8744 134,-29 139.078,-26.6674 144.498,-24.5726 149.991,-22.7032"/>
<polygon fill="midnightblue" stroke="midnightblue" points="151.411,-25.9252 159.895,-19.5791 149.305,-19.2494 151.411,-25.9252"/>
</g>
<!-- Node4 -->
<g id="node7" class="node"><title>Node4</title>
<a xlink:href="../../dd/d09/altitude_8c.xhtml#a4884d6d29145a48a4bbf98acfb0a888f" target="_top" xlink:title="altitude_measurement">
<polygon fill="white" stroke="black" points="312.5,-171.5 312.5,-190.5 425.5,-190.5 425.5,-171.5 312.5,-171.5"/>
<text text-anchor="middle" x="369" y="-178.5" font-family="Helvetica,sans-Serif" font-size="10.00">altitude_measurement</text>
</a>
</g>
<!-- Node3&#45;&gt;Node4 -->
<g id="edge6" class="edge"><title>Node3&#45;&gt;Node4</title>
<path fill="none" stroke="midnightblue" d="M233.166,-130.519C246.234,-133.872 262.054,-138.249 276,-143 296.979,-150.148 320.028,-159.671 337.807,-167.395"/>
<polygon fill="midnightblue" stroke="midnightblue" points="336.533,-170.658 347.096,-171.475 339.348,-164.249 336.533,-170.658"/>
</g>
<!-- Node13 -->
<g id="node28" class="node"><title>Node13</title>
<a xlink:href="../../dd/d09/altitude_8c.xhtml#a50710235162aa8e09c6a46ccc2e69927" target="_top" xlink:title="display_altitude">
<polygon fill="white" stroke="black" points="327,-114.5 327,-133.5 411,-133.5 411,-114.5 327,-114.5"/>
<text text-anchor="middle" x="369" y="-121.5" font-family="Helvetica,sans-Serif" font-size="10.00">display_altitude</text>
</a>
</g>
<!-- Node3&#45;&gt;Node13 -->
<g id="edge30" class="edge"><title>Node3&#45;&gt;Node13</title>
<path fill="none" stroke="midnightblue" d="M233.115,-124C255.798,-124 288.799,-124 316.48,-124"/>
<polygon fill="midnightblue" stroke="midnightblue" points="316.797,-127.5 326.796,-124 316.796,-120.5 316.797,-127.5"/>
</g>
<!-- Node5 -->
<g id="node9" class="node"><title>Node5</title>
<a xlink:href="../../d8/d28/vti__ps_8c.xhtml#a9ede906177cc352bf1779ad77b31adfd" target="_top" xlink:title="ps_get_temp">
<polygon fill="white" stroke="black" points="474.5,-190.5 474.5,-209.5 547.5,-209.5 547.5,-190.5 474.5,-190.5"/>
<text text-anchor="middle" x="511" y="-197.5" font-family="Helvetica,sans-Serif" font-size="10.00">ps_get_temp</text>
</a>
</g>
<!-- Node4&#45;&gt;Node5 -->
<g id="edge8" class="edge"><title>Node4&#45;&gt;Node5</title>
<path fill="none" stroke="midnightblue" d="M425.734,-188.564C438.483,-190.294 451.89,-192.114 464.168,-193.78"/>
<polygon fill="midnightblue" stroke="midnightblue" points="463.795,-197.261 474.175,-195.138 464.737,-190.325 463.795,-197.261"/>
</g>
<!-- Node11 -->
<g id="node23" class="node"><title>Node11</title>
<a xlink:href="../../d8/d28/vti__ps_8c.xhtml#a8a91cc2854b65a63e9b3882823847b7e" target="_top" xlink:title="ps_get_pa">
<polygon fill="white" stroke="black" points="480,-228.5 480,-247.5 542,-247.5 542,-228.5 480,-228.5"/>
<text text-anchor="middle" x="511" y="-235.5" font-family="Helvetica,sans-Serif" font-size="10.00">ps_get_pa</text>
</a>
</g>
<!-- Node4&#45;&gt;Node11 -->
<g id="edge24" class="edge"><title>Node4&#45;&gt;Node11</title>
<path fill="none" stroke="midnightblue" d="M393.025,-190.621C411.611,-198.36 438.45,-209.476 462,-219 466.539,-220.835 471.326,-222.753 476.049,-224.633"/>
<polygon fill="midnightblue" stroke="midnightblue" points="474.967,-227.97 485.553,-228.404 477.549,-221.463 474.967,-227.97"/>
</g>
<!-- Node12 -->
<g id="node26" class="node"><title>Node12</title>
<a xlink:href="../../d8/d28/vti__ps_8c.xhtml#aa425045d1d3dd394df256d4b0087bc24" target="_top" xlink:title="conv_pa_to_meter">
<polygon fill="white" stroke="black" points="462.5,-152.5 462.5,-171.5 559.5,-171.5 559.5,-152.5 462.5,-152.5"/>
<text text-anchor="middle" x="511" y="-159.5" font-family="Helvetica,sans-Serif" font-size="10.00">conv_pa_to_meter</text>
</a>
</g>
<!-- Node4&#45;&gt;Node12 -->
<g id="edge28" class="edge"><title>Node4&#45;&gt;Node12</title>
<path fill="none" stroke="midnightblue" d="M425.734,-173.436C434.393,-172.261 443.357,-171.044 452.064,-169.863"/>
<polygon fill="midnightblue" stroke="midnightblue" points="452.695,-173.309 462.134,-168.496 451.754,-166.373 452.695,-173.309"/>
</g>
<!-- Node6 -->
<g id="node11" class="node"><title>Node6</title>
<a xlink:href="../../d8/d28/vti__ps_8c.xhtml#aa8c959c733fb193f7db8c74889fc8f01" target="_top" xlink:title="ps_read_register">
<polygon fill="white" stroke="black" points="597.5,-190.5 597.5,-209.5 686.5,-209.5 686.5,-190.5 597.5,-190.5"/>
<text text-anchor="middle" x="642" y="-197.5" font-family="Helvetica,sans-Serif" font-size="10.00">ps_read_register</text>
</a>
</g>
<!-- Node5&#45;&gt;Node6 -->
<g id="edge10" class="edge"><title>Node5&#45;&gt;Node6</title>
<path fill="none" stroke="midnightblue" d="M547.591,-200C559.834,-200 573.828,-200 587.192,-200"/>
<polygon fill="midnightblue" stroke="midnightblue" points="587.249,-203.5 597.249,-200 587.249,-196.5 587.249,-203.5"/>
</g>
<!-- Node7 -->
<g id="node13" class="node"><title>Node7</title>
<a xlink:href="../../d8/d28/vti__ps_8c.xhtml#a5a111736e7d7fbbed73c189ed1d45b81" target="_top" xlink:title="ps_twi_sda">
<polygon fill="white" stroke="black" points="727,-133.5 727,-152.5 793,-152.5 793,-133.5 727,-133.5"/>
<text text-anchor="middle" x="760" y="-140.5" font-family="Helvetica,sans-Serif" font-size="10.00">ps_twi_sda</text>
</a>
</g>
<!-- Node6&#45;&gt;Node7 -->
<g id="edge12" class="edge"><title>Node6&#45;&gt;Node7</title>
<path fill="none" stroke="midnightblue" d="M662.416,-190.459C680.985,-181.335 709.21,-167.466 730.361,-157.073"/>
<polygon fill="midnightblue" stroke="midnightblue" points="732.089,-160.123 739.521,-152.572 729.002,-153.841 732.089,-160.123"/>
</g>
<!-- Node9 -->
<g id="node17" class="node"><title>Node9</title>
<a xlink:href="../../d8/d28/vti__ps_8c.xhtml#a49dfd78503815814186a48488c6a991f" target="_top" xlink:title="ps_twi_write">
<polygon fill="white" stroke="black" points="724.5,-171.5 724.5,-190.5 795.5,-190.5 795.5,-171.5 724.5,-171.5"/>
<text text-anchor="middle" x="760" y="-178.5" font-family="Helvetica,sans-Serif" font-size="10.00">ps_twi_write</text>
</a>
</g>
<!-- Node6&#45;&gt;Node9 -->
<g id="edge16" class="edge"><title>Node6&#45;&gt;Node9</title>
<path fill="none" stroke="midnightblue" d="M686.524,-192.871C695.586,-191.387 705.151,-189.82 714.256,-188.329"/>
<polygon fill="midnightblue" stroke="midnightblue" points="714.986,-191.756 724.288,-186.686 713.854,-184.848 714.986,-191.756"/>
</g>
<!-- Node10 -->
<g id="node20" class="node"><title>Node10</title>
<a xlink:href="../../d8/d28/vti__ps_8c.xhtml#acbe3495716ae246bf71d2419dfabed72" target="_top" xlink:title="ps_twi_read">
<polygon fill="white" stroke="black" points="725.5,-209.5 725.5,-228.5 794.5,-228.5 794.5,-209.5 725.5,-209.5"/>
<text text-anchor="middle" x="760" y="-216.5" font-family="Helvetica,sans-Serif" font-size="10.00">ps_twi_read</text>
</a>
</g>
<!-- Node6&#45;&gt;Node10 -->
<g id="edge20" class="edge"><title>Node6&#45;&gt;Node10</title>
<path fill="none" stroke="midnightblue" d="M686.524,-207.129C695.966,-208.676 705.956,-210.312 715.401,-211.859"/>
<polygon fill="midnightblue" stroke="midnightblue" points="714.95,-215.332 725.385,-213.494 716.082,-208.424 714.95,-215.332"/>
</g>
<!-- Node8 -->
<g id="node15" class="node"><title>Node8</title>
<a xlink:href="../../d8/d28/vti__ps_8c.xhtml#aeec2d2e61bf0b7d2e9f09c4b4fac4490" target="_top" xlink:title="twi_delay">
<polygon fill="white" stroke="black" points="845,-171.5 845,-190.5 903,-190.5 903,-171.5 845,-171.5"/>
<text text-anchor="middle" x="874" y="-178.5" font-family="Helvetica,sans-Serif" font-size="10.00">twi_delay</text>
</a>
</g>
<!-- Node7&#45;&gt;Node8 -->
<g id="edge14" class="edge"><title>Node7&#45;&gt;Node8</title>
<path fill="none" stroke="midnightblue" d="M789.262,-152.589C803.19,-157.314 820.18,-163.079 835.207,-168.177"/>
<polygon fill="midnightblue" stroke="midnightblue" points="834.152,-171.515 844.747,-171.414 836.401,-164.887 834.152,-171.515"/>
</g>
<!-- Node9&#45;&gt;Node8 -->
<g id="edge18" class="edge"><title>Node9&#45;&gt;Node8</title>
<path fill="none" stroke="midnightblue" d="M795.518,-181C807.87,-181 821.867,-181 834.532,-181"/>
<polygon fill="midnightblue" stroke="midnightblue" points="834.793,-184.5 844.793,-181 834.793,-177.5 834.793,-184.5"/>
</g>
<!-- Node10&#45;&gt;Node8 -->
<g id="edge22" class="edge"><title>Node10&#45;&gt;Node8</title>
<path fill="none" stroke="midnightblue" d="M789.262,-209.411C803.19,-204.686 820.18,-198.921 835.207,-193.823"/>
<polygon fill="midnightblue" stroke="midnightblue" points="836.401,-197.113 844.747,-190.586 834.152,-190.485 836.401,-197.113"/>
</g>
<!-- Node11&#45;&gt;Node6 -->
<g id="edge26" class="edge"><title>Node11&#45;&gt;Node6</title>
<path fill="none" stroke="midnightblue" d="M542.245,-229.091C559.162,-224.107 580.509,-217.819 599.024,-212.365"/>
<polygon fill="midnightblue" stroke="midnightblue" points="600.086,-215.701 608.69,-209.518 598.108,-208.986 600.086,-215.701"/>
</g>
<!-- Node14 -->
<g id="node30" class="node"><title>Node14</title>
<a xlink:href="../../db/d85/display_8c.xhtml#a6f2d5cdda31a73b43a569cb3d1a64165" target="_top" xlink:title="Displays several consecutive characters.">
<polygon fill="white" stroke="black" points="472.5,-38.5 472.5,-57.5 549.5,-57.5 549.5,-38.5 472.5,-38.5"/>
<text text-anchor="middle" x="511" y="-45.5" font-family="Helvetica,sans-Serif" font-size="10.00">display_chars</text>
</a>
</g>
<!-- Node13&#45;&gt;Node14 -->
<g id="edge32" class="edge"><title>Node13&#45;&gt;Node14</title>
<path fill="none" stroke="midnightblue" d="M383.889,-114.305C401.521,-102.256 433.125,-81.515 462,-67 465.829,-65.0754 469.901,-63.2069 473.994,-61.4408"/>
<polygon fill="midnightblue" stroke="midnightblue" points="475.565,-64.5788 483.472,-57.5271 472.893,-58.1087 475.565,-64.5788"/>
</g>
<!-- Node18 -->
<g id="node38" class="node"><title>Node18</title>
<a xlink:href="../../db/d85/display_8c.xhtml#a9047d98cd15ffbc79e15c63fca36d70b" target="_top" xlink:title="pseudo sprintf function">
<polygon fill="white" stroke="black" points="486.5,-114.5 486.5,-133.5 535.5,-133.5 535.5,-114.5 486.5,-114.5"/>
<text text-anchor="middle" x="511" y="-121.5" font-family="Helvetica,sans-Serif" font-size="10.00">_sprintf</text>
</a>
</g>
<!-- Node13&#45;&gt;Node18 -->
<g id="edge40" class="edge"><title>Node13&#45;&gt;Node18</title>
<path fill="none" stroke="midnightblue" d="M411.247,-124C431.936,-124 456.68,-124 476.224,-124"/>
<polygon fill="midnightblue" stroke="midnightblue" points="476.488,-127.5 486.488,-124 476.488,-120.5 476.488,-127.5"/>
</g>
<!-- Node15 -->
<g id="node32" class="node"><title>Node15</title>
<a xlink:href="../../db/d85/display_8c.xhtml#a3ae30196af91197037d50cb49de1d109" target="_top" xlink:title="Displays a single character.">
<polygon fill="white" stroke="black" points="606.5,-38.5 606.5,-57.5 677.5,-57.5 677.5,-38.5 606.5,-38.5"/>
<text text-anchor="middle" x="642" y="-45.5" font-family="Helvetica,sans-Serif" font-size="10.00">display_char</text>
</a>
</g>
<!-- Node14&#45;&gt;Node15 -->
<g id="edge34" class="edge"><title>Node14&#45;&gt;Node15</title>
<path fill="none" stroke="midnightblue" d="M549.659,-48C564.161,-48 580.865,-48 595.992,-48"/>
<polygon fill="midnightblue" stroke="midnightblue" points="596.165,-51.5001 606.165,-48 596.165,-44.5001 596.165,-51.5001"/>
</g>
<!-- Node16 -->
<g id="node34" class="node"><title>Node16</title>
<a xlink:href="../../db/d85/display_8c.xhtml#a9275035317878022cf9eacf6b0a5be72" target="_top" xlink:title="Display a custom collection of segments.">
<polygon fill="white" stroke="black" points="726,-38.5 726,-57.5 794,-57.5 794,-38.5 726,-38.5"/>
<text text-anchor="middle" x="760" y="-45.5" font-family="Helvetica,sans-Serif" font-size="10.00">display_bits</text>
</a>
</g>
<!-- Node15&#45;&gt;Node16 -->
<g id="edge36" class="edge"><title>Node15&#45;&gt;Node16</title>
<path fill="none" stroke="midnightblue" d="M677.804,-48C689.691,-48 703.135,-48 715.613,-48"/>
<polygon fill="midnightblue" stroke="midnightblue" points="715.812,-51.5001 725.812,-48 715.812,-44.5001 715.812,-51.5001"/>
</g>
<!-- Node17 -->
<g id="node36" class="node"><title>Node17</title>
<a xlink:href="../../db/d85/display_8c.xhtml#a710739913e8ea1b71dd433b8311211fd" target="_top" xlink:title="write_lcd_mem">
<polygon fill="white" stroke="black" points="832.5,-19.5 832.5,-38.5 915.5,-38.5 915.5,-19.5 832.5,-19.5"/>
<text text-anchor="middle" x="874" y="-26.5" font-family="Helvetica,sans-Serif" font-size="10.00">write_lcd_mem</text>
</a>
</g>
<!-- Node16&#45;&gt;Node17 -->
<g id="edge38" class="edge"><title>Node16&#45;&gt;Node17</title>
<path fill="none" stroke="midnightblue" d="M794.3,-42.3508C803.202,-40.8407 813.025,-39.1744 822.624,-37.5459"/>
<polygon fill="midnightblue" stroke="midnightblue" points="823.226,-40.9939 832.5,-35.8706 822.055,-34.0925 823.226,-40.9939"/>
</g>
<!-- Node20 -->
<g id="node42" class="node"><title>Node20</title>
<a xlink:href="../../d8/d28/vti__ps_8c.xhtml#af2ab66da002d7051cd8e27b63bb04d06" target="_top" xlink:title="ps_write_register">
<polygon fill="white" stroke="black" points="596.5,-133.5 596.5,-152.5 687.5,-152.5 687.5,-133.5 596.5,-133.5"/>
<text text-anchor="middle" x="642" y="-140.5" font-family="Helvetica,sans-Serif" font-size="10.00">ps_write_register</text>
</a>
</g>
<!-- Node19&#45;&gt;Node20 -->
<g id="edge44" class="edge"><title>Node19&#45;&gt;Node20</title>
<path fill="none" stroke="midnightblue" d="M536.539,-95.3762C544.103,-98.3566 552.431,-101.73 560,-105 577.595,-112.601 597.046,-121.703 612.477,-129.093"/>
<polygon fill="midnightblue" stroke="midnightblue" points="610.984,-132.259 621.513,-133.444 614.022,-125.952 610.984,-132.259"/>
</g>
<!-- Node21 -->
<g id="node46" class="node"><title>Node21</title>
<a xlink:href="../../df/d41/timer_8c.xhtml#adc3302861aee9d7f4a1c4c6d25d07343" target="_top" xlink:title="1ms &#45; 1s programmable delay">
<polygon fill="white" stroke="black" points="606,-76.5 606,-95.5 678,-95.5 678,-76.5 606,-76.5"/>
<text text-anchor="middle" x="642" y="-83.5" font-family="Helvetica,sans-Serif" font-size="10.00">timer0_delay</text>
</a>
</g>
<!-- Node19&#45;&gt;Node21 -->
<g id="edge50" class="edge"><title>Node19&#45;&gt;Node21</title>
<path fill="none" stroke="midnightblue" d="M536.568,-86C553.251,-86 575.81,-86 595.693,-86"/>
<polygon fill="midnightblue" stroke="midnightblue" points="595.801,-89.5001 605.801,-86 595.801,-82.5001 595.801,-89.5001"/>
</g>
<!-- Node20&#45;&gt;Node7 -->
<g id="edge46" class="edge"><title>Node20&#45;&gt;Node7</title>
<path fill="none" stroke="midnightblue" d="M687.517,-143C697.089,-143 707.179,-143 716.665,-143"/>
<polygon fill="midnightblue" stroke="midnightblue" points="716.668,-146.5 726.668,-143 716.668,-139.5 716.668,-146.5"/>
</g>
<!-- Node20&#45;&gt;Node9 -->
<g id="edge48" class="edge"><title>Node20&#45;&gt;Node9</title>
<path fill="none" stroke="midnightblue" d="M672.272,-152.589C686.697,-157.314 704.293,-163.079 719.857,-168.177"/>
<polygon fill="midnightblue" stroke="midnightblue" points="719.145,-171.627 729.738,-171.414 721.324,-164.975 719.145,-171.627"/>
</g>
<!-- Node22&#45;&gt;Node14 -->
<g id="edge54" class="edge"><title>Node22&#45;&gt;Node14</title>
<path fill="none" stroke="midnightblue" d="M242.067,-48C296.78,-48 400.834,-48 461.922,-48"/>
<polygon fill="midnightblue" stroke="midnightblue" points="462.075,-51.5001 472.075,-48 462.075,-44.5001 462.075,-51.5001"/>
</g>
<!-- Node23 -->
<g id="node51" class="node"><title>Node23</title>
<a xlink:href="../../db/d85/display_8c.xhtml#af604e78dcc4e0f1a204b2180c5e54957" target="_top" xlink:title="Displays a symbol.">
<polygon fill="white" stroke="black" points="327,-0.5 327,-19.5 411,-19.5 411,-0.5 327,-0.5"/>
<text text-anchor="middle" x="369" y="-7.5" font-family="Helvetica,sans-Serif" font-size="10.00">display_symbol</text>
</a>
</g>
<!-- Node22&#45;&gt;Node23 -->
<g id="edge56" class="edge"><title>Node22&#45;&gt;Node23</title>
<path fill="none" stroke="midnightblue" d="M242.356,-39.4721C264.575,-34.2601 293.313,-27.5192 317.695,-21.7999"/>
<polygon fill="midnightblue" stroke="midnightblue" points="318.56,-25.192 327.497,-19.5007 316.962,-18.377 318.56,-25.192"/>
</g>
<!-- Node23&#45;&gt;Node17 -->
<g id="edge58" class="edge"><title>Node23&#45;&gt;Node17</title>
<path fill="none" stroke="midnightblue" d="M411.163,-11.5548C502.6,-15.0088 722.407,-23.3116 822.193,-27.0808"/>
<polygon fill="midnightblue" stroke="midnightblue" points="822.2,-30.5835 832.325,-27.4636 822.464,-23.5885 822.2,-30.5835"/>
</g>
<!-- Node24&#45;&gt;Node23 -->
<g id="edge62" class="edge"><title>Node24&#45;&gt;Node23</title>
<path fill="none" stroke="midnightblue" d="M257.703,-10C276.533,-10 297.803,-10 316.605,-10"/>
<polygon fill="midnightblue" stroke="midnightblue" points="316.766,-13.5001 326.766,-10 316.766,-6.5001 316.766,-13.5001"/>
</g>
</g>
</svg>
