<?xml version="1.0" encoding="UTF-8" standalone="no"?>
<!DOCTYPE svg PUBLIC "-//W3C//DTD SVG 1.1//EN"
 "http://www.w3.org/Graphics/SVG/1.1/DTD/svg11.dtd">
<!-- Generated by graphviz version 2.28.0 (20121221.0049)
 -->
<!-- Title: edit_save Pages: 1 -->
<svg width="702pt" height="180pt"
 viewBox="0.00 0.00 702.00 180.00" xmlns="http://www.w3.org/2000/svg" xmlns:xlink="http://www.w3.org/1999/xlink">
<g id="graph1" class="graph" transform="scale(1 1) rotate(0) translate(4 176)">
<title>edit_save</title>
<polygon fill="white" stroke="white" points="-4,5 -4,-176 699,-176 699,5 -4,5"/>
<!-- Node1 -->
<g id="node1" class="node"><title>Node1</title>
<polygon fill="#bfbfbf" stroke="black" points="0.5,-38.5 0.5,-57.5 59.5,-57.5 59.5,-38.5 0.5,-38.5"/>
<text text-anchor="middle" x="30" y="-45.5" font-family="Helvetica,sans-Serif" font-size="10.00">edit_save</text>
</g>
<!-- Node2 -->
<g id="node3" class="node"><title>Node2</title>
<a xlink:href="../../dd/d09/altitude_8c.xhtml#a6b117227c1c8f3009385a8382ee2fb25" target="_top" xlink:title="altitude_reconfigure">
<polygon fill="white" stroke="black" points="97.5,-95.5 97.5,-114.5 198.5,-114.5 198.5,-95.5 97.5,-95.5"/>
<text text-anchor="middle" x="148" y="-102.5" font-family="Helvetica,sans-Serif" font-size="10.00">altitude_reconfigure</text>
</a>
</g>
<!-- Node1&#45;&gt;Node2 -->
<g id="edge2" class="edge"><title>Node1&#45;&gt;Node2</title>
<path fill="none" stroke="midnightblue" d="M50.4158,-57.5405C68.9848,-66.665 97.2105,-80.5344 118.361,-90.9274"/>
<polygon fill="midnightblue" stroke="midnightblue" points="117.002,-94.1594 127.521,-95.4284 120.089,-87.8769 117.002,-94.1594"/>
</g>
<!-- Node11 -->
<g id="node24" class="node"><title>Node11</title>
<a xlink:href="../../db/d85/display_8c.xhtml#a6f2d5cdda31a73b43a569cb3d1a64165" target="_top" xlink:title="Displays several consecutive characters.">
<polygon fill="white" stroke="black" points="109.5,-38.5 109.5,-57.5 186.5,-57.5 186.5,-38.5 109.5,-38.5"/>
<text text-anchor="middle" x="148" y="-45.5" font-family="Helvetica,sans-Serif" font-size="10.00">display_chars</text>
</a>
</g>
<!-- Node1&#45;&gt;Node11 -->
<g id="edge26" class="edge"><title>Node1&#45;&gt;Node11</title>
<path fill="none" stroke="midnightblue" d="M59.6742,-48C71.65,-48 85.8895,-48 99.3587,-48"/>
<polygon fill="midnightblue" stroke="midnightblue" points="99.4583,-51.5001 109.458,-48 99.4583,-44.5001 99.4583,-51.5001"/>
</g>
<!-- Node15 -->
<g id="node32" class="node"><title>Node15</title>
<a xlink:href="../../db/d85/display_8c.xhtml#a0e030727a1bc4d1418bb96cc71350203" target="_top" xlink:title="Activates a virtual screen.">
<polygon fill="white" stroke="black" points="96,-0.5 96,-19.5 200,-19.5 200,-0.5 96,-0.5"/>
<text text-anchor="middle" x="148" y="-7.5" font-family="Helvetica,sans-Serif" font-size="10.00">lcd_screen_activate</text>
</a>
</g>
<!-- Node1&#45;&gt;Node15 -->
<g id="edge34" class="edge"><title>Node1&#45;&gt;Node15</title>
<path fill="none" stroke="midnightblue" d="M59.6742,-38.6067C74.3421,-33.8017 92.4057,-27.8843 108.291,-22.6806"/>
<polygon fill="midnightblue" stroke="midnightblue" points="109.436,-25.9884 117.85,-19.5491 107.257,-19.3362 109.436,-25.9884"/>
</g>
<!-- Node3 -->
<g id="node5" class="node"><title>Node3</title>
<a xlink:href="../../d8/d28/vti__ps_8c.xhtml#a58b7096908222f24db9c85082d3e5f3d" target="_top" xlink:title="ps_stop">
<polygon fill="white" stroke="black" points="268.5,-114.5 268.5,-133.5 319.5,-133.5 319.5,-114.5 268.5,-114.5"/>
<text text-anchor="middle" x="294" y="-121.5" font-family="Helvetica,sans-Serif" font-size="10.00">ps_stop</text>
</a>
</g>
<!-- Node2&#45;&gt;Node3 -->
<g id="edge4" class="edge"><title>Node2&#45;&gt;Node3</title>
<path fill="none" stroke="midnightblue" d="M198.557,-111.539C218.279,-114.141 240.498,-117.073 258.427,-119.438"/>
<polygon fill="midnightblue" stroke="midnightblue" points="258.065,-122.921 268.437,-120.759 258.981,-115.981 258.065,-122.921"/>
</g>
<!-- Node9 -->
<g id="node18" class="node"><title>Node9</title>
<a xlink:href="../../d8/d28/vti__ps_8c.xhtml#a194b3e8854517fa03dc6318411d88ba8" target="_top" xlink:title="update_pressure_table">
<polygon fill="white" stroke="black" points="236.5,-76.5 236.5,-95.5 351.5,-95.5 351.5,-76.5 236.5,-76.5"/>
<text text-anchor="middle" x="294" y="-83.5" font-family="Helvetica,sans-Serif" font-size="10.00">update_pressure_table</text>
</a>
</g>
<!-- Node2&#45;&gt;Node9 -->
<g id="edge18" class="edge"><title>Node2&#45;&gt;Node9</title>
<path fill="none" stroke="midnightblue" d="M198.557,-98.4613C207.518,-97.2788 216.996,-96.0283 226.352,-94.7939"/>
<polygon fill="midnightblue" stroke="midnightblue" points="226.97,-98.2427 236.426,-93.4646 226.055,-91.3028 226.97,-98.2427"/>
</g>
<!-- Node10 -->
<g id="node20" class="node"><title>Node10</title>
<a xlink:href="../../d8/d28/vti__ps_8c.xhtml#a212b0d3875c0104d851e6792dc2d6037" target="_top" xlink:title="ps_start">
<polygon fill="white" stroke="black" points="268,-152.5 268,-171.5 320,-171.5 320,-152.5 268,-152.5"/>
<text text-anchor="middle" x="294" y="-159.5" font-family="Helvetica,sans-Serif" font-size="10.00">ps_start</text>
</a>
</g>
<!-- Node2&#45;&gt;Node10 -->
<g id="edge20" class="edge"><title>Node2&#45;&gt;Node10</title>
<path fill="none" stroke="midnightblue" d="M169.525,-114.59C187.019,-122.612 212.921,-134.134 236,-143 243.096,-145.726 250.771,-148.44 258.121,-150.927"/>
<polygon fill="midnightblue" stroke="midnightblue" points="257.262,-154.33 267.856,-154.159 259.468,-147.686 257.262,-154.33"/>
</g>
<!-- Node4 -->
<g id="node7" class="node"><title>Node4</title>
<a xlink:href="../../d8/d28/vti__ps_8c.xhtml#af2ab66da002d7051cd8e27b63bb04d06" target="_top" xlink:title="ps_write_register">
<polygon fill="white" stroke="black" points="388.5,-114.5 388.5,-133.5 479.5,-133.5 479.5,-114.5 388.5,-114.5"/>
<text text-anchor="middle" x="434" y="-121.5" font-family="Helvetica,sans-Serif" font-size="10.00">ps_write_register</text>
</a>
</g>
<!-- Node3&#45;&gt;Node4 -->
<g id="edge6" class="edge"><title>Node3&#45;&gt;Node4</title>
<path fill="none" stroke="midnightblue" d="M319.672,-124C335.987,-124 358.036,-124 378.349,-124"/>
<polygon fill="midnightblue" stroke="midnightblue" points="378.46,-127.5 388.46,-124 378.46,-120.5 378.46,-127.5"/>
</g>
<!-- Node8 -->
<g id="node16" class="node"><title>Node8</title>
<a xlink:href="../../df/d41/timer_8c.xhtml#adc3302861aee9d7f4a1c4c6d25d07343" target="_top" xlink:title="1ms &#45; 1s programmable delay">
<polygon fill="white" stroke="black" points="398,-152.5 398,-171.5 470,-171.5 470,-152.5 398,-152.5"/>
<text text-anchor="middle" x="434" y="-159.5" font-family="Helvetica,sans-Serif" font-size="10.00">timer0_delay</text>
</a>
</g>
<!-- Node3&#45;&gt;Node8 -->
<g id="edge16" class="edge"><title>Node3&#45;&gt;Node8</title>
<path fill="none" stroke="midnightblue" d="M319.672,-130.794C338.783,-136.056 365.764,-143.486 388.605,-149.775"/>
<polygon fill="midnightblue" stroke="midnightblue" points="387.864,-153.201 398.434,-152.482 389.722,-146.453 387.864,-153.201"/>
</g>
<!-- Node5 -->
<g id="node9" class="node"><title>Node5</title>
<a xlink:href="../../d8/d28/vti__ps_8c.xhtml#a5a111736e7d7fbbed73c189ed1d45b81" target="_top" xlink:title="ps_twi_sda">
<polygon fill="white" stroke="black" points="525,-133.5 525,-152.5 591,-152.5 591,-133.5 525,-133.5"/>
<text text-anchor="middle" x="558" y="-140.5" font-family="Helvetica,sans-Serif" font-size="10.00">ps_twi_sda</text>
</a>
</g>
<!-- Node4&#45;&gt;Node5 -->
<g id="edge8" class="edge"><title>Node4&#45;&gt;Node5</title>
<path fill="none" stroke="midnightblue" d="M479.736,-130.967C491.19,-132.751 503.47,-134.663 514.793,-136.427"/>
<polygon fill="midnightblue" stroke="midnightblue" points="514.452,-139.916 524.871,-137.996 515.529,-132.999 514.452,-139.916"/>
</g>
<!-- Node7 -->
<g id="node13" class="node"><title>Node7</title>
<a xlink:href="../../d8/d28/vti__ps_8c.xhtml#a49dfd78503815814186a48488c6a991f" target="_top" xlink:title="ps_twi_write">
<polygon fill="white" stroke="black" points="522.5,-95.5 522.5,-114.5 593.5,-114.5 593.5,-95.5 522.5,-95.5"/>
<text text-anchor="middle" x="558" y="-102.5" font-family="Helvetica,sans-Serif" font-size="10.00">ps_twi_write</text>
</a>
</g>
<!-- Node4&#45;&gt;Node7 -->
<g id="edge12" class="edge"><title>Node4&#45;&gt;Node7</title>
<path fill="none" stroke="midnightblue" d="M479.736,-117.033C490.352,-115.38 501.677,-113.616 512.292,-111.963"/>
<polygon fill="midnightblue" stroke="midnightblue" points="512.863,-115.416 522.206,-110.419 511.786,-108.499 512.863,-115.416"/>
</g>
<!-- Node6 -->
<g id="node11" class="node"><title>Node6</title>
<a xlink:href="../../d8/d28/vti__ps_8c.xhtml#aeec2d2e61bf0b7d2e9f09c4b4fac4490" target="_top" xlink:title="twi_delay">
<polygon fill="white" stroke="black" points="636,-114.5 636,-133.5 694,-133.5 694,-114.5 636,-114.5"/>
<text text-anchor="middle" x="665" y="-121.5" font-family="Helvetica,sans-Serif" font-size="10.00">twi_delay</text>
</a>
</g>
<!-- Node5&#45;&gt;Node6 -->
<g id="edge10" class="edge"><title>Node5&#45;&gt;Node6</title>
<path fill="none" stroke="midnightblue" d="M591.074,-137.196C601.971,-135.224 614.259,-133.001 625.6,-130.949"/>
<polygon fill="midnightblue" stroke="midnightblue" points="626.464,-134.349 635.681,-129.124 625.217,-127.461 626.464,-134.349"/>
</g>
<!-- Node7&#45;&gt;Node6 -->
<g id="edge14" class="edge"><title>Node7&#45;&gt;Node6</title>
<path fill="none" stroke="midnightblue" d="M593.672,-111.274C603.887,-113.122 615.123,-115.156 625.559,-117.044"/>
<polygon fill="midnightblue" stroke="midnightblue" points="625.198,-120.535 635.661,-118.872 626.444,-113.647 625.198,-120.535"/>
</g>
<!-- Node10&#45;&gt;Node4 -->
<g id="edge22" class="edge"><title>Node10&#45;&gt;Node4</title>
<path fill="none" stroke="midnightblue" d="M320.311,-155.03C339.426,-149.767 366.138,-142.411 388.759,-136.182"/>
<polygon fill="midnightblue" stroke="midnightblue" points="389.782,-139.531 398.494,-133.502 387.923,-132.782 389.782,-139.531"/>
</g>
<!-- Node10&#45;&gt;Node8 -->
<g id="edge24" class="edge"><title>Node10&#45;&gt;Node8</title>
<path fill="none" stroke="midnightblue" d="M320.311,-162C339.205,-162 365.523,-162 387.973,-162"/>
<polygon fill="midnightblue" stroke="midnightblue" points="387.976,-165.5 397.976,-162 387.976,-158.5 387.976,-165.5"/>
</g>
<!-- Node12 -->
<g id="node26" class="node"><title>Node12</title>
<a xlink:href="../../db/d85/display_8c.xhtml#a3ae30196af91197037d50cb49de1d109" target="_top" xlink:title="Displays a single character.">
<polygon fill="white" stroke="black" points="258.5,-38.5 258.5,-57.5 329.5,-57.5 329.5,-38.5 258.5,-38.5"/>
<text text-anchor="middle" x="294" y="-45.5" font-family="Helvetica,sans-Serif" font-size="10.00">display_char</text>
</a>
</g>
<!-- Node11&#45;&gt;Node12 -->
<g id="edge28" class="edge"><title>Node11&#45;&gt;Node12</title>
<path fill="none" stroke="midnightblue" d="M186.834,-48C205.623,-48 228.453,-48 248.121,-48"/>
<polygon fill="midnightblue" stroke="midnightblue" points="248.377,-51.5001 258.377,-48 248.377,-44.5001 248.377,-51.5001"/>
</g>
<!-- Node13 -->
<g id="node28" class="node"><title>Node13</title>
<a xlink:href="../../db/d85/display_8c.xhtml#a9275035317878022cf9eacf6b0a5be72" target="_top" xlink:title="Display a custom collection of segments.">
<polygon fill="white" stroke="black" points="400,-38.5 400,-57.5 468,-57.5 468,-38.5 400,-38.5"/>
<text text-anchor="middle" x="434" y="-45.5" font-family="Helvetica,sans-Serif" font-size="10.00">display_bits</text>
</a>
</g>
<!-- Node12&#45;&gt;Node13 -->
<g id="edge30" class="edge"><title>Node12&#45;&gt;Node13</title>
<path fill="none" stroke="midnightblue" d="M329.823,-48C347.962,-48 370.317,-48 389.575,-48"/>
<polygon fill="midnightblue" stroke="midnightblue" points="389.616,-51.5001 399.616,-48 389.616,-44.5001 389.616,-51.5001"/>
</g>
<!-- Node14 -->
<g id="node30" class="node"><title>Node14</title>
<a xlink:href="../../db/d85/display_8c.xhtml#a710739913e8ea1b71dd433b8311211fd" target="_top" xlink:title="write_lcd_mem">
<polygon fill="white" stroke="black" points="516.5,-38.5 516.5,-57.5 599.5,-57.5 599.5,-38.5 516.5,-38.5"/>
<text text-anchor="middle" x="558" y="-45.5" font-family="Helvetica,sans-Serif" font-size="10.00">write_lcd_mem</text>
</a>
</g>
<!-- Node13&#45;&gt;Node14 -->
<g id="edge32" class="edge"><title>Node13&#45;&gt;Node14</title>
<path fill="none" stroke="midnightblue" d="M468.015,-48C479.708,-48 493.153,-48 505.991,-48"/>
<polygon fill="midnightblue" stroke="midnightblue" points="506.112,-51.5001 516.112,-48 506.112,-44.5001 506.112,-51.5001"/>
</g>
<!-- Node16 -->
<g id="node34" class="node"><title>Node16</title>
<a xlink:href="../../d2/df2/openchronos_8c.xhtml#a72f5591868e0c66a539eacdcd0b520d7" target="_top" xlink:title="Increment/decrements value by one without exiting the [lower, upper] interval.">
<polygon fill="white" stroke="black" points="258.5,-0.5 258.5,-19.5 329.5,-19.5 329.5,-0.5 258.5,-0.5"/>
<text text-anchor="middle" x="294" y="-7.5" font-family="Helvetica,sans-Serif" font-size="10.00">helpers_loop</text>
</a>
</g>
<!-- Node15&#45;&gt;Node16 -->
<g id="edge36" class="edge"><title>Node15&#45;&gt;Node16</title>
<path fill="none" stroke="midnightblue" d="M200.174,-10C215.807,-10 232.872,-10 248.058,-10"/>
<polygon fill="midnightblue" stroke="midnightblue" points="248.231,-13.5001 258.231,-10 248.231,-6.5001 248.231,-13.5001"/>
</g>
</g>
</svg>
