<?xml version="1.0" encoding="UTF-8" standalone="no"?>
<!DOCTYPE svg PUBLIC "-//W3C//DTD SVG 1.1//EN"
 "http://www.w3.org/Graphics/SVG/1.1/DTD/svg11.dtd">
<!-- Generated by graphviz version 2.28.0 (20121221.0049)
 -->
<!-- Title: altitude_edit Pages: 1 -->
<!--zoomable 180 -->
<svg id="main" version="1.1" xmlns="http://www.w3.org/2000/svg" xmlns:xlink="http://www.w3.org/1999/xlink" xml:space="preserve" onload="init(evt)">
        <defs>
                <circle id="rim" cx="0" cy="0" r="7"/>
                <circle id="rim2" cx="0" cy="0" r="3.5"/>
                <g id="zoomPlus">
                        <use xlink:href="#rim" fill="#404040">
                                <set attributeName="fill" to="#808080" begin="zoomplus.mouseover" end="zoomplus.mouseout"/>
                        </use>
                        <path d="M-4,0h8M0,-4v8" fill="none" stroke="white" stroke-width="1.5" pointer-events="none"/>
                </g>
                <g id="zoomMin">
                        <use xlink:href="#rim" fill="#404040">
                                <set attributeName="fill" to="#808080" begin="zoomminus.mouseover" end="zoomminus.mouseout"/>
                        </use>
                        <path d="M-4,0h8" fill="none" stroke="white" stroke-width="1.5" pointer-events="none"/>
                </g>
                <g id="dirArrow">
                        <path fill="none" stroke="white" stroke-width="1.5" d="M0,-3.0v7 M-2.5,-0.5L0,-3.0L2.5,-0.5"/>
                </g>
               <g id="resetDef">
                       <use xlink:href="#rim2" fill="#404040">
                               <set attributeName="fill" to="#808080" begin="reset.mouseover" end="reset.mouseout"/>
                       </use>
               </g>
        </defs>

<script type="text/javascript">
var viewWidth = 858;
var viewHeight = 180;
var sectionId = 'dynsection-3';
</script>
<script xlink:href="../../svgpan.js"/>
<svg id="graph" class="graph">
<g id="viewport">
<title>altitude_edit</title>
<polygon fill="white" stroke="white" points="-4,5 -4,-176 855,-176 855,5 -4,5"/>
<!-- Node1 -->
<g id="node1" class="node"><title>Node1</title>
<polygon fill="#bfbfbf" stroke="black" points="0.5,-57.5 0.5,-76.5 69.5,-76.5 69.5,-57.5 0.5,-57.5"/>
<text text-anchor="middle" x="35" y="-64.5" font-family="Helvetica,sans-Serif" font-size="10.00">altitude_edit</text>
</g>
<!-- Node2 -->
<g id="node3" class="node"><title>Node2</title>
<a xlink:href="../../db/d85/display_8c.xhtml#a0e030727a1bc4d1418bb96cc71350203" target="_top" xlink:title="Activates a virtual screen.">
<polygon fill="white" stroke="black" points="252,-114.5 252,-133.5 356,-133.5 356,-114.5 252,-114.5"/>
<text text-anchor="middle" x="304" y="-121.5" font-family="Helvetica,sans-Serif" font-size="10.00">lcd_screen_activate</text>
</a>
</g>
<!-- Node1&#45;&gt;Node2 -->
<g id="edge2" class="edge"><title>Node1&#45;&gt;Node2</title>
<path fill="none" stroke="midnightblue" d="M49.7352,-76.6339C63.3391,-85.6337 85.1067,-98.6114 106,-105 150.132,-118.494 202.181,-123.059 241.693,-124.349"/>
<polygon fill="midnightblue" stroke="midnightblue" points="241.623,-127.849 251.712,-124.616 241.809,-120.851 241.623,-127.849"/>
</g>
<!-- Node4 -->
<g id="node7" class="node"><title>Node4</title>
<a xlink:href="../../db/d85/display_8c.xhtml#a6f2d5cdda31a73b43a569cb3d1a64165" target="_top" xlink:title="Displays several consecutive characters.">
<polygon fill="white" stroke="black" points="265.5,-38.5 265.5,-57.5 342.5,-57.5 342.5,-38.5 265.5,-38.5"/>
<text text-anchor="middle" x="304" y="-45.5" font-family="Helvetica,sans-Serif" font-size="10.00">display_chars</text>
</a>
</g>
<!-- Node1&#45;&gt;Node4 -->
<g id="edge6" class="edge"><title>Node1&#45;&gt;Node4</title>
<path fill="none" stroke="midnightblue" d="M69.5454,-64.6129C116.29,-61.2865 201.292,-55.2377 254.812,-51.4291"/>
<polygon fill="midnightblue" stroke="midnightblue" points="255.349,-54.8998 265.075,-50.6988 254.852,-47.9175 255.349,-54.8998"/>
</g>
<!-- Node8 -->
<g id="node15" class="node"><title>Node8</title>
<a xlink:href="../../d2/df2/openchronos_8c.xhtml#afb7a89cc8739b9788a27e80d8b0d90e9" target="_top" xlink:title="Enters edit mode.">
<polygon fill="white" stroke="black" points="106,-0.5 106,-19.5 216,-19.5 216,-0.5 106,-0.5"/>
<text text-anchor="middle" x="161" y="-7.5" font-family="Helvetica,sans-Serif" font-size="10.00">menu_editmode_start</text>
</a>
</g>
<!-- Node1&#45;&gt;Node8 -->
<g id="edge14" class="edge"><title>Node1&#45;&gt;Node8</title>
<path fill="none" stroke="midnightblue" d="M55.8591,-57.4936C69.842,-50.8354 89.0199,-41.7746 106,-34 113.411,-30.6066 121.424,-27.0077 128.95,-23.6579"/>
<polygon fill="midnightblue" stroke="midnightblue" points="130.42,-26.8351 138.142,-19.582 127.582,-20.436 130.42,-26.8351"/>
</g>
<!-- Node9 -->
<g id="node17" class="node"><title>Node9</title>
<a xlink:href="../../dd/d09/altitude_8c.xhtml#aaf27ce1b2e6b72fd545354a840702d12" target="_top" xlink:title="edit_save">
<polygon fill="white" stroke="black" points="131.5,-76.5 131.5,-95.5 190.5,-95.5 190.5,-76.5 131.5,-76.5"/>
<text text-anchor="middle" x="161" y="-83.5" font-family="Helvetica,sans-Serif" font-size="10.00">edit_save</text>
</a>
</g>
<!-- Node1&#45;&gt;Node9 -->
<g id="edge16" class="edge"><title>Node1&#45;&gt;Node9</title>
<path fill="none" stroke="midnightblue" d="M69.5562,-72.1417C85.5934,-74.599 104.872,-77.553 121.503,-80.1013"/>
<polygon fill="midnightblue" stroke="midnightblue" points="121.048,-83.5724 131.463,-81.6274 122.109,-76.6531 121.048,-83.5724"/>
</g>
<!-- Node3 -->
<g id="node5" class="node"><title>Node3</title>
<a xlink:href="../../d2/df2/openchronos_8c.xhtml#a72f5591868e0c66a539eacdcd0b520d7" target="_top" xlink:title="Increment/decrements value by one without exiting the [lower, upper] interval.">
<polygon fill="white" stroke="black" points="414.5,-152.5 414.5,-171.5 485.5,-171.5 485.5,-152.5 414.5,-152.5"/>
<text text-anchor="middle" x="450" y="-159.5" font-family="Helvetica,sans-Serif" font-size="10.00">helpers_loop</text>
</a>
</g>
<!-- Node2&#45;&gt;Node3 -->
<g id="edge4" class="edge"><title>Node2&#45;&gt;Node3</title>
<path fill="none" stroke="midnightblue" d="M341.337,-133.589C360.439,-138.63 384.022,-144.853 404.242,-150.189"/>
<polygon fill="midnightblue" stroke="midnightblue" points="403.603,-153.64 414.165,-152.807 405.389,-146.872 403.603,-153.64"/>
</g>
<!-- Node5 -->
<g id="node9" class="node"><title>Node5</title>
<a xlink:href="../../db/d85/display_8c.xhtml#a3ae30196af91197037d50cb49de1d109" target="_top" xlink:title="Displays a single character.">
<polygon fill="white" stroke="black" points="414.5,-0.5 414.5,-19.5 485.5,-19.5 485.5,-0.5 414.5,-0.5"/>
<text text-anchor="middle" x="450" y="-7.5" font-family="Helvetica,sans-Serif" font-size="10.00">display_char</text>
</a>
</g>
<!-- Node4&#45;&gt;Node5 -->
<g id="edge8" class="edge"><title>Node4&#45;&gt;Node5</title>
<path fill="none" stroke="midnightblue" d="M341.337,-38.411C360.439,-33.3702 384.022,-27.1471 404.242,-21.8112"/>
<polygon fill="midnightblue" stroke="midnightblue" points="405.389,-25.1284 414.165,-19.1927 403.603,-18.3601 405.389,-25.1284"/>
</g>
<!-- Node6 -->
<g id="node11" class="node"><title>Node6</title>
<a xlink:href="../../db/d85/display_8c.xhtml#a9275035317878022cf9eacf6b0a5be72" target="_top" xlink:title="Display a custom collection of segments.">
<polygon fill="white" stroke="black" points="556,-0.5 556,-19.5 624,-19.5 624,-0.5 556,-0.5"/>
<text text-anchor="middle" x="590" y="-7.5" font-family="Helvetica,sans-Serif" font-size="10.00">display_bits</text>
</a>
</g>
<!-- Node5&#45;&gt;Node6 -->
<g id="edge10" class="edge"><title>Node5&#45;&gt;Node6</title>
<path fill="none" stroke="midnightblue" d="M485.823,-10C503.962,-10 526.317,-10 545.575,-10"/>
<polygon fill="midnightblue" stroke="midnightblue" points="545.616,-13.5001 555.616,-10 545.616,-6.5001 545.616,-13.5001"/>
</g>
<!-- Node7 -->
<g id="node13" class="node"><title>Node7</title>
<a xlink:href="../../db/d85/display_8c.xhtml#a710739913e8ea1b71dd433b8311211fd" target="_top" xlink:title="write_lcd_mem">
<polygon fill="white" stroke="black" points="672.5,-0.5 672.5,-19.5 755.5,-19.5 755.5,-0.5 672.5,-0.5"/>
<text text-anchor="middle" x="714" y="-7.5" font-family="Helvetica,sans-Serif" font-size="10.00">write_lcd_mem</text>
</a>
</g>
<!-- Node6&#45;&gt;Node7 -->
<g id="edge12" class="edge"><title>Node6&#45;&gt;Node7</title>
<path fill="none" stroke="midnightblue" d="M624.015,-10C635.708,-10 649.153,-10 661.991,-10"/>
<polygon fill="midnightblue" stroke="midnightblue" points="662.112,-13.5001 672.112,-10 662.112,-6.5001 662.112,-13.5001"/>
</g>
<!-- Node9&#45;&gt;Node2 -->
<g id="edge44" class="edge"><title>Node9&#45;&gt;Node2</title>
<path fill="none" stroke="midnightblue" d="M190.533,-93.6899C209.793,-98.8805 235.623,-105.842 257.672,-111.784"/>
<polygon fill="midnightblue" stroke="midnightblue" points="256.933,-115.21 267.499,-114.432 258.755,-108.451 256.933,-115.21"/>
</g>
<!-- Node9&#45;&gt;Node4 -->
<g id="edge42" class="edge"><title>Node9&#45;&gt;Node4</title>
<path fill="none" stroke="midnightblue" d="M190.533,-78.3101C209.793,-73.1195 235.623,-66.1582 257.672,-60.216"/>
<polygon fill="midnightblue" stroke="midnightblue" points="258.755,-63.5492 267.499,-57.5675 256.933,-56.7904 258.755,-63.5492"/>
</g>
<!-- Node10 -->
<g id="node19" class="node"><title>Node10</title>
<a xlink:href="../../dd/d09/altitude_8c.xhtml#a6b117227c1c8f3009385a8382ee2fb25" target="_top" xlink:title="altitude_reconfigure">
<polygon fill="white" stroke="black" points="253.5,-76.5 253.5,-95.5 354.5,-95.5 354.5,-76.5 253.5,-76.5"/>
<text text-anchor="middle" x="304" y="-83.5" font-family="Helvetica,sans-Serif" font-size="10.00">altitude_reconfigure</text>
</a>
</g>
<!-- Node9&#45;&gt;Node10 -->
<g id="edge18" class="edge"><title>Node9&#45;&gt;Node10</title>
<path fill="none" stroke="midnightblue" d="M190.533,-86C205.742,-86 225.048,-86 243.353,-86"/>
<polygon fill="midnightblue" stroke="midnightblue" points="243.388,-89.5001 253.388,-86 243.388,-82.5001 243.388,-89.5001"/>
</g>
<!-- Node11 -->
<g id="node21" class="node"><title>Node11</title>
<a xlink:href="../../d8/d28/vti__ps_8c.xhtml#a58b7096908222f24db9c85082d3e5f3d" target="_top" xlink:title="ps_stop">
<polygon fill="white" stroke="black" points="424.5,-76.5 424.5,-95.5 475.5,-95.5 475.5,-76.5 424.5,-76.5"/>
<text text-anchor="middle" x="450" y="-83.5" font-family="Helvetica,sans-Serif" font-size="10.00">ps_stop</text>
</a>
</g>
<!-- Node10&#45;&gt;Node11 -->
<g id="edge20" class="edge"><title>Node10&#45;&gt;Node11</title>
<path fill="none" stroke="midnightblue" d="M354.557,-86C374.279,-86 396.498,-86 414.427,-86"/>
<polygon fill="midnightblue" stroke="midnightblue" points="414.437,-89.5001 424.437,-86 414.437,-82.5001 414.437,-89.5001"/>
</g>
<!-- Node17 -->
<g id="node34" class="node"><title>Node17</title>
<a xlink:href="../../d8/d28/vti__ps_8c.xhtml#a194b3e8854517fa03dc6318411d88ba8" target="_top" xlink:title="update_pressure_table">
<polygon fill="white" stroke="black" points="392.5,-38.5 392.5,-57.5 507.5,-57.5 507.5,-38.5 392.5,-38.5"/>
<text text-anchor="middle" x="450" y="-45.5" font-family="Helvetica,sans-Serif" font-size="10.00">update_pressure_table</text>
</a>
</g>
<!-- Node10&#45;&gt;Node17 -->
<g id="edge34" class="edge"><title>Node10&#45;&gt;Node17</title>
<path fill="none" stroke="midnightblue" d="M341.337,-76.411C360.083,-71.4642 383.143,-65.3789 403.107,-60.1108"/>
<polygon fill="midnightblue" stroke="midnightblue" points="404.148,-63.4558 412.924,-57.5201 402.362,-56.6875 404.148,-63.4558"/>
</g>
<!-- Node18 -->
<g id="node36" class="node"><title>Node18</title>
<a xlink:href="../../d8/d28/vti__ps_8c.xhtml#a212b0d3875c0104d851e6792dc2d6037" target="_top" xlink:title="ps_start">
<polygon fill="white" stroke="black" points="424,-114.5 424,-133.5 476,-133.5 476,-114.5 424,-114.5"/>
<text text-anchor="middle" x="450" y="-121.5" font-family="Helvetica,sans-Serif" font-size="10.00">ps_start</text>
</a>
</g>
<!-- Node10&#45;&gt;Node18 -->
<g id="edge36" class="edge"><title>Node10&#45;&gt;Node18</title>
<path fill="none" stroke="midnightblue" d="M341.337,-95.589C363.491,-101.435 391.67,-108.871 413.643,-114.67"/>
<polygon fill="midnightblue" stroke="midnightblue" points="413.004,-118.121 423.566,-117.288 414.791,-111.353 413.004,-118.121"/>
</g>
<!-- Node12 -->
<g id="node23" class="node"><title>Node12</title>
<a xlink:href="../../d8/d28/vti__ps_8c.xhtml#af2ab66da002d7051cd8e27b63bb04d06" target="_top" xlink:title="ps_write_register">
<polygon fill="white" stroke="black" points="544.5,-76.5 544.5,-95.5 635.5,-95.5 635.5,-76.5 544.5,-76.5"/>
<text text-anchor="middle" x="590" y="-83.5" font-family="Helvetica,sans-Serif" font-size="10.00">ps_write_register</text>
</a>
</g>
<!-- Node11&#45;&gt;Node12 -->
<g id="edge22" class="edge"><title>Node11&#45;&gt;Node12</title>
<path fill="none" stroke="midnightblue" d="M475.672,-86C491.987,-86 514.036,-86 534.349,-86"/>
<polygon fill="midnightblue" stroke="midnightblue" points="534.46,-89.5001 544.46,-86 534.46,-82.5001 534.46,-89.5001"/>
</g>
<!-- Node16 -->
<g id="node32" class="node"><title>Node16</title>
<a xlink:href="../../df/d41/timer_8c.xhtml#adc3302861aee9d7f4a1c4c6d25d07343" target="_top" xlink:title="1ms &#45; 1s programmable delay">
<polygon fill="white" stroke="black" points="554,-114.5 554,-133.5 626,-133.5 626,-114.5 554,-114.5"/>
<text text-anchor="middle" x="590" y="-121.5" font-family="Helvetica,sans-Serif" font-size="10.00">timer0_delay</text>
</a>
</g>
<!-- Node11&#45;&gt;Node16 -->
<g id="edge32" class="edge"><title>Node11&#45;&gt;Node16</title>
<path fill="none" stroke="midnightblue" d="M475.672,-92.7936C494.783,-98.0563 521.764,-105.486 544.605,-111.775"/>
<polygon fill="midnightblue" stroke="midnightblue" points="543.864,-115.201 554.434,-114.482 545.722,-108.453 543.864,-115.201"/>
</g>
<!-- Node13 -->
<g id="node25" class="node"><title>Node13</title>
<a xlink:href="../../d8/d28/vti__ps_8c.xhtml#a5a111736e7d7fbbed73c189ed1d45b81" target="_top" xlink:title="ps_twi_sda">
<polygon fill="white" stroke="black" points="681,-95.5 681,-114.5 747,-114.5 747,-95.5 681,-95.5"/>
<text text-anchor="middle" x="714" y="-102.5" font-family="Helvetica,sans-Serif" font-size="10.00">ps_twi_sda</text>
</a>
</g>
<!-- Node12&#45;&gt;Node13 -->
<g id="edge24" class="edge"><title>Node12&#45;&gt;Node13</title>
<path fill="none" stroke="midnightblue" d="M635.736,-92.967C647.19,-94.7509 659.47,-96.6634 670.793,-98.4268"/>
<polygon fill="midnightblue" stroke="midnightblue" points="670.452,-101.916 680.871,-99.9963 671.529,-94.9991 670.452,-101.916"/>
</g>
<!-- Node15 -->
<g id="node29" class="node"><title>Node15</title>
<a xlink:href="../../d8/d28/vti__ps_8c.xhtml#a49dfd78503815814186a48488c6a991f" target="_top" xlink:title="ps_twi_write">
<polygon fill="white" stroke="black" points="678.5,-57.5 678.5,-76.5 749.5,-76.5 749.5,-57.5 678.5,-57.5"/>
<text text-anchor="middle" x="714" y="-64.5" font-family="Helvetica,sans-Serif" font-size="10.00">ps_twi_write</text>
</a>
</g>
<!-- Node12&#45;&gt;Node15 -->
<g id="edge28" class="edge"><title>Node12&#45;&gt;Node15</title>
<path fill="none" stroke="midnightblue" d="M635.736,-79.033C646.352,-77.3796 657.677,-75.6159 668.292,-73.9627"/>
<polygon fill="midnightblue" stroke="midnightblue" points="668.863,-77.416 678.206,-72.4188 667.786,-70.4994 668.863,-77.416"/>
</g>
<!-- Node14 -->
<g id="node27" class="node"><title>Node14</title>
<a xlink:href="../../d8/d28/vti__ps_8c.xhtml#aeec2d2e61bf0b7d2e9f09c4b4fac4490" target="_top" xlink:title="twi_delay">
<polygon fill="white" stroke="black" points="792,-76.5 792,-95.5 850,-95.5 850,-76.5 792,-76.5"/>
<text text-anchor="middle" x="821" y="-83.5" font-family="Helvetica,sans-Serif" font-size="10.00">twi_delay</text>
</a>
</g>
<!-- Node13&#45;&gt;Node14 -->
<g id="edge26" class="edge"><title>Node13&#45;&gt;Node14</title>
<path fill="none" stroke="midnightblue" d="M747.074,-99.1961C757.971,-97.2243 770.259,-95.0007 781.6,-92.9486"/>
<polygon fill="midnightblue" stroke="midnightblue" points="782.464,-96.3492 791.681,-91.1245 781.217,-89.4611 782.464,-96.3492"/>
</g>
<!-- Node15&#45;&gt;Node14 -->
<g id="edge30" class="edge"><title>Node15&#45;&gt;Node14</title>
<path fill="none" stroke="midnightblue" d="M749.672,-73.274C759.887,-75.1223 771.123,-77.1556 781.559,-79.044"/>
<polygon fill="midnightblue" stroke="midnightblue" points="781.198,-82.5354 791.661,-80.872 782.444,-75.6473 781.198,-82.5354"/>
</g>
<!-- Node18&#45;&gt;Node12 -->
<g id="edge38" class="edge"><title>Node18&#45;&gt;Node12</title>
<path fill="none" stroke="midnightblue" d="M476.311,-117.03C495.426,-111.767 522.138,-104.411 544.759,-98.1824"/>
<polygon fill="midnightblue" stroke="midnightblue" points="545.782,-101.531 554.494,-95.5017 543.923,-94.7822 545.782,-101.531"/>
</g>
<!-- Node18&#45;&gt;Node16 -->
<g id="edge40" class="edge"><title>Node18&#45;&gt;Node16</title>
<path fill="none" stroke="midnightblue" d="M476.311,-124C495.205,-124 521.523,-124 543.973,-124"/>
<polygon fill="midnightblue" stroke="midnightblue" points="543.976,-127.5 553.976,-124 543.976,-120.5 543.976,-127.5"/>
</g>
</g>
</svg>
        <g id="navigator" transform="translate(0 0)" fill="#404254">
                <rect fill="#f2f5e9" fill-opacity="0.5" stroke="#606060" stroke-width=".5" x="0" y="0" width="60" height="60"/>
                <use id="zoomplus" xlink:href="#zoomPlus" x="17" y="9" onmousedown="handleZoom(evt,'in')"/>
                <use id="zoomminus" xlink:href="#zoomMin" x="42" y="9" onmousedown="handleZoom(evt,'out')"/>
                <use id="reset" xlink:href="#resetDef" x="30" y="36" onmousedown="handleReset()"/>
                <g id="arrowUp" xlink:href="#dirArrow" transform="translate(30 24)" onmousedown="handlePan(0,-1)">
                  <use xlink:href="#rim" fill="#404040">
                        <set attributeName="fill" to="#808080" begin="arrowUp.mouseover" end="arrowUp.mouseout"/>
                  </use>
                  <path fill="none" stroke="white" stroke-width="1.5" d="M0,-3.0v7 M-2.5,-0.5L0,-3.0L2.5,-0.5"/>
                </g>
                <g id="arrowRight" xlink:href="#dirArrow" transform="rotate(90) translate(36 -43)" onmousedown="handlePan(1,0)">
                  <use xlink:href="#rim" fill="#404040">
                        <set attributeName="fill" to="#808080" begin="arrowRight.mouseover" end="arrowRight.mouseout"/>
                  </use>
                  <path fill="none" stroke="white" stroke-width="1.5" d="M0,-3.0v7 M-2.5,-0.5L0,-3.0L2.5,-0.5"/>
                </g>
                <g id="arrowDown" xlink:href="#dirArrow" transform="rotate(180) translate(-30 -48)" onmousedown="handlePan(0,1)">
                  <use xlink:href="#rim" fill="#404040">
                        <set attributeName="fill" to="#808080" begin="arrowDown.mouseover" end="arrowDown.mouseout"/>
                  </use>
                  <path fill="none" stroke="white" stroke-width="1.5" d="M0,-3.0v7 M-2.5,-0.5L0,-3.0L2.5,-0.5"/>
                </g>
                <g id="arrowLeft" xlink:href="#dirArrow" transform="rotate(270) translate(-36 17)" onmousedown="handlePan(-1,0)">
                  <use xlink:href="#rim" fill="#404040">
                        <set attributeName="fill" to="#808080" begin="arrowLeft.mouseover" end="arrowLeft.mouseout"/>
                  </use>
                  <path fill="none" stroke="white" stroke-width="1.5" d="M0,-3.0v7 M-2.5,-0.5L0,-3.0L2.5,-0.5"/>
                </g>
        </g>
        <svg viewBox="0 0 15 15" width="100%" height="30px" preserveAspectRatio="xMaxYMin meet">
         <g id="arrow_out" transform="scale(0.3 0.3)">
          <a xlink:href="altitude_8c_a1c5780aafb0e259eb34bb95dcb952d2b_cgraph_org.svg" target="_base">
           <rect id="button" ry="5" rx="5" y="6" x="6" height="38" width="38"
                fill="#f2f5e9" fill-opacity="0.5" stroke="#606060" stroke-width="1.0"/>
           <path id="arrow"
             d="M 11.500037,31.436501 C 11.940474,20.09759 22.043105,11.32322 32.158766,21.979434 L 37.068811,17.246167 C 37.068811,17.246167 37.088388,32 37.088388,32 L 22.160133,31.978069 C 22.160133,31.978069 26.997745,27.140456 26.997745,27.140456 C 18.528582,18.264221 13.291696,25.230495 11.500037,31.436501 z"
             style="fill:#404040;"/>
          </a>
         </g>
        </svg>
</svg>
