<?xml version="1.0" encoding="UTF-8" standalone="no"?>
<!DOCTYPE svg PUBLIC "-//W3C//DTD SVG 1.1//EN"
 "http://www.w3.org/Graphics/SVG/1.1/DTD/svg11.dtd">
<!-- Generated by graphviz version 2.28.0 (20121221.0049)
 -->
<!-- Title: altitude_measurement Pages: 1 -->
<!--zoomable 123 -->
<svg id="main" version="1.1" xmlns="http://www.w3.org/2000/svg" xmlns:xlink="http://www.w3.org/1999/xlink" xml:space="preserve" onload="init(evt)">
        <defs>
                <circle id="rim" cx="0" cy="0" r="7"/>
                <circle id="rim2" cx="0" cy="0" r="3.5"/>
                <g id="zoomPlus">
                        <use xlink:href="#rim" fill="#404040">
                                <set attributeName="fill" to="#808080" begin="zoomplus.mouseover" end="zoomplus.mouseout"/>
                        </use>
                        <path d="M-4,0h8M0,-4v8" fill="none" stroke="white" stroke-width="1.5" pointer-events="none"/>
                </g>
                <g id="zoomMin">
                        <use xlink:href="#rim" fill="#404040">
                                <set attributeName="fill" to="#808080" begin="zoomminus.mouseover" end="zoomminus.mouseout"/>
                        </use>
                        <path d="M-4,0h8" fill="none" stroke="white" stroke-width="1.5" pointer-events="none"/>
                </g>
                <g id="dirArrow">
                        <path fill="none" stroke="white" stroke-width="1.5" d="M0,-3.0v7 M-2.5,-0.5L0,-3.0L2.5,-0.5"/>
                </g>
               <g id="resetDef">
                       <use xlink:href="#rim2" fill="#404040">
                               <set attributeName="fill" to="#808080" begin="reset.mouseover" end="reset.mouseout"/>
                       </use>
               </g>
        </defs>

<script type="text/javascript">
var viewWidth = 584;
var viewHeight = 123;
var sectionId = 'dynsection-4';
</script>
<script xlink:href="../../svgpan.js"/>
<svg id="graph" class="graph">
<g id="viewport">
<title>altitude_measurement</title>
<polygon fill="white" stroke="white" points="-4,5 -4,-119 581,-119 581,5 -4,5"/>
<!-- Node1 -->
<g id="node1" class="node"><title>Node1</title>
<polygon fill="#bfbfbf" stroke="black" points="0.5,-38.5 0.5,-57.5 113.5,-57.5 113.5,-38.5 0.5,-38.5"/>
<text text-anchor="middle" x="57" y="-45.5" font-family="Helvetica,sans-Serif" font-size="10.00">altitude_measurement</text>
</g>
<!-- Node2 -->
<g id="node3" class="node"><title>Node2</title>
<a xlink:href="../../d8/d28/vti__ps_8c.xhtml#a9ede906177cc352bf1779ad77b31adfd" target="_top" xlink:title="ps_get_temp">
<polygon fill="white" stroke="black" points="162.5,-76.5 162.5,-95.5 235.5,-95.5 235.5,-76.5 162.5,-76.5"/>
<text text-anchor="middle" x="199" y="-83.5" font-family="Helvetica,sans-Serif" font-size="10.00">ps_get_temp</text>
</a>
</g>
<!-- Node1&#45;&gt;Node2 -->
<g id="edge2" class="edge"><title>Node1&#45;&gt;Node2</title>
<path fill="none" stroke="midnightblue" d="M93.3279,-57.589C111.401,-62.4944 133.598,-68.5196 152.895,-73.7571"/>
<polygon fill="midnightblue" stroke="midnightblue" points="152.116,-77.1723 162.683,-76.4141 153.949,-70.4167 152.116,-77.1723"/>
</g>
<!-- Node8 -->
<g id="node17" class="node"><title>Node8</title>
<a xlink:href="../../d8/d28/vti__ps_8c.xhtml#a8a91cc2854b65a63e9b3882823847b7e" target="_top" xlink:title="ps_get_pa">
<polygon fill="white" stroke="black" points="168,-38.5 168,-57.5 230,-57.5 230,-38.5 168,-38.5"/>
<text text-anchor="middle" x="199" y="-45.5" font-family="Helvetica,sans-Serif" font-size="10.00">ps_get_pa</text>
</a>
</g>
<!-- Node1&#45;&gt;Node8 -->
<g id="edge18" class="edge"><title>Node1&#45;&gt;Node8</title>
<path fill="none" stroke="midnightblue" d="M113.734,-48C128.439,-48 144.021,-48 157.733,-48"/>
<polygon fill="midnightblue" stroke="midnightblue" points="157.809,-51.5001 167.809,-48 157.809,-44.5001 157.809,-51.5001"/>
</g>
<!-- Node9 -->
<g id="node20" class="node"><title>Node9</title>
<a xlink:href="../../d8/d28/vti__ps_8c.xhtml#aa425045d1d3dd394df256d4b0087bc24" target="_top" xlink:title="conv_pa_to_meter">
<polygon fill="white" stroke="black" points="150.5,-0.5 150.5,-19.5 247.5,-19.5 247.5,-0.5 150.5,-0.5"/>
<text text-anchor="middle" x="199" y="-7.5" font-family="Helvetica,sans-Serif" font-size="10.00">conv_pa_to_meter</text>
</a>
</g>
<!-- Node1&#45;&gt;Node9 -->
<g id="edge22" class="edge"><title>Node1&#45;&gt;Node9</title>
<path fill="none" stroke="midnightblue" d="M93.3279,-38.411C111.401,-33.5056 133.598,-27.4804 152.895,-22.2429"/>
<polygon fill="midnightblue" stroke="midnightblue" points="153.949,-25.5833 162.683,-19.5859 152.116,-18.8277 153.949,-25.5833"/>
</g>
<!-- Node3 -->
<g id="node5" class="node"><title>Node3</title>
<a xlink:href="../../d8/d28/vti__ps_8c.xhtml#aa8c959c733fb193f7db8c74889fc8f01" target="_top" xlink:title="ps_read_register">
<polygon fill="white" stroke="black" points="284.5,-57.5 284.5,-76.5 373.5,-76.5 373.5,-57.5 284.5,-57.5"/>
<text text-anchor="middle" x="329" y="-64.5" font-family="Helvetica,sans-Serif" font-size="10.00">ps_read_register</text>
</a>
</g>
<!-- Node2&#45;&gt;Node3 -->
<g id="edge4" class="edge"><title>Node2&#45;&gt;Node3</title>
<path fill="none" stroke="midnightblue" d="M235.655,-80.7074C247.562,-78.9399 261.11,-76.9289 274.09,-75.0023"/>
<polygon fill="midnightblue" stroke="midnightblue" points="274.958,-78.4119 284.336,-73.4814 273.93,-71.4877 274.958,-78.4119"/>
</g>
<!-- Node4 -->
<g id="node7" class="node"><title>Node4</title>
<a xlink:href="../../d8/d28/vti__ps_8c.xhtml#a5a111736e7d7fbbed73c189ed1d45b81" target="_top" xlink:title="ps_twi_sda">
<polygon fill="white" stroke="black" points="413,-95.5 413,-114.5 479,-114.5 479,-95.5 413,-95.5"/>
<text text-anchor="middle" x="446" y="-102.5" font-family="Helvetica,sans-Serif" font-size="10.00">ps_twi_sda</text>
</a>
</g>
<!-- Node3&#45;&gt;Node4 -->
<g id="edge6" class="edge"><title>Node3&#45;&gt;Node4</title>
<path fill="none" stroke="midnightblue" d="M359.019,-76.589C373.32,-81.3144 390.765,-87.0789 406.195,-92.1774"/>
<polygon fill="midnightblue" stroke="midnightblue" points="405.397,-95.5998 415.99,-95.4141 407.593,-88.9532 405.397,-95.5998"/>
</g>
<!-- Node6 -->
<g id="node11" class="node"><title>Node6</title>
<a xlink:href="../../d8/d28/vti__ps_8c.xhtml#a49dfd78503815814186a48488c6a991f" target="_top" xlink:title="ps_twi_write">
<polygon fill="white" stroke="black" points="410.5,-57.5 410.5,-76.5 481.5,-76.5 481.5,-57.5 410.5,-57.5"/>
<text text-anchor="middle" x="446" y="-64.5" font-family="Helvetica,sans-Serif" font-size="10.00">ps_twi_write</text>
</a>
</g>
<!-- Node3&#45;&gt;Node6 -->
<g id="edge10" class="edge"><title>Node3&#45;&gt;Node6</title>
<path fill="none" stroke="midnightblue" d="M373.805,-67C382.379,-67 391.384,-67 399.996,-67"/>
<polygon fill="midnightblue" stroke="midnightblue" points="400.251,-70.5001 410.251,-67 400.251,-63.5001 400.251,-70.5001"/>
</g>
<!-- Node7 -->
<g id="node14" class="node"><title>Node7</title>
<a xlink:href="../../d8/d28/vti__ps_8c.xhtml#acbe3495716ae246bf71d2419dfabed72" target="_top" xlink:title="ps_twi_read">
<polygon fill="white" stroke="black" points="411.5,-19.5 411.5,-38.5 480.5,-38.5 480.5,-19.5 411.5,-19.5"/>
<text text-anchor="middle" x="446" y="-26.5" font-family="Helvetica,sans-Serif" font-size="10.00">ps_twi_read</text>
</a>
</g>
<!-- Node3&#45;&gt;Node7 -->
<g id="edge14" class="edge"><title>Node3&#45;&gt;Node7</title>
<path fill="none" stroke="midnightblue" d="M359.019,-57.411C373.32,-52.6856 390.765,-46.9211 406.195,-41.8226"/>
<polygon fill="midnightblue" stroke="midnightblue" points="407.593,-45.0468 415.99,-38.5859 405.397,-38.4002 407.593,-45.0468"/>
</g>
<!-- Node5 -->
<g id="node9" class="node"><title>Node5</title>
<a xlink:href="../../d8/d28/vti__ps_8c.xhtml#aeec2d2e61bf0b7d2e9f09c4b4fac4490" target="_top" xlink:title="twi_delay">
<polygon fill="white" stroke="black" points="518,-57.5 518,-76.5 576,-76.5 576,-57.5 518,-57.5"/>
<text text-anchor="middle" x="547" y="-64.5" font-family="Helvetica,sans-Serif" font-size="10.00">twi_delay</text>
</a>
</g>
<!-- Node4&#45;&gt;Node5 -->
<g id="edge8" class="edge"><title>Node4&#45;&gt;Node5</title>
<path fill="none" stroke="midnightblue" d="M471.982,-95.411C483.941,-90.8206 498.455,-85.2497 511.451,-80.2612"/>
<polygon fill="midnightblue" stroke="midnightblue" points="512.944,-83.437 521.026,-76.5859 510.436,-76.9019 512.944,-83.437"/>
</g>
<!-- Node6&#45;&gt;Node5 -->
<g id="edge12" class="edge"><title>Node6&#45;&gt;Node5</title>
<path fill="none" stroke="midnightblue" d="M481.625,-67C490.029,-67 499.064,-67 507.63,-67"/>
<polygon fill="midnightblue" stroke="midnightblue" points="507.771,-70.5001 517.771,-67 507.771,-63.5001 507.771,-70.5001"/>
</g>
<!-- Node7&#45;&gt;Node5 -->
<g id="edge16" class="edge"><title>Node7&#45;&gt;Node5</title>
<path fill="none" stroke="midnightblue" d="M471.982,-38.589C483.941,-43.1794 498.455,-48.7503 511.451,-53.7388"/>
<polygon fill="midnightblue" stroke="midnightblue" points="510.436,-57.0981 521.026,-57.4141 512.944,-50.563 510.436,-57.0981"/>
</g>
<!-- Node8&#45;&gt;Node3 -->
<g id="edge20" class="edge"><title>Node8&#45;&gt;Node3</title>
<path fill="none" stroke="midnightblue" d="M230.01,-52.4547C243.099,-54.3974 258.858,-56.7368 273.875,-58.9658"/>
<polygon fill="midnightblue" stroke="midnightblue" points="273.705,-62.4789 284.111,-60.4852 274.733,-55.5547 273.705,-62.4789"/>
</g>
</g>
</svg>
        <g id="navigator" transform="translate(0 0)" fill="#404254">
                <rect fill="#f2f5e9" fill-opacity="0.5" stroke="#606060" stroke-width=".5" x="0" y="0" width="60" height="60"/>
                <use id="zoomplus" xlink:href="#zoomPlus" x="17" y="9" onmousedown="handleZoom(evt,'in')"/>
                <use id="zoomminus" xlink:href="#zoomMin" x="42" y="9" onmousedown="handleZoom(evt,'out')"/>
                <use id="reset" xlink:href="#resetDef" x="30" y="36" onmousedown="handleReset()"/>
                <g id="arrowUp" xlink:href="#dirArrow" transform="translate(30 24)" onmousedown="handlePan(0,-1)">
                  <use xlink:href="#rim" fill="#404040">
                        <set attributeName="fill" to="#808080" begin="arrowUp.mouseover" end="arrowUp.mouseout"/>
                  </use>
                  <path fill="none" stroke="white" stroke-width="1.5" d="M0,-3.0v7 M-2.5,-0.5L0,-3.0L2.5,-0.5"/>
                </g>
                <g id="arrowRight" xlink:href="#dirArrow" transform="rotate(90) translate(36 -43)" onmousedown="handlePan(1,0)">
                  <use xlink:href="#rim" fill="#404040">
                        <set attributeName="fill" to="#808080" begin="arrowRight.mouseover" end="arrowRight.mouseout"/>
                  </use>
                  <path fill="none" stroke="white" stroke-width="1.5" d="M0,-3.0v7 M-2.5,-0.5L0,-3.0L2.5,-0.5"/>
                </g>
                <g id="arrowDown" xlink:href="#dirArrow" transform="rotate(180) translate(-30 -48)" onmousedown="handlePan(0,1)">
                  <use xlink:href="#rim" fill="#404040">
                        <set attributeName="fill" to="#808080" begin="arrowDown.mouseover" end="arrowDown.mouseout"/>
                  </use>
                  <path fill="none" stroke="white" stroke-width="1.5" d="M0,-3.0v7 M-2.5,-0.5L0,-3.0L2.5,-0.5"/>
                </g>
                <g id="arrowLeft" xlink:href="#dirArrow" transform="rotate(270) translate(-36 17)" onmousedown="handlePan(-1,0)">
                  <use xlink:href="#rim" fill="#404040">
                        <set attributeName="fill" to="#808080" begin="arrowLeft.mouseover" end="arrowLeft.mouseout"/>
                  </use>
                  <path fill="none" stroke="white" stroke-width="1.5" d="M0,-3.0v7 M-2.5,-0.5L0,-3.0L2.5,-0.5"/>
                </g>
        </g>
        <svg viewBox="0 0 15 15" width="100%" height="30px" preserveAspectRatio="xMaxYMin meet">
         <g id="arrow_out" transform="scale(0.3 0.3)">
          <a xlink:href="altitude_8c_a4884d6d29145a48a4bbf98acfb0a888f_cgraph_org.svg" target="_base">
           <rect id="button" ry="5" rx="5" y="6" x="6" height="38" width="38"
                fill="#f2f5e9" fill-opacity="0.5" stroke="#606060" stroke-width="1.0"/>
           <path id="arrow"
             d="M 11.500037,31.436501 C 11.940474,20.09759 22.043105,11.32322 32.158766,21.979434 L 37.068811,17.246167 C 37.068811,17.246167 37.088388,32 37.088388,32 L 22.160133,31.978069 C 22.160133,31.978069 26.997745,27.140456 26.997745,27.140456 C 18.528582,18.264221 13.291696,25.230495 11.500037,31.436501 z"
             style="fill:#404040;"/>
          </a>
         </g>
        </svg>
</svg>
