<?xml version="1.0" encoding="UTF-8" standalone="no"?>
<!DOCTYPE svg PUBLIC "-//W3C//DTD SVG 1.1//EN"
 "http://www.w3.org/Graphics/SVG/1.1/DTD/svg11.dtd">
<!-- Generated by graphviz version 2.28.0 (20121221.0049)
 -->
<!-- Title: ps_event Pages: 1 -->
<svg width="702pt" height="199pt"
 viewBox="0.00 0.00 702.00 199.00" xmlns="http://www.w3.org/2000/svg" xmlns:xlink="http://www.w3.org/1999/xlink">
<g id="graph1" class="graph" transform="scale(1 1) rotate(0) translate(4 195)">
<title>ps_event</title>
<polygon fill="white" stroke="white" points="-4,5 -4,-195 699,-195 699,5 -4,5"/>
<!-- Node1 -->
<g id="node1" class="node"><title>Node1</title>
<polygon fill="#bfbfbf" stroke="black" points="0,-66.5 0,-85.5 56,-85.5 56,-66.5 0,-66.5"/>
<text text-anchor="middle" x="28" y="-73.5" font-family="Helvetica,sans-Serif" font-size="10.00">ps_event</text>
</g>
<!-- Node2 -->
<g id="node3" class="node"><title>Node2</title>
<a xlink:href="../../dd/d09/altitude_8c.xhtml#a4884d6d29145a48a4bbf98acfb0a888f" target="_top" xlink:title="altitude_measurement">
<polygon fill="white" stroke="black" points="92.5,-95.5 92.5,-114.5 205.5,-114.5 205.5,-95.5 92.5,-95.5"/>
<text text-anchor="middle" x="149" y="-102.5" font-family="Helvetica,sans-Serif" font-size="10.00">altitude_measurement</text>
</a>
</g>
<!-- Node1&#45;&gt;Node2 -->
<g id="edge2" class="edge"><title>Node1&#45;&gt;Node2</title>
<path fill="none" stroke="midnightblue" d="M56.0029,-82.5805C68.7063,-85.6763 84.2605,-89.4669 98.9396,-93.0441"/>
<polygon fill="midnightblue" stroke="midnightblue" points="98.3721,-96.5082 108.917,-95.4754 100.03,-89.7072 98.3721,-96.5082"/>
</g>
<!-- Node11 -->
<g id="node24" class="node"><title>Node11</title>
<a xlink:href="../../dd/d09/altitude_8c.xhtml#a50710235162aa8e09c6a46ccc2e69927" target="_top" xlink:title="display_altitude">
<polygon fill="white" stroke="black" points="107,-38.5 107,-57.5 191,-57.5 191,-38.5 107,-38.5"/>
<text text-anchor="middle" x="149" y="-45.5" font-family="Helvetica,sans-Serif" font-size="10.00">display_altitude</text>
</a>
</g>
<!-- Node1&#45;&gt;Node11 -->
<g id="edge26" class="edge"><title>Node1&#45;&gt;Node11</title>
<path fill="none" stroke="midnightblue" d="M56.0029,-69.6464C68.372,-66.736 83.4439,-63.1897 97.779,-59.8167"/>
<polygon fill="midnightblue" stroke="midnightblue" points="98.6109,-63.2166 107.543,-57.5192 97.0075,-56.4027 98.6109,-63.2166"/>
</g>
<!-- Node3 -->
<g id="node5" class="node"><title>Node3</title>
<a xlink:href="../../d8/d28/vti__ps_8c.xhtml#a9ede906177cc352bf1779ad77b31adfd" target="_top" xlink:title="ps_get_temp">
<polygon fill="white" stroke="black" points="254.5,-152.5 254.5,-171.5 327.5,-171.5 327.5,-152.5 254.5,-152.5"/>
<text text-anchor="middle" x="291" y="-159.5" font-family="Helvetica,sans-Serif" font-size="10.00">ps_get_temp</text>
</a>
</g>
<!-- Node2&#45;&gt;Node3 -->
<g id="edge4" class="edge"><title>Node2&#45;&gt;Node3</title>
<path fill="none" stroke="midnightblue" d="M173.025,-114.621C191.611,-122.36 218.45,-133.476 242,-143 246.539,-144.835 251.326,-146.753 256.049,-148.633"/>
<polygon fill="midnightblue" stroke="midnightblue" points="254.967,-151.97 265.553,-152.404 257.549,-145.463 254.967,-151.97"/>
</g>
<!-- Node9 -->
<g id="node19" class="node"><title>Node9</title>
<a xlink:href="../../d8/d28/vti__ps_8c.xhtml#a8a91cc2854b65a63e9b3882823847b7e" target="_top" xlink:title="ps_get_pa">
<polygon fill="white" stroke="black" points="260,-114.5 260,-133.5 322,-133.5 322,-114.5 260,-114.5"/>
<text text-anchor="middle" x="291" y="-121.5" font-family="Helvetica,sans-Serif" font-size="10.00">ps_get_pa</text>
</a>
</g>
<!-- Node2&#45;&gt;Node9 -->
<g id="edge20" class="edge"><title>Node2&#45;&gt;Node9</title>
<path fill="none" stroke="midnightblue" d="M205.734,-112.564C220.439,-114.56 236.021,-116.674 249.733,-118.535"/>
<polygon fill="midnightblue" stroke="midnightblue" points="249.429,-122.026 259.809,-119.903 250.371,-115.09 249.429,-122.026"/>
</g>
<!-- Node10 -->
<g id="node22" class="node"><title>Node10</title>
<a xlink:href="../../d8/d28/vti__ps_8c.xhtml#aa425045d1d3dd394df256d4b0087bc24" target="_top" xlink:title="conv_pa_to_meter">
<polygon fill="white" stroke="black" points="242.5,-76.5 242.5,-95.5 339.5,-95.5 339.5,-76.5 242.5,-76.5"/>
<text text-anchor="middle" x="291" y="-83.5" font-family="Helvetica,sans-Serif" font-size="10.00">conv_pa_to_meter</text>
</a>
</g>
<!-- Node2&#45;&gt;Node10 -->
<g id="edge24" class="edge"><title>Node2&#45;&gt;Node10</title>
<path fill="none" stroke="midnightblue" d="M205.734,-97.4361C214.393,-96.2609 223.357,-95.0444 232.064,-93.8627"/>
<polygon fill="midnightblue" stroke="midnightblue" points="232.695,-97.3093 242.134,-92.4962 231.754,-90.3729 232.695,-97.3093"/>
</g>
<!-- Node4 -->
<g id="node7" class="node"><title>Node4</title>
<a xlink:href="../../d8/d28/vti__ps_8c.xhtml#aa8c959c733fb193f7db8c74889fc8f01" target="_top" xlink:title="ps_read_register">
<polygon fill="white" stroke="black" points="376.5,-133.5 376.5,-152.5 465.5,-152.5 465.5,-133.5 376.5,-133.5"/>
<text text-anchor="middle" x="421" y="-140.5" font-family="Helvetica,sans-Serif" font-size="10.00">ps_read_register</text>
</a>
</g>
<!-- Node3&#45;&gt;Node4 -->
<g id="edge6" class="edge"><title>Node3&#45;&gt;Node4</title>
<path fill="none" stroke="midnightblue" d="M327.655,-156.707C339.562,-154.94 353.11,-152.929 366.09,-151.002"/>
<polygon fill="midnightblue" stroke="midnightblue" points="366.958,-154.412 376.336,-149.481 365.93,-147.488 366.958,-154.412"/>
</g>
<!-- Node5 -->
<g id="node9" class="node"><title>Node5</title>
<a xlink:href="../../d8/d28/vti__ps_8c.xhtml#a5a111736e7d7fbbed73c189ed1d45b81" target="_top" xlink:title="ps_twi_sda">
<polygon fill="white" stroke="black" points="505,-171.5 505,-190.5 571,-190.5 571,-171.5 505,-171.5"/>
<text text-anchor="middle" x="538" y="-178.5" font-family="Helvetica,sans-Serif" font-size="10.00">ps_twi_sda</text>
</a>
</g>
<!-- Node4&#45;&gt;Node5 -->
<g id="edge8" class="edge"><title>Node4&#45;&gt;Node5</title>
<path fill="none" stroke="midnightblue" d="M451.019,-152.589C465.32,-157.314 482.765,-163.079 498.195,-168.177"/>
<polygon fill="midnightblue" stroke="midnightblue" points="497.397,-171.6 507.99,-171.414 499.593,-164.953 497.397,-171.6"/>
</g>
<!-- Node7 -->
<g id="node13" class="node"><title>Node7</title>
<a xlink:href="../../d8/d28/vti__ps_8c.xhtml#a49dfd78503815814186a48488c6a991f" target="_top" xlink:title="ps_twi_write">
<polygon fill="white" stroke="black" points="502.5,-133.5 502.5,-152.5 573.5,-152.5 573.5,-133.5 502.5,-133.5"/>
<text text-anchor="middle" x="538" y="-140.5" font-family="Helvetica,sans-Serif" font-size="10.00">ps_twi_write</text>
</a>
</g>
<!-- Node4&#45;&gt;Node7 -->
<g id="edge12" class="edge"><title>Node4&#45;&gt;Node7</title>
<path fill="none" stroke="midnightblue" d="M465.805,-143C474.379,-143 483.384,-143 491.996,-143"/>
<polygon fill="midnightblue" stroke="midnightblue" points="492.251,-146.5 502.251,-143 492.251,-139.5 492.251,-146.5"/>
</g>
<!-- Node8 -->
<g id="node16" class="node"><title>Node8</title>
<a xlink:href="../../d8/d28/vti__ps_8c.xhtml#acbe3495716ae246bf71d2419dfabed72" target="_top" xlink:title="ps_twi_read">
<polygon fill="white" stroke="black" points="503.5,-95.5 503.5,-114.5 572.5,-114.5 572.5,-95.5 503.5,-95.5"/>
<text text-anchor="middle" x="538" y="-102.5" font-family="Helvetica,sans-Serif" font-size="10.00">ps_twi_read</text>
</a>
</g>
<!-- Node4&#45;&gt;Node8 -->
<g id="edge16" class="edge"><title>Node4&#45;&gt;Node8</title>
<path fill="none" stroke="midnightblue" d="M451.019,-133.411C465.32,-128.686 482.765,-122.921 498.195,-117.823"/>
<polygon fill="midnightblue" stroke="midnightblue" points="499.593,-121.047 507.99,-114.586 497.397,-114.4 499.593,-121.047"/>
</g>
<!-- Node6 -->
<g id="node11" class="node"><title>Node6</title>
<a xlink:href="../../d8/d28/vti__ps_8c.xhtml#aeec2d2e61bf0b7d2e9f09c4b4fac4490" target="_top" xlink:title="twi_delay">
<polygon fill="white" stroke="black" points="623,-133.5 623,-152.5 681,-152.5 681,-133.5 623,-133.5"/>
<text text-anchor="middle" x="652" y="-140.5" font-family="Helvetica,sans-Serif" font-size="10.00">twi_delay</text>
</a>
</g>
<!-- Node5&#45;&gt;Node6 -->
<g id="edge10" class="edge"><title>Node5&#45;&gt;Node6</title>
<path fill="none" stroke="midnightblue" d="M567.262,-171.411C581.19,-166.686 598.18,-160.921 613.207,-155.823"/>
<polygon fill="midnightblue" stroke="midnightblue" points="614.401,-159.113 622.747,-152.586 612.152,-152.485 614.401,-159.113"/>
</g>
<!-- Node7&#45;&gt;Node6 -->
<g id="edge14" class="edge"><title>Node7&#45;&gt;Node6</title>
<path fill="none" stroke="midnightblue" d="M573.518,-143C585.87,-143 599.867,-143 612.532,-143"/>
<polygon fill="midnightblue" stroke="midnightblue" points="612.793,-146.5 622.793,-143 612.793,-139.5 612.793,-146.5"/>
</g>
<!-- Node8&#45;&gt;Node6 -->
<g id="edge18" class="edge"><title>Node8&#45;&gt;Node6</title>
<path fill="none" stroke="midnightblue" d="M567.262,-114.589C581.19,-119.314 598.18,-125.079 613.207,-130.177"/>
<polygon fill="midnightblue" stroke="midnightblue" points="612.152,-133.515 622.747,-133.414 614.401,-126.887 612.152,-133.515"/>
</g>
<!-- Node9&#45;&gt;Node4 -->
<g id="edge22" class="edge"><title>Node9&#45;&gt;Node4</title>
<path fill="none" stroke="midnightblue" d="M322.01,-128.455C335.099,-130.397 350.858,-132.737 365.875,-134.966"/>
<polygon fill="midnightblue" stroke="midnightblue" points="365.705,-138.479 376.111,-136.485 366.733,-131.555 365.705,-138.479"/>
</g>
<!-- Node12 -->
<g id="node26" class="node"><title>Node12</title>
<a xlink:href="../../db/d85/display_8c.xhtml#a6f2d5cdda31a73b43a569cb3d1a64165" target="_top" xlink:title="Displays several consecutive characters.">
<polygon fill="white" stroke="black" points="252.5,-38.5 252.5,-57.5 329.5,-57.5 329.5,-38.5 252.5,-38.5"/>
<text text-anchor="middle" x="291" y="-45.5" font-family="Helvetica,sans-Serif" font-size="10.00">display_chars</text>
</a>
</g>
<!-- Node11&#45;&gt;Node12 -->
<g id="edge28" class="edge"><title>Node11&#45;&gt;Node12</title>
<path fill="none" stroke="midnightblue" d="M191.247,-48C207.278,-48 225.744,-48 242.338,-48"/>
<polygon fill="midnightblue" stroke="midnightblue" points="242.391,-51.5001 252.391,-48 242.39,-44.5001 242.391,-51.5001"/>
</g>
<!-- Node16 -->
<g id="node34" class="node"><title>Node16</title>
<a xlink:href="../../db/d85/display_8c.xhtml#a9047d98cd15ffbc79e15c63fca36d70b" target="_top" xlink:title="pseudo sprintf function">
<polygon fill="white" stroke="black" points="266.5,-0.5 266.5,-19.5 315.5,-19.5 315.5,-0.5 266.5,-0.5"/>
<text text-anchor="middle" x="291" y="-7.5" font-family="Helvetica,sans-Serif" font-size="10.00">_sprintf</text>
</a>
</g>
<!-- Node11&#45;&gt;Node16 -->
<g id="edge36" class="edge"><title>Node11&#45;&gt;Node16</title>
<path fill="none" stroke="midnightblue" d="M185.328,-38.411C207.146,-32.489 234.976,-24.9352 256.454,-19.1053"/>
<polygon fill="midnightblue" stroke="midnightblue" points="257.398,-22.4758 266.132,-16.4785 255.564,-15.7203 257.398,-22.4758"/>
</g>
<!-- Node13 -->
<g id="node28" class="node"><title>Node13</title>
<a xlink:href="../../db/d85/display_8c.xhtml#a3ae30196af91197037d50cb49de1d109" target="_top" xlink:title="Displays a single character.">
<polygon fill="white" stroke="black" points="385.5,-38.5 385.5,-57.5 456.5,-57.5 456.5,-38.5 385.5,-38.5"/>
<text text-anchor="middle" x="421" y="-45.5" font-family="Helvetica,sans-Serif" font-size="10.00">display_char</text>
</a>
</g>
<!-- Node12&#45;&gt;Node13 -->
<g id="edge30" class="edge"><title>Node12&#45;&gt;Node13</title>
<path fill="none" stroke="midnightblue" d="M329.712,-48C343.835,-48 360.025,-48 374.76,-48"/>
<polygon fill="midnightblue" stroke="midnightblue" points="375.182,-51.5001 385.182,-48 375.182,-44.5001 375.182,-51.5001"/>
</g>
<!-- Node14 -->
<g id="node30" class="node"><title>Node14</title>
<a xlink:href="../../db/d85/display_8c.xhtml#a9275035317878022cf9eacf6b0a5be72" target="_top" xlink:title="Display a custom collection of segments.">
<polygon fill="white" stroke="black" points="504,-38.5 504,-57.5 572,-57.5 572,-38.5 504,-38.5"/>
<text text-anchor="middle" x="538" y="-45.5" font-family="Helvetica,sans-Serif" font-size="10.00">display_bits</text>
</a>
</g>
<!-- Node13&#45;&gt;Node14 -->
<g id="edge32" class="edge"><title>Node13&#45;&gt;Node14</title>
<path fill="none" stroke="midnightblue" d="M456.504,-48C468.185,-48 481.383,-48 493.661,-48"/>
<polygon fill="midnightblue" stroke="midnightblue" points="493.706,-51.5001 503.706,-48 493.706,-44.5001 493.706,-51.5001"/>
</g>
<!-- Node15 -->
<g id="node32" class="node"><title>Node15</title>
<a xlink:href="../../db/d85/display_8c.xhtml#a710739913e8ea1b71dd433b8311211fd" target="_top" xlink:title="write_lcd_mem">
<polygon fill="white" stroke="black" points="610.5,-38.5 610.5,-57.5 693.5,-57.5 693.5,-38.5 610.5,-38.5"/>
<text text-anchor="middle" x="652" y="-45.5" font-family="Helvetica,sans-Serif" font-size="10.00">write_lcd_mem</text>
</a>
</g>
<!-- Node14&#45;&gt;Node15 -->
<g id="edge34" class="edge"><title>Node14&#45;&gt;Node15</title>
<path fill="none" stroke="midnightblue" d="M572.3,-48C581.108,-48 590.818,-48 600.321,-48"/>
<polygon fill="midnightblue" stroke="midnightblue" points="600.5,-51.5001 610.5,-48 600.5,-44.5001 600.5,-51.5001"/>
</g>
</g>
</svg>
