<?xml version="1.0" encoding="UTF-8" standalone="no"?>
<!DOCTYPE svg PUBLIC "-//W3C//DTD SVG 1.1//EN"
 "http://www.w3.org/Graphics/SVG/1.1/DTD/svg11.dtd">
<!-- Generated by graphviz version 2.28.0 (20121221.0049)
 -->
<!-- Title: sys_messagebus Pages: 1 -->
<svg width="146pt" height="78pt"
 viewBox="0.00 0.00 146.00 78.00" xmlns="http://www.w3.org/2000/svg" xmlns:xlink="http://www.w3.org/1999/xlink">
<g id="graph1" class="graph" transform="scale(1 1) rotate(0) translate(4 74)">
<title>sys_messagebus</title>
<polygon fill="white" stroke="white" points="-4,5 -4,-74 143,-74 143,5 -4,5"/>
<!-- Node1 -->
<g id="node1" class="node"><title>Node1</title>
<polygon fill="#bfbfbf" stroke="black" points="-0.5,-1 -0.5,-69 92.5,-69 92.5,-1 -0.5,-1"/>
<text text-anchor="middle" x="46" y="-57" font-family="Helvetica,sans-Serif" font-size="10.00">sys_messagebus</text>
<polyline fill="none" stroke="black" points="-0.5,-50 92.5,-50 "/>
<text text-anchor="start" x="7.5" y="-38" font-family="Helvetica,sans-Serif" font-size="10.00">+ fn</text>
<text text-anchor="start" x="7.5" y="-27" font-family="Helvetica,sans-Serif" font-size="10.00">+ listens</text>
<polyline fill="none" stroke="black" points="-0.5,-20 92.5,-20 "/>
<text text-anchor="middle" x="46" y="-8" font-family="Helvetica,sans-Serif" font-size="10.00"> </text>
</g>
<!-- Node1&#45;&gt;Node1 -->
<g id="edge2" class="edge"><title>Node1&#45;&gt;Node1</title>
<path fill="none" stroke="#404040" d="M92.5981,-47.3734C102.685,-46.1635 110,-42.0391 110,-35 110,-31.1505 107.812,-28.1727 104.18,-26.0666"/>
<polygon fill="none" stroke="#404040" points="104.101,-26.0433 97.2108,-28.1694 92.5981,-22.6266 99.4886,-20.5005 104.101,-26.0433"/>
<text text-anchor="middle" x="124" y="-32.5" font-family="Helvetica,sans-Serif" font-size="10.00"> +next</text>
</g>
</g>
</svg>
