<?xml version="1.0" encoding="UTF-8" standalone="no"?>
<!DOCTYPE svg PUBLIC "-//W3C//DTD SVG 1.1//EN"
 "http://www.w3.org/Graphics/SVG/1.1/DTD/svg11.dtd">
<!-- Generated by graphviz version 2.28.0 (20121221.0049)
 -->
<!-- Title: SetVCore Pages: 1 -->
<svg width="190pt" height="66pt"
 viewBox="0.00 0.00 190.00 66.00" xmlns="http://www.w3.org/2000/svg" xmlns:xlink="http://www.w3.org/1999/xlink">
<g id="graph1" class="graph" transform="scale(1 1) rotate(0) translate(4 62)">
<title>SetVCore</title>
<polygon fill="white" stroke="white" points="-4,5 -4,-62 187,-62 187,5 -4,5"/>
<!-- Node1 -->
<g id="node1" class="node"><title>Node1</title>
<polygon fill="#bfbfbf" stroke="black" points="0.5,-19.5 0.5,-38.5 59.5,-38.5 59.5,-19.5 0.5,-19.5"/>
<text text-anchor="middle" x="30" y="-26.5" font-family="Helvetica,sans-Serif" font-size="10.00">SetVCore</text>
</g>
<!-- Node2 -->
<g id="node3" class="node"><title>Node2</title>
<a xlink:href="../../d7/ddc/pmm_8c.xhtml#a6f01d523327c4eec214ae3470c215c3d" target="_top" xlink:title="Set the VCore to a new higher level.">
<polygon fill="white" stroke="black" points="103,-38.5 103,-57.5 175,-57.5 175,-38.5 103,-38.5"/>
<text text-anchor="middle" x="139" y="-45.5" font-family="Helvetica,sans-Serif" font-size="10.00">SetVCoreUp</text>
</a>
</g>
<!-- Node1&#45;&gt;Node2 -->
<g id="edge2" class="edge"><title>Node1&#45;&gt;Node2</title>
<path fill="none" stroke="midnightblue" d="M59.674,-34.0917C69.8166,-35.8927 81.4887,-37.9653 92.6728,-39.9512"/>
<polygon fill="midnightblue" stroke="midnightblue" points="92.2909,-43.4381 102.749,-41.7404 93.5148,-36.5459 92.2909,-43.4381"/>
</g>
<!-- Node3 -->
<g id="node5" class="node"><title>Node3</title>
<a xlink:href="../../d7/ddc/pmm_8c.xhtml#a292f9802ca1c82b679f7528de2ee55b8" target="_top" xlink:title="Set the VCore to a new Lower level.">
<polygon fill="white" stroke="black" points="96.5,-0.5 96.5,-19.5 181.5,-19.5 181.5,-0.5 96.5,-0.5"/>
<text text-anchor="middle" x="139" y="-7.5" font-family="Helvetica,sans-Serif" font-size="10.00">SetVCoreDown</text>
</a>
</g>
<!-- Node1&#45;&gt;Node3 -->
<g id="edge4" class="edge"><title>Node1&#45;&gt;Node3</title>
<path fill="none" stroke="midnightblue" d="M59.674,-23.9083C67.9479,-22.4392 77.2395,-20.7892 86.4538,-19.1531"/>
<polygon fill="midnightblue" stroke="midnightblue" points="87.1361,-22.5867 96.3701,-17.3922 85.9122,-15.6946 87.1361,-22.5867"/>
</g>
</g>
</svg>
