<?xml version="1.0" encoding="UTF-8" standalone="no"?>
<!DOCTYPE svg PUBLIC "-//W3C//DTD SVG 1.1//EN"
 "http://www.w3.org/Graphics/SVG/1.1/DTD/svg11.dtd">
<!-- Generated by graphviz version 2.28.0 (20121221.0049)
 -->
<!-- Title: drivers/adc12.h Pages: 1 -->
<svg width="322pt" height="84pt"
 viewBox="0.00 0.00 322.00 84.00" xmlns="http://www.w3.org/2000/svg" xmlns:xlink="http://www.w3.org/1999/xlink">
<g id="graph1" class="graph" transform="scale(1 1) rotate(0) translate(4 80)">
<title>drivers/adc12.h</title>
<polygon fill="white" stroke="white" points="-4,5 -4,-80 319,-80 319,5 -4,5"/>
<!-- Node1 -->
<g id="node1" class="node"><title>Node1</title>
<polygon fill="#bfbfbf" stroke="black" points="102.5,-56.5 102.5,-75.5 185.5,-75.5 185.5,-56.5 102.5,-56.5"/>
<text text-anchor="middle" x="144" y="-63.5" font-family="Helvetica,sans-Serif" font-size="10.00">drivers/adc12.h</text>
</g>
<!-- Node2 -->
<g id="node3" class="node"><title>Node2</title>
<a xlink:href="../../dc/ddc/adc12_8c.xhtml" target="_top" xlink:title="ADC12 functions.">
<polygon fill="white" stroke="black" points="-0.5,-0.5 -0.5,-19.5 82.5,-19.5 82.5,-0.5 -0.5,-0.5"/>
<text text-anchor="middle" x="41" y="-7.5" font-family="Helvetica,sans-Serif" font-size="10.00">drivers/adc12.c</text>
</a>
</g>
<!-- Node1&#45;&gt;Node2 -->
<g id="edge2" class="edge"><title>Node1&#45;&gt;Node2</title>
<path fill="none" stroke="midnightblue" d="M118.421,-51.5895C99.3766,-41.6052 73.9356,-28.2672 57.5077,-19.6545"/>
<polygon fill="midnightblue" stroke="midnightblue" points="116.969,-54.7805 127.451,-56.324 120.22,-48.5808 116.969,-54.7805"/>
</g>
<!-- Node3 -->
<g id="node5" class="node"><title>Node3</title>
<a xlink:href="../../de/dd8/drivers_2battery_8c.xhtml" target="_top" xlink:title="Battery voltage measurement driver.">
<polygon fill="white" stroke="black" points="100.5,-0.5 100.5,-19.5 187.5,-19.5 187.5,-0.5 100.5,-0.5"/>
<text text-anchor="middle" x="144" y="-7.5" font-family="Helvetica,sans-Serif" font-size="10.00">drivers/battery.c</text>
</a>
</g>
<!-- Node1&#45;&gt;Node3 -->
<g id="edge4" class="edge"><title>Node1&#45;&gt;Node3</title>
<path fill="none" stroke="midnightblue" d="M144,-45.8045C144,-36.9102 144,-26.7798 144,-19.7511"/>
<polygon fill="midnightblue" stroke="midnightblue" points="140.5,-46.083 144,-56.083 147.5,-46.083 140.5,-46.083"/>
</g>
<!-- Node4 -->
<g id="node7" class="node"><title>Node4</title>
<a xlink:href="../../d8/dd8/drivers_2temperature_8c.xhtml" target="_top" xlink:title="drivers/temperature.c">
<polygon fill="white" stroke="black" points="205.5,-0.5 205.5,-19.5 314.5,-19.5 314.5,-0.5 205.5,-0.5"/>
<text text-anchor="middle" x="260" y="-7.5" font-family="Helvetica,sans-Serif" font-size="10.00">drivers/temperature.c</text>
</a>
</g>
<!-- Node1&#45;&gt;Node4 -->
<g id="edge6" class="edge"><title>Node1&#45;&gt;Node4</title>
<path fill="none" stroke="midnightblue" d="M171.72,-52.096C193.392,-42.0073 222.902,-28.2697 241.705,-19.5164"/>
<polygon fill="midnightblue" stroke="midnightblue" points="169.969,-49.0501 162.381,-56.4435 172.923,-55.3962 169.969,-49.0501"/>
</g>
</g>
</svg>
