<?xml version="1.0" encoding="UTF-8" standalone="no"?>
<!DOCTYPE svg PUBLIC "-//W3C//DTD SVG 1.1//EN"
 "http://www.w3.org/Graphics/SVG/1.1/DTD/svg11.dtd">
<!-- Generated by graphviz version 2.28.0 (20121221.0049)
 -->
<!-- Title: temperature_init Pages: 1 -->
<svg width="364pt" height="28pt"
 viewBox="0.00 0.00 364.00 28.00" xmlns="http://www.w3.org/2000/svg" xmlns:xlink="http://www.w3.org/1999/xlink">
<g id="graph1" class="graph" transform="scale(1 1) rotate(0) translate(4 24)">
<title>temperature_init</title>
<polygon fill="white" stroke="white" points="-4,5 -4,-24 361,-24 361,5 -4,5"/>
<!-- Node1 -->
<g id="node1" class="node"><title>Node1</title>
<polygon fill="#bfbfbf" stroke="black" points="0,-0.5 0,-19.5 86,-19.5 86,-0.5 0,-0.5"/>
<text text-anchor="middle" x="43" y="-7.5" font-family="Helvetica,sans-Serif" font-size="10.00">temperature_init</text>
</g>
<!-- Node2 -->
<g id="node3" class="node"><title>Node2</title>
<a xlink:href="../../dc/ddc/adc12_8c.xhtml#a6202d56d811a4a15e9675420b4b1f8db" target="_top" xlink:title="Init ADC12. Do single conversion. Turn off ADC12.">
<polygon fill="white" stroke="black" points="122,-0.5 122,-19.5 248,-19.5 248,-0.5 122,-0.5"/>
<text text-anchor="middle" x="185" y="-7.5" font-family="Helvetica,sans-Serif" font-size="10.00">adc12_single_conversion</text>
</a>
</g>
<!-- Node1&#45;&gt;Node2 -->
<g id="edge2" class="edge"><title>Node1&#45;&gt;Node2</title>
<path fill="none" stroke="midnightblue" d="M86.0046,-10C94.1092,-10 102.813,-10 111.568,-10"/>
<polygon fill="midnightblue" stroke="midnightblue" points="111.836,-13.5001 121.836,-10 111.836,-6.5001 111.836,-13.5001"/>
</g>
<!-- Node3 -->
<g id="node5" class="node"><title>Node3</title>
<a xlink:href="../../df/d41/timer_8c.xhtml#adc3302861aee9d7f4a1c4c6d25d07343" target="_top" xlink:title="1ms &#45; 1s programmable delay">
<polygon fill="white" stroke="black" points="284,-0.5 284,-19.5 356,-19.5 356,-0.5 284,-0.5"/>
<text text-anchor="middle" x="320" y="-7.5" font-family="Helvetica,sans-Serif" font-size="10.00">timer0_delay</text>
</a>
</g>
<!-- Node2&#45;&gt;Node3 -->
<g id="edge4" class="edge"><title>Node2&#45;&gt;Node3</title>
<path fill="none" stroke="midnightblue" d="M248.217,-10C256.773,-10 265.424,-10 273.601,-10"/>
<polygon fill="midnightblue" stroke="midnightblue" points="273.661,-13.5001 283.661,-10 273.661,-6.5001 273.661,-13.5001"/>
</g>
</g>
</svg>
