<?xml version="1.0" encoding="UTF-8" standalone="no"?>
<!DOCTYPE svg PUBLIC "-//W3C//DTD SVG 1.1//EN"
 "http://www.w3.org/Graphics/SVG/1.1/DTD/svg11.dtd">
<!-- Generated by graphviz version 2.28.0 (20121221.0049)
 -->
<!-- Title: drawStopWatchScreen Pages: 1 -->
<svg width="584pt" height="66pt"
 viewBox="0.00 0.00 584.00 66.00" xmlns="http://www.w3.org/2000/svg" xmlns:xlink="http://www.w3.org/1999/xlink">
<g id="graph1" class="graph" transform="scale(1 1) rotate(0) translate(4 62)">
<title>drawStopWatchScreen</title>
<polygon fill="white" stroke="white" points="-4,5 -4,-62 581,-62 581,5 -4,5"/>
<!-- Node1 -->
<g id="node1" class="node"><title>Node1</title>
<polygon fill="#bfbfbf" stroke="black" points="0.5,-19.5 0.5,-38.5 117.5,-38.5 117.5,-19.5 0.5,-19.5"/>
<text text-anchor="middle" x="59" y="-26.5" font-family="Helvetica,sans-Serif" font-size="10.00">drawStopWatchScreen</text>
</g>
<!-- Node2 -->
<g id="node3" class="node"><title>Node2</title>
<a xlink:href="../../db/d85/display_8c.xhtml#a6f2d5cdda31a73b43a569cb3d1a64165" target="_top" xlink:title="Displays several consecutive characters.">
<polygon fill="white" stroke="black" points="154.5,-38.5 154.5,-57.5 231.5,-57.5 231.5,-38.5 154.5,-38.5"/>
<text text-anchor="middle" x="193" y="-45.5" font-family="Helvetica,sans-Serif" font-size="10.00">display_chars</text>
</a>
</g>
<!-- Node1&#45;&gt;Node2 -->
<g id="edge2" class="edge"><title>Node1&#45;&gt;Node2</title>
<path fill="none" stroke="midnightblue" d="M117.513,-37.2784C126.501,-38.5722 135.703,-39.8967 144.437,-41.1538"/>
<polygon fill="midnightblue" stroke="midnightblue" points="144.037,-44.6322 154.433,-42.5927 145.034,-37.7036 144.037,-44.6322"/>
</g>
<!-- Node6 -->
<g id="node11" class="node"><title>Node6</title>
<a xlink:href="../../db/d85/display_8c.xhtml#af604e78dcc4e0f1a204b2180c5e54957" target="_top" xlink:title="Displays a symbol.">
<polygon fill="white" stroke="black" points="268,-0.5 268,-19.5 352,-19.5 352,-0.5 268,-0.5"/>
<text text-anchor="middle" x="310" y="-7.5" font-family="Helvetica,sans-Serif" font-size="10.00">display_symbol</text>
</a>
</g>
<!-- Node1&#45;&gt;Node6 -->
<g id="edge10" class="edge"><title>Node1&#45;&gt;Node6</title>
<path fill="none" stroke="midnightblue" d="M117.751,-24.5933C160.133,-21.3593 217.166,-17.0074 257.897,-13.8994"/>
<polygon fill="midnightblue" stroke="midnightblue" points="258.178,-17.3883 267.883,-13.1375 257.645,-10.4085 258.178,-17.3883"/>
</g>
<!-- Node3 -->
<g id="node5" class="node"><title>Node3</title>
<a xlink:href="../../db/d85/display_8c.xhtml#a3ae30196af91197037d50cb49de1d109" target="_top" xlink:title="Displays a single character.">
<polygon fill="white" stroke="black" points="274.5,-38.5 274.5,-57.5 345.5,-57.5 345.5,-38.5 274.5,-38.5"/>
<text text-anchor="middle" x="310" y="-45.5" font-family="Helvetica,sans-Serif" font-size="10.00">display_char</text>
</a>
</g>
<!-- Node2&#45;&gt;Node3 -->
<g id="edge4" class="edge"><title>Node2&#45;&gt;Node3</title>
<path fill="none" stroke="midnightblue" d="M231.655,-48C242.08,-48 253.496,-48 264.281,-48"/>
<polygon fill="midnightblue" stroke="midnightblue" points="264.374,-51.5001 274.374,-48 264.374,-44.5001 264.374,-51.5001"/>
</g>
<!-- Node4 -->
<g id="node7" class="node"><title>Node4</title>
<a xlink:href="../../db/d85/display_8c.xhtml#a9275035317878022cf9eacf6b0a5be72" target="_top" xlink:title="Display a custom collection of segments.">
<polygon fill="white" stroke="black" points="388,-38.5 388,-57.5 456,-57.5 456,-38.5 388,-38.5"/>
<text text-anchor="middle" x="422" y="-45.5" font-family="Helvetica,sans-Serif" font-size="10.00">display_bits</text>
</a>
</g>
<!-- Node3&#45;&gt;Node4 -->
<g id="edge6" class="edge"><title>Node3&#45;&gt;Node4</title>
<path fill="none" stroke="midnightblue" d="M345.503,-48C355.721,-48 367.04,-48 377.738,-48"/>
<polygon fill="midnightblue" stroke="midnightblue" points="377.748,-51.5001 387.748,-48 377.748,-44.5001 377.748,-51.5001"/>
</g>
<!-- Node5 -->
<g id="node9" class="node"><title>Node5</title>
<a xlink:href="../../db/d85/display_8c.xhtml#a710739913e8ea1b71dd433b8311211fd" target="_top" xlink:title="write_lcd_mem">
<polygon fill="white" stroke="black" points="492.5,-19.5 492.5,-38.5 575.5,-38.5 575.5,-19.5 492.5,-19.5"/>
<text text-anchor="middle" x="534" y="-26.5" font-family="Helvetica,sans-Serif" font-size="10.00">write_lcd_mem</text>
</a>
</g>
<!-- Node4&#45;&gt;Node5 -->
<g id="edge8" class="edge"><title>Node4&#45;&gt;Node5</title>
<path fill="none" stroke="midnightblue" d="M456.004,-42.2994C464.28,-40.8698 473.352,-39.3029 482.273,-37.762"/>
<polygon fill="midnightblue" stroke="midnightblue" points="482.972,-41.1931 492.231,-36.042 481.781,-34.2952 482.972,-41.1931"/>
</g>
<!-- Node6&#45;&gt;Node5 -->
<g id="edge12" class="edge"><title>Node6&#45;&gt;Node5</title>
<path fill="none" stroke="midnightblue" d="M352.236,-13.5292C388.955,-16.6718 442.802,-21.2804 482.174,-24.65"/>
<polygon fill="midnightblue" stroke="midnightblue" points="482.097,-28.1562 492.359,-25.5218 482.694,-21.1817 482.097,-28.1562"/>
</g>
</g>
</svg>
