<?xml version="1.0" encoding="UTF-8" standalone="no"?>
<!DOCTYPE svg PUBLIC "-//W3C//DTD SVG 1.1//EN"
 "http://www.w3.org/Graphics/SVG/1.1/DTD/svg11.dtd">
<!-- Generated by graphviz version 2.28.0 (20121221.0049)
 -->
<!-- Title: stopwatch_event Pages: 1 -->
<svg width="712pt" height="66pt"
 viewBox="0.00 0.00 712.00 66.00" xmlns="http://www.w3.org/2000/svg" xmlns:xlink="http://www.w3.org/1999/xlink">
<g id="graph1" class="graph" transform="scale(1 1) rotate(0) translate(4 62)">
<title>stopwatch_event</title>
<polygon fill="white" stroke="white" points="-4,5 -4,-62 709,-62 709,5 -4,5"/>
<!-- Node1 -->
<g id="node1" class="node"><title>Node1</title>
<polygon fill="#bfbfbf" stroke="black" points="0.5,-19.5 0.5,-38.5 91.5,-38.5 91.5,-19.5 0.5,-19.5"/>
<text text-anchor="middle" x="46" y="-26.5" font-family="Helvetica,sans-Serif" font-size="10.00">stopwatch_event</text>
</g>
<!-- Node2 -->
<g id="node3" class="node"><title>Node2</title>
<a xlink:href="../../de/dd1/stopwatch_8c.xhtml#a8ef9fc26e81a38682849cab809cc500e" target="_top" xlink:title="drawStopWatchScreen">
<polygon fill="white" stroke="black" points="128.5,-19.5 128.5,-38.5 245.5,-38.5 245.5,-19.5 128.5,-19.5"/>
<text text-anchor="middle" x="187" y="-26.5" font-family="Helvetica,sans-Serif" font-size="10.00">drawStopWatchScreen</text>
</a>
</g>
<!-- Node1&#45;&gt;Node2 -->
<g id="edge2" class="edge"><title>Node1&#45;&gt;Node2</title>
<path fill="none" stroke="midnightblue" d="M91.7456,-29C100.164,-29 109.14,-29 118.082,-29"/>
<polygon fill="midnightblue" stroke="midnightblue" points="118.13,-32.5001 128.13,-29 118.13,-25.5001 118.13,-32.5001"/>
</g>
<!-- Node3 -->
<g id="node5" class="node"><title>Node3</title>
<a xlink:href="../../db/d85/display_8c.xhtml#a6f2d5cdda31a73b43a569cb3d1a64165" target="_top" xlink:title="Displays several consecutive characters.">
<polygon fill="white" stroke="black" points="282.5,-38.5 282.5,-57.5 359.5,-57.5 359.5,-38.5 282.5,-38.5"/>
<text text-anchor="middle" x="321" y="-45.5" font-family="Helvetica,sans-Serif" font-size="10.00">display_chars</text>
</a>
</g>
<!-- Node2&#45;&gt;Node3 -->
<g id="edge4" class="edge"><title>Node2&#45;&gt;Node3</title>
<path fill="none" stroke="midnightblue" d="M245.513,-37.2784C254.501,-38.5722 263.703,-39.8967 272.437,-41.1538"/>
<polygon fill="midnightblue" stroke="midnightblue" points="272.037,-44.6322 282.433,-42.5927 273.034,-37.7036 272.037,-44.6322"/>
</g>
<!-- Node7 -->
<g id="node13" class="node"><title>Node7</title>
<a xlink:href="../../db/d85/display_8c.xhtml#af604e78dcc4e0f1a204b2180c5e54957" target="_top" xlink:title="Displays a symbol.">
<polygon fill="white" stroke="black" points="396,-0.5 396,-19.5 480,-19.5 480,-0.5 396,-0.5"/>
<text text-anchor="middle" x="438" y="-7.5" font-family="Helvetica,sans-Serif" font-size="10.00">display_symbol</text>
</a>
</g>
<!-- Node2&#45;&gt;Node7 -->
<g id="edge12" class="edge"><title>Node2&#45;&gt;Node7</title>
<path fill="none" stroke="midnightblue" d="M245.751,-24.5933C288.133,-21.3593 345.166,-17.0074 385.897,-13.8994"/>
<polygon fill="midnightblue" stroke="midnightblue" points="386.178,-17.3883 395.883,-13.1375 385.645,-10.4085 386.178,-17.3883"/>
</g>
<!-- Node4 -->
<g id="node7" class="node"><title>Node4</title>
<a xlink:href="../../db/d85/display_8c.xhtml#a3ae30196af91197037d50cb49de1d109" target="_top" xlink:title="Displays a single character.">
<polygon fill="white" stroke="black" points="402.5,-38.5 402.5,-57.5 473.5,-57.5 473.5,-38.5 402.5,-38.5"/>
<text text-anchor="middle" x="438" y="-45.5" font-family="Helvetica,sans-Serif" font-size="10.00">display_char</text>
</a>
</g>
<!-- Node3&#45;&gt;Node4 -->
<g id="edge6" class="edge"><title>Node3&#45;&gt;Node4</title>
<path fill="none" stroke="midnightblue" d="M359.655,-48C370.08,-48 381.496,-48 392.281,-48"/>
<polygon fill="midnightblue" stroke="midnightblue" points="392.374,-51.5001 402.374,-48 392.374,-44.5001 392.374,-51.5001"/>
</g>
<!-- Node5 -->
<g id="node9" class="node"><title>Node5</title>
<a xlink:href="../../db/d85/display_8c.xhtml#a9275035317878022cf9eacf6b0a5be72" target="_top" xlink:title="Display a custom collection of segments.">
<polygon fill="white" stroke="black" points="516,-38.5 516,-57.5 584,-57.5 584,-38.5 516,-38.5"/>
<text text-anchor="middle" x="550" y="-45.5" font-family="Helvetica,sans-Serif" font-size="10.00">display_bits</text>
</a>
</g>
<!-- Node4&#45;&gt;Node5 -->
<g id="edge8" class="edge"><title>Node4&#45;&gt;Node5</title>
<path fill="none" stroke="midnightblue" d="M473.503,-48C483.721,-48 495.04,-48 505.738,-48"/>
<polygon fill="midnightblue" stroke="midnightblue" points="505.748,-51.5001 515.748,-48 505.748,-44.5001 505.748,-51.5001"/>
</g>
<!-- Node6 -->
<g id="node11" class="node"><title>Node6</title>
<a xlink:href="../../db/d85/display_8c.xhtml#a710739913e8ea1b71dd433b8311211fd" target="_top" xlink:title="write_lcd_mem">
<polygon fill="white" stroke="black" points="620.5,-19.5 620.5,-38.5 703.5,-38.5 703.5,-19.5 620.5,-19.5"/>
<text text-anchor="middle" x="662" y="-26.5" font-family="Helvetica,sans-Serif" font-size="10.00">write_lcd_mem</text>
</a>
</g>
<!-- Node5&#45;&gt;Node6 -->
<g id="edge10" class="edge"><title>Node5&#45;&gt;Node6</title>
<path fill="none" stroke="midnightblue" d="M584.004,-42.2994C592.28,-40.8698 601.352,-39.3029 610.273,-37.762"/>
<polygon fill="midnightblue" stroke="midnightblue" points="610.972,-41.1931 620.231,-36.042 609.781,-34.2952 610.972,-41.1931"/>
</g>
<!-- Node7&#45;&gt;Node6 -->
<g id="edge14" class="edge"><title>Node7&#45;&gt;Node6</title>
<path fill="none" stroke="midnightblue" d="M480.236,-13.5292C516.955,-16.6718 570.802,-21.2804 610.174,-24.65"/>
<polygon fill="midnightblue" stroke="midnightblue" points="610.097,-28.1562 620.359,-25.5218 610.694,-21.1817 610.097,-28.1562"/>
</g>
</g>
</svg>
