<?xml version="1.0" encoding="UTF-8" standalone="no"?>
<!DOCTYPE svg PUBLIC "-//W3C//DTD SVG 1.1//EN"
 "http://www.w3.org/Graphics/SVG/1.1/DTD/svg11.dtd">
<!-- Generated by graphviz version 2.28.0 (20121221.0049)
 -->
<!-- Title: down_press Pages: 1 -->
<svg width="700pt" height="85pt"
 viewBox="0.00 0.00 700.00 85.00" xmlns="http://www.w3.org/2000/svg" xmlns:xlink="http://www.w3.org/1999/xlink">
<g id="graph1" class="graph" transform="scale(1 1) rotate(0) translate(4 81)">
<title>down_press</title>
<polygon fill="white" stroke="white" points="-4,5 -4,-81 697,-81 697,5 -4,5"/>
<!-- Node1 -->
<g id="node1" class="node"><title>Node1</title>
<polygon fill="#bfbfbf" stroke="black" points="0.5,-38.5 0.5,-57.5 69.5,-57.5 69.5,-38.5 0.5,-38.5"/>
<text text-anchor="middle" x="35" y="-45.5" font-family="Helvetica,sans-Serif" font-size="10.00">down_press</text>
</g>
<!-- Node2 -->
<g id="node3" class="node"><title>Node2</title>
<a xlink:href="../../de/dd1/stopwatch_8c.xhtml#aa0ed77a7ae91fdf019637f338a035bbc" target="_top" xlink:title="increment_lap_stopwatch">
<polygon fill="white" stroke="black" points="106,-57.5 106,-76.5 234,-76.5 234,-57.5 106,-57.5"/>
<text text-anchor="middle" x="170" y="-64.5" font-family="Helvetica,sans-Serif" font-size="10.00">increment_lap_stopwatch</text>
</a>
</g>
<!-- Node1&#45;&gt;Node2 -->
<g id="edge2" class="edge"><title>Node1&#45;&gt;Node2</title>
<path fill="none" stroke="midnightblue" d="M69.5615,-52.7945C77.6993,-53.957 86.7176,-55.2454 95.9054,-56.5579"/>
<polygon fill="midnightblue" stroke="midnightblue" points="95.5136,-60.0374 105.908,-57.9869 96.5036,-53.1077 95.5136,-60.0374"/>
</g>
<!-- Node3 -->
<g id="node5" class="node"><title>Node3</title>
<a xlink:href="../../de/dd1/stopwatch_8c.xhtml#a8ef9fc26e81a38682849cab809cc500e" target="_top" xlink:title="drawStopWatchScreen">
<polygon fill="white" stroke="black" points="111.5,-19.5 111.5,-38.5 228.5,-38.5 228.5,-19.5 111.5,-19.5"/>
<text text-anchor="middle" x="170" y="-26.5" font-family="Helvetica,sans-Serif" font-size="10.00">drawStopWatchScreen</text>
</a>
</g>
<!-- Node1&#45;&gt;Node3 -->
<g id="edge4" class="edge"><title>Node1&#45;&gt;Node3</title>
<path fill="none" stroke="midnightblue" d="M69.5615,-43.2055C79.2829,-41.8167 90.2607,-40.2485 101.283,-38.6738"/>
<polygon fill="midnightblue" stroke="midnightblue" points="101.979,-42.1101 111.383,-37.2309 100.989,-35.1804 101.979,-42.1101"/>
</g>
<!-- Node4 -->
<g id="node7" class="node"><title>Node4</title>
<a xlink:href="../../db/d85/display_8c.xhtml#a6f2d5cdda31a73b43a569cb3d1a64165" target="_top" xlink:title="Displays several consecutive characters.">
<polygon fill="white" stroke="black" points="270.5,-38.5 270.5,-57.5 347.5,-57.5 347.5,-38.5 270.5,-38.5"/>
<text text-anchor="middle" x="309" y="-45.5" font-family="Helvetica,sans-Serif" font-size="10.00">display_chars</text>
</a>
</g>
<!-- Node3&#45;&gt;Node4 -->
<g id="edge6" class="edge"><title>Node3&#45;&gt;Node4</title>
<path fill="none" stroke="midnightblue" d="M228.703,-37.0026C239.234,-38.4631 250.113,-39.9719 260.312,-41.3864"/>
<polygon fill="midnightblue" stroke="midnightblue" points="259.861,-44.8572 270.247,-42.7642 260.823,-37.9235 259.861,-44.8572"/>
</g>
<!-- Node8 -->
<g id="node15" class="node"><title>Node8</title>
<a xlink:href="../../db/d85/display_8c.xhtml#af604e78dcc4e0f1a204b2180c5e54957" target="_top" xlink:title="Displays a symbol.">
<polygon fill="white" stroke="black" points="384,-0.5 384,-19.5 468,-19.5 468,-0.5 384,-0.5"/>
<text text-anchor="middle" x="426" y="-7.5" font-family="Helvetica,sans-Serif" font-size="10.00">display_symbol</text>
</a>
</g>
<!-- Node3&#45;&gt;Node8 -->
<g id="edge14" class="edge"><title>Node3&#45;&gt;Node8</title>
<path fill="none" stroke="midnightblue" d="M228.637,-24.6886C272.312,-21.4215 331.776,-16.9734 373.791,-13.8306"/>
<polygon fill="midnightblue" stroke="midnightblue" points="374.098,-17.3175 383.809,-13.0812 373.576,-10.337 374.098,-17.3175"/>
</g>
<!-- Node5 -->
<g id="node9" class="node"><title>Node5</title>
<a xlink:href="../../db/d85/display_8c.xhtml#a3ae30196af91197037d50cb49de1d109" target="_top" xlink:title="Displays a single character.">
<polygon fill="white" stroke="black" points="390.5,-38.5 390.5,-57.5 461.5,-57.5 461.5,-38.5 390.5,-38.5"/>
<text text-anchor="middle" x="426" y="-45.5" font-family="Helvetica,sans-Serif" font-size="10.00">display_char</text>
</a>
</g>
<!-- Node4&#45;&gt;Node5 -->
<g id="edge8" class="edge"><title>Node4&#45;&gt;Node5</title>
<path fill="none" stroke="midnightblue" d="M347.655,-48C358.08,-48 369.496,-48 380.281,-48"/>
<polygon fill="midnightblue" stroke="midnightblue" points="380.374,-51.5001 390.374,-48 380.374,-44.5001 380.374,-51.5001"/>
</g>
<!-- Node6 -->
<g id="node11" class="node"><title>Node6</title>
<a xlink:href="../../db/d85/display_8c.xhtml#a9275035317878022cf9eacf6b0a5be72" target="_top" xlink:title="Display a custom collection of segments.">
<polygon fill="white" stroke="black" points="504,-38.5 504,-57.5 572,-57.5 572,-38.5 504,-38.5"/>
<text text-anchor="middle" x="538" y="-45.5" font-family="Helvetica,sans-Serif" font-size="10.00">display_bits</text>
</a>
</g>
<!-- Node5&#45;&gt;Node6 -->
<g id="edge10" class="edge"><title>Node5&#45;&gt;Node6</title>
<path fill="none" stroke="midnightblue" d="M461.503,-48C471.721,-48 483.04,-48 493.738,-48"/>
<polygon fill="midnightblue" stroke="midnightblue" points="493.748,-51.5001 503.748,-48 493.748,-44.5001 493.748,-51.5001"/>
</g>
<!-- Node7 -->
<g id="node13" class="node"><title>Node7</title>
<a xlink:href="../../db/d85/display_8c.xhtml#a710739913e8ea1b71dd433b8311211fd" target="_top" xlink:title="write_lcd_mem">
<polygon fill="white" stroke="black" points="608.5,-19.5 608.5,-38.5 691.5,-38.5 691.5,-19.5 608.5,-19.5"/>
<text text-anchor="middle" x="650" y="-26.5" font-family="Helvetica,sans-Serif" font-size="10.00">write_lcd_mem</text>
</a>
</g>
<!-- Node6&#45;&gt;Node7 -->
<g id="edge12" class="edge"><title>Node6&#45;&gt;Node7</title>
<path fill="none" stroke="midnightblue" d="M572.004,-42.2994C580.28,-40.8698 589.352,-39.3029 598.273,-37.762"/>
<polygon fill="midnightblue" stroke="midnightblue" points="598.972,-41.1931 608.231,-36.042 597.781,-34.2952 598.972,-41.1931"/>
</g>
<!-- Node8&#45;&gt;Node7 -->
<g id="edge16" class="edge"><title>Node8&#45;&gt;Node7</title>
<path fill="none" stroke="midnightblue" d="M468.236,-13.5292C504.955,-16.6718 558.802,-21.2804 598.174,-24.65"/>
<polygon fill="midnightblue" stroke="midnightblue" points="598.097,-28.1562 608.359,-25.5218 598.694,-21.1817 598.097,-28.1562"/>
</g>
</g>
</svg>
