<?xml version="1.0" encoding="UTF-8" standalone="no"?>
<!DOCTYPE svg PUBLIC "-//W3C//DTD SVG 1.1//EN"
 "http://www.w3.org/Graphics/SVG/1.1/DTD/svg11.dtd">
<!-- Generated by graphviz version 2.28.0 (20121221.0049)
 -->
<!-- Title: mod_stopwatch_init Pages: 1 -->
<svg width="1050pt" height="485pt"
 viewBox="0.00 0.00 1050.00 485.19" xmlns="http://www.w3.org/2000/svg" xmlns:xlink="http://www.w3.org/1999/xlink">
<g id="graph1" class="graph" transform="scale(1 1) rotate(0) translate(4 481.191)">
<title>mod_stopwatch_init</title>
<polygon fill="white" stroke="white" points="-4,5 -4,-481.191 1047,-481.191 1047,5 -4,5"/>
<!-- Node1 -->
<g id="node1" class="node"><title>Node1</title>
<polygon fill="#bfbfbf" stroke="black" points="0,-285.5 0,-304.5 104,-304.5 104,-285.5 0,-285.5"/>
<text text-anchor="middle" x="52" y="-292.5" font-family="Helvetica,sans-Serif" font-size="10.00">mod_stopwatch_init</text>
</g>
<!-- Node2 -->
<g id="node3" class="node"><title>Node2</title>
<a xlink:href="../../de/dd1/stopwatch_8c.xhtml#ac9b29bbda1fac306d56e61089ec8ac21" target="_top" xlink:title="clear_stopwatch">
<polygon fill="white" stroke="black" points="321,-456.5 321,-475.5 409,-475.5 409,-456.5 321,-456.5"/>
<text text-anchor="middle" x="365" y="-463.5" font-family="Helvetica,sans-Serif" font-size="10.00">clear_stopwatch</text>
</a>
</g>
<!-- Node1&#45;&gt;Node2 -->
<g id="edge2" class="edge"><title>Node1&#45;&gt;Node2</title>
<path fill="none" stroke="midnightblue" d="M55.2031,-304.633C62.1102,-332.377 86.1665,-412.663 140,-447 190.995,-479.527 262.339,-479.635 310.706,-474.655"/>
<polygon fill="midnightblue" stroke="midnightblue" points="311.122,-478.13 320.663,-473.525 310.332,-471.175 311.122,-478.13"/>
</g>
<!-- Node3 -->
<g id="node5" class="node"><title>Node3</title>
<a xlink:href="../../d2/df2/openchronos_8c.xhtml#a71490cfda7ca71ac20d681a8a7a994e1" target="_top" xlink:title="Adds an entry to the main menu.">
<polygon fill="white" stroke="black" points="154.5,-57.5 154.5,-76.5 243.5,-76.5 243.5,-57.5 154.5,-57.5"/>
<text text-anchor="middle" x="199" y="-64.5" font-family="Helvetica,sans-Serif" font-size="10.00">menu_add_entry</text>
</a>
</g>
<!-- Node1&#45;&gt;Node3 -->
<g id="edge4" class="edge"><title>Node1&#45;&gt;Node3</title>
<path fill="none" stroke="midnightblue" d="M54.2065,-285.05C58.7659,-251.795 77.9677,-143.38 140,-86 141.706,-84.4216 143.546,-82.9741 145.484,-81.6469"/>
<polygon fill="midnightblue" stroke="midnightblue" points="147.508,-84.5239 154.499,-76.5632 144.069,-78.4266 147.508,-84.5239"/>
</g>
<!-- Node4 -->
<g id="node7" class="node"><title>Node4</title>
<a xlink:href="../../de/dd1/stopwatch_8c.xhtml#a03aedb19c639b84174592190e5c648d5" target="_top" xlink:title="up_press">
<polygon fill="white" stroke="black" points="171,-342.5 171,-361.5 227,-361.5 227,-342.5 171,-342.5"/>
<text text-anchor="middle" x="199" y="-349.5" font-family="Helvetica,sans-Serif" font-size="10.00">up_press</text>
</a>
</g>
<!-- Node1&#45;&gt;Node4 -->
<g id="edge6" class="edge"><title>Node1&#45;&gt;Node4</title>
<path fill="none" stroke="midnightblue" d="M73.5134,-304.62C90.9999,-312.661 116.898,-324.194 140,-333 146.875,-335.621 154.288,-338.218 161.44,-340.611"/>
<polygon fill="midnightblue" stroke="midnightblue" points="160.365,-343.942 170.958,-343.731 162.546,-337.29 160.365,-343.942"/>
</g>
<!-- Node12 -->
<g id="node24" class="node"><title>Node12</title>
<a xlink:href="../../de/dd1/stopwatch_8c.xhtml#a0ac87fd2e3f34e16f0647466bcc80244" target="_top" xlink:title="down_press">
<polygon fill="white" stroke="black" points="164.5,-304.5 164.5,-323.5 233.5,-323.5 233.5,-304.5 164.5,-304.5"/>
<text text-anchor="middle" x="199" y="-311.5" font-family="Helvetica,sans-Serif" font-size="10.00">down_press</text>
</a>
</g>
<!-- Node1&#45;&gt;Node12 -->
<g id="edge24" class="edge"><title>Node1&#45;&gt;Node12</title>
<path fill="none" stroke="midnightblue" d="M104.122,-301.699C120.441,-303.837 138.349,-306.184 154.108,-308.249"/>
<polygon fill="midnightblue" stroke="midnightblue" points="153.745,-311.731 164.115,-309.56 154.655,-304.79 153.745,-311.731"/>
</g>
<!-- Node13 -->
<g id="node28" class="node"><title>Node13</title>
<a xlink:href="../../de/dd1/stopwatch_8c.xhtml#a59733069c598c7864f48ad923cc5ea0d" target="_top" xlink:title="num_press">
<polygon fill="white" stroke="black" points="332.5,-266.5 332.5,-285.5 397.5,-285.5 397.5,-266.5 332.5,-266.5"/>
<text text-anchor="middle" x="365" y="-273.5" font-family="Helvetica,sans-Serif" font-size="10.00">num_press</text>
</a>
</g>
<!-- Node1&#45;&gt;Node13 -->
<g id="edge30" class="edge"><title>Node1&#45;&gt;Node13</title>
<path fill="none" stroke="midnightblue" d="M104.007,-291.884C165.004,-288.157 265.927,-281.992 322.416,-278.54"/>
<polygon fill="midnightblue" stroke="midnightblue" points="322.66,-282.032 332.428,-277.929 322.233,-275.045 322.66,-282.032"/>
</g>
<!-- Node14 -->
<g id="node31" class="node"><title>Node14</title>
<a xlink:href="../../de/dd1/stopwatch_8c.xhtml#a46f772fa9a20c54fa4e3e0f3d6b3696e" target="_top" xlink:title="num_long_pressed">
<polygon fill="white" stroke="black" points="150,-418.5 150,-437.5 248,-437.5 248,-418.5 150,-418.5"/>
<text text-anchor="middle" x="199" y="-425.5" font-family="Helvetica,sans-Serif" font-size="10.00">num_long_pressed</text>
</a>
</g>
<!-- Node1&#45;&gt;Node14 -->
<g id="edge34" class="edge"><title>Node1&#45;&gt;Node14</title>
<path fill="none" stroke="midnightblue" d="M63.428,-304.565C87.8678,-326.982 149.094,-383.141 179.817,-411.322"/>
<polygon fill="midnightblue" stroke="midnightblue" points="177.54,-413.983 187.275,-418.163 182.272,-408.824 177.54,-413.983"/>
</g>
<!-- Node15 -->
<g id="node35" class="node"><title>Node15</title>
<a xlink:href="../../de/dd1/stopwatch_8c.xhtml#a7ccfd2ccec37875561ce7daa2e5fd83f" target="_top" xlink:title="stopwatch_activated">
<polygon fill="white" stroke="black" points="145.5,-190.5 145.5,-209.5 252.5,-209.5 252.5,-190.5 145.5,-190.5"/>
<text text-anchor="middle" x="199" y="-197.5" font-family="Helvetica,sans-Serif" font-size="10.00">stopwatch_activated</text>
</a>
</g>
<!-- Node1&#45;&gt;Node15 -->
<g id="edge40" class="edge"><title>Node1&#45;&gt;Node15</title>
<path fill="none" stroke="midnightblue" d="M67.7013,-285.368C92.8873,-268.867 144.481,-235.064 174.641,-215.304"/>
<polygon fill="midnightblue" stroke="midnightblue" points="176.813,-218.065 183.26,-209.657 172.977,-212.21 176.813,-218.065"/>
</g>
<!-- Node18 -->
<g id="node44" class="node"><title>Node18</title>
<a xlink:href="../../de/dd1/stopwatch_8c.xhtml#acea2628ec4c64a0a845a3c4e48a9714e" target="_top" xlink:title="stopwatch_deactivated">
<polygon fill="white" stroke="black" points="140.5,-95.5 140.5,-114.5 257.5,-114.5 257.5,-95.5 140.5,-95.5"/>
<text text-anchor="middle" x="199" y="-102.5" font-family="Helvetica,sans-Serif" font-size="10.00">stopwatch_deactivated</text>
</a>
</g>
<!-- Node1&#45;&gt;Node18 -->
<g id="edge52" class="edge"><title>Node1&#45;&gt;Node18</title>
<path fill="none" stroke="midnightblue" d="M60.3899,-285.317C83.364,-255.213 153.801,-162.915 184.007,-123.335"/>
<polygon fill="midnightblue" stroke="midnightblue" points="187.167,-124.965 190.451,-114.892 181.602,-120.718 187.167,-124.965"/>
</g>
<!-- Node5 -->
<g id="node9" class="node"><title>Node5</title>
<a xlink:href="../../de/dd1/stopwatch_8c.xhtml#aa0ed77a7ae91fdf019637f338a035bbc" target="_top" xlink:title="increment_lap_stopwatch">
<polygon fill="white" stroke="black" points="301,-342.5 301,-361.5 429,-361.5 429,-342.5 301,-342.5"/>
<text text-anchor="middle" x="365" y="-349.5" font-family="Helvetica,sans-Serif" font-size="10.00">increment_lap_stopwatch</text>
</a>
</g>
<!-- Node4&#45;&gt;Node5 -->
<g id="edge8" class="edge"><title>Node4&#45;&gt;Node5</title>
<path fill="none" stroke="midnightblue" d="M227.081,-352C244.438,-352 267.87,-352 290.441,-352"/>
<polygon fill="midnightblue" stroke="midnightblue" points="290.725,-355.5 300.725,-352 290.725,-348.5 290.725,-355.5"/>
</g>
<!-- Node6 -->
<g id="node11" class="node"><title>Node6</title>
<a xlink:href="../../de/dd1/stopwatch_8c.xhtml#a8ef9fc26e81a38682849cab809cc500e" target="_top" xlink:title="drawStopWatchScreen">
<polygon fill="white" stroke="black" points="472.5,-228.5 472.5,-247.5 589.5,-247.5 589.5,-228.5 472.5,-228.5"/>
<text text-anchor="middle" x="531" y="-235.5" font-family="Helvetica,sans-Serif" font-size="10.00">drawStopWatchScreen</text>
</a>
</g>
<!-- Node4&#45;&gt;Node6 -->
<g id="edge10" class="edge"><title>Node4&#45;&gt;Node6</title>
<path fill="none" stroke="midnightblue" d="M223.044,-361.513C267.19,-378.154 365.551,-407.477 436,-371 482.494,-346.926 510.907,-288.095 523.072,-257.382"/>
<polygon fill="midnightblue" stroke="midnightblue" points="526.434,-258.386 526.699,-247.795 519.887,-255.909 526.434,-258.386"/>
</g>
<!-- Node7 -->
<g id="node13" class="node"><title>Node7</title>
<a xlink:href="../../db/d85/display_8c.xhtml#a6f2d5cdda31a73b43a569cb3d1a64165" target="_top" xlink:title="Displays several consecutive characters.">
<polygon fill="white" stroke="black" points="629.5,-171.5 629.5,-190.5 706.5,-190.5 706.5,-171.5 629.5,-171.5"/>
<text text-anchor="middle" x="668" y="-178.5" font-family="Helvetica,sans-Serif" font-size="10.00">display_chars</text>
</a>
</g>
<!-- Node6&#45;&gt;Node7 -->
<g id="edge12" class="edge"><title>Node6&#45;&gt;Node7</title>
<path fill="none" stroke="midnightblue" d="M554.596,-228.459C576.596,-219.171 610.243,-204.964 634.993,-194.514"/>
<polygon fill="midnightblue" stroke="midnightblue" points="636.479,-197.686 644.33,-190.572 633.756,-191.237 636.479,-197.686"/>
</g>
<!-- Node11 -->
<g id="node21" class="node"><title>Node11</title>
<a xlink:href="../../db/d85/display_8c.xhtml#af604e78dcc4e0f1a204b2180c5e54957" target="_top" xlink:title="Displays a symbol.">
<polygon fill="white" stroke="black" points="626,-133.5 626,-152.5 710,-152.5 710,-133.5 626,-133.5"/>
<text text-anchor="middle" x="668" y="-140.5" font-family="Helvetica,sans-Serif" font-size="10.00">display_symbol</text>
</a>
</g>
<!-- Node6&#45;&gt;Node11 -->
<g id="edge20" class="edge"><title>Node6&#45;&gt;Node11</title>
<path fill="none" stroke="midnightblue" d="M542.076,-228.441C558.629,-213.073 593.043,-182.522 626,-162 628.645,-160.353 631.456,-158.76 634.319,-157.243"/>
<polygon fill="midnightblue" stroke="midnightblue" points="636.093,-160.27 643.493,-152.688 632.98,-154 636.093,-160.27"/>
</g>
<!-- Node8 -->
<g id="node15" class="node"><title>Node8</title>
<a xlink:href="../../db/d85/display_8c.xhtml#a3ae30196af91197037d50cb49de1d109" target="_top" xlink:title="Displays a single character.">
<polygon fill="white" stroke="black" points="746.5,-171.5 746.5,-190.5 817.5,-190.5 817.5,-171.5 746.5,-171.5"/>
<text text-anchor="middle" x="782" y="-178.5" font-family="Helvetica,sans-Serif" font-size="10.00">display_char</text>
</a>
</g>
<!-- Node7&#45;&gt;Node8 -->
<g id="edge14" class="edge"><title>Node7&#45;&gt;Node8</title>
<path fill="none" stroke="midnightblue" d="M706.606,-181C716.133,-181 726.46,-181 736.301,-181"/>
<polygon fill="midnightblue" stroke="midnightblue" points="736.326,-184.5 746.326,-181 736.326,-177.5 736.326,-184.5"/>
</g>
<!-- Node9 -->
<g id="node17" class="node"><title>Node9</title>
<a xlink:href="../../db/d85/display_8c.xhtml#a9275035317878022cf9eacf6b0a5be72" target="_top" xlink:title="Display a custom collection of segments.">
<polygon fill="white" stroke="black" points="854,-171.5 854,-190.5 922,-190.5 922,-171.5 854,-171.5"/>
<text text-anchor="middle" x="888" y="-178.5" font-family="Helvetica,sans-Serif" font-size="10.00">display_bits</text>
</a>
</g>
<!-- Node8&#45;&gt;Node9 -->
<g id="edge16" class="edge"><title>Node8&#45;&gt;Node9</title>
<path fill="none" stroke="midnightblue" d="M817.63,-181C826.04,-181 835.133,-181 843.882,-181"/>
<polygon fill="midnightblue" stroke="midnightblue" points="843.931,-184.5 853.931,-181 843.931,-177.5 843.931,-184.5"/>
</g>
<!-- Node10 -->
<g id="node19" class="node"><title>Node10</title>
<a xlink:href="../../db/d85/display_8c.xhtml#a710739913e8ea1b71dd433b8311211fd" target="_top" xlink:title="write_lcd_mem">
<polygon fill="white" stroke="black" points="958.5,-152.5 958.5,-171.5 1041.5,-171.5 1041.5,-152.5 958.5,-152.5"/>
<text text-anchor="middle" x="1000" y="-159.5" font-family="Helvetica,sans-Serif" font-size="10.00">write_lcd_mem</text>
</a>
</g>
<!-- Node9&#45;&gt;Node10 -->
<g id="edge18" class="edge"><title>Node9&#45;&gt;Node10</title>
<path fill="none" stroke="midnightblue" d="M922.004,-175.299C930.28,-173.87 939.352,-172.303 948.273,-170.762"/>
<polygon fill="midnightblue" stroke="midnightblue" points="948.972,-174.193 958.231,-169.042 947.781,-167.295 948.972,-174.193"/>
</g>
<!-- Node11&#45;&gt;Node10 -->
<g id="edge22" class="edge"><title>Node11&#45;&gt;Node10</title>
<path fill="none" stroke="midnightblue" d="M710.127,-145.368C770.481,-148.843 882.942,-155.318 948.318,-159.082"/>
<polygon fill="midnightblue" stroke="midnightblue" points="948.206,-162.581 958.391,-159.662 948.609,-155.593 948.206,-162.581"/>
</g>
<!-- Node12&#45;&gt;Node5 -->
<g id="edge26" class="edge"><title>Node12&#45;&gt;Node5</title>
<path fill="none" stroke="midnightblue" d="M233.584,-321.782C256.417,-327.072 287.054,-334.171 312.896,-340.159"/>
<polygon fill="midnightblue" stroke="midnightblue" points="312.372,-343.63 322.904,-342.478 313.952,-336.811 312.372,-343.63"/>
</g>
<!-- Node12&#45;&gt;Node6 -->
<g id="edge28" class="edge"><title>Node12&#45;&gt;Node6</title>
<path fill="none" stroke="midnightblue" d="M233.775,-316.083C280.456,-317.897 366.773,-317.383 436,-295 463.935,-285.968 492.239,-267.209 510.382,-253.675"/>
<polygon fill="midnightblue" stroke="midnightblue" points="512.614,-256.374 518.426,-247.516 508.358,-250.816 512.614,-256.374"/>
</g>
<!-- Node13&#45;&gt;Node6 -->
<g id="edge32" class="edge"><title>Node13&#45;&gt;Node6</title>
<path fill="none" stroke="midnightblue" d="M397.621,-268.673C420.648,-263.338 452.329,-255.997 478.925,-249.834"/>
<polygon fill="midnightblue" stroke="midnightblue" points="479.889,-253.204 488.841,-247.537 478.309,-246.385 479.889,-253.204"/>
</g>
<!-- Node14&#45;&gt;Node2 -->
<g id="edge36" class="edge"><title>Node14&#45;&gt;Node2</title>
<path fill="none" stroke="midnightblue" d="M241.384,-437.589C263.123,-442.626 289.957,-448.844 312.975,-454.177"/>
<polygon fill="midnightblue" stroke="midnightblue" points="312.381,-457.632 322.913,-456.48 313.962,-450.813 312.381,-457.632"/>
</g>
<!-- Node14&#45;&gt;Node6 -->
<g id="edge38" class="edge"><title>Node14&#45;&gt;Node6</title>
<path fill="none" stroke="midnightblue" d="M248.076,-432.273C298.972,-434.36 379.593,-430.477 436,-393 485.672,-359.997 513.312,-290.927 524.321,-257.267"/>
<polygon fill="midnightblue" stroke="midnightblue" points="527.677,-258.261 527.318,-247.673 520.995,-256.174 527.677,-258.261"/>
</g>
<!-- Node15&#45;&gt;Node6 -->
<g id="edge50" class="edge"><title>Node15&#45;&gt;Node6</title>
<path fill="none" stroke="midnightblue" d="M252.688,-202.442C300.646,-205.091 373.317,-210.174 436,-219 449.663,-220.924 464.332,-223.593 477.922,-226.324"/>
<polygon fill="midnightblue" stroke="midnightblue" points="477.57,-229.825 488.07,-228.413 478.981,-222.969 477.57,-229.825"/>
</g>
<!-- Node15&#45;&gt;Node11 -->
<g id="edge42" class="edge"><title>Node15&#45;&gt;Node11</title>
<path fill="none" stroke="midnightblue" d="M252.663,-193.572C342.954,-182.552 526.195,-160.186 615.606,-149.273"/>
<polygon fill="midnightblue" stroke="midnightblue" points="616.271,-152.718 625.774,-148.032 615.423,-145.769 616.271,-152.718"/>
</g>
<!-- Node16 -->
<g id="node38" class="node"><title>Node16</title>
<a xlink:href="../../d2/df2/openchronos_8c.xhtml#a5aeb07d7031b5d53ca8605bf398714a2" target="_top" xlink:title="Registers a node in the message bus.">
<polygon fill="white" stroke="black" points="299.5,-228.5 299.5,-247.5 430.5,-247.5 430.5,-228.5 299.5,-228.5"/>
<text text-anchor="middle" x="365" y="-235.5" font-family="Helvetica,sans-Serif" font-size="10.00">sys_messagebus_register</text>
</a>
</g>
<!-- Node15&#45;&gt;Node16 -->
<g id="edge44" class="edge"><title>Node15&#45;&gt;Node16</title>
<path fill="none" stroke="midnightblue" d="M241.384,-209.589C263.123,-214.626 289.957,-220.844 312.975,-226.177"/>
<polygon fill="midnightblue" stroke="midnightblue" points="312.381,-229.632 322.913,-228.48 313.962,-222.813 312.381,-229.632"/>
</g>
<!-- Node17 -->
<g id="node40" class="node"><title>Node17</title>
<a xlink:href="../../de/dd1/stopwatch_8c.xhtml#a00f8b39897039c57fed601ea1d449184" target="_top" xlink:title="stopwatch_event">
<polygon fill="white" stroke="black" points="319.5,-114.5 319.5,-133.5 410.5,-133.5 410.5,-114.5 319.5,-114.5"/>
<text text-anchor="middle" x="365" y="-121.5" font-family="Helvetica,sans-Serif" font-size="10.00">stopwatch_event</text>
</a>
</g>
<!-- Node15&#45;&gt;Node17 -->
<g id="edge46" class="edge"><title>Node15&#45;&gt;Node17</title>
<path fill="none" stroke="midnightblue" d="M215.209,-190.496C233.454,-179.354 265.192,-160.789 294,-148 303.063,-143.976 313.025,-140.197 322.519,-136.881"/>
<polygon fill="midnightblue" stroke="midnightblue" points="323.841,-140.129 332.187,-133.602 321.593,-133.5 323.841,-140.129"/>
</g>
<!-- Node17&#45;&gt;Node6 -->
<g id="edge48" class="edge"><title>Node17&#45;&gt;Node6</title>
<path fill="none" stroke="midnightblue" d="M379.7,-133.523C407.968,-153.173 472.993,-198.373 507.515,-222.37"/>
<polygon fill="midnightblue" stroke="midnightblue" points="505.782,-225.428 515.991,-228.262 509.777,-219.68 505.782,-225.428"/>
</g>
<!-- Node18&#45;&gt;Node11 -->
<g id="edge64" class="edge"><title>Node18&#45;&gt;Node11</title>
<path fill="none" stroke="midnightblue" d="M257.659,-96.0601C334.799,-86.1053 475.183,-75.0493 590,-105 608.814,-109.908 628.445,-119.679 643.176,-128.083"/>
<polygon fill="midnightblue" stroke="midnightblue" points="641.7,-131.276 652.091,-133.344 645.258,-125.248 641.7,-131.276"/>
</g>
<!-- Node18&#45;&gt;Node17 -->
<g id="edge62" class="edge"><title>Node18&#45;&gt;Node17</title>
<path fill="none" stroke="midnightblue" d="M257.82,-111.699C274.545,-113.636 292.744,-115.745 309.274,-117.66"/>
<polygon fill="midnightblue" stroke="midnightblue" points="308.986,-121.15 319.323,-118.824 309.792,-114.196 308.986,-121.15"/>
</g>
<!-- Node19 -->
<g id="node46" class="node"><title>Node19</title>
<a xlink:href="../../db/d85/display_8c.xhtml#aa150336a018e90f37fd0285047b541f6" target="_top" xlink:title="Clears the screen.">
<polygon fill="white" stroke="black" points="494,-114.5 494,-133.5 568,-133.5 568,-114.5 494,-114.5"/>
<text text-anchor="middle" x="531" y="-121.5" font-family="Helvetica,sans-Serif" font-size="10.00">display_clear</text>
</a>
</g>
<!-- Node18&#45;&gt;Node19 -->
<g id="edge54" class="edge"><title>Node18&#45;&gt;Node19</title>
<path fill="none" stroke="midnightblue" d="M257.868,-101.796C305.743,-99.9128 375.459,-98.9427 436,-105 451.614,-106.562 468.472,-109.549 483.542,-112.701"/>
<polygon fill="midnightblue" stroke="midnightblue" points="483.138,-116.194 493.652,-114.893 484.621,-109.353 483.138,-116.194"/>
</g>
<!-- Node20 -->
<g id="node50" class="node"><title>Node20</title>
<a xlink:href="../../d2/df2/openchronos_8c.xhtml#a60705ce0564ce52c1977a32cee3215c2" target="_top" xlink:title="Unregisters a node from the message bus.">
<polygon fill="white" stroke="black" points="294.5,-0.5 294.5,-19.5 435.5,-19.5 435.5,-0.5 294.5,-0.5"/>
<text text-anchor="middle" x="365" y="-7.5" font-family="Helvetica,sans-Serif" font-size="10.00">sys_messagebus_unregister</text>
</a>
</g>
<!-- Node18&#45;&gt;Node20 -->
<g id="edge60" class="edge"><title>Node18&#45;&gt;Node20</title>
<path fill="none" stroke="midnightblue" d="M240.672,-95.4493C246.814,-92.9664 252.819,-89.8647 258,-86 280.531,-69.1928 271.585,-50.9614 294,-34 299.575,-29.7811 305.944,-26.2714 312.516,-23.3599"/>
<polygon fill="midnightblue" stroke="midnightblue" points="314.218,-26.4503 322.222,-19.5094 311.636,-19.9435 314.218,-26.4503"/>
</g>
<!-- Node19&#45;&gt;Node7 -->
<g id="edge56" class="edge"><title>Node19&#45;&gt;Node7</title>
<path fill="none" stroke="midnightblue" d="M554.596,-133.541C576.596,-142.829 610.243,-157.036 634.993,-167.486"/>
<polygon fill="midnightblue" stroke="midnightblue" points="633.756,-170.763 644.33,-171.428 636.479,-164.314 633.756,-170.763"/>
</g>
<!-- Node19&#45;&gt;Node11 -->
<g id="edge58" class="edge"><title>Node19&#45;&gt;Node11</title>
<path fill="none" stroke="midnightblue" d="M568.178,-129.092C582.785,-131.148 599.908,-133.557 615.758,-135.788"/>
<polygon fill="midnightblue" stroke="midnightblue" points="615.561,-139.295 625.951,-137.223 616.537,-132.363 615.561,-139.295"/>
</g>
</g>
</svg>
