<?xml version="1.0" encoding="UTF-8" standalone="no"?>
<!DOCTYPE svg PUBLIC "-//W3C//DTD SVG 1.1//EN"
 "http://www.w3.org/Graphics/SVG/1.1/DTD/svg11.dtd">
<!-- Generated by graphviz version 2.28.0 (20121221.0049)
 -->
<!-- Title: num_press Pages: 1 -->
<svg width="686pt" height="66pt"
 viewBox="0.00 0.00 686.00 66.00" xmlns="http://www.w3.org/2000/svg" xmlns:xlink="http://www.w3.org/1999/xlink">
<g id="graph1" class="graph" transform="scale(1 1) rotate(0) translate(4 62)">
<title>num_press</title>
<polygon fill="white" stroke="white" points="-4,5 -4,-62 683,-62 683,5 -4,5"/>
<!-- Node1 -->
<g id="node1" class="node"><title>Node1</title>
<polygon fill="#bfbfbf" stroke="black" points="0.5,-19.5 0.5,-38.5 65.5,-38.5 65.5,-19.5 0.5,-19.5"/>
<text text-anchor="middle" x="33" y="-26.5" font-family="Helvetica,sans-Serif" font-size="10.00">num_press</text>
</g>
<!-- Node2 -->
<g id="node3" class="node"><title>Node2</title>
<a xlink:href="../../de/dd1/stopwatch_8c.xhtml#a8ef9fc26e81a38682849cab809cc500e" target="_top" xlink:title="drawStopWatchScreen">
<polygon fill="white" stroke="black" points="102.5,-19.5 102.5,-38.5 219.5,-38.5 219.5,-19.5 102.5,-19.5"/>
<text text-anchor="middle" x="161" y="-26.5" font-family="Helvetica,sans-Serif" font-size="10.00">drawStopWatchScreen</text>
</a>
</g>
<!-- Node1&#45;&gt;Node2 -->
<g id="edge2" class="edge"><title>Node1&#45;&gt;Node2</title>
<path fill="none" stroke="midnightblue" d="M65.7951,-29C73.9329,-29 83.0001,-29 92.2046,-29"/>
<polygon fill="midnightblue" stroke="midnightblue" points="92.2089,-32.5001 102.209,-29 92.2088,-25.5001 92.2089,-32.5001"/>
</g>
<!-- Node3 -->
<g id="node5" class="node"><title>Node3</title>
<a xlink:href="../../db/d85/display_8c.xhtml#a6f2d5cdda31a73b43a569cb3d1a64165" target="_top" xlink:title="Displays several consecutive characters.">
<polygon fill="white" stroke="black" points="256.5,-38.5 256.5,-57.5 333.5,-57.5 333.5,-38.5 256.5,-38.5"/>
<text text-anchor="middle" x="295" y="-45.5" font-family="Helvetica,sans-Serif" font-size="10.00">display_chars</text>
</a>
</g>
<!-- Node2&#45;&gt;Node3 -->
<g id="edge4" class="edge"><title>Node2&#45;&gt;Node3</title>
<path fill="none" stroke="midnightblue" d="M219.513,-37.2784C228.501,-38.5722 237.703,-39.8967 246.437,-41.1538"/>
<polygon fill="midnightblue" stroke="midnightblue" points="246.037,-44.6322 256.433,-42.5927 247.034,-37.7036 246.037,-44.6322"/>
</g>
<!-- Node7 -->
<g id="node13" class="node"><title>Node7</title>
<a xlink:href="../../db/d85/display_8c.xhtml#af604e78dcc4e0f1a204b2180c5e54957" target="_top" xlink:title="Displays a symbol.">
<polygon fill="white" stroke="black" points="370,-0.5 370,-19.5 454,-19.5 454,-0.5 370,-0.5"/>
<text text-anchor="middle" x="412" y="-7.5" font-family="Helvetica,sans-Serif" font-size="10.00">display_symbol</text>
</a>
</g>
<!-- Node2&#45;&gt;Node7 -->
<g id="edge12" class="edge"><title>Node2&#45;&gt;Node7</title>
<path fill="none" stroke="midnightblue" d="M219.751,-24.5933C262.133,-21.3593 319.166,-17.0074 359.897,-13.8994"/>
<polygon fill="midnightblue" stroke="midnightblue" points="360.178,-17.3883 369.883,-13.1375 359.645,-10.4085 360.178,-17.3883"/>
</g>
<!-- Node4 -->
<g id="node7" class="node"><title>Node4</title>
<a xlink:href="../../db/d85/display_8c.xhtml#a3ae30196af91197037d50cb49de1d109" target="_top" xlink:title="Displays a single character.">
<polygon fill="white" stroke="black" points="376.5,-38.5 376.5,-57.5 447.5,-57.5 447.5,-38.5 376.5,-38.5"/>
<text text-anchor="middle" x="412" y="-45.5" font-family="Helvetica,sans-Serif" font-size="10.00">display_char</text>
</a>
</g>
<!-- Node3&#45;&gt;Node4 -->
<g id="edge6" class="edge"><title>Node3&#45;&gt;Node4</title>
<path fill="none" stroke="midnightblue" d="M333.655,-48C344.08,-48 355.496,-48 366.281,-48"/>
<polygon fill="midnightblue" stroke="midnightblue" points="366.374,-51.5001 376.374,-48 366.374,-44.5001 366.374,-51.5001"/>
</g>
<!-- Node5 -->
<g id="node9" class="node"><title>Node5</title>
<a xlink:href="../../db/d85/display_8c.xhtml#a9275035317878022cf9eacf6b0a5be72" target="_top" xlink:title="Display a custom collection of segments.">
<polygon fill="white" stroke="black" points="490,-38.5 490,-57.5 558,-57.5 558,-38.5 490,-38.5"/>
<text text-anchor="middle" x="524" y="-45.5" font-family="Helvetica,sans-Serif" font-size="10.00">display_bits</text>
</a>
</g>
<!-- Node4&#45;&gt;Node5 -->
<g id="edge8" class="edge"><title>Node4&#45;&gt;Node5</title>
<path fill="none" stroke="midnightblue" d="M447.503,-48C457.721,-48 469.04,-48 479.738,-48"/>
<polygon fill="midnightblue" stroke="midnightblue" points="479.748,-51.5001 489.748,-48 479.748,-44.5001 479.748,-51.5001"/>
</g>
<!-- Node6 -->
<g id="node11" class="node"><title>Node6</title>
<a xlink:href="../../db/d85/display_8c.xhtml#a710739913e8ea1b71dd433b8311211fd" target="_top" xlink:title="write_lcd_mem">
<polygon fill="white" stroke="black" points="594.5,-19.5 594.5,-38.5 677.5,-38.5 677.5,-19.5 594.5,-19.5"/>
<text text-anchor="middle" x="636" y="-26.5" font-family="Helvetica,sans-Serif" font-size="10.00">write_lcd_mem</text>
</a>
</g>
<!-- Node5&#45;&gt;Node6 -->
<g id="edge10" class="edge"><title>Node5&#45;&gt;Node6</title>
<path fill="none" stroke="midnightblue" d="M558.004,-42.2994C566.28,-40.8698 575.352,-39.3029 584.273,-37.762"/>
<polygon fill="midnightblue" stroke="midnightblue" points="584.972,-41.1931 594.231,-36.042 583.781,-34.2952 584.972,-41.1931"/>
</g>
<!-- Node7&#45;&gt;Node6 -->
<g id="edge14" class="edge"><title>Node7&#45;&gt;Node6</title>
<path fill="none" stroke="midnightblue" d="M454.236,-13.5292C490.955,-16.6718 544.802,-21.2804 584.174,-24.65"/>
<polygon fill="midnightblue" stroke="midnightblue" points="584.097,-28.1562 594.359,-25.5218 584.694,-21.1817 584.097,-28.1562"/>
</g>
</g>
</svg>
