<?xml version="1.0" encoding="UTF-8" standalone="no"?>
<!DOCTYPE svg PUBLIC "-//W3C//DTD SVG 1.1//EN"
 "http://www.w3.org/Graphics/SVG/1.1/DTD/svg11.dtd">
<!-- Generated by graphviz version 2.28.0 (20121221.0049)
 -->
<!-- Title: stopwatch_activated Pages: 1 -->
<!--zoomable 101 -->
<svg id="main" version="1.1" xmlns="http://www.w3.org/2000/svg" xmlns:xlink="http://www.w3.org/1999/xlink" xml:space="preserve" onload="init(evt)">
        <defs>
                <circle id="rim" cx="0" cy="0" r="7"/>
                <circle id="rim2" cx="0" cy="0" r="3.5"/>
                <g id="zoomPlus">
                        <use xlink:href="#rim" fill="#404040">
                                <set attributeName="fill" to="#808080" begin="zoomplus.mouseover" end="zoomplus.mouseout"/>
                        </use>
                        <path d="M-4,0h8M0,-4v8" fill="none" stroke="white" stroke-width="1.5" pointer-events="none"/>
                </g>
                <g id="zoomMin">
                        <use xlink:href="#rim" fill="#404040">
                                <set attributeName="fill" to="#808080" begin="zoomminus.mouseover" end="zoomminus.mouseout"/>
                        </use>
                        <path d="M-4,0h8" fill="none" stroke="white" stroke-width="1.5" pointer-events="none"/>
                </g>
                <g id="dirArrow">
                        <path fill="none" stroke="white" stroke-width="1.5" d="M0,-3.0v7 M-2.5,-0.5L0,-3.0L2.5,-0.5"/>
                </g>
               <g id="resetDef">
                       <use xlink:href="#rim2" fill="#404040">
                               <set attributeName="fill" to="#808080" begin="reset.mouseover" end="reset.mouseout"/>
                       </use>
               </g>
        </defs>

<script type="text/javascript">
var viewWidth = 890;
var viewHeight = 101;
var sectionId = 'dynsection-6';
</script>
<script xlink:href="../../svgpan.js"/>
<svg id="graph" class="graph">
<g id="viewport">
<title>stopwatch_activated</title>
<polygon fill="white" stroke="white" points="-4,5 -4,-97.3903 887,-97.3903 887,5 -4,5"/>
<!-- Node1 -->
<g id="node1" class="node"><title>Node1</title>
<polygon fill="#bfbfbf" stroke="black" points="0.5,-34.621 0.5,-53.621 107.5,-53.621 107.5,-34.621 0.5,-34.621"/>
<text text-anchor="middle" x="54" y="-41.621" font-family="Helvetica,sans-Serif" font-size="10.00">stopwatch_activated</text>
</g>
<!-- Node2 -->
<g id="node3" class="node"><title>Node2</title>
<a xlink:href="../../db/d85/display_8c.xhtml#af604e78dcc4e0f1a204b2180c5e54957" target="_top" xlink:title="Displays a symbol.">
<polygon fill="white" stroke="black" points="466,-53.621 466,-72.621 550,-72.621 550,-53.621 466,-53.621"/>
<text text-anchor="middle" x="508" y="-60.621" font-family="Helvetica,sans-Serif" font-size="10.00">display_symbol</text>
</a>
</g>
<!-- Node1&#45;&gt;Node2 -->
<g id="edge2" class="edge"><title>Node1&#45;&gt;Node2</title>
<path fill="none" stroke="midnightblue" d="M71.724,-53.6966C89.13,-63.0679 117.499,-76.7003 144,-82.121 253.46,-104.511 385.134,-86.8452 455.945,-73.818"/>
<polygon fill="midnightblue" stroke="midnightblue" points="456.762,-77.2258 465.941,-71.9349 455.466,-70.3468 456.762,-77.2258"/>
</g>
<!-- Node4 -->
<g id="node7" class="node"><title>Node4</title>
<a xlink:href="../../d2/df2/openchronos_8c.xhtml#a5aeb07d7031b5d53ca8605bf398714a2" target="_top" xlink:title="Registers a node in the message bus.">
<polygon fill="white" stroke="black" points="144.5,-53.621 144.5,-72.621 275.5,-72.621 275.5,-53.621 144.5,-53.621"/>
<text text-anchor="middle" x="210" y="-60.621" font-family="Helvetica,sans-Serif" font-size="10.00">sys_messagebus_register</text>
</a>
</g>
<!-- Node1&#45;&gt;Node4 -->
<g id="edge6" class="edge"><title>Node1&#45;&gt;Node4</title>
<path fill="none" stroke="midnightblue" d="M107.567,-50.6066C116.177,-51.6688 125.242,-52.7872 134.265,-53.9004"/>
<polygon fill="midnightblue" stroke="midnightblue" points="134.055,-57.401 144.408,-55.1519 134.912,-50.4536 134.055,-57.401"/>
</g>
<!-- Node5 -->
<g id="node9" class="node"><title>Node5</title>
<a xlink:href="../../de/dd1/stopwatch_8c.xhtml#a00f8b39897039c57fed601ea1d449184" target="_top" xlink:title="stopwatch_event">
<polygon fill="white" stroke="black" points="164.5,-15.621 164.5,-34.621 255.5,-34.621 255.5,-15.621 164.5,-15.621"/>
<text text-anchor="middle" x="210" y="-22.621" font-family="Helvetica,sans-Serif" font-size="10.00">stopwatch_event</text>
</a>
</g>
<!-- Node1&#45;&gt;Node5 -->
<g id="edge8" class="edge"><title>Node1&#45;&gt;Node5</title>
<path fill="none" stroke="midnightblue" d="M107.567,-37.6354C122.576,-35.7837 138.967,-33.7615 154.11,-31.8931"/>
<polygon fill="midnightblue" stroke="midnightblue" points="154.867,-35.3264 164.363,-30.6281 154.01,-28.379 154.867,-35.3264"/>
</g>
<!-- Node6 -->
<g id="node11" class="node"><title>Node6</title>
<a xlink:href="../../de/dd1/stopwatch_8c.xhtml#a8ef9fc26e81a38682849cab809cc500e" target="_top" xlink:title="drawStopWatchScreen">
<polygon fill="white" stroke="black" points="312.5,-15.621 312.5,-34.621 429.5,-34.621 429.5,-15.621 312.5,-15.621"/>
<text text-anchor="middle" x="371" y="-22.621" font-family="Helvetica,sans-Serif" font-size="10.00">drawStopWatchScreen</text>
</a>
</g>
<!-- Node1&#45;&gt;Node6 -->
<g id="edge22" class="edge"><title>Node1&#45;&gt;Node6</title>
<path fill="none" stroke="midnightblue" d="M71.724,-34.5453C89.13,-25.1741 117.499,-11.5417 144,-6.12098 204.968,6.35003 276.795,-3.81921 322.836,-13.4271"/>
<polygon fill="midnightblue" stroke="midnightblue" points="322.31,-16.8942 332.824,-15.5874 323.79,-10.0524 322.31,-16.8942"/>
</g>
<!-- Node3 -->
<g id="node5" class="node"><title>Node3</title>
<a xlink:href="../../db/d85/display_8c.xhtml#a710739913e8ea1b71dd433b8311211fd" target="_top" xlink:title="write_lcd_mem">
<polygon fill="white" stroke="black" points="798.5,-34.621 798.5,-53.621 881.5,-53.621 881.5,-34.621 798.5,-34.621"/>
<text text-anchor="middle" x="840" y="-41.621" font-family="Helvetica,sans-Serif" font-size="10.00">write_lcd_mem</text>
</a>
</g>
<!-- Node2&#45;&gt;Node3 -->
<g id="edge4" class="edge"><title>Node2&#45;&gt;Node3</title>
<path fill="none" stroke="midnightblue" d="M550.127,-60.753C610.481,-57.2781 722.942,-50.8031 788.318,-47.039"/>
<polygon fill="midnightblue" stroke="midnightblue" points="788.609,-50.5282 798.391,-46.4591 788.206,-43.5398 788.609,-50.5282"/>
</g>
<!-- Node5&#45;&gt;Node6 -->
<g id="edge10" class="edge"><title>Node5&#45;&gt;Node6</title>
<path fill="none" stroke="midnightblue" d="M255.713,-25.121C270.105,-25.121 286.391,-25.121 302.064,-25.121"/>
<polygon fill="midnightblue" stroke="midnightblue" points="302.249,-28.6211 312.249,-25.121 302.249,-21.6211 302.249,-28.6211"/>
</g>
<!-- Node6&#45;&gt;Node2 -->
<g id="edge20" class="edge"><title>Node6&#45;&gt;Node2</title>
<path fill="none" stroke="midnightblue" d="M406.066,-34.71C423.413,-39.5929 444.702,-45.5853 463.249,-50.8059"/>
<polygon fill="midnightblue" stroke="midnightblue" points="462.37,-54.1945 472.945,-53.535 464.267,-47.4564 462.37,-54.1945"/>
</g>
<!-- Node7 -->
<g id="node13" class="node"><title>Node7</title>
<a xlink:href="../../db/d85/display_8c.xhtml#a6f2d5cdda31a73b43a569cb3d1a64165" target="_top" xlink:title="Displays several consecutive characters.">
<polygon fill="white" stroke="black" points="469.5,-15.621 469.5,-34.621 546.5,-34.621 546.5,-15.621 469.5,-15.621"/>
<text text-anchor="middle" x="508" y="-22.621" font-family="Helvetica,sans-Serif" font-size="10.00">display_chars</text>
</a>
</g>
<!-- Node6&#45;&gt;Node7 -->
<g id="edge12" class="edge"><title>Node6&#45;&gt;Node7</title>
<path fill="none" stroke="midnightblue" d="M429.644,-25.121C439.538,-25.121 449.721,-25.121 459.318,-25.121"/>
<polygon fill="midnightblue" stroke="midnightblue" points="459.459,-28.6211 469.459,-25.121 459.459,-21.6211 459.459,-28.6211"/>
</g>
<!-- Node8 -->
<g id="node15" class="node"><title>Node8</title>
<a xlink:href="../../db/d85/display_8c.xhtml#a3ae30196af91197037d50cb49de1d109" target="_top" xlink:title="Displays a single character.">
<polygon fill="white" stroke="black" points="586.5,-15.621 586.5,-34.621 657.5,-34.621 657.5,-15.621 586.5,-15.621"/>
<text text-anchor="middle" x="622" y="-22.621" font-family="Helvetica,sans-Serif" font-size="10.00">display_char</text>
</a>
</g>
<!-- Node7&#45;&gt;Node8 -->
<g id="edge14" class="edge"><title>Node7&#45;&gt;Node8</title>
<path fill="none" stroke="midnightblue" d="M546.606,-25.121C556.133,-25.121 566.46,-25.121 576.301,-25.121"/>
<polygon fill="midnightblue" stroke="midnightblue" points="576.326,-28.6211 586.326,-25.121 576.326,-21.6211 576.326,-28.6211"/>
</g>
<!-- Node9 -->
<g id="node17" class="node"><title>Node9</title>
<a xlink:href="../../db/d85/display_8c.xhtml#a9275035317878022cf9eacf6b0a5be72" target="_top" xlink:title="Display a custom collection of segments.">
<polygon fill="white" stroke="black" points="694,-15.621 694,-34.621 762,-34.621 762,-15.621 694,-15.621"/>
<text text-anchor="middle" x="728" y="-22.621" font-family="Helvetica,sans-Serif" font-size="10.00">display_bits</text>
</a>
</g>
<!-- Node8&#45;&gt;Node9 -->
<g id="edge16" class="edge"><title>Node8&#45;&gt;Node9</title>
<path fill="none" stroke="midnightblue" d="M657.63,-25.121C666.04,-25.121 675.133,-25.121 683.882,-25.121"/>
<polygon fill="midnightblue" stroke="midnightblue" points="683.931,-28.6211 693.931,-25.121 683.931,-21.6211 683.931,-28.6211"/>
</g>
<!-- Node9&#45;&gt;Node3 -->
<g id="edge18" class="edge"><title>Node9&#45;&gt;Node3</title>
<path fill="none" stroke="midnightblue" d="M762.004,-30.8216C770.28,-32.2512 779.352,-33.8181 788.273,-35.359"/>
<polygon fill="midnightblue" stroke="midnightblue" points="787.781,-38.8258 798.231,-37.079 788.972,-31.9279 787.781,-38.8258"/>
</g>
</g>
</svg>
        <g id="navigator" transform="translate(0 0)" fill="#404254">
                <rect fill="#f2f5e9" fill-opacity="0.5" stroke="#606060" stroke-width=".5" x="0" y="0" width="60" height="60"/>
                <use id="zoomplus" xlink:href="#zoomPlus" x="17" y="9" onmousedown="handleZoom(evt,'in')"/>
                <use id="zoomminus" xlink:href="#zoomMin" x="42" y="9" onmousedown="handleZoom(evt,'out')"/>
                <use id="reset" xlink:href="#resetDef" x="30" y="36" onmousedown="handleReset()"/>
                <g id="arrowUp" xlink:href="#dirArrow" transform="translate(30 24)" onmousedown="handlePan(0,-1)">
                  <use xlink:href="#rim" fill="#404040">
                        <set attributeName="fill" to="#808080" begin="arrowUp.mouseover" end="arrowUp.mouseout"/>
                  </use>
                  <path fill="none" stroke="white" stroke-width="1.5" d="M0,-3.0v7 M-2.5,-0.5L0,-3.0L2.5,-0.5"/>
                </g>
                <g id="arrowRight" xlink:href="#dirArrow" transform="rotate(90) translate(36 -43)" onmousedown="handlePan(1,0)">
                  <use xlink:href="#rim" fill="#404040">
                        <set attributeName="fill" to="#808080" begin="arrowRight.mouseover" end="arrowRight.mouseout"/>
                  </use>
                  <path fill="none" stroke="white" stroke-width="1.5" d="M0,-3.0v7 M-2.5,-0.5L0,-3.0L2.5,-0.5"/>
                </g>
                <g id="arrowDown" xlink:href="#dirArrow" transform="rotate(180) translate(-30 -48)" onmousedown="handlePan(0,1)">
                  <use xlink:href="#rim" fill="#404040">
                        <set attributeName="fill" to="#808080" begin="arrowDown.mouseover" end="arrowDown.mouseout"/>
                  </use>
                  <path fill="none" stroke="white" stroke-width="1.5" d="M0,-3.0v7 M-2.5,-0.5L0,-3.0L2.5,-0.5"/>
                </g>
                <g id="arrowLeft" xlink:href="#dirArrow" transform="rotate(270) translate(-36 17)" onmousedown="handlePan(-1,0)">
                  <use xlink:href="#rim" fill="#404040">
                        <set attributeName="fill" to="#808080" begin="arrowLeft.mouseover" end="arrowLeft.mouseout"/>
                  </use>
                  <path fill="none" stroke="white" stroke-width="1.5" d="M0,-3.0v7 M-2.5,-0.5L0,-3.0L2.5,-0.5"/>
                </g>
        </g>
        <svg viewBox="0 0 15 15" width="100%" height="30px" preserveAspectRatio="xMaxYMin meet">
         <g id="arrow_out" transform="scale(0.3 0.3)">
          <a xlink:href="stopwatch_8c_a7ccfd2ccec37875561ce7daa2e5fd83f_cgraph_org.svg" target="_base">
           <rect id="button" ry="5" rx="5" y="6" x="6" height="38" width="38"
                fill="#f2f5e9" fill-opacity="0.5" stroke="#606060" stroke-width="1.0"/>
           <path id="arrow"
             d="M 11.500037,31.436501 C 11.940474,20.09759 22.043105,11.32322 32.158766,21.979434 L 37.068811,17.246167 C 37.068811,17.246167 37.088388,32 37.088388,32 L 22.160133,31.978069 C 22.160133,31.978069 26.997745,27.140456 26.997745,27.140456 C 18.528582,18.264221 13.291696,25.230495 11.500037,31.436501 z"
             style="fill:#404040;"/>
          </a>
         </g>
        </svg>
</svg>
