<?xml version="1.0" encoding="UTF-8" standalone="no"?>
<!DOCTYPE svg PUBLIC "-//W3C//DTD SVG 1.1//EN"
 "http://www.w3.org/Graphics/SVG/1.1/DTD/svg11.dtd">
<!-- Generated by graphviz version 2.28.0 (20121221.0049)
 -->
<!-- Title: num_long_pressed Pages: 1 -->
<svg width="718pt" height="85pt"
 viewBox="0.00 0.00 718.00 85.00" xmlns="http://www.w3.org/2000/svg" xmlns:xlink="http://www.w3.org/1999/xlink">
<g id="graph1" class="graph" transform="scale(1 1) rotate(0) translate(4 81)">
<title>num_long_pressed</title>
<polygon fill="white" stroke="white" points="-4,5 -4,-81 715,-81 715,5 -4,5"/>
<!-- Node1 -->
<g id="node1" class="node"><title>Node1</title>
<polygon fill="#bfbfbf" stroke="black" points="0,-38.5 0,-57.5 98,-57.5 98,-38.5 0,-38.5"/>
<text text-anchor="middle" x="49" y="-45.5" font-family="Helvetica,sans-Serif" font-size="10.00">num_long_pressed</text>
</g>
<!-- Node2 -->
<g id="node3" class="node"><title>Node2</title>
<a xlink:href="../../de/dd1/stopwatch_8c.xhtml#ac9b29bbda1fac306d56e61089ec8ac21" target="_top" xlink:title="clear_stopwatch">
<polygon fill="white" stroke="black" points="149,-57.5 149,-76.5 237,-76.5 237,-57.5 149,-57.5"/>
<text text-anchor="middle" x="193" y="-64.5" font-family="Helvetica,sans-Serif" font-size="10.00">clear_stopwatch</text>
</a>
</g>
<!-- Node1&#45;&gt;Node2 -->
<g id="edge2" class="edge"><title>Node1&#45;&gt;Node2</title>
<path fill="none" stroke="midnightblue" d="M98.0747,-54.4325C111.154,-56.1826 125.397,-58.0883 138.745,-59.8744"/>
<polygon fill="midnightblue" stroke="midnightblue" points="138.369,-63.3551 148.745,-61.2123 139.297,-56.4169 138.369,-63.3551"/>
</g>
<!-- Node3 -->
<g id="node5" class="node"><title>Node3</title>
<a xlink:href="../../de/dd1/stopwatch_8c.xhtml#a8ef9fc26e81a38682849cab809cc500e" target="_top" xlink:title="drawStopWatchScreen">
<polygon fill="white" stroke="black" points="134.5,-19.5 134.5,-38.5 251.5,-38.5 251.5,-19.5 134.5,-19.5"/>
<text text-anchor="middle" x="193" y="-26.5" font-family="Helvetica,sans-Serif" font-size="10.00">drawStopWatchScreen</text>
</a>
</g>
<!-- Node1&#45;&gt;Node3 -->
<g id="edge4" class="edge"><title>Node1&#45;&gt;Node3</title>
<path fill="none" stroke="midnightblue" d="M98.0747,-41.5675C106.493,-40.4411 115.393,-39.2503 124.226,-38.0684"/>
<polygon fill="midnightblue" stroke="midnightblue" points="124.693,-41.5371 134.141,-36.7417 123.765,-34.5989 124.693,-41.5371"/>
</g>
<!-- Node4 -->
<g id="node7" class="node"><title>Node4</title>
<a xlink:href="../../db/d85/display_8c.xhtml#a6f2d5cdda31a73b43a569cb3d1a64165" target="_top" xlink:title="Displays several consecutive characters.">
<polygon fill="white" stroke="black" points="288.5,-38.5 288.5,-57.5 365.5,-57.5 365.5,-38.5 288.5,-38.5"/>
<text text-anchor="middle" x="327" y="-45.5" font-family="Helvetica,sans-Serif" font-size="10.00">display_chars</text>
</a>
</g>
<!-- Node3&#45;&gt;Node4 -->
<g id="edge6" class="edge"><title>Node3&#45;&gt;Node4</title>
<path fill="none" stroke="midnightblue" d="M251.513,-37.2784C260.501,-38.5722 269.703,-39.8967 278.437,-41.1538"/>
<polygon fill="midnightblue" stroke="midnightblue" points="278.037,-44.6322 288.433,-42.5927 279.034,-37.7036 278.037,-44.6322"/>
</g>
<!-- Node8 -->
<g id="node15" class="node"><title>Node8</title>
<a xlink:href="../../db/d85/display_8c.xhtml#af604e78dcc4e0f1a204b2180c5e54957" target="_top" xlink:title="Displays a symbol.">
<polygon fill="white" stroke="black" points="402,-0.5 402,-19.5 486,-19.5 486,-0.5 402,-0.5"/>
<text text-anchor="middle" x="444" y="-7.5" font-family="Helvetica,sans-Serif" font-size="10.00">display_symbol</text>
</a>
</g>
<!-- Node3&#45;&gt;Node8 -->
<g id="edge14" class="edge"><title>Node3&#45;&gt;Node8</title>
<path fill="none" stroke="midnightblue" d="M251.751,-24.5933C294.133,-21.3593 351.166,-17.0074 391.897,-13.8994"/>
<polygon fill="midnightblue" stroke="midnightblue" points="392.178,-17.3883 401.883,-13.1375 391.645,-10.4085 392.178,-17.3883"/>
</g>
<!-- Node5 -->
<g id="node9" class="node"><title>Node5</title>
<a xlink:href="../../db/d85/display_8c.xhtml#a3ae30196af91197037d50cb49de1d109" target="_top" xlink:title="Displays a single character.">
<polygon fill="white" stroke="black" points="408.5,-38.5 408.5,-57.5 479.5,-57.5 479.5,-38.5 408.5,-38.5"/>
<text text-anchor="middle" x="444" y="-45.5" font-family="Helvetica,sans-Serif" font-size="10.00">display_char</text>
</a>
</g>
<!-- Node4&#45;&gt;Node5 -->
<g id="edge8" class="edge"><title>Node4&#45;&gt;Node5</title>
<path fill="none" stroke="midnightblue" d="M365.655,-48C376.08,-48 387.496,-48 398.281,-48"/>
<polygon fill="midnightblue" stroke="midnightblue" points="398.374,-51.5001 408.374,-48 398.374,-44.5001 398.374,-51.5001"/>
</g>
<!-- Node6 -->
<g id="node11" class="node"><title>Node6</title>
<a xlink:href="../../db/d85/display_8c.xhtml#a9275035317878022cf9eacf6b0a5be72" target="_top" xlink:title="Display a custom collection of segments.">
<polygon fill="white" stroke="black" points="522,-38.5 522,-57.5 590,-57.5 590,-38.5 522,-38.5"/>
<text text-anchor="middle" x="556" y="-45.5" font-family="Helvetica,sans-Serif" font-size="10.00">display_bits</text>
</a>
</g>
<!-- Node5&#45;&gt;Node6 -->
<g id="edge10" class="edge"><title>Node5&#45;&gt;Node6</title>
<path fill="none" stroke="midnightblue" d="M479.503,-48C489.721,-48 501.04,-48 511.738,-48"/>
<polygon fill="midnightblue" stroke="midnightblue" points="511.748,-51.5001 521.748,-48 511.748,-44.5001 511.748,-51.5001"/>
</g>
<!-- Node7 -->
<g id="node13" class="node"><title>Node7</title>
<a xlink:href="../../db/d85/display_8c.xhtml#a710739913e8ea1b71dd433b8311211fd" target="_top" xlink:title="write_lcd_mem">
<polygon fill="white" stroke="black" points="626.5,-19.5 626.5,-38.5 709.5,-38.5 709.5,-19.5 626.5,-19.5"/>
<text text-anchor="middle" x="668" y="-26.5" font-family="Helvetica,sans-Serif" font-size="10.00">write_lcd_mem</text>
</a>
</g>
<!-- Node6&#45;&gt;Node7 -->
<g id="edge12" class="edge"><title>Node6&#45;&gt;Node7</title>
<path fill="none" stroke="midnightblue" d="M590.004,-42.2994C598.28,-40.8698 607.352,-39.3029 616.273,-37.762"/>
<polygon fill="midnightblue" stroke="midnightblue" points="616.972,-41.1931 626.231,-36.042 615.781,-34.2952 616.972,-41.1931"/>
</g>
<!-- Node8&#45;&gt;Node7 -->
<g id="edge16" class="edge"><title>Node8&#45;&gt;Node7</title>
<path fill="none" stroke="midnightblue" d="M486.236,-13.5292C522.955,-16.6718 576.802,-21.2804 616.174,-24.65"/>
<polygon fill="midnightblue" stroke="midnightblue" points="616.097,-28.1562 626.359,-25.5218 616.694,-21.1817 616.097,-28.1562"/>
</g>
</g>
</svg>
