<?xml version="1.0" encoding="UTF-8" standalone="no"?>
<!DOCTYPE svg PUBLIC "-//W3C//DTD SVG 1.1//EN"
 "http://www.w3.org/Graphics/SVG/1.1/DTD/svg11.dtd">
<!-- Generated by graphviz version 2.28.0 (20121221.0049)
 -->
<!-- Title: up_press Pages: 1 -->
<svg width="686pt" height="85pt"
 viewBox="0.00 0.00 686.00 85.00" xmlns="http://www.w3.org/2000/svg" xmlns:xlink="http://www.w3.org/1999/xlink">
<g id="graph1" class="graph" transform="scale(1 1) rotate(0) translate(4 81)">
<title>up_press</title>
<polygon fill="white" stroke="white" points="-4,5 -4,-81 683,-81 683,5 -4,5"/>
<!-- Node1 -->
<g id="node1" class="node"><title>Node1</title>
<polygon fill="#bfbfbf" stroke="black" points="0,-38.5 0,-57.5 56,-57.5 56,-38.5 0,-38.5"/>
<text text-anchor="middle" x="28" y="-45.5" font-family="Helvetica,sans-Serif" font-size="10.00">up_press</text>
</g>
<!-- Node2 -->
<g id="node3" class="node"><title>Node2</title>
<a xlink:href="../../de/dd1/stopwatch_8c.xhtml#aa0ed77a7ae91fdf019637f338a035bbc" target="_top" xlink:title="increment_lap_stopwatch">
<polygon fill="white" stroke="black" points="92,-57.5 92,-76.5 220,-76.5 220,-57.5 92,-57.5"/>
<text text-anchor="middle" x="156" y="-64.5" font-family="Helvetica,sans-Serif" font-size="10.00">increment_lap_stopwatch</text>
</a>
</g>
<!-- Node1&#45;&gt;Node2 -->
<g id="edge2" class="edge"><title>Node1&#45;&gt;Node2</title>
<path fill="none" stroke="midnightblue" d="M56.0302,-52.076C63.7832,-53.2451 72.6292,-54.579 81.7705,-55.9575"/>
<polygon fill="midnightblue" stroke="midnightblue" points="81.3577,-59.4347 91.7678,-57.465 82.4015,-52.513 81.3577,-59.4347"/>
</g>
<!-- Node3 -->
<g id="node5" class="node"><title>Node3</title>
<a xlink:href="../../de/dd1/stopwatch_8c.xhtml#a8ef9fc26e81a38682849cab809cc500e" target="_top" xlink:title="drawStopWatchScreen">
<polygon fill="white" stroke="black" points="97.5,-19.5 97.5,-38.5 214.5,-38.5 214.5,-19.5 97.5,-19.5"/>
<text text-anchor="middle" x="156" y="-26.5" font-family="Helvetica,sans-Serif" font-size="10.00">drawStopWatchScreen</text>
</a>
</g>
<!-- Node1&#45;&gt;Node3 -->
<g id="edge4" class="edge"><title>Node1&#45;&gt;Node3</title>
<path fill="none" stroke="midnightblue" d="M56.0302,-43.924C65.3311,-42.5215 76.205,-40.8818 87.2746,-39.2126"/>
<polygon fill="midnightblue" stroke="midnightblue" points="88.0897,-42.6293 97.456,-37.6773 87.0459,-35.7076 88.0897,-42.6293"/>
</g>
<!-- Node4 -->
<g id="node7" class="node"><title>Node4</title>
<a xlink:href="../../db/d85/display_8c.xhtml#a6f2d5cdda31a73b43a569cb3d1a64165" target="_top" xlink:title="Displays several consecutive characters.">
<polygon fill="white" stroke="black" points="256.5,-38.5 256.5,-57.5 333.5,-57.5 333.5,-38.5 256.5,-38.5"/>
<text text-anchor="middle" x="295" y="-45.5" font-family="Helvetica,sans-Serif" font-size="10.00">display_chars</text>
</a>
</g>
<!-- Node3&#45;&gt;Node4 -->
<g id="edge6" class="edge"><title>Node3&#45;&gt;Node4</title>
<path fill="none" stroke="midnightblue" d="M214.703,-37.0026C225.234,-38.4631 236.113,-39.9719 246.312,-41.3864"/>
<polygon fill="midnightblue" stroke="midnightblue" points="245.861,-44.8572 256.247,-42.7642 246.823,-37.9235 245.861,-44.8572"/>
</g>
<!-- Node8 -->
<g id="node15" class="node"><title>Node8</title>
<a xlink:href="../../db/d85/display_8c.xhtml#af604e78dcc4e0f1a204b2180c5e54957" target="_top" xlink:title="Displays a symbol.">
<polygon fill="white" stroke="black" points="370,-0.5 370,-19.5 454,-19.5 454,-0.5 370,-0.5"/>
<text text-anchor="middle" x="412" y="-7.5" font-family="Helvetica,sans-Serif" font-size="10.00">display_symbol</text>
</a>
</g>
<!-- Node3&#45;&gt;Node8 -->
<g id="edge14" class="edge"><title>Node3&#45;&gt;Node8</title>
<path fill="none" stroke="midnightblue" d="M214.637,-24.6886C258.312,-21.4215 317.776,-16.9734 359.791,-13.8306"/>
<polygon fill="midnightblue" stroke="midnightblue" points="360.098,-17.3175 369.809,-13.0812 359.576,-10.337 360.098,-17.3175"/>
</g>
<!-- Node5 -->
<g id="node9" class="node"><title>Node5</title>
<a xlink:href="../../db/d85/display_8c.xhtml#a3ae30196af91197037d50cb49de1d109" target="_top" xlink:title="Displays a single character.">
<polygon fill="white" stroke="black" points="376.5,-38.5 376.5,-57.5 447.5,-57.5 447.5,-38.5 376.5,-38.5"/>
<text text-anchor="middle" x="412" y="-45.5" font-family="Helvetica,sans-Serif" font-size="10.00">display_char</text>
</a>
</g>
<!-- Node4&#45;&gt;Node5 -->
<g id="edge8" class="edge"><title>Node4&#45;&gt;Node5</title>
<path fill="none" stroke="midnightblue" d="M333.655,-48C344.08,-48 355.496,-48 366.281,-48"/>
<polygon fill="midnightblue" stroke="midnightblue" points="366.374,-51.5001 376.374,-48 366.374,-44.5001 366.374,-51.5001"/>
</g>
<!-- Node6 -->
<g id="node11" class="node"><title>Node6</title>
<a xlink:href="../../db/d85/display_8c.xhtml#a9275035317878022cf9eacf6b0a5be72" target="_top" xlink:title="Display a custom collection of segments.">
<polygon fill="white" stroke="black" points="490,-38.5 490,-57.5 558,-57.5 558,-38.5 490,-38.5"/>
<text text-anchor="middle" x="524" y="-45.5" font-family="Helvetica,sans-Serif" font-size="10.00">display_bits</text>
</a>
</g>
<!-- Node5&#45;&gt;Node6 -->
<g id="edge10" class="edge"><title>Node5&#45;&gt;Node6</title>
<path fill="none" stroke="midnightblue" d="M447.503,-48C457.721,-48 469.04,-48 479.738,-48"/>
<polygon fill="midnightblue" stroke="midnightblue" points="479.748,-51.5001 489.748,-48 479.748,-44.5001 479.748,-51.5001"/>
</g>
<!-- Node7 -->
<g id="node13" class="node"><title>Node7</title>
<a xlink:href="../../db/d85/display_8c.xhtml#a710739913e8ea1b71dd433b8311211fd" target="_top" xlink:title="write_lcd_mem">
<polygon fill="white" stroke="black" points="594.5,-19.5 594.5,-38.5 677.5,-38.5 677.5,-19.5 594.5,-19.5"/>
<text text-anchor="middle" x="636" y="-26.5" font-family="Helvetica,sans-Serif" font-size="10.00">write_lcd_mem</text>
</a>
</g>
<!-- Node6&#45;&gt;Node7 -->
<g id="edge12" class="edge"><title>Node6&#45;&gt;Node7</title>
<path fill="none" stroke="midnightblue" d="M558.004,-42.2994C566.28,-40.8698 575.352,-39.3029 584.273,-37.762"/>
<polygon fill="midnightblue" stroke="midnightblue" points="584.972,-41.1931 594.231,-36.042 583.781,-34.2952 584.972,-41.1931"/>
</g>
<!-- Node8&#45;&gt;Node7 -->
<g id="edge16" class="edge"><title>Node8&#45;&gt;Node7</title>
<path fill="none" stroke="midnightblue" d="M454.236,-13.5292C490.955,-16.6718 544.802,-21.2804 584.174,-24.65"/>
<polygon fill="midnightblue" stroke="midnightblue" points="584.097,-28.1562 594.359,-25.5218 584.694,-21.1817 584.097,-28.1562"/>
</g>
</g>
</svg>
