<?xml version="1.0" encoding="UTF-8" standalone="no"?>
<!DOCTYPE svg PUBLIC "-//W3C//DTD SVG 1.1//EN"
 "http://www.w3.org/Graphics/SVG/1.1/DTD/svg11.dtd">
<!-- Generated by graphviz version 2.28.0 (20121221.0049)
 -->
<!-- Title: drivers/display.h Pages: 1 -->
<!--zoomable 84 -->
<svg id="main" version="1.1" xmlns="http://www.w3.org/2000/svg" xmlns:xlink="http://www.w3.org/1999/xlink" xml:space="preserve" onload="init(evt)">
        <defs>
                <circle id="rim" cx="0" cy="0" r="7"/>
                <circle id="rim2" cx="0" cy="0" r="3.5"/>
                <g id="zoomPlus">
                        <use xlink:href="#rim" fill="#404040">
                                <set attributeName="fill" to="#808080" begin="zoomplus.mouseover" end="zoomplus.mouseout"/>
                        </use>
                        <path d="M-4,0h8M0,-4v8" fill="none" stroke="white" stroke-width="1.5" pointer-events="none"/>
                </g>
                <g id="zoomMin">
                        <use xlink:href="#rim" fill="#404040">
                                <set attributeName="fill" to="#808080" begin="zoomminus.mouseover" end="zoomminus.mouseout"/>
                        </use>
                        <path d="M-4,0h8" fill="none" stroke="white" stroke-width="1.5" pointer-events="none"/>
                </g>
                <g id="dirArrow">
                        <path fill="none" stroke="white" stroke-width="1.5" d="M0,-3.0v7 M-2.5,-0.5L0,-3.0L2.5,-0.5"/>
                </g>
               <g id="resetDef">
                       <use xlink:href="#rim2" fill="#404040">
                               <set attributeName="fill" to="#808080" begin="reset.mouseover" end="reset.mouseout"/>
                       </use>
               </g>
        </defs>

<script type="text/javascript">
var viewWidth = 1800;
var viewHeight = 84;
var sectionId = 'dynsection-1';
</script>
<script xlink:href="../../svgpan.js"/>
<svg id="graph" class="graph">
<g id="viewport">
<title>drivers/display.h</title>
<polygon fill="white" stroke="white" points="-4,5 -4,-80 1797,-80 1797,5 -4,5"/>
<!-- Node1 -->
<g id="node1" class="node"><title>Node1</title>
<polygon fill="#bfbfbf" stroke="black" points="869,-56.5 869,-75.5 957,-75.5 957,-56.5 869,-56.5"/>
<text text-anchor="middle" x="913" y="-63.5" font-family="Helvetica,sans-Serif" font-size="10.00">drivers/display.h</text>
</g>
<!-- Node2 -->
<g id="node3" class="node"><title>Node2</title>
<a xlink:href="../../d2/df2/openchronos_8c.xhtml" target="_top" xlink:title="Main loop &amp; user interface.">
<polygon fill="white" stroke="black" points="0,-0.5 0,-19.5 102,-19.5 102,-0.5 0,-0.5"/>
<text text-anchor="middle" x="51" y="-7.5" font-family="Helvetica,sans-Serif" font-size="10.00">core/openchronos.c</text>
</a>
</g>
<!-- Node1&#45;&gt;Node2 -->
<g id="edge2" class="edge"><title>Node1&#45;&gt;Node2</title>
<path fill="none" stroke="midnightblue" d="M858.929,-63.6985C729.469,-60.205 391.599,-48.8542 111,-20 108.066,-19.6983 105.056,-19.355 102.022,-18.9826"/>
<polygon fill="midnightblue" stroke="midnightblue" points="858.894,-67.1987 868.983,-63.9652 859.08,-60.2011 858.894,-67.1987"/>
</g>
<!-- Node3 -->
<g id="node5" class="node"><title>Node3</title>
<a xlink:href="../../de/dd8/drivers_2battery_8c.xhtml" target="_top" xlink:title="Battery voltage measurement driver.">
<polygon fill="white" stroke="black" points="120.5,-0.5 120.5,-19.5 207.5,-19.5 207.5,-0.5 120.5,-0.5"/>
<text text-anchor="middle" x="164" y="-7.5" font-family="Helvetica,sans-Serif" font-size="10.00">drivers/battery.c</text>
</a>
</g>
<!-- Node1&#45;&gt;Node3 -->
<g id="edge4" class="edge"><title>Node1&#45;&gt;Node3</title>
<path fill="none" stroke="midnightblue" d="M858.722,-63.4056C741.32,-59.5373 455.156,-47.8438 217,-20 213.941,-19.6423 210.79,-19.2274 207.621,-18.7757"/>
<polygon fill="midnightblue" stroke="midnightblue" points="858.776,-66.9091 868.884,-63.7347 859.003,-59.9128 858.776,-66.9091"/>
</g>
<!-- Node4 -->
<g id="node7" class="node"><title>Node4</title>
<a xlink:href="../../db/d85/display_8c.xhtml" target="_top" xlink:title="drivers/display.c">
<polygon fill="white" stroke="black" points="226,-0.5 226,-19.5 314,-19.5 314,-0.5 226,-0.5"/>
<text text-anchor="middle" x="270" y="-7.5" font-family="Helvetica,sans-Serif" font-size="10.00">drivers/display.c</text>
</a>
</g>
<!-- Node1&#45;&gt;Node4 -->
<g id="edge6" class="edge"><title>Node1&#45;&gt;Node4</title>
<path fill="none" stroke="midnightblue" d="M858.454,-62.5887C754.017,-57.5864 518.709,-44.4552 322,-20 319.454,-19.6835 316.843,-19.3286 314.212,-18.9474"/>
<polygon fill="midnightblue" stroke="midnightblue" points="858.589,-66.0989 868.744,-63.0754 858.92,-59.1067 858.589,-66.0989"/>
</g>
<!-- Node5 -->
<g id="node9" class="node"><title>Node5</title>
<a xlink:href="../../d0/d6e/ports_8c.xhtml" target="_top" xlink:title="drivers/ports.c">
<polygon fill="white" stroke="black" points="331.5,-0.5 331.5,-19.5 410.5,-19.5 410.5,-0.5 331.5,-0.5"/>
<text text-anchor="middle" x="371" y="-7.5" font-family="Helvetica,sans-Serif" font-size="10.00">drivers/ports.c</text>
</a>
</g>
<!-- Node1&#45;&gt;Node5 -->
<g id="edge8" class="edge"><title>Node1&#45;&gt;Node5</title>
<path fill="none" stroke="midnightblue" d="M858.803,-61.7451C767.682,-55.8966 578.134,-42.1164 419,-20 416.229,-19.6148 413.374,-19.1794 410.504,-18.7131"/>
<polygon fill="midnightblue" stroke="midnightblue" points="858.691,-65.2449 868.893,-62.386 859.135,-58.259 858.691,-65.2449"/>
</g>
<!-- Node6 -->
<g id="node11" class="node"><title>Node6</title>
<a xlink:href="../../d8/dd8/drivers_2temperature_8c.xhtml" target="_top" xlink:title="drivers/temperature.c">
<polygon fill="white" stroke="black" points="428.5,-0.5 428.5,-19.5 537.5,-19.5 537.5,-0.5 428.5,-0.5"/>
<text text-anchor="middle" x="483" y="-7.5" font-family="Helvetica,sans-Serif" font-size="10.00">drivers/temperature.c</text>
</a>
</g>
<!-- Node1&#45;&gt;Node6 -->
<g id="edge10" class="edge"><title>Node1&#45;&gt;Node6</title>
<path fill="none" stroke="midnightblue" d="M858.621,-58.6131C787.107,-50.1451 657.557,-34.5689 547,-20 543.996,-19.6042 540.915,-19.1918 537.804,-18.7706"/>
<polygon fill="midnightblue" stroke="midnightblue" points="858.401,-62.1113 868.743,-59.81 859.223,-55.1598 858.401,-62.1113"/>
</g>
<!-- Node7 -->
<g id="node13" class="node"><title>Node7</title>
<a xlink:href="../../d1/d2d/accelerometer_8c.xhtml" target="_top" xlink:title="modules/accelerometer.c">
<polygon fill="white" stroke="black" points="556,-0.5 556,-19.5 682,-19.5 682,-0.5 556,-0.5"/>
<text text-anchor="middle" x="619" y="-7.5" font-family="Helvetica,sans-Serif" font-size="10.00">modules/accelerometer.c</text>
</a>
</g>
<!-- Node1&#45;&gt;Node7 -->
<g id="edge12" class="edge"><title>Node1&#45;&gt;Node7</title>
<path fill="none" stroke="midnightblue" d="M859.006,-55.0827C803.619,-44.9095 718.337,-29.2456 665.749,-19.5865"/>
<polygon fill="midnightblue" stroke="midnightblue" points="858.517,-58.5515 868.985,-56.9157 859.782,-51.6666 858.517,-58.5515"/>
</g>
<!-- Node8 -->
<g id="node15" class="node"><title>Node8</title>
<a xlink:href="../../df/dce/alarm_8c.xhtml" target="_top" xlink:title="modules/alarm.c">
<polygon fill="white" stroke="black" points="700.5,-0.5 700.5,-19.5 789.5,-19.5 789.5,-0.5 700.5,-0.5"/>
<text text-anchor="middle" x="745" y="-7.5" font-family="Helvetica,sans-Serif" font-size="10.00">modules/alarm.c</text>
</a>
</g>
<!-- Node1&#45;&gt;Node8 -->
<g id="edge14" class="edge"><title>Node1&#45;&gt;Node8</title>
<path fill="none" stroke="midnightblue" d="M876.614,-53.3044C844.958,-43.1294 799.832,-28.6246 771.496,-19.5164"/>
<polygon fill="midnightblue" stroke="midnightblue" points="875.789,-56.7155 886.38,-56.4435 877.931,-50.0513 875.789,-56.7155"/>
</g>
<!-- Node9 -->
<g id="node17" class="node"><title>Node9</title>
<a xlink:href="../../dd/d09/altitude_8c.xhtml" target="_top" xlink:title="modules/altitude.c">
<polygon fill="white" stroke="black" points="808,-0.5 808,-19.5 904,-19.5 904,-0.5 808,-0.5"/>
<text text-anchor="middle" x="856" y="-7.5" font-family="Helvetica,sans-Serif" font-size="10.00">modules/altitude.c</text>
</a>
</g>
<!-- Node1&#45;&gt;Node9 -->
<g id="edge16" class="edge"><title>Node1&#45;&gt;Node9</title>
<path fill="none" stroke="midnightblue" d="M896.379,-49.2533C886.266,-39.6731 873.723,-27.7906 865.325,-19.8339"/>
<polygon fill="midnightblue" stroke="midnightblue" points="894.175,-51.9873 903.842,-56.324 898.99,-46.9056 894.175,-51.9873"/>
</g>
<!-- Node10 -->
<g id="node19" class="node"><title>Node10</title>
<a xlink:href="../../d8/d7f/modules_2battery_8c.xhtml" target="_top" xlink:title="modules/battery.c">
<polygon fill="white" stroke="black" points="922.5,-0.5 922.5,-19.5 1017.5,-19.5 1017.5,-0.5 922.5,-0.5"/>
<text text-anchor="middle" x="970" y="-7.5" font-family="Helvetica,sans-Serif" font-size="10.00">modules/battery.c</text>
</a>
</g>
<!-- Node1&#45;&gt;Node10 -->
<g id="edge18" class="edge"><title>Node1&#45;&gt;Node10</title>
<path fill="none" stroke="midnightblue" d="M929.621,-49.2533C939.734,-39.6731 952.277,-27.7906 960.675,-19.8339"/>
<polygon fill="midnightblue" stroke="midnightblue" points="927.01,-46.9056 922.158,-56.324 931.825,-51.9873 927.01,-46.9056"/>
</g>
<!-- Node11 -->
<g id="node21" class="node"><title>Node11</title>
<a xlink:href="../../dc/d54/clock_8c.xhtml" target="_top" xlink:title="modules/clock.c">
<polygon fill="white" stroke="black" points="1036,-0.5 1036,-19.5 1124,-19.5 1124,-0.5 1036,-0.5"/>
<text text-anchor="middle" x="1080" y="-7.5" font-family="Helvetica,sans-Serif" font-size="10.00">modules/clock.c</text>
</a>
</g>
<!-- Node1&#45;&gt;Node11 -->
<g id="edge20" class="edge"><title>Node1&#45;&gt;Node11</title>
<path fill="none" stroke="midnightblue" d="M949.17,-53.3044C980.637,-43.1294 1025.49,-28.6246 1053.66,-19.5164"/>
<polygon fill="midnightblue" stroke="midnightblue" points="947.9,-50.0366 939.462,-56.4435 950.053,-56.697 947.9,-50.0366"/>
</g>
<!-- Node12 -->
<g id="node23" class="node"><title>Node12</title>
<a xlink:href="../../dc/da5/music_8c.xhtml" target="_top" xlink:title="modules/music.c">
<polygon fill="white" stroke="black" points="1142.5,-0.5 1142.5,-19.5 1233.5,-19.5 1233.5,-0.5 1142.5,-0.5"/>
<text text-anchor="middle" x="1188" y="-7.5" font-family="Helvetica,sans-Serif" font-size="10.00">modules/music.c</text>
</a>
</g>
<!-- Node1&#45;&gt;Node12 -->
<g id="edge22" class="edge"><title>Node1&#45;&gt;Node12</title>
<path fill="none" stroke="midnightblue" d="M966.608,-54.4734C1018.58,-44.2678 1096.44,-28.9794 1144.63,-19.5164"/>
<polygon fill="midnightblue" stroke="midnightblue" points="965.713,-51.0822 956.575,-56.4435 967.062,-57.951 965.713,-51.0822"/>
</g>
<!-- Node13 -->
<g id="node25" class="node"><title>Node13</title>
<a xlink:href="../../d2/dc0/otp_8c.xhtml" target="_top" xlink:title="modules/otp.c">
<polygon fill="white" stroke="black" points="1252,-0.5 1252,-19.5 1330,-19.5 1330,-0.5 1252,-0.5"/>
<text text-anchor="middle" x="1291" y="-7.5" font-family="Helvetica,sans-Serif" font-size="10.00">modules/otp.c</text>
</a>
</g>
<!-- Node1&#45;&gt;Node13 -->
<g id="edge24" class="edge"><title>Node1&#45;&gt;Node13</title>
<path fill="none" stroke="midnightblue" d="M967.329,-58.3419C1032.65,-50.1581 1145.55,-35.4456 1242,-20 1245.25,-19.4803 1248.61,-18.9166 1251.98,-18.3333"/>
<polygon fill="midnightblue" stroke="midnightblue" points="966.753,-54.8866 957.263,-59.5984 967.62,-61.8327 966.753,-54.8866"/>
</g>
<!-- Node14 -->
<g id="node27" class="node"><title>Node14</title>
<a xlink:href="../../d1/dc6/rfbsl_8c.xhtml" target="_top" xlink:title="modules/rfbsl.c">
<polygon fill="white" stroke="black" points="1348.5,-0.5 1348.5,-19.5 1431.5,-19.5 1431.5,-0.5 1348.5,-0.5"/>
<text text-anchor="middle" x="1390" y="-7.5" font-family="Helvetica,sans-Serif" font-size="10.00">modules/rfbsl.c</text>
</a>
</g>
<!-- Node1&#45;&gt;Node14 -->
<g id="edge26" class="edge"><title>Node1&#45;&gt;Node14</title>
<path fill="none" stroke="midnightblue" d="M967.257,-60.4843C1048.35,-53.4604 1205.88,-38.7542 1339,-20 1342.03,-19.5736 1345.15,-19.1016 1348.29,-18.6038"/>
<polygon fill="midnightblue" stroke="midnightblue" points="966.942,-56.9983 957.279,-61.3431 967.543,-63.9725 966.942,-56.9983"/>
</g>
<!-- Node15 -->
<g id="node29" class="node"><title>Node15</title>
<a xlink:href="../../de/dd1/stopwatch_8c.xhtml" target="_top" xlink:title="modules/stopwatch.c">
<polygon fill="white" stroke="black" points="1450,-0.5 1450,-19.5 1560,-19.5 1560,-0.5 1450,-0.5"/>
<text text-anchor="middle" x="1505" y="-7.5" font-family="Helvetica,sans-Serif" font-size="10.00">modules/stopwatch.c</text>
</a>
</g>
<!-- Node1&#45;&gt;Node15 -->
<g id="edge28" class="edge"><title>Node1&#45;&gt;Node15</title>
<path fill="none" stroke="midnightblue" d="M967.156,-61.3164C1062.76,-54.6039 1267.64,-39.2775 1440,-20 1443.17,-19.6454 1446.42,-19.2608 1449.71,-18.8568"/>
<polygon fill="midnightblue" stroke="midnightblue" points="966.88,-57.8271 957.148,-62.0156 967.368,-64.8101 966.88,-57.8271"/>
</g>
<!-- Node16 -->
<g id="node31" class="node"><title>Node16</title>
<a xlink:href="../../db/d97/modules_2temperature_8c.xhtml" target="_top" xlink:title="modules/temperature.c">
<polygon fill="white" stroke="black" points="1578,-0.5 1578,-19.5 1694,-19.5 1694,-0.5 1578,-0.5"/>
<text text-anchor="middle" x="1636" y="-7.5" font-family="Helvetica,sans-Serif" font-size="10.00">modules/temperature.c</text>
</a>
</g>
<!-- Node1&#45;&gt;Node16 -->
<g id="edge30" class="edge"><title>Node1&#45;&gt;Node16</title>
<path fill="none" stroke="midnightblue" d="M967.311,-62.4718C1079.77,-56.9729 1346.25,-42.5768 1569,-20 1571.92,-19.7041 1574.91,-19.3802 1577.92,-19.0366"/>
<polygon fill="midnightblue" stroke="midnightblue" points="967.053,-58.9801 957.234,-62.9608 967.392,-65.9719 967.053,-58.9801"/>
</g>
<!-- Node17 -->
<g id="node33" class="node"><title>Node17</title>
<a xlink:href="../../db/d52/tide_8c.xhtml" target="_top" xlink:title="modules/tide.c">
<polygon fill="white" stroke="black" points="1712,-0.5 1712,-19.5 1792,-19.5 1792,-0.5 1712,-0.5"/>
<text text-anchor="middle" x="1752" y="-7.5" font-family="Helvetica,sans-Serif" font-size="10.00">modules/tide.c</text>
</a>
</g>
<!-- Node1&#45;&gt;Node17 -->
<g id="edge32" class="edge"><title>Node1&#45;&gt;Node17</title>
<path fill="none" stroke="midnightblue" d="M967.563,-64.1608C1096.01,-61.6902 1427.33,-52.4319 1702,-20 1705.24,-19.6173 1708.59,-19.1573 1711.95,-18.6502"/>
<polygon fill="midnightblue" stroke="midnightblue" points="967.15,-60.6678 957.217,-64.3534 967.281,-67.6665 967.15,-60.6678"/>
</g>
</g>
</svg>
        <g id="navigator" transform="translate(0 0)" fill="#404254">
                <rect fill="#f2f5e9" fill-opacity="0.5" stroke="#606060" stroke-width=".5" x="0" y="0" width="60" height="60"/>
                <use id="zoomplus" xlink:href="#zoomPlus" x="17" y="9" onmousedown="handleZoom(evt,'in')"/>
                <use id="zoomminus" xlink:href="#zoomMin" x="42" y="9" onmousedown="handleZoom(evt,'out')"/>
                <use id="reset" xlink:href="#resetDef" x="30" y="36" onmousedown="handleReset()"/>
                <g id="arrowUp" xlink:href="#dirArrow" transform="translate(30 24)" onmousedown="handlePan(0,-1)">
                  <use xlink:href="#rim" fill="#404040">
                        <set attributeName="fill" to="#808080" begin="arrowUp.mouseover" end="arrowUp.mouseout"/>
                  </use>
                  <path fill="none" stroke="white" stroke-width="1.5" d="M0,-3.0v7 M-2.5,-0.5L0,-3.0L2.5,-0.5"/>
                </g>
                <g id="arrowRight" xlink:href="#dirArrow" transform="rotate(90) translate(36 -43)" onmousedown="handlePan(1,0)">
                  <use xlink:href="#rim" fill="#404040">
                        <set attributeName="fill" to="#808080" begin="arrowRight.mouseover" end="arrowRight.mouseout"/>
                  </use>
                  <path fill="none" stroke="white" stroke-width="1.5" d="M0,-3.0v7 M-2.5,-0.5L0,-3.0L2.5,-0.5"/>
                </g>
                <g id="arrowDown" xlink:href="#dirArrow" transform="rotate(180) translate(-30 -48)" onmousedown="handlePan(0,1)">
                  <use xlink:href="#rim" fill="#404040">
                        <set attributeName="fill" to="#808080" begin="arrowDown.mouseover" end="arrowDown.mouseout"/>
                  </use>
                  <path fill="none" stroke="white" stroke-width="1.5" d="M0,-3.0v7 M-2.5,-0.5L0,-3.0L2.5,-0.5"/>
                </g>
                <g id="arrowLeft" xlink:href="#dirArrow" transform="rotate(270) translate(-36 17)" onmousedown="handlePan(-1,0)">
                  <use xlink:href="#rim" fill="#404040">
                        <set attributeName="fill" to="#808080" begin="arrowLeft.mouseover" end="arrowLeft.mouseout"/>
                  </use>
                  <path fill="none" stroke="white" stroke-width="1.5" d="M0,-3.0v7 M-2.5,-0.5L0,-3.0L2.5,-0.5"/>
                </g>
        </g>
        <svg viewBox="0 0 15 15" width="100%" height="30px" preserveAspectRatio="xMaxYMin meet">
         <g id="arrow_out" transform="scale(0.3 0.3)">
          <a xlink:href="display_8h__dep__incl_org.svg" target="_base">
           <rect id="button" ry="5" rx="5" y="6" x="6" height="38" width="38"
                fill="#f2f5e9" fill-opacity="0.5" stroke="#606060" stroke-width="1.0"/>
           <path id="arrow"
             d="M 11.500037,31.436501 C 11.940474,20.09759 22.043105,11.32322 32.158766,21.979434 L 37.068811,17.246167 C 37.068811,17.246167 37.088388,32 37.088388,32 L 22.160133,31.978069 C 22.160133,31.978069 26.997745,27.140456 26.997745,27.140456 C 18.528582,18.264221 13.291696,25.230495 11.500037,31.436501 z"
             style="fill:#404040;"/>
          </a>
         </g>
        </svg>
</svg>
