<?xml version="1.0" encoding="UTF-8" standalone="no"?>
<!DOCTYPE svg PUBLIC "-//W3C//DTD SVG 1.1//EN"
 "http://www.w3.org/Graphics/SVG/1.1/DTD/svg11.dtd">
<!-- Generated by graphviz version 2.28.0 (20121221.0049)
 -->
<!-- Title: buzzer_play Pages: 1 -->
<svg width="186pt" height="66pt"
 viewBox="0.00 0.00 186.00 66.00" xmlns="http://www.w3.org/2000/svg" xmlns:xlink="http://www.w3.org/1999/xlink">
<g id="graph1" class="graph" transform="scale(1 1) rotate(0) translate(4 62)">
<title>buzzer_play</title>
<polygon fill="white" stroke="white" points="-4,5 -4,-62 183,-62 183,5 -4,5"/>
<!-- Node1 -->
<g id="node1" class="node"><title>Node1</title>
<polygon fill="#bfbfbf" stroke="black" points="0.5,-19.5 0.5,-38.5 69.5,-38.5 69.5,-19.5 0.5,-19.5"/>
<text text-anchor="middle" x="35" y="-26.5" font-family="Helvetica,sans-Serif" font-size="10.00">buzzer_play</text>
</g>
<!-- Node2 -->
<g id="node3" class="node"><title>Node2</title>
<a xlink:href="../../df/d41/timer_8c.xhtml#adc3302861aee9d7f4a1c4c6d25d07343" target="_top" xlink:title="1ms &#45; 1s programmable delay">
<polygon fill="white" stroke="black" points="106,-38.5 106,-57.5 178,-57.5 178,-38.5 106,-38.5"/>
<text text-anchor="middle" x="142" y="-45.5" font-family="Helvetica,sans-Serif" font-size="10.00">timer0_delay</text>
</a>
</g>
<!-- Node1&#45;&gt;Node2 -->
<g id="edge2" class="edge"><title>Node1&#45;&gt;Node2</title>
<path fill="none" stroke="midnightblue" d="M69.5113,-35.064C77.971,-36.5948 87.1909,-38.2631 96.1113,-39.8773"/>
<polygon fill="midnightblue" stroke="midnightblue" points="95.5355,-43.3298 105.999,-41.6665 96.7819,-36.4417 95.5355,-43.3298"/>
</g>
<!-- Node3 -->
<g id="node5" class="node"><title>Node3</title>
<a xlink:href="../../d3/d4c/buzzer_8c.xhtml#a0b5e97d5c00be597d96fd80c6cd1ad56" target="_top" xlink:title="buzzer_stop">
<polygon fill="white" stroke="black" points="107,-0.5 107,-19.5 177,-19.5 177,-0.5 107,-0.5"/>
<text text-anchor="middle" x="142" y="-7.5" font-family="Helvetica,sans-Serif" font-size="10.00">buzzer_stop</text>
</a>
</g>
<!-- Node1&#45;&gt;Node3 -->
<g id="edge4" class="edge"><title>Node1&#45;&gt;Node3</title>
<path fill="none" stroke="midnightblue" d="M69.5113,-22.936C78.1454,-21.3737 87.5714,-19.668 96.6626,-18.023"/>
<polygon fill="midnightblue" stroke="midnightblue" points="97.5077,-21.427 106.725,-16.2022 96.2612,-14.5388 97.5077,-21.427"/>
</g>
</g>
</svg>
