<?xml version="1.0" encoding="UTF-8" standalone="no"?>
<!DOCTYPE svg PUBLIC "-//W3C//DTD SVG 1.1//EN"
 "http://www.w3.org/Graphics/SVG/1.1/DTD/svg11.dtd">
<!-- Generated by graphviz version 2.28.0 (20121221.0049)
 -->
<!-- Title: buzzer_init Pages: 1 -->
<svg width="286pt" height="66pt"
 viewBox="0.00 0.00 286.00 66.00" xmlns="http://www.w3.org/2000/svg" xmlns:xlink="http://www.w3.org/1999/xlink">
<g id="graph1" class="graph" transform="scale(1 1) rotate(0) translate(4 62)">
<title>buzzer_init</title>
<polygon fill="white" stroke="white" points="-4,5 -4,-62 283,-62 283,5 -4,5"/>
<!-- Node1 -->
<g id="node1" class="node"><title>Node1</title>
<polygon fill="#bfbfbf" stroke="black" points="0,-19.5 0,-38.5 64,-38.5 64,-19.5 0,-19.5"/>
<text text-anchor="middle" x="32" y="-26.5" font-family="Helvetica,sans-Serif" font-size="10.00">buzzer_init</text>
</g>
<!-- Node2 -->
<g id="node3" class="node"><title>Node2</title>
<a xlink:href="../../d3/d4c/buzzer_8c.xhtml#a6ec06c5367637f000e6c5deedc6bab1b" target="_top" xlink:title="Play a sequence of notes using the buzzer.">
<polygon fill="white" stroke="black" points="100.5,-19.5 100.5,-38.5 169.5,-38.5 169.5,-19.5 100.5,-19.5"/>
<text text-anchor="middle" x="135" y="-26.5" font-family="Helvetica,sans-Serif" font-size="10.00">buzzer_play</text>
</a>
</g>
<!-- Node1&#45;&gt;Node2 -->
<g id="edge2" class="edge"><title>Node1&#45;&gt;Node2</title>
<path fill="none" stroke="midnightblue" d="M64.1275,-29C72.3761,-29 81.4375,-29 90.2225,-29"/>
<polygon fill="midnightblue" stroke="midnightblue" points="90.3433,-32.5001 100.343,-29 90.3432,-25.5001 90.3433,-32.5001"/>
</g>
<!-- Node3 -->
<g id="node5" class="node"><title>Node3</title>
<a xlink:href="../../df/d41/timer_8c.xhtml#adc3302861aee9d7f4a1c4c6d25d07343" target="_top" xlink:title="1ms &#45; 1s programmable delay">
<polygon fill="white" stroke="black" points="206,-38.5 206,-57.5 278,-57.5 278,-38.5 206,-38.5"/>
<text text-anchor="middle" x="242" y="-45.5" font-family="Helvetica,sans-Serif" font-size="10.00">timer0_delay</text>
</a>
</g>
<!-- Node2&#45;&gt;Node3 -->
<g id="edge4" class="edge"><title>Node2&#45;&gt;Node3</title>
<path fill="none" stroke="midnightblue" d="M169.511,-35.064C177.971,-36.5948 187.191,-38.2631 196.111,-39.8773"/>
<polygon fill="midnightblue" stroke="midnightblue" points="195.535,-43.3298 205.999,-41.6665 196.782,-36.4417 195.535,-43.3298"/>
</g>
<!-- Node4 -->
<g id="node7" class="node"><title>Node4</title>
<a xlink:href="../../d3/d4c/buzzer_8c.xhtml#a0b5e97d5c00be597d96fd80c6cd1ad56" target="_top" xlink:title="buzzer_stop">
<polygon fill="white" stroke="black" points="207,-0.5 207,-19.5 277,-19.5 277,-0.5 207,-0.5"/>
<text text-anchor="middle" x="242" y="-7.5" font-family="Helvetica,sans-Serif" font-size="10.00">buzzer_stop</text>
</a>
</g>
<!-- Node2&#45;&gt;Node4 -->
<g id="edge6" class="edge"><title>Node2&#45;&gt;Node4</title>
<path fill="none" stroke="midnightblue" d="M169.511,-22.936C178.145,-21.3737 187.571,-19.668 196.663,-18.023"/>
<polygon fill="midnightblue" stroke="midnightblue" points="197.508,-21.427 206.725,-16.2022 196.261,-14.5388 197.508,-21.427"/>
</g>
</g>
</svg>
