<?xml version="1.0" encoding="UTF-8" standalone="no"?>
<!DOCTYPE svg PUBLIC "-//W3C//DTD SVG 1.1//EN"
 "http://www.w3.org/Graphics/SVG/1.1/DTD/svg11.dtd">
<!-- Generated by graphviz version 2.28.0 (20121221.0049)
 -->
<!-- Title: drivers/ports.h Pages: 1 -->
<svg width="439pt" height="84pt"
 viewBox="0.00 0.00 439.00 84.00" xmlns="http://www.w3.org/2000/svg" xmlns:xlink="http://www.w3.org/1999/xlink">
<g id="graph1" class="graph" transform="scale(1 1) rotate(0) translate(4 80)">
<title>drivers/ports.h</title>
<polygon fill="white" stroke="white" points="-4,5 -4,-80 436,-80 436,5 -4,5"/>
<!-- Node1 -->
<g id="node1" class="node"><title>Node1</title>
<polygon fill="#bfbfbf" stroke="black" points="174.5,-56.5 174.5,-75.5 253.5,-75.5 253.5,-56.5 174.5,-56.5"/>
<text text-anchor="middle" x="214" y="-63.5" font-family="Helvetica,sans-Serif" font-size="10.00">drivers/ports.h</text>
</g>
<!-- Node2 -->
<g id="node3" class="node"><title>Node2</title>
<a xlink:href="../../d2/df2/openchronos_8c.xhtml" target="_top" xlink:title="Main loop &amp; user interface.">
<polygon fill="white" stroke="black" points="0,-0.5 0,-19.5 102,-19.5 102,-0.5 0,-0.5"/>
<text text-anchor="middle" x="51" y="-7.5" font-family="Helvetica,sans-Serif" font-size="10.00">core/openchronos.c</text>
</a>
</g>
<!-- Node1&#45;&gt;Node2 -->
<g id="edge2" class="edge"><title>Node1&#45;&gt;Node2</title>
<path fill="none" stroke="midnightblue" d="M178.297,-53.172C147.604,-43.0039 104.081,-28.5852 76.707,-19.5164"/>
<polygon fill="midnightblue" stroke="midnightblue" points="177.579,-56.6211 188.172,-56.4435 179.78,-49.9762 177.579,-56.6211"/>
</g>
<!-- Node3 -->
<g id="node5" class="node"><title>Node3</title>
<a xlink:href="../../de/dd8/drivers_2battery_8c.xhtml" target="_top" xlink:title="Battery voltage measurement driver.">
<polygon fill="white" stroke="black" points="120.5,-0.5 120.5,-19.5 207.5,-19.5 207.5,-0.5 120.5,-0.5"/>
<text text-anchor="middle" x="164" y="-7.5" font-family="Helvetica,sans-Serif" font-size="10.00">drivers/battery.c</text>
</a>
</g>
<!-- Node1&#45;&gt;Node3 -->
<g id="edge4" class="edge"><title>Node1&#45;&gt;Node3</title>
<path fill="none" stroke="midnightblue" d="M198.924,-48.7175C190.111,-39.1997 179.334,-27.5608 172.103,-19.7511"/>
<polygon fill="midnightblue" stroke="midnightblue" points="196.381,-51.1233 205.744,-56.083 201.518,-46.3674 196.381,-51.1233"/>
</g>
<!-- Node4 -->
<g id="node7" class="node"><title>Node4</title>
<a xlink:href="../../d0/d6e/ports_8c.xhtml" target="_top" xlink:title="drivers/ports.c">
<polygon fill="white" stroke="black" points="225.5,-0.5 225.5,-19.5 304.5,-19.5 304.5,-0.5 225.5,-0.5"/>
<text text-anchor="middle" x="265" y="-7.5" font-family="Helvetica,sans-Serif" font-size="10.00">drivers/ports.c</text>
</a>
</g>
<!-- Node1&#45;&gt;Node4 -->
<g id="edge6" class="edge"><title>Node1&#45;&gt;Node4</title>
<path fill="none" stroke="midnightblue" d="M229.378,-48.7175C238.367,-39.1997 249.359,-27.5608 256.735,-19.7511"/>
<polygon fill="midnightblue" stroke="midnightblue" points="226.743,-46.4096 222.422,-56.083 231.832,-51.216 226.743,-46.4096"/>
</g>
<!-- Node5 -->
<g id="node9" class="node"><title>Node5</title>
<a xlink:href="../../d8/dd8/drivers_2temperature_8c.xhtml" target="_top" xlink:title="drivers/temperature.c">
<polygon fill="white" stroke="black" points="322.5,-0.5 322.5,-19.5 431.5,-19.5 431.5,-0.5 322.5,-0.5"/>
<text text-anchor="middle" x="377" y="-7.5" font-family="Helvetica,sans-Serif" font-size="10.00">drivers/temperature.c</text>
</a>
</g>
<!-- Node1&#45;&gt;Node5 -->
<g id="edge8" class="edge"><title>Node1&#45;&gt;Node5</title>
<path fill="none" stroke="midnightblue" d="M249.703,-53.172C280.396,-43.0039 323.919,-28.5852 351.293,-19.5164"/>
<polygon fill="midnightblue" stroke="midnightblue" points="248.22,-49.9762 239.828,-56.4435 250.421,-56.6211 248.22,-49.9762"/>
</g>
</g>
</svg>
