<?xml version="1.0" encoding="UTF-8" standalone="no"?>
<!DOCTYPE svg PUBLIC "-//W3C//DTD SVG 1.1//EN"
 "http://www.w3.org/Graphics/SVG/1.1/DTD/svg11.dtd">
<!-- Generated by graphviz version 2.28.0 (20121221.0049)
 -->
<!-- Title: radio_powerdown Pages: 1 -->
<svg width="304pt" height="66pt"
 viewBox="0.00 0.00 304.00 66.00" xmlns="http://www.w3.org/2000/svg" xmlns:xlink="http://www.w3.org/1999/xlink">
<g id="graph1" class="graph" transform="scale(1 1) rotate(0) translate(4 62)">
<title>radio_powerdown</title>
<polygon fill="white" stroke="white" points="-4,5 -4,-62 301,-62 301,5 -4,5"/>
<!-- Node1 -->
<g id="node1" class="node"><title>Node1</title>
<polygon fill="#bfbfbf" stroke="black" points="0,-19.5 0,-38.5 92,-38.5 92,-19.5 0,-19.5"/>
<text text-anchor="middle" x="46" y="-26.5" font-family="Helvetica,sans-Serif" font-size="10.00">radio_powerdown</text>
</g>
<!-- Node2 -->
<g id="node3" class="node"><title>Node2</title>
<a xlink:href="../../d6/dc2/rf1a_8c.xhtml#a945d18674a1ebb9b90e50dd79c1b616d" target="_top" xlink:title="Strobe">
<polygon fill="white" stroke="black" points="128.5,-19.5 128.5,-38.5 173.5,-38.5 173.5,-19.5 128.5,-19.5"/>
<text text-anchor="middle" x="151" y="-26.5" font-family="Helvetica,sans-Serif" font-size="10.00">Strobe</text>
</a>
</g>
<!-- Node1&#45;&gt;Node2 -->
<g id="edge2" class="edge"><title>Node1&#45;&gt;Node2</title>
<path fill="none" stroke="midnightblue" d="M92.1773,-29C100.897,-29 109.861,-29 118.052,-29"/>
<polygon fill="midnightblue" stroke="midnightblue" points="118.286,-32.5001 128.286,-29 118.286,-25.5001 118.286,-32.5001"/>
</g>
<!-- Node3 -->
<g id="node5" class="node"><title>Node3</title>
<a xlink:href="../../d6/dc2/rf1a_8c.xhtml#a2054867692e5cbdbb05e4e259f9f6638" target="_top" xlink:title="ReadSingleReg">
<polygon fill="white" stroke="black" points="210.5,-38.5 210.5,-57.5 295.5,-57.5 295.5,-38.5 210.5,-38.5"/>
<text text-anchor="middle" x="253" y="-45.5" font-family="Helvetica,sans-Serif" font-size="10.00">ReadSingleReg</text>
</a>
</g>
<!-- Node2&#45;&gt;Node3 -->
<g id="edge4" class="edge"><title>Node2&#45;&gt;Node3</title>
<path fill="none" stroke="midnightblue" d="M173.699,-33.1227C181.545,-34.6135 190.778,-36.3678 200.099,-38.1388"/>
<polygon fill="midnightblue" stroke="midnightblue" points="199.709,-41.6272 210.186,-40.0554 201.015,-34.7502 199.709,-41.6272"/>
</g>
<!-- Node4 -->
<g id="node7" class="node"><title>Node4</title>
<a xlink:href="../../d6/dc2/rf1a_8c.xhtml#abcff9c644002de49b819433c321f3e82" target="_top" xlink:title="WriteSingleReg">
<polygon fill="white" stroke="black" points="210.5,-0.5 210.5,-19.5 295.5,-19.5 295.5,-0.5 210.5,-0.5"/>
<text text-anchor="middle" x="253" y="-7.5" font-family="Helvetica,sans-Serif" font-size="10.00">WriteSingleReg</text>
</a>
</g>
<!-- Node2&#45;&gt;Node4 -->
<g id="edge6" class="edge"><title>Node2&#45;&gt;Node4</title>
<path fill="none" stroke="midnightblue" d="M173.699,-24.8773C181.545,-23.3865 190.778,-21.6322 200.099,-19.8612"/>
<polygon fill="midnightblue" stroke="midnightblue" points="201.015,-23.2498 210.186,-17.9446 199.709,-16.3728 201.015,-23.2498"/>
</g>
</g>
</svg>
