<?xml version="1.0" encoding="UTF-8" standalone="no"?>
<!DOCTYPE svg PUBLIC "-//W3C//DTD SVG 1.1//EN"
 "http://www.w3.org/Graphics/SVG/1.1/DTD/svg11.dtd">
<!-- Generated by graphviz version 2.28.0 (20121221.0049)
 -->
<!-- Title: battery_measurement Pages: 1 -->
<svg width="402pt" height="66pt"
 viewBox="0.00 0.00 402.00 66.00" xmlns="http://www.w3.org/2000/svg" xmlns:xlink="http://www.w3.org/1999/xlink">
<g id="graph1" class="graph" transform="scale(1 1) rotate(0) translate(4 62)">
<title>battery_measurement</title>
<polygon fill="white" stroke="white" points="-4,5 -4,-62 399,-62 399,5 -4,5"/>
<!-- Node1 -->
<g id="node1" class="node"><title>Node1</title>
<polygon fill="#bfbfbf" stroke="black" points="0.5,-19.5 0.5,-38.5 111.5,-38.5 111.5,-19.5 0.5,-19.5"/>
<text text-anchor="middle" x="56" y="-26.5" font-family="Helvetica,sans-Serif" font-size="10.00">battery_measurement</text>
</g>
<!-- Node2 -->
<g id="node3" class="node"><title>Node2</title>
<a xlink:href="../../dc/ddc/adc12_8c.xhtml#a6202d56d811a4a15e9675420b4b1f8db" target="_top" xlink:title="Init ADC12. Do single conversion. Turn off ADC12.">
<polygon fill="white" stroke="black" points="148,-38.5 148,-57.5 274,-57.5 274,-38.5 148,-38.5"/>
<text text-anchor="middle" x="211" y="-45.5" font-family="Helvetica,sans-Serif" font-size="10.00">adc12_single_conversion</text>
</a>
</g>
<!-- Node1&#45;&gt;Node2 -->
<g id="edge2" class="edge"><title>Node1&#45;&gt;Node2</title>
<path fill="none" stroke="midnightblue" d="M111.804,-35.8058C120.186,-36.8466 128.946,-37.9345 137.635,-39.0136"/>
<polygon fill="midnightblue" stroke="midnightblue" points="137.421,-42.5137 147.776,-40.2728 138.284,-35.5671 137.421,-42.5137"/>
</g>
<!-- Node4 -->
<g id="node7" class="node"><title>Node4</title>
<a xlink:href="../../db/d85/display_8c.xhtml#af604e78dcc4e0f1a204b2180c5e54957" target="_top" xlink:title="Displays a symbol.">
<polygon fill="white" stroke="black" points="169,-0.5 169,-19.5 253,-19.5 253,-0.5 169,-0.5"/>
<text text-anchor="middle" x="211" y="-7.5" font-family="Helvetica,sans-Serif" font-size="10.00">display_symbol</text>
</a>
</g>
<!-- Node1&#45;&gt;Node4 -->
<g id="edge6" class="edge"><title>Node1&#45;&gt;Node4</title>
<path fill="none" stroke="midnightblue" d="M111.804,-22.1942C126.992,-20.3082 143.423,-18.2677 158.42,-16.4053"/>
<polygon fill="midnightblue" stroke="midnightblue" points="159.048,-19.8543 168.541,-15.1485 158.186,-12.9077 159.048,-19.8543"/>
</g>
<!-- Node3 -->
<g id="node5" class="node"><title>Node3</title>
<a xlink:href="../../df/d41/timer_8c.xhtml#adc3302861aee9d7f4a1c4c6d25d07343" target="_top" xlink:title="1ms &#45; 1s programmable delay">
<polygon fill="white" stroke="black" points="316,-38.5 316,-57.5 388,-57.5 388,-38.5 316,-38.5"/>
<text text-anchor="middle" x="352" y="-45.5" font-family="Helvetica,sans-Serif" font-size="10.00">timer0_delay</text>
</a>
</g>
<!-- Node2&#45;&gt;Node3 -->
<g id="edge4" class="edge"><title>Node2&#45;&gt;Node3</title>
<path fill="none" stroke="midnightblue" d="M274.182,-48C284.804,-48 295.657,-48 305.733,-48"/>
<polygon fill="midnightblue" stroke="midnightblue" points="305.91,-51.5001 315.91,-48 305.91,-44.5001 305.91,-51.5001"/>
</g>
<!-- Node5 -->
<g id="node9" class="node"><title>Node5</title>
<a xlink:href="../../db/d85/display_8c.xhtml#a710739913e8ea1b71dd433b8311211fd" target="_top" xlink:title="write_lcd_mem">
<polygon fill="white" stroke="black" points="310.5,-0.5 310.5,-19.5 393.5,-19.5 393.5,-0.5 310.5,-0.5"/>
<text text-anchor="middle" x="352" y="-7.5" font-family="Helvetica,sans-Serif" font-size="10.00">write_lcd_mem</text>
</a>
</g>
<!-- Node4&#45;&gt;Node5 -->
<g id="edge8" class="edge"><title>Node4&#45;&gt;Node5</title>
<path fill="none" stroke="midnightblue" d="M253.328,-10C267.893,-10 284.445,-10 299.73,-10"/>
<polygon fill="midnightblue" stroke="midnightblue" points="300.071,-13.5001 310.071,-10 300.071,-6.5001 300.071,-13.5001"/>
</g>
</g>
</svg>
