<?xml version="1.0" encoding="UTF-8" standalone="no"?>
<!DOCTYPE svg PUBLIC "-//W3C//DTD SVG 1.1//EN"
 "http://www.w3.org/Graphics/SVG/1.1/DTD/svg11.dtd">
<!-- Generated by graphviz version 2.28.0 (20121221.0049)
 -->
<!-- Title: mod_init Pages: 1 -->
<svg width="540pt" height="1434pt"
 viewBox="0.00 0.00 540.00 1434.00" xmlns="http://www.w3.org/2000/svg" xmlns:xlink="http://www.w3.org/1999/xlink">
<g id="graph1" class="graph" transform="scale(1 1) rotate(0) translate(4 1430)">
<title>mod_init</title>
<polygon fill="white" stroke="white" points="-4,5 -4,-1430 537,-1430 537,5 -4,5"/>
<!-- Node1 -->
<g id="node1" class="node"><title>Node1</title>
<polygon fill="#bfbfbf" stroke="black" points="0.5,-836.5 0.5,-855.5 53.5,-855.5 53.5,-836.5 0.5,-836.5"/>
<text text-anchor="middle" x="27" y="-843.5" font-family="Helvetica,sans-Serif" font-size="10.00">mod_init</text>
</g>
<!-- Node2 -->
<g id="node3" class="node"><title>Node2</title>
<a xlink:href="../../dd/d09/altitude_8c.xhtml#af17950fb2b8549494962ccffd874b104" target="_top" xlink:title="mod_altitude_init">
<polygon fill="white" stroke="black" points="105,-1330.5 105,-1349.5 195,-1349.5 195,-1330.5 105,-1330.5"/>
<text text-anchor="middle" x="150" y="-1337.5" font-family="Helvetica,sans-Serif" font-size="10.00">mod_altitude_init</text>
</a>
</g>
<!-- Node1&#45;&gt;Node2 -->
<g id="edge2" class="edge"><title>Node1&#45;&gt;Node2</title>
<path fill="none" stroke="midnightblue" d="M29.0668,-855.672C33.7195,-896.563 53.6494,-1059.07 90,-1188 103.887,-1237.26 127.587,-1292.75 140.312,-1321.11"/>
<polygon fill="midnightblue" stroke="midnightblue" points="137.147,-1322.6 144.466,-1330.26 143.522,-1319.71 137.147,-1322.6"/>
</g>
<!-- Node8 -->
<g id="node15" class="node"><title>Node8</title>
<a xlink:href="../../d1/d2d/accelerometer_8c.xhtml#a935d2914ac0f3729715bab1080fee1de" target="_top" xlink:title="mod_accelerometer_init">
<polygon fill="white" stroke="black" points="90,-1159.5 90,-1178.5 210,-1178.5 210,-1159.5 90,-1159.5"/>
<text text-anchor="middle" x="150" y="-1166.5" font-family="Helvetica,sans-Serif" font-size="10.00">mod_accelerometer_init</text>
</a>
</g>
<!-- Node1&#45;&gt;Node8 -->
<g id="edge14" class="edge"><title>Node1&#45;&gt;Node8</title>
<path fill="none" stroke="midnightblue" d="M31.6213,-855.667C48.4253,-900.524 118.949,-1088.78 141.812,-1149.81"/>
<polygon fill="midnightblue" stroke="midnightblue" points="138.607,-1151.23 145.393,-1159.37 145.162,-1148.78 138.607,-1151.23"/>
</g>
<!-- Node15 -->
<g id="node31" class="node"><title>Node15</title>
<a xlink:href="../../dc/d54/clock_8c.xhtml#aec36ff5afe17ee2779e0b0e24aab9ca7" target="_top" xlink:title="mod_clock_init">
<polygon fill="white" stroke="black" points="109,-969.5 109,-988.5 191,-988.5 191,-969.5 109,-969.5"/>
<text text-anchor="middle" x="150" y="-976.5" font-family="Helvetica,sans-Serif" font-size="10.00">mod_clock_init</text>
</a>
</g>
<!-- Node1&#45;&gt;Node15 -->
<g id="edge32" class="edge"><title>Node1&#45;&gt;Node15</title>
<path fill="none" stroke="midnightblue" d="M32.5185,-855.56C41.4921,-873.815 63.0414,-914.203 90,-941 99.0894,-950.035 110.67,-958.06 121.161,-964.381"/>
<polygon fill="midnightblue" stroke="midnightblue" points="119.597,-967.519 130.009,-969.479 123.091,-961.454 119.597,-967.519"/>
</g>
<!-- Node20 -->
<g id="node43" class="node"><title>Node20</title>
<a xlink:href="../../de/dd1/stopwatch_8c.xhtml#a86ff27baec4e95765c90fcdb8e1bfd8a" target="_top" xlink:title="mod_stopwatch_init">
<polygon fill="white" stroke="black" points="98,-798.5 98,-817.5 202,-817.5 202,-798.5 98,-798.5"/>
<text text-anchor="middle" x="150" y="-805.5" font-family="Helvetica,sans-Serif" font-size="10.00">mod_stopwatch_init</text>
</a>
</g>
<!-- Node1&#45;&gt;Node20 -->
<g id="edge46" class="edge"><title>Node1&#45;&gt;Node20</title>
<path fill="none" stroke="midnightblue" d="M53.661,-837.941C69.6989,-832.904 90.6917,-826.312 108.895,-820.595"/>
<polygon fill="midnightblue" stroke="midnightblue" points="110.18,-823.86 118.672,-817.525 108.082,-817.182 110.18,-823.86"/>
</g>
<!-- Node28 -->
<g id="node62" class="node"><title>Node28</title>
<a xlink:href="../../dc/da5/music_8c.xhtml#ae61e95ab46384b973f91f6575ed64938" target="_top" xlink:title="mod_music_init">
<polygon fill="white" stroke="black" points="107.5,-608.5 107.5,-627.5 192.5,-627.5 192.5,-608.5 107.5,-608.5"/>
<text text-anchor="middle" x="150" y="-615.5" font-family="Helvetica,sans-Serif" font-size="10.00">mod_music_init</text>
</a>
</g>
<!-- Node1&#45;&gt;Node28 -->
<g id="edge68" class="edge"><title>Node1&#45;&gt;Node28</title>
<path fill="none" stroke="midnightblue" d="M33.0452,-836.493C51.3797,-801.946 114.684,-682.662 139.197,-636.472"/>
<polygon fill="midnightblue" stroke="midnightblue" points="142.337,-638.021 143.933,-627.547 136.154,-634.74 142.337,-638.021"/>
</g>
<!-- Node32 -->
<g id="node71" class="node"><title>Node32</title>
<a xlink:href="../../df/dce/alarm_8c.xhtml#ab61f42df97d34533cf86aa88b1f0f798" target="_top" xlink:title="mod_alarm_init">
<polygon fill="white" stroke="black" points="108.5,-475.5 108.5,-494.5 191.5,-494.5 191.5,-475.5 108.5,-475.5"/>
<text text-anchor="middle" x="150" y="-482.5" font-family="Helvetica,sans-Serif" font-size="10.00">mod_alarm_init</text>
</a>
</g>
<!-- Node1&#45;&gt;Node32 -->
<g id="edge78" class="edge"><title>Node1&#45;&gt;Node32</title>
<path fill="none" stroke="midnightblue" d="M29.5925,-836.335C35.2992,-802.754 56.2013,-688.317 90,-599 103.329,-563.777 124.77,-525.38 137.806,-503.348"/>
<polygon fill="midnightblue" stroke="midnightblue" points="140.847,-505.082 142.987,-494.706 134.843,-501.483 140.847,-505.082"/>
</g>
<!-- Node37 -->
<g id="node83" class="node"><title>Node37</title>
<a xlink:href="../../db/d52/tide_8c.xhtml#a19a6ff01d787085346bfd8d2a34c1895" target="_top" xlink:title="mod_tide_init">
<polygon fill="white" stroke="black" points="113,-247.5 113,-266.5 187,-266.5 187,-247.5 113,-247.5"/>
<text text-anchor="middle" x="150" y="-254.5" font-family="Helvetica,sans-Serif" font-size="10.00">mod_tide_init</text>
</a>
</g>
<!-- Node1&#45;&gt;Node37 -->
<g id="edge92" class="edge"><title>Node1&#45;&gt;Node37</title>
<path fill="none" stroke="midnightblue" d="M29.1787,-836.233C34.5228,-792.672 57.6252,-611.848 90,-466 105.623,-395.618 130.825,-313.772 142.579,-276.856"/>
<polygon fill="midnightblue" stroke="midnightblue" points="146.05,-277.495 145.77,-266.904 139.384,-275.358 146.05,-277.495"/>
</g>
<!-- Node45 -->
<g id="node103" class="node"><title>Node45</title>
<a xlink:href="../../d1/dc6/rfbsl_8c.xhtml#abf8d611962ed519d0a991d94247548fe" target="_top" xlink:title="mod_rfbsl_init">
<polygon fill="white" stroke="red" points="111.5,-114.5 111.5,-133.5 188.5,-133.5 188.5,-114.5 111.5,-114.5"/>
<text text-anchor="middle" x="150" y="-121.5" font-family="Helvetica,sans-Serif" font-size="10.00">mod_rfbsl_init</text>
</a>
</g>
<!-- Node1&#45;&gt;Node45 -->
<g id="edge116" class="edge"><title>Node1&#45;&gt;Node45</title>
<path fill="none" stroke="midnightblue" d="M28.4867,-836.378C32.0094,-768.19 54.4732,-357.225 90,-238 100.755,-201.908 123.021,-163.789 136.914,-142.047"/>
<polygon fill="midnightblue" stroke="midnightblue" points="139.937,-143.819 142.467,-133.53 134.073,-139.995 139.937,-143.819"/>
</g>
<!-- Node48 -->
<g id="node110" class="node"><title>Node48</title>
<a xlink:href="../../db/d97/modules_2temperature_8c.xhtml#aea3710888164f63973db2bc6b75bad7e" target="_top" xlink:title="Init the module. Sets default values, register menu entry.">
<polygon fill="white" stroke="red" points="95,-912.5 95,-931.5 205,-931.5 205,-912.5 95,-912.5"/>
<text text-anchor="middle" x="150" y="-919.5" font-family="Helvetica,sans-Serif" font-size="10.00">mod_temperature_init</text>
</a>
</g>
<!-- Node1&#45;&gt;Node48 -->
<g id="edge124" class="edge"><title>Node1&#45;&gt;Node48</title>
<path fill="none" stroke="midnightblue" d="M36.242,-855.856C47.2744,-868.464 68.0166,-890.194 90,-903 93.6613,-905.133 97.592,-907.059 101.623,-908.792"/>
<polygon fill="midnightblue" stroke="midnightblue" points="100.541,-912.126 111.13,-912.49 103.079,-905.602 100.541,-912.126"/>
</g>
<!-- Node49 -->
<g id="node113" class="node"><title>Node49</title>
<a xlink:href="../../d2/dc0/otp_8c.xhtml#ae4086bef84911baaf471b853ee9e0842" target="_top" xlink:title="mod_otp_init">
<polygon fill="white" stroke="red" points="114,-874.5 114,-893.5 186,-893.5 186,-874.5 114,-874.5"/>
<text text-anchor="middle" x="150" y="-881.5" font-family="Helvetica,sans-Serif" font-size="10.00">mod_otp_init</text>
</a>
</g>
<!-- Node1&#45;&gt;Node49 -->
<g id="edge128" class="edge"><title>Node1&#45;&gt;Node49</title>
<path fill="none" stroke="midnightblue" d="M53.661,-854.059C69.6989,-859.096 90.6917,-865.688 108.895,-871.405"/>
<polygon fill="midnightblue" stroke="midnightblue" points="108.082,-874.818 118.672,-874.475 110.18,-868.14 108.082,-874.818"/>
</g>
<!-- Node50 -->
<g id="node116" class="node"><title>Node50</title>
<a xlink:href="../../d8/d7f/modules_2battery_8c.xhtml#aee7c098de30dddd4547509b803e1a8bb" target="_top" xlink:title="mod_battery_init">
<polygon fill="white" stroke="red" points="105.5,-836.5 105.5,-855.5 194.5,-855.5 194.5,-836.5 105.5,-836.5"/>
<text text-anchor="middle" x="150" y="-843.5" font-family="Helvetica,sans-Serif" font-size="10.00">mod_battery_init</text>
</a>
</g>
<!-- Node1&#45;&gt;Node50 -->
<g id="edge132" class="edge"><title>Node1&#45;&gt;Node50</title>
<path fill="none" stroke="midnightblue" d="M53.661,-846C65.7187,-846 80.5771,-846 94.9451,-846"/>
<polygon fill="midnightblue" stroke="midnightblue" points="95.2735,-849.5 105.273,-846 95.2734,-842.5 95.2735,-849.5"/>
</g>
<!-- Node3 -->
<g id="node5" class="node"><title>Node3</title>
<a xlink:href="../../d2/df2/openchronos_8c.xhtml#a71490cfda7ca71ac20d681a8a7a994e1" target="_top" xlink:title="Adds an entry to the main menu.">
<polygon fill="white" stroke="black" points="260.5,-912.5 260.5,-931.5 349.5,-931.5 349.5,-912.5 260.5,-912.5"/>
<text text-anchor="middle" x="305" y="-919.5" font-family="Helvetica,sans-Serif" font-size="10.00">menu_add_entry</text>
</a>
</g>
<!-- Node2&#45;&gt;Node3 -->
<g id="edge4" class="edge"><title>Node2&#45;&gt;Node3</title>
<path fill="none" stroke="midnightblue" d="M155.658,-1330.3C166.842,-1306.59 195.367,-1243.57 210,-1188 238.251,-1080.72 174.576,-1025.89 246,-941 247.701,-938.978 249.621,-937.17 251.702,-935.553"/>
<polygon fill="midnightblue" stroke="midnightblue" points="253.704,-938.431 260.395,-930.216 250.041,-932.465 253.704,-938.431"/>
</g>
<!-- Node4 -->
<g id="node7" class="node"><title>Node4</title>
<a xlink:href="../../dd/d09/altitude_8c.xhtml#a1c5780aafb0e259eb34bb95dcb952d2b" target="_top" xlink:title="altitude_edit">
<polygon fill="white" stroke="red" points="270.5,-1368.5 270.5,-1387.5 339.5,-1387.5 339.5,-1368.5 270.5,-1368.5"/>
<text text-anchor="middle" x="305" y="-1375.5" font-family="Helvetica,sans-Serif" font-size="10.00">altitude_edit</text>
</a>
</g>
<!-- Node2&#45;&gt;Node4 -->
<g id="edge6" class="edge"><title>Node2&#45;&gt;Node4</title>
<path fill="none" stroke="midnightblue" d="M189.608,-1349.59C211.18,-1354.95 238.13,-1361.64 260.452,-1367.18"/>
<polygon fill="midnightblue" stroke="midnightblue" points="259.798,-1370.63 270.347,-1369.64 261.485,-1363.83 259.798,-1370.63"/>
</g>
<!-- Node5 -->
<g id="node9" class="node"><title>Node5</title>
<a xlink:href="../../dd/d09/altitude_8c.xhtml#a30b0576ebe54127f33390423c407fa39" target="_top" xlink:title="altitude_activate">
<polygon fill="white" stroke="red" points="261,-1330.5 261,-1349.5 349,-1349.5 349,-1330.5 261,-1330.5"/>
<text text-anchor="middle" x="305" y="-1337.5" font-family="Helvetica,sans-Serif" font-size="10.00">altitude_activate</text>
</a>
</g>
<!-- Node2&#45;&gt;Node5 -->
<g id="edge8" class="edge"><title>Node2&#45;&gt;Node5</title>
<path fill="none" stroke="midnightblue" d="M195.254,-1340C212.598,-1340 232.649,-1340 250.774,-1340"/>
<polygon fill="midnightblue" stroke="midnightblue" points="250.901,-1343.5 260.901,-1340 250.901,-1336.5 250.901,-1343.5"/>
</g>
<!-- Node7 -->
<g id="node13" class="node"><title>Node7</title>
<a xlink:href="../../dd/d09/altitude_8c.xhtml#ad4494c76933076bcec7c92ebb0e48149" target="_top" xlink:title="altitude_deactivate">
<polygon fill="white" stroke="red" points="256,-1406.5 256,-1425.5 354,-1425.5 354,-1406.5 256,-1406.5"/>
<text text-anchor="middle" x="305" y="-1413.5" font-family="Helvetica,sans-Serif" font-size="10.00">altitude_deactivate</text>
</a>
</g>
<!-- Node2&#45;&gt;Node7 -->
<g id="edge12" class="edge"><title>Node2&#45;&gt;Node7</title>
<path fill="none" stroke="midnightblue" d="M164.627,-1349.52C182.611,-1361.76 215.558,-1383.09 246,-1397 250.699,-1399.15 255.711,-1401.16 260.747,-1403.02"/>
<polygon fill="midnightblue" stroke="midnightblue" points="259.79,-1406.4 270.385,-1406.4 262.105,-1399.79 259.79,-1406.4"/>
</g>
<!-- Node6 -->
<g id="node11" class="node"><title>Node6</title>
<a xlink:href="../../d2/df2/openchronos_8c.xhtml#a5aeb07d7031b5d53ca8605bf398714a2" target="_top" xlink:title="Registers a node in the message bus.">
<polygon fill="white" stroke="black" points="400.5,-855.5 400.5,-874.5 531.5,-874.5 531.5,-855.5 400.5,-855.5"/>
<text text-anchor="middle" x="466" y="-862.5" font-family="Helvetica,sans-Serif" font-size="10.00">sys_messagebus_register</text>
</a>
</g>
<!-- Node5&#45;&gt;Node6 -->
<g id="edge10" class="edge"><title>Node5&#45;&gt;Node6</title>
<path fill="none" stroke="midnightblue" d="M349.013,-1331.66C354.64,-1329.02 359.874,-1325.55 364,-1321 424.061,-1254.7 455.619,-963.934 463.19,-884.893"/>
<polygon fill="midnightblue" stroke="midnightblue" points="466.686,-885.102 464.133,-874.819 459.716,-884.449 466.686,-885.102"/>
</g>
<!-- Node8&#45;&gt;Node3 -->
<g id="edge16" class="edge"><title>Node8&#45;&gt;Node3</title>
<path fill="none" stroke="midnightblue" d="M153.811,-1159.45C165.482,-1120.38 211.131,-973.243 246,-941 247.707,-939.422 249.547,-937.975 251.485,-936.648"/>
<polygon fill="midnightblue" stroke="midnightblue" points="253.508,-939.525 260.5,-931.564 250.07,-933.427 253.508,-939.525"/>
</g>
<!-- Node9 -->
<g id="node18" class="node"><title>Node9</title>
<a xlink:href="../../d1/d2d/accelerometer_8c.xhtml#a09dcca3ff3ba8b0a0045abf6f09a87c8" target="_top" xlink:title="up_btn">
<polygon fill="white" stroke="red" points="282,-1178.5 282,-1197.5 328,-1197.5 328,-1178.5 282,-1178.5"/>
<text text-anchor="middle" x="305" y="-1185.5" font-family="Helvetica,sans-Serif" font-size="10.00">up_btn</text>
</a>
</g>
<!-- Node8&#45;&gt;Node9 -->
<g id="edge18" class="edge"><title>Node8&#45;&gt;Node9</title>
<path fill="none" stroke="midnightblue" d="M210.154,-1176.35C231.004,-1178.94 253.668,-1181.75 271.5,-1183.96"/>
<polygon fill="midnightblue" stroke="midnightblue" points="271.299,-1187.47 281.654,-1185.23 272.162,-1180.52 271.299,-1187.47"/>
</g>
<!-- Node10 -->
<g id="node20" class="node"><title>Node10</title>
<a xlink:href="../../d1/d2d/accelerometer_8c.xhtml#af695d552d42de689963fb72f77bffbe8" target="_top" xlink:title="down_btn">
<polygon fill="white" stroke="red" points="275.5,-1140.5 275.5,-1159.5 334.5,-1159.5 334.5,-1140.5 275.5,-1140.5"/>
<text text-anchor="middle" x="305" y="-1147.5" font-family="Helvetica,sans-Serif" font-size="10.00">down_btn</text>
</a>
</g>
<!-- Node8&#45;&gt;Node10 -->
<g id="edge20" class="edge"><title>Node8&#45;&gt;Node10</title>
<path fill="none" stroke="midnightblue" d="M210.154,-1161.65C228.677,-1159.35 248.633,-1156.88 265.36,-1154.8"/>
<polygon fill="midnightblue" stroke="midnightblue" points="265.823,-1158.27 275.316,-1153.56 264.961,-1151.32 265.823,-1158.27"/>
</g>
<!-- Node11 -->
<g id="node22" class="node"><title>Node11</title>
<a xlink:href="../../d1/d2d/accelerometer_8c.xhtml#ac45981ec8f139799de2761059031da27" target="_top" xlink:title="num_pressed">
<polygon fill="white" stroke="red" points="267.5,-1292.5 267.5,-1311.5 342.5,-1311.5 342.5,-1292.5 267.5,-1292.5"/>
<text text-anchor="middle" x="305" y="-1299.5" font-family="Helvetica,sans-Serif" font-size="10.00">num_pressed</text>
</a>
</g>
<!-- Node8&#45;&gt;Node11 -->
<g id="edge22" class="edge"><title>Node8&#45;&gt;Node11</title>
<path fill="none" stroke="midnightblue" d="M156.529,-1178.82C169.365,-1200.76 203.367,-1254.06 246,-1283 249.7,-1285.51 253.756,-1287.71 257.951,-1289.63"/>
<polygon fill="midnightblue" stroke="midnightblue" points="256.688,-1292.9 267.27,-1293.41 259.319,-1286.41 256.688,-1292.9"/>
</g>
<!-- Node12 -->
<g id="node24" class="node"><title>Node12</title>
<a xlink:href="../../d1/d2d/accelerometer_8c.xhtml#a98c2f38c8be9842b760af29757d87694" target="_top" xlink:title="star_long_pressed">
<polygon fill="white" stroke="red" points="257,-1254.5 257,-1273.5 353,-1273.5 353,-1254.5 257,-1254.5"/>
<text text-anchor="middle" x="305" y="-1261.5" font-family="Helvetica,sans-Serif" font-size="10.00">star_long_pressed</text>
</a>
</g>
<!-- Node8&#45;&gt;Node12 -->
<g id="edge24" class="edge"><title>Node8&#45;&gt;Node12</title>
<path fill="none" stroke="midnightblue" d="M160.673,-1178.75C176.951,-1194.66 211.442,-1226.32 246,-1245 249.988,-1247.16 254.262,-1249.12 258.616,-1250.9"/>
<polygon fill="midnightblue" stroke="midnightblue" points="257.604,-1254.26 268.196,-1254.5 260.065,-1247.71 257.604,-1254.26"/>
</g>
<!-- Node13 -->
<g id="node26" class="node"><title>Node13</title>
<a xlink:href="../../d1/d2d/accelerometer_8c.xhtml#abcbcaa7863416e641f147bce3d882790" target="_top" xlink:title="acc_activated">
<polygon fill="white" stroke="red" points="266.5,-1102.5 266.5,-1121.5 343.5,-1121.5 343.5,-1102.5 266.5,-1102.5"/>
<text text-anchor="middle" x="305" y="-1109.5" font-family="Helvetica,sans-Serif" font-size="10.00">acc_activated</text>
</a>
</g>
<!-- Node8&#45;&gt;Node13 -->
<g id="edge26" class="edge"><title>Node8&#45;&gt;Node13</title>
<path fill="none" stroke="midnightblue" d="M173.878,-1159.37C193.023,-1151.43 221.124,-1140.04 246,-1131 251.678,-1128.94 257.704,-1126.85 263.641,-1124.85"/>
<polygon fill="midnightblue" stroke="midnightblue" points="265.08,-1128.06 273.472,-1121.6 262.878,-1121.42 265.08,-1128.06"/>
</g>
<!-- Node14 -->
<g id="node29" class="node"><title>Node14</title>
<a xlink:href="../../d1/d2d/accelerometer_8c.xhtml#a1beaf4dc0dba31d59b95641a3d199524" target="_top" xlink:title="acc_deactivated">
<polygon fill="white" stroke="red" points="261,-1216.5 261,-1235.5 349,-1235.5 349,-1216.5 261,-1216.5"/>
<text text-anchor="middle" x="305" y="-1223.5" font-family="Helvetica,sans-Serif" font-size="10.00">acc_deactivated</text>
</a>
</g>
<!-- Node8&#45;&gt;Node14 -->
<g id="edge30" class="edge"><title>Node8&#45;&gt;Node14</title>
<path fill="none" stroke="midnightblue" d="M173.878,-1178.63C193.023,-1186.57 221.124,-1197.96 246,-1207 251.678,-1209.06 257.704,-1211.15 263.641,-1213.15"/>
<polygon fill="midnightblue" stroke="midnightblue" points="262.878,-1216.58 273.472,-1216.4 265.08,-1209.94 262.878,-1216.58"/>
</g>
<!-- Node13&#45;&gt;Node6 -->
<g id="edge28" class="edge"><title>Node13&#45;&gt;Node6</title>
<path fill="none" stroke="midnightblue" d="M343.746,-1104.71C351.081,-1101.96 358.263,-1098.19 364,-1093 428.101,-1035.03 453.646,-928.833 461.789,-884.869"/>
<polygon fill="midnightblue" stroke="midnightblue" points="465.261,-885.328 463.534,-874.875 458.366,-884.124 465.261,-885.328"/>
</g>
<!-- Node15&#45;&gt;Node3 -->
<g id="edge34" class="edge"><title>Node15&#45;&gt;Node3</title>
<path fill="none" stroke="midnightblue" d="M173.878,-969.371C193.023,-961.429 221.124,-950.039 246,-941 251.678,-938.937 257.704,-936.85 263.641,-934.853"/>
<polygon fill="midnightblue" stroke="midnightblue" points="265.08,-938.063 273.472,-931.596 262.878,-931.418 265.08,-938.063"/>
</g>
<!-- Node16 -->
<g id="node34" class="node"><title>Node16</title>
<a xlink:href="../../dc/d54/clock_8c.xhtml#ac45981ec8f139799de2761059031da27" target="_top" xlink:title="num_pressed">
<polygon fill="white" stroke="red" points="267.5,-1026.5 267.5,-1045.5 342.5,-1045.5 342.5,-1026.5 267.5,-1026.5"/>
<text text-anchor="middle" x="305" y="-1033.5" font-family="Helvetica,sans-Serif" font-size="10.00">num_pressed</text>
</a>
</g>
<!-- Node15&#45;&gt;Node16 -->
<g id="edge36" class="edge"><title>Node15&#45;&gt;Node16</title>
<path fill="none" stroke="midnightblue" d="M173.878,-988.629C193.023,-996.571 221.124,-1007.96 246,-1017 251.678,-1019.06 257.704,-1021.15 263.641,-1023.15"/>
<polygon fill="midnightblue" stroke="midnightblue" points="262.878,-1026.58 273.472,-1026.4 265.08,-1019.94 262.878,-1026.58"/>
</g>
<!-- Node17 -->
<g id="node36" class="node"><title>Node17</title>
<a xlink:href="../../dc/d54/clock_8c.xhtml#a98c2f38c8be9842b760af29757d87694" target="_top" xlink:title="star_long_pressed">
<polygon fill="white" stroke="red" points="257,-988.5 257,-1007.5 353,-1007.5 353,-988.5 257,-988.5"/>
<text text-anchor="middle" x="305" y="-995.5" font-family="Helvetica,sans-Serif" font-size="10.00">star_long_pressed</text>
</a>
</g>
<!-- Node15&#45;&gt;Node17 -->
<g id="edge38" class="edge"><title>Node15&#45;&gt;Node17</title>
<path fill="none" stroke="midnightblue" d="M191.199,-983.992C208.157,-986.098 228.212,-988.588 246.675,-990.881"/>
<polygon fill="midnightblue" stroke="midnightblue" points="246.384,-994.372 256.739,-992.131 247.246,-987.425 246.384,-994.372"/>
</g>
<!-- Node18 -->
<g id="node38" class="node"><title>Node18</title>
<a xlink:href="../../dc/d54/clock_8c.xhtml#a3e731bc12fc17e0ce19d9766c06b3a32" target="_top" xlink:title="clock_activated">
<polygon fill="white" stroke="red" points="262.5,-950.5 262.5,-969.5 347.5,-969.5 347.5,-950.5 262.5,-950.5"/>
<text text-anchor="middle" x="305" y="-957.5" font-family="Helvetica,sans-Serif" font-size="10.00">clock_activated</text>
</a>
</g>
<!-- Node15&#45;&gt;Node18 -->
<g id="edge40" class="edge"><title>Node15&#45;&gt;Node18</title>
<path fill="none" stroke="midnightblue" d="M191.199,-974.008C209.897,-971.686 232.362,-968.896 252.304,-966.42"/>
<polygon fill="midnightblue" stroke="midnightblue" points="252.977,-969.863 262.47,-965.157 252.115,-962.916 252.977,-969.863"/>
</g>
<!-- Node19 -->
<g id="node41" class="node"><title>Node19</title>
<a xlink:href="../../dc/d54/clock_8c.xhtml#a1f08116a446e881d8075283a97fd7d60" target="_top" xlink:title="clock_deactivated">
<polygon fill="white" stroke="red" points="257.5,-1064.5 257.5,-1083.5 352.5,-1083.5 352.5,-1064.5 257.5,-1064.5"/>
<text text-anchor="middle" x="305" y="-1071.5" font-family="Helvetica,sans-Serif" font-size="10.00">clock_deactivated</text>
</a>
</g>
<!-- Node15&#45;&gt;Node19 -->
<g id="edge44" class="edge"><title>Node15&#45;&gt;Node19</title>
<path fill="none" stroke="midnightblue" d="M160.673,-988.749C176.951,-1004.66 211.442,-1036.32 246,-1055 249.988,-1057.16 254.262,-1059.12 258.616,-1060.9"/>
<polygon fill="midnightblue" stroke="midnightblue" points="257.604,-1064.26 268.196,-1064.5 260.065,-1057.71 257.604,-1064.26"/>
</g>
<!-- Node18&#45;&gt;Node6 -->
<g id="edge42" class="edge"><title>Node18&#45;&gt;Node6</title>
<path fill="none" stroke="midnightblue" d="M341.416,-950.449C349.058,-947.828 356.954,-944.676 364,-941 395.524,-924.555 427.602,-898.483 446.905,-881.558"/>
<polygon fill="midnightblue" stroke="midnightblue" points="449.456,-883.972 454.592,-874.705 444.799,-878.747 449.456,-883.972"/>
</g>
<!-- Node20&#45;&gt;Node3 -->
<g id="edge50" class="edge"><title>Node20&#45;&gt;Node3</title>
<path fill="none" stroke="midnightblue" d="M194.771,-817.528C200.289,-819.995 205.55,-823.097 210,-827 238.1,-851.644 217.962,-878.285 246,-903 247.913,-904.686 249.978,-906.223 252.151,-907.624"/>
<polygon fill="midnightblue" stroke="midnightblue" points="250.504,-910.712 260.966,-912.381 253.828,-904.552 250.504,-910.712"/>
</g>
<!-- Node21 -->
<g id="node45" class="node"><title>Node21</title>
<a xlink:href="../../de/dd1/stopwatch_8c.xhtml#ac9b29bbda1fac306d56e61089ec8ac21" target="_top" xlink:title="clear_stopwatch">
<polygon fill="white" stroke="black" points="422,-665.5 422,-684.5 510,-684.5 510,-665.5 422,-665.5"/>
<text text-anchor="middle" x="466" y="-672.5" font-family="Helvetica,sans-Serif" font-size="10.00">clear_stopwatch</text>
</a>
</g>
<!-- Node20&#45;&gt;Node21 -->
<g id="edge48" class="edge"><title>Node20&#45;&gt;Node21</title>
<path fill="none" stroke="midnightblue" d="M154.369,-798.201C163.893,-772.248 193.772,-701.877 246,-675 300.216,-647.099 372.449,-654.155 418.849,-663.32"/>
<polygon fill="midnightblue" stroke="midnightblue" points="418.41,-666.804 428.915,-665.422 419.841,-659.952 418.41,-666.804"/>
</g>
<!-- Node22 -->
<g id="node48" class="node"><title>Node22</title>
<a xlink:href="../../de/dd1/stopwatch_8c.xhtml#a03aedb19c639b84174592190e5c648d5" target="_top" xlink:title="up_press">
<polygon fill="white" stroke="red" points="277,-722.5 277,-741.5 333,-741.5 333,-722.5 277,-722.5"/>
<text text-anchor="middle" x="305" y="-729.5" font-family="Helvetica,sans-Serif" font-size="10.00">up_press</text>
</a>
</g>
<!-- Node20&#45;&gt;Node22 -->
<g id="edge52" class="edge"><title>Node20&#45;&gt;Node22</title>
<path fill="none" stroke="midnightblue" d="M164.627,-798.482C182.611,-786.241 215.558,-764.906 246,-751 252.759,-747.913 260.167,-745.091 267.361,-742.621"/>
<polygon fill="midnightblue" stroke="midnightblue" points="268.543,-745.917 276.958,-739.479 266.366,-739.264 268.543,-745.917"/>
</g>
<!-- Node23 -->
<g id="node50" class="node"><title>Node23</title>
<a xlink:href="../../de/dd1/stopwatch_8c.xhtml#a0ac87fd2e3f34e16f0647466bcc80244" target="_top" xlink:title="down_press">
<polygon fill="white" stroke="red" points="270.5,-874.5 270.5,-893.5 339.5,-893.5 339.5,-874.5 270.5,-874.5"/>
<text text-anchor="middle" x="305" y="-881.5" font-family="Helvetica,sans-Serif" font-size="10.00">down_press</text>
</a>
</g>
<!-- Node20&#45;&gt;Node23 -->
<g id="edge54" class="edge"><title>Node20&#45;&gt;Node23</title>
<path fill="none" stroke="midnightblue" d="M190.326,-817.608C197.157,-820.119 203.99,-823.215 210,-827 229.686,-839.397 226.345,-852.554 246,-865 250.473,-867.833 255.41,-870.283 260.459,-872.393"/>
<polygon fill="midnightblue" stroke="midnightblue" points="259.621,-875.817 270.214,-876.042 262.074,-869.26 259.621,-875.817"/>
</g>
<!-- Node24 -->
<g id="node52" class="node"><title>Node24</title>
<a xlink:href="../../de/dd1/stopwatch_8c.xhtml#a59733069c598c7864f48ad923cc5ea0d" target="_top" xlink:title="num_press">
<polygon fill="white" stroke="red" points="272.5,-836.5 272.5,-855.5 337.5,-855.5 337.5,-836.5 272.5,-836.5"/>
<text text-anchor="middle" x="305" y="-843.5" font-family="Helvetica,sans-Serif" font-size="10.00">num_press</text>
</a>
</g>
<!-- Node20&#45;&gt;Node24 -->
<g id="edge56" class="edge"><title>Node20&#45;&gt;Node24</title>
<path fill="none" stroke="midnightblue" d="M189.608,-817.589C211.718,-823.08 239.476,-829.974 262.111,-835.596"/>
<polygon fill="midnightblue" stroke="midnightblue" points="261.564,-839.067 272.112,-838.08 263.251,-832.273 261.564,-839.067"/>
</g>
<!-- Node25 -->
<g id="node54" class="node"><title>Node25</title>
<a xlink:href="../../de/dd1/stopwatch_8c.xhtml#a46f772fa9a20c54fa4e3e0f3d6b3696e" target="_top" xlink:title="num_long_pressed">
<polygon fill="white" stroke="red" points="256,-684.5 256,-703.5 354,-703.5 354,-684.5 256,-684.5"/>
<text text-anchor="middle" x="305" y="-691.5" font-family="Helvetica,sans-Serif" font-size="10.00">num_long_pressed</text>
</a>
</g>
<!-- Node20&#45;&gt;Node25 -->
<g id="edge58" class="edge"><title>Node20&#45;&gt;Node25</title>
<path fill="none" stroke="midnightblue" d="M158.01,-798.445C172.412,-779.468 207.248,-736.812 246,-713 249.357,-710.937 252.963,-709.073 256.674,-707.392"/>
<polygon fill="midnightblue" stroke="midnightblue" points="258.089,-710.595 266.035,-703.587 255.453,-704.111 258.089,-710.595"/>
</g>
<!-- Node26 -->
<g id="node57" class="node"><title>Node26</title>
<a xlink:href="../../de/dd1/stopwatch_8c.xhtml#a7ccfd2ccec37875561ce7daa2e5fd83f" target="_top" xlink:title="stopwatch_activated">
<polygon fill="white" stroke="red" points="251.5,-760.5 251.5,-779.5 358.5,-779.5 358.5,-760.5 251.5,-760.5"/>
<text text-anchor="middle" x="305" y="-767.5" font-family="Helvetica,sans-Serif" font-size="10.00">stopwatch_activated</text>
</a>
</g>
<!-- Node20&#45;&gt;Node26 -->
<g id="edge62" class="edge"><title>Node20&#45;&gt;Node26</title>
<path fill="none" stroke="midnightblue" d="M189.608,-798.411C209.707,-793.419 234.475,-787.268 255.819,-781.967"/>
<polygon fill="midnightblue" stroke="midnightblue" points="256.808,-785.327 265.669,-779.52 255.12,-778.534 256.808,-785.327"/>
</g>
<!-- Node27 -->
<g id="node60" class="node"><title>Node27</title>
<a xlink:href="../../de/dd1/stopwatch_8c.xhtml#acea2628ec4c64a0a845a3c4e48a9714e" target="_top" xlink:title="stopwatch_deactivated">
<polygon fill="white" stroke="red" points="246.5,-798.5 246.5,-817.5 363.5,-817.5 363.5,-798.5 246.5,-798.5"/>
<text text-anchor="middle" x="305" y="-805.5" font-family="Helvetica,sans-Serif" font-size="10.00">stopwatch_deactivated</text>
</a>
</g>
<!-- Node20&#45;&gt;Node27 -->
<g id="edge66" class="edge"><title>Node20&#45;&gt;Node27</title>
<path fill="none" stroke="midnightblue" d="M202.372,-808C213.206,-808 224.797,-808 236.131,-808"/>
<polygon fill="midnightblue" stroke="midnightblue" points="236.439,-811.5 246.439,-808 236.439,-804.5 236.439,-811.5"/>
</g>
<!-- Node25&#45;&gt;Node21 -->
<g id="edge60" class="edge"><title>Node25&#45;&gt;Node21</title>
<path fill="none" stroke="midnightblue" d="M354.137,-688.248C372.337,-686.073 393.149,-683.586 411.789,-681.359"/>
<polygon fill="midnightblue" stroke="midnightblue" points="412.376,-684.813 421.89,-680.151 411.546,-677.863 412.376,-684.813"/>
</g>
<!-- Node26&#45;&gt;Node6 -->
<g id="edge64" class="edge"><title>Node26&#45;&gt;Node6</title>
<path fill="none" stroke="midnightblue" d="M341.416,-779.551C349.058,-782.172 356.954,-785.324 364,-789 395.524,-805.445 427.602,-831.517 446.905,-848.442"/>
<polygon fill="midnightblue" stroke="midnightblue" points="444.799,-851.253 454.592,-855.295 449.456,-846.028 444.799,-851.253"/>
</g>
<!-- Node28&#45;&gt;Node3 -->
<g id="edge70" class="edge"><title>Node28&#45;&gt;Node3</title>
<path fill="none" stroke="midnightblue" d="M154.416,-627.612C163.618,-653.566 189.609,-727.273 210,-789 226.666,-839.451 208.631,-865.229 246,-903 247.665,-904.683 249.481,-906.217 251.41,-907.615"/>
<polygon fill="midnightblue" stroke="midnightblue" points="250.064,-910.883 260.461,-912.916 253.601,-904.842 250.064,-910.883"/>
</g>
<!-- Node29 -->
<g id="node65" class="node"><title>Node29</title>
<a xlink:href="../../dc/da5/music_8c.xhtml#a59733069c598c7864f48ad923cc5ea0d" target="_top" xlink:title="num_press">
<polygon fill="white" stroke="red" points="272.5,-608.5 272.5,-627.5 337.5,-627.5 337.5,-608.5 272.5,-608.5"/>
<text text-anchor="middle" x="305" y="-615.5" font-family="Helvetica,sans-Serif" font-size="10.00">num_press</text>
</a>
</g>
<!-- Node28&#45;&gt;Node29 -->
<g id="edge72" class="edge"><title>Node28&#45;&gt;Node29</title>
<path fill="none" stroke="midnightblue" d="M192.808,-618C214.402,-618 240.675,-618 262.259,-618"/>
<polygon fill="midnightblue" stroke="midnightblue" points="262.438,-621.5 272.437,-618 262.437,-614.5 262.438,-621.5"/>
</g>
<!-- Node30 -->
<g id="node67" class="node"><title>Node30</title>
<a xlink:href="../../dc/da5/music_8c.xhtml#a789c658a4e6425d0eea6501b7182fe85" target="_top" xlink:title="music_activate">
<polygon fill="white" stroke="red" points="263.5,-570.5 263.5,-589.5 346.5,-589.5 346.5,-570.5 263.5,-570.5"/>
<text text-anchor="middle" x="305" y="-577.5" font-family="Helvetica,sans-Serif" font-size="10.00">music_activate</text>
</a>
</g>
<!-- Node28&#45;&gt;Node30 -->
<g id="edge74" class="edge"><title>Node28&#45;&gt;Node30</title>
<path fill="none" stroke="midnightblue" d="M189.608,-608.411C209.707,-603.419 234.475,-597.268 255.819,-591.967"/>
<polygon fill="midnightblue" stroke="midnightblue" points="256.808,-595.327 265.669,-589.52 255.12,-588.534 256.808,-595.327"/>
</g>
<!-- Node31 -->
<g id="node69" class="node"><title>Node31</title>
<a xlink:href="../../dc/da5/music_8c.xhtml#adcfcd0a7c601e51ceb9f0280526f46ca" target="_top" xlink:title="music_deactivate">
<polygon fill="white" stroke="red" points="258.5,-532.5 258.5,-551.5 351.5,-551.5 351.5,-532.5 258.5,-532.5"/>
<text text-anchor="middle" x="305" y="-539.5" font-family="Helvetica,sans-Serif" font-size="10.00">music_deactivate</text>
</a>
</g>
<!-- Node28&#45;&gt;Node31 -->
<g id="edge76" class="edge"><title>Node28&#45;&gt;Node31</title>
<path fill="none" stroke="midnightblue" d="M164.627,-608.482C182.611,-596.241 215.558,-574.906 246,-561 250.699,-558.854 255.711,-556.836 260.747,-554.975"/>
<polygon fill="midnightblue" stroke="midnightblue" points="262.105,-558.208 270.385,-551.599 259.79,-551.602 262.105,-558.208"/>
</g>
<!-- Node32&#45;&gt;Node3 -->
<g id="edge80" class="edge"><title>Node32&#45;&gt;Node3</title>
<path fill="none" stroke="midnightblue" d="M157.474,-494.548C169.974,-513.512 197.318,-557.669 210,-599 229.956,-664.035 202.906,-850.363 246,-903 247.674,-905.045 249.572,-906.871 251.635,-908.503"/>
<polygon fill="midnightblue" stroke="midnightblue" points="249.941,-911.571 260.282,-913.878 253.637,-905.626 249.941,-911.571"/>
</g>
<!-- Node33 -->
<g id="node74" class="node"><title>Node33</title>
<a xlink:href="../../df/dce/alarm_8c.xhtml#ac45981ec8f139799de2761059031da27" target="_top" xlink:title="num_pressed">
<polygon fill="white" stroke="red" points="267.5,-494.5 267.5,-513.5 342.5,-513.5 342.5,-494.5 267.5,-494.5"/>
<text text-anchor="middle" x="305" y="-501.5" font-family="Helvetica,sans-Serif" font-size="10.00">num_pressed</text>
</a>
</g>
<!-- Node32&#45;&gt;Node33 -->
<g id="edge82" class="edge"><title>Node32&#45;&gt;Node33</title>
<path fill="none" stroke="midnightblue" d="M191.6,-490.042C211.837,-492.555 236.409,-495.606 257.411,-498.214"/>
<polygon fill="midnightblue" stroke="midnightblue" points="257.045,-501.696 267.4,-499.455 257.907,-494.749 257.045,-501.696"/>
</g>
<!-- Node34 -->
<g id="node77" class="node"><title>Node34</title>
<a xlink:href="../../df/dce/alarm_8c.xhtml#a98c2f38c8be9842b760af29757d87694" target="_top" xlink:title="star_long_pressed">
<polygon fill="white" stroke="red" points="257,-456.5 257,-475.5 353,-475.5 353,-456.5 257,-456.5"/>
<text text-anchor="middle" x="305" y="-463.5" font-family="Helvetica,sans-Serif" font-size="10.00">star_long_pressed</text>
</a>
</g>
<!-- Node32&#45;&gt;Node34 -->
<g id="edge86" class="edge"><title>Node32&#45;&gt;Node34</title>
<path fill="none" stroke="midnightblue" d="M191.6,-479.958C208.556,-477.853 228.555,-475.369 246.948,-473.085"/>
<polygon fill="midnightblue" stroke="midnightblue" points="247.479,-476.546 256.971,-471.84 246.616,-469.599 247.479,-476.546"/>
</g>
<!-- Node35 -->
<g id="node79" class="node"><title>Node35</title>
<a xlink:href="../../df/dce/alarm_8c.xhtml#a7db846d88e6ebb4e4a72147a623593a5" target="_top" xlink:title="alarm_activated">
<polygon fill="white" stroke="red" points="262,-418.5 262,-437.5 348,-437.5 348,-418.5 262,-418.5"/>
<text text-anchor="middle" x="305" y="-425.5" font-family="Helvetica,sans-Serif" font-size="10.00">alarm_activated</text>
</a>
</g>
<!-- Node32&#45;&gt;Node35 -->
<g id="edge88" class="edge"><title>Node32&#45;&gt;Node35</title>
<path fill="none" stroke="midnightblue" d="M173.878,-475.371C193.023,-467.429 221.124,-456.039 246,-447 251.678,-444.937 257.704,-442.85 263.641,-440.853"/>
<polygon fill="midnightblue" stroke="midnightblue" points="265.08,-444.063 273.472,-437.596 262.878,-437.418 265.08,-444.063"/>
</g>
<!-- Node36 -->
<g id="node81" class="node"><title>Node36</title>
<a xlink:href="../../df/dce/alarm_8c.xhtml#a392283ff1f270ab3890e54f026d0800f" target="_top" xlink:title="alarm_deactivated">
<polygon fill="white" stroke="red" points="257,-380.5 257,-399.5 353,-399.5 353,-380.5 257,-380.5"/>
<text text-anchor="middle" x="305" y="-387.5" font-family="Helvetica,sans-Serif" font-size="10.00">alarm_deactivated</text>
</a>
</g>
<!-- Node32&#45;&gt;Node36 -->
<g id="edge90" class="edge"><title>Node32&#45;&gt;Node36</title>
<path fill="none" stroke="midnightblue" d="M160.673,-475.251C176.951,-459.338 211.442,-427.685 246,-409 249.988,-406.844 254.262,-404.878 258.616,-403.099"/>
<polygon fill="midnightblue" stroke="midnightblue" points="260.065,-406.293 268.196,-399.5 257.604,-399.74 260.065,-406.293"/>
</g>
<!-- Node33&#45;&gt;Node6 -->
<g id="edge84" class="edge"><title>Node33&#45;&gt;Node6</title>
<path fill="none" stroke="midnightblue" d="M342.524,-509.643C350.556,-512.466 358.342,-516.688 364,-523 415.843,-580.83 378.136,-619.475 400,-694 416.548,-750.403 443.142,-814.629 456.608,-845.886"/>
<polygon fill="midnightblue" stroke="midnightblue" points="453.443,-847.386 460.638,-855.163 459.864,-844.597 453.443,-847.386"/>
</g>
<!-- Node37&#45;&gt;Node3 -->
<g id="edge100" class="edge"><title>Node37&#45;&gt;Node3</title>
<path fill="none" stroke="midnightblue" d="M154.518,-266.846C164.949,-296.496 195.862,-387.713 210,-466 227.317,-561.889 185.628,-826.516 246,-903 247.666,-905.11 249.571,-906.989 251.653,-908.661"/>
<polygon fill="midnightblue" stroke="midnightblue" points="250.081,-911.807 260.416,-914.141 253.793,-905.872 250.081,-911.807"/>
</g>
<!-- Node37&#45;&gt;Node6 -->
<g id="edge94" class="edge"><title>Node37&#45;&gt;Node6</title>
<path fill="none" stroke="midnightblue" d="M160.402,-266.512C176.555,-282.368 211.209,-314.302 246,-333 294.532,-359.083 329.137,-328.336 364,-371 409.7,-426.925 383.034,-623.799 400,-694 413.808,-751.136 441.624,-815.035 455.977,-846.055"/>
<polygon fill="midnightblue" stroke="midnightblue" points="452.876,-847.686 460.289,-855.257 459.215,-844.716 452.876,-847.686"/>
</g>
<!-- Node38 -->
<g id="node86" class="node"><title>Node38</title>
<a xlink:href="../../db/d52/tide_8c.xhtml#a9a6d13b57c7a29f41ed8638808991094" target="_top" xlink:title="minuteTick">
<polygon fill="white" stroke="red" points="272.5,-114.5 272.5,-133.5 337.5,-133.5 337.5,-114.5 272.5,-114.5"/>
<text text-anchor="middle" x="305" y="-121.5" font-family="Helvetica,sans-Serif" font-size="10.00">minuteTick</text>
</a>
</g>
<!-- Node37&#45;&gt;Node38 -->
<g id="edge96" class="edge"><title>Node37&#45;&gt;Node38</title>
<path fill="none" stroke="midnightblue" d="M156.529,-247.175C169.365,-225.24 203.367,-171.937 246,-143 251.055,-139.569 256.775,-136.72 262.604,-134.364"/>
<polygon fill="midnightblue" stroke="midnightblue" points="264.183,-137.516 272.419,-130.851 261.824,-130.926 264.183,-137.516"/>
</g>
<!-- Node39 -->
<g id="node88" class="node"><title>Node39</title>
<a xlink:href="../../db/d52/tide_8c.xhtml#aa8fd833b89760ca87a163163aae14187" target="_top" xlink:title="timeFromMinutes">
<polygon fill="white" stroke="black" points="420,-190.5 420,-209.5 512,-209.5 512,-190.5 420,-190.5"/>
<text text-anchor="middle" x="466" y="-197.5" font-family="Helvetica,sans-Serif" font-size="10.00">timeFromMinutes</text>
</a>
</g>
<!-- Node37&#45;&gt;Node39 -->
<g id="edge114" class="edge"><title>Node37&#45;&gt;Node39</title>
<path fill="none" stroke="midnightblue" d="M170.102,-247.413C188.907,-238.448 218.695,-225.495 246,-219 300.767,-205.973 365.131,-201.65 409.849,-200.326"/>
<polygon fill="midnightblue" stroke="midnightblue" points="410.02,-203.823 419.928,-200.068 409.842,-196.825 410.02,-203.823"/>
</g>
<!-- Node40 -->
<g id="node91" class="node"><title>Node40</title>
<a xlink:href="../../db/d52/tide_8c.xhtml#a637bd2a826f81571d1f05c71e381da64" target="_top" xlink:title="buttonUp">
<polygon fill="white" stroke="red" points="277,-152.5 277,-171.5 333,-171.5 333,-152.5 277,-152.5"/>
<text text-anchor="middle" x="305" y="-159.5" font-family="Helvetica,sans-Serif" font-size="10.00">buttonUp</text>
</a>
</g>
<!-- Node37&#45;&gt;Node40 -->
<g id="edge102" class="edge"><title>Node37&#45;&gt;Node40</title>
<path fill="none" stroke="midnightblue" d="M162.059,-247.276C179.151,-232.596 213.425,-204.525 246,-186 252.708,-182.185 260.143,-178.645 267.389,-175.518"/>
<polygon fill="midnightblue" stroke="midnightblue" points="269.158,-178.575 277.067,-171.525 266.488,-172.104 269.158,-178.575"/>
</g>
<!-- Node41 -->
<g id="node93" class="node"><title>Node41</title>
<a xlink:href="../../db/d52/tide_8c.xhtml#a9048643f43ed021401a1a507d45ec756" target="_top" xlink:title="buttonDown">
<polygon fill="white" stroke="red" points="270.5,-76.5 270.5,-95.5 339.5,-95.5 339.5,-76.5 270.5,-76.5"/>
<text text-anchor="middle" x="305" y="-83.5" font-family="Helvetica,sans-Serif" font-size="10.00">buttonDown</text>
</a>
</g>
<!-- Node37&#45;&gt;Node41 -->
<g id="edge104" class="edge"><title>Node37&#45;&gt;Node41</title>
<path fill="none" stroke="midnightblue" d="M155.932,-247.305C171.468,-217.091 219.908,-125.434 246,-105 250.432,-101.529 255.522,-98.6808 260.806,-96.3458"/>
<polygon fill="midnightblue" stroke="midnightblue" points="262.333,-99.5094 270.428,-92.6738 259.837,-92.9695 262.333,-99.5094"/>
</g>
<!-- Node42 -->
<g id="node95" class="node"><title>Node42</title>
<a xlink:href="../../db/d52/tide_8c.xhtml#a26236c0c913b82ade8f8b94159cf2761" target="_top" xlink:title="longStarButton">
<polygon fill="white" stroke="red" points="264.5,-228.5 264.5,-247.5 345.5,-247.5 345.5,-228.5 264.5,-228.5"/>
<text text-anchor="middle" x="305" y="-235.5" font-family="Helvetica,sans-Serif" font-size="10.00">longStarButton</text>
</a>
</g>
<!-- Node37&#45;&gt;Node42 -->
<g id="edge106" class="edge"><title>Node37&#45;&gt;Node42</title>
<path fill="none" stroke="midnightblue" d="M187.259,-252.497C207.246,-250.015 232.356,-246.897 254.162,-244.189"/>
<polygon fill="midnightblue" stroke="midnightblue" points="254.749,-247.643 264.241,-242.937 253.886,-240.697 254.749,-247.643"/>
</g>
<!-- Node43 -->
<g id="node98" class="node"><title>Node43</title>
<a xlink:href="../../db/d52/tide_8c.xhtml#a94cf1888e4c44d0e5ff68b1e81f2b08d" target="_top" xlink:title="activate">
<polygon fill="white" stroke="red" points="279.5,-304.5 279.5,-323.5 330.5,-323.5 330.5,-304.5 279.5,-304.5"/>
<text text-anchor="middle" x="305" y="-311.5" font-family="Helvetica,sans-Serif" font-size="10.00">activate</text>
</a>
</g>
<!-- Node37&#45;&gt;Node43 -->
<g id="edge110" class="edge"><title>Node37&#45;&gt;Node43</title>
<path fill="none" stroke="midnightblue" d="M173.878,-266.629C193.023,-274.571 221.124,-285.961 246,-295 253.633,-297.773 261.893,-300.589 269.722,-303.173"/>
<polygon fill="midnightblue" stroke="midnightblue" points="268.736,-306.533 279.328,-306.302 270.904,-299.877 268.736,-306.533"/>
</g>
<!-- Node44 -->
<g id="node100" class="node"><title>Node44</title>
<a xlink:href="../../db/d52/tide_8c.xhtml#aa5ff3907e5d36703b805ea8b4c3452eb" target="_top" xlink:title="deactivate">
<polygon fill="white" stroke="red" points="274,-266.5 274,-285.5 336,-285.5 336,-266.5 274,-266.5"/>
<text text-anchor="middle" x="305" y="-273.5" font-family="Helvetica,sans-Serif" font-size="10.00">deactivate</text>
</a>
</g>
<!-- Node37&#45;&gt;Node44 -->
<g id="edge112" class="edge"><title>Node37&#45;&gt;Node44</title>
<path fill="none" stroke="midnightblue" d="M187.259,-261.503C210.198,-264.351 239.885,-268.038 263.581,-270.981"/>
<polygon fill="midnightblue" stroke="midnightblue" points="263.311,-274.474 273.666,-272.233 264.174,-267.527 263.311,-274.474"/>
</g>
<!-- Node38&#45;&gt;Node39 -->
<g id="edge98" class="edge"><title>Node38&#45;&gt;Node39</title>
<path fill="none" stroke="midnightblue" d="M337.73,-133.145C346.38,-135.974 355.662,-139.324 364,-143 391.516,-155.129 421.301,-172.506 441.344,-184.879"/>
<polygon fill="midnightblue" stroke="midnightblue" points="439.75,-188.01 450.085,-190.341 443.459,-182.074 439.75,-188.01"/>
</g>
<!-- Node42&#45;&gt;Node39 -->
<g id="edge108" class="edge"><title>Node42&#45;&gt;Node39</title>
<path fill="none" stroke="midnightblue" d="M345.712,-228.509C366.77,-223.476 392.847,-217.244 415.243,-211.892"/>
<polygon fill="midnightblue" stroke="midnightblue" points="416.33,-215.23 425.243,-209.502 414.703,-208.422 416.33,-215.23"/>
</g>
<!-- Node45&#45;&gt;Node3 -->
<g id="edge118" class="edge"><title>Node45&#45;&gt;Node3</title>
<path fill="none" stroke="midnightblue" d="M157.908,-133.774C170.904,-152.78 198.701,-196.5 210,-238 229.44,-309.398 200.974,-844.279 246,-903 247.636,-905.134 249.518,-907.031 251.58,-908.718"/>
<polygon fill="midnightblue" stroke="midnightblue" points="249.973,-911.843 260.294,-914.236 253.718,-905.929 249.973,-911.843"/>
</g>
<!-- Node46 -->
<g id="node106" class="node"><title>Node46</title>
<a xlink:href="../../d1/dc6/rfbsl_8c.xhtml#adb663cb716f8d414ee1b7a54556f52ae" target="_top" xlink:title="updown_press">
<polygon fill="white" stroke="red" points="265,-38.5 265,-57.5 345,-57.5 345,-38.5 265,-38.5"/>
<text text-anchor="middle" x="305" y="-45.5" font-family="Helvetica,sans-Serif" font-size="10.00">updown_press</text>
</a>
</g>
<!-- Node45&#45;&gt;Node46 -->
<g id="edge120" class="edge"><title>Node45&#45;&gt;Node46</title>
<path fill="none" stroke="midnightblue" d="M164.627,-114.482C182.611,-102.241 215.558,-80.9057 246,-67 250.699,-64.8537 255.711,-62.8359 260.747,-60.9753"/>
<polygon fill="midnightblue" stroke="midnightblue" points="262.105,-64.2084 270.385,-57.599 259.79,-57.602 262.105,-64.2084"/>
</g>
<!-- Node47 -->
<g id="node108" class="node"><title>Node47</title>
<a xlink:href="../../d1/dc6/rfbsl_8c.xhtml#a9878554343e51488c9a876dda4be7770" target="_top" xlink:title="rfbsl_activate">
<polygon fill="white" stroke="red" points="267.5,-0.5 267.5,-19.5 342.5,-19.5 342.5,-0.5 267.5,-0.5"/>
<text text-anchor="middle" x="305" y="-7.5" font-family="Helvetica,sans-Serif" font-size="10.00">rfbsl_activate</text>
</a>
</g>
<!-- Node45&#45;&gt;Node47 -->
<g id="edge122" class="edge"><title>Node45&#45;&gt;Node47</title>
<path fill="none" stroke="midnightblue" d="M158.01,-114.445C172.412,-95.4682 207.248,-52.8116 246,-29 249.656,-26.7534 253.607,-24.742 257.668,-22.9478"/>
<polygon fill="midnightblue" stroke="midnightblue" points="259.251,-26.0857 267.257,-19.1466 256.671,-19.5783 259.251,-26.0857"/>
</g>
<!-- Node48&#45;&gt;Node3 -->
<g id="edge126" class="edge"><title>Node48&#45;&gt;Node3</title>
<path fill="none" stroke="midnightblue" d="M205.373,-922C219.887,-922 235.564,-922 250.056,-922"/>
<polygon fill="midnightblue" stroke="midnightblue" points="250.364,-925.5 260.364,-922 250.364,-918.5 250.364,-925.5"/>
</g>
<!-- Node49&#45;&gt;Node3 -->
<g id="edge130" class="edge"><title>Node49&#45;&gt;Node3</title>
<path fill="none" stroke="midnightblue" d="M186.101,-892.718C206.774,-897.852 233.219,-904.421 255.823,-910.035"/>
<polygon fill="midnightblue" stroke="midnightblue" points="255.026,-913.443 265.574,-912.456 256.713,-906.649 255.026,-913.443"/>
</g>
<!-- Node50&#45;&gt;Node3 -->
<g id="edge134" class="edge"><title>Node50&#45;&gt;Node3</title>
<path fill="none" stroke="midnightblue" d="M190.326,-855.608C197.157,-858.119 203.99,-861.215 210,-865 229.686,-877.397 226.345,-890.554 246,-903 249.186,-905.018 252.608,-906.842 256.138,-908.487"/>
<polygon fill="midnightblue" stroke="midnightblue" points="255.069,-911.832 265.647,-912.434 257.752,-905.367 255.069,-911.832"/>
</g>
</g>
</svg>
