<?xml version="1.0" encoding="UTF-8" standalone="no"?>
<!DOCTYPE svg PUBLIC "-//W3C//DTD SVG 1.1//EN"
 "http://www.w3.org/Graphics/SVG/1.1/DTD/svg11.dtd">
<!-- Generated by graphviz version 2.28.0 (20121221.0049)
 -->
<!-- Title: drivers/rtca.c Pages: 1 -->
<svg width="234pt" height="196pt"
 viewBox="0.00 0.00 234.00 196.00" xmlns="http://www.w3.org/2000/svg" xmlns:xlink="http://www.w3.org/1999/xlink">
<g id="graph1" class="graph" transform="scale(1 1) rotate(0) translate(4 192)">
<title>drivers/rtca.c</title>
<polygon fill="white" stroke="white" points="-4,5 -4,-192 231,-192 231,5 -4,5"/>
<!-- Node1 -->
<g id="node1" class="node"><title>Node1</title>
<polygon fill="#bfbfbf" stroke="black" points="48,-168.5 48,-187.5 122,-187.5 122,-168.5 48,-168.5"/>
<text text-anchor="middle" x="85" y="-175.5" font-family="Helvetica,sans-Serif" font-size="10.00">drivers/rtca.c</text>
</g>
<!-- Node2 -->
<g id="node3" class="node"><title>Node2</title>
<a xlink:href="../../dc/d6b/rtca_8h.xhtml" target="_top" xlink:title="rtca.h">
<polygon fill="white" stroke="black" points="64.5,-112.5 64.5,-131.5 105.5,-131.5 105.5,-112.5 64.5,-112.5"/>
<text text-anchor="middle" x="85" y="-119.5" font-family="Helvetica,sans-Serif" font-size="10.00">rtca.h</text>
</a>
</g>
<!-- Node1&#45;&gt;Node2 -->
<g id="edge2" class="edge"><title>Node1&#45;&gt;Node2</title>
<path fill="none" stroke="midnightblue" d="M85,-168.083C85,-161.006 85,-150.861 85,-141.986"/>
<polygon fill="midnightblue" stroke="midnightblue" points="88.5001,-141.751 85,-131.751 81.5001,-141.751 88.5001,-141.751"/>
</g>
<!-- Node4 -->
<g id="node7" class="node"><title>Node4</title>
<polygon fill="white" stroke="#bfbfbf" points="0,-0.5 0,-19.5 48,-19.5 48,-0.5 0,-0.5"/>
<text text-anchor="middle" x="24" y="-7.5" font-family="Helvetica,sans-Serif" font-size="10.00">stdlib.h</text>
</g>
<!-- Node1&#45;&gt;Node4 -->
<g id="edge14" class="edge"><title>Node1&#45;&gt;Node4</title>
<path fill="none" stroke="midnightblue" d="M77.8653,-168.208C71.1094,-159.49 61.115,-145.516 55,-132 39.4127,-97.5463 30.6767,-53.8859 26.6907,-29.5486"/>
<polygon fill="midnightblue" stroke="midnightblue" points="30.1322,-28.901 25.1459,-19.5529 23.2144,-29.9701 30.1322,-28.901"/>
</g>
<!-- Node7 -->
<g id="node13" class="node"><title>Node7</title>
<a xlink:href="../../d6/d5d/rtca__now_8h.xhtml" target="_top" xlink:title="config/rtca_now.h">
<polygon fill="white" stroke="black" points="124,-112.5 124,-131.5 218,-131.5 218,-112.5 124,-112.5"/>
<text text-anchor="middle" x="171" y="-119.5" font-family="Helvetica,sans-Serif" font-size="10.00">config/rtca_now.h</text>
</a>
</g>
<!-- Node1&#45;&gt;Node7 -->
<g id="edge12" class="edge"><title>Node1&#45;&gt;Node7</title>
<path fill="none" stroke="midnightblue" d="M98.8174,-168.324C112.233,-159.9 132.824,-146.971 148.586,-137.074"/>
<polygon fill="midnightblue" stroke="midnightblue" points="150.609,-139.936 157.217,-131.655 146.887,-134.008 150.609,-139.936"/>
</g>
<!-- Node3 -->
<g id="node5" class="node"><title>Node3</title>
<a xlink:href="../../d9/d95/openchronos_8h.xhtml" target="_top" xlink:title="Main include file.">
<polygon fill="white" stroke="black" points="49,-56.5 49,-75.5 151,-75.5 151,-56.5 49,-56.5"/>
<text text-anchor="middle" x="100" y="-63.5" font-family="Helvetica,sans-Serif" font-size="10.00">core/openchronos.h</text>
</a>
</g>
<!-- Node2&#45;&gt;Node3 -->
<g id="edge4" class="edge"><title>Node2&#45;&gt;Node3</title>
<path fill="none" stroke="midnightblue" d="M87.4769,-112.083C89.4865,-104.849 92.3865,-94.4087 94.8898,-85.3968"/>
<polygon fill="midnightblue" stroke="midnightblue" points="98.2649,-86.323 97.5691,-75.7511 91.5203,-84.4495 98.2649,-86.323"/>
</g>
<!-- Node3&#45;&gt;Node4 -->
<g id="edge6" class="edge"><title>Node3&#45;&gt;Node4</title>
<path fill="none" stroke="midnightblue" d="M87.7893,-56.324C76.2241,-48.1066 58.6246,-35.6017 44.8393,-25.8069"/>
<polygon fill="midnightblue" stroke="midnightblue" points="46.612,-22.7729 36.4329,-19.8339 42.5575,-28.4791 46.612,-22.7729"/>
</g>
<!-- Node5 -->
<g id="node9" class="node"><title>Node5</title>
<polygon fill="white" stroke="#bfbfbf" points="68.5,-0.5 68.5,-19.5 127.5,-19.5 127.5,-0.5 68.5,-0.5"/>
<text text-anchor="middle" x="98" y="-7.5" font-family="Helvetica,sans-Serif" font-size="10.00">msp430.h</text>
</g>
<!-- Node3&#45;&gt;Node5 -->
<g id="edge8" class="edge"><title>Node3&#45;&gt;Node5</title>
<path fill="none" stroke="midnightblue" d="M99.6697,-56.083C99.4076,-49.0059 99.0319,-38.8611 98.7032,-29.9865"/>
<polygon fill="midnightblue" stroke="midnightblue" points="102.192,-29.6147 98.3241,-19.7511 95.1967,-29.8738 102.192,-29.6147"/>
</g>
<!-- Node6 -->
<g id="node11" class="node"><title>Node6</title>
<a xlink:href="../../db/d16/config_8h.xhtml" target="_top" xlink:title="config/config.h">
<polygon fill="white" stroke="black" points="146,-0.5 146,-19.5 226,-19.5 226,-0.5 146,-0.5"/>
<text text-anchor="middle" x="186" y="-7.5" font-family="Helvetica,sans-Serif" font-size="10.00">config/config.h</text>
</a>
</g>
<!-- Node3&#45;&gt;Node6 -->
<g id="edge10" class="edge"><title>Node3&#45;&gt;Node6</title>
<path fill="none" stroke="midnightblue" d="M113.817,-56.324C127.233,-47.9002 147.824,-34.9709 163.586,-25.0741"/>
<polygon fill="midnightblue" stroke="midnightblue" points="165.609,-27.9364 172.217,-19.6545 161.887,-22.0081 165.609,-27.9364"/>
</g>
</g>
</svg>
