<?xml version="1.0" encoding="UTF-8" standalone="no"?>
<!DOCTYPE svg PUBLIC "-//W3C//DTD SVG 1.1//EN"
 "http://www.w3.org/Graphics/SVG/1.1/DTD/svg11.dtd">
<!-- Generated by graphviz version 2.28.0 (20121221.0049)
 -->
<!-- Title: modules/otp.c Pages: 1 -->
<svg width="269pt" height="196pt"
 viewBox="0.00 0.00 269.19 196.00" xmlns="http://www.w3.org/2000/svg" xmlns:xlink="http://www.w3.org/1999/xlink">
<g id="graph1" class="graph" transform="scale(1 1) rotate(0) translate(4 192)">
<title>modules/otp.c</title>
<polygon fill="white" stroke="white" points="-4,5 -4,-192 266.188,-192 266.188,5 -4,5"/>
<!-- Node1 -->
<g id="node1" class="node"><title>Node1</title>
<polygon fill="#bfbfbf" stroke="black" points="39.1884,-168.5 39.1884,-187.5 117.188,-187.5 117.188,-168.5 39.1884,-168.5"/>
<text text-anchor="middle" x="78.1884" y="-175.5" font-family="Helvetica,sans-Serif" font-size="10.00">modules/otp.c</text>
</g>
<!-- Node2 -->
<g id="node3" class="node"><title>Node2</title>
<a xlink:href="../../d9/d95/openchronos_8h.xhtml" target="_top" xlink:title="Main include file.">
<polygon fill="white" stroke="black" points="67.1884,-56.5 67.1884,-75.5 169.188,-75.5 169.188,-56.5 67.1884,-56.5"/>
<text text-anchor="middle" x="118.188" y="-63.5" font-family="Helvetica,sans-Serif" font-size="10.00">core/openchronos.h</text>
</a>
</g>
<!-- Node1&#45;&gt;Node2 -->
<g id="edge2" class="edge"><title>Node1&#45;&gt;Node2</title>
<path fill="none" stroke="midnightblue" d="M54.1713,-168.452C26.7361,-157.3 -12.3558,-136.317 4.18837,-112 16.4325,-94.0033 37.095,-83.2039 57.4926,-76.7235"/>
<polygon fill="midnightblue" stroke="midnightblue" points="58.4827,-80.0807 67.1293,-73.9582 56.5518,-73.3523 58.4827,-80.0807"/>
</g>
<!-- Node6 -->
<g id="node11" class="node"><title>Node6</title>
<polygon fill="white" stroke="#bfbfbf" points="13.6884,-112.5 13.6884,-131.5 62.6884,-131.5 62.6884,-112.5 13.6884,-112.5"/>
<text text-anchor="middle" x="38.1884" y="-119.5" font-family="Helvetica,sans-Serif" font-size="10.00">string.h</text>
</g>
<!-- Node1&#45;&gt;Node6 -->
<g id="edge10" class="edge"><title>Node1&#45;&gt;Node6</title>
<path fill="none" stroke="midnightblue" d="M71.5832,-168.083C65.9331,-160.455 57.6435,-149.264 50.7371,-139.941"/>
<polygon fill="midnightblue" stroke="midnightblue" points="53.4354,-137.703 44.6706,-131.751 47.8105,-141.87 53.4354,-137.703"/>
</g>
<!-- Node7 -->
<g id="node13" class="node"><title>Node7</title>
<a xlink:href="../../dc/d6b/rtca_8h.xhtml" target="_top" xlink:title="drivers/rtca.h">
<polygon fill="white" stroke="black" points="81.1884,-112.5 81.1884,-131.5 155.188,-131.5 155.188,-112.5 81.1884,-112.5"/>
<text text-anchor="middle" x="118.188" y="-119.5" font-family="Helvetica,sans-Serif" font-size="10.00">drivers/rtca.h</text>
</a>
</g>
<!-- Node1&#45;&gt;Node7 -->
<g id="edge12" class="edge"><title>Node1&#45;&gt;Node7</title>
<path fill="none" stroke="midnightblue" d="M84.7936,-168.083C90.4436,-160.455 98.7332,-149.264 105.64,-139.941"/>
<polygon fill="midnightblue" stroke="midnightblue" points="108.566,-141.87 111.706,-131.751 102.941,-137.703 108.566,-141.87"/>
</g>
<!-- Node8 -->
<g id="node16" class="node"><title>Node8</title>
<a xlink:href="../../d4/d68/display_8h.xhtml" target="_top" xlink:title="Display driver.">
<polygon fill="white" stroke="black" points="173.188,-112.5 173.188,-131.5 261.188,-131.5 261.188,-112.5 173.188,-112.5"/>
<text text-anchor="middle" x="217.188" y="-119.5" font-family="Helvetica,sans-Serif" font-size="10.00">drivers/display.h</text>
</a>
</g>
<!-- Node1&#45;&gt;Node8 -->
<g id="edge16" class="edge"><title>Node1&#45;&gt;Node8</title>
<path fill="none" stroke="midnightblue" d="M100.213,-168.444C123.292,-159.478 159.75,-145.314 185.829,-135.183"/>
<polygon fill="midnightblue" stroke="midnightblue" points="187.213,-138.4 195.266,-131.516 184.678,-131.875 187.213,-138.4"/>
</g>
<!-- Node3 -->
<g id="node5" class="node"><title>Node3</title>
<polygon fill="white" stroke="#bfbfbf" points="22.1884,-0.5 22.1884,-19.5 70.1884,-19.5 70.1884,-0.5 22.1884,-0.5"/>
<text text-anchor="middle" x="46.1884" y="-7.5" font-family="Helvetica,sans-Serif" font-size="10.00">stdlib.h</text>
</g>
<!-- Node2&#45;&gt;Node3 -->
<g id="edge4" class="edge"><title>Node2&#45;&gt;Node3</title>
<path fill="none" stroke="midnightblue" d="M106.62,-56.324C95.7682,-48.1849 79.3077,-35.8395 66.305,-26.0874"/>
<polygon fill="midnightblue" stroke="midnightblue" points="68.0669,-23.0339 57.9669,-19.8339 63.8669,-28.6339 68.0669,-23.0339"/>
</g>
<!-- Node4 -->
<g id="node7" class="node"><title>Node4</title>
<polygon fill="white" stroke="#bfbfbf" points="88.6884,-0.5 88.6884,-19.5 147.688,-19.5 147.688,-0.5 88.6884,-0.5"/>
<text text-anchor="middle" x="118.188" y="-7.5" font-family="Helvetica,sans-Serif" font-size="10.00">msp430.h</text>
</g>
<!-- Node2&#45;&gt;Node4 -->
<g id="edge6" class="edge"><title>Node2&#45;&gt;Node4</title>
<path fill="none" stroke="midnightblue" d="M118.188,-56.083C118.188,-49.0059 118.188,-38.8611 118.188,-29.9865"/>
<polygon fill="midnightblue" stroke="midnightblue" points="121.688,-29.751 118.188,-19.7511 114.688,-29.7511 121.688,-29.751"/>
</g>
<!-- Node5 -->
<g id="node9" class="node"><title>Node5</title>
<a xlink:href="../../db/d16/config_8h.xhtml" target="_top" xlink:title="config/config.h">
<polygon fill="white" stroke="black" points="166.188,-0.5 166.188,-19.5 246.188,-19.5 246.188,-0.5 166.188,-0.5"/>
<text text-anchor="middle" x="206.188" y="-7.5" font-family="Helvetica,sans-Serif" font-size="10.00">config/config.h</text>
</a>
</g>
<!-- Node2&#45;&gt;Node5 -->
<g id="edge8" class="edge"><title>Node2&#45;&gt;Node5</title>
<path fill="none" stroke="midnightblue" d="M132.327,-56.324C146.055,-47.9002 167.125,-34.9709 183.253,-25.0741"/>
<polygon fill="midnightblue" stroke="midnightblue" points="185.392,-27.8678 192.085,-19.6545 181.731,-21.9016 185.392,-27.8678"/>
</g>
<!-- Node7&#45;&gt;Node2 -->
<g id="edge14" class="edge"><title>Node7&#45;&gt;Node2</title>
<path fill="none" stroke="midnightblue" d="M118.188,-112.083C118.188,-105.006 118.188,-94.8611 118.188,-85.9865"/>
<polygon fill="midnightblue" stroke="midnightblue" points="121.688,-85.751 118.188,-75.7511 114.688,-85.7511 121.688,-85.751"/>
</g>
<!-- Node8&#45;&gt;Node2 -->
<g id="edge18" class="edge"><title>Node8&#45;&gt;Node2</title>
<path fill="none" stroke="midnightblue" d="M201.282,-112.324C185.55,-103.743 161.246,-90.486 142.979,-80.5224"/>
<polygon fill="midnightblue" stroke="midnightblue" points="144.51,-77.3704 134.055,-75.6545 141.158,-83.5157 144.51,-77.3704"/>
</g>
</g>
</svg>
