<?xml version="1.0" encoding="UTF-8" standalone="no"?>
<!DOCTYPE svg PUBLIC "-//W3C//DTD SVG 1.1//EN"
 "http://www.w3.org/Graphics/SVG/1.1/DTD/svg11.dtd">
<!-- Generated by graphviz version 2.28.0 (20121221.0049)
 -->
<!-- Title: drivers/vti_as.h Pages: 1 -->
<svg width="356pt" height="84pt"
 viewBox="0.00 0.00 356.00 84.00" xmlns="http://www.w3.org/2000/svg" xmlns:xlink="http://www.w3.org/1999/xlink">
<g id="graph1" class="graph" transform="scale(1 1) rotate(0) translate(4 80)">
<title>drivers/vti_as.h</title>
<polygon fill="white" stroke="white" points="-4,5 -4,-80 353,-80 353,5 -4,5"/>
<!-- Node1 -->
<g id="node1" class="node"><title>Node1</title>
<polygon fill="#bfbfbf" stroke="black" points="120.5,-56.5 120.5,-75.5 203.5,-75.5 203.5,-56.5 120.5,-56.5"/>
<text text-anchor="middle" x="162" y="-63.5" font-family="Helvetica,sans-Serif" font-size="10.00">drivers/vti_as.h</text>
</g>
<!-- Node2 -->
<g id="node3" class="node"><title>Node2</title>
<a xlink:href="../../d2/df2/openchronos_8c.xhtml" target="_top" xlink:title="Main loop &amp; user interface.">
<polygon fill="white" stroke="black" points="0,-0.5 0,-19.5 102,-19.5 102,-0.5 0,-0.5"/>
<text text-anchor="middle" x="51" y="-7.5" font-family="Helvetica,sans-Serif" font-size="10.00">core/openchronos.c</text>
</a>
</g>
<!-- Node1&#45;&gt;Node2 -->
<g id="edge2" class="edge"><title>Node1&#45;&gt;Node2</title>
<path fill="none" stroke="midnightblue" d="M134.995,-51.8622C114.412,-41.8492 86.6553,-28.3458 68.7898,-19.6545"/>
<polygon fill="midnightblue" stroke="midnightblue" points="133.642,-55.0966 144.166,-56.324 136.705,-48.8019 133.642,-55.0966"/>
</g>
<!-- Node3 -->
<g id="node5" class="node"><title>Node3</title>
<a xlink:href="../../d9/dc8/vti__as_8c.xhtml" target="_top" xlink:title="drivers/vti_as.c">
<polygon fill="white" stroke="black" points="120.5,-0.5 120.5,-19.5 203.5,-19.5 203.5,-0.5 120.5,-0.5"/>
<text text-anchor="middle" x="162" y="-7.5" font-family="Helvetica,sans-Serif" font-size="10.00">drivers/vti_as.c</text>
</a>
</g>
<!-- Node1&#45;&gt;Node3 -->
<g id="edge4" class="edge"><title>Node1&#45;&gt;Node3</title>
<path fill="none" stroke="midnightblue" d="M162,-45.8045C162,-36.9102 162,-26.7798 162,-19.7511"/>
<polygon fill="midnightblue" stroke="midnightblue" points="158.5,-46.083 162,-56.083 165.5,-46.083 158.5,-46.083"/>
</g>
<!-- Node4 -->
<g id="node7" class="node"><title>Node4</title>
<a xlink:href="../../d1/d2d/accelerometer_8c.xhtml" target="_top" xlink:title="modules/accelerometer.c">
<polygon fill="white" stroke="black" points="222,-0.5 222,-19.5 348,-19.5 348,-0.5 222,-0.5"/>
<text text-anchor="middle" x="285" y="-7.5" font-family="Helvetica,sans-Serif" font-size="10.00">modules/accelerometer.c</text>
</a>
</g>
<!-- Node1&#45;&gt;Node4 -->
<g id="edge6" class="edge"><title>Node1&#45;&gt;Node4</title>
<path fill="none" stroke="midnightblue" d="M190.773,-52.3678C213.807,-42.2553 245.484,-28.3486 265.601,-19.5164"/>
<polygon fill="midnightblue" stroke="midnightblue" points="189.239,-49.2188 181.49,-56.4435 192.053,-55.6283 189.239,-49.2188"/>
</g>
</g>
</svg>
