<?xml version="1.0" encoding="UTF-8" standalone="no"?>
<!DOCTYPE svg PUBLIC "-//W3C//DTD SVG 1.1//EN"
 "http://www.w3.org/Graphics/SVG/1.1/DTD/svg11.dtd">
<!-- Generated by graphviz version 2.28.0 (20121221.0049)
 -->
<!-- Title: drivers/pmm.h Pages: 1 -->
<svg width="206pt" height="84pt"
 viewBox="0.00 0.00 206.00 84.00" xmlns="http://www.w3.org/2000/svg" xmlns:xlink="http://www.w3.org/1999/xlink">
<g id="graph1" class="graph" transform="scale(1 1) rotate(0) translate(4 80)">
<title>drivers/pmm.h</title>
<polygon fill="white" stroke="white" points="-4,5 -4,-80 203,-80 203,5 -4,5"/>
<!-- Node1 -->
<g id="node1" class="node"><title>Node1</title>
<polygon fill="#bfbfbf" stroke="black" points="65.5,-56.5 65.5,-75.5 144.5,-75.5 144.5,-56.5 65.5,-56.5"/>
<text text-anchor="middle" x="105" y="-63.5" font-family="Helvetica,sans-Serif" font-size="10.00">drivers/pmm.h</text>
</g>
<!-- Node2 -->
<g id="node3" class="node"><title>Node2</title>
<a xlink:href="../../d2/df2/openchronos_8c.xhtml" target="_top" xlink:title="Main loop &amp; user interface.">
<polygon fill="white" stroke="black" points="0,-0.5 0,-19.5 102,-19.5 102,-0.5 0,-0.5"/>
<text text-anchor="middle" x="51" y="-7.5" font-family="Helvetica,sans-Serif" font-size="10.00">core/openchronos.c</text>
</a>
</g>
<!-- Node1&#45;&gt;Node2 -->
<g id="edge2" class="edge"><title>Node1&#45;&gt;Node2</title>
<path fill="none" stroke="midnightblue" d="M89.0024,-49.0024C79.4329,-39.4329 67.6389,-27.6389 59.7511,-19.7511"/>
<polygon fill="midnightblue" stroke="midnightblue" points="86.537,-51.4868 96.083,-56.083 91.4868,-46.537 86.537,-51.4868"/>
</g>
<!-- Node3 -->
<g id="node5" class="node"><title>Node3</title>
<a xlink:href="../../d7/ddc/pmm_8c.xhtml" target="_top" xlink:title="drivers/pmm.c">
<polygon fill="white" stroke="black" points="119.5,-0.5 119.5,-19.5 198.5,-19.5 198.5,-0.5 119.5,-0.5"/>
<text text-anchor="middle" x="159" y="-7.5" font-family="Helvetica,sans-Serif" font-size="10.00">drivers/pmm.c</text>
</a>
</g>
<!-- Node1&#45;&gt;Node3 -->
<g id="edge4" class="edge"><title>Node1&#45;&gt;Node3</title>
<path fill="none" stroke="midnightblue" d="M120.998,-49.0024C130.567,-39.4329 142.361,-27.6389 150.249,-19.7511"/>
<polygon fill="midnightblue" stroke="midnightblue" points="118.513,-46.537 113.917,-56.083 123.463,-51.4868 118.513,-46.537"/>
</g>
</g>
</svg>
