<?xml version="1.0" encoding="UTF-8" standalone="no"?>
<!DOCTYPE svg PUBLIC "-//W3C//DTD SVG 1.1//EN"
 "http://www.w3.org/Graphics/SVG/1.1/DTD/svg11.dtd">
<!-- Generated by graphviz version 2.28.0 (20121221.0049)
 -->
<!-- Title: drivers/pmm.c Pages: 1 -->
<svg width="149pt" height="84pt"
 viewBox="0.00 0.00 149.00 84.00" xmlns="http://www.w3.org/2000/svg" xmlns:xlink="http://www.w3.org/1999/xlink">
<g id="graph1" class="graph" transform="scale(1 1) rotate(0) translate(4 80)">
<title>drivers/pmm.c</title>
<polygon fill="white" stroke="white" points="-4,5 -4,-80 146,-80 146,5 -4,5"/>
<!-- Node1 -->
<g id="node1" class="node"><title>Node1</title>
<polygon fill="#bfbfbf" stroke="black" points="38.5,-56.5 38.5,-75.5 117.5,-75.5 117.5,-56.5 38.5,-56.5"/>
<text text-anchor="middle" x="78" y="-63.5" font-family="Helvetica,sans-Serif" font-size="10.00">drivers/pmm.c</text>
</g>
<!-- Node2 -->
<g id="node3" class="node"><title>Node2</title>
<polygon fill="white" stroke="#bfbfbf" points="-0.5,-0.5 -0.5,-19.5 76.5,-19.5 76.5,-0.5 -0.5,-0.5"/>
<text text-anchor="middle" x="38" y="-7.5" font-family="Helvetica,sans-Serif" font-size="10.00">cc430x613x.h</text>
</g>
<!-- Node1&#45;&gt;Node2 -->
<g id="edge2" class="edge"><title>Node1&#45;&gt;Node2</title>
<path fill="none" stroke="midnightblue" d="M71.3948,-56.083C65.7448,-48.4554 57.4552,-37.2645 50.5488,-27.9408"/>
<polygon fill="midnightblue" stroke="midnightblue" points="53.2471,-25.7034 44.4823,-19.7511 47.6221,-29.87 53.2471,-25.7034"/>
</g>
<!-- Node3 -->
<g id="node5" class="node"><title>Node3</title>
<a xlink:href="../../d7/de4/pmm_8h.xhtml" target="_top" xlink:title="pmm.h">
<polygon fill="white" stroke="black" points="94.5,-0.5 94.5,-19.5 141.5,-19.5 141.5,-0.5 94.5,-0.5"/>
<text text-anchor="middle" x="118" y="-7.5" font-family="Helvetica,sans-Serif" font-size="10.00">pmm.h</text>
</a>
</g>
<!-- Node1&#45;&gt;Node3 -->
<g id="edge4" class="edge"><title>Node1&#45;&gt;Node3</title>
<path fill="none" stroke="midnightblue" d="M84.6052,-56.083C90.2552,-48.4554 98.5448,-37.2645 105.451,-27.9408"/>
<polygon fill="midnightblue" stroke="midnightblue" points="108.378,-29.87 111.518,-19.7511 102.753,-25.7034 108.378,-29.87"/>
</g>
</g>
</svg>
