<?xml version="1.0" encoding="UTF-8" standalone="no"?>
<!DOCTYPE svg PUBLIC "-//W3C//DTD SVG 1.1//EN"
 "http://www.w3.org/Graphics/SVG/1.1/DTD/svg11.dtd">
<!-- Generated by graphviz version 2.28.0 (20121221.0049)
 -->
<!-- Title: core/openchronos.c Pages: 1 -->
<!--zoomable 196 -->
<svg id="main" version="1.1" xmlns="http://www.w3.org/2000/svg" xmlns:xlink="http://www.w3.org/1999/xlink" xml:space="preserve" onload="init(evt)">
        <defs>
                <circle id="rim" cx="0" cy="0" r="7"/>
                <circle id="rim2" cx="0" cy="0" r="3.5"/>
                <g id="zoomPlus">
                        <use xlink:href="#rim" fill="#404040">
                                <set attributeName="fill" to="#808080" begin="zoomplus.mouseover" end="zoomplus.mouseout"/>
                        </use>
                        <path d="M-4,0h8M0,-4v8" fill="none" stroke="white" stroke-width="1.5" pointer-events="none"/>
                </g>
                <g id="zoomMin">
                        <use xlink:href="#rim" fill="#404040">
                                <set attributeName="fill" to="#808080" begin="zoomminus.mouseover" end="zoomminus.mouseout"/>
                        </use>
                        <path d="M-4,0h8" fill="none" stroke="white" stroke-width="1.5" pointer-events="none"/>
                </g>
                <g id="dirArrow">
                        <path fill="none" stroke="white" stroke-width="1.5" d="M0,-3.0v7 M-2.5,-0.5L0,-3.0L2.5,-0.5"/>
                </g>
               <g id="resetDef">
                       <use xlink:href="#rim2" fill="#404040">
                               <set attributeName="fill" to="#808080" begin="reset.mouseover" end="reset.mouseout"/>
                       </use>
               </g>
        </defs>

<script type="text/javascript">
var viewWidth = 1317;
var viewHeight = 196;
var sectionId = 'dynsection-0';
</script>
<script xlink:href="../../svgpan.js"/>
<svg id="graph" class="graph">
<g id="viewport">
<title>core/openchronos.c</title>
<polygon fill="white" stroke="white" points="-4,5 -4,-192 1313.57,-192 1313.57,5 -4,5"/>
<!-- Node1 -->
<g id="node1" class="node"><title>Node1</title>
<polygon fill="#bfbfbf" stroke="black" points="556.574,-168.5 556.574,-187.5 658.574,-187.5 658.574,-168.5 556.574,-168.5"/>
<text text-anchor="middle" x="607.574" y="-175.5" font-family="Helvetica,sans-Serif" font-size="10.00">core/openchronos.c</text>
</g>
<!-- Node2 -->
<g id="node3" class="node"><title>Node2</title>
<a xlink:href="../../d9/d95/openchronos_8h.xhtml" target="_top" xlink:title="Main include file.">
<polygon fill="white" stroke="black" points="846.574,-56.5 846.574,-75.5 948.574,-75.5 948.574,-56.5 846.574,-56.5"/>
<text text-anchor="middle" x="897.574" y="-63.5" font-family="Helvetica,sans-Serif" font-size="10.00">core/openchronos.h</text>
</a>
</g>
<!-- Node1&#45;&gt;Node2 -->
<g id="edge2" class="edge"><title>Node1&#45;&gt;Node2</title>
<path fill="none" stroke="midnightblue" d="M556.344,-177.068C417.476,-176.722 41.7551,-172.059 4.57434,-132 -1.47265,-125.485 -1.55084,-118.442 4.57434,-112 33.2106,-81.8844 638.934,-70.6628 836.127,-67.7996"/>
<polygon fill="midnightblue" stroke="midnightblue" points="836.365,-71.2967 846.314,-67.6539 836.265,-64.2974 836.365,-71.2967"/>
</g>
<!-- Node6 -->
<g id="node11" class="node"><title>Node6</title>
<a xlink:href="../../da/def/modinit_8h.xhtml" target="_top" xlink:title="Module init header.">
<polygon fill="white" stroke="black" points="13.5743,-112.5 13.5743,-131.5 91.5743,-131.5 91.5743,-112.5 13.5743,-112.5"/>
<text text-anchor="middle" x="52.5743" y="-119.5" font-family="Helvetica,sans-Serif" font-size="10.00">core/modinit.h</text>
</a>
</g>
<!-- Node1&#45;&gt;Node6 -->
<g id="edge10" class="edge"><title>Node1&#45;&gt;Node6</title>
<path fill="none" stroke="midnightblue" d="M556.295,-174.095C466.314,-168.64 273.968,-155.377 101.818,-132.048"/>
<polygon fill="midnightblue" stroke="midnightblue" points="102.199,-128.568 91.8166,-130.678 101.249,-135.503 102.199,-128.568"/>
</g>
<!-- Node7 -->
<g id="node13" class="node"><title>Node7</title>
<a xlink:href="../../d4/d68/display_8h.xhtml" target="_top" xlink:title="Display driver.">
<polygon fill="white" stroke="black" points="109.574,-112.5 109.574,-131.5 197.574,-131.5 197.574,-112.5 109.574,-112.5"/>
<text text-anchor="middle" x="153.574" y="-119.5" font-family="Helvetica,sans-Serif" font-size="10.00">drivers/display.h</text>
</a>
</g>
<!-- Node1&#45;&gt;Node7 -->
<g id="edge12" class="edge"><title>Node1&#45;&gt;Node7</title>
<path fill="none" stroke="midnightblue" d="M556.501,-172.201C482.129,-165.007 339.441,-150.431 208.037,-132.138"/>
<polygon fill="midnightblue" stroke="midnightblue" points="208.181,-128.624 197.792,-130.701 207.208,-135.556 208.181,-128.624"/>
</g>
<!-- Node8 -->
<g id="node16" class="node"><title>Node8</title>
<a xlink:href="../../d9/d8e/vti__as_8h.xhtml" target="_top" xlink:title="drivers/vti_as.h">
<polygon fill="white" stroke="black" points="216.074,-112.5 216.074,-131.5 299.074,-131.5 299.074,-112.5 216.074,-112.5"/>
<text text-anchor="middle" x="257.574" y="-119.5" font-family="Helvetica,sans-Serif" font-size="10.00">drivers/vti_as.h</text>
</a>
</g>
<!-- Node1&#45;&gt;Node8 -->
<g id="edge16" class="edge"><title>Node1&#45;&gt;Node8</title>
<path fill="none" stroke="midnightblue" d="M556.545,-169.809C498.892,-161.581 401.987,-147.44 309.402,-132.267"/>
<polygon fill="midnightblue" stroke="midnightblue" points="309.736,-128.775 299.3,-130.605 308.599,-135.682 309.736,-128.775"/>
</g>
<!-- Node9 -->
<g id="node18" class="node"><title>Node9</title>
<a xlink:href="../../de/dfc/vti__ps_8h.xhtml" target="_top" xlink:title="drivers/vti_ps.h">
<polygon fill="white" stroke="black" points="317.074,-112.5 317.074,-131.5 400.074,-131.5 400.074,-112.5 317.074,-112.5"/>
<text text-anchor="middle" x="358.574" y="-119.5" font-family="Helvetica,sans-Serif" font-size="10.00">drivers/vti_ps.h</text>
</a>
</g>
<!-- Node1&#45;&gt;Node9 -->
<g id="edge18" class="edge"><title>Node1&#45;&gt;Node9</title>
<path fill="none" stroke="midnightblue" d="M568.12,-168.444C524.682,-159.023 454.788,-143.866 407.799,-133.675"/>
<polygon fill="midnightblue" stroke="midnightblue" points="408.359,-130.215 397.845,-131.516 406.876,-137.056 408.359,-130.215"/>
</g>
<!-- Node10 -->
<g id="node20" class="node"><title>Node10</title>
<a xlink:href="../../d7/d62/radio_8h.xhtml" target="_top" xlink:title="drivers/radio.h">
<polygon fill="white" stroke="black" points="418.574,-112.5 418.574,-131.5 496.574,-131.5 496.574,-112.5 418.574,-112.5"/>
<text text-anchor="middle" x="457.574" y="-119.5" font-family="Helvetica,sans-Serif" font-size="10.00">drivers/radio.h</text>
</a>
</g>
<!-- Node1&#45;&gt;Node10 -->
<g id="edge20" class="edge"><title>Node1&#45;&gt;Node10</title>
<path fill="none" stroke="midnightblue" d="M583.806,-168.444C558.682,-159.399 518.863,-145.064 490.674,-134.916"/>
<polygon fill="midnightblue" stroke="midnightblue" points="491.826,-131.611 481.231,-131.516 489.454,-138.197 491.826,-131.611"/>
</g>
<!-- Node11 -->
<g id="node22" class="node"><title>Node11</title>
<a xlink:href="../../de/df3/buzzer_8h.xhtml" target="_top" xlink:title="Buzzer subsystem functions.">
<polygon fill="white" stroke="black" points="514.574,-112.5 514.574,-131.5 600.574,-131.5 600.574,-112.5 514.574,-112.5"/>
<text text-anchor="middle" x="557.574" y="-119.5" font-family="Helvetica,sans-Serif" font-size="10.00">drivers/buzzer.h</text>
</a>
</g>
<!-- Node1&#45;&gt;Node11 -->
<g id="edge22" class="edge"><title>Node1&#45;&gt;Node11</title>
<path fill="none" stroke="midnightblue" d="M599.318,-168.083C592.11,-160.298 581.465,-148.801 572.729,-139.367"/>
<polygon fill="midnightblue" stroke="midnightblue" points="575.039,-136.711 565.677,-131.751 569.903,-141.467 575.039,-136.711"/>
</g>
<!-- Node12 -->
<g id="node24" class="node"><title>Node12</title>
<a xlink:href="../../d2/d54/ports_8h.xhtml" target="_top" xlink:title="drivers/ports.h">
<polygon fill="white" stroke="black" points="619.074,-112.5 619.074,-131.5 698.074,-131.5 698.074,-112.5 619.074,-112.5"/>
<text text-anchor="middle" x="658.574" y="-119.5" font-family="Helvetica,sans-Serif" font-size="10.00">drivers/ports.h</text>
</a>
</g>
<!-- Node1&#45;&gt;Node12 -->
<g id="edge24" class="edge"><title>Node1&#45;&gt;Node12</title>
<path fill="none" stroke="midnightblue" d="M615.996,-168.083C623.423,-160.22 634.426,-148.569 643.386,-139.081"/>
<polygon fill="midnightblue" stroke="midnightblue" points="645.988,-141.424 650.309,-131.751 640.899,-136.618 645.988,-141.424"/>
</g>
<!-- Node13 -->
<g id="node26" class="node"><title>Node13</title>
<a xlink:href="../../d5/dd0/timer_8h.xhtml" target="_top" xlink:title="openchronos&#45;ng timer driver">
<polygon fill="white" stroke="black" points="716.074,-112.5 716.074,-131.5 795.074,-131.5 795.074,-112.5 716.074,-112.5"/>
<text text-anchor="middle" x="755.574" y="-119.5" font-family="Helvetica,sans-Serif" font-size="10.00">drivers/timer.h</text>
</a>
</g>
<!-- Node1&#45;&gt;Node13 -->
<g id="edge26" class="edge"><title>Node1&#45;&gt;Node13</title>
<path fill="none" stroke="midnightblue" d="M631.025,-168.444C655.707,-159.438 694.76,-145.189 722.551,-135.049"/>
<polygon fill="midnightblue" stroke="midnightblue" points="724.038,-138.232 732.233,-131.516 721.639,-131.656 724.038,-138.232"/>
</g>
<!-- Node14 -->
<g id="node29" class="node"><title>Node14</title>
<a xlink:href="../../d7/de4/pmm_8h.xhtml" target="_top" xlink:title="drivers/pmm.h">
<polygon fill="white" stroke="black" points="813.074,-112.5 813.074,-131.5 892.074,-131.5 892.074,-112.5 813.074,-112.5"/>
<text text-anchor="middle" x="852.574" y="-119.5" font-family="Helvetica,sans-Serif" font-size="10.00">drivers/pmm.h</text>
</a>
</g>
<!-- Node1&#45;&gt;Node14 -->
<g id="edge30" class="edge"><title>Node1&#45;&gt;Node14</title>
<path fill="none" stroke="midnightblue" d="M646.395,-168.444C689.135,-159.023 757.906,-143.866 804.141,-133.675"/>
<polygon fill="midnightblue" stroke="midnightblue" points="804.923,-137.087 813.935,-131.516 803.416,-130.251 804.923,-137.087"/>
</g>
<!-- Node15 -->
<g id="node31" class="node"><title>Node15</title>
<a xlink:href="../../d0/de6/rf1a_8h.xhtml" target="_top" xlink:title="drivers/rf1a.h">
<polygon fill="white" stroke="black" points="910.574,-112.5 910.574,-131.5 984.574,-131.5 984.574,-112.5 910.574,-112.5"/>
<text text-anchor="middle" x="947.574" y="-119.5" font-family="Helvetica,sans-Serif" font-size="10.00">drivers/rf1a.h</text>
</a>
</g>
<!-- Node1&#45;&gt;Node15 -->
<g id="edge32" class="edge"><title>Node1&#45;&gt;Node15</title>
<path fill="none" stroke="midnightblue" d="M658.744,-169.724C715.236,-161.56 809.115,-147.61 900.428,-131.967"/>
<polygon fill="midnightblue" stroke="midnightblue" points="901.136,-135.396 910.397,-130.25 899.948,-128.498 901.136,-135.396"/>
</g>
<!-- Node16 -->
<g id="node33" class="node"><title>Node16</title>
<a xlink:href="../../dc/d6b/rtca_8h.xhtml" target="_top" xlink:title="drivers/rtca.h">
<polygon fill="white" stroke="black" points="1002.57,-112.5 1002.57,-131.5 1076.57,-131.5 1076.57,-112.5 1002.57,-112.5"/>
<text text-anchor="middle" x="1039.57" y="-119.5" font-family="Helvetica,sans-Serif" font-size="10.00">drivers/rtca.h</text>
</a>
</g>
<!-- Node1&#45;&gt;Node16 -->
<g id="edge34" class="edge"><title>Node1&#45;&gt;Node16</title>
<path fill="none" stroke="midnightblue" d="M658.634,-172.314C730.727,-165.418 866.672,-151.391 992.28,-132.096"/>
<polygon fill="midnightblue" stroke="midnightblue" points="993.115,-135.508 1002.46,-130.516 992.042,-128.591 993.115,-135.508"/>
</g>
<!-- Node17 -->
<g id="node36" class="node"><title>Node17</title>
<a xlink:href="../../d6/d91/temperature_8h.xhtml" target="_top" xlink:title="drivers/temperature.h">
<polygon fill="white" stroke="black" points="1095.07,-112.5 1095.07,-131.5 1204.07,-131.5 1204.07,-112.5 1095.07,-112.5"/>
<text text-anchor="middle" x="1149.57" y="-119.5" font-family="Helvetica,sans-Serif" font-size="10.00">drivers/temperature.h</text>
</a>
</g>
<!-- Node1&#45;&gt;Node17 -->
<g id="edge38" class="edge"><title>Node1&#45;&gt;Node17</title>
<path fill="none" stroke="midnightblue" d="M658.59,-172.97C744.293,-166.031 922.835,-150.85 1084.64,-132.058"/>
<polygon fill="midnightblue" stroke="midnightblue" points="1085.26,-135.511 1094.78,-130.873 1084.44,-128.558 1085.26,-135.511"/>
</g>
<!-- Node18 -->
<g id="node39" class="node"><title>Node18</title>
<a xlink:href="../../d6/d69/battery_8h.xhtml" target="_top" xlink:title="Battery sensor header file.">
<polygon fill="white" stroke="black" points="1222.07,-112.5 1222.07,-131.5 1309.07,-131.5 1309.07,-112.5 1222.07,-112.5"/>
<text text-anchor="middle" x="1265.57" y="-119.5" font-family="Helvetica,sans-Serif" font-size="10.00">drivers/battery.h</text>
</a>
</g>
<!-- Node1&#45;&gt;Node18 -->
<g id="edge42" class="edge"><title>Node1&#45;&gt;Node18</title>
<path fill="none" stroke="midnightblue" d="M658.725,-174.82C761.5,-170.088 1000.55,-157.308 1211.91,-131.959"/>
<polygon fill="midnightblue" stroke="midnightblue" points="1212.44,-135.419 1221.95,-130.742 1211.6,-128.47 1212.44,-135.419"/>
</g>
<!-- Node3 -->
<g id="node5" class="node"><title>Node3</title>
<polygon fill="white" stroke="#bfbfbf" points="801.574,-0.5 801.574,-19.5 849.574,-19.5 849.574,-0.5 801.574,-0.5"/>
<text text-anchor="middle" x="825.574" y="-7.5" font-family="Helvetica,sans-Serif" font-size="10.00">stdlib.h</text>
</g>
<!-- Node2&#45;&gt;Node3 -->
<g id="edge4" class="edge"><title>Node2&#45;&gt;Node3</title>
<path fill="none" stroke="midnightblue" d="M886.006,-56.324C875.154,-48.1849 858.694,-35.8395 845.691,-26.0874"/>
<polygon fill="midnightblue" stroke="midnightblue" points="847.453,-23.0339 837.353,-19.8339 843.253,-28.6339 847.453,-23.0339"/>
</g>
<!-- Node4 -->
<g id="node7" class="node"><title>Node4</title>
<polygon fill="white" stroke="#bfbfbf" points="868.074,-0.5 868.074,-19.5 927.074,-19.5 927.074,-0.5 868.074,-0.5"/>
<text text-anchor="middle" x="897.574" y="-7.5" font-family="Helvetica,sans-Serif" font-size="10.00">msp430.h</text>
</g>
<!-- Node2&#45;&gt;Node4 -->
<g id="edge6" class="edge"><title>Node2&#45;&gt;Node4</title>
<path fill="none" stroke="midnightblue" d="M897.574,-56.083C897.574,-49.0059 897.574,-38.8611 897.574,-29.9865"/>
<polygon fill="midnightblue" stroke="midnightblue" points="901.074,-29.751 897.574,-19.7511 894.074,-29.7511 901.074,-29.751"/>
</g>
<!-- Node5 -->
<g id="node9" class="node"><title>Node5</title>
<a xlink:href="../../db/d16/config_8h.xhtml" target="_top" xlink:title="config/config.h">
<polygon fill="white" stroke="black" points="945.574,-0.5 945.574,-19.5 1025.57,-19.5 1025.57,-0.5 945.574,-0.5"/>
<text text-anchor="middle" x="985.574" y="-7.5" font-family="Helvetica,sans-Serif" font-size="10.00">config/config.h</text>
</a>
</g>
<!-- Node2&#45;&gt;Node5 -->
<g id="edge8" class="edge"><title>Node2&#45;&gt;Node5</title>
<path fill="none" stroke="midnightblue" d="M911.713,-56.324C925.441,-47.9002 946.511,-34.9709 962.639,-25.0741"/>
<polygon fill="midnightblue" stroke="midnightblue" points="964.778,-27.8678 971.471,-19.6545 961.117,-21.9016 964.778,-27.8678"/>
</g>
<!-- Node7&#45;&gt;Node2 -->
<g id="edge14" class="edge"><title>Node7&#45;&gt;Node2</title>
<path fill="none" stroke="midnightblue" d="M197.772,-113.144C200.746,-112.724 203.701,-112.337 206.574,-112 438.037,-84.884 715.174,-73.0313 836.095,-68.8744"/>
<polygon fill="midnightblue" stroke="midnightblue" points="836.389,-72.3666 846.265,-68.5304 836.153,-65.3706 836.389,-72.3666"/>
</g>
<!-- Node13&#45;&gt;Node2 -->
<g id="edge28" class="edge"><title>Node13&#45;&gt;Node2</title>
<path fill="none" stroke="midnightblue" d="M778.075,-112.444C801.652,-103.478 838.897,-89.314 865.538,-79.1827"/>
<polygon fill="midnightblue" stroke="midnightblue" points="867.076,-82.3424 875.179,-75.5164 864.588,-75.7995 867.076,-82.3424"/>
</g>
<!-- Node16&#45;&gt;Node2 -->
<g id="edge36" class="edge"><title>Node16&#45;&gt;Node2</title>
<path fill="none" stroke="midnightblue" d="M1017.07,-112.444C993.497,-103.478 956.252,-89.314 929.61,-79.1827"/>
<polygon fill="midnightblue" stroke="midnightblue" points="930.56,-75.7995 919.969,-75.5164 928.072,-82.3424 930.56,-75.7995"/>
</g>
<!-- Node17&#45;&gt;Node2 -->
<g id="edge40" class="edge"><title>Node17&#45;&gt;Node2</title>
<path fill="none" stroke="midnightblue" d="M1109.64,-112.444C1065.68,-103.023 994.947,-87.8656 947.392,-77.6752"/>
<polygon fill="midnightblue" stroke="midnightblue" points="947.829,-74.1895 937.318,-75.5164 946.362,-81.0341 947.829,-74.1895"/>
</g>
<!-- Node18&#45;&gt;Node2 -->
<g id="edge44" class="edge"><title>Node18&#45;&gt;Node2</title>
<path fill="none" stroke="midnightblue" d="M1221.92,-113.493C1218.76,-112.978 1215.62,-112.476 1212.57,-112 1124.55,-98.2415 1022.42,-83.9592 958.89,-75.2732"/>
<polygon fill="midnightblue" stroke="midnightblue" points="959.029,-71.7598 948.648,-73.8756 958.083,-78.6955 959.029,-71.7598"/>
</g>
</g>
</svg>
        <g id="navigator" transform="translate(0 0)" fill="#404254">
                <rect fill="#f2f5e9" fill-opacity="0.5" stroke="#606060" stroke-width=".5" x="0" y="0" width="60" height="60"/>
                <use id="zoomplus" xlink:href="#zoomPlus" x="17" y="9" onmousedown="handleZoom(evt,'in')"/>
                <use id="zoomminus" xlink:href="#zoomMin" x="42" y="9" onmousedown="handleZoom(evt,'out')"/>
                <use id="reset" xlink:href="#resetDef" x="30" y="36" onmousedown="handleReset()"/>
                <g id="arrowUp" xlink:href="#dirArrow" transform="translate(30 24)" onmousedown="handlePan(0,-1)">
                  <use xlink:href="#rim" fill="#404040">
                        <set attributeName="fill" to="#808080" begin="arrowUp.mouseover" end="arrowUp.mouseout"/>
                  </use>
                  <path fill="none" stroke="white" stroke-width="1.5" d="M0,-3.0v7 M-2.5,-0.5L0,-3.0L2.5,-0.5"/>
                </g>
                <g id="arrowRight" xlink:href="#dirArrow" transform="rotate(90) translate(36 -43)" onmousedown="handlePan(1,0)">
                  <use xlink:href="#rim" fill="#404040">
                        <set attributeName="fill" to="#808080" begin="arrowRight.mouseover" end="arrowRight.mouseout"/>
                  </use>
                  <path fill="none" stroke="white" stroke-width="1.5" d="M0,-3.0v7 M-2.5,-0.5L0,-3.0L2.5,-0.5"/>
                </g>
                <g id="arrowDown" xlink:href="#dirArrow" transform="rotate(180) translate(-30 -48)" onmousedown="handlePan(0,1)">
                  <use xlink:href="#rim" fill="#404040">
                        <set attributeName="fill" to="#808080" begin="arrowDown.mouseover" end="arrowDown.mouseout"/>
                  </use>
                  <path fill="none" stroke="white" stroke-width="1.5" d="M0,-3.0v7 M-2.5,-0.5L0,-3.0L2.5,-0.5"/>
                </g>
                <g id="arrowLeft" xlink:href="#dirArrow" transform="rotate(270) translate(-36 17)" onmousedown="handlePan(-1,0)">
                  <use xlink:href="#rim" fill="#404040">
                        <set attributeName="fill" to="#808080" begin="arrowLeft.mouseover" end="arrowLeft.mouseout"/>
                  </use>
                  <path fill="none" stroke="white" stroke-width="1.5" d="M0,-3.0v7 M-2.5,-0.5L0,-3.0L2.5,-0.5"/>
                </g>
        </g>
        <svg viewBox="0 0 15 15" width="100%" height="30px" preserveAspectRatio="xMaxYMin meet">
         <g id="arrow_out" transform="scale(0.3 0.3)">
          <a xlink:href="openchronos_8c__incl_org.svg" target="_base">
           <rect id="button" ry="5" rx="5" y="6" x="6" height="38" width="38"
                fill="#f2f5e9" fill-opacity="0.5" stroke="#606060" stroke-width="1.0"/>
           <path id="arrow"
             d="M 11.500037,31.436501 C 11.940474,20.09759 22.043105,11.32322 32.158766,21.979434 L 37.068811,17.246167 C 37.068811,17.246167 37.088388,32 37.088388,32 L 22.160133,31.978069 C 22.160133,31.978069 26.997745,27.140456 26.997745,27.140456 C 18.528582,18.264221 13.291696,25.230495 11.500037,31.436501 z"
             style="fill:#404040;"/>
          </a>
         </g>
        </svg>
</svg>
