<?xml version="1.0" encoding="UTF-8" standalone="no"?>
<!DOCTYPE svg PUBLIC "-//W3C//DTD SVG 1.1//EN"
 "http://www.w3.org/Graphics/SVG/1.1/DTD/svg11.dtd">
<!-- Generated by graphviz version 2.28.0 (20121221.0049)
 -->
<!-- Title: mod_clock_init Pages: 1 -->
<svg width="920pt" height="475pt"
 viewBox="0.00 0.00 920.00 474.81" xmlns="http://www.w3.org/2000/svg" xmlns:xlink="http://www.w3.org/1999/xlink">
<g id="graph1" class="graph" transform="scale(1 1) rotate(0) translate(4 470.809)">
<title>mod_clock_init</title>
<polygon fill="white" stroke="white" points="-4,5 -4,-470.809 917,-470.809 917,5 -4,5"/>
<!-- Node1 -->
<g id="node1" class="node"><title>Node1</title>
<polygon fill="#bfbfbf" stroke="black" points="0,-313.5 0,-332.5 82,-332.5 82,-313.5 0,-313.5"/>
<text text-anchor="middle" x="41" y="-320.5" font-family="Helvetica,sans-Serif" font-size="10.00">mod_clock_init</text>
</g>
<!-- Node2 -->
<g id="node3" class="node"><title>Node2</title>
<a xlink:href="../../d2/df2/openchronos_8c.xhtml#a71490cfda7ca71ac20d681a8a7a994e1" target="_top" xlink:title="Adds an entry to the main menu.">
<polygon fill="white" stroke="black" points="121.5,-389.5 121.5,-408.5 210.5,-408.5 210.5,-389.5 121.5,-389.5"/>
<text text-anchor="middle" x="166" y="-396.5" font-family="Helvetica,sans-Serif" font-size="10.00">menu_add_entry</text>
</a>
</g>
<!-- Node1&#45;&gt;Node2 -->
<g id="edge2" class="edge"><title>Node1&#45;&gt;Node2</title>
<path fill="none" stroke="midnightblue" d="M53.1984,-332.88C67.4799,-345.119 93.2952,-366.057 118,-380 121.257,-381.839 124.729,-383.59 128.253,-385.233"/>
<polygon fill="midnightblue" stroke="midnightblue" points="127.031,-388.519 137.596,-389.314 129.832,-382.104 127.031,-388.519"/>
</g>
<!-- Node3 -->
<g id="node5" class="node"><title>Node3</title>
<a xlink:href="../../dc/d54/clock_8c.xhtml#ac45981ec8f139799de2761059031da27" target="_top" xlink:title="num_pressed">
<polygon fill="white" stroke="black" points="128.5,-351.5 128.5,-370.5 203.5,-370.5 203.5,-351.5 128.5,-351.5"/>
<text text-anchor="middle" x="166" y="-358.5" font-family="Helvetica,sans-Serif" font-size="10.00">num_pressed</text>
</a>
</g>
<!-- Node1&#45;&gt;Node3 -->
<g id="edge4" class="edge"><title>Node1&#45;&gt;Node3</title>
<path fill="none" stroke="midnightblue" d="M73.0381,-332.589C88.4792,-337.359 107.348,-343.189 123.966,-348.323"/>
<polygon fill="midnightblue" stroke="midnightblue" points="123.384,-351.806 133.972,-351.414 125.451,-345.118 123.384,-351.806"/>
</g>
<!-- Node6 -->
<g id="node11" class="node"><title>Node6</title>
<a xlink:href="../../dc/d54/clock_8c.xhtml#a98c2f38c8be9842b760af29757d87694" target="_top" xlink:title="star_long_pressed">
<polygon fill="white" stroke="black" points="118,-313.5 118,-332.5 214,-332.5 214,-313.5 118,-313.5"/>
<text text-anchor="middle" x="166" y="-320.5" font-family="Helvetica,sans-Serif" font-size="10.00">star_long_pressed</text>
</a>
</g>
<!-- Node1&#45;&gt;Node6 -->
<g id="edge10" class="edge"><title>Node1&#45;&gt;Node6</title>
<path fill="none" stroke="midnightblue" d="M82.2748,-323C90.4327,-323 99.1585,-323 107.772,-323"/>
<polygon fill="midnightblue" stroke="midnightblue" points="107.791,-326.5 117.791,-323 107.791,-319.5 107.791,-326.5"/>
</g>
<!-- Node18 -->
<g id="node37" class="node"><title>Node18</title>
<a xlink:href="../../dc/d54/clock_8c.xhtml#a3e731bc12fc17e0ce19d9766c06b3a32" target="_top" xlink:title="clock_activated">
<polygon fill="white" stroke="black" points="123.5,-95.5 123.5,-114.5 208.5,-114.5 208.5,-95.5 123.5,-95.5"/>
<text text-anchor="middle" x="166" y="-102.5" font-family="Helvetica,sans-Serif" font-size="10.00">clock_activated</text>
</a>
</g>
<!-- Node1&#45;&gt;Node18 -->
<g id="edge38" class="edge"><title>Node1&#45;&gt;Node18</title>
<path fill="none" stroke="midnightblue" d="M47.4439,-313.352C66.3758,-279.797 129.552,-167.827 154.621,-123.396"/>
<polygon fill="midnightblue" stroke="midnightblue" points="157.753,-124.966 159.619,-114.537 151.657,-121.526 157.753,-124.966"/>
</g>
<!-- Node22 -->
<g id="node48" class="node"><title>Node22</title>
<a xlink:href="../../dc/d54/clock_8c.xhtml#a1f08116a446e881d8075283a97fd7d60" target="_top" xlink:title="clock_deactivated">
<polygon fill="white" stroke="black" points="118.5,-256.5 118.5,-275.5 213.5,-275.5 213.5,-256.5 118.5,-256.5"/>
<text text-anchor="middle" x="166" y="-263.5" font-family="Helvetica,sans-Serif" font-size="10.00">clock_deactivated</text>
</a>
</g>
<!-- Node1&#45;&gt;Node22 -->
<g id="edge52" class="edge"><title>Node1&#45;&gt;Node22</title>
<path fill="none" stroke="midnightblue" d="M62.5874,-313.459C82.4544,-304.253 112.746,-290.215 135.237,-279.793"/>
<polygon fill="midnightblue" stroke="midnightblue" points="136.744,-282.952 144.345,-275.572 133.801,-276.601 136.744,-282.952"/>
</g>
<!-- Node4 -->
<g id="node7" class="node"><title>Node4</title>
<a xlink:href="../../db/d85/display_8c.xhtml#a0e030727a1bc4d1418bb96cc71350203" target="_top" xlink:title="Activates a virtual screen.">
<polygon fill="white" stroke="black" points="428,-380.5 428,-399.5 532,-399.5 532,-380.5 428,-380.5"/>
<text text-anchor="middle" x="480" y="-387.5" font-family="Helvetica,sans-Serif" font-size="10.00">lcd_screen_activate</text>
</a>
</g>
<!-- Node3&#45;&gt;Node4 -->
<g id="edge6" class="edge"><title>Node3&#45;&gt;Node4</title>
<path fill="none" stroke="midnightblue" d="M199.579,-370.686C204.772,-373.172 209.806,-376.24 214,-380 239.168,-402.567 220.986,-429.653 250,-447 304.167,-479.387 331.524,-465.047 392,-447 418.523,-439.085 444.474,-420.214 461.03,-406.343"/>
<polygon fill="midnightblue" stroke="midnightblue" points="463.515,-408.822 468.785,-399.631 458.933,-403.53 463.515,-408.822"/>
</g>
<!-- Node5 -->
<g id="node9" class="node"><title>Node5</title>
<a xlink:href="../../d2/df2/openchronos_8c.xhtml#a72f5591868e0c66a539eacdcd0b520d7" target="_top" xlink:title="Increment/decrements value by one without exiting the [lower, upper] interval.">
<polygon fill="white" stroke="black" points="592.5,-380.5 592.5,-399.5 663.5,-399.5 663.5,-380.5 592.5,-380.5"/>
<text text-anchor="middle" x="628" y="-387.5" font-family="Helvetica,sans-Serif" font-size="10.00">helpers_loop</text>
</a>
</g>
<!-- Node4&#45;&gt;Node5 -->
<g id="edge8" class="edge"><title>Node4&#45;&gt;Node5</title>
<path fill="none" stroke="midnightblue" d="M532.064,-390C548.388,-390 566.325,-390 582.171,-390"/>
<polygon fill="midnightblue" stroke="midnightblue" points="582.244,-393.5 592.244,-390 582.244,-386.5 582.244,-393.5"/>
</g>
<!-- Node7 -->
<g id="node13" class="node"><title>Node7</title>
<a xlink:href="../../db/d85/display_8c.xhtml#af604e78dcc4e0f1a204b2180c5e54957" target="_top" xlink:title="Displays a symbol.">
<polygon fill="white" stroke="black" points="438,-190.5 438,-209.5 522,-209.5 522,-190.5 438,-190.5"/>
<text text-anchor="middle" x="480" y="-197.5" font-family="Helvetica,sans-Serif" font-size="10.00">display_symbol</text>
</a>
</g>
<!-- Node6&#45;&gt;Node7 -->
<g id="edge12" class="edge"><title>Node6&#45;&gt;Node7</title>
<path fill="none" stroke="midnightblue" d="M214.375,-329.524C263.479,-333.663 340.168,-332.484 392,-295 422.286,-273.098 400.463,-244.271 428,-219 429.697,-217.443 431.533,-216.01 433.466,-214.692"/>
<polygon fill="midnightblue" stroke="midnightblue" points="435.456,-217.587 442.437,-209.617 432.009,-211.495 435.456,-217.587"/>
</g>
<!-- Node9 -->
<g id="node17" class="node"><title>Node9</title>
<a xlink:href="../../d2/df2/openchronos_8c.xhtml#afb7a89cc8739b9788a27e80d8b0d90e9" target="_top" xlink:title="Enters edit mode.">
<polygon fill="white" stroke="black" points="266,-418.5 266,-437.5 376,-437.5 376,-418.5 266,-418.5"/>
<text text-anchor="middle" x="321" y="-425.5" font-family="Helvetica,sans-Serif" font-size="10.00">menu_editmode_start</text>
</a>
</g>
<!-- Node6&#45;&gt;Node9 -->
<g id="edge16" class="edge"><title>Node6&#45;&gt;Node9</title>
<path fill="none" stroke="midnightblue" d="M199.579,-332.686C204.772,-335.172 209.806,-338.24 214,-342 239.168,-364.567 223.533,-387.971 250,-409 252.311,-410.836 254.785,-412.495 257.374,-413.994"/>
<polygon fill="midnightblue" stroke="midnightblue" points="256.025,-417.231 266.544,-418.5 259.112,-410.949 256.025,-417.231"/>
</g>
<!-- Node10 -->
<g id="node19" class="node"><title>Node10</title>
<a xlink:href="../../dc/d54/clock_8c.xhtml#aaf27ce1b2e6b72fd545354a840702d12" target="_top" xlink:title="edit_save">
<polygon fill="white" stroke="black" points="291.5,-342.5 291.5,-361.5 350.5,-361.5 350.5,-342.5 291.5,-342.5"/>
<text text-anchor="middle" x="321" y="-349.5" font-family="Helvetica,sans-Serif" font-size="10.00">edit_save</text>
</a>
</g>
<!-- Node6&#45;&gt;Node10 -->
<g id="edge18" class="edge"><title>Node6&#45;&gt;Node10</title>
<path fill="none" stroke="midnightblue" d="M214.153,-331.938C235.786,-336.038 261.108,-340.838 281.561,-344.714"/>
<polygon fill="midnightblue" stroke="midnightblue" points="280.992,-348.169 291.469,-346.592 282.295,-341.291 280.992,-348.169"/>
</g>
<!-- Node8 -->
<g id="node15" class="node"><title>Node8</title>
<a xlink:href="../../db/d85/display_8c.xhtml#a710739913e8ea1b71dd433b8311211fd" target="_top" xlink:title="write_lcd_mem">
<polygon fill="white" stroke="black" points="828.5,-171.5 828.5,-190.5 911.5,-190.5 911.5,-171.5 828.5,-171.5"/>
<text text-anchor="middle" x="870" y="-178.5" font-family="Helvetica,sans-Serif" font-size="10.00">write_lcd_mem</text>
</a>
</g>
<!-- Node7&#45;&gt;Node8 -->
<g id="edge14" class="edge"><title>Node7&#45;&gt;Node8</title>
<path fill="none" stroke="midnightblue" d="M522.155,-197.985C593.643,-194.484 740.539,-187.291 818.233,-183.486"/>
<polygon fill="midnightblue" stroke="midnightblue" points="818.45,-186.98 828.267,-182.995 818.108,-179.988 818.45,-186.98"/>
</g>
<!-- Node10&#45;&gt;Node4 -->
<g id="edge36" class="edge"><title>Node10&#45;&gt;Node4</title>
<path fill="none" stroke="midnightblue" d="M350.796,-358.97C372.835,-364.304 403.752,-371.787 429.703,-378.068"/>
<polygon fill="midnightblue" stroke="midnightblue" points="429.2,-381.548 439.743,-380.498 430.847,-374.744 429.2,-381.548"/>
</g>
<!-- Node11 -->
<g id="node21" class="node"><title>Node11</title>
<a xlink:href="../../d4/d9d/rtca_8c.xhtml#ac8b1afe9dddfab4d4b414054bb8c3bda" target="_top" xlink:title="rtca_set_time">
<polygon fill="white" stroke="black" points="442,-342.5 442,-361.5 518,-361.5 518,-342.5 442,-342.5"/>
<text text-anchor="middle" x="480" y="-349.5" font-family="Helvetica,sans-Serif" font-size="10.00">rtca_set_time</text>
</a>
</g>
<!-- Node10&#45;&gt;Node11 -->
<g id="edge20" class="edge"><title>Node10&#45;&gt;Node11</title>
<path fill="none" stroke="midnightblue" d="M350.796,-352C373.382,-352 405.292,-352 431.626,-352"/>
<polygon fill="midnightblue" stroke="midnightblue" points="431.784,-355.5 441.784,-352 431.784,-348.5 431.784,-355.5"/>
</g>
<!-- Node12 -->
<g id="node23" class="node"><title>Node12</title>
<a xlink:href="../../d4/d9d/rtca_8c.xhtml#ae8a24531bf3ff143e0027d126309ecd4" target="_top" xlink:title="rtca_set_date">
<polygon fill="white" stroke="black" points="442,-304.5 442,-323.5 518,-323.5 518,-304.5 442,-304.5"/>
<text text-anchor="middle" x="480" y="-311.5" font-family="Helvetica,sans-Serif" font-size="10.00">rtca_set_date</text>
</a>
</g>
<!-- Node10&#45;&gt;Node12 -->
<g id="edge22" class="edge"><title>Node10&#45;&gt;Node12</title>
<path fill="none" stroke="midnightblue" d="M350.796,-345.03C373.482,-339.539 405.575,-331.772 431.976,-325.382"/>
<polygon fill="midnightblue" stroke="midnightblue" points="432.888,-328.762 441.784,-323.008 431.241,-321.958 432.888,-328.762"/>
</g>
<!-- Node15 -->
<g id="node29" class="node"><title>Node15</title>
<a xlink:href="../../db/d85/display_8c.xhtml#a6f2d5cdda31a73b43a569cb3d1a64165" target="_top" xlink:title="Displays several consecutive characters.">
<polygon fill="white" stroke="black" points="441.5,-228.5 441.5,-247.5 518.5,-247.5 518.5,-228.5 441.5,-228.5"/>
<text text-anchor="middle" x="480" y="-235.5" font-family="Helvetica,sans-Serif" font-size="10.00">display_chars</text>
</a>
</g>
<!-- Node10&#45;&gt;Node15 -->
<g id="edge28" class="edge"><title>Node10&#45;&gt;Node15</title>
<path fill="none" stroke="midnightblue" d="M350.624,-345.491C363.872,-341.673 379.424,-335.996 392,-328 408.252,-317.667 443.7,-278.504 463.976,-255.383"/>
<polygon fill="midnightblue" stroke="midnightblue" points="466.763,-257.511 470.695,-247.673 461.486,-252.912 466.763,-257.511"/>
</g>
<!-- Node13 -->
<g id="node25" class="node"><title>Node13</title>
<a xlink:href="../../d4/d9d/rtca_8c.xhtml#ae4754ee1b841e8b4e838253fb0b4ebd3" target="_top" xlink:title="rtca_get_max_days">
<polygon fill="white" stroke="black" points="577,-323.5 577,-342.5 679,-342.5 679,-323.5 577,-323.5"/>
<text text-anchor="middle" x="628" y="-330.5" font-family="Helvetica,sans-Serif" font-size="10.00">rtca_get_max_days</text>
</a>
</g>
<!-- Node12&#45;&gt;Node13 -->
<g id="edge24" class="edge"><title>Node12&#45;&gt;Node13</title>
<path fill="none" stroke="midnightblue" d="M518.22,-318.844C532.982,-320.765 550.338,-323.023 566.798,-325.165"/>
<polygon fill="midnightblue" stroke="midnightblue" points="566.531,-328.66 576.9,-326.48 567.435,-321.719 566.531,-328.66"/>
</g>
<!-- Node14 -->
<g id="node27" class="node"><title>Node14</title>
<a xlink:href="../../d4/d53/rtc__dst_8h.xhtml#ad054f92362bb72817d29c5a54898b6f9" target="_top" xlink:title="rtc_dst_calculate_dates">
<polygon fill="white" stroke="black" points="568,-285.5 568,-304.5 688,-304.5 688,-285.5 568,-285.5"/>
<text text-anchor="middle" x="628" y="-292.5" font-family="Helvetica,sans-Serif" font-size="10.00">rtc_dst_calculate_dates</text>
</a>
</g>
<!-- Node12&#45;&gt;Node14 -->
<g id="edge26" class="edge"><title>Node12&#45;&gt;Node14</title>
<path fill="none" stroke="midnightblue" d="M518.22,-309.156C530.203,-307.597 543.896,-305.815 557.431,-304.053"/>
<polygon fill="midnightblue" stroke="midnightblue" points="558.255,-307.476 567.72,-302.715 557.352,-300.534 558.255,-307.476"/>
</g>
<!-- Node16 -->
<g id="node31" class="node"><title>Node16</title>
<a xlink:href="../../db/d85/display_8c.xhtml#a3ae30196af91197037d50cb49de1d109" target="_top" xlink:title="Displays a single character.">
<polygon fill="white" stroke="black" points="592.5,-152.5 592.5,-171.5 663.5,-171.5 663.5,-152.5 592.5,-152.5"/>
<text text-anchor="middle" x="628" y="-159.5" font-family="Helvetica,sans-Serif" font-size="10.00">display_char</text>
</a>
</g>
<!-- Node15&#45;&gt;Node16 -->
<g id="edge30" class="edge"><title>Node15&#45;&gt;Node16</title>
<path fill="none" stroke="midnightblue" d="M509.445,-228.455C516.899,-225.67 524.848,-222.442 532,-219 557.767,-206.6 585.646,-189.378 604.494,-177.117"/>
<polygon fill="midnightblue" stroke="midnightblue" points="606.542,-179.96 612.972,-171.54 602.694,-174.112 606.542,-179.96"/>
</g>
<!-- Node17 -->
<g id="node33" class="node"><title>Node17</title>
<a xlink:href="../../db/d85/display_8c.xhtml#a9275035317878022cf9eacf6b0a5be72" target="_top" xlink:title="Display a custom collection of segments.">
<polygon fill="white" stroke="black" points="724,-152.5 724,-171.5 792,-171.5 792,-152.5 724,-152.5"/>
<text text-anchor="middle" x="758" y="-159.5" font-family="Helvetica,sans-Serif" font-size="10.00">display_bits</text>
</a>
</g>
<!-- Node16&#45;&gt;Node17 -->
<g id="edge32" class="edge"><title>Node16&#45;&gt;Node17</title>
<path fill="none" stroke="midnightblue" d="M663.639,-162C678.944,-162 697.109,-162 713.33,-162"/>
<polygon fill="midnightblue" stroke="midnightblue" points="713.659,-165.5 723.659,-162 713.659,-158.5 713.659,-165.5"/>
</g>
<!-- Node17&#45;&gt;Node8 -->
<g id="edge34" class="edge"><title>Node17&#45;&gt;Node8</title>
<path fill="none" stroke="midnightblue" d="M792.004,-167.701C800.28,-169.13 809.352,-170.697 818.273,-172.238"/>
<polygon fill="midnightblue" stroke="midnightblue" points="817.781,-175.705 828.231,-173.958 818.972,-168.807 817.781,-175.705"/>
</g>
<!-- Node18&#45;&gt;Node7 -->
<g id="edge48" class="edge"><title>Node18&#45;&gt;Node7</title>
<path fill="none" stroke="midnightblue" d="M208.591,-106.917C254.806,-110.197 330.96,-119.068 392,-143 417.339,-152.935 442.999,-170.93 459.818,-184.051"/>
<polygon fill="midnightblue" stroke="midnightblue" points="457.763,-186.888 467.759,-190.399 462.134,-181.421 457.763,-186.888"/>
</g>
<!-- Node18&#45;&gt;Node16 -->
<g id="edge50" class="edge"><title>Node18&#45;&gt;Node16</title>
<path fill="none" stroke="midnightblue" d="M182.507,-95.4305C198.669,-86.0641 225.07,-72.4355 250,-67 311.662,-53.5555 330.05,-54.9517 392,-67 471.75,-82.5099 558.693,-125.057 600.978,-147.579"/>
<polygon fill="midnightblue" stroke="midnightblue" points="599.559,-150.79 610.022,-152.455 602.881,-144.628 599.559,-150.79"/>
</g>
<!-- Node19 -->
<g id="node39" class="node"><title>Node19</title>
<a xlink:href="../../d2/df2/openchronos_8c.xhtml#a5aeb07d7031b5d53ca8605bf398714a2" target="_top" xlink:title="Registers a node in the message bus.">
<polygon fill="white" stroke="black" points="255.5,-0.5 255.5,-19.5 386.5,-19.5 386.5,-0.5 255.5,-0.5"/>
<text text-anchor="middle" x="321" y="-7.5" font-family="Helvetica,sans-Serif" font-size="10.00">sys_messagebus_register</text>
</a>
</g>
<!-- Node18&#45;&gt;Node19 -->
<g id="edge40" class="edge"><title>Node18&#45;&gt;Node19</title>
<path fill="none" stroke="midnightblue" d="M175.814,-95.4171C190.08,-80.413 219.703,-51.3054 250,-34 257.457,-29.7407 265.792,-26.0694 274.039,-22.9695"/>
<polygon fill="midnightblue" stroke="midnightblue" points="275.353,-26.2174 283.62,-19.5919 273.026,-19.6155 275.353,-26.2174"/>
</g>
<!-- Node20 -->
<g id="node41" class="node"><title>Node20</title>
<a xlink:href="../../dc/d54/clock_8c.xhtml#a308a03c1199b5494e861bd9f5b68589f" target="_top" xlink:title="clock_event">
<polygon fill="white" stroke="black" points="286.5,-152.5 286.5,-171.5 355.5,-171.5 355.5,-152.5 286.5,-152.5"/>
<text text-anchor="middle" x="321" y="-159.5" font-family="Helvetica,sans-Serif" font-size="10.00">clock_event</text>
</a>
</g>
<!-- Node18&#45;&gt;Node20 -->
<g id="edge42" class="edge"><title>Node18&#45;&gt;Node20</title>
<path fill="none" stroke="midnightblue" d="M190.14,-114.546C206.725,-121.304 229.639,-130.467 250,-138 260.135,-141.75 271.168,-145.627 281.413,-149.142"/>
<polygon fill="midnightblue" stroke="midnightblue" points="280.346,-152.476 290.94,-152.386 282.602,-145.849 280.346,-152.476"/>
</g>
<!-- Node21 -->
<g id="node44" class="node"><title>Node21</title>
<a xlink:href="../../db/d85/display_8c.xhtml#a4c1000a508e4527145c75b4827d81dd8" target="_top" xlink:title="Creates virtual screens.">
<polygon fill="white" stroke="black" points="270.5,-76.5 270.5,-95.5 371.5,-95.5 371.5,-76.5 270.5,-76.5"/>
<text text-anchor="middle" x="321" y="-83.5" font-family="Helvetica,sans-Serif" font-size="10.00">lcd_screens_create</text>
</a>
</g>
<!-- Node18&#45;&gt;Node21 -->
<g id="edge46" class="edge"><title>Node18&#45;&gt;Node21</title>
<path fill="none" stroke="midnightblue" d="M208.808,-99.8082C224.71,-97.8334 243.149,-95.5436 260.384,-93.4033"/>
<polygon fill="midnightblue" stroke="midnightblue" points="260.873,-96.8696 270.365,-92.1638 260.01,-89.923 260.873,-96.8696"/>
</g>
<!-- Node20&#45;&gt;Node7 -->
<g id="edge44" class="edge"><title>Node20&#45;&gt;Node7</title>
<path fill="none" stroke="midnightblue" d="M355.68,-170.152C377.203,-175.361 405.486,-182.207 429.536,-188.028"/>
<polygon fill="midnightblue" stroke="midnightblue" points="429.01,-191.501 439.552,-190.452 430.657,-184.698 429.01,-191.501"/>
</g>
<!-- Node22&#45;&gt;Node7 -->
<g id="edge62" class="edge"><title>Node22&#45;&gt;Node7</title>
<path fill="none" stroke="midnightblue" d="M179.699,-256.459C195.324,-245.298 223.098,-227.293 250,-219 309.012,-200.809 380.385,-197.67 427.595,-198.031"/>
<polygon fill="midnightblue" stroke="midnightblue" points="427.831,-201.535 437.877,-198.168 427.924,-194.535 427.831,-201.535"/>
</g>
<!-- Node22&#45;&gt;Node20 -->
<g id="edge56" class="edge"><title>Node22&#45;&gt;Node20</title>
<path fill="none" stroke="midnightblue" d="M174.448,-256.483C187.867,-239.931 217.726,-205.727 250,-186 258.13,-181.03 267.426,-176.926 276.528,-173.602"/>
<polygon fill="midnightblue" stroke="midnightblue" points="277.921,-176.826 286.266,-170.298 275.672,-170.197 277.921,-176.826"/>
</g>
<!-- Node23 -->
<g id="node50" class="node"><title>Node23</title>
<a xlink:href="../../d2/df2/openchronos_8c.xhtml#a60705ce0564ce52c1977a32cee3215c2" target="_top" xlink:title="Unregisters a node from the message bus.">
<polygon fill="white" stroke="black" points="250.5,-266.5 250.5,-285.5 391.5,-285.5 391.5,-266.5 250.5,-266.5"/>
<text text-anchor="middle" x="321" y="-273.5" font-family="Helvetica,sans-Serif" font-size="10.00">sys_messagebus_unregister</text>
</a>
</g>
<!-- Node22&#45;&gt;Node23 -->
<g id="edge54" class="edge"><title>Node22&#45;&gt;Node23</title>
<path fill="none" stroke="midnightblue" d="M213.736,-269.055C222.165,-269.606 231.164,-270.194 240.225,-270.786"/>
<polygon fill="midnightblue" stroke="midnightblue" points="240.246,-274.295 250.453,-271.454 240.703,-267.31 240.246,-274.295"/>
</g>
<!-- Node24 -->
<g id="node53" class="node"><title>Node24</title>
<a xlink:href="../../db/d85/display_8c.xhtml#acef5af52e5b50c8ba28846cbc0c3e683" target="_top" xlink:title="Destroys all virtual screen.">
<polygon fill="white" stroke="black" points="267.5,-380.5 267.5,-399.5 374.5,-399.5 374.5,-380.5 267.5,-380.5"/>
<text text-anchor="middle" x="321" y="-387.5" font-family="Helvetica,sans-Serif" font-size="10.00">lcd_screens_destroy</text>
</a>
</g>
<!-- Node22&#45;&gt;Node24 -->
<g id="edge58" class="edge"><title>Node22&#45;&gt;Node24</title>
<path fill="none" stroke="midnightblue" d="M181.863,-275.671C191.825,-282.679 204.761,-292.85 214,-304 235.569,-330.029 223.533,-349.971 250,-371 252.563,-373.037 255.328,-374.856 258.227,-376.48"/>
<polygon fill="midnightblue" stroke="midnightblue" points="256.726,-379.642 267.258,-380.793 259.743,-373.325 256.726,-379.642"/>
</g>
<!-- Node25 -->
<g id="node57" class="node"><title>Node25</title>
<a xlink:href="../../db/d85/display_8c.xhtml#aa150336a018e90f37fd0285047b541f6" target="_top" xlink:title="Clears the screen.">
<polygon fill="white" stroke="black" points="284,-228.5 284,-247.5 358,-247.5 358,-228.5 284,-228.5"/>
<text text-anchor="middle" x="321" y="-235.5" font-family="Helvetica,sans-Serif" font-size="10.00">display_clear</text>
</a>
</g>
<!-- Node22&#45;&gt;Node25 -->
<g id="edge64" class="edge"><title>Node22&#45;&gt;Node25</title>
<path fill="none" stroke="midnightblue" d="M213.736,-257.447C232.806,-253.957 254.8,-249.932 273.813,-246.453"/>
<polygon fill="midnightblue" stroke="midnightblue" points="274.535,-249.879 283.741,-244.636 273.274,-242.993 274.535,-249.879"/>
</g>
<!-- Node24&#45;&gt;Node4 -->
<g id="edge60" class="edge"><title>Node24&#45;&gt;Node4</title>
<path fill="none" stroke="midnightblue" d="M374.715,-390C388.479,-390 403.432,-390 417.603,-390"/>
<polygon fill="midnightblue" stroke="midnightblue" points="417.755,-393.5 427.755,-390 417.755,-386.5 417.755,-393.5"/>
</g>
<!-- Node25&#45;&gt;Node7 -->
<g id="edge68" class="edge"><title>Node25&#45;&gt;Node7</title>
<path fill="none" stroke="midnightblue" d="M358.019,-229.282C379.233,-224.148 406.369,-217.579 429.564,-211.965"/>
<polygon fill="midnightblue" stroke="midnightblue" points="430.674,-215.298 439.57,-209.544 429.027,-208.494 430.674,-215.298"/>
</g>
<!-- Node25&#45;&gt;Node15 -->
<g id="edge66" class="edge"><title>Node25&#45;&gt;Node15</title>
<path fill="none" stroke="midnightblue" d="M358.019,-238C379.706,-238 407.582,-238 431.11,-238"/>
<polygon fill="midnightblue" stroke="midnightblue" points="431.235,-241.5 441.235,-238 431.235,-234.5 431.235,-241.5"/>
</g>
</g>
</svg>
