<?xml version="1.0" encoding="UTF-8" standalone="no"?>
<!DOCTYPE svg PUBLIC "-//W3C//DTD SVG 1.1//EN"
 "http://www.w3.org/Graphics/SVG/1.1/DTD/svg11.dtd">
<!-- Generated by graphviz version 2.28.0 (20121221.0049)
 -->
<!-- Title: edit_dd_sel Pages: 1 -->
<svg width="546pt" height="66pt"
 viewBox="0.00 0.00 546.00 66.00" xmlns="http://www.w3.org/2000/svg" xmlns:xlink="http://www.w3.org/1999/xlink">
<g id="graph1" class="graph" transform="scale(1 1) rotate(0) translate(4 62)">
<title>edit_dd_sel</title>
<polygon fill="white" stroke="white" points="-4,5 -4,-62 543,-62 543,5 -4,5"/>
<!-- Node1 -->
<g id="node1" class="node"><title>Node1</title>
<polygon fill="#bfbfbf" stroke="black" points="0,-19.5 0,-38.5 66,-38.5 66,-19.5 0,-19.5"/>
<text text-anchor="middle" x="33" y="-26.5" font-family="Helvetica,sans-Serif" font-size="10.00">edit_dd_sel</text>
</g>
<!-- Node2 -->
<g id="node3" class="node"><title>Node2</title>
<a xlink:href="../../db/d85/display_8c.xhtml#a0e030727a1bc4d1418bb96cc71350203" target="_top" xlink:title="Activates a virtual screen.">
<polygon fill="white" stroke="black" points="102,-38.5 102,-57.5 206,-57.5 206,-38.5 102,-38.5"/>
<text text-anchor="middle" x="154" y="-45.5" font-family="Helvetica,sans-Serif" font-size="10.00">lcd_screen_activate</text>
</a>
</g>
<!-- Node1&#45;&gt;Node2 -->
<g id="edge2" class="edge"><title>Node1&#45;&gt;Node2</title>
<path fill="none" stroke="midnightblue" d="M66.2031,-34.1417C74.2049,-35.4193 83.0476,-36.8311 91.9369,-38.2504"/>
<polygon fill="midnightblue" stroke="midnightblue" points="91.5239,-41.7287 101.951,-39.8493 92.6276,-34.8163 91.5239,-41.7287"/>
</g>
<!-- Node4 -->
<g id="node7" class="node"><title>Node4</title>
<a xlink:href="../../db/d85/display_8c.xhtml#a6f2d5cdda31a73b43a569cb3d1a64165" target="_top" xlink:title="Displays several consecutive characters.">
<polygon fill="white" stroke="black" points="115.5,-0.5 115.5,-19.5 192.5,-19.5 192.5,-0.5 115.5,-0.5"/>
<text text-anchor="middle" x="154" y="-7.5" font-family="Helvetica,sans-Serif" font-size="10.00">display_chars</text>
</a>
</g>
<!-- Node1&#45;&gt;Node4 -->
<g id="edge6" class="edge"><title>Node1&#45;&gt;Node4</title>
<path fill="none" stroke="midnightblue" d="M66.2031,-23.8583C78.152,-21.9505 91.9761,-19.7433 105.03,-17.659"/>
<polygon fill="midnightblue" stroke="midnightblue" points="105.961,-21.0549 115.284,-16.0219 104.857,-14.1424 105.961,-21.0549"/>
</g>
<!-- Node3 -->
<g id="node5" class="node"><title>Node3</title>
<a xlink:href="../../d2/df2/openchronos_8c.xhtml#a72f5591868e0c66a539eacdcd0b520d7" target="_top" xlink:title="Increment/decrements value by one without exiting the [lower, upper] interval.">
<polygon fill="white" stroke="black" points="242.5,-38.5 242.5,-57.5 313.5,-57.5 313.5,-38.5 242.5,-38.5"/>
<text text-anchor="middle" x="278" y="-45.5" font-family="Helvetica,sans-Serif" font-size="10.00">helpers_loop</text>
</a>
</g>
<!-- Node2&#45;&gt;Node3 -->
<g id="edge4" class="edge"><title>Node2&#45;&gt;Node3</title>
<path fill="none" stroke="midnightblue" d="M206.032,-48C214.759,-48 223.766,-48 232.312,-48"/>
<polygon fill="midnightblue" stroke="midnightblue" points="232.458,-51.5001 242.458,-48 232.458,-44.5001 232.458,-51.5001"/>
</g>
<!-- Node5 -->
<g id="node9" class="node"><title>Node5</title>
<a xlink:href="../../db/d85/display_8c.xhtml#a3ae30196af91197037d50cb49de1d109" target="_top" xlink:title="Displays a single character.">
<polygon fill="white" stroke="black" points="242.5,-0.5 242.5,-19.5 313.5,-19.5 313.5,-0.5 242.5,-0.5"/>
<text text-anchor="middle" x="278" y="-7.5" font-family="Helvetica,sans-Serif" font-size="10.00">display_char</text>
</a>
</g>
<!-- Node4&#45;&gt;Node5 -->
<g id="edge8" class="edge"><title>Node4&#45;&gt;Node5</title>
<path fill="none" stroke="midnightblue" d="M192.6,-10C205.085,-10 219.112,-10 232.091,-10"/>
<polygon fill="midnightblue" stroke="midnightblue" points="232.227,-13.5001 242.227,-10 232.227,-6.5001 232.227,-13.5001"/>
</g>
<!-- Node6 -->
<g id="node11" class="node"><title>Node6</title>
<a xlink:href="../../db/d85/display_8c.xhtml#a9275035317878022cf9eacf6b0a5be72" target="_top" xlink:title="Display a custom collection of segments.">
<polygon fill="white" stroke="black" points="350,-0.5 350,-19.5 418,-19.5 418,-0.5 350,-0.5"/>
<text text-anchor="middle" x="384" y="-7.5" font-family="Helvetica,sans-Serif" font-size="10.00">display_bits</text>
</a>
</g>
<!-- Node5&#45;&gt;Node6 -->
<g id="edge10" class="edge"><title>Node5&#45;&gt;Node6</title>
<path fill="none" stroke="midnightblue" d="M313.63,-10C322.04,-10 331.133,-10 339.882,-10"/>
<polygon fill="midnightblue" stroke="midnightblue" points="339.931,-13.5001 349.931,-10 339.931,-6.5001 339.931,-13.5001"/>
</g>
<!-- Node7 -->
<g id="node13" class="node"><title>Node7</title>
<a xlink:href="../../db/d85/display_8c.xhtml#a710739913e8ea1b71dd433b8311211fd" target="_top" xlink:title="write_lcd_mem">
<polygon fill="white" stroke="black" points="454.5,-0.5 454.5,-19.5 537.5,-19.5 537.5,-0.5 454.5,-0.5"/>
<text text-anchor="middle" x="496" y="-7.5" font-family="Helvetica,sans-Serif" font-size="10.00">write_lcd_mem</text>
</a>
</g>
<!-- Node6&#45;&gt;Node7 -->
<g id="edge12" class="edge"><title>Node6&#45;&gt;Node7</title>
<path fill="none" stroke="midnightblue" d="M418.004,-10C426.191,-10 435.157,-10 443.985,-10"/>
<polygon fill="midnightblue" stroke="midnightblue" points="444.231,-13.5001 454.231,-10 444.231,-6.5001 444.231,-13.5001"/>
</g>
</g>
</svg>
