<?xml version="1.0" encoding="UTF-8" standalone="no"?>
<!DOCTYPE svg PUBLIC "-//W3C//DTD SVG 1.1//EN"
 "http://www.w3.org/Graphics/SVG/1.1/DTD/svg11.dtd">
<!-- Generated by graphviz version 2.28.0 (20121221.0049)
 -->
<!-- Title: edit_save Pages: 1 -->
<svg width="588pt" height="142pt"
 viewBox="0.00 0.00 588.00 142.00" xmlns="http://www.w3.org/2000/svg" xmlns:xlink="http://www.w3.org/1999/xlink">
<g id="graph1" class="graph" transform="scale(1 1) rotate(0) translate(4 138)">
<title>edit_save</title>
<polygon fill="white" stroke="white" points="-4,5 -4,-138 585,-138 585,5 -4,5"/>
<!-- Node1 -->
<g id="node1" class="node"><title>Node1</title>
<polygon fill="#bfbfbf" stroke="black" points="0.5,-57.5 0.5,-76.5 59.5,-76.5 59.5,-57.5 0.5,-57.5"/>
<text text-anchor="middle" x="30" y="-64.5" font-family="Helvetica,sans-Serif" font-size="10.00">edit_save</text>
</g>
<!-- Node2 -->
<g id="node3" class="node"><title>Node2</title>
<a xlink:href="../../d4/d9d/rtca_8c.xhtml#ac8b1afe9dddfab4d4b414054bb8c3bda" target="_top" xlink:title="rtca_set_time">
<polygon fill="white" stroke="black" points="110,-114.5 110,-133.5 186,-133.5 186,-114.5 110,-114.5"/>
<text text-anchor="middle" x="148" y="-121.5" font-family="Helvetica,sans-Serif" font-size="10.00">rtca_set_time</text>
</a>
</g>
<!-- Node1&#45;&gt;Node2 -->
<g id="edge2" class="edge"><title>Node1&#45;&gt;Node2</title>
<path fill="none" stroke="midnightblue" d="M45.5779,-76.5036C58.4986,-84.6861 78.0475,-96.4863 96,-105 100.309,-107.043 104.901,-109.019 109.497,-110.875"/>
<polygon fill="midnightblue" stroke="midnightblue" points="108.258,-114.149 118.847,-114.499 110.788,-107.622 108.258,-114.149"/>
</g>
<!-- Node3 -->
<g id="node5" class="node"><title>Node3</title>
<a xlink:href="../../d4/d9d/rtca_8c.xhtml#ae8a24531bf3ff143e0027d126309ecd4" target="_top" xlink:title="rtca_set_date">
<polygon fill="white" stroke="black" points="110,-76.5 110,-95.5 186,-95.5 186,-76.5 110,-76.5"/>
<text text-anchor="middle" x="148" y="-83.5" font-family="Helvetica,sans-Serif" font-size="10.00">rtca_set_date</text>
</a>
</g>
<!-- Node1&#45;&gt;Node3 -->
<g id="edge4" class="edge"><title>Node1&#45;&gt;Node3</title>
<path fill="none" stroke="midnightblue" d="M59.6742,-71.6966C71.7569,-73.6757 86.144,-76.0322 99.7193,-78.2558"/>
<polygon fill="midnightblue" stroke="midnightblue" points="99.4564,-81.7592 109.891,-79.9217 100.588,-74.8513 99.4564,-81.7592"/>
</g>
<!-- Node6 -->
<g id="node11" class="node"><title>Node6</title>
<a xlink:href="../../db/d85/display_8c.xhtml#a6f2d5cdda31a73b43a569cb3d1a64165" target="_top" xlink:title="Displays several consecutive characters.">
<polygon fill="white" stroke="black" points="109.5,-38.5 109.5,-57.5 186.5,-57.5 186.5,-38.5 109.5,-38.5"/>
<text text-anchor="middle" x="148" y="-45.5" font-family="Helvetica,sans-Serif" font-size="10.00">display_chars</text>
</a>
</g>
<!-- Node1&#45;&gt;Node6 -->
<g id="edge10" class="edge"><title>Node1&#45;&gt;Node6</title>
<path fill="none" stroke="midnightblue" d="M59.6742,-62.3034C71.65,-60.3418 85.8895,-58.0095 99.3587,-55.8033"/>
<polygon fill="midnightblue" stroke="midnightblue" points="100.156,-59.2195 109.458,-54.1491 99.024,-52.3116 100.156,-59.2195"/>
</g>
<!-- Node10 -->
<g id="node19" class="node"><title>Node10</title>
<a xlink:href="../../db/d85/display_8c.xhtml#a0e030727a1bc4d1418bb96cc71350203" target="_top" xlink:title="Activates a virtual screen.">
<polygon fill="white" stroke="black" points="96,-0.5 96,-19.5 200,-19.5 200,-0.5 96,-0.5"/>
<text text-anchor="middle" x="148" y="-7.5" font-family="Helvetica,sans-Serif" font-size="10.00">lcd_screen_activate</text>
</a>
</g>
<!-- Node1&#45;&gt;Node10 -->
<g id="edge18" class="edge"><title>Node1&#45;&gt;Node10</title>
<path fill="none" stroke="midnightblue" d="M45.5779,-57.4964C58.4986,-49.3139 78.0475,-37.5137 96,-29 100.309,-26.9567 104.901,-24.9806 109.497,-23.1246"/>
<polygon fill="midnightblue" stroke="midnightblue" points="110.788,-26.3779 118.847,-19.5006 108.258,-19.851 110.788,-26.3779"/>
</g>
<!-- Node4 -->
<g id="node7" class="node"><title>Node4</title>
<a xlink:href="../../d4/d9d/rtca_8c.xhtml#ae4754ee1b841e8b4e838253fb0b4ebd3" target="_top" xlink:title="rtca_get_max_days">
<polygon fill="white" stroke="black" points="245,-114.5 245,-133.5 347,-133.5 347,-114.5 245,-114.5"/>
<text text-anchor="middle" x="296" y="-121.5" font-family="Helvetica,sans-Serif" font-size="10.00">rtca_get_max_days</text>
</a>
</g>
<!-- Node3&#45;&gt;Node4 -->
<g id="edge6" class="edge"><title>Node3&#45;&gt;Node4</title>
<path fill="none" stroke="midnightblue" d="M185.842,-95.589C204.848,-100.536 228.229,-106.621 248.469,-111.889"/>
<polygon fill="midnightblue" stroke="midnightblue" points="247.864,-115.348 258.423,-114.48 249.627,-108.574 247.864,-115.348"/>
</g>
<!-- Node5 -->
<g id="node9" class="node"><title>Node5</title>
<a xlink:href="../../d4/d53/rtc__dst_8h.xhtml#ad054f92362bb72817d29c5a54898b6f9" target="_top" xlink:title="rtc_dst_calculate_dates">
<polygon fill="white" stroke="black" points="236,-76.5 236,-95.5 356,-95.5 356,-76.5 236,-76.5"/>
<text text-anchor="middle" x="296" y="-83.5" font-family="Helvetica,sans-Serif" font-size="10.00">rtc_dst_calculate_dates</text>
</a>
</g>
<!-- Node3&#45;&gt;Node5 -->
<g id="edge8" class="edge"><title>Node3&#45;&gt;Node5</title>
<path fill="none" stroke="midnightblue" d="M186.22,-86C198.203,-86 211.896,-86 225.431,-86"/>
<polygon fill="midnightblue" stroke="midnightblue" points="225.72,-89.5001 235.72,-86 225.72,-82.5001 225.72,-89.5001"/>
</g>
<!-- Node7 -->
<g id="node13" class="node"><title>Node7</title>
<a xlink:href="../../db/d85/display_8c.xhtml#a3ae30196af91197037d50cb49de1d109" target="_top" xlink:title="Displays a single character.">
<polygon fill="white" stroke="black" points="260.5,-38.5 260.5,-57.5 331.5,-57.5 331.5,-38.5 260.5,-38.5"/>
<text text-anchor="middle" x="296" y="-45.5" font-family="Helvetica,sans-Serif" font-size="10.00">display_char</text>
</a>
</g>
<!-- Node6&#45;&gt;Node7 -->
<g id="edge12" class="edge"><title>Node6&#45;&gt;Node7</title>
<path fill="none" stroke="midnightblue" d="M186.599,-48C205.881,-48 229.511,-48 249.782,-48"/>
<polygon fill="midnightblue" stroke="midnightblue" points="250.035,-51.5001 260.035,-48 250.035,-44.5001 250.035,-51.5001"/>
</g>
<!-- Node8 -->
<g id="node15" class="node"><title>Node8</title>
<a xlink:href="../../db/d85/display_8c.xhtml#a9275035317878022cf9eacf6b0a5be72" target="_top" xlink:title="Display a custom collection of segments.">
<polygon fill="white" stroke="black" points="392,-38.5 392,-57.5 460,-57.5 460,-38.5 392,-38.5"/>
<text text-anchor="middle" x="426" y="-45.5" font-family="Helvetica,sans-Serif" font-size="10.00">display_bits</text>
</a>
</g>
<!-- Node7&#45;&gt;Node8 -->
<g id="edge14" class="edge"><title>Node7&#45;&gt;Node8</title>
<path fill="none" stroke="midnightblue" d="M331.639,-48C346.944,-48 365.109,-48 381.33,-48"/>
<polygon fill="midnightblue" stroke="midnightblue" points="381.659,-51.5001 391.659,-48 381.659,-44.5001 381.659,-51.5001"/>
</g>
<!-- Node9 -->
<g id="node17" class="node"><title>Node9</title>
<a xlink:href="../../db/d85/display_8c.xhtml#a710739913e8ea1b71dd433b8311211fd" target="_top" xlink:title="write_lcd_mem">
<polygon fill="white" stroke="black" points="496.5,-38.5 496.5,-57.5 579.5,-57.5 579.5,-38.5 496.5,-38.5"/>
<text text-anchor="middle" x="538" y="-45.5" font-family="Helvetica,sans-Serif" font-size="10.00">write_lcd_mem</text>
</a>
</g>
<!-- Node8&#45;&gt;Node9 -->
<g id="edge16" class="edge"><title>Node8&#45;&gt;Node9</title>
<path fill="none" stroke="midnightblue" d="M460.004,-48C468.191,-48 477.157,-48 485.985,-48"/>
<polygon fill="midnightblue" stroke="midnightblue" points="486.231,-51.5001 496.231,-48 486.231,-44.5001 486.231,-51.5001"/>
</g>
<!-- Node11 -->
<g id="node21" class="node"><title>Node11</title>
<a xlink:href="../../d2/df2/openchronos_8c.xhtml#a72f5591868e0c66a539eacdcd0b520d7" target="_top" xlink:title="Increment/decrements value by one without exiting the [lower, upper] interval.">
<polygon fill="white" stroke="black" points="260.5,-0.5 260.5,-19.5 331.5,-19.5 331.5,-0.5 260.5,-0.5"/>
<text text-anchor="middle" x="296" y="-7.5" font-family="Helvetica,sans-Serif" font-size="10.00">helpers_loop</text>
</a>
</g>
<!-- Node10&#45;&gt;Node11 -->
<g id="edge20" class="edge"><title>Node10&#45;&gt;Node11</title>
<path fill="none" stroke="midnightblue" d="M200.064,-10C216.388,-10 234.325,-10 250.171,-10"/>
<polygon fill="midnightblue" stroke="midnightblue" points="250.244,-13.5001 260.244,-10 250.244,-6.5001 250.244,-13.5001"/>
</g>
</g>
</svg>
