<?xml version="1.0" encoding="UTF-8" standalone="no"?>
<!DOCTYPE svg PUBLIC "-//W3C//DTD SVG 1.1//EN"
 "http://www.w3.org/Graphics/SVG/1.1/DTD/svg11.dtd">
<!-- Generated by graphviz version 2.28.0 (20121221.0049)
 -->
<!-- Title: clock_activated Pages: 1 -->
<!--zoomable 180 -->
<svg id="main" version="1.1" xmlns="http://www.w3.org/2000/svg" xmlns:xlink="http://www.w3.org/1999/xlink" xml:space="preserve" onload="init(evt)">
        <defs>
                <circle id="rim" cx="0" cy="0" r="7"/>
                <circle id="rim2" cx="0" cy="0" r="3.5"/>
                <g id="zoomPlus">
                        <use xlink:href="#rim" fill="#404040">
                                <set attributeName="fill" to="#808080" begin="zoomplus.mouseover" end="zoomplus.mouseout"/>
                        </use>
                        <path d="M-4,0h8M0,-4v8" fill="none" stroke="white" stroke-width="1.5" pointer-events="none"/>
                </g>
                <g id="zoomMin">
                        <use xlink:href="#rim" fill="#404040">
                                <set attributeName="fill" to="#808080" begin="zoomminus.mouseover" end="zoomminus.mouseout"/>
                        </use>
                        <path d="M-4,0h8" fill="none" stroke="white" stroke-width="1.5" pointer-events="none"/>
                </g>
                <g id="dirArrow">
                        <path fill="none" stroke="white" stroke-width="1.5" d="M0,-3.0v7 M-2.5,-0.5L0,-3.0L2.5,-0.5"/>
                </g>
               <g id="resetDef">
                       <use xlink:href="#rim2" fill="#404040">
                               <set attributeName="fill" to="#808080" begin="reset.mouseover" end="reset.mouseout"/>
                       </use>
               </g>
        </defs>

<script type="text/javascript">
var viewWidth = 502;
var viewHeight = 180;
var sectionId = 'dynsection-1';
</script>
<script xlink:href="../../svgpan.js"/>
<svg id="graph" class="graph">
<g id="viewport">
<title>clock_activated</title>
<polygon fill="white" stroke="white" points="-4,5 -4,-176 499,-176 499,5 -4,5"/>
<!-- Node1 -->
<g id="node1" class="node"><title>Node1</title>
<polygon fill="#bfbfbf" stroke="black" points="0.5,-76.5 0.5,-95.5 85.5,-95.5 85.5,-76.5 0.5,-76.5"/>
<text text-anchor="middle" x="43" y="-83.5" font-family="Helvetica,sans-Serif" font-size="10.00">clock_activated</text>
</g>
<!-- Node2 -->
<g id="node3" class="node"><title>Node2</title>
<a xlink:href="../../d2/df2/openchronos_8c.xhtml#a5aeb07d7031b5d53ca8605bf398714a2" target="_top" xlink:title="Registers a node in the message bus.">
<polygon fill="white" stroke="black" points="122.5,-152.5 122.5,-171.5 253.5,-171.5 253.5,-152.5 122.5,-152.5"/>
<text text-anchor="middle" x="188" y="-159.5" font-family="Helvetica,sans-Serif" font-size="10.00">sys_messagebus_register</text>
</a>
</g>
<!-- Node1&#45;&gt;Node2 -->
<g id="edge2" class="edge"><title>Node1&#45;&gt;Node2</title>
<path fill="none" stroke="midnightblue" d="M54.5771,-95.6126C68.8888,-108.156 95.6703,-130.029 122,-143 126.627,-145.28 131.578,-147.336 136.605,-149.178"/>
<polygon fill="midnightblue" stroke="midnightblue" points="135.707,-152.57 146.301,-152.461 137.952,-145.939 135.707,-152.57"/>
</g>
<!-- Node3 -->
<g id="node5" class="node"><title>Node3</title>
<a xlink:href="../../dc/d54/clock_8c.xhtml#a308a03c1199b5494e861bd9f5b68589f" target="_top" xlink:title="clock_event">
<polygon fill="white" stroke="black" points="153.5,-114.5 153.5,-133.5 222.5,-133.5 222.5,-114.5 153.5,-114.5"/>
<text text-anchor="middle" x="188" y="-121.5" font-family="Helvetica,sans-Serif" font-size="10.00">clock_event</text>
</a>
</g>
<!-- Node1&#45;&gt;Node3 -->
<g id="edge4" class="edge"><title>Node1&#45;&gt;Node3</title>
<path fill="none" stroke="midnightblue" d="M80.0849,-95.589C99.3374,-100.705 123.173,-107.039 143.449,-112.427"/>
<polygon fill="midnightblue" stroke="midnightblue" points="142.819,-115.881 153.383,-115.067 144.617,-109.116 142.819,-115.881"/>
</g>
<!-- Node4 -->
<g id="node7" class="node"><title>Node4</title>
<a xlink:href="../../db/d85/display_8c.xhtml#af604e78dcc4e0f1a204b2180c5e54957" target="_top" xlink:title="Displays a symbol.">
<polygon fill="white" stroke="black" points="290,-76.5 290,-95.5 374,-95.5 374,-76.5 290,-76.5"/>
<text text-anchor="middle" x="332" y="-83.5" font-family="Helvetica,sans-Serif" font-size="10.00">display_symbol</text>
</a>
</g>
<!-- Node1&#45;&gt;Node4 -->
<g id="edge12" class="edge"><title>Node1&#45;&gt;Node4</title>
<path fill="none" stroke="midnightblue" d="M85.7323,-86C136.997,-86 223.962,-86 279.379,-86"/>
<polygon fill="midnightblue" stroke="midnightblue" points="279.683,-89.5001 289.683,-86 279.683,-82.5001 279.683,-89.5001"/>
</g>
<!-- Node6 -->
<g id="node11" class="node"><title>Node6</title>
<a xlink:href="../../db/d85/display_8c.xhtml#a4c1000a508e4527145c75b4827d81dd8" target="_top" xlink:title="Creates virtual screens.">
<polygon fill="white" stroke="black" points="137.5,-38.5 137.5,-57.5 238.5,-57.5 238.5,-38.5 137.5,-38.5"/>
<text text-anchor="middle" x="188" y="-45.5" font-family="Helvetica,sans-Serif" font-size="10.00">lcd_screens_create</text>
</a>
</g>
<!-- Node1&#45;&gt;Node6 -->
<g id="edge10" class="edge"><title>Node1&#45;&gt;Node6</title>
<path fill="none" stroke="midnightblue" d="M80.0849,-76.411C98.6296,-71.4831 121.426,-65.4251 141.199,-60.1709"/>
<polygon fill="midnightblue" stroke="midnightblue" points="142.161,-63.5368 150.927,-57.5859 140.363,-56.7716 142.161,-63.5368"/>
</g>
<!-- Node7 -->
<g id="node14" class="node"><title>Node7</title>
<a xlink:href="../../db/d85/display_8c.xhtml#a3ae30196af91197037d50cb49de1d109" target="_top" xlink:title="Displays a single character.">
<polygon fill="white" stroke="black" points="152.5,-0.5 152.5,-19.5 223.5,-19.5 223.5,-0.5 152.5,-0.5"/>
<text text-anchor="middle" x="188" y="-7.5" font-family="Helvetica,sans-Serif" font-size="10.00">display_char</text>
</a>
</g>
<!-- Node1&#45;&gt;Node7 -->
<g id="edge14" class="edge"><title>Node1&#45;&gt;Node7</title>
<path fill="none" stroke="midnightblue" d="M54.5771,-76.3874C68.8888,-63.8442 95.6703,-41.9707 122,-29 128.526,-25.7852 135.694,-23.0145 142.813,-20.661"/>
<polygon fill="midnightblue" stroke="midnightblue" points="143.895,-23.9903 152.426,-17.7078 141.839,-17.299 143.895,-23.9903"/>
</g>
<!-- Node3&#45;&gt;Node4 -->
<g id="edge6" class="edge"><title>Node3&#45;&gt;Node4</title>
<path fill="none" stroke="midnightblue" d="M222.652,-114.995C241.47,-109.959 265.182,-103.613 285.622,-98.1433"/>
<polygon fill="midnightblue" stroke="midnightblue" points="286.603,-101.504 295.358,-95.538 284.793,-94.7422 286.603,-101.504"/>
</g>
<!-- Node5 -->
<g id="node9" class="node"><title>Node5</title>
<a xlink:href="../../db/d85/display_8c.xhtml#a710739913e8ea1b71dd433b8311211fd" target="_top" xlink:title="write_lcd_mem">
<polygon fill="white" stroke="black" points="410.5,-57.5 410.5,-76.5 493.5,-76.5 493.5,-57.5 410.5,-57.5"/>
<text text-anchor="middle" x="452" y="-64.5" font-family="Helvetica,sans-Serif" font-size="10.00">write_lcd_mem</text>
</a>
</g>
<!-- Node4&#45;&gt;Node5 -->
<g id="edge8" class="edge"><title>Node4&#45;&gt;Node5</title>
<path fill="none" stroke="midnightblue" d="M374.271,-79.3547C382.678,-78.001 391.615,-76.562 400.306,-75.1626"/>
<polygon fill="midnightblue" stroke="midnightblue" points="401.033,-78.5906 410.35,-73.5454 399.921,-71.6797 401.033,-78.5906"/>
</g>
<!-- Node8 -->
<g id="node16" class="node"><title>Node8</title>
<a xlink:href="../../db/d85/display_8c.xhtml#a9275035317878022cf9eacf6b0a5be72" target="_top" xlink:title="Display a custom collection of segments.">
<polygon fill="white" stroke="black" points="298,-19.5 298,-38.5 366,-38.5 366,-19.5 298,-19.5"/>
<text text-anchor="middle" x="332" y="-26.5" font-family="Helvetica,sans-Serif" font-size="10.00">display_bits</text>
</a>
</g>
<!-- Node7&#45;&gt;Node8 -->
<g id="edge16" class="edge"><title>Node7&#45;&gt;Node8</title>
<path fill="none" stroke="midnightblue" d="M223.737,-14.6479C242.983,-17.2231 267.088,-20.4484 287.57,-23.1889"/>
<polygon fill="midnightblue" stroke="midnightblue" points="287.223,-26.6737 297.599,-24.5309 288.152,-19.7355 287.223,-26.6737"/>
</g>
<!-- Node8&#45;&gt;Node5 -->
<g id="edge18" class="edge"><title>Node8&#45;&gt;Node5</title>
<path fill="none" stroke="midnightblue" d="M362.776,-38.589C377.59,-43.3594 395.691,-49.1888 411.634,-54.3229"/>
<polygon fill="midnightblue" stroke="midnightblue" points="410.642,-57.6802 421.233,-57.4141 412.787,-51.0172 410.642,-57.6802"/>
</g>
</g>
</svg>
        <g id="navigator" transform="translate(0 0)" fill="#404254">
                <rect fill="#f2f5e9" fill-opacity="0.5" stroke="#606060" stroke-width=".5" x="0" y="0" width="60" height="60"/>
                <use id="zoomplus" xlink:href="#zoomPlus" x="17" y="9" onmousedown="handleZoom(evt,'in')"/>
                <use id="zoomminus" xlink:href="#zoomMin" x="42" y="9" onmousedown="handleZoom(evt,'out')"/>
                <use id="reset" xlink:href="#resetDef" x="30" y="36" onmousedown="handleReset()"/>
                <g id="arrowUp" xlink:href="#dirArrow" transform="translate(30 24)" onmousedown="handlePan(0,-1)">
                  <use xlink:href="#rim" fill="#404040">
                        <set attributeName="fill" to="#808080" begin="arrowUp.mouseover" end="arrowUp.mouseout"/>
                  </use>
                  <path fill="none" stroke="white" stroke-width="1.5" d="M0,-3.0v7 M-2.5,-0.5L0,-3.0L2.5,-0.5"/>
                </g>
                <g id="arrowRight" xlink:href="#dirArrow" transform="rotate(90) translate(36 -43)" onmousedown="handlePan(1,0)">
                  <use xlink:href="#rim" fill="#404040">
                        <set attributeName="fill" to="#808080" begin="arrowRight.mouseover" end="arrowRight.mouseout"/>
                  </use>
                  <path fill="none" stroke="white" stroke-width="1.5" d="M0,-3.0v7 M-2.5,-0.5L0,-3.0L2.5,-0.5"/>
                </g>
                <g id="arrowDown" xlink:href="#dirArrow" transform="rotate(180) translate(-30 -48)" onmousedown="handlePan(0,1)">
                  <use xlink:href="#rim" fill="#404040">
                        <set attributeName="fill" to="#808080" begin="arrowDown.mouseover" end="arrowDown.mouseout"/>
                  </use>
                  <path fill="none" stroke="white" stroke-width="1.5" d="M0,-3.0v7 M-2.5,-0.5L0,-3.0L2.5,-0.5"/>
                </g>
                <g id="arrowLeft" xlink:href="#dirArrow" transform="rotate(270) translate(-36 17)" onmousedown="handlePan(-1,0)">
                  <use xlink:href="#rim" fill="#404040">
                        <set attributeName="fill" to="#808080" begin="arrowLeft.mouseover" end="arrowLeft.mouseout"/>
                  </use>
                  <path fill="none" stroke="white" stroke-width="1.5" d="M0,-3.0v7 M-2.5,-0.5L0,-3.0L2.5,-0.5"/>
                </g>
        </g>
        <svg viewBox="0 0 15 15" width="100%" height="30px" preserveAspectRatio="xMaxYMin meet">
         <g id="arrow_out" transform="scale(0.3 0.3)">
          <a xlink:href="clock_8c_a3e731bc12fc17e0ce19d9766c06b3a32_cgraph_org.svg" target="_base">
           <rect id="button" ry="5" rx="5" y="6" x="6" height="38" width="38"
                fill="#f2f5e9" fill-opacity="0.5" stroke="#606060" stroke-width="1.0"/>
           <path id="arrow"
             d="M 11.500037,31.436501 C 11.940474,20.09759 22.043105,11.32322 32.158766,21.979434 L 37.068811,17.246167 C 37.068811,17.246167 37.088388,32 37.088388,32 L 22.160133,31.978069 C 22.160133,31.978069 26.997745,27.140456 26.997745,27.140456 C 18.528582,18.264221 13.291696,25.230495 11.500037,31.436501 z"
             style="fill:#404040;"/>
          </a>
         </g>
        </svg>
</svg>
