<?xml version="1.0" encoding="UTF-8" standalone="no"?>
<!DOCTYPE svg PUBLIC "-//W3C//DTD SVG 1.1//EN"
 "http://www.w3.org/Graphics/SVG/1.1/DTD/svg11.dtd">
<!-- Generated by graphviz version 2.28.0 (20121221.0049)
 -->
<!-- Title: edit_dd_set Pages: 1 -->
<svg width="214pt" height="66pt"
 viewBox="0.00 0.00 214.00 66.00" xmlns="http://www.w3.org/2000/svg" xmlns:xlink="http://www.w3.org/1999/xlink">
<g id="graph1" class="graph" transform="scale(1 1) rotate(0) translate(4 62)">
<title>edit_dd_set</title>
<polygon fill="white" stroke="white" points="-4,5 -4,-62 211,-62 211,5 -4,5"/>
<!-- Node1 -->
<g id="node1" class="node"><title>Node1</title>
<polygon fill="#bfbfbf" stroke="black" points="0.5,-19.5 0.5,-38.5 67.5,-38.5 67.5,-19.5 0.5,-19.5"/>
<text text-anchor="middle" x="34" y="-26.5" font-family="Helvetica,sans-Serif" font-size="10.00">edit_dd_set</text>
</g>
<!-- Node2 -->
<g id="node3" class="node"><title>Node2</title>
<a xlink:href="../../d2/df2/openchronos_8c.xhtml#a72f5591868e0c66a539eacdcd0b520d7" target="_top" xlink:title="Increment/decrements value by one without exiting the [lower, upper] interval.">
<polygon fill="white" stroke="black" points="119.5,-38.5 119.5,-57.5 190.5,-57.5 190.5,-38.5 119.5,-38.5"/>
<text text-anchor="middle" x="155" y="-45.5" font-family="Helvetica,sans-Serif" font-size="10.00">helpers_loop</text>
</a>
</g>
<!-- Node1&#45;&gt;Node2 -->
<g id="edge2" class="edge"><title>Node1&#45;&gt;Node2</title>
<path fill="none" stroke="midnightblue" d="M67.5173,-34.1918C80.4751,-36.2607 95.599,-38.6755 109.543,-40.9019"/>
<polygon fill="midnightblue" stroke="midnightblue" points="109.014,-44.3616 119.44,-42.4821 110.117,-37.4491 109.014,-44.3616"/>
</g>
<!-- Node3 -->
<g id="node5" class="node"><title>Node3</title>
<a xlink:href="../../d4/d9d/rtca_8c.xhtml#ae4754ee1b841e8b4e838253fb0b4ebd3" target="_top" xlink:title="rtca_get_max_days">
<polygon fill="white" stroke="black" points="104,-0.5 104,-19.5 206,-19.5 206,-0.5 104,-0.5"/>
<text text-anchor="middle" x="155" y="-7.5" font-family="Helvetica,sans-Serif" font-size="10.00">rtca_get_max_days</text>
</a>
</g>
<!-- Node1&#45;&gt;Node3 -->
<g id="edge4" class="edge"><title>Node1&#45;&gt;Node3</title>
<path fill="none" stroke="midnightblue" d="M67.5173,-23.8082C75.6171,-22.5149 84.5633,-21.0865 93.5387,-19.6535"/>
<polygon fill="midnightblue" stroke="midnightblue" points="94.318,-23.0735 103.641,-18.0405 93.2143,-16.161 94.318,-23.0735"/>
</g>
</g>
</svg>
