<?xml version="1.0" encoding="UTF-8" standalone="no"?>
<!DOCTYPE svg PUBLIC "-//W3C//DTD SVG 1.1//EN"
 "http://www.w3.org/Graphics/SVG/1.1/DTD/svg11.dtd">
<!-- Generated by graphviz version 2.28.0 (20121221.0049)
 -->
<!-- Title: menu Pages: 1 -->
<svg width="146pt" height="154pt"
 viewBox="0.00 0.00 146.00 154.00" xmlns="http://www.w3.org/2000/svg" xmlns:xlink="http://www.w3.org/1999/xlink">
<g id="graph1" class="graph" transform="scale(1 1) rotate(0) translate(4 150)">
<title>menu</title>
<polygon fill="white" stroke="white" points="-4,5 -4,-150 143,-150 143,5 -4,5"/>
<!-- Node1 -->
<g id="node1" class="node"><title>Node1</title>
<polygon fill="#bfbfbf" stroke="black" points="0,-0.5 0,-145.5 92,-145.5 92,-0.5 0,-0.5"/>
<text text-anchor="middle" x="46" y="-133.5" font-family="Helvetica,sans-Serif" font-size="10.00">menu</text>
<polyline fill="none" stroke="black" points="0,-126.5 92,-126.5 "/>
<text text-anchor="start" x="8" y="-114.5" font-family="Helvetica,sans-Serif" font-size="10.00">+ name</text>
<text text-anchor="start" x="8" y="-103.5" font-family="Helvetica,sans-Serif" font-size="10.00">+ up_btn_fn</text>
<text text-anchor="start" x="8" y="-92.5" font-family="Helvetica,sans-Serif" font-size="10.00">+ down_btn_fn</text>
<text text-anchor="start" x="8" y="-81.5" font-family="Helvetica,sans-Serif" font-size="10.00">+ num_btn_fn</text>
<text text-anchor="start" x="8" y="-70.5" font-family="Helvetica,sans-Serif" font-size="10.00">+ lstar_btn_fn</text>
<text text-anchor="start" x="8" y="-59.5" font-family="Helvetica,sans-Serif" font-size="10.00">+ lnum_btn_fn</text>
<text text-anchor="start" x="8" y="-48.5" font-family="Helvetica,sans-Serif" font-size="10.00">+ updown_btn_fn</text>
<text text-anchor="start" x="8" y="-37.5" font-family="Helvetica,sans-Serif" font-size="10.00">+ activate_fn</text>
<text text-anchor="start" x="8" y="-26.5" font-family="Helvetica,sans-Serif" font-size="10.00">+ deactivate_fn</text>
<polyline fill="none" stroke="black" points="0,-19.5 92,-19.5 "/>
<text text-anchor="middle" x="46" y="-7.5" font-family="Helvetica,sans-Serif" font-size="10.00"> </text>
</g>
<!-- Node1&#45;&gt;Node1 -->
<g id="edge2" class="edge"><title>Node1&#45;&gt;Node1</title>
<path fill="none" stroke="#404040" d="M92.0242,-99.7067C102.406,-97.3007 110,-88.3984 110,-73 110,-63.6166 107.18,-56.6454 102.628,-52.0866"/>
<polygon fill="none" stroke="#404040" points="102.555,-52.0468 95.3717,-52.6804 92.0242,-46.2933 99.2074,-45.6598 102.555,-52.0468"/>
<text text-anchor="middle" x="124" y="-76" font-family="Helvetica,sans-Serif" font-size="10.00"> +prev</text>
<text text-anchor="middle" x="124" y="-65" font-family="Helvetica,sans-Serif" font-size="10.00">+next</text>
</g>
</g>
</svg>
