<?xml version="1.0" encoding="UTF-8" standalone="no"?>
<!DOCTYPE svg PUBLIC "-//W3C//DTD SVG 1.1//EN"
 "http://www.w3.org/Graphics/SVG/1.1/DTD/svg11.dtd">
<!-- Generated by graphviz version 2.28.0 (20121221.0049)
 -->
<!-- Title: core/openchronos.h Pages: 1 -->
<svg width="2509pt" height="140pt"
 viewBox="0.00 0.00 2509.00 140.00" xmlns="http://www.w3.org/2000/svg" xmlns:xlink="http://www.w3.org/1999/xlink">
<g id="graph1" class="graph" transform="scale(1 1) rotate(0) translate(4 136)">
<title>core/openchronos.h</title>
<polygon fill="white" stroke="white" points="-4,5 -4,-136 2506,-136 2506,5 -4,5"/>
<!-- Node1 -->
<g id="node1" class="node"><title>Node1</title>
<polygon fill="#bfbfbf" stroke="black" points="1314,-112.5 1314,-131.5 1416,-131.5 1416,-112.5 1314,-112.5"/>
<text text-anchor="middle" x="1365" y="-119.5" font-family="Helvetica,sans-Serif" font-size="10.00">core/openchronos.h</text>
</g>
<!-- Node2 -->
<g id="node3" class="node"><title>Node2</title>
<a xlink:href="../../d5/d82/boot_8c.xhtml" target="_top" xlink:title="On boot wireless updater.">
<polygon fill="white" stroke="black" points="525.5,-56.5 525.5,-75.5 590.5,-75.5 590.5,-56.5 525.5,-56.5"/>
<text text-anchor="middle" x="558" y="-63.5" font-family="Helvetica,sans-Serif" font-size="10.00">core/boot.c</text>
</a>
</g>
<!-- Node1&#45;&gt;Node2 -->
<g id="edge2" class="edge"><title>Node1&#45;&gt;Node2</title>
<path fill="none" stroke="midnightblue" d="M1303.51,-120.067C1173.89,-117.505 863.272,-108.236 605,-76 600.301,-75.4135 595.364,-74.642 590.529,-73.7969"/>
<polygon fill="midnightblue" stroke="midnightblue" points="1303.57,-123.568 1313.64,-120.26 1303.71,-116.57 1303.57,-123.568"/>
</g>
<!-- Node3 -->
<g id="node5" class="node"><title>Node3</title>
<a xlink:href="../../d2/df2/openchronos_8c.xhtml" target="_top" xlink:title="Main loop &amp; user interface.">
<polygon fill="white" stroke="black" points="1548,-0.5 1548,-19.5 1650,-19.5 1650,-0.5 1548,-0.5"/>
<text text-anchor="middle" x="1599" y="-7.5" font-family="Helvetica,sans-Serif" font-size="10.00">core/openchronos.c</text>
</a>
</g>
<!-- Node1&#45;&gt;Node3 -->
<g id="edge4" class="edge"><title>Node1&#45;&gt;Node3</title>
<path fill="none" stroke="midnightblue" d="M1426.29,-115.621C1482.74,-109.415 1560.95,-97.2285 1583,-76 1598.57,-61.0066 1599.96,-33.4875 1599.56,-19.5589"/>
<polygon fill="midnightblue" stroke="midnightblue" points="1425.6,-112.175 1416.03,-116.711 1426.34,-119.136 1425.6,-112.175"/>
</g>
<!-- Node4 -->
<g id="node7" class="node"><title>Node4</title>
<a xlink:href="../../d4/d68/display_8h.xhtml" target="_top" xlink:title="Display driver.">
<polygon fill="white" stroke="black" points="913,-56.5 913,-75.5 1001,-75.5 1001,-56.5 913,-56.5"/>
<text text-anchor="middle" x="957" y="-63.5" font-family="Helvetica,sans-Serif" font-size="10.00">drivers/display.h</text>
</a>
</g>
<!-- Node1&#45;&gt;Node4 -->
<g id="edge6" class="edge"><title>Node1&#45;&gt;Node4</title>
<path fill="none" stroke="midnightblue" d="M1303.69,-113.304C1234.5,-104.556 1118.6,-89.7057 1019,-76 1013.18,-75.1994 1007.06,-74.336 1001.02,-73.4721"/>
<polygon fill="midnightblue" stroke="midnightblue" points="1303.6,-116.822 1313.96,-114.603 1304.48,-109.877 1303.6,-116.822"/>
</g>
<!-- Node5 -->
<g id="node10" class="node"><title>Node5</title>
<a xlink:href="../../de/dd8/drivers_2battery_8c.xhtml" target="_top" xlink:title="Battery voltage measurement driver.">
<polygon fill="white" stroke="black" points="1668.5,-0.5 1668.5,-19.5 1755.5,-19.5 1755.5,-0.5 1668.5,-0.5"/>
<text text-anchor="middle" x="1712" y="-7.5" font-family="Helvetica,sans-Serif" font-size="10.00">drivers/battery.c</text>
</a>
</g>
<!-- Node1&#45;&gt;Node5 -->
<g id="edge102" class="edge"><title>Node1&#45;&gt;Node5</title>
<path fill="none" stroke="midnightblue" d="M1426.22,-115.393C1475.26,-109.501 1545.18,-97.9148 1603,-76 1641.32,-61.4755 1681.5,-33.7439 1700.6,-19.6641"/>
<polygon fill="midnightblue" stroke="midnightblue" points="1425.62,-111.94 1416.08,-116.566 1426.42,-118.894 1425.62,-111.94"/>
</g>
<!-- Node6 -->
<g id="node12" class="node"><title>Node6</title>
<a xlink:href="../../db/d85/display_8c.xhtml" target="_top" xlink:title="drivers/display.c">
<polygon fill="white" stroke="black" points="0,-0.5 0,-19.5 88,-19.5 88,-0.5 0,-0.5"/>
<text text-anchor="middle" x="44" y="-7.5" font-family="Helvetica,sans-Serif" font-size="10.00">drivers/display.c</text>
</a>
</g>
<!-- Node1&#45;&gt;Node6 -->
<g id="edge106" class="edge"><title>Node1&#45;&gt;Node6</title>
<path fill="none" stroke="midnightblue" d="M1303.82,-120.892C1151.33,-120.04 757.684,-114.1 633,-76 616.234,-70.8767 615.74,-61.2087 599,-56 385.416,10.4572 319.078,-46.7552 97,-20 94.1275,-19.6539 91.1735,-19.2597 88.1999,-18.8341"/>
<polygon fill="midnightblue" stroke="midnightblue" points="1303.93,-124.393 1313.95,-120.943 1303.96,-117.393 1303.93,-124.393"/>
</g>
<!-- Node7 -->
<g id="node14" class="node"><title>Node7</title>
<a xlink:href="../../d0/d6e/ports_8c.xhtml" target="_top" xlink:title="drivers/ports.c">
<polygon fill="white" stroke="black" points="800.5,-0.5 800.5,-19.5 879.5,-19.5 879.5,-0.5 800.5,-0.5"/>
<text text-anchor="middle" x="840" y="-7.5" font-family="Helvetica,sans-Serif" font-size="10.00">drivers/ports.c</text>
</a>
</g>
<!-- Node1&#45;&gt;Node7 -->
<g id="edge114" class="edge"><title>Node1&#45;&gt;Node7</title>
<path fill="none" stroke="midnightblue" d="M1303.66,-120.152C1194.89,-117.808 973.165,-109.004 904,-76 877.129,-63.1778 855.209,-34.1333 845.46,-19.6081"/>
<polygon fill="midnightblue" stroke="midnightblue" points="1303.75,-123.655 1313.82,-120.359 1303.89,-116.656 1303.75,-123.655"/>
</g>
<!-- Node9 -->
<g id="node18" class="node"><title>Node9</title>
<a xlink:href="../../d1/d2d/accelerometer_8c.xhtml" target="_top" xlink:title="modules/accelerometer.c">
<polygon fill="white" stroke="black" points="436,-0.5 436,-19.5 562,-19.5 562,-0.5 436,-0.5"/>
<text text-anchor="middle" x="499" y="-7.5" font-family="Helvetica,sans-Serif" font-size="10.00">modules/accelerometer.c</text>
</a>
</g>
<!-- Node1&#45;&gt;Node9 -->
<g id="edge126" class="edge"><title>Node1&#45;&gt;Node9</title>
<path fill="none" stroke="midnightblue" d="M1303.76,-119.38C1175.16,-115.469 881.014,-103.708 785,-76 766.663,-70.7082 765.043,-62.2203 747,-56 712.819,-44.2161 619.429,-28.8948 557.513,-19.513"/>
<polygon fill="midnightblue" stroke="midnightblue" points="1303.73,-122.881 1313.83,-119.68 1303.94,-115.884 1303.73,-122.881"/>
</g>
<!-- Node10 -->
<g id="node20" class="node"><title>Node10</title>
<a xlink:href="../../df/dce/alarm_8c.xhtml" target="_top" xlink:title="modules/alarm.c">
<polygon fill="white" stroke="black" points="580.5,-0.5 580.5,-19.5 669.5,-19.5 669.5,-0.5 580.5,-0.5"/>
<text text-anchor="middle" x="625" y="-7.5" font-family="Helvetica,sans-Serif" font-size="10.00">modules/alarm.c</text>
</a>
</g>
<!-- Node1&#45;&gt;Node10 -->
<g id="edge128" class="edge"><title>Node1&#45;&gt;Node10</title>
<path fill="none" stroke="midnightblue" d="M1303.44,-118.98C1181.11,-114.459 911.631,-101.838 823,-76 804.677,-70.6586 802.729,-63.0671 785,-56 744.794,-39.9726 696.772,-27.2778 663.898,-19.5127"/>
<polygon fill="midnightblue" stroke="midnightblue" points="1303.63,-122.489 1313.75,-119.354 1303.88,-115.493 1303.63,-122.489"/>
</g>
<!-- Node11 -->
<g id="node22" class="node"><title>Node11</title>
<a xlink:href="../../dd/d09/altitude_8c.xhtml" target="_top" xlink:title="modules/altitude.c">
<polygon fill="white" stroke="black" points="106,-0.5 106,-19.5 202,-19.5 202,-0.5 106,-0.5"/>
<text text-anchor="middle" x="154" y="-7.5" font-family="Helvetica,sans-Serif" font-size="10.00">modules/altitude.c</text>
</a>
</g>
<!-- Node1&#45;&gt;Node11 -->
<g id="edge130" class="edge"><title>Node1&#45;&gt;Node11</title>
<path fill="none" stroke="midnightblue" d="M1303.52,-120.29C1156.68,-118.067 789.031,-109.253 671,-76 652.63,-70.8245 651.317,-61.3621 633,-56 452.345,-3.11377 397.864,-42.6934 211,-20 208.116,-19.6497 205.154,-19.2633 202.168,-18.8535"/>
<polygon fill="midnightblue" stroke="midnightblue" points="1303.65,-123.792 1313.7,-120.439 1303.75,-116.793 1303.65,-123.792"/>
</g>
<!-- Node12 -->
<g id="node24" class="node"><title>Node12</title>
<a xlink:href="../../d8/d7f/modules_2battery_8c.xhtml" target="_top" xlink:title="modules/battery.c">
<polygon fill="white" stroke="black" points="687.5,-0.5 687.5,-19.5 782.5,-19.5 782.5,-0.5 687.5,-0.5"/>
<text text-anchor="middle" x="735" y="-7.5" font-family="Helvetica,sans-Serif" font-size="10.00">modules/battery.c</text>
</a>
</g>
<!-- Node1&#45;&gt;Node12 -->
<g id="edge132" class="edge"><title>Node1&#45;&gt;Node12</title>
<path fill="none" stroke="midnightblue" d="M1303.59,-118.018C1190.46,-112.088 953.423,-97.5033 874,-76 849.186,-69.2817 782.783,-35.749 751.603,-19.6515"/>
<polygon fill="midnightblue" stroke="midnightblue" points="1303.65,-121.526 1313.82,-118.548 1304.01,-114.535 1303.65,-121.526"/>
</g>
<!-- Node13 -->
<g id="node26" class="node"><title>Node13</title>
<a xlink:href="../../dc/d54/clock_8c.xhtml" target="_top" xlink:title="modules/clock.c">
<polygon fill="white" stroke="black" points="330,-0.5 330,-19.5 418,-19.5 418,-0.5 330,-0.5"/>
<text text-anchor="middle" x="374" y="-7.5" font-family="Helvetica,sans-Serif" font-size="10.00">modules/clock.c</text>
</a>
</g>
<!-- Node1&#45;&gt;Node13 -->
<g id="edge134" class="edge"><title>Node1&#45;&gt;Node13</title>
<path fill="none" stroke="midnightblue" d="M1303.65,-119.719C1168.79,-116.386 850.322,-105.552 747,-76 728.651,-70.7517 727.2,-61.7444 709,-56 588.509,-17.9704 551.977,-38.5804 427,-20 424.138,-19.5745 421.192,-19.1201 418.225,-18.6501"/>
<polygon fill="midnightblue" stroke="midnightblue" points="1303.73,-123.221 1313.81,-119.964 1303.9,-116.223 1303.73,-123.221"/>
</g>
<!-- Node14 -->
<g id="node28" class="node"><title>Node14</title>
<a xlink:href="../../dc/da5/music_8c.xhtml" target="_top" xlink:title="modules/music.c">
<polygon fill="white" stroke="black" points="220.5,-0.5 220.5,-19.5 311.5,-19.5 311.5,-0.5 220.5,-0.5"/>
<text text-anchor="middle" x="266" y="-7.5" font-family="Helvetica,sans-Serif" font-size="10.00">modules/music.c</text>
</a>
</g>
<!-- Node1&#45;&gt;Node14 -->
<g id="edge136" class="edge"><title>Node1&#45;&gt;Node14</title>
<path fill="none" stroke="midnightblue" d="M1303.42,-120.017C1162.39,-117.243 819.622,-107.389 709,-76 690.64,-70.7902 689.269,-61.5212 671,-56 521.31,-10.7616 476.009,-40.6357 321,-20 317.931,-19.5914 314.77,-19.1444 311.587,-18.6748"/>
<polygon fill="midnightblue" stroke="midnightblue" points="1303.56,-123.52 1313.62,-120.212 1303.69,-116.521 1303.56,-123.52"/>
</g>
<!-- Node15 -->
<g id="node30" class="node"><title>Node15</title>
<a xlink:href="../../d2/dc0/otp_8c.xhtml" target="_top" xlink:title="modules/otp.c">
<polygon fill="white" stroke="black" points="1216,-0.5 1216,-19.5 1294,-19.5 1294,-0.5 1216,-0.5"/>
<text text-anchor="middle" x="1255" y="-7.5" font-family="Helvetica,sans-Serif" font-size="10.00">modules/otp.c</text>
</a>
</g>
<!-- Node1&#45;&gt;Node15 -->
<g id="edge138" class="edge"><title>Node1&#45;&gt;Node15</title>
<path fill="none" stroke="midnightblue" d="M1343.28,-106.455C1331.64,-98.1812 1317.4,-87.246 1306,-76 1287.41,-57.6675 1269.48,-32.5484 1260.66,-19.5583"/>
<polygon fill="midnightblue" stroke="midnightblue" points="1341.37,-109.39 1351.57,-112.225 1345.36,-103.643 1341.37,-109.39"/>
</g>
<!-- Node16 -->
<g id="node32" class="node"><title>Node16</title>
<a xlink:href="../../d1/dc6/rfbsl_8c.xhtml" target="_top" xlink:title="modules/rfbsl.c">
<polygon fill="white" stroke="black" points="1312.5,-0.5 1312.5,-19.5 1395.5,-19.5 1395.5,-0.5 1312.5,-0.5"/>
<text text-anchor="middle" x="1354" y="-7.5" font-family="Helvetica,sans-Serif" font-size="10.00">modules/rfbsl.c</text>
</a>
</g>
<!-- Node1&#45;&gt;Node16 -->
<g id="edge140" class="edge"><title>Node1&#45;&gt;Node16</title>
<path fill="none" stroke="midnightblue" d="M1340.28,-106.9C1329.47,-99.2784 1317.92,-88.7928 1312,-76 1302.01,-54.4181 1325.91,-31.6071 1341.62,-19.5838"/>
<polygon fill="midnightblue" stroke="midnightblue" points="1338.38,-109.842 1348.67,-112.387 1342.21,-103.984 1338.38,-109.842"/>
</g>
<!-- Node17 -->
<g id="node34" class="node"><title>Node17</title>
<a xlink:href="../../de/dd1/stopwatch_8c.xhtml" target="_top" xlink:title="modules/stopwatch.c">
<polygon fill="white" stroke="black" points="898,-0.5 898,-19.5 1008,-19.5 1008,-0.5 898,-0.5"/>
<text text-anchor="middle" x="953" y="-7.5" font-family="Helvetica,sans-Serif" font-size="10.00">modules/stopwatch.c</text>
</a>
</g>
<!-- Node1&#45;&gt;Node17 -->
<g id="edge142" class="edge"><title>Node1&#45;&gt;Node17</title>
<path fill="none" stroke="midnightblue" d="M1303.7,-119.091C1240.84,-115.505 1141.08,-105.247 1060,-76 1021.77,-62.2084 982.296,-33.8825 963.797,-19.6149"/>
<polygon fill="midnightblue" stroke="midnightblue" points="1303.67,-122.594 1313.84,-119.63 1304.04,-115.604 1303.67,-122.594"/>
</g>
<!-- Node18 -->
<g id="node36" class="node"><title>Node18</title>
<a xlink:href="../../db/d97/modules_2temperature_8c.xhtml" target="_top" xlink:title="modules/temperature.c">
<polygon fill="white" stroke="black" points="1414,-0.5 1414,-19.5 1530,-19.5 1530,-0.5 1414,-0.5"/>
<text text-anchor="middle" x="1472" y="-7.5" font-family="Helvetica,sans-Serif" font-size="10.00">modules/temperature.c</text>
</a>
</g>
<!-- Node1&#45;&gt;Node18 -->
<g id="edge144" class="edge"><title>Node1&#45;&gt;Node18</title>
<path fill="none" stroke="midnightblue" d="M1383.67,-106.045C1393.86,-97.5885 1406.51,-86.611 1417,-76 1435.71,-57.0809 1455.3,-32.6318 1465.28,-19.7825"/>
<polygon fill="midnightblue" stroke="midnightblue" points="1381.31,-103.452 1375.79,-112.492 1385.74,-108.871 1381.31,-103.452"/>
</g>
<!-- Node19 -->
<g id="node38" class="node"><title>Node19</title>
<a xlink:href="../../db/d52/tide_8c.xhtml" target="_top" xlink:title="modules/tide.c">
<polygon fill="white" stroke="black" points="1026,-0.5 1026,-19.5 1106,-19.5 1106,-0.5 1026,-0.5"/>
<text text-anchor="middle" x="1066" y="-7.5" font-family="Helvetica,sans-Serif" font-size="10.00">modules/tide.c</text>
</a>
</g>
<!-- Node1&#45;&gt;Node19 -->
<g id="edge146" class="edge"><title>Node1&#45;&gt;Node19</title>
<path fill="none" stroke="midnightblue" d="M1332.01,-108.865C1271.06,-86.4404 1142.19,-39.0315 1089.35,-19.5914"/>
<polygon fill="midnightblue" stroke="midnightblue" points="1330.94,-112.2 1341.54,-112.368 1333.36,-105.631 1330.94,-112.2"/>
</g>
<!-- Node20 -->
<g id="node40" class="node"><title>Node20</title>
<a xlink:href="../../d5/dd0/timer_8h.xhtml" target="_top" xlink:title="openchronos&#45;ng timer driver">
<polygon fill="white" stroke="black" points="1809.5,-56.5 1809.5,-75.5 1888.5,-75.5 1888.5,-56.5 1809.5,-56.5"/>
<text text-anchor="middle" x="1849" y="-63.5" font-family="Helvetica,sans-Serif" font-size="10.00">drivers/timer.h</text>
</a>
</g>
<!-- Node1&#45;&gt;Node20 -->
<g id="edge40" class="edge"><title>Node1&#45;&gt;Node20</title>
<path fill="none" stroke="midnightblue" d="M1426.16,-115.78C1509.67,-108.384 1663.98,-93.7577 1795,-76 1799.61,-75.3745 1804.44,-74.6588 1809.23,-73.9102"/>
<polygon fill="midnightblue" stroke="midnightblue" points="1425.74,-112.303 1416.09,-116.668 1426.36,-119.276 1425.74,-112.303"/>
</g>
<!-- Node21 -->
<g id="node43" class="node"><title>Node21</title>
<a xlink:href="../../dc/ddc/adc12_8c.xhtml" target="_top" xlink:title="ADC12 functions.">
<polygon fill="white" stroke="black" points="1900.5,-0.5 1900.5,-19.5 1983.5,-19.5 1983.5,-0.5 1900.5,-0.5"/>
<text text-anchor="middle" x="1942" y="-7.5" font-family="Helvetica,sans-Serif" font-size="10.00">drivers/adc12.c</text>
</a>
</g>
<!-- Node1&#45;&gt;Node21 -->
<g id="edge92" class="edge"><title>Node1&#45;&gt;Node21</title>
<path fill="none" stroke="midnightblue" d="M1426.45,-120.804C1505.49,-119.028 1646.27,-110.675 1761,-76 1779.65,-70.3644 1781.99,-63.4126 1800,-56 1836.83,-40.845 1880.74,-27.6388 1909.88,-19.5211"/>
<polygon fill="midnightblue" stroke="midnightblue" points="1426.11,-117.31 1416.18,-121.005 1426.25,-124.309 1426.11,-117.31"/>
</g>
<!-- Node22 -->
<g id="node45" class="node"><title>Node22</title>
<a xlink:href="../../d3/d4c/buzzer_8c.xhtml" target="_top" xlink:title="drivers/buzzer.c">
<polygon fill="white" stroke="black" points="2099,-0.5 2099,-19.5 2185,-19.5 2185,-0.5 2099,-0.5"/>
<text text-anchor="middle" x="2142" y="-7.5" font-family="Helvetica,sans-Serif" font-size="10.00">drivers/buzzer.c</text>
</a>
</g>
<!-- Node1&#45;&gt;Node22 -->
<g id="edge104" class="edge"><title>Node1&#45;&gt;Node22</title>
<path fill="none" stroke="midnightblue" d="M1426.21,-118.449C1546.48,-113.004 1809.53,-98.8482 1897,-76 1917.78,-70.571 1920.63,-62.8273 1941,-56 1969.82,-46.3394 2049,-29.6652 2098.95,-19.5525"/>
<polygon fill="midnightblue" stroke="midnightblue" points="1425.9,-114.959 1416.06,-118.902 1426.21,-121.952 1425.9,-114.959"/>
</g>
<!-- Node24 -->
<g id="node51" class="node"><title>Node24</title>
<a xlink:href="../../d9/dc8/vti__as_8c.xhtml" target="_top" xlink:title="drivers/vti_as.c">
<polygon fill="white" stroke="black" points="2203.5,-0.5 2203.5,-19.5 2286.5,-19.5 2286.5,-0.5 2203.5,-0.5"/>
<text text-anchor="middle" x="2245" y="-7.5" font-family="Helvetica,sans-Serif" font-size="10.00">drivers/vti_as.c</text>
</a>
</g>
<!-- Node1&#45;&gt;Node24 -->
<g id="edge122" class="edge"><title>Node1&#45;&gt;Node24</title>
<path fill="none" stroke="midnightblue" d="M1426.61,-118.688C1553.17,-113.519 1838.48,-99.5909 1933,-76 1954.63,-70.6014 1957.63,-62.3324 1979,-56 2071.9,-28.4796 2098.52,-36.4188 2194,-20 2197.01,-19.482 2200.12,-18.9428 2203.26,-18.3972"/>
<polygon fill="midnightblue" stroke="midnightblue" points="1426.17,-115.203 1416.32,-119.103 1426.45,-122.197 1426.17,-115.203"/>
</g>
<!-- Node25 -->
<g id="node53" class="node"><title>Node25</title>
<a xlink:href="../../d8/d28/vti__ps_8c.xhtml" target="_top" xlink:title="drivers/vti_ps.c">
<polygon fill="white" stroke="black" points="2304.5,-0.5 2304.5,-19.5 2387.5,-19.5 2387.5,-0.5 2304.5,-0.5"/>
<text text-anchor="middle" x="2346" y="-7.5" font-family="Helvetica,sans-Serif" font-size="10.00">drivers/vti_ps.c</text>
</a>
</g>
<!-- Node1&#45;&gt;Node25 -->
<g id="edge124" class="edge"><title>Node1&#45;&gt;Node25</title>
<path fill="none" stroke="midnightblue" d="M1426.43,-119.302C1559.11,-115.167 1868.67,-102.883 1970,-76 1989.98,-70.6982 1992.16,-61.8223 2012,-56 2133.66,-20.294 2169.64,-39.0228 2295,-20 2298.02,-19.5414 2301.14,-19.0458 2304.28,-18.5312"/>
<polygon fill="midnightblue" stroke="midnightblue" points="1426.32,-115.803 1416.43,-119.608 1426.53,-122.8 1426.32,-115.803"/>
</g>
<!-- Node26 -->
<g id="node55" class="node"><title>Node26</title>
<a xlink:href="../../dc/d6b/rtca_8h.xhtml" target="_top" xlink:title="drivers/rtca.h">
<polygon fill="white" stroke="black" points="1069,-56.5 1069,-75.5 1143,-75.5 1143,-56.5 1069,-56.5"/>
<text text-anchor="middle" x="1106" y="-63.5" font-family="Helvetica,sans-Serif" font-size="10.00">drivers/rtca.h</text>
</a>
</g>
<!-- Node1&#45;&gt;Node26 -->
<g id="edge58" class="edge"><title>Node1&#45;&gt;Node26</title>
<path fill="none" stroke="midnightblue" d="M1313.94,-110.354C1263.6,-99.8593 1187.9,-84.0764 1143.07,-74.729"/>
<polygon fill="midnightblue" stroke="midnightblue" points="1313.46,-113.829 1323.96,-112.444 1314.89,-106.976 1313.46,-113.829"/>
</g>
<!-- Node28 -->
<g id="node65" class="node"><title>Node28</title>
<a xlink:href="../../d6/d91/temperature_8h.xhtml" target="_top" xlink:title="drivers/temperature.h">
<polygon fill="white" stroke="black" points="1465.5,-56.5 1465.5,-75.5 1574.5,-75.5 1574.5,-56.5 1465.5,-56.5"/>
<text text-anchor="middle" x="1520" y="-63.5" font-family="Helvetica,sans-Serif" font-size="10.00">drivers/temperature.h</text>
</a>
</g>
<!-- Node1&#45;&gt;Node28 -->
<g id="edge74" class="edge"><title>Node1&#45;&gt;Node28</title>
<path fill="none" stroke="midnightblue" d="M1399.33,-109.039C1428.5,-98.8786 1469.64,-84.5457 1495.55,-75.5164"/>
<polygon fill="midnightblue" stroke="midnightblue" points="1397.85,-105.848 1389.56,-112.444 1400.16,-112.459 1397.85,-105.848"/>
</g>
<!-- Node29 -->
<g id="node70" class="node"><title>Node29</title>
<a xlink:href="../../d6/d69/battery_8h.xhtml" target="_top" xlink:title="Battery sensor header file.">
<polygon fill="white" stroke="black" points="1321.5,-56.5 1321.5,-75.5 1408.5,-75.5 1408.5,-56.5 1321.5,-56.5"/>
<text text-anchor="middle" x="1365" y="-63.5" font-family="Helvetica,sans-Serif" font-size="10.00">drivers/battery.h</text>
</a>
</g>
<!-- Node1&#45;&gt;Node29 -->
<g id="edge82" class="edge"><title>Node1&#45;&gt;Node29</title>
<path fill="none" stroke="midnightblue" d="M1365,-101.805C1365,-92.9102 1365,-82.7798 1365,-75.7511"/>
<polygon fill="midnightblue" stroke="midnightblue" points="1361.5,-102.083 1365,-112.083 1368.5,-102.083 1361.5,-102.083"/>
</g>
<!-- Node30 -->
<g id="node77" class="node"><title>Node30</title>
<a xlink:href="../../d1/d67/adc12_8h.xhtml" target="_top" xlink:title="ADC12 header file.">
<polygon fill="white" stroke="black" points="1669.5,-56.5 1669.5,-75.5 1752.5,-75.5 1752.5,-56.5 1669.5,-56.5"/>
<text text-anchor="middle" x="1711" y="-63.5" font-family="Helvetica,sans-Serif" font-size="10.00">drivers/adc12.h</text>
</a>
</g>
<!-- Node1&#45;&gt;Node30 -->
<g id="edge94" class="edge"><title>Node1&#45;&gt;Node30</title>
<path fill="none" stroke="midnightblue" d="M1426.3,-111.586C1485.01,-102.547 1576.07,-88.466 1655,-76 1659.67,-75.2626 1664.56,-74.4853 1669.41,-73.7091"/>
<polygon fill="midnightblue" stroke="midnightblue" points="1425.44,-108.177 1416.09,-113.158 1426.5,-115.096 1425.44,-108.177"/>
</g>
<!-- Node31 -->
<g id="node85" class="node"><title>Node31</title>
<a xlink:href="../../d3/d08/dsp_8h.xhtml" target="_top" xlink:title="drivers/dsp.h">
<polygon fill="white" stroke="black" points="2021.5,-56.5 2021.5,-75.5 2094.5,-75.5 2094.5,-56.5 2021.5,-56.5"/>
<text text-anchor="middle" x="2058" y="-63.5" font-family="Helvetica,sans-Serif" font-size="10.00">drivers/dsp.h</text>
</a>
</g>
<!-- Node1&#45;&gt;Node31 -->
<g id="edge108" class="edge"><title>Node1&#45;&gt;Node31</title>
<path fill="none" stroke="midnightblue" d="M1426.68,-118.826C1541.33,-114.309 1794.88,-102.078 2007,-76 2011.64,-75.4295 2016.5,-74.7195 2021.3,-73.9501"/>
<polygon fill="midnightblue" stroke="midnightblue" points="1426.21,-115.342 1416.36,-119.227 1426.48,-122.336 1426.21,-115.342"/>
</g>
<!-- Node33 -->
<g id="node89" class="node"><title>Node33</title>
<a xlink:href="../../d8/d80/infomem_8c.xhtml" target="_top" xlink:title="drivers/infomem.c">
<polygon fill="white" stroke="black" points="2112.5,-56.5 2112.5,-75.5 2207.5,-75.5 2207.5,-56.5 2112.5,-56.5"/>
<text text-anchor="middle" x="2160" y="-63.5" font-family="Helvetica,sans-Serif" font-size="10.00">drivers/infomem.c</text>
</a>
</g>
<!-- Node1&#45;&gt;Node33 -->
<g id="edge112" class="edge"><title>Node1&#45;&gt;Node33</title>
<path fill="none" stroke="midnightblue" d="M1426.42,-119.242C1553.19,-115.177 1852.91,-103.306 2103,-76 2106.09,-75.6629 2109.26,-75.2755 2112.46,-74.8549"/>
<polygon fill="midnightblue" stroke="midnightblue" points="1426.03,-115.753 1416.14,-119.567 1426.25,-122.749 1426.03,-115.753"/>
</g>
<!-- Node34 -->
<g id="node92" class="node"><title>Node34</title>
<a xlink:href="../../dd/d16/radio_8c.xhtml" target="_top" xlink:title="drivers/radio.c">
<polygon fill="white" stroke="black" points="2226,-56.5 2226,-75.5 2304,-75.5 2304,-56.5 2226,-56.5"/>
<text text-anchor="middle" x="2265" y="-63.5" font-family="Helvetica,sans-Serif" font-size="10.00">drivers/radio.c</text>
</a>
</g>
<!-- Node1&#45;&gt;Node34 -->
<g id="edge116" class="edge"><title>Node1&#45;&gt;Node34</title>
<path fill="none" stroke="midnightblue" d="M1426.15,-120.464C1566.31,-118.647 1921.42,-110.695 2216,-76 2219.18,-75.6257 2222.46,-75.1715 2225.75,-74.6685"/>
<polygon fill="midnightblue" stroke="midnightblue" points="1425.99,-116.966 1416.03,-120.589 1426.07,-123.965 1425.99,-116.966"/>
</g>
<!-- Node35 -->
<g id="node94" class="node"><title>Node35</title>
<a xlink:href="../../d6/dc2/rf1a_8c.xhtml" target="_top" xlink:title="drivers/rf1a.c">
<polygon fill="white" stroke="black" points="2322,-56.5 2322,-75.5 2396,-75.5 2396,-56.5 2322,-56.5"/>
<text text-anchor="middle" x="2359" y="-63.5" font-family="Helvetica,sans-Serif" font-size="10.00">drivers/rf1a.c</text>
</a>
</g>
<!-- Node1&#45;&gt;Node35 -->
<g id="edge118" class="edge"><title>Node1&#45;&gt;Node35</title>
<path fill="none" stroke="midnightblue" d="M1426.1,-121.177C1577.14,-120.947 1980,-116.262 2313,-76 2315.91,-75.6484 2318.91,-75.2176 2321.92,-74.737"/>
<polygon fill="midnightblue" stroke="midnightblue" points="1426.08,-117.677 1416.09,-121.186 1426.09,-124.677 1426.08,-117.677"/>
</g>
<!-- Node36 -->
<g id="node96" class="node"><title>Node36</title>
<a xlink:href="../../d1/d60/rtc__dst_8c.xhtml" target="_top" xlink:title="drivers/rtc_dst.c">
<polygon fill="white" stroke="black" points="2414.5,-56.5 2414.5,-75.5 2501.5,-75.5 2501.5,-56.5 2414.5,-56.5"/>
<text text-anchor="middle" x="2458" y="-63.5" font-family="Helvetica,sans-Serif" font-size="10.00">drivers/rtc_dst.c</text>
</a>
</g>
<!-- Node1&#45;&gt;Node36 -->
<g id="edge120" class="edge"><title>Node1&#45;&gt;Node36</title>
<path fill="none" stroke="midnightblue" d="M1426.21,-121.017C1587.06,-120.484 2034.83,-115.283 2405,-76 2408.06,-75.675 2411.22,-75.2842 2414.39,-74.85"/>
<polygon fill="midnightblue" stroke="midnightblue" points="1426.02,-117.517 1416.03,-121.045 1426.04,-124.517 1426.02,-117.517"/>
</g>
<!-- Node4&#45;&gt;Node3 -->
<g id="edge8" class="edge"><title>Node4&#45;&gt;Node3</title>
<path fill="none" stroke="midnightblue" d="M1011.2,-60.1416C1026.93,-58.7641 1044.15,-57.2893 1060,-56 1272.34,-38.7272 1326.26,-43.5632 1538,-20 1541.19,-19.6448 1544.47,-19.2493 1547.78,-18.8277"/>
<polygon fill="midnightblue" stroke="midnightblue" points="1010.75,-56.6671 1001.1,-61.0299 1011.37,-63.6402 1010.75,-56.6671"/>
</g>
<!-- Node4&#45;&gt;Node5 -->
<g id="edge10" class="edge"><title>Node4&#45;&gt;Node5</title>
<path fill="none" stroke="midnightblue" d="M1011.19,-59.9886C1026.92,-58.6081 1044.14,-57.1701 1060,-56 1325.54,-36.4097 1393.43,-49.9276 1658,-20 1661.4,-19.6154 1664.91,-19.161 1668.44,-18.664"/>
<polygon fill="midnightblue" stroke="midnightblue" points="1010.74,-56.5144 1001.09,-60.8841 1011.36,-63.4871 1010.74,-56.5144"/>
</g>
<!-- Node4&#45;&gt;Node6 -->
<g id="edge12" class="edge"><title>Node4&#45;&gt;Node6</title>
<path fill="none" stroke="midnightblue" d="M902.563,-62.9795C739.111,-56.7816 254.224,-37.4033 97,-20 94.1243,-19.6817 91.1679,-19.3085 88.1925,-18.8984"/>
<polygon fill="midnightblue" stroke="midnightblue" points="902.732,-66.4883 912.857,-63.3685 902.997,-59.4933 902.732,-66.4883"/>
</g>
<!-- Node4&#45;&gt;Node7 -->
<g id="edge14" class="edge"><title>Node4&#45;&gt;Node7</title>
<path fill="none" stroke="midnightblue" d="M929.336,-52.2321C907.451,-42.1312 877.503,-28.3091 858.452,-19.5164"/>
<polygon fill="midnightblue" stroke="midnightblue" points="927.915,-55.4308 938.461,-56.4435 930.848,-49.075 927.915,-55.4308"/>
</g>
<!-- Node8 -->
<g id="node16" class="node"><title>Node8</title>
<a xlink:href="../../d8/dd8/drivers_2temperature_8c.xhtml" target="_top" xlink:title="drivers/temperature.c">
<polygon fill="white" stroke="black" points="1773.5,-0.5 1773.5,-19.5 1882.5,-19.5 1882.5,-0.5 1773.5,-0.5"/>
<text text-anchor="middle" x="1828" y="-7.5" font-family="Helvetica,sans-Serif" font-size="10.00">drivers/temperature.c</text>
</a>
</g>
<!-- Node4&#45;&gt;Node8 -->
<g id="edge16" class="edge"><title>Node4&#45;&gt;Node8</title>
<path fill="none" stroke="midnightblue" d="M1011.18,-59.8967C1026.92,-58.5144 1044.14,-57.0984 1060,-56 1372.55,-34.3607 1452.13,-49.8434 1764,-20 1767.02,-19.7114 1770.11,-19.3836 1773.23,-19.028"/>
<polygon fill="midnightblue" stroke="midnightblue" points="1010.73,-56.4227 1001.08,-60.7965 1011.35,-63.395 1010.73,-56.4227"/>
</g>
<!-- Node4&#45;&gt;Node9 -->
<g id="edge18" class="edge"><title>Node4&#45;&gt;Node9</title>
<path fill="none" stroke="midnightblue" d="M902.888,-58.835C828.208,-50.2939 689.348,-34.295 571,-20 568.124,-19.6526 565.183,-19.2949 562.212,-18.9317"/>
<polygon fill="midnightblue" stroke="midnightblue" points="902.658,-62.3314 912.991,-59.9897 903.453,-55.3767 902.658,-62.3314"/>
</g>
<!-- Node4&#45;&gt;Node10 -->
<g id="edge20" class="edge"><title>Node4&#45;&gt;Node10</title>
<path fill="none" stroke="midnightblue" d="M902.428,-56.3351C846.169,-47.3703 755.922,-32.8998 678,-20 675.238,-19.5427 672.395,-19.069 669.529,-18.589"/>
<polygon fill="midnightblue" stroke="midnightblue" points="902.1,-59.827 912.526,-57.9433 903.201,-52.9141 902.1,-59.827"/>
</g>
<!-- Node4&#45;&gt;Node11 -->
<g id="edge22" class="edge"><title>Node4&#45;&gt;Node11</title>
<path fill="none" stroke="midnightblue" d="M902.417,-63.5089C778.948,-59.7423 468.876,-48.0703 211,-20 208.112,-19.6856 205.146,-19.3269 202.158,-18.9381"/>
<polygon fill="midnightblue" stroke="midnightblue" points="902.631,-67.0168 912.731,-63.8184 902.841,-60.02 902.631,-67.0168"/>
</g>
<!-- Node4&#45;&gt;Node12 -->
<g id="edge24" class="edge"><title>Node4&#45;&gt;Node12</title>
<path fill="none" stroke="midnightblue" d="M911.875,-54.0237C869.94,-43.8232 808.348,-28.8414 770.012,-19.5164"/>
<polygon fill="midnightblue" stroke="midnightblue" points="911.28,-57.4808 921.823,-56.4435 912.934,-50.6791 911.28,-57.4808"/>
</g>
<!-- Node4&#45;&gt;Node13 -->
<g id="edge26" class="edge"><title>Node4&#45;&gt;Node13</title>
<path fill="none" stroke="midnightblue" d="M902.838,-61.8997C806.747,-56.0656 600.239,-42.0243 427,-20 424.13,-19.6351 421.178,-19.2266 418.205,-18.7904"/>
<polygon fill="midnightblue" stroke="midnightblue" points="902.703,-65.3978 912.895,-62.5047 903.123,-58.4104 902.703,-65.3978"/>
</g>
<!-- Node4&#45;&gt;Node14 -->
<g id="edge28" class="edge"><title>Node4&#45;&gt;Node14</title>
<path fill="none" stroke="midnightblue" d="M902.738,-62.8381C792.722,-58.0852 535.613,-45.0983 321,-20 317.925,-19.6404 314.759,-19.23 311.573,-18.7872"/>
<polygon fill="midnightblue" stroke="midnightblue" points="902.78,-66.3429 912.92,-63.2725 903.078,-59.3493 902.78,-66.3429"/>
</g>
<!-- Node4&#45;&gt;Node15 -->
<g id="edge30" class="edge"><title>Node4&#45;&gt;Node15</title>
<path fill="none" stroke="midnightblue" d="M1011.35,-55.3347C1062,-46.2981 1139.64,-32.3773 1207,-20 1209.92,-19.4637 1212.94,-18.9058 1215.97,-18.3423"/>
<polygon fill="midnightblue" stroke="midnightblue" points="1010.5,-51.9297 1001.27,-57.1307 1011.73,-58.821 1010.5,-51.9297"/>
</g>
<!-- Node4&#45;&gt;Node16 -->
<g id="edge32" class="edge"><title>Node4&#45;&gt;Node16</title>
<path fill="none" stroke="midnightblue" d="M1011.14,-58.7296C1079.33,-50.6537 1200.06,-35.7692 1303,-20 1306.02,-19.5371 1309.14,-19.0385 1312.28,-18.5217"/>
<polygon fill="midnightblue" stroke="midnightblue" points="1010.58,-55.2709 1001.06,-59.9187 1011.4,-62.2227 1010.58,-55.2709"/>
</g>
<!-- Node4&#45;&gt;Node17 -->
<g id="edge34" class="edge"><title>Node4&#45;&gt;Node17</title>
<path fill="none" stroke="midnightblue" d="M955.6,-46.1005C954.936,-37.1357 954.175,-26.8579 953.648,-19.7511"/>
<polygon fill="midnightblue" stroke="midnightblue" points="952.11,-46.3689 956.339,-56.083 959.091,-45.8517 952.11,-46.3689"/>
</g>
<!-- Node4&#45;&gt;Node18 -->
<g id="edge36" class="edge"><title>Node4&#45;&gt;Node18</title>
<path fill="none" stroke="midnightblue" d="M1011.23,-60.0914C1095.4,-52.3496 1262.51,-36.4812 1404,-20 1407.19,-19.628 1410.47,-19.2343 1413.78,-18.8277"/>
<polygon fill="midnightblue" stroke="midnightblue" points="1010.78,-56.6181 1001.14,-61.0171 1011.42,-63.5888 1010.78,-56.6181"/>
</g>
<!-- Node4&#45;&gt;Node19 -->
<g id="edge38" class="edge"><title>Node4&#45;&gt;Node19</title>
<path fill="none" stroke="midnightblue" d="M983.519,-51.8622C1003.73,-41.8492 1030.99,-28.3458 1048.53,-19.6545"/>
<polygon fill="midnightblue" stroke="midnightblue" points="981.92,-48.7485 974.513,-56.324 985.027,-55.0209 981.92,-48.7485"/>
</g>
<!-- Node20&#45;&gt;Node3 -->
<g id="edge42" class="edge"><title>Node20&#45;&gt;Node3</title>
<path fill="none" stroke="midnightblue" d="M1799.38,-54.2815C1752.13,-44.0769 1681.96,-28.9203 1638.43,-19.5164"/>
<polygon fill="midnightblue" stroke="midnightblue" points="1798.87,-57.7533 1809.39,-56.4435 1800.35,-50.9111 1798.87,-57.7533"/>
</g>
<!-- Node20&#45;&gt;Node7 -->
<g id="edge48" class="edge"><title>Node20&#45;&gt;Node7</title>
<path fill="none" stroke="midnightblue" d="M1799,-59.3554C1786.6,-58.1014 1773.33,-56.8839 1761,-56 1374.11,-28.2551 1274.48,-63.1423 889,-20 885.906,-19.6537 882.712,-19.2268 879.51,-18.7488"/>
<polygon fill="midnightblue" stroke="midnightblue" points="1798.87,-62.8605 1809.18,-60.4108 1799.59,-55.8979 1798.87,-62.8605"/>
</g>
<!-- Node20&#45;&gt;Node8 -->
<g id="edge50" class="edge"><title>Node20&#45;&gt;Node8</title>
<path fill="none" stroke="midnightblue" d="M1841.88,-46.6897C1838.34,-37.589 1834.23,-27.0141 1831.4,-19.7511"/>
<polygon fill="midnightblue" stroke="midnightblue" points="1838.65,-48.0315 1845.53,-56.083 1845.17,-45.4944 1838.65,-48.0315"/>
</g>
<!-- Node20&#45;&gt;Node21 -->
<g id="edge44" class="edge"><title>Node20&#45;&gt;Node21</title>
<path fill="none" stroke="midnightblue" d="M1872.81,-51.1774C1889.92,-41.2407 1912.47,-28.1492 1927.1,-19.6545"/>
<polygon fill="midnightblue" stroke="midnightblue" points="1870.83,-48.2758 1863.94,-56.324 1874.35,-54.3293 1870.83,-48.2758"/>
</g>
<!-- Node20&#45;&gt;Node22 -->
<g id="edge46" class="edge"><title>Node20&#45;&gt;Node22</title>
<path fill="none" stroke="midnightblue" d="M1898.59,-55.8608C1954.77,-45.5057 2045.45,-28.7941 2098.83,-18.9556"/>
<polygon fill="midnightblue" stroke="midnightblue" points="1897.72,-52.4627 1888.52,-57.7173 1898.98,-59.3468 1897.72,-52.4627"/>
</g>
<!-- Node23 -->
<g id="node49" class="node"><title>Node23</title>
<a xlink:href="../../df/d41/timer_8c.xhtml" target="_top" xlink:title="drivers/timer.c">
<polygon fill="white" stroke="black" points="2001.5,-0.5 2001.5,-19.5 2080.5,-19.5 2080.5,-0.5 2001.5,-0.5"/>
<text text-anchor="middle" x="2041" y="-7.5" font-family="Helvetica,sans-Serif" font-size="10.00">drivers/timer.c</text>
</a>
</g>
<!-- Node20&#45;&gt;Node23 -->
<g id="edge52" class="edge"><title>Node20&#45;&gt;Node23</title>
<path fill="none" stroke="midnightblue" d="M1889.18,-53.6986C1925.42,-43.507 1977.91,-28.7429 2010.72,-19.5164"/>
<polygon fill="midnightblue" stroke="midnightblue" points="1888.1,-50.3667 1879.42,-56.4435 1890,-57.1053 1888.1,-50.3667"/>
</g>
<!-- Node20&#45;&gt;Node24 -->
<g id="edge54" class="edge"><title>Node20&#45;&gt;Node24</title>
<path fill="none" stroke="midnightblue" d="M1898.96,-59.1988C1966.15,-51.2331 2089.3,-36.0587 2194,-20 2197.02,-19.5366 2200.14,-19.0375 2203.28,-18.5204"/>
<polygon fill="midnightblue" stroke="midnightblue" points="1898.18,-55.7655 1888.66,-60.4144 1899.01,-62.7172 1898.18,-55.7655"/>
</g>
<!-- Node20&#45;&gt;Node25 -->
<g id="edge56" class="edge"><title>Node20&#45;&gt;Node25</title>
<path fill="none" stroke="midnightblue" d="M1898.9,-61.1794C1981.51,-54.5833 2151.77,-39.8361 2295,-20 2298.03,-19.5806 2301.15,-19.1139 2304.29,-18.6198"/>
<polygon fill="midnightblue" stroke="midnightblue" points="1898.49,-57.7014 1888.8,-61.9808 1899.04,-64.6795 1898.49,-57.7014"/>
</g>
<!-- Node26&#45;&gt;Node3 -->
<g id="edge60" class="edge"><title>Node26&#45;&gt;Node3</title>
<path fill="none" stroke="midnightblue" d="M1153.22,-60.7461C1232.75,-53.4341 1398.38,-37.5639 1538,-20 1541.19,-19.5992 1544.46,-19.1687 1547.77,-18.721"/>
<polygon fill="midnightblue" stroke="midnightblue" points="1152.68,-57.281 1143.04,-61.6787 1153.32,-64.2518 1152.68,-57.281"/>
</g>
<!-- Node26&#45;&gt;Node9 -->
<g id="edge64" class="edge"><title>Node26&#45;&gt;Node9</title>
<path fill="none" stroke="midnightblue" d="M1058.63,-60.5048C1042.85,-59.0336 1025.17,-57.4147 1009,-56 814.42,-38.9771 765.284,-40.1179 571,-20 568.118,-19.7016 565.173,-19.3841 562.199,-19.0535"/>
<polygon fill="midnightblue" stroke="midnightblue" points="1058.42,-63.9995 1068.7,-61.4466 1059.07,-57.03 1058.42,-63.9995"/>
</g>
<!-- Node26&#45;&gt;Node10 -->
<g id="edge66" class="edge"><title>Node26&#45;&gt;Node10</title>
<path fill="none" stroke="midnightblue" d="M1058.66,-60.4057C963.207,-51.0796 750.594,-29.9697 678,-20 675.226,-19.619 672.374,-19.2038 669.501,-18.7675"/>
<polygon fill="midnightblue" stroke="midnightblue" points="1058.59,-63.9158 1068.88,-61.4036 1059.27,-56.9489 1058.59,-63.9158"/>
</g>
<!-- Node26&#45;&gt;Node13 -->
<g id="edge68" class="edge"><title>Node26&#45;&gt;Node13</title>
<path fill="none" stroke="midnightblue" d="M1058.65,-60.313C1042.87,-58.829 1025.18,-57.251 1009,-56 750.61,-36.0261 684.449,-49.7358 427,-20 424.126,-19.668 421.171,-19.2845 418.196,-18.8667"/>
<polygon fill="midnightblue" stroke="midnightblue" points="1058.43,-63.8074 1068.71,-61.2702 1059.09,-56.8389 1058.43,-63.8074"/>
</g>
<!-- Node26&#45;&gt;Node15 -->
<g id="edge70" class="edge"><title>Node26&#45;&gt;Node15</title>
<path fill="none" stroke="midnightblue" d="M1139.37,-52.9058C1167.38,-42.7536 1206.7,-28.5063 1231.5,-19.5164"/>
<polygon fill="midnightblue" stroke="midnightblue" points="1137.82,-49.7456 1129.61,-56.4435 1140.2,-56.3267 1137.82,-49.7456"/>
</g>
<!-- Node26&#45;&gt;Node19 -->
<g id="edge72" class="edge"><title>Node26&#45;&gt;Node19</title>
<path fill="none" stroke="midnightblue" d="M1093.3,-47.8554C1086.37,-38.5048 1078.09,-27.3265 1072.48,-19.7511"/>
<polygon fill="midnightblue" stroke="midnightblue" points="1090.63,-50.1307 1099.39,-56.083 1096.25,-45.9641 1090.63,-50.1307"/>
</g>
<!-- Node27 -->
<g id="node58" class="node"><title>Node27</title>
<a xlink:href="../../d4/d9d/rtca_8c.xhtml" target="_top" xlink:title="drivers/rtca.c">
<polygon fill="white" stroke="black" points="1124,-0.5 1124,-19.5 1198,-19.5 1198,-0.5 1124,-0.5"/>
<text text-anchor="middle" x="1161" y="-7.5" font-family="Helvetica,sans-Serif" font-size="10.00">drivers/rtca.c</text>
</a>
</g>
<!-- Node26&#45;&gt;Node27 -->
<g id="edge62" class="edge"><title>Node26&#45;&gt;Node27</title>
<path fill="none" stroke="midnightblue" d="M1122.29,-49.0024C1132.04,-39.4329 1144.05,-27.6389 1152.09,-19.7511"/>
<polygon fill="midnightblue" stroke="midnightblue" points="1119.77,-46.5796 1115.08,-56.083 1124.67,-51.5746 1119.77,-46.5796"/>
</g>
<!-- Node28&#45;&gt;Node3 -->
<g id="edge76" class="edge"><title>Node28&#45;&gt;Node3</title>
<path fill="none" stroke="midnightblue" d="M1541.03,-50.6221C1555.47,-40.7574 1574.14,-27.9919 1586.34,-19.6545"/>
<polygon fill="midnightblue" stroke="midnightblue" points="1538.97,-47.7914 1532.69,-56.324 1542.92,-53.5703 1538.97,-47.7914"/>
</g>
<!-- Node28&#45;&gt;Node8 -->
<g id="edge78" class="edge"><title>Node28&#45;&gt;Node8</title>
<path fill="none" stroke="midnightblue" d="M1578.95,-54.6642C1637.16,-44.4592 1725.11,-29.0386 1779.42,-19.5164"/>
<polygon fill="midnightblue" stroke="midnightblue" points="1578.05,-51.2691 1568.8,-56.4435 1579.26,-58.164 1578.05,-51.2691"/>
</g>
<!-- Node28&#45;&gt;Node18 -->
<g id="edge80" class="edge"><title>Node28&#45;&gt;Node18</title>
<path fill="none" stroke="midnightblue" d="M1505.27,-48.4314C1496.86,-38.9673 1486.65,-27.4827 1479.78,-19.7511"/>
<polygon fill="midnightblue" stroke="midnightblue" points="1502.81,-50.9342 1512.07,-56.083 1508.05,-46.2836 1502.81,-50.9342"/>
</g>
<!-- Node29&#45;&gt;Node3 -->
<g id="edge84" class="edge"><title>Node29&#45;&gt;Node3</title>
<path fill="none" stroke="midnightblue" d="M1412,-54.1529C1456.22,-43.95 1521.52,-28.8809 1562.1,-19.5164"/>
<polygon fill="midnightblue" stroke="midnightblue" points="1411.03,-50.7845 1402.08,-56.4435 1412.61,-57.6052 1411.03,-50.7845"/>
</g>
<!-- Node29&#45;&gt;Node5 -->
<g id="edge86" class="edge"><title>Node29&#45;&gt;Node5</title>
<path fill="none" stroke="midnightblue" d="M1418.88,-56.9356C1477.68,-48.0852 1574.59,-33.3561 1658,-20 1661.38,-19.459 1664.87,-18.8922 1668.39,-18.3176"/>
<polygon fill="midnightblue" stroke="midnightblue" points="1418.08,-53.5164 1408.71,-58.4646 1419.12,-60.4386 1418.08,-53.5164"/>
</g>
<!-- Node29&#45;&gt;Node12 -->
<g id="edge88" class="edge"><title>Node29&#45;&gt;Node12</title>
<path fill="none" stroke="midnightblue" d="M1311.28,-62.2466C1209.52,-56.7071 981.718,-42.7634 791,-20 788.262,-19.6732 785.454,-19.3103 782.622,-18.923"/>
<polygon fill="midnightblue" stroke="midnightblue" points="1311.14,-65.744 1321.32,-62.7876 1311.52,-58.7541 1311.14,-65.744"/>
</g>
<!-- Node29&#45;&gt;Node16 -->
<g id="edge90" class="edge"><title>Node29&#45;&gt;Node16</title>
<path fill="none" stroke="midnightblue" d="M1361.15,-46.1005C1359.32,-37.1357 1357.23,-26.8579 1355.78,-19.7511"/>
<polygon fill="midnightblue" stroke="midnightblue" points="1357.76,-46.9829 1363.18,-56.083 1364.62,-45.5856 1357.76,-46.9829"/>
</g>
<!-- Node30&#45;&gt;Node5 -->
<g id="edge98" class="edge"><title>Node30&#45;&gt;Node5</title>
<path fill="none" stroke="midnightblue" d="M1711.36,-45.8045C1711.52,-36.9102 1711.71,-26.7798 1711.84,-19.7511"/>
<polygon fill="midnightblue" stroke="midnightblue" points="1707.85,-46.0199 1711.17,-56.083 1714.85,-46.1495 1707.85,-46.0199"/>
</g>
<!-- Node30&#45;&gt;Node8 -->
<g id="edge100" class="edge"><title>Node30&#45;&gt;Node8</title>
<path fill="none" stroke="midnightblue" d="M1738.66,-52.2321C1760.55,-42.1312 1790.5,-28.3091 1809.55,-19.5164"/>
<polygon fill="midnightblue" stroke="midnightblue" points="1737.15,-49.075 1729.54,-56.4435 1740.09,-55.4308 1737.15,-49.075"/>
</g>
<!-- Node30&#45;&gt;Node21 -->
<g id="edge96" class="edge"><title>Node30&#45;&gt;Node21</title>
<path fill="none" stroke="midnightblue" d="M1757.4,-54.1529C1801.05,-43.95 1865.51,-28.8809 1905.57,-19.5164"/>
<polygon fill="midnightblue" stroke="midnightblue" points="1756.54,-50.7591 1747.6,-56.4435 1758.14,-57.5753 1756.54,-50.7591"/>
</g>
<!-- Node32 -->
<g id="node87" class="node"><title>Node32</title>
<a xlink:href="../../d5/d3b/dsp_8c.xhtml" target="_top" xlink:title="drivers/dsp.c">
<polygon fill="white" stroke="black" points="2405.5,-0.5 2405.5,-19.5 2478.5,-19.5 2478.5,-0.5 2405.5,-0.5"/>
<text text-anchor="middle" x="2442" y="-7.5" font-family="Helvetica,sans-Serif" font-size="10.00">drivers/dsp.c</text>
</a>
</g>
<!-- Node31&#45;&gt;Node32 -->
<g id="edge110" class="edge"><title>Node31&#45;&gt;Node32</title>
<path fill="none" stroke="midnightblue" d="M2104.58,-56.0191C2234.84,-35.6688 2270.02,-40.0644 2396,-20 2399.05,-19.5136 2402.21,-18.9734 2405.38,-18.4059"/>
<polygon fill="midnightblue" stroke="midnightblue" points="2103.95,-52.5751 2094.62,-57.5941 2105.04,-59.4892 2103.95,-52.5751"/>
</g>
</g>
</svg>
