<?xml version="1.0" encoding="UTF-8" standalone="no"?>
<!DOCTYPE svg PUBLIC "-//W3C//DTD SVG 1.1//EN"
 "http://www.w3.org/Graphics/SVG/1.1/DTD/svg11.dtd">
<!-- Generated by graphviz version 2.28.0 (20121221.0049)
 -->
<!-- Title: modules/temperature.c Pages: 1 -->
<svg width="275pt" height="196pt"
 viewBox="0.00 0.00 275.00 196.00" xmlns="http://www.w3.org/2000/svg" xmlns:xlink="http://www.w3.org/1999/xlink">
<g id="graph1" class="graph" transform="scale(1 1) rotate(0) translate(4 192)">
<title>modules/temperature.c</title>
<polygon fill="white" stroke="white" points="-4,5 -4,-192 272,-192 272,5 -4,5"/>
<!-- Node1 -->
<g id="node1" class="node"><title>Node1</title>
<polygon fill="#bfbfbf" stroke="black" points="38,-168.5 38,-187.5 154,-187.5 154,-168.5 38,-168.5"/>
<text text-anchor="middle" x="96" y="-175.5" font-family="Helvetica,sans-Serif" font-size="10.00">modules/temperature.c</text>
</g>
<!-- Node2 -->
<g id="node3" class="node"><title>Node2</title>
<a xlink:href="../../d9/d95/openchronos_8h.xhtml" target="_top" xlink:title="Main include file.">
<polygon fill="white" stroke="black" points="45,-56.5 45,-75.5 147,-75.5 147,-56.5 45,-56.5"/>
<text text-anchor="middle" x="96" y="-63.5" font-family="Helvetica,sans-Serif" font-size="10.00">core/openchronos.h</text>
</a>
</g>
<!-- Node1&#45;&gt;Node2 -->
<g id="edge2" class="edge"><title>Node1&#45;&gt;Node2</title>
<path fill="none" stroke="midnightblue" d="M79.6664,-168.387C67.0446,-160.72 50.5028,-148.213 43,-132 33.8559,-112.241 53.4766,-93.3877 71.3785,-81.1238"/>
<polygon fill="midnightblue" stroke="midnightblue" points="73.3699,-84.0046 79.8951,-75.6575 69.5888,-78.1136 73.3699,-84.0046"/>
</g>
<!-- Node6 -->
<g id="node11" class="node"><title>Node6</title>
<a xlink:href="../../d4/d68/display_8h.xhtml" target="_top" xlink:title="Display driver.">
<polygon fill="white" stroke="black" points="52,-112.5 52,-131.5 140,-131.5 140,-112.5 52,-112.5"/>
<text text-anchor="middle" x="96" y="-119.5" font-family="Helvetica,sans-Serif" font-size="10.00">drivers/display.h</text>
</a>
</g>
<!-- Node1&#45;&gt;Node6 -->
<g id="edge10" class="edge"><title>Node1&#45;&gt;Node6</title>
<path fill="none" stroke="midnightblue" d="M96,-168.083C96,-161.006 96,-150.861 96,-141.986"/>
<polygon fill="midnightblue" stroke="midnightblue" points="99.5001,-141.751 96,-131.751 92.5001,-141.751 99.5001,-141.751"/>
</g>
<!-- Node7 -->
<g id="node14" class="node"><title>Node7</title>
<a xlink:href="../../d6/d91/temperature_8h.xhtml" target="_top" xlink:title="drivers/temperature.h">
<polygon fill="white" stroke="black" points="158.5,-112.5 158.5,-131.5 267.5,-131.5 267.5,-112.5 158.5,-112.5"/>
<text text-anchor="middle" x="213" y="-119.5" font-family="Helvetica,sans-Serif" font-size="10.00">drivers/temperature.h</text>
</a>
</g>
<!-- Node1&#45;&gt;Node7 -->
<g id="edge14" class="edge"><title>Node1&#45;&gt;Node7</title>
<path fill="none" stroke="midnightblue" d="M114.539,-168.444C133.623,-159.636 163.575,-145.812 185.436,-135.722"/>
<polygon fill="midnightblue" stroke="midnightblue" points="186.935,-138.885 194.548,-131.516 184.001,-132.529 186.935,-138.885"/>
</g>
<!-- Node3 -->
<g id="node5" class="node"><title>Node3</title>
<polygon fill="white" stroke="#bfbfbf" points="0,-0.5 0,-19.5 48,-19.5 48,-0.5 0,-0.5"/>
<text text-anchor="middle" x="24" y="-7.5" font-family="Helvetica,sans-Serif" font-size="10.00">stdlib.h</text>
</g>
<!-- Node2&#45;&gt;Node3 -->
<g id="edge4" class="edge"><title>Node2&#45;&gt;Node3</title>
<path fill="none" stroke="midnightblue" d="M84.432,-56.324C73.5798,-48.1849 57.1193,-35.8395 44.1166,-26.0874"/>
<polygon fill="midnightblue" stroke="midnightblue" points="45.8786,-23.0339 35.7785,-19.8339 41.6785,-28.6339 45.8786,-23.0339"/>
</g>
<!-- Node4 -->
<g id="node7" class="node"><title>Node4</title>
<polygon fill="white" stroke="#bfbfbf" points="66.5,-0.5 66.5,-19.5 125.5,-19.5 125.5,-0.5 66.5,-0.5"/>
<text text-anchor="middle" x="96" y="-7.5" font-family="Helvetica,sans-Serif" font-size="10.00">msp430.h</text>
</g>
<!-- Node2&#45;&gt;Node4 -->
<g id="edge6" class="edge"><title>Node2&#45;&gt;Node4</title>
<path fill="none" stroke="midnightblue" d="M96,-56.083C96,-49.0059 96,-38.8611 96,-29.9865"/>
<polygon fill="midnightblue" stroke="midnightblue" points="99.5001,-29.751 96,-19.7511 92.5001,-29.7511 99.5001,-29.751"/>
</g>
<!-- Node5 -->
<g id="node9" class="node"><title>Node5</title>
<a xlink:href="../../db/d16/config_8h.xhtml" target="_top" xlink:title="config/config.h">
<polygon fill="white" stroke="black" points="144,-0.5 144,-19.5 224,-19.5 224,-0.5 144,-0.5"/>
<text text-anchor="middle" x="184" y="-7.5" font-family="Helvetica,sans-Serif" font-size="10.00">config/config.h</text>
</a>
</g>
<!-- Node2&#45;&gt;Node5 -->
<g id="edge8" class="edge"><title>Node2&#45;&gt;Node5</title>
<path fill="none" stroke="midnightblue" d="M110.139,-56.324C123.866,-47.9002 144.936,-34.9709 161.064,-25.0741"/>
<polygon fill="midnightblue" stroke="midnightblue" points="163.204,-27.8678 169.896,-19.6545 159.543,-21.9016 163.204,-27.8678"/>
</g>
<!-- Node6&#45;&gt;Node2 -->
<g id="edge12" class="edge"><title>Node6&#45;&gt;Node2</title>
<path fill="none" stroke="midnightblue" d="M96,-112.083C96,-105.006 96,-94.8611 96,-85.9865"/>
<polygon fill="midnightblue" stroke="midnightblue" points="99.5001,-85.751 96,-75.7511 92.5001,-85.7511 99.5001,-85.751"/>
</g>
<!-- Node7&#45;&gt;Node2 -->
<g id="edge16" class="edge"><title>Node7&#45;&gt;Node2</title>
<path fill="none" stroke="midnightblue" d="M194.461,-112.444C175.377,-103.636 145.425,-89.8116 123.564,-79.722"/>
<polygon fill="midnightblue" stroke="midnightblue" points="124.999,-76.5292 114.452,-75.5164 122.065,-82.8849 124.999,-76.5292"/>
</g>
</g>
</svg>
