<?xml version="1.0" encoding="UTF-8" standalone="no"?>
<!DOCTYPE svg PUBLIC "-//W3C//DTD SVG 1.1//EN"
 "http://www.w3.org/Graphics/SVG/1.1/DTD/svg11.dtd">
<!-- Generated by graphviz version 2.28.0 (20121221.0049)
 -->
<!-- Title: clock_event Pages: 1 -->
<svg width="512pt" height="104pt"
 viewBox="0.00 0.00 512.00 104.00" xmlns="http://www.w3.org/2000/svg" xmlns:xlink="http://www.w3.org/1999/xlink">
<g id="graph1" class="graph" transform="scale(1 1) rotate(0) translate(4 100)">
<title>clock_event</title>
<polygon fill="white" stroke="white" points="-4,5 -4,-100 509,-100 509,5 -4,5"/>
<!-- Node1 -->
<g id="node1" class="node"><title>Node1</title>
<polygon fill="#bfbfbf" stroke="black" points="0.5,-38.5 0.5,-57.5 69.5,-57.5 69.5,-38.5 0.5,-38.5"/>
<text text-anchor="middle" x="35" y="-45.5" font-family="Helvetica,sans-Serif" font-size="10.00">clock_event</text>
</g>
<!-- Node2 -->
<g id="node3" class="node"><title>Node2</title>
<a xlink:href="../../db/d85/display_8c.xhtml#a9275035317878022cf9eacf6b0a5be72" target="_top" xlink:title="Display a custom collection of segments.">
<polygon fill="white" stroke="black" points="114,-76.5 114,-95.5 182,-95.5 182,-76.5 114,-76.5"/>
<text text-anchor="middle" x="148" y="-83.5" font-family="Helvetica,sans-Serif" font-size="10.00">display_bits</text>
</a>
</g>
<!-- Node1&#45;&gt;Node2 -->
<g id="edge2" class="edge"><title>Node1&#45;&gt;Node2</title>
<path fill="none" stroke="midnightblue" d="M64.01,-57.589C77.6817,-62.2694 94.331,-67.9692 109.118,-73.0315"/>
<polygon fill="midnightblue" stroke="midnightblue" points="108.404,-76.4864 118.999,-76.4141 110.672,-69.8638 108.404,-76.4864"/>
</g>
<!-- Node4 -->
<g id="node7" class="node"><title>Node4</title>
<a xlink:href="../../d2/dc0/otp_8c.xhtml#a4d0f7ddca67c79cdd79946289730562b" target="_top" xlink:title="simple_mktime">
<polygon fill="white" stroke="black" points="106.5,-38.5 106.5,-57.5 189.5,-57.5 189.5,-38.5 106.5,-38.5"/>
<text text-anchor="middle" x="148" y="-45.5" font-family="Helvetica,sans-Serif" font-size="10.00">simple_mktime</text>
</a>
</g>
<!-- Node1&#45;&gt;Node4 -->
<g id="edge6" class="edge"><title>Node1&#45;&gt;Node4</title>
<path fill="none" stroke="midnightblue" d="M69.6049,-48C78.0426,-48 87.2845,-48 96.3522,-48"/>
<polygon fill="midnightblue" stroke="midnightblue" points="96.4639,-51.5001 106.464,-48 96.4638,-44.5001 96.4639,-51.5001"/>
</g>
<!-- Node5 -->
<g id="node9" class="node"><title>Node5</title>
<a xlink:href="../../d2/dc0/otp_8c.xhtml#acabde8f0a8ab626185efe45312c7e127" target="_top" xlink:title="calculate_otp">
<polygon fill="white" stroke="black" points="111,-0.5 111,-19.5 185,-19.5 185,-0.5 111,-0.5"/>
<text text-anchor="middle" x="148" y="-7.5" font-family="Helvetica,sans-Serif" font-size="10.00">calculate_otp</text>
</a>
</g>
<!-- Node1&#45;&gt;Node5 -->
<g id="edge8" class="edge"><title>Node1&#45;&gt;Node5</title>
<path fill="none" stroke="midnightblue" d="M64.01,-38.411C77.6817,-33.7306 94.331,-28.0308 109.118,-22.9685"/>
<polygon fill="midnightblue" stroke="midnightblue" points="110.672,-26.1362 118.999,-19.5859 108.404,-19.5136 110.672,-26.1362"/>
</g>
<!-- Node3 -->
<g id="node5" class="node"><title>Node3</title>
<a xlink:href="../../db/d85/display_8c.xhtml#a710739913e8ea1b71dd433b8311211fd" target="_top" xlink:title="write_lcd_mem">
<polygon fill="white" stroke="black" points="226.5,-76.5 226.5,-95.5 309.5,-95.5 309.5,-76.5 226.5,-76.5"/>
<text text-anchor="middle" x="268" y="-83.5" font-family="Helvetica,sans-Serif" font-size="10.00">write_lcd_mem</text>
</a>
</g>
<!-- Node2&#45;&gt;Node3 -->
<g id="edge4" class="edge"><title>Node2&#45;&gt;Node3</title>
<path fill="none" stroke="midnightblue" d="M182.184,-86C192.622,-86 204.403,-86 215.79,-86"/>
<polygon fill="midnightblue" stroke="midnightblue" points="216.086,-89.5001 226.086,-86 216.086,-82.5001 216.086,-89.5001"/>
</g>
<!-- Node6 -->
<g id="node11" class="node"><title>Node6</title>
<a xlink:href="../../d2/dc0/otp_8c.xhtml#af846b96677ffbe8eda903d0d3dfd7298" target="_top" xlink:title="hmac_sha1">
<polygon fill="white" stroke="black" points="234.5,-0.5 234.5,-19.5 301.5,-19.5 301.5,-0.5 234.5,-0.5"/>
<text text-anchor="middle" x="268" y="-7.5" font-family="Helvetica,sans-Serif" font-size="10.00">hmac_sha1</text>
</a>
</g>
<!-- Node5&#45;&gt;Node6 -->
<g id="edge10" class="edge"><title>Node5&#45;&gt;Node6</title>
<path fill="none" stroke="midnightblue" d="M185.045,-10C197.452,-10 211.464,-10 224.347,-10"/>
<polygon fill="midnightblue" stroke="midnightblue" points="224.385,-13.5001 234.385,-10 224.385,-6.5001 224.385,-13.5001"/>
</g>
<!-- Node7 -->
<g id="node13" class="node"><title>Node7</title>
<a xlink:href="../../d2/dc0/otp_8c.xhtml#a09a9a455e41c4bc317d0740ae493f851" target="_top" xlink:title="sha1">
<polygon fill="white" stroke="black" points="346,-0.5 346,-19.5 384,-19.5 384,-0.5 346,-0.5"/>
<text text-anchor="middle" x="365" y="-7.5" font-family="Helvetica,sans-Serif" font-size="10.00">sha1</text>
</a>
</g>
<!-- Node6&#45;&gt;Node7 -->
<g id="edge12" class="edge"><title>Node6&#45;&gt;Node7</title>
<path fill="none" stroke="midnightblue" d="M301.694,-10C312.804,-10 325.115,-10 335.839,-10"/>
<polygon fill="midnightblue" stroke="midnightblue" points="335.932,-13.5001 345.932,-10 335.932,-6.5001 335.932,-13.5001"/>
</g>
<!-- Node8 -->
<g id="node15" class="node"><title>Node8</title>
<a xlink:href="../../d2/dc0/otp_8c.xhtml#a2e57aed16fec1a4c71d7a7e449aaff60" target="_top" xlink:title="sha1_transform">
<polygon fill="white" stroke="black" points="420,-0.5 420,-19.5 504,-19.5 504,-0.5 420,-0.5"/>
<text text-anchor="middle" x="462" y="-7.5" font-family="Helvetica,sans-Serif" font-size="10.00">sha1_transform</text>
</a>
</g>
<!-- Node7&#45;&gt;Node8 -->
<g id="edge14" class="edge"><title>Node7&#45;&gt;Node8</title>
<path fill="none" stroke="midnightblue" d="M384.317,-10C391.682,-10 400.575,-10 409.656,-10"/>
<polygon fill="midnightblue" stroke="midnightblue" points="409.919,-13.5001 419.919,-10 409.919,-6.5001 409.919,-13.5001"/>
</g>
</g>
</svg>
