<?xml version="1.0" encoding="UTF-8" standalone="no"?>
<!DOCTYPE svg PUBLIC "-//W3C//DTD SVG 1.1//EN"
 "http://www.w3.org/Graphics/SVG/1.1/DTD/svg11.dtd">
<!-- Generated by graphviz version 2.28.0 (20121221.0049)
 -->
<!-- Title: otp_deactivated Pages: 1 -->
<svg width="736pt" height="180pt"
 viewBox="0.00 0.00 736.00 180.00" xmlns="http://www.w3.org/2000/svg" xmlns:xlink="http://www.w3.org/1999/xlink">
<g id="graph1" class="graph" transform="scale(1 1) rotate(0) translate(4 176)">
<title>otp_deactivated</title>
<polygon fill="white" stroke="white" points="-4,5 -4,-176 733,-176 733,5 -4,5"/>
<!-- Node1 -->
<g id="node1" class="node"><title>Node1</title>
<polygon fill="#bfbfbf" stroke="black" points="0,-114.5 0,-133.5 86,-133.5 86,-114.5 0,-114.5"/>
<text text-anchor="middle" x="43" y="-121.5" font-family="Helvetica,sans-Serif" font-size="10.00">otp_deactivated</text>
</g>
<!-- Node2 -->
<g id="node3" class="node"><title>Node2</title>
<a xlink:href="../../d2/df2/openchronos_8c.xhtml#a60705ce0564ce52c1977a32cee3215c2" target="_top" xlink:title="Unregisters a node from the message bus.">
<polygon fill="white" stroke="black" points="122.5,-152.5 122.5,-171.5 263.5,-171.5 263.5,-152.5 122.5,-152.5"/>
<text text-anchor="middle" x="193" y="-159.5" font-family="Helvetica,sans-Serif" font-size="10.00">sys_messagebus_unregister</text>
</a>
</g>
<!-- Node1&#45;&gt;Node2 -->
<g id="edge2" class="edge"><title>Node1&#45;&gt;Node2</title>
<path fill="none" stroke="midnightblue" d="M81.3466,-133.589C100.701,-138.558 124.53,-144.677 145.113,-149.961"/>
<polygon fill="midnightblue" stroke="midnightblue" points="144.366,-153.383 154.922,-152.48 146.107,-146.603 144.366,-153.383"/>
</g>
<!-- Node3 -->
<g id="node5" class="node"><title>Node3</title>
<a xlink:href="../../d2/dc0/otp_8c.xhtml#a308a03c1199b5494e861bd9f5b68589f" target="_top" xlink:title="clock_event">
<polygon fill="white" stroke="black" points="158.5,-57.5 158.5,-76.5 227.5,-76.5 227.5,-57.5 158.5,-57.5"/>
<text text-anchor="middle" x="193" y="-64.5" font-family="Helvetica,sans-Serif" font-size="10.00">clock_event</text>
</a>
</g>
<!-- Node1&#45;&gt;Node3 -->
<g id="edge4" class="edge"><title>Node1&#45;&gt;Node3</title>
<path fill="none" stroke="midnightblue" d="M68.7719,-114.459C93.1037,-105.088 130.431,-90.7124 157.628,-80.2377"/>
<polygon fill="midnightblue" stroke="midnightblue" points="159.073,-83.4319 167.147,-76.5716 156.558,-76.8996 159.073,-83.4319"/>
</g>
<!-- Node11 -->
<g id="node21" class="node"><title>Node11</title>
<a xlink:href="../../db/d85/display_8c.xhtml#aa150336a018e90f37fd0285047b541f6" target="_top" xlink:title="Clears the screen.">
<polygon fill="white" stroke="black" points="156,-114.5 156,-133.5 230,-133.5 230,-114.5 156,-114.5"/>
<text text-anchor="middle" x="193" y="-121.5" font-family="Helvetica,sans-Serif" font-size="10.00">display_clear</text>
</a>
</g>
<!-- Node1&#45;&gt;Node11 -->
<g id="edge20" class="edge"><title>Node1&#45;&gt;Node11</title>
<path fill="none" stroke="midnightblue" d="M86.015,-124C104.705,-124 126.765,-124 145.906,-124"/>
<polygon fill="midnightblue" stroke="midnightblue" points="145.908,-127.5 155.908,-124 145.907,-120.5 145.908,-127.5"/>
</g>
<!-- Node4 -->
<g id="node7" class="node"><title>Node4</title>
<a xlink:href="../../db/d85/display_8c.xhtml#a9275035317878022cf9eacf6b0a5be72" target="_top" xlink:title="Display a custom collection of segments.">
<polygon fill="white" stroke="black" points="540,-114.5 540,-133.5 608,-133.5 608,-114.5 540,-114.5"/>
<text text-anchor="middle" x="574" y="-121.5" font-family="Helvetica,sans-Serif" font-size="10.00">display_bits</text>
</a>
</g>
<!-- Node3&#45;&gt;Node4 -->
<g id="edge6" class="edge"><title>Node3&#45;&gt;Node4</title>
<path fill="none" stroke="midnightblue" d="M227.744,-69.5044C284.97,-74.1147 404.533,-85.3193 504,-105 513.22,-106.824 523.015,-109.229 532.241,-111.712"/>
<polygon fill="midnightblue" stroke="midnightblue" points="531.402,-115.112 541.974,-114.414 533.274,-108.367 531.402,-115.112"/>
</g>
<!-- Node6 -->
<g id="node11" class="node"><title>Node6</title>
<a xlink:href="../../d2/dc0/otp_8c.xhtml#a4d0f7ddca67c79cdd79946289730562b" target="_top" xlink:title="simple_mktime">
<polygon fill="white" stroke="black" points="300.5,-38.5 300.5,-57.5 383.5,-57.5 383.5,-38.5 300.5,-38.5"/>
<text text-anchor="middle" x="342" y="-45.5" font-family="Helvetica,sans-Serif" font-size="10.00">simple_mktime</text>
</a>
</g>
<!-- Node3&#45;&gt;Node6 -->
<g id="edge10" class="edge"><title>Node3&#45;&gt;Node6</title>
<path fill="none" stroke="midnightblue" d="M227.725,-62.641C246.3,-60.2401 269.726,-57.2123 290.447,-54.5341"/>
<polygon fill="midnightblue" stroke="midnightblue" points="290.9,-58.0047 300.369,-53.2517 290.002,-51.0625 290.9,-58.0047"/>
</g>
<!-- Node7 -->
<g id="node13" class="node"><title>Node7</title>
<a xlink:href="../../d2/dc0/otp_8c.xhtml#acabde8f0a8ab626185efe45312c7e127" target="_top" xlink:title="calculate_otp">
<polygon fill="white" stroke="black" points="305,-0.5 305,-19.5 379,-19.5 379,-0.5 305,-0.5"/>
<text text-anchor="middle" x="342" y="-7.5" font-family="Helvetica,sans-Serif" font-size="10.00">calculate_otp</text>
</a>
</g>
<!-- Node3&#45;&gt;Node7 -->
<g id="edge12" class="edge"><title>Node3&#45;&gt;Node7</title>
<path fill="none" stroke="midnightblue" d="M218.604,-57.4595C242.772,-48.0884 279.847,-33.7124 306.861,-23.2377"/>
<polygon fill="midnightblue" stroke="midnightblue" points="308.257,-26.4503 316.315,-19.5716 305.726,-19.9237 308.257,-26.4503"/>
</g>
<!-- Node5 -->
<g id="node9" class="node"><title>Node5</title>
<a xlink:href="../../db/d85/display_8c.xhtml#a710739913e8ea1b71dd433b8311211fd" target="_top" xlink:title="write_lcd_mem">
<polygon fill="white" stroke="black" points="644.5,-133.5 644.5,-152.5 727.5,-152.5 727.5,-133.5 644.5,-133.5"/>
<text text-anchor="middle" x="686" y="-140.5" font-family="Helvetica,sans-Serif" font-size="10.00">write_lcd_mem</text>
</a>
</g>
<!-- Node4&#45;&gt;Node5 -->
<g id="edge8" class="edge"><title>Node4&#45;&gt;Node5</title>
<path fill="none" stroke="midnightblue" d="M608.004,-129.701C616.28,-131.13 625.352,-132.697 634.273,-134.238"/>
<polygon fill="midnightblue" stroke="midnightblue" points="633.781,-137.705 644.231,-135.958 634.972,-130.807 633.781,-137.705"/>
</g>
<!-- Node8 -->
<g id="node15" class="node"><title>Node8</title>
<a xlink:href="../../d2/dc0/otp_8c.xhtml#af846b96677ffbe8eda903d0d3dfd7298" target="_top" xlink:title="hmac_sha1">
<polygon fill="white" stroke="black" points="428.5,-0.5 428.5,-19.5 495.5,-19.5 495.5,-0.5 428.5,-0.5"/>
<text text-anchor="middle" x="462" y="-7.5" font-family="Helvetica,sans-Serif" font-size="10.00">hmac_sha1</text>
</a>
</g>
<!-- Node7&#45;&gt;Node8 -->
<g id="edge14" class="edge"><title>Node7&#45;&gt;Node8</title>
<path fill="none" stroke="midnightblue" d="M379.045,-10C391.452,-10 405.464,-10 418.347,-10"/>
<polygon fill="midnightblue" stroke="midnightblue" points="418.385,-13.5001 428.385,-10 418.385,-6.5001 418.385,-13.5001"/>
</g>
<!-- Node9 -->
<g id="node17" class="node"><title>Node9</title>
<a xlink:href="../../d2/dc0/otp_8c.xhtml#a09a9a455e41c4bc317d0740ae493f851" target="_top" xlink:title="sha1">
<polygon fill="white" stroke="black" points="555,-0.5 555,-19.5 593,-19.5 593,-0.5 555,-0.5"/>
<text text-anchor="middle" x="574" y="-7.5" font-family="Helvetica,sans-Serif" font-size="10.00">sha1</text>
</a>
</g>
<!-- Node8&#45;&gt;Node9 -->
<g id="edge16" class="edge"><title>Node8&#45;&gt;Node9</title>
<path fill="none" stroke="midnightblue" d="M495.706,-10C511.3,-10 529.772,-10 544.747,-10"/>
<polygon fill="midnightblue" stroke="midnightblue" points="544.943,-13.5001 554.943,-10 544.943,-6.5001 544.943,-13.5001"/>
</g>
<!-- Node10 -->
<g id="node19" class="node"><title>Node10</title>
<a xlink:href="../../d2/dc0/otp_8c.xhtml#a2e57aed16fec1a4c71d7a7e449aaff60" target="_top" xlink:title="sha1_transform">
<polygon fill="white" stroke="black" points="644,-0.5 644,-19.5 728,-19.5 728,-0.5 644,-0.5"/>
<text text-anchor="middle" x="686" y="-7.5" font-family="Helvetica,sans-Serif" font-size="10.00">sha1_transform</text>
</a>
</g>
<!-- Node9&#45;&gt;Node10 -->
<g id="edge18" class="edge"><title>Node9&#45;&gt;Node10</title>
<path fill="none" stroke="midnightblue" d="M593.164,-10C604.369,-10 619.35,-10 633.956,-10"/>
<polygon fill="midnightblue" stroke="midnightblue" points="633.957,-13.5001 643.957,-10 633.957,-6.5001 633.957,-13.5001"/>
</g>
<!-- Node12 -->
<g id="node23" class="node"><title>Node12</title>
<a xlink:href="../../db/d85/display_8c.xhtml#a6f2d5cdda31a73b43a569cb3d1a64165" target="_top" xlink:title="Displays several consecutive characters.">
<polygon fill="white" stroke="black" points="303.5,-114.5 303.5,-133.5 380.5,-133.5 380.5,-114.5 303.5,-114.5"/>
<text text-anchor="middle" x="342" y="-121.5" font-family="Helvetica,sans-Serif" font-size="10.00">display_chars</text>
</a>
</g>
<!-- Node11&#45;&gt;Node12 -->
<g id="edge22" class="edge"><title>Node11&#45;&gt;Node12</title>
<path fill="none" stroke="midnightblue" d="M230.337,-124C249.32,-124 272.792,-124 293.227,-124"/>
<polygon fill="midnightblue" stroke="midnightblue" points="293.289,-127.5 303.289,-124 293.288,-120.5 293.289,-127.5"/>
</g>
<!-- Node14 -->
<g id="node28" class="node"><title>Node14</title>
<a xlink:href="../../db/d85/display_8c.xhtml#af604e78dcc4e0f1a204b2180c5e54957" target="_top" xlink:title="Displays a symbol.">
<polygon fill="white" stroke="black" points="420,-152.5 420,-171.5 504,-171.5 504,-152.5 420,-152.5"/>
<text text-anchor="middle" x="462" y="-159.5" font-family="Helvetica,sans-Serif" font-size="10.00">display_symbol</text>
</a>
</g>
<!-- Node11&#45;&gt;Node14 -->
<g id="edge28" class="edge"><title>Node11&#45;&gt;Node14</title>
<path fill="none" stroke="midnightblue" d="M230.216,-131.046C250.656,-134.883 276.698,-139.54 300,-143 336.518,-148.423 377.883,-153.277 409.54,-156.721"/>
<polygon fill="midnightblue" stroke="midnightblue" points="409.565,-160.244 419.882,-157.834 410.314,-153.284 409.565,-160.244"/>
</g>
<!-- Node13 -->
<g id="node25" class="node"><title>Node13</title>
<a xlink:href="../../db/d85/display_8c.xhtml#a3ae30196af91197037d50cb49de1d109" target="_top" xlink:title="Displays a single character.">
<polygon fill="white" stroke="black" points="426.5,-114.5 426.5,-133.5 497.5,-133.5 497.5,-114.5 426.5,-114.5"/>
<text text-anchor="middle" x="462" y="-121.5" font-family="Helvetica,sans-Serif" font-size="10.00">display_char</text>
</a>
</g>
<!-- Node12&#45;&gt;Node13 -->
<g id="edge24" class="edge"><title>Node12&#45;&gt;Node13</title>
<path fill="none" stroke="midnightblue" d="M380.66,-124C392.033,-124 404.628,-124 416.407,-124"/>
<polygon fill="midnightblue" stroke="midnightblue" points="416.497,-127.5 426.496,-124 416.496,-120.5 416.497,-127.5"/>
</g>
<!-- Node13&#45;&gt;Node4 -->
<g id="edge26" class="edge"><title>Node13&#45;&gt;Node4</title>
<path fill="none" stroke="midnightblue" d="M497.503,-124C507.721,-124 519.04,-124 529.738,-124"/>
<polygon fill="midnightblue" stroke="midnightblue" points="529.748,-127.5 539.748,-124 529.748,-120.5 529.748,-127.5"/>
</g>
<!-- Node14&#45;&gt;Node5 -->
<g id="edge30" class="edge"><title>Node14&#45;&gt;Node5</title>
<path fill="none" stroke="midnightblue" d="M504.236,-158.471C540.955,-155.328 594.802,-150.72 634.174,-147.35"/>
<polygon fill="midnightblue" stroke="midnightblue" points="634.694,-150.818 644.359,-146.478 634.097,-143.844 634.694,-150.818"/>
</g>
</g>
</svg>
