<?xml version="1.0" encoding="UTF-8" standalone="no"?>
<!DOCTYPE svg PUBLIC "-//W3C//DTD SVG 1.1//EN"
 "http://www.w3.org/Graphics/SVG/1.1/DTD/svg11.dtd">
<!-- Generated by graphviz version 2.28.0 (20121221.0049)
 -->
<!-- Title: otp_activated Pages: 1 -->
<svg width="686pt" height="104pt"
 viewBox="0.00 0.00 686.00 104.00" xmlns="http://www.w3.org/2000/svg" xmlns:xlink="http://www.w3.org/1999/xlink">
<g id="graph1" class="graph" transform="scale(1 1) rotate(0) translate(4 100)">
<title>otp_activated</title>
<polygon fill="white" stroke="white" points="-4,5 -4,-100 683,-100 683,5 -4,5"/>
<!-- Node1 -->
<g id="node1" class="node"><title>Node1</title>
<polygon fill="#bfbfbf" stroke="black" points="0.5,-57.5 0.5,-76.5 75.5,-76.5 75.5,-57.5 0.5,-57.5"/>
<text text-anchor="middle" x="38" y="-64.5" font-family="Helvetica,sans-Serif" font-size="10.00">otp_activated</text>
</g>
<!-- Node2 -->
<g id="node3" class="node"><title>Node2</title>
<a xlink:href="../../d2/df2/openchronos_8c.xhtml#a5aeb07d7031b5d53ca8605bf398714a2" target="_top" xlink:title="Registers a node in the message bus.">
<polygon fill="white" stroke="black" points="112.5,-76.5 112.5,-95.5 243.5,-95.5 243.5,-76.5 112.5,-76.5"/>
<text text-anchor="middle" x="178" y="-83.5" font-family="Helvetica,sans-Serif" font-size="10.00">sys_messagebus_register</text>
</a>
</g>
<!-- Node1&#45;&gt;Node2 -->
<g id="edge2" class="edge"><title>Node1&#45;&gt;Node2</title>
<path fill="none" stroke="midnightblue" d="M75.6192,-72.0418C83.946,-73.1882 93.0865,-74.4467 102.364,-75.724"/>
<polygon fill="midnightblue" stroke="midnightblue" points="102.068,-79.2163 112.452,-77.113 103.023,-72.2817 102.068,-79.2163"/>
</g>
<!-- Node3 -->
<g id="node5" class="node"><title>Node3</title>
<a xlink:href="../../d2/dc0/otp_8c.xhtml#a308a03c1199b5494e861bd9f5b68589f" target="_top" xlink:title="clock_event">
<polygon fill="white" stroke="black" points="143.5,-38.5 143.5,-57.5 212.5,-57.5 212.5,-38.5 143.5,-38.5"/>
<text text-anchor="middle" x="178" y="-45.5" font-family="Helvetica,sans-Serif" font-size="10.00">clock_event</text>
</a>
</g>
<!-- Node1&#45;&gt;Node3 -->
<g id="edge4" class="edge"><title>Node1&#45;&gt;Node3</title>
<path fill="none" stroke="midnightblue" d="M75.6192,-61.9582C93.271,-59.5279 114.579,-56.5941 133.096,-54.0447"/>
<polygon fill="midnightblue" stroke="midnightblue" points="133.626,-57.5049 143.055,-52.6736 132.671,-50.5703 133.626,-57.5049"/>
</g>
<!-- Node4 -->
<g id="node7" class="node"><title>Node4</title>
<a xlink:href="../../db/d85/display_8c.xhtml#a9275035317878022cf9eacf6b0a5be72" target="_top" xlink:title="Display a custom collection of segments.">
<polygon fill="white" stroke="black" points="288,-76.5 288,-95.5 356,-95.5 356,-76.5 288,-76.5"/>
<text text-anchor="middle" x="322" y="-83.5" font-family="Helvetica,sans-Serif" font-size="10.00">display_bits</text>
</a>
</g>
<!-- Node3&#45;&gt;Node4 -->
<g id="edge6" class="edge"><title>Node3&#45;&gt;Node4</title>
<path fill="none" stroke="midnightblue" d="M212.652,-57.0055C232.105,-62.2111 256.787,-68.8161 277.678,-74.4067"/>
<polygon fill="midnightblue" stroke="midnightblue" points="277.025,-77.855 287.59,-77.0592 278.834,-71.093 277.025,-77.855"/>
</g>
<!-- Node6 -->
<g id="node11" class="node"><title>Node6</title>
<a xlink:href="../../d2/dc0/otp_8c.xhtml#a4d0f7ddca67c79cdd79946289730562b" target="_top" xlink:title="simple_mktime">
<polygon fill="white" stroke="black" points="280.5,-38.5 280.5,-57.5 363.5,-57.5 363.5,-38.5 280.5,-38.5"/>
<text text-anchor="middle" x="322" y="-45.5" font-family="Helvetica,sans-Serif" font-size="10.00">simple_mktime</text>
</a>
</g>
<!-- Node3&#45;&gt;Node6 -->
<g id="edge10" class="edge"><title>Node3&#45;&gt;Node6</title>
<path fill="none" stroke="midnightblue" d="M212.652,-48C229.823,-48 251.069,-48 270.186,-48"/>
<polygon fill="midnightblue" stroke="midnightblue" points="270.251,-51.5001 280.251,-48 270.251,-44.5001 270.251,-51.5001"/>
</g>
<!-- Node7 -->
<g id="node13" class="node"><title>Node7</title>
<a xlink:href="../../d2/dc0/otp_8c.xhtml#acabde8f0a8ab626185efe45312c7e127" target="_top" xlink:title="calculate_otp">
<polygon fill="white" stroke="black" points="285,-0.5 285,-19.5 359,-19.5 359,-0.5 285,-0.5"/>
<text text-anchor="middle" x="322" y="-7.5" font-family="Helvetica,sans-Serif" font-size="10.00">calculate_otp</text>
</a>
</g>
<!-- Node3&#45;&gt;Node7 -->
<g id="edge12" class="edge"><title>Node3&#45;&gt;Node7</title>
<path fill="none" stroke="midnightblue" d="M212.652,-38.9945C231.47,-33.9586 255.182,-27.6132 275.622,-22.1433"/>
<polygon fill="midnightblue" stroke="midnightblue" points="276.603,-25.5042 285.358,-19.538 274.793,-18.7422 276.603,-25.5042"/>
</g>
<!-- Node5 -->
<g id="node9" class="node"><title>Node5</title>
<a xlink:href="../../db/d85/display_8c.xhtml#a710739913e8ea1b71dd433b8311211fd" target="_top" xlink:title="write_lcd_mem">
<polygon fill="white" stroke="black" points="400.5,-76.5 400.5,-95.5 483.5,-95.5 483.5,-76.5 400.5,-76.5"/>
<text text-anchor="middle" x="442" y="-83.5" font-family="Helvetica,sans-Serif" font-size="10.00">write_lcd_mem</text>
</a>
</g>
<!-- Node4&#45;&gt;Node5 -->
<g id="edge8" class="edge"><title>Node4&#45;&gt;Node5</title>
<path fill="none" stroke="midnightblue" d="M356.184,-86C366.622,-86 378.403,-86 389.79,-86"/>
<polygon fill="midnightblue" stroke="midnightblue" points="390.086,-89.5001 400.086,-86 390.086,-82.5001 390.086,-89.5001"/>
</g>
<!-- Node8 -->
<g id="node15" class="node"><title>Node8</title>
<a xlink:href="../../d2/dc0/otp_8c.xhtml#af846b96677ffbe8eda903d0d3dfd7298" target="_top" xlink:title="hmac_sha1">
<polygon fill="white" stroke="black" points="408.5,-0.5 408.5,-19.5 475.5,-19.5 475.5,-0.5 408.5,-0.5"/>
<text text-anchor="middle" x="442" y="-7.5" font-family="Helvetica,sans-Serif" font-size="10.00">hmac_sha1</text>
</a>
</g>
<!-- Node7&#45;&gt;Node8 -->
<g id="edge14" class="edge"><title>Node7&#45;&gt;Node8</title>
<path fill="none" stroke="midnightblue" d="M359.045,-10C371.452,-10 385.464,-10 398.347,-10"/>
<polygon fill="midnightblue" stroke="midnightblue" points="398.385,-13.5001 408.385,-10 398.385,-6.5001 398.385,-13.5001"/>
</g>
<!-- Node9 -->
<g id="node17" class="node"><title>Node9</title>
<a xlink:href="../../d2/dc0/otp_8c.xhtml#a09a9a455e41c4bc317d0740ae493f851" target="_top" xlink:title="sha1">
<polygon fill="white" stroke="black" points="520,-0.5 520,-19.5 558,-19.5 558,-0.5 520,-0.5"/>
<text text-anchor="middle" x="539" y="-7.5" font-family="Helvetica,sans-Serif" font-size="10.00">sha1</text>
</a>
</g>
<!-- Node8&#45;&gt;Node9 -->
<g id="edge16" class="edge"><title>Node8&#45;&gt;Node9</title>
<path fill="none" stroke="midnightblue" d="M475.694,-10C486.804,-10 499.115,-10 509.839,-10"/>
<polygon fill="midnightblue" stroke="midnightblue" points="509.932,-13.5001 519.932,-10 509.932,-6.5001 509.932,-13.5001"/>
</g>
<!-- Node10 -->
<g id="node19" class="node"><title>Node10</title>
<a xlink:href="../../d2/dc0/otp_8c.xhtml#a2e57aed16fec1a4c71d7a7e449aaff60" target="_top" xlink:title="sha1_transform">
<polygon fill="white" stroke="black" points="594,-0.5 594,-19.5 678,-19.5 678,-0.5 594,-0.5"/>
<text text-anchor="middle" x="636" y="-7.5" font-family="Helvetica,sans-Serif" font-size="10.00">sha1_transform</text>
</a>
</g>
<!-- Node9&#45;&gt;Node10 -->
<g id="edge18" class="edge"><title>Node9&#45;&gt;Node10</title>
<path fill="none" stroke="midnightblue" d="M558.317,-10C565.682,-10 574.575,-10 583.656,-10"/>
<polygon fill="midnightblue" stroke="midnightblue" points="583.919,-13.5001 593.919,-10 583.919,-6.5001 583.919,-13.5001"/>
</g>
</g>
</svg>
