<?xml version="1.0" encoding="UTF-8" standalone="no"?>
<!DOCTYPE svg PUBLIC "-//W3C//DTD SVG 1.1//EN"
 "http://www.w3.org/Graphics/SVG/1.1/DTD/svg11.dtd">
<!-- Generated by graphviz version 2.28.0 (20121221.0049)
 -->
<!-- Title: calculate_otp Pages: 1 -->
<svg width="380pt" height="28pt"
 viewBox="0.00 0.00 380.00 28.00" xmlns="http://www.w3.org/2000/svg" xmlns:xlink="http://www.w3.org/1999/xlink">
<g id="graph1" class="graph" transform="scale(1 1) rotate(0) translate(4 24)">
<title>calculate_otp</title>
<polygon fill="white" stroke="white" points="-4,5 -4,-24 377,-24 377,5 -4,5"/>
<!-- Node1 -->
<g id="node1" class="node"><title>Node1</title>
<polygon fill="#bfbfbf" stroke="black" points="0,-0.5 0,-19.5 74,-19.5 74,-0.5 0,-0.5"/>
<text text-anchor="middle" x="37" y="-7.5" font-family="Helvetica,sans-Serif" font-size="10.00">calculate_otp</text>
</g>
<!-- Node2 -->
<g id="node3" class="node"><title>Node2</title>
<a xlink:href="../../d2/dc0/otp_8c.xhtml#af846b96677ffbe8eda903d0d3dfd7298" target="_top" xlink:title="hmac_sha1">
<polygon fill="white" stroke="black" points="110.5,-0.5 110.5,-19.5 177.5,-19.5 177.5,-0.5 110.5,-0.5"/>
<text text-anchor="middle" x="144" y="-7.5" font-family="Helvetica,sans-Serif" font-size="10.00">hmac_sha1</text>
</a>
</g>
<!-- Node1&#45;&gt;Node2 -->
<g id="edge2" class="edge"><title>Node1&#45;&gt;Node2</title>
<path fill="none" stroke="midnightblue" d="M74.135,-10C82.4855,-10 91.4497,-10 100.059,-10"/>
<polygon fill="midnightblue" stroke="midnightblue" points="100.319,-13.5001 110.319,-10 100.319,-6.5001 100.319,-13.5001"/>
</g>
<!-- Node3 -->
<g id="node5" class="node"><title>Node3</title>
<a xlink:href="../../d2/dc0/otp_8c.xhtml#a09a9a455e41c4bc317d0740ae493f851" target="_top" xlink:title="sha1">
<polygon fill="white" stroke="black" points="214,-0.5 214,-19.5 252,-19.5 252,-0.5 214,-0.5"/>
<text text-anchor="middle" x="233" y="-7.5" font-family="Helvetica,sans-Serif" font-size="10.00">sha1</text>
</a>
</g>
<!-- Node2&#45;&gt;Node3 -->
<g id="edge4" class="edge"><title>Node2&#45;&gt;Node3</title>
<path fill="none" stroke="midnightblue" d="M177.891,-10C186.322,-10 195.32,-10 203.509,-10"/>
<polygon fill="midnightblue" stroke="midnightblue" points="203.692,-13.5001 213.692,-10 203.692,-6.5001 203.692,-13.5001"/>
</g>
<!-- Node4 -->
<g id="node7" class="node"><title>Node4</title>
<a xlink:href="../../d2/dc0/otp_8c.xhtml#a2e57aed16fec1a4c71d7a7e449aaff60" target="_top" xlink:title="sha1_transform">
<polygon fill="white" stroke="black" points="288,-0.5 288,-19.5 372,-19.5 372,-0.5 288,-0.5"/>
<text text-anchor="middle" x="330" y="-7.5" font-family="Helvetica,sans-Serif" font-size="10.00">sha1_transform</text>
</a>
</g>
<!-- Node3&#45;&gt;Node4 -->
<g id="edge6" class="edge"><title>Node3&#45;&gt;Node4</title>
<path fill="none" stroke="midnightblue" d="M252.317,-10C259.682,-10 268.575,-10 277.656,-10"/>
<polygon fill="midnightblue" stroke="midnightblue" points="277.919,-13.5001 287.919,-10 277.919,-6.5001 277.919,-13.5001"/>
</g>
</g>
</svg>
