<?xml version="1.0" encoding="UTF-8" standalone="no"?>
<!DOCTYPE svg PUBLIC "-//W3C//DTD SVG 1.1//EN"
 "http://www.w3.org/Graphics/SVG/1.1/DTD/svg11.dtd">
<!-- Generated by graphviz version 2.28.0 (20121221.0049)
 -->
<!-- Title: hmac_sha1 Pages: 1 -->
<svg width="270pt" height="28pt"
 viewBox="0.00 0.00 270.00 28.00" xmlns="http://www.w3.org/2000/svg" xmlns:xlink="http://www.w3.org/1999/xlink">
<g id="graph1" class="graph" transform="scale(1 1) rotate(0) translate(4 24)">
<title>hmac_sha1</title>
<polygon fill="white" stroke="white" points="-4,5 -4,-24 267,-24 267,5 -4,5"/>
<!-- Node1 -->
<g id="node1" class="node"><title>Node1</title>
<polygon fill="#bfbfbf" stroke="black" points="0.5,-0.5 0.5,-19.5 67.5,-19.5 67.5,-0.5 0.5,-0.5"/>
<text text-anchor="middle" x="34" y="-7.5" font-family="Helvetica,sans-Serif" font-size="10.00">hmac_sha1</text>
</g>
<!-- Node2 -->
<g id="node3" class="node"><title>Node2</title>
<a xlink:href="../../d2/dc0/otp_8c.xhtml#a09a9a455e41c4bc317d0740ae493f851" target="_top" xlink:title="sha1">
<polygon fill="white" stroke="black" points="104,-0.5 104,-19.5 142,-19.5 142,-0.5 104,-0.5"/>
<text text-anchor="middle" x="123" y="-7.5" font-family="Helvetica,sans-Serif" font-size="10.00">sha1</text>
</a>
</g>
<!-- Node1&#45;&gt;Node2 -->
<g id="edge2" class="edge"><title>Node1&#45;&gt;Node2</title>
<path fill="none" stroke="midnightblue" d="M67.891,-10C76.3223,-10 85.3199,-10 93.5088,-10"/>
<polygon fill="midnightblue" stroke="midnightblue" points="93.6924,-13.5001 103.692,-10 93.6923,-6.5001 93.6924,-13.5001"/>
</g>
<!-- Node3 -->
<g id="node5" class="node"><title>Node3</title>
<a xlink:href="../../d2/dc0/otp_8c.xhtml#a2e57aed16fec1a4c71d7a7e449aaff60" target="_top" xlink:title="sha1_transform">
<polygon fill="white" stroke="black" points="178,-0.5 178,-19.5 262,-19.5 262,-0.5 178,-0.5"/>
<text text-anchor="middle" x="220" y="-7.5" font-family="Helvetica,sans-Serif" font-size="10.00">sha1_transform</text>
</a>
</g>
<!-- Node2&#45;&gt;Node3 -->
<g id="edge4" class="edge"><title>Node2&#45;&gt;Node3</title>
<path fill="none" stroke="midnightblue" d="M142.317,-10C149.682,-10 158.575,-10 167.656,-10"/>
<polygon fill="midnightblue" stroke="midnightblue" points="167.919,-13.5001 177.919,-10 167.919,-6.5001 167.919,-13.5001"/>
</g>
</g>
</svg>
