<?xml version="1.0" encoding="UTF-8" standalone="no"?>
<!DOCTYPE svg PUBLIC "-//W3C//DTD SVG 1.1//EN"
 "http://www.w3.org/Graphics/SVG/1.1/DTD/svg11.dtd">
<!-- Generated by graphviz version 2.28.0 (20121221.0049)
 -->
<!-- Title: mod_otp_init Pages: 1 -->
<svg width="848pt" height="180pt"
 viewBox="0.00 0.00 848.00 180.00" xmlns="http://www.w3.org/2000/svg" xmlns:xlink="http://www.w3.org/1999/xlink">
<g id="graph1" class="graph" transform="scale(1 1) rotate(0) translate(4 176)">
<title>mod_otp_init</title>
<polygon fill="white" stroke="white" points="-4,5 -4,-176 845,-176 845,5 -4,5"/>
<!-- Node1 -->
<g id="node1" class="node"><title>Node1</title>
<polygon fill="#bfbfbf" stroke="black" points="0,-114.5 0,-133.5 72,-133.5 72,-114.5 0,-114.5"/>
<text text-anchor="middle" x="36" y="-121.5" font-family="Helvetica,sans-Serif" font-size="10.00">mod_otp_init</text>
</g>
<!-- Node2 -->
<g id="node3" class="node"><title>Node2</title>
<a xlink:href="../../d2/df2/openchronos_8c.xhtml#a71490cfda7ca71ac20d681a8a7a994e1" target="_top" xlink:title="Adds an entry to the main menu.">
<polygon fill="white" stroke="black" points="108.5,-152.5 108.5,-171.5 197.5,-171.5 197.5,-152.5 108.5,-152.5"/>
<text text-anchor="middle" x="153" y="-159.5" font-family="Helvetica,sans-Serif" font-size="10.00">menu_add_entry</text>
</a>
</g>
<!-- Node1&#45;&gt;Node2 -->
<g id="edge2" class="edge"><title>Node1&#45;&gt;Node2</title>
<path fill="none" stroke="midnightblue" d="M66.0194,-133.589C80.32,-138.314 97.765,-144.079 113.195,-149.177"/>
<polygon fill="midnightblue" stroke="midnightblue" points="112.397,-152.6 122.99,-152.414 114.593,-145.953 112.397,-152.6"/>
</g>
<!-- Node3 -->
<g id="node5" class="node"><title>Node3</title>
<a xlink:href="../../d2/dc0/otp_8c.xhtml#a582f6038bc25e97e2a4e25def57a6ebc" target="_top" xlink:title="otp_activated">
<polygon fill="white" stroke="black" points="115.5,-114.5 115.5,-133.5 190.5,-133.5 190.5,-114.5 115.5,-114.5"/>
<text text-anchor="middle" x="153" y="-121.5" font-family="Helvetica,sans-Serif" font-size="10.00">otp_activated</text>
</a>
</g>
<!-- Node1&#45;&gt;Node3 -->
<g id="edge4" class="edge"><title>Node1&#45;&gt;Node3</title>
<path fill="none" stroke="midnightblue" d="M72.1287,-124C82.6477,-124 94.3501,-124 105.482,-124"/>
<polygon fill="midnightblue" stroke="midnightblue" points="105.495,-127.5 115.495,-124 105.495,-120.5 105.495,-127.5"/>
</g>
<!-- Node13 -->
<g id="node25" class="node"><title>Node13</title>
<a xlink:href="../../d2/dc0/otp_8c.xhtml#a6853929c72d5bb6068131c785acfb05f" target="_top" xlink:title="otp_deactivated">
<polygon fill="white" stroke="black" points="110,-76.5 110,-95.5 196,-95.5 196,-76.5 110,-76.5"/>
<text text-anchor="middle" x="153" y="-83.5" font-family="Helvetica,sans-Serif" font-size="10.00">otp_deactivated</text>
</a>
</g>
<!-- Node1&#45;&gt;Node13 -->
<g id="edge24" class="edge"><title>Node1&#45;&gt;Node13</title>
<path fill="none" stroke="midnightblue" d="M66.0194,-114.411C80.32,-109.686 97.765,-103.921 113.195,-98.8226"/>
<polygon fill="midnightblue" stroke="midnightblue" points="114.593,-102.047 122.99,-95.5859 112.397,-95.4002 114.593,-102.047"/>
</g>
<!-- Node4 -->
<g id="node7" class="node"><title>Node4</title>
<a xlink:href="../../d2/df2/openchronos_8c.xhtml#a5aeb07d7031b5d53ca8605bf398714a2" target="_top" xlink:title="Registers a node in the message bus.">
<polygon fill="white" stroke="black" points="239.5,-152.5 239.5,-171.5 370.5,-171.5 370.5,-152.5 239.5,-152.5"/>
<text text-anchor="middle" x="305" y="-159.5" font-family="Helvetica,sans-Serif" font-size="10.00">sys_messagebus_register</text>
</a>
</g>
<!-- Node3&#45;&gt;Node4 -->
<g id="edge6" class="edge"><title>Node3&#45;&gt;Node4</title>
<path fill="none" stroke="midnightblue" d="M190.694,-133.296C210.536,-138.322 235.267,-144.588 256.558,-149.981"/>
<polygon fill="midnightblue" stroke="midnightblue" points="255.827,-153.407 266.381,-152.47 257.547,-146.621 255.827,-153.407"/>
</g>
<!-- Node5 -->
<g id="node9" class="node"><title>Node5</title>
<a xlink:href="../../d2/dc0/otp_8c.xhtml#a308a03c1199b5494e861bd9f5b68589f" target="_top" xlink:title="clock_event">
<polygon fill="white" stroke="black" points="270.5,-114.5 270.5,-133.5 339.5,-133.5 339.5,-114.5 270.5,-114.5"/>
<text text-anchor="middle" x="305" y="-121.5" font-family="Helvetica,sans-Serif" font-size="10.00">clock_event</text>
</a>
</g>
<!-- Node3&#45;&gt;Node5 -->
<g id="edge8" class="edge"><title>Node3&#45;&gt;Node5</title>
<path fill="none" stroke="midnightblue" d="M190.694,-124C211.659,-124 238.083,-124 260.138,-124"/>
<polygon fill="midnightblue" stroke="midnightblue" points="260.249,-127.5 270.249,-124 260.249,-120.5 260.249,-127.5"/>
</g>
<!-- Node6 -->
<g id="node11" class="node"><title>Node6</title>
<a xlink:href="../../db/d85/display_8c.xhtml#a9275035317878022cf9eacf6b0a5be72" target="_top" xlink:title="Display a custom collection of segments.">
<polygon fill="white" stroke="black" points="652,-38.5 652,-57.5 720,-57.5 720,-38.5 652,-38.5"/>
<text text-anchor="middle" x="686" y="-45.5" font-family="Helvetica,sans-Serif" font-size="10.00">display_bits</text>
</a>
</g>
<!-- Node5&#45;&gt;Node6 -->
<g id="edge10" class="edge"><title>Node5&#45;&gt;Node6</title>
<path fill="none" stroke="midnightblue" d="M339.581,-122.604C377.776,-120.564 441.864,-115.765 496,-105 550.616,-94.1395 612.039,-74.1037 649.627,-60.9145"/>
<polygon fill="midnightblue" stroke="midnightblue" points="650.854,-64.1931 659.111,-57.5542 648.516,-57.595 650.854,-64.1931"/>
</g>
<!-- Node8 -->
<g id="node15" class="node"><title>Node8</title>
<a xlink:href="../../d2/dc0/otp_8c.xhtml#a4d0f7ddca67c79cdd79946289730562b" target="_top" xlink:title="simple_mktime">
<polygon fill="white" stroke="black" points="412.5,-76.5 412.5,-95.5 495.5,-95.5 495.5,-76.5 412.5,-76.5"/>
<text text-anchor="middle" x="454" y="-83.5" font-family="Helvetica,sans-Serif" font-size="10.00">simple_mktime</text>
</a>
</g>
<!-- Node5&#45;&gt;Node8 -->
<g id="edge14" class="edge"><title>Node5&#45;&gt;Node8</title>
<path fill="none" stroke="midnightblue" d="M339.725,-115.282C359.409,-110.194 384.54,-103.697 406.127,-98.1168"/>
<polygon fill="midnightblue" stroke="midnightblue" points="407.276,-101.435 416.081,-95.5436 405.524,-94.6578 407.276,-101.435"/>
</g>
<!-- Node9 -->
<g id="node17" class="node"><title>Node9</title>
<a xlink:href="../../d2/dc0/otp_8c.xhtml#acabde8f0a8ab626185efe45312c7e127" target="_top" xlink:title="calculate_otp">
<polygon fill="white" stroke="black" points="417,-152.5 417,-171.5 491,-171.5 491,-152.5 417,-152.5"/>
<text text-anchor="middle" x="454" y="-159.5" font-family="Helvetica,sans-Serif" font-size="10.00">calculate_otp</text>
</a>
</g>
<!-- Node5&#45;&gt;Node9 -->
<g id="edge16" class="edge"><title>Node5&#45;&gt;Node9</title>
<path fill="none" stroke="midnightblue" d="M339.725,-132.718C359.719,-137.886 385.332,-144.508 407.143,-150.146"/>
<polygon fill="midnightblue" stroke="midnightblue" points="406.306,-153.544 416.863,-152.659 408.058,-146.767 406.306,-153.544"/>
</g>
<!-- Node7 -->
<g id="node13" class="node"><title>Node7</title>
<a xlink:href="../../db/d85/display_8c.xhtml#a710739913e8ea1b71dd433b8311211fd" target="_top" xlink:title="write_lcd_mem">
<polygon fill="white" stroke="black" points="756.5,-19.5 756.5,-38.5 839.5,-38.5 839.5,-19.5 756.5,-19.5"/>
<text text-anchor="middle" x="798" y="-26.5" font-family="Helvetica,sans-Serif" font-size="10.00">write_lcd_mem</text>
</a>
</g>
<!-- Node6&#45;&gt;Node7 -->
<g id="edge12" class="edge"><title>Node6&#45;&gt;Node7</title>
<path fill="none" stroke="midnightblue" d="M720.004,-42.2994C728.28,-40.8698 737.352,-39.3029 746.273,-37.762"/>
<polygon fill="midnightblue" stroke="midnightblue" points="746.972,-41.1931 756.231,-36.042 745.781,-34.2952 746.972,-41.1931"/>
</g>
<!-- Node10 -->
<g id="node19" class="node"><title>Node10</title>
<a xlink:href="../../d2/dc0/otp_8c.xhtml#af846b96677ffbe8eda903d0d3dfd7298" target="_top" xlink:title="hmac_sha1">
<polygon fill="white" stroke="black" points="540.5,-152.5 540.5,-171.5 607.5,-171.5 607.5,-152.5 540.5,-152.5"/>
<text text-anchor="middle" x="574" y="-159.5" font-family="Helvetica,sans-Serif" font-size="10.00">hmac_sha1</text>
</a>
</g>
<!-- Node9&#45;&gt;Node10 -->
<g id="edge18" class="edge"><title>Node9&#45;&gt;Node10</title>
<path fill="none" stroke="midnightblue" d="M491.045,-162C503.452,-162 517.464,-162 530.347,-162"/>
<polygon fill="midnightblue" stroke="midnightblue" points="530.385,-165.5 540.385,-162 530.385,-158.5 530.385,-165.5"/>
</g>
<!-- Node11 -->
<g id="node21" class="node"><title>Node11</title>
<a xlink:href="../../d2/dc0/otp_8c.xhtml#a09a9a455e41c4bc317d0740ae493f851" target="_top" xlink:title="sha1">
<polygon fill="white" stroke="black" points="667,-152.5 667,-171.5 705,-171.5 705,-152.5 667,-152.5"/>
<text text-anchor="middle" x="686" y="-159.5" font-family="Helvetica,sans-Serif" font-size="10.00">sha1</text>
</a>
</g>
<!-- Node10&#45;&gt;Node11 -->
<g id="edge20" class="edge"><title>Node10&#45;&gt;Node11</title>
<path fill="none" stroke="midnightblue" d="M607.706,-162C623.3,-162 641.772,-162 656.747,-162"/>
<polygon fill="midnightblue" stroke="midnightblue" points="656.943,-165.5 666.943,-162 656.943,-158.5 656.943,-165.5"/>
</g>
<!-- Node12 -->
<g id="node23" class="node"><title>Node12</title>
<a xlink:href="../../d2/dc0/otp_8c.xhtml#a2e57aed16fec1a4c71d7a7e449aaff60" target="_top" xlink:title="sha1_transform">
<polygon fill="white" stroke="black" points="756,-152.5 756,-171.5 840,-171.5 840,-152.5 756,-152.5"/>
<text text-anchor="middle" x="798" y="-159.5" font-family="Helvetica,sans-Serif" font-size="10.00">sha1_transform</text>
</a>
</g>
<!-- Node11&#45;&gt;Node12 -->
<g id="edge22" class="edge"><title>Node11&#45;&gt;Node12</title>
<path fill="none" stroke="midnightblue" d="M705.164,-162C716.369,-162 731.35,-162 745.956,-162"/>
<polygon fill="midnightblue" stroke="midnightblue" points="745.957,-165.5 755.957,-162 745.957,-158.5 745.957,-165.5"/>
</g>
<!-- Node13&#45;&gt;Node5 -->
<g id="edge28" class="edge"><title>Node13&#45;&gt;Node5</title>
<path fill="none" stroke="midnightblue" d="M191.851,-95.589C212.68,-100.866 238.623,-107.438 260.309,-112.932"/>
<polygon fill="midnightblue" stroke="midnightblue" points="259.702,-116.388 270.255,-115.451 261.421,-109.603 259.702,-116.388"/>
</g>
<!-- Node14 -->
<g id="node27" class="node"><title>Node14</title>
<a xlink:href="../../d2/df2/openchronos_8c.xhtml#a60705ce0564ce52c1977a32cee3215c2" target="_top" xlink:title="Unregisters a node from the message bus.">
<polygon fill="white" stroke="black" points="234.5,-76.5 234.5,-95.5 375.5,-95.5 375.5,-76.5 234.5,-76.5"/>
<text text-anchor="middle" x="305" y="-83.5" font-family="Helvetica,sans-Serif" font-size="10.00">sys_messagebus_unregister</text>
</a>
</g>
<!-- Node13&#45;&gt;Node14 -->
<g id="edge26" class="edge"><title>Node13&#45;&gt;Node14</title>
<path fill="none" stroke="midnightblue" d="M196.183,-86C204.993,-86 214.557,-86 224.227,-86"/>
<polygon fill="midnightblue" stroke="midnightblue" points="224.315,-89.5001 234.315,-86 224.315,-82.5001 224.315,-89.5001"/>
</g>
<!-- Node15 -->
<g id="node30" class="node"><title>Node15</title>
<a xlink:href="../../db/d85/display_8c.xhtml#aa150336a018e90f37fd0285047b541f6" target="_top" xlink:title="Clears the screen.">
<polygon fill="white" stroke="black" points="268,-38.5 268,-57.5 342,-57.5 342,-38.5 268,-38.5"/>
<text text-anchor="middle" x="305" y="-45.5" font-family="Helvetica,sans-Serif" font-size="10.00">display_clear</text>
</a>
</g>
<!-- Node13&#45;&gt;Node15 -->
<g id="edge30" class="edge"><title>Node13&#45;&gt;Node15</title>
<path fill="none" stroke="midnightblue" d="M191.851,-76.411C212.006,-71.3052 236.949,-64.9863 258.19,-59.6052"/>
<polygon fill="midnightblue" stroke="midnightblue" points="259.136,-62.9763 267.97,-57.1276 257.417,-56.1906 259.136,-62.9763"/>
</g>
<!-- Node16 -->
<g id="node32" class="node"><title>Node16</title>
<a xlink:href="../../db/d85/display_8c.xhtml#a6f2d5cdda31a73b43a569cb3d1a64165" target="_top" xlink:title="Displays several consecutive characters.">
<polygon fill="white" stroke="black" points="415.5,-38.5 415.5,-57.5 492.5,-57.5 492.5,-38.5 415.5,-38.5"/>
<text text-anchor="middle" x="454" y="-45.5" font-family="Helvetica,sans-Serif" font-size="10.00">display_chars</text>
</a>
</g>
<!-- Node15&#45;&gt;Node16 -->
<g id="edge32" class="edge"><title>Node15&#45;&gt;Node16</title>
<path fill="none" stroke="midnightblue" d="M342.337,-48C361.32,-48 384.792,-48 405.227,-48"/>
<polygon fill="midnightblue" stroke="midnightblue" points="405.289,-51.5001 415.289,-48 405.288,-44.5001 405.289,-51.5001"/>
</g>
<!-- Node18 -->
<g id="node37" class="node"><title>Node18</title>
<a xlink:href="../../db/d85/display_8c.xhtml#af604e78dcc4e0f1a204b2180c5e54957" target="_top" xlink:title="Displays a symbol.">
<polygon fill="white" stroke="black" points="532,-0.5 532,-19.5 616,-19.5 616,-0.5 532,-0.5"/>
<text text-anchor="middle" x="574" y="-7.5" font-family="Helvetica,sans-Serif" font-size="10.00">display_symbol</text>
</a>
</g>
<!-- Node15&#45;&gt;Node18 -->
<g id="edge38" class="edge"><title>Node15&#45;&gt;Node18</title>
<path fill="none" stroke="midnightblue" d="M342.216,-40.9542C362.656,-37.1169 388.698,-32.4601 412,-29 448.518,-23.5773 489.883,-18.7233 521.54,-15.279"/>
<polygon fill="midnightblue" stroke="midnightblue" points="522.314,-18.7159 531.882,-14.1662 521.565,-11.7561 522.314,-18.7159"/>
</g>
<!-- Node17 -->
<g id="node34" class="node"><title>Node17</title>
<a xlink:href="../../db/d85/display_8c.xhtml#a3ae30196af91197037d50cb49de1d109" target="_top" xlink:title="Displays a single character.">
<polygon fill="white" stroke="black" points="538.5,-38.5 538.5,-57.5 609.5,-57.5 609.5,-38.5 538.5,-38.5"/>
<text text-anchor="middle" x="574" y="-45.5" font-family="Helvetica,sans-Serif" font-size="10.00">display_char</text>
</a>
</g>
<!-- Node16&#45;&gt;Node17 -->
<g id="edge34" class="edge"><title>Node16&#45;&gt;Node17</title>
<path fill="none" stroke="midnightblue" d="M492.66,-48C504.033,-48 516.628,-48 528.407,-48"/>
<polygon fill="midnightblue" stroke="midnightblue" points="528.497,-51.5001 538.496,-48 528.496,-44.5001 528.497,-51.5001"/>
</g>
<!-- Node17&#45;&gt;Node6 -->
<g id="edge36" class="edge"><title>Node17&#45;&gt;Node6</title>
<path fill="none" stroke="midnightblue" d="M609.503,-48C619.721,-48 631.04,-48 641.738,-48"/>
<polygon fill="midnightblue" stroke="midnightblue" points="641.748,-51.5001 651.748,-48 641.748,-44.5001 641.748,-51.5001"/>
</g>
<!-- Node18&#45;&gt;Node7 -->
<g id="edge40" class="edge"><title>Node18&#45;&gt;Node7</title>
<path fill="none" stroke="midnightblue" d="M616.236,-13.5292C652.955,-16.6718 706.802,-21.2804 746.174,-24.65"/>
<polygon fill="midnightblue" stroke="midnightblue" points="746.097,-28.1562 756.359,-25.5218 746.694,-21.1817 746.097,-28.1562"/>
</g>
</g>
</svg>
