<?xml version="1.0" encoding="UTF-8" standalone="no"?>
<!DOCTYPE svg PUBLIC "-//W3C//DTD SVG 1.1//EN"
 "http://www.w3.org/Graphics/SVG/1.1/DTD/svg11.dtd">
<!-- Generated by graphviz version 2.28.0 (20121221.0049)
 -->
<!-- Title: init_application Pages: 1 -->
<svg width="596pt" height="598pt"
 viewBox="0.00 0.00 596.00 598.00" xmlns="http://www.w3.org/2000/svg" xmlns:xlink="http://www.w3.org/1999/xlink">
<g id="graph1" class="graph" transform="scale(1 1) rotate(0) translate(4 594)">
<title>init_application</title>
<polygon fill="white" stroke="white" points="-4,5 -4,-594 593,-594 593,5 -4,5"/>
<!-- Node1 -->
<g id="node1" class="node"><title>Node1</title>
<polygon fill="#bfbfbf" stroke="black" points="0.5,-266.5 0.5,-285.5 81.5,-285.5 81.5,-266.5 0.5,-266.5"/>
<text text-anchor="middle" x="41" y="-273.5" font-family="Helvetica,sans-Serif" font-size="10.00">init_application</text>
</g>
<!-- Node2 -->
<g id="node3" class="node"><title>Node2</title>
<a xlink:href="../../d7/ddc/pmm_8c.xhtml#a25b43049d6d27cc647667ba87a4c584f" target="_top" xlink:title="Set the VCore to a new level.">
<polygon fill="white" stroke="black" points="134.5,-532.5 134.5,-551.5 193.5,-551.5 193.5,-532.5 134.5,-532.5"/>
<text text-anchor="middle" x="164" y="-539.5" font-family="Helvetica,sans-Serif" font-size="10.00">SetVCore</text>
</a>
</g>
<!-- Node1&#45;&gt;Node2 -->
<g id="edge2" class="edge"><title>Node1&#45;&gt;Node2</title>
<path fill="none" stroke="midnightblue" d="M42.1916,-285.915C43.4187,-322.343 52.4193,-450.436 118,-523 120.218,-525.454 122.804,-527.601 125.595,-529.478"/>
<polygon fill="midnightblue" stroke="midnightblue" points="123.971,-532.579 134.42,-534.334 127.346,-526.446 123.971,-532.579"/>
</g>
<!-- Node5 -->
<g id="node9" class="node"><title>Node5</title>
<a xlink:href="../../d4/d9d/rtca_8c.xhtml#a07d907c6412341bb72934f6eb735a6c0" target="_top" xlink:title="rtca_init">
<polygon fill="white" stroke="black" points="138.5,-494.5 138.5,-513.5 189.5,-513.5 189.5,-494.5 138.5,-494.5"/>
<text text-anchor="middle" x="164" y="-501.5" font-family="Helvetica,sans-Serif" font-size="10.00">rtca_init</text>
</a>
</g>
<!-- Node1&#45;&gt;Node5 -->
<g id="edge8" class="edge"><title>Node1&#45;&gt;Node5</title>
<path fill="none" stroke="midnightblue" d="M42.8231,-285.736C46.076,-318.312 60.8111,-424.833 118,-485 121.175,-488.34 125.03,-491.119 129.133,-493.423"/>
<polygon fill="midnightblue" stroke="midnightblue" points="127.804,-496.666 138.344,-497.745 130.778,-490.329 127.804,-496.666"/>
</g>
<!-- Node7 -->
<g id="node13" class="node"><title>Node7</title>
<a xlink:href="../../dd/d16/radio_8c.xhtml#af181029cf06b94f0f4ceaafec1c3f209" target="_top" xlink:title="radio_reset">
<polygon fill="white" stroke="black" points="131.5,-418.5 131.5,-437.5 196.5,-437.5 196.5,-418.5 131.5,-418.5"/>
<text text-anchor="middle" x="164" y="-425.5" font-family="Helvetica,sans-Serif" font-size="10.00">radio_reset</text>
</a>
</g>
<!-- Node1&#45;&gt;Node7 -->
<g id="edge12" class="edge"><title>Node1&#45;&gt;Node7</title>
<path fill="none" stroke="midnightblue" d="M45.1095,-285.777C53.2509,-309.919 77.4132,-373 118,-409 119.701,-410.509 121.539,-411.91 123.468,-413.21"/>
<polygon fill="midnightblue" stroke="midnightblue" points="121.93,-416.362 132.35,-418.275 125.397,-410.281 121.93,-416.362"/>
</g>
<!-- Node11 -->
<g id="node21" class="node"><title>Node11</title>
<a xlink:href="../../dd/d16/radio_8c.xhtml#a3b62a2ba4f2a38a10ab1f523980b6e40" target="_top" xlink:title="radio_powerdown">
<polygon fill="white" stroke="black" points="118,-456.5 118,-475.5 210,-475.5 210,-456.5 118,-456.5"/>
<text text-anchor="middle" x="164" y="-463.5" font-family="Helvetica,sans-Serif" font-size="10.00">radio_powerdown</text>
</a>
</g>
<!-- Node1&#45;&gt;Node11 -->
<g id="edge20" class="edge"><title>Node1&#45;&gt;Node11</title>
<path fill="none" stroke="midnightblue" d="M43.6844,-285.543C49.1711,-313.953 69.0774,-398.984 118,-447 119.453,-448.426 121.028,-449.751 122.691,-450.982"/>
<polygon fill="midnightblue" stroke="midnightblue" points="121.206,-454.175 131.568,-456.384 124.845,-448.196 121.206,-454.175"/>
</g>
<!-- Node12 -->
<g id="node24" class="node"><title>Node12</title>
<a xlink:href="../../d9/d8e/vti__as_8h.xhtml#a4164ccb278788e063b953efc19e6c296" target="_top" xlink:title="as_init">
<polygon fill="white" stroke="black" points="141.5,-380.5 141.5,-399.5 186.5,-399.5 186.5,-380.5 141.5,-380.5"/>
<text text-anchor="middle" x="164" y="-387.5" font-family="Helvetica,sans-Serif" font-size="10.00">as_init</text>
</a>
</g>
<!-- Node1&#45;&gt;Node12 -->
<g id="edge24" class="edge"><title>Node1&#45;&gt;Node12</title>
<path fill="none" stroke="midnightblue" d="M47.4645,-285.667C58.5279,-304.467 85.3252,-346.274 118,-371 122.203,-374.181 127.018,-376.937 131.9,-379.287"/>
<polygon fill="midnightblue" stroke="midnightblue" points="130.659,-382.564 141.227,-383.312 133.432,-376.136 130.659,-382.564"/>
</g>
<!-- Node13 -->
<g id="node26" class="node"><title>Node13</title>
<a xlink:href="../../d9/dc8/vti__as_8c.xhtml#a0e2d0e77c4d1ea89567e5c87e0ad84c8" target="_top" xlink:title="as_disconnect">
<polygon fill="white" stroke="black" points="124,-342.5 124,-361.5 204,-361.5 204,-342.5 124,-342.5"/>
<text text-anchor="middle" x="164" y="-349.5" font-family="Helvetica,sans-Serif" font-size="10.00">as_disconnect</text>
</a>
</g>
<!-- Node1&#45;&gt;Node13 -->
<g id="edge26" class="edge"><title>Node1&#45;&gt;Node13</title>
<path fill="none" stroke="midnightblue" d="M53.2332,-285.819C67.5506,-297.995 93.4029,-318.867 118,-333 121.203,-334.84 124.619,-336.605 128.083,-338.265"/>
<polygon fill="midnightblue" stroke="midnightblue" points="126.695,-341.479 137.25,-342.401 129.574,-335.098 126.695,-341.479"/>
</g>
<!-- Node14 -->
<g id="node28" class="node"><title>Node14</title>
<a xlink:href="../../db/d85/display_8c.xhtml#a6842775ba83d166f02b8fef8bb63b1e6" target="_top" xlink:title="Initializes the display.">
<polygon fill="white" stroke="black" points="140.5,-304.5 140.5,-323.5 187.5,-323.5 187.5,-304.5 140.5,-304.5"/>
<text text-anchor="middle" x="164" y="-311.5" font-family="Helvetica,sans-Serif" font-size="10.00">lcd_init</text>
</a>
</g>
<!-- Node1&#45;&gt;Node14 -->
<g id="edge28" class="edge"><title>Node1&#45;&gt;Node14</title>
<path fill="none" stroke="midnightblue" d="M72.5334,-285.589C90.3729,-291.191 112.863,-298.254 130.956,-303.937"/>
<polygon fill="midnightblue" stroke="midnightblue" points="129.909,-307.276 140.498,-306.933 132.006,-300.598 129.909,-307.276"/>
</g>
<!-- Node15 -->
<g id="node30" class="node"><title>Node15</title>
<a xlink:href="../../d0/d6e/ports_8c.xhtml#afe0b498404852847e48c5539c4d651e8" target="_top" xlink:title="init_buttons">
<polygon fill="white" stroke="black" points="130.5,-266.5 130.5,-285.5 197.5,-285.5 197.5,-266.5 130.5,-266.5"/>
<text text-anchor="middle" x="164" y="-273.5" font-family="Helvetica,sans-Serif" font-size="10.00">init_buttons</text>
</a>
</g>
<!-- Node1&#45;&gt;Node15 -->
<g id="edge30" class="edge"><title>Node1&#45;&gt;Node15</title>
<path fill="none" stroke="midnightblue" d="M81.6199,-276C93.8969,-276 107.481,-276 119.978,-276"/>
<polygon fill="midnightblue" stroke="midnightblue" points="120.166,-279.5 130.166,-276 120.166,-272.5 120.166,-279.5"/>
</g>
<!-- Node16 -->
<g id="node32" class="node"><title>Node16</title>
<a xlink:href="../../df/d41/timer_8c.xhtml#a99ccbea44caa7d91c17782c602f956ef" target="_top" xlink:title="Initializes the timer.">
<polygon fill="white" stroke="black" points="133,-228.5 133,-247.5 195,-247.5 195,-228.5 133,-228.5"/>
<text text-anchor="middle" x="164" y="-235.5" font-family="Helvetica,sans-Serif" font-size="10.00">timer0_init</text>
</a>
</g>
<!-- Node1&#45;&gt;Node16 -->
<g id="edge32" class="edge"><title>Node1&#45;&gt;Node16</title>
<path fill="none" stroke="midnightblue" d="M72.5334,-266.411C87.8394,-261.604 106.569,-255.722 123.007,-250.56"/>
<polygon fill="midnightblue" stroke="midnightblue" points="124.404,-253.79 132.896,-247.454 122.306,-247.111 124.404,-253.79"/>
</g>
<!-- Node17 -->
<g id="node34" class="node"><title>Node17</title>
<a xlink:href="../../d3/d4c/buzzer_8c.xhtml#a0cead532fdd0c0de5fa1c1de0f6556bd" target="_top" xlink:title="Initialize buzzer subsystem.">
<polygon fill="white" stroke="black" points="132,-190.5 132,-209.5 196,-209.5 196,-190.5 132,-190.5"/>
<text text-anchor="middle" x="164" y="-197.5" font-family="Helvetica,sans-Serif" font-size="10.00">buzzer_init</text>
</a>
</g>
<!-- Node1&#45;&gt;Node17 -->
<g id="edge34" class="edge"><title>Node1&#45;&gt;Node17</title>
<path fill="none" stroke="midnightblue" d="M53.2332,-266.181C67.5506,-254.005 93.4029,-233.133 118,-219 121.203,-217.16 124.619,-215.395 128.083,-213.735"/>
<polygon fill="midnightblue" stroke="midnightblue" points="129.574,-216.902 137.25,-209.599 126.695,-210.521 129.574,-216.902"/>
</g>
<!-- Node21 -->
<g id="node42" class="node"><title>Node21</title>
<a xlink:href="../../d8/d28/vti__ps_8c.xhtml#a27033e0380e7cf7cfb37df8bf6d16ff1" target="_top" xlink:title="ps_init">
<polygon fill="white" stroke="black" points="141.5,-114.5 141.5,-133.5 186.5,-133.5 186.5,-114.5 141.5,-114.5"/>
<text text-anchor="middle" x="164" y="-121.5" font-family="Helvetica,sans-Serif" font-size="10.00">ps_init</text>
</a>
</g>
<!-- Node1&#45;&gt;Node21 -->
<g id="edge42" class="edge"><title>Node1&#45;&gt;Node21</title>
<path fill="none" stroke="midnightblue" d="M45.1095,-266.223C53.2509,-242.081 77.4132,-179 118,-143 122.021,-139.434 126.808,-136.469 131.737,-134.026"/>
<polygon fill="midnightblue" stroke="midnightblue" points="133.417,-137.114 141.224,-129.951 130.655,-130.682 133.417,-137.114"/>
</g>
<!-- Node28 -->
<g id="node61" class="node"><title>Node28</title>
<a xlink:href="../../de/dd8/drivers_2battery_8c.xhtml#a4040594754914d4c0fbd49cfc851484b" target="_top" xlink:title="Init the battery measurement.">
<polygon fill="white" stroke="black" points="131.5,-76.5 131.5,-95.5 196.5,-95.5 196.5,-76.5 131.5,-76.5"/>
<text text-anchor="middle" x="164" y="-83.5" font-family="Helvetica,sans-Serif" font-size="10.00">battery_init</text>
</a>
</g>
<!-- Node1&#45;&gt;Node28 -->
<g id="edge66" class="edge"><title>Node1&#45;&gt;Node28</title>
<path fill="none" stroke="midnightblue" d="M43.6844,-266.457C49.1711,-238.047 69.0774,-153.016 118,-105 119.453,-103.574 121.028,-102.249 122.691,-101.018"/>
<polygon fill="midnightblue" stroke="midnightblue" points="124.845,-103.804 131.568,-95.6159 121.206,-97.8247 124.845,-103.804"/>
</g>
<!-- Node29 -->
<g id="node63" class="node"><title>Node29</title>
<a xlink:href="../../d8/dd8/drivers_2temperature_8c.xhtml#a7da890f6748bbeb05511fd20100cb6ef" target="_top" xlink:title="temperature_init">
<polygon fill="white" stroke="black" points="121,-152.5 121,-171.5 207,-171.5 207,-152.5 121,-152.5"/>
<text text-anchor="middle" x="164" y="-159.5" font-family="Helvetica,sans-Serif" font-size="10.00">temperature_init</text>
</a>
</g>
<!-- Node1&#45;&gt;Node29 -->
<g id="edge68" class="edge"><title>Node1&#45;&gt;Node29</title>
<path fill="none" stroke="midnightblue" d="M47.4645,-266.333C58.5279,-247.533 85.3252,-205.726 118,-181 120.282,-179.273 122.745,-177.671 125.301,-176.191"/>
<polygon fill="midnightblue" stroke="midnightblue" points="126.914,-179.297 134.222,-171.627 123.726,-173.066 126.914,-179.297"/>
</g>
<!-- Node31 -->
<g id="node68" class="node"><title>Node31</title>
<a xlink:href="../../dd/d56/infomem_8h.xhtml#a2435efc5f177570c5fb17f46ebcba19a" target="_top" xlink:title="infomem_ready">
<polygon fill="white" stroke="black" points="122.5,-38.5 122.5,-57.5 205.5,-57.5 205.5,-38.5 122.5,-38.5"/>
<text text-anchor="middle" x="164" y="-45.5" font-family="Helvetica,sans-Serif" font-size="10.00">infomem_ready</text>
</a>
</g>
<!-- Node1&#45;&gt;Node31 -->
<g id="edge74" class="edge"><title>Node1&#45;&gt;Node31</title>
<path fill="none" stroke="midnightblue" d="M42.8231,-266.264C46.076,-233.688 60.8111,-127.167 118,-67 119.358,-65.5709 120.841,-64.2447 122.415,-63.0144"/>
<polygon fill="midnightblue" stroke="midnightblue" points="124.32,-65.9503 130.881,-57.6308 120.564,-60.0434 124.32,-65.9503"/>
</g>
<!-- Node32 -->
<g id="node70" class="node"><title>Node32</title>
<a xlink:href="../../dd/d56/infomem_8h.xhtml#aeccfbbd0a5448533a66806093bc60a73" target="_top" xlink:title="infomem_init">
<polygon fill="white" stroke="black" points="128,-0.5 128,-19.5 200,-19.5 200,-0.5 128,-0.5"/>
<text text-anchor="middle" x="164" y="-7.5" font-family="Helvetica,sans-Serif" font-size="10.00">infomem_init</text>
</a>
</g>
<!-- Node1&#45;&gt;Node32 -->
<g id="edge76" class="edge"><title>Node1&#45;&gt;Node32</title>
<path fill="none" stroke="midnightblue" d="M42.1916,-266.085C43.4187,-229.657 52.4193,-101.564 118,-29 119.173,-27.7024 120.449,-26.4905 121.803,-25.359"/>
<polygon fill="midnightblue" stroke="midnightblue" points="123.88,-28.1809 130.257,-19.7197 119.995,-22.3578 123.88,-28.1809"/>
</g>
<!-- Node3 -->
<g id="node5" class="node"><title>Node3</title>
<a xlink:href="../../d7/ddc/pmm_8c.xhtml#a6f01d523327c4eec214ae3470c215c3d" target="_top" xlink:title="Set the VCore to a new higher level.">
<polygon fill="white" stroke="black" points="273,-532.5 273,-551.5 345,-551.5 345,-532.5 273,-532.5"/>
<text text-anchor="middle" x="309" y="-539.5" font-family="Helvetica,sans-Serif" font-size="10.00">SetVCoreUp</text>
</a>
</g>
<!-- Node2&#45;&gt;Node3 -->
<g id="edge4" class="edge"><title>Node2&#45;&gt;Node3</title>
<path fill="none" stroke="midnightblue" d="M193.594,-542C213.385,-542 240.135,-542 262.793,-542"/>
<polygon fill="midnightblue" stroke="midnightblue" points="262.875,-545.5 272.875,-542 262.875,-538.5 262.875,-545.5"/>
</g>
<!-- Node4 -->
<g id="node7" class="node"><title>Node4</title>
<a xlink:href="../../d7/ddc/pmm_8c.xhtml#a292f9802ca1c82b679f7528de2ee55b8" target="_top" xlink:title="Set the VCore to a new Lower level.">
<polygon fill="white" stroke="black" points="266.5,-570.5 266.5,-589.5 351.5,-589.5 351.5,-570.5 266.5,-570.5"/>
<text text-anchor="middle" x="309" y="-577.5" font-family="Helvetica,sans-Serif" font-size="10.00">SetVCoreDown</text>
</a>
</g>
<!-- Node2&#45;&gt;Node4 -->
<g id="edge6" class="edge"><title>Node2&#45;&gt;Node4</title>
<path fill="none" stroke="midnightblue" d="M193.594,-549.599C213.261,-554.825 239.801,-561.877 262.367,-567.874"/>
<polygon fill="midnightblue" stroke="midnightblue" points="261.525,-571.271 272.089,-570.457 263.323,-564.506 261.525,-571.271"/>
</g>
<!-- Node6 -->
<g id="node11" class="node"><title>Node6</title>
<a xlink:href="../../d4/d53/rtc__dst_8h.xhtml#a01c4fb4d7797847aa4c70b3f47c725b0" target="_top" xlink:title="rtc_dst_init">
<polygon fill="white" stroke="black" points="276.5,-494.5 276.5,-513.5 341.5,-513.5 341.5,-494.5 276.5,-494.5"/>
<text text-anchor="middle" x="309" y="-501.5" font-family="Helvetica,sans-Serif" font-size="10.00">rtc_dst_init</text>
</a>
</g>
<!-- Node5&#45;&gt;Node6 -->
<g id="edge10" class="edge"><title>Node5&#45;&gt;Node6</title>
<path fill="none" stroke="midnightblue" d="M189.583,-504C210.614,-504 241.343,-504 266.227,-504"/>
<polygon fill="midnightblue" stroke="midnightblue" points="266.489,-507.5 276.489,-504 266.489,-500.5 266.489,-507.5"/>
</g>
<!-- Node8 -->
<g id="node15" class="node"><title>Node8</title>
<a xlink:href="../../d6/dc2/rf1a_8c.xhtml#a945d18674a1ebb9b90e50dd79c1b616d" target="_top" xlink:title="Strobe">
<polygon fill="white" stroke="black" points="286.5,-437.5 286.5,-456.5 331.5,-456.5 331.5,-437.5 286.5,-437.5"/>
<text text-anchor="middle" x="309" y="-444.5" font-family="Helvetica,sans-Serif" font-size="10.00">Strobe</text>
</a>
</g>
<!-- Node7&#45;&gt;Node8 -->
<g id="edge14" class="edge"><title>Node7&#45;&gt;Node8</title>
<path fill="none" stroke="midnightblue" d="M196.736,-432.217C220.283,-435.345 252.267,-439.595 275.9,-442.735"/>
<polygon fill="midnightblue" stroke="midnightblue" points="275.737,-446.244 286.111,-444.092 276.659,-439.305 275.737,-446.244"/>
</g>
<!-- Node9 -->
<g id="node17" class="node"><title>Node9</title>
<a xlink:href="../../d6/dc2/rf1a_8c.xhtml#a2054867692e5cbdbb05e4e259f9f6638" target="_top" xlink:title="ReadSingleReg">
<polygon fill="white" stroke="black" points="408.5,-418.5 408.5,-437.5 493.5,-437.5 493.5,-418.5 408.5,-418.5"/>
<text text-anchor="middle" x="451" y="-425.5" font-family="Helvetica,sans-Serif" font-size="10.00">ReadSingleReg</text>
</a>
</g>
<!-- Node8&#45;&gt;Node9 -->
<g id="edge16" class="edge"><title>Node8&#45;&gt;Node9</title>
<path fill="none" stroke="midnightblue" d="M331.568,-444.073C349.341,-441.661 375.283,-438.14 398.361,-435.008"/>
<polygon fill="midnightblue" stroke="midnightblue" points="398.943,-438.461 408.382,-433.648 398.002,-431.525 398.943,-438.461"/>
</g>
<!-- Node10 -->
<g id="node19" class="node"><title>Node10</title>
<a xlink:href="../../d6/dc2/rf1a_8c.xhtml#abcff9c644002de49b819433c321f3e82" target="_top" xlink:title="WriteSingleReg">
<polygon fill="white" stroke="black" points="408.5,-456.5 408.5,-475.5 493.5,-475.5 493.5,-456.5 408.5,-456.5"/>
<text text-anchor="middle" x="451" y="-463.5" font-family="Helvetica,sans-Serif" font-size="10.00">WriteSingleReg</text>
</a>
</g>
<!-- Node8&#45;&gt;Node10 -->
<g id="edge18" class="edge"><title>Node8&#45;&gt;Node10</title>
<path fill="none" stroke="midnightblue" d="M331.568,-449.927C349.341,-452.339 375.283,-455.86 398.361,-458.992"/>
<polygon fill="midnightblue" stroke="midnightblue" points="398.002,-462.475 408.382,-460.352 398.943,-455.539 398.002,-462.475"/>
</g>
<!-- Node11&#45;&gt;Node8 -->
<g id="edge22" class="edge"><title>Node11&#45;&gt;Node8</title>
<path fill="none" stroke="midnightblue" d="M210.246,-459.988C231.649,-457.145 256.696,-453.817 276.078,-451.241"/>
<polygon fill="midnightblue" stroke="midnightblue" points="276.752,-454.683 286.204,-449.896 275.83,-447.744 276.752,-454.683"/>
</g>
<!-- Node18 -->
<g id="node36" class="node"><title>Node18</title>
<a xlink:href="../../d3/d4c/buzzer_8c.xhtml#a6ec06c5367637f000e6c5deedc6bab1b" target="_top" xlink:title="Play a sequence of notes using the buzzer.">
<polygon fill="white" stroke="black" points="274.5,-190.5 274.5,-209.5 343.5,-209.5 343.5,-190.5 274.5,-190.5"/>
<text text-anchor="middle" x="309" y="-197.5" font-family="Helvetica,sans-Serif" font-size="10.00">buzzer_play</text>
</a>
</g>
<!-- Node17&#45;&gt;Node18 -->
<g id="edge36" class="edge"><title>Node17&#45;&gt;Node18</title>
<path fill="none" stroke="midnightblue" d="M196.029,-200C215.955,-200 242.135,-200 264.169,-200"/>
<polygon fill="midnightblue" stroke="midnightblue" points="264.285,-203.5 274.285,-200 264.285,-196.5 264.285,-203.5"/>
</g>
<!-- Node19 -->
<g id="node38" class="node"><title>Node19</title>
<a xlink:href="../../df/d41/timer_8c.xhtml#adc3302861aee9d7f4a1c4c6d25d07343" target="_top" xlink:title="1ms &#45; 1s programmable delay">
<polygon fill="white" stroke="black" points="415,-152.5 415,-171.5 487,-171.5 487,-152.5 415,-152.5"/>
<text text-anchor="middle" x="451" y="-159.5" font-family="Helvetica,sans-Serif" font-size="10.00">timer0_delay</text>
</a>
</g>
<!-- Node18&#45;&gt;Node19 -->
<g id="edge38" class="edge"><title>Node18&#45;&gt;Node19</title>
<path fill="none" stroke="midnightblue" d="M343.533,-190.898C361.941,-185.902 385.017,-179.638 404.975,-174.221"/>
<polygon fill="midnightblue" stroke="midnightblue" points="406.053,-177.555 414.786,-171.558 404.219,-170.8 406.053,-177.555"/>
</g>
<!-- Node20 -->
<g id="node40" class="node"><title>Node20</title>
<a xlink:href="../../d3/d4c/buzzer_8c.xhtml#a0b5e97d5c00be597d96fd80c6cd1ad56" target="_top" xlink:title="buzzer_stop">
<polygon fill="white" stroke="black" points="416,-190.5 416,-209.5 486,-209.5 486,-190.5 416,-190.5"/>
<text text-anchor="middle" x="451" y="-197.5" font-family="Helvetica,sans-Serif" font-size="10.00">buzzer_stop</text>
</a>
</g>
<!-- Node18&#45;&gt;Node20 -->
<g id="edge40" class="edge"><title>Node18&#45;&gt;Node20</title>
<path fill="none" stroke="midnightblue" d="M343.533,-200C362.133,-200 385.498,-200 405.597,-200"/>
<polygon fill="midnightblue" stroke="midnightblue" points="405.768,-203.5 415.768,-200 405.768,-196.5 405.768,-203.5"/>
</g>
<!-- Node21&#45;&gt;Node19 -->
<g id="edge44" class="edge"><title>Node21&#45;&gt;Node19</title>
<path fill="none" stroke="midnightblue" d="M186.59,-124.932C224.384,-126.798 304.9,-131.811 372,-143 383.052,-144.843 394.854,-147.402 405.846,-150.046"/>
<polygon fill="midnightblue" stroke="midnightblue" points="405.12,-153.472 415.668,-152.479 406.803,-146.677 405.12,-153.472"/>
</g>
<!-- Node22 -->
<g id="node45" class="node"><title>Node22</title>
<a xlink:href="../../d8/d28/vti__ps_8c.xhtml#af2ab66da002d7051cd8e27b63bb04d06" target="_top" xlink:title="ps_write_register">
<polygon fill="white" stroke="black" points="263.5,-38.5 263.5,-57.5 354.5,-57.5 354.5,-38.5 263.5,-38.5"/>
<text text-anchor="middle" x="309" y="-45.5" font-family="Helvetica,sans-Serif" font-size="10.00">ps_write_register</text>
</a>
</g>
<!-- Node21&#45;&gt;Node22 -->
<g id="edge46" class="edge"><title>Node21&#45;&gt;Node22</title>
<path fill="none" stroke="midnightblue" d="M186.543,-116.994C194.302,-113.944 202.89,-109.927 210,-105 229.122,-91.7496 226.226,-79.2569 246,-67 249.401,-64.8916 253.054,-63.0024 256.821,-61.3122"/>
<polygon fill="midnightblue" stroke="midnightblue" points="258.358,-64.4672 266.348,-57.509 255.763,-57.9661 258.358,-64.4672"/>
</g>
<!-- Node26 -->
<g id="node54" class="node"><title>Node26</title>
<a xlink:href="../../d8/d28/vti__ps_8c.xhtml#aa8c959c733fb193f7db8c74889fc8f01" target="_top" xlink:title="ps_read_register">
<polygon fill="white" stroke="black" points="264.5,-76.5 264.5,-95.5 353.5,-95.5 353.5,-76.5 264.5,-76.5"/>
<text text-anchor="middle" x="309" y="-83.5" font-family="Helvetica,sans-Serif" font-size="10.00">ps_read_register</text>
</a>
</g>
<!-- Node21&#45;&gt;Node26 -->
<g id="edge56" class="edge"><title>Node21&#45;&gt;Node26</title>
<path fill="none" stroke="midnightblue" d="M186.719,-118.229C206.722,-112.913 237.045,-104.855 262.365,-98.1267"/>
<polygon fill="midnightblue" stroke="midnightblue" points="263.383,-101.478 272.149,-95.5269 261.585,-94.7126 263.383,-101.478"/>
</g>
<!-- Node23 -->
<g id="node47" class="node"><title>Node23</title>
<a xlink:href="../../d8/d28/vti__ps_8c.xhtml#a5a111736e7d7fbbed73c189ed1d45b81" target="_top" xlink:title="ps_twi_sda">
<polygon fill="white" stroke="black" points="418,-76.5 418,-95.5 484,-95.5 484,-76.5 418,-76.5"/>
<text text-anchor="middle" x="451" y="-83.5" font-family="Helvetica,sans-Serif" font-size="10.00">ps_twi_sda</text>
</a>
</g>
<!-- Node22&#45;&gt;Node23 -->
<g id="edge48" class="edge"><title>Node22&#45;&gt;Node23</title>
<path fill="none" stroke="midnightblue" d="M345.328,-57.589C364.315,-62.7427 387.855,-69.1322 407.8,-74.5458"/>
<polygon fill="midnightblue" stroke="midnightblue" points="406.995,-77.9537 417.562,-77.1955 408.828,-71.1981 406.995,-77.9537"/>
</g>
<!-- Node25 -->
<g id="node51" class="node"><title>Node25</title>
<a xlink:href="../../d8/d28/vti__ps_8c.xhtml#a49dfd78503815814186a48488c6a991f" target="_top" xlink:title="ps_twi_write">
<polygon fill="white" stroke="black" points="415.5,-38.5 415.5,-57.5 486.5,-57.5 486.5,-38.5 415.5,-38.5"/>
<text text-anchor="middle" x="451" y="-45.5" font-family="Helvetica,sans-Serif" font-size="10.00">ps_twi_write</text>
</a>
</g>
<!-- Node22&#45;&gt;Node25 -->
<g id="edge52" class="edge"><title>Node22&#45;&gt;Node25</title>
<path fill="none" stroke="midnightblue" d="M354.682,-48C370.83,-48 389.056,-48 405.214,-48"/>
<polygon fill="midnightblue" stroke="midnightblue" points="405.49,-51.5001 415.49,-48 405.49,-44.5001 405.49,-51.5001"/>
</g>
<!-- Node24 -->
<g id="node49" class="node"><title>Node24</title>
<a xlink:href="../../d8/d28/vti__ps_8c.xhtml#aeec2d2e61bf0b7d2e9f09c4b4fac4490" target="_top" xlink:title="twi_delay">
<polygon fill="white" stroke="black" points="530,-76.5 530,-95.5 588,-95.5 588,-76.5 530,-76.5"/>
<text text-anchor="middle" x="559" y="-83.5" font-family="Helvetica,sans-Serif" font-size="10.00">twi_delay</text>
</a>
</g>
<!-- Node23&#45;&gt;Node24 -->
<g id="edge50" class="edge"><title>Node23&#45;&gt;Node24</title>
<path fill="none" stroke="midnightblue" d="M484.091,-86C495.288,-86 507.967,-86 519.623,-86"/>
<polygon fill="midnightblue" stroke="midnightblue" points="519.968,-89.5001 529.968,-86 519.968,-82.5001 519.968,-89.5001"/>
</g>
<!-- Node25&#45;&gt;Node24 -->
<g id="edge54" class="edge"><title>Node25&#45;&gt;Node24</title>
<path fill="none" stroke="midnightblue" d="M478.748,-57.589C491.804,-62.2694 507.703,-67.9692 521.825,-73.0315"/>
<polygon fill="midnightblue" stroke="midnightblue" points="520.666,-76.3341 531.26,-76.4141 523.028,-69.7447 520.666,-76.3341"/>
</g>
<!-- Node26&#45;&gt;Node23 -->
<g id="edge58" class="edge"><title>Node26&#45;&gt;Node23</title>
<path fill="none" stroke="midnightblue" d="M353.529,-86C370.679,-86 390.315,-86 407.376,-86"/>
<polygon fill="midnightblue" stroke="midnightblue" points="407.62,-89.5001 417.62,-86 407.62,-82.5001 407.62,-89.5001"/>
</g>
<!-- Node26&#45;&gt;Node25 -->
<g id="edge60" class="edge"><title>Node26&#45;&gt;Node25</title>
<path fill="none" stroke="midnightblue" d="M345.328,-76.411C363.539,-71.4681 385.938,-65.3884 405.336,-60.1231"/>
<polygon fill="midnightblue" stroke="midnightblue" points="406.434,-63.4517 415.168,-57.4543 404.601,-56.6961 406.434,-63.4517"/>
</g>
<!-- Node27 -->
<g id="node58" class="node"><title>Node27</title>
<a xlink:href="../../d8/d28/vti__ps_8c.xhtml#acbe3495716ae246bf71d2419dfabed72" target="_top" xlink:title="ps_twi_read">
<polygon fill="white" stroke="black" points="416.5,-114.5 416.5,-133.5 485.5,-133.5 485.5,-114.5 416.5,-114.5"/>
<text text-anchor="middle" x="451" y="-121.5" font-family="Helvetica,sans-Serif" font-size="10.00">ps_twi_read</text>
</a>
</g>
<!-- Node26&#45;&gt;Node27 -->
<g id="edge62" class="edge"><title>Node26&#45;&gt;Node27</title>
<path fill="none" stroke="midnightblue" d="M345.328,-95.589C363.814,-100.607 386.617,-106.796 406.216,-112.116"/>
<polygon fill="midnightblue" stroke="midnightblue" points="405.565,-115.566 416.132,-114.807 407.398,-108.81 405.565,-115.566"/>
</g>
<!-- Node27&#45;&gt;Node24 -->
<g id="edge64" class="edge"><title>Node27&#45;&gt;Node24</title>
<path fill="none" stroke="midnightblue" d="M478.748,-114.411C491.804,-109.731 507.703,-104.031 521.825,-98.9685"/>
<polygon fill="midnightblue" stroke="midnightblue" points="523.028,-102.255 531.26,-95.5859 520.666,-95.6659 523.028,-102.255"/>
</g>
<!-- Node30 -->
<g id="node65" class="node"><title>Node30</title>
<a xlink:href="../../dc/ddc/adc12_8c.xhtml#a6202d56d811a4a15e9675420b4b1f8db" target="_top" xlink:title="Init ADC12. Do single conversion. Turn off ADC12.">
<polygon fill="white" stroke="black" points="246,-152.5 246,-171.5 372,-171.5 372,-152.5 246,-152.5"/>
<text text-anchor="middle" x="309" y="-159.5" font-family="Helvetica,sans-Serif" font-size="10.00">adc12_single_conversion</text>
</a>
</g>
<!-- Node29&#45;&gt;Node30 -->
<g id="edge70" class="edge"><title>Node29&#45;&gt;Node30</title>
<path fill="none" stroke="midnightblue" d="M207.131,-162C216.12,-162 225.858,-162 235.617,-162"/>
<polygon fill="midnightblue" stroke="midnightblue" points="235.766,-165.5 245.766,-162 235.766,-158.5 235.766,-165.5"/>
</g>
<!-- Node30&#45;&gt;Node19 -->
<g id="edge72" class="edge"><title>Node30&#45;&gt;Node19</title>
<path fill="none" stroke="midnightblue" d="M372.221,-162C383.176,-162 394.387,-162 404.765,-162"/>
<polygon fill="midnightblue" stroke="midnightblue" points="404.825,-165.5 414.825,-162 404.825,-158.5 404.825,-165.5"/>
</g>
</g>
</svg>
