<?xml version="1.0" encoding="UTF-8" standalone="no"?>
<!DOCTYPE svg PUBLIC "-//W3C//DTD SVG 1.1//EN"
 "http://www.w3.org/Graphics/SVG/1.1/DTD/svg11.dtd">
<!-- Generated by graphviz version 2.28.0 (20121221.0049)
 -->
<!-- Title: check_buttons Pages: 1 -->
<svg width="812pt" height="132pt"
 viewBox="0.00 0.00 812.00 132.00" xmlns="http://www.w3.org/2000/svg" xmlns:xlink="http://www.w3.org/1999/xlink">
<g id="graph1" class="graph" transform="scale(1 1) rotate(0) translate(4 128)">
<title>check_buttons</title>
<polygon fill="white" stroke="white" points="-4,5 -4,-128 809,-128 809,5 -4,5"/>
<!-- Node1 -->
<g id="node1" class="node"><title>Node1</title>
<polygon fill="#bfbfbf" stroke="black" points="0,-66.5 0,-85.5 80,-85.5 80,-66.5 0,-66.5"/>
<text text-anchor="middle" x="40" y="-73.5" font-family="Helvetica,sans-Serif" font-size="10.00">check_buttons</text>
</g>
<!-- Node2 -->
<g id="node3" class="node"><title>Node2</title>
<a xlink:href="../../d2/df2/openchronos_8c.xhtml#a0d53f4046dbc5f7accb6aea8f57c1693" target="_top" xlink:title="Edit mode routine.">
<polygon fill="white" stroke="black" points="120.5,-104.5 120.5,-123.5 213.5,-123.5 213.5,-104.5 120.5,-104.5"/>
<text text-anchor="middle" x="167" y="-111.5" font-family="Helvetica,sans-Serif" font-size="10.00">editmode_handler</text>
</a>
</g>
<!-- Node1&#45;&gt;Node2 -->
<g id="edge2" class="edge"><title>Node1&#45;&gt;Node2</title>
<path fill="none" stroke="midnightblue" d="M72.5428,-85.589C88.383,-90.4044 107.773,-96.2988 124.776,-101.468"/>
<polygon fill="midnightblue" stroke="midnightblue" points="123.882,-104.854 134.467,-104.414 125.918,-98.1567 123.882,-104.854"/>
</g>
<!-- Node3 -->
<g id="node5" class="node"><title>Node3</title>
<a xlink:href="../../d2/df2/openchronos_8c.xhtml#afcc62ec75aca4750a7b512e6012c1759" target="_top" xlink:title="Menu mode routine.">
<polygon fill="white" stroke="black" points="116.5,-66.5 116.5,-85.5 217.5,-85.5 217.5,-66.5 116.5,-66.5"/>
<text text-anchor="middle" x="167" y="-73.5" font-family="Helvetica,sans-Serif" font-size="10.00">menumode_handler</text>
</a>
</g>
<!-- Node1&#45;&gt;Node3 -->
<g id="edge4" class="edge"><title>Node1&#45;&gt;Node3</title>
<path fill="none" stroke="midnightblue" d="M80.2078,-76C88.4416,-76 97.3048,-76 106.099,-76"/>
<polygon fill="midnightblue" stroke="midnightblue" points="106.35,-79.5001 116.35,-76 106.35,-72.5001 106.35,-79.5001"/>
</g>
<!-- Node10 -->
<g id="node22" class="node"><title>Node10</title>
<a xlink:href="../../d2/df2/openchronos_8c.xhtml#a956465889f08332565c9a2e13d7cd36a" target="_top" xlink:title="Menu mode activation.">
<polygon fill="white" stroke="black" points="254,-0.5 254,-19.5 352,-19.5 352,-0.5 254,-0.5"/>
<text text-anchor="middle" x="303" y="-7.5" font-family="Helvetica,sans-Serif" font-size="10.00">menumode_enable</text>
</a>
</g>
<!-- Node1&#45;&gt;Node10 -->
<g id="edge24" class="edge"><title>Node1&#45;&gt;Node10</title>
<path fill="none" stroke="midnightblue" d="M78.7686,-66.4272C90.6803,-63.4094 103.89,-60.064 116,-57 162.928,-45.1268 216.521,-31.5865 254.086,-22.0989"/>
<polygon fill="midnightblue" stroke="midnightblue" points="255.399,-25.3773 264.237,-19.5351 253.685,-18.5904 255.399,-25.3773"/>
</g>
<!-- Node4 -->
<g id="node7" class="node"><title>Node4</title>
<a xlink:href="../../db/d85/display_8c.xhtml#aa150336a018e90f37fd0285047b541f6" target="_top" xlink:title="Clears the screen.">
<polygon fill="white" stroke="black" points="266,-76.5 266,-95.5 340,-95.5 340,-76.5 266,-76.5"/>
<text text-anchor="middle" x="303" y="-83.5" font-family="Helvetica,sans-Serif" font-size="10.00">display_clear</text>
</a>
</g>
<!-- Node3&#45;&gt;Node4 -->
<g id="edge6" class="edge"><title>Node3&#45;&gt;Node4</title>
<path fill="none" stroke="midnightblue" d="M217.516,-79.6952C229.98,-80.6254 243.313,-81.6204 255.618,-82.5386"/>
<polygon fill="midnightblue" stroke="midnightblue" points="255.437,-86.0348 265.67,-83.2888 255.958,-79.0542 255.437,-86.0348"/>
</g>
<!-- Node5 -->
<g id="node9" class="node"><title>Node5</title>
<a xlink:href="../../db/d85/display_8c.xhtml#a6f2d5cdda31a73b43a569cb3d1a64165" target="_top" xlink:title="Displays several consecutive characters.">
<polygon fill="white" stroke="black" points="391.5,-76.5 391.5,-95.5 468.5,-95.5 468.5,-76.5 391.5,-76.5"/>
<text text-anchor="middle" x="430" y="-83.5" font-family="Helvetica,sans-Serif" font-size="10.00">display_chars</text>
</a>
</g>
<!-- Node3&#45;&gt;Node5 -->
<g id="edge22" class="edge"><title>Node3&#45;&gt;Node5</title>
<path fill="none" stroke="midnightblue" d="M193.197,-85.5097C214.08,-93.2011 242.183,-103.061 254,-105 296.981,-112.052 308.763,-110.256 352,-105 363.84,-103.561 376.484,-100.92 388.032,-98.0557"/>
<polygon fill="midnightblue" stroke="midnightblue" points="389.051,-101.407 397.85,-95.5056 387.291,-94.632 389.051,-101.407"/>
</g>
<!-- Node9 -->
<g id="node17" class="node"><title>Node9</title>
<a xlink:href="../../db/d85/display_8c.xhtml#af604e78dcc4e0f1a204b2180c5e54957" target="_top" xlink:title="Displays a symbol.">
<polygon fill="white" stroke="black" points="388,-38.5 388,-57.5 472,-57.5 472,-38.5 388,-38.5"/>
<text text-anchor="middle" x="430" y="-45.5" font-family="Helvetica,sans-Serif" font-size="10.00">display_symbol</text>
</a>
</g>
<!-- Node3&#45;&gt;Node9 -->
<g id="edge20" class="edge"><title>Node3&#45;&gt;Node9</title>
<path fill="none" stroke="midnightblue" d="M217.706,-70.6675C263.495,-65.7553 331.163,-58.496 377.509,-53.5239"/>
<polygon fill="midnightblue" stroke="midnightblue" points="378.071,-56.9838 387.64,-52.437 377.324,-50.0238 378.071,-56.9838"/>
</g>
<!-- Node4&#45;&gt;Node5 -->
<g id="edge8" class="edge"><title>Node4&#45;&gt;Node5</title>
<path fill="none" stroke="midnightblue" d="M340.155,-86C352.911,-86 367.458,-86 381.037,-86"/>
<polygon fill="midnightblue" stroke="midnightblue" points="381.186,-89.5001 391.186,-86 381.186,-82.5001 381.186,-89.5001"/>
</g>
<!-- Node4&#45;&gt;Node9 -->
<g id="edge16" class="edge"><title>Node4&#45;&gt;Node9</title>
<path fill="none" stroke="midnightblue" d="M335.543,-76.411C351.383,-71.5956 370.773,-65.7012 387.776,-60.532"/>
<polygon fill="midnightblue" stroke="midnightblue" points="388.918,-63.8433 397.467,-57.5859 386.882,-57.1459 388.918,-63.8433"/>
</g>
<!-- Node6 -->
<g id="node11" class="node"><title>Node6</title>
<a xlink:href="../../db/d85/display_8c.xhtml#a3ae30196af91197037d50cb49de1d109" target="_top" xlink:title="Displays a single character.">
<polygon fill="white" stroke="black" points="508.5,-76.5 508.5,-95.5 579.5,-95.5 579.5,-76.5 508.5,-76.5"/>
<text text-anchor="middle" x="544" y="-83.5" font-family="Helvetica,sans-Serif" font-size="10.00">display_char</text>
</a>
</g>
<!-- Node5&#45;&gt;Node6 -->
<g id="edge10" class="edge"><title>Node5&#45;&gt;Node6</title>
<path fill="none" stroke="midnightblue" d="M468.606,-86C478.133,-86 488.46,-86 498.301,-86"/>
<polygon fill="midnightblue" stroke="midnightblue" points="498.326,-89.5001 508.326,-86 498.326,-82.5001 498.326,-89.5001"/>
</g>
<!-- Node7 -->
<g id="node13" class="node"><title>Node7</title>
<a xlink:href="../../db/d85/display_8c.xhtml#a9275035317878022cf9eacf6b0a5be72" target="_top" xlink:title="Display a custom collection of segments.">
<polygon fill="white" stroke="black" points="616,-76.5 616,-95.5 684,-95.5 684,-76.5 616,-76.5"/>
<text text-anchor="middle" x="650" y="-83.5" font-family="Helvetica,sans-Serif" font-size="10.00">display_bits</text>
</a>
</g>
<!-- Node6&#45;&gt;Node7 -->
<g id="edge12" class="edge"><title>Node6&#45;&gt;Node7</title>
<path fill="none" stroke="midnightblue" d="M579.63,-86C588.04,-86 597.133,-86 605.882,-86"/>
<polygon fill="midnightblue" stroke="midnightblue" points="605.931,-89.5001 615.931,-86 605.931,-82.5001 605.931,-89.5001"/>
</g>
<!-- Node8 -->
<g id="node15" class="node"><title>Node8</title>
<a xlink:href="../../db/d85/display_8c.xhtml#a710739913e8ea1b71dd433b8311211fd" target="_top" xlink:title="write_lcd_mem">
<polygon fill="white" stroke="black" points="720.5,-57.5 720.5,-76.5 803.5,-76.5 803.5,-57.5 720.5,-57.5"/>
<text text-anchor="middle" x="762" y="-64.5" font-family="Helvetica,sans-Serif" font-size="10.00">write_lcd_mem</text>
</a>
</g>
<!-- Node7&#45;&gt;Node8 -->
<g id="edge14" class="edge"><title>Node7&#45;&gt;Node8</title>
<path fill="none" stroke="midnightblue" d="M684.004,-80.2994C692.28,-78.8698 701.352,-77.3029 710.273,-75.762"/>
<polygon fill="midnightblue" stroke="midnightblue" points="710.972,-79.1931 720.231,-74.042 709.781,-72.2952 710.972,-79.1931"/>
</g>
<!-- Node9&#45;&gt;Node8 -->
<g id="edge18" class="edge"><title>Node9&#45;&gt;Node8</title>
<path fill="none" stroke="midnightblue" d="M472.127,-50.3679C532.481,-53.8428 644.942,-60.3179 710.318,-64.0819"/>
<polygon fill="midnightblue" stroke="midnightblue" points="710.206,-67.5812 720.391,-64.6619 710.609,-60.5928 710.206,-67.5812"/>
</g>
<!-- Node10&#45;&gt;Node5 -->
<g id="edge26" class="edge"><title>Node10&#45;&gt;Node5</title>
<path fill="none" stroke="midnightblue" d="M316.676,-19.5604C332.769,-31.47 361.62,-52.0677 388,-67 391.028,-68.7137 394.236,-70.4038 397.473,-72.027"/>
<polygon fill="midnightblue" stroke="midnightblue" points="396.011,-75.2077 406.54,-76.3888 399.046,-68.8997 396.011,-75.2077"/>
</g>
<!-- Node10&#45;&gt;Node9 -->
<g id="edge28" class="edge"><title>Node10&#45;&gt;Node9</title>
<path fill="none" stroke="midnightblue" d="M335.543,-19.589C351.383,-24.4044 370.773,-30.2988 387.776,-35.468"/>
<polygon fill="midnightblue" stroke="midnightblue" points="386.882,-38.8541 397.467,-38.4141 388.918,-32.1567 386.882,-38.8541"/>
</g>
</g>
</svg>
