<?xml version="1.0" encoding="UTF-8" standalone="no"?>
<!DOCTYPE svg PUBLIC "-//W3C//DTD SVG 1.1//EN"
 "http://www.w3.org/Graphics/SVG/1.1/DTD/svg11.dtd">
<!-- Generated by graphviz version 2.28.0 (20121221.0049)
 -->
<!-- Title: menumode_handler Pages: 1 -->
<svg width="672pt" height="66pt"
 viewBox="0.00 0.00 672.00 66.00" xmlns="http://www.w3.org/2000/svg" xmlns:xlink="http://www.w3.org/1999/xlink">
<g id="graph1" class="graph" transform="scale(1 1) rotate(0) translate(4 62)">
<title>menumode_handler</title>
<polygon fill="white" stroke="white" points="-4,5 -4,-62 669,-62 669,5 -4,5"/>
<!-- Node1 -->
<g id="node1" class="node"><title>Node1</title>
<polygon fill="#bfbfbf" stroke="black" points="0.5,-19.5 0.5,-38.5 101.5,-38.5 101.5,-19.5 0.5,-19.5"/>
<text text-anchor="middle" x="51" y="-26.5" font-family="Helvetica,sans-Serif" font-size="10.00">menumode_handler</text>
</g>
<!-- Node2 -->
<g id="node3" class="node"><title>Node2</title>
<a xlink:href="../../db/d85/display_8c.xhtml#aa150336a018e90f37fd0285047b541f6" target="_top" xlink:title="Clears the screen.">
<polygon fill="white" stroke="black" points="138,-19.5 138,-38.5 212,-38.5 212,-19.5 138,-19.5"/>
<text text-anchor="middle" x="175" y="-26.5" font-family="Helvetica,sans-Serif" font-size="10.00">display_clear</text>
</a>
</g>
<!-- Node1&#45;&gt;Node2 -->
<g id="edge2" class="edge"><title>Node1&#45;&gt;Node2</title>
<path fill="none" stroke="midnightblue" d="M101.622,-29C110.252,-29 119.196,-29 127.732,-29"/>
<polygon fill="midnightblue" stroke="midnightblue" points="127.891,-32.5001 137.891,-29 127.891,-25.5001 127.891,-32.5001"/>
</g>
<!-- Node3 -->
<g id="node5" class="node"><title>Node3</title>
<a xlink:href="../../db/d85/display_8c.xhtml#a6f2d5cdda31a73b43a569cb3d1a64165" target="_top" xlink:title="Displays several consecutive characters.">
<polygon fill="white" stroke="black" points="251.5,-38.5 251.5,-57.5 328.5,-57.5 328.5,-38.5 251.5,-38.5"/>
<text text-anchor="middle" x="290" y="-45.5" font-family="Helvetica,sans-Serif" font-size="10.00">display_chars</text>
</a>
</g>
<!-- Node1&#45;&gt;Node3 -->
<g id="edge18" class="edge"><title>Node1&#45;&gt;Node3</title>
<path fill="none" stroke="midnightblue" d="M86.8607,-38.5081C102.387,-42.2728 120.976,-46.1418 138,-48 172.385,-51.7531 211.438,-51.6375 241.212,-50.6441"/>
<polygon fill="midnightblue" stroke="midnightblue" points="241.474,-54.1368 251.334,-50.261 241.209,-47.1418 241.474,-54.1368"/>
</g>
<!-- Node7 -->
<g id="node13" class="node"><title>Node7</title>
<a xlink:href="../../db/d85/display_8c.xhtml#af604e78dcc4e0f1a204b2180c5e54957" target="_top" xlink:title="Displays a symbol.">
<polygon fill="white" stroke="black" points="248,-0.5 248,-19.5 332,-19.5 332,-0.5 248,-0.5"/>
<text text-anchor="middle" x="290" y="-7.5" font-family="Helvetica,sans-Serif" font-size="10.00">display_symbol</text>
</a>
</g>
<!-- Node1&#45;&gt;Node7 -->
<g id="edge16" class="edge"><title>Node1&#45;&gt;Node7</title>
<path fill="none" stroke="midnightblue" d="M86.8607,-19.4919C102.387,-15.7272 120.976,-11.8582 138,-10 171.103,-6.38684 208.532,-6.35928 237.843,-7.24863"/>
<polygon fill="midnightblue" stroke="midnightblue" points="237.737,-10.7469 247.852,-7.59706 237.98,-3.75117 237.737,-10.7469"/>
</g>
<!-- Node2&#45;&gt;Node3 -->
<g id="edge4" class="edge"><title>Node2&#45;&gt;Node3</title>
<path fill="none" stroke="midnightblue" d="M212.065,-35.064C221.365,-36.6277 231.518,-38.3349 241.31,-39.9813"/>
<polygon fill="midnightblue" stroke="midnightblue" points="240.89,-43.4598 251.332,-41.6665 242.051,-36.5567 240.89,-43.4598"/>
</g>
<!-- Node2&#45;&gt;Node7 -->
<g id="edge12" class="edge"><title>Node2&#45;&gt;Node7</title>
<path fill="none" stroke="midnightblue" d="M212.065,-22.936C220.235,-21.5622 229.065,-20.0776 237.729,-18.6208"/>
<polygon fill="midnightblue" stroke="midnightblue" points="238.494,-22.0415 247.775,-16.9317 237.333,-15.1383 238.494,-22.0415"/>
</g>
<!-- Node4 -->
<g id="node7" class="node"><title>Node4</title>
<a xlink:href="../../db/d85/display_8c.xhtml#a3ae30196af91197037d50cb49de1d109" target="_top" xlink:title="Displays a single character.">
<polygon fill="white" stroke="black" points="368.5,-38.5 368.5,-57.5 439.5,-57.5 439.5,-38.5 368.5,-38.5"/>
<text text-anchor="middle" x="404" y="-45.5" font-family="Helvetica,sans-Serif" font-size="10.00">display_char</text>
</a>
</g>
<!-- Node3&#45;&gt;Node4 -->
<g id="edge6" class="edge"><title>Node3&#45;&gt;Node4</title>
<path fill="none" stroke="midnightblue" d="M328.606,-48C338.133,-48 348.46,-48 358.301,-48"/>
<polygon fill="midnightblue" stroke="midnightblue" points="358.326,-51.5001 368.326,-48 358.326,-44.5001 358.326,-51.5001"/>
</g>
<!-- Node5 -->
<g id="node9" class="node"><title>Node5</title>
<a xlink:href="../../db/d85/display_8c.xhtml#a9275035317878022cf9eacf6b0a5be72" target="_top" xlink:title="Display a custom collection of segments.">
<polygon fill="white" stroke="black" points="476,-38.5 476,-57.5 544,-57.5 544,-38.5 476,-38.5"/>
<text text-anchor="middle" x="510" y="-45.5" font-family="Helvetica,sans-Serif" font-size="10.00">display_bits</text>
</a>
</g>
<!-- Node4&#45;&gt;Node5 -->
<g id="edge8" class="edge"><title>Node4&#45;&gt;Node5</title>
<path fill="none" stroke="midnightblue" d="M439.63,-48C448.04,-48 457.133,-48 465.882,-48"/>
<polygon fill="midnightblue" stroke="midnightblue" points="465.931,-51.5001 475.931,-48 465.931,-44.5001 465.931,-51.5001"/>
</g>
<!-- Node6 -->
<g id="node11" class="node"><title>Node6</title>
<a xlink:href="../../db/d85/display_8c.xhtml#a710739913e8ea1b71dd433b8311211fd" target="_top" xlink:title="write_lcd_mem">
<polygon fill="white" stroke="black" points="580.5,-19.5 580.5,-38.5 663.5,-38.5 663.5,-19.5 580.5,-19.5"/>
<text text-anchor="middle" x="622" y="-26.5" font-family="Helvetica,sans-Serif" font-size="10.00">write_lcd_mem</text>
</a>
</g>
<!-- Node5&#45;&gt;Node6 -->
<g id="edge10" class="edge"><title>Node5&#45;&gt;Node6</title>
<path fill="none" stroke="midnightblue" d="M544.004,-42.2994C552.28,-40.8698 561.352,-39.3029 570.273,-37.762"/>
<polygon fill="midnightblue" stroke="midnightblue" points="570.972,-41.1931 580.231,-36.042 569.781,-34.2952 570.972,-41.1931"/>
</g>
<!-- Node7&#45;&gt;Node6 -->
<g id="edge14" class="edge"><title>Node7&#45;&gt;Node6</title>
<path fill="none" stroke="midnightblue" d="M332.127,-12.3679C392.481,-15.8428 504.942,-22.3179 570.318,-26.0819"/>
<polygon fill="midnightblue" stroke="midnightblue" points="570.206,-29.5812 580.391,-26.6619 570.609,-22.5928 570.206,-29.5812"/>
</g>
</g>
</svg>
