<?xml version="1.0" encoding="UTF-8" standalone="no"?>
<!DOCTYPE svg PUBLIC "-//W3C//DTD SVG 1.1//EN"
 "http://www.w3.org/Graphics/SVG/1.1/DTD/svg11.dtd">
<!-- Generated by graphviz version 2.28.0 (20121221.0049)
 -->
<!-- Title: ps_start Pages: 1 -->
<svg width="390pt" height="85pt"
 viewBox="0.00 0.00 390.00 85.00" xmlns="http://www.w3.org/2000/svg" xmlns:xlink="http://www.w3.org/1999/xlink">
<g id="graph1" class="graph" transform="scale(1 1) rotate(0) translate(4 81)">
<title>ps_start</title>
<polygon fill="white" stroke="white" points="-4,5 -4,-81 387,-81 387,5 -4,5"/>
<!-- Node1 -->
<g id="node1" class="node"><title>Node1</title>
<polygon fill="#bfbfbf" stroke="black" points="0,-19.5 0,-38.5 52,-38.5 52,-19.5 0,-19.5"/>
<text text-anchor="middle" x="26" y="-26.5" font-family="Helvetica,sans-Serif" font-size="10.00">ps_start</text>
</g>
<!-- Node2 -->
<g id="node3" class="node"><title>Node2</title>
<a xlink:href="../../d8/d28/vti__ps_8c.xhtml#af2ab66da002d7051cd8e27b63bb04d06" target="_top" xlink:title="ps_write_register">
<polygon fill="white" stroke="black" points="88.5,-38.5 88.5,-57.5 179.5,-57.5 179.5,-38.5 88.5,-38.5"/>
<text text-anchor="middle" x="134" y="-45.5" font-family="Helvetica,sans-Serif" font-size="10.00">ps_write_register</text>
</a>
</g>
<!-- Node1&#45;&gt;Node2 -->
<g id="edge2" class="edge"><title>Node1&#45;&gt;Node2</title>
<path fill="none" stroke="midnightblue" d="M52.1205,-33.5027C60.0335,-34.9211 69.1055,-36.5472 78.2471,-38.1858"/>
<polygon fill="midnightblue" stroke="midnightblue" points="77.6818,-41.6402 88.1425,-39.9595 78.9169,-34.75 77.6818,-41.6402"/>
</g>
<!-- Node6 -->
<g id="node12" class="node"><title>Node6</title>
<a xlink:href="../../df/d41/timer_8c.xhtml#adc3302861aee9d7f4a1c4c6d25d07343" target="_top" xlink:title="1ms &#45; 1s programmable delay">
<polygon fill="white" stroke="black" points="98,-0.5 98,-19.5 170,-19.5 170,-0.5 98,-0.5"/>
<text text-anchor="middle" x="134" y="-7.5" font-family="Helvetica,sans-Serif" font-size="10.00">timer0_delay</text>
</a>
</g>
<!-- Node1&#45;&gt;Node6 -->
<g id="edge12" class="edge"><title>Node1&#45;&gt;Node6</title>
<path fill="none" stroke="midnightblue" d="M52.1205,-24.4973C62.7387,-22.594 75.4439,-20.3167 87.6039,-18.137"/>
<polygon fill="midnightblue" stroke="midnightblue" points="88.4066,-21.549 97.6322,-16.3395 87.1715,-14.6588 88.4066,-21.549"/>
</g>
<!-- Node3 -->
<g id="node5" class="node"><title>Node3</title>
<a xlink:href="../../d8/d28/vti__ps_8c.xhtml#a5a111736e7d7fbbed73c189ed1d45b81" target="_top" xlink:title="ps_twi_sda">
<polygon fill="white" stroke="black" points="219,-57.5 219,-76.5 285,-76.5 285,-57.5 219,-57.5"/>
<text text-anchor="middle" x="252" y="-64.5" font-family="Helvetica,sans-Serif" font-size="10.00">ps_twi_sda</text>
</a>
</g>
<!-- Node2&#45;&gt;Node3 -->
<g id="edge4" class="edge"><title>Node2&#45;&gt;Node3</title>
<path fill="none" stroke="midnightblue" d="M179.517,-55.2916C189.089,-56.8594 199.179,-58.5121 208.665,-60.0659"/>
<polygon fill="midnightblue" stroke="midnightblue" points="208.234,-63.5418 218.668,-61.7043 209.366,-56.6338 208.234,-63.5418"/>
</g>
<!-- Node5 -->
<g id="node9" class="node"><title>Node5</title>
<a xlink:href="../../d8/d28/vti__ps_8c.xhtml#a49dfd78503815814186a48488c6a991f" target="_top" xlink:title="ps_twi_write">
<polygon fill="white" stroke="black" points="216.5,-19.5 216.5,-38.5 287.5,-38.5 287.5,-19.5 216.5,-19.5"/>
<text text-anchor="middle" x="252" y="-26.5" font-family="Helvetica,sans-Serif" font-size="10.00">ps_twi_write</text>
</a>
</g>
<!-- Node2&#45;&gt;Node5 -->
<g id="edge8" class="edge"><title>Node2&#45;&gt;Node5</title>
<path fill="none" stroke="midnightblue" d="M179.517,-40.7084C188.242,-39.2793 197.398,-37.7796 206.135,-36.3486"/>
<polygon fill="midnightblue" stroke="midnightblue" points="206.844,-39.7791 216.147,-34.7087 205.713,-32.8712 206.844,-39.7791"/>
</g>
<!-- Node4 -->
<g id="node7" class="node"><title>Node4</title>
<a xlink:href="../../d8/d28/vti__ps_8c.xhtml#aeec2d2e61bf0b7d2e9f09c4b4fac4490" target="_top" xlink:title="twi_delay">
<polygon fill="white" stroke="black" points="324,-38.5 324,-57.5 382,-57.5 382,-38.5 324,-38.5"/>
<text text-anchor="middle" x="353" y="-45.5" font-family="Helvetica,sans-Serif" font-size="10.00">twi_delay</text>
</a>
</g>
<!-- Node3&#45;&gt;Node4 -->
<g id="edge6" class="edge"><title>Node3&#45;&gt;Node4</title>
<path fill="none" stroke="midnightblue" d="M285.142,-60.8312C294.264,-59.0806 304.286,-57.1572 313.732,-55.3443"/>
<polygon fill="midnightblue" stroke="midnightblue" points="314.525,-58.7561 323.686,-53.4339 313.206,-51.8815 314.525,-58.7561"/>
</g>
<!-- Node5&#45;&gt;Node4 -->
<g id="edge10" class="edge"><title>Node5&#45;&gt;Node4</title>
<path fill="none" stroke="midnightblue" d="M287.625,-35.6453C296.122,-37.2759 305.263,-39.0302 313.912,-40.6901"/>
<polygon fill="midnightblue" stroke="midnightblue" points="313.291,-44.1348 323.771,-42.5824 314.61,-37.2602 313.291,-44.1348"/>
</g>
</g>
</svg>
