<?xml version="1.0" encoding="UTF-8" standalone="no"?>
<!DOCTYPE svg PUBLIC "-//W3C//DTD SVG 1.1//EN"
 "http://www.w3.org/Graphics/SVG/1.1/DTD/svg11.dtd">
<!-- Generated by graphviz version 2.28.0 (20121221.0049)
 -->
<!-- Title: ps_init Pages: 1 -->
<svg width="384pt" height="142pt"
 viewBox="0.00 0.00 384.00 142.00" xmlns="http://www.w3.org/2000/svg" xmlns:xlink="http://www.w3.org/1999/xlink">
<g id="graph1" class="graph" transform="scale(1 1) rotate(0) translate(4 138)">
<title>ps_init</title>
<polygon fill="white" stroke="white" points="-4,5 -4,-138 381,-138 381,5 -4,5"/>
<!-- Node1 -->
<g id="node1" class="node"><title>Node1</title>
<polygon fill="#bfbfbf" stroke="black" points="0.5,-76.5 0.5,-95.5 45.5,-95.5 45.5,-76.5 0.5,-76.5"/>
<text text-anchor="middle" x="23" y="-83.5" font-family="Helvetica,sans-Serif" font-size="10.00">ps_init</text>
</g>
<!-- Node2 -->
<g id="node3" class="node"><title>Node2</title>
<a xlink:href="../../df/d41/timer_8c.xhtml#adc3302861aee9d7f4a1c4c6d25d07343" target="_top" xlink:title="1ms &#45; 1s programmable delay">
<polygon fill="white" stroke="black" points="92,-114.5 92,-133.5 164,-133.5 164,-114.5 92,-114.5"/>
<text text-anchor="middle" x="128" y="-121.5" font-family="Helvetica,sans-Serif" font-size="10.00">timer0_delay</text>
</a>
</g>
<!-- Node1&#45;&gt;Node2 -->
<g id="edge2" class="edge"><title>Node1&#45;&gt;Node2</title>
<path fill="none" stroke="midnightblue" d="M45.8437,-94.0588C59.1166,-98.9556 76.3762,-105.323 91.5643,-110.927"/>
<polygon fill="midnightblue" stroke="midnightblue" points="90.5899,-114.298 101.183,-114.475 93.0128,-107.73 90.5899,-114.298"/>
</g>
<!-- Node3 -->
<g id="node5" class="node"><title>Node3</title>
<a xlink:href="../../d8/d28/vti__ps_8c.xhtml#af2ab66da002d7051cd8e27b63bb04d06" target="_top" xlink:title="ps_write_register">
<polygon fill="white" stroke="black" points="82.5,-76.5 82.5,-95.5 173.5,-95.5 173.5,-76.5 82.5,-76.5"/>
<text text-anchor="middle" x="128" y="-83.5" font-family="Helvetica,sans-Serif" font-size="10.00">ps_write_register</text>
</a>
</g>
<!-- Node1&#45;&gt;Node3 -->
<g id="edge4" class="edge"><title>Node1&#45;&gt;Node3</title>
<path fill="none" stroke="midnightblue" d="M45.8437,-86C53.6496,-86 62.8345,-86 72.1659,-86"/>
<polygon fill="midnightblue" stroke="midnightblue" points="72.2908,-89.5001 82.2908,-86 72.2907,-82.5001 72.2908,-89.5001"/>
</g>
<!-- Node7 -->
<g id="node14" class="node"><title>Node7</title>
<a xlink:href="../../d8/d28/vti__ps_8c.xhtml#aa8c959c733fb193f7db8c74889fc8f01" target="_top" xlink:title="ps_read_register">
<polygon fill="white" stroke="black" points="83.5,-38.5 83.5,-57.5 172.5,-57.5 172.5,-38.5 83.5,-38.5"/>
<text text-anchor="middle" x="128" y="-45.5" font-family="Helvetica,sans-Serif" font-size="10.00">ps_read_register</text>
</a>
</g>
<!-- Node1&#45;&gt;Node7 -->
<g id="edge14" class="edge"><title>Node1&#45;&gt;Node7</title>
<path fill="none" stroke="midnightblue" d="M45.8437,-77.9412C59.1166,-73.0444 76.3762,-66.6768 91.5643,-61.0734"/>
<polygon fill="midnightblue" stroke="midnightblue" points="93.0128,-64.2696 101.183,-57.5246 90.5899,-57.7023 93.0128,-64.2696"/>
</g>
<!-- Node4 -->
<g id="node7" class="node"><title>Node4</title>
<a xlink:href="../../d8/d28/vti__ps_8c.xhtml#a5a111736e7d7fbbed73c189ed1d45b81" target="_top" xlink:title="ps_twi_sda">
<polygon fill="white" stroke="black" points="213,-38.5 213,-57.5 279,-57.5 279,-38.5 213,-38.5"/>
<text text-anchor="middle" x="246" y="-45.5" font-family="Helvetica,sans-Serif" font-size="10.00">ps_twi_sda</text>
</a>
</g>
<!-- Node3&#45;&gt;Node4 -->
<g id="edge6" class="edge"><title>Node3&#45;&gt;Node4</title>
<path fill="none" stroke="midnightblue" d="M158.272,-76.411C172.697,-71.6856 190.293,-65.9211 205.857,-60.8226"/>
<polygon fill="midnightblue" stroke="midnightblue" points="207.324,-64.0252 215.738,-57.5859 205.145,-57.373 207.324,-64.0252"/>
</g>
<!-- Node6 -->
<g id="node11" class="node"><title>Node6</title>
<a xlink:href="../../d8/d28/vti__ps_8c.xhtml#a49dfd78503815814186a48488c6a991f" target="_top" xlink:title="ps_twi_write">
<polygon fill="white" stroke="black" points="210.5,-76.5 210.5,-95.5 281.5,-95.5 281.5,-76.5 210.5,-76.5"/>
<text text-anchor="middle" x="246" y="-83.5" font-family="Helvetica,sans-Serif" font-size="10.00">ps_twi_write</text>
</a>
</g>
<!-- Node3&#45;&gt;Node6 -->
<g id="edge10" class="edge"><title>Node3&#45;&gt;Node6</title>
<path fill="none" stroke="midnightblue" d="M173.517,-86C182.242,-86 191.398,-86 200.135,-86"/>
<polygon fill="midnightblue" stroke="midnightblue" points="200.147,-89.5001 210.147,-86 200.147,-82.5001 200.147,-89.5001"/>
</g>
<!-- Node5 -->
<g id="node9" class="node"><title>Node5</title>
<a xlink:href="../../d8/d28/vti__ps_8c.xhtml#aeec2d2e61bf0b7d2e9f09c4b4fac4490" target="_top" xlink:title="twi_delay">
<polygon fill="white" stroke="black" points="318,-38.5 318,-57.5 376,-57.5 376,-38.5 318,-38.5"/>
<text text-anchor="middle" x="347" y="-45.5" font-family="Helvetica,sans-Serif" font-size="10.00">twi_delay</text>
</a>
</g>
<!-- Node4&#45;&gt;Node5 -->
<g id="edge8" class="edge"><title>Node4&#45;&gt;Node5</title>
<path fill="none" stroke="midnightblue" d="M279.142,-48C288.167,-48 298.073,-48 307.431,-48"/>
<polygon fill="midnightblue" stroke="midnightblue" points="307.687,-51.5001 317.686,-48 307.686,-44.5001 307.687,-51.5001"/>
</g>
<!-- Node6&#45;&gt;Node5 -->
<g id="edge12" class="edge"><title>Node6&#45;&gt;Node5</title>
<path fill="none" stroke="midnightblue" d="M271.982,-76.411C283.941,-71.8206 298.455,-66.2497 311.451,-61.2612"/>
<polygon fill="midnightblue" stroke="midnightblue" points="312.944,-64.437 321.026,-57.5859 310.436,-57.9019 312.944,-64.437"/>
</g>
<!-- Node7&#45;&gt;Node4 -->
<g id="edge16" class="edge"><title>Node7&#45;&gt;Node4</title>
<path fill="none" stroke="midnightblue" d="M172.524,-48C182.344,-48 192.756,-48 202.532,-48"/>
<polygon fill="midnightblue" stroke="midnightblue" points="202.832,-51.5001 212.832,-48 202.832,-44.5001 202.832,-51.5001"/>
</g>
<!-- Node7&#45;&gt;Node6 -->
<g id="edge18" class="edge"><title>Node7&#45;&gt;Node6</title>
<path fill="none" stroke="midnightblue" d="M158.272,-57.589C172.697,-62.3144 190.293,-68.0789 205.857,-73.1774"/>
<polygon fill="midnightblue" stroke="midnightblue" points="205.145,-76.627 215.738,-76.4141 207.324,-69.9748 205.145,-76.627"/>
</g>
<!-- Node8 -->
<g id="node18" class="node"><title>Node8</title>
<a xlink:href="../../d8/d28/vti__ps_8c.xhtml#acbe3495716ae246bf71d2419dfabed72" target="_top" xlink:title="ps_twi_read">
<polygon fill="white" stroke="black" points="211.5,-0.5 211.5,-19.5 280.5,-19.5 280.5,-0.5 211.5,-0.5"/>
<text text-anchor="middle" x="246" y="-7.5" font-family="Helvetica,sans-Serif" font-size="10.00">ps_twi_read</text>
</a>
</g>
<!-- Node7&#45;&gt;Node8 -->
<g id="edge20" class="edge"><title>Node7&#45;&gt;Node8</title>
<path fill="none" stroke="midnightblue" d="M158.272,-38.411C172.697,-33.6856 190.293,-27.9211 205.857,-22.8226"/>
<polygon fill="midnightblue" stroke="midnightblue" points="207.324,-26.0252 215.738,-19.5859 205.145,-19.373 207.324,-26.0252"/>
</g>
<!-- Node8&#45;&gt;Node5 -->
<g id="edge22" class="edge"><title>Node8&#45;&gt;Node5</title>
<path fill="none" stroke="midnightblue" d="M271.982,-19.589C283.941,-24.1794 298.455,-29.7503 311.451,-34.7388"/>
<polygon fill="midnightblue" stroke="midnightblue" points="310.436,-38.0981 321.026,-38.4141 312.944,-31.563 310.436,-38.0981"/>
</g>
</g>
</svg>
