<?xml version="1.0" encoding="UTF-8" standalone="no"?>
<!DOCTYPE svg PUBLIC "-//W3C//DTD SVG 1.1//EN"
 "http://www.w3.org/Graphics/SVG/1.1/DTD/svg11.dtd">
<!-- Generated by graphviz version 2.28.0 (20121221.0049)
 -->
<!-- Title: ps_get_pa Pages: 1 -->
<svg width="398pt" height="104pt"
 viewBox="0.00 0.00 398.00 104.00" xmlns="http://www.w3.org/2000/svg" xmlns:xlink="http://www.w3.org/1999/xlink">
<g id="graph1" class="graph" transform="scale(1 1) rotate(0) translate(4 100)">
<title>ps_get_pa</title>
<polygon fill="white" stroke="white" points="-4,5 -4,-100 395,-100 395,5 -4,5"/>
<!-- Node1 -->
<g id="node1" class="node"><title>Node1</title>
<polygon fill="#bfbfbf" stroke="black" points="0,-38.5 0,-57.5 62,-57.5 62,-38.5 0,-38.5"/>
<text text-anchor="middle" x="31" y="-45.5" font-family="Helvetica,sans-Serif" font-size="10.00">ps_get_pa</text>
</g>
<!-- Node2 -->
<g id="node3" class="node"><title>Node2</title>
<a xlink:href="../../d8/d28/vti__ps_8c.xhtml#aa8c959c733fb193f7db8c74889fc8f01" target="_top" xlink:title="ps_read_register">
<polygon fill="white" stroke="black" points="98.5,-38.5 98.5,-57.5 187.5,-57.5 187.5,-38.5 98.5,-38.5"/>
<text text-anchor="middle" x="143" y="-45.5" font-family="Helvetica,sans-Serif" font-size="10.00">ps_read_register</text>
</a>
</g>
<!-- Node1&#45;&gt;Node2 -->
<g id="edge2" class="edge"><title>Node1&#45;&gt;Node2</title>
<path fill="none" stroke="midnightblue" d="M62.058,-48C70.1923,-48 79.25,-48 88.2625,-48"/>
<polygon fill="midnightblue" stroke="midnightblue" points="88.3671,-51.5001 98.3671,-48 88.3671,-44.5001 88.3671,-51.5001"/>
</g>
<!-- Node3 -->
<g id="node5" class="node"><title>Node3</title>
<a xlink:href="../../d8/d28/vti__ps_8c.xhtml#a5a111736e7d7fbbed73c189ed1d45b81" target="_top" xlink:title="ps_twi_sda">
<polygon fill="white" stroke="black" points="227,-76.5 227,-95.5 293,-95.5 293,-76.5 227,-76.5"/>
<text text-anchor="middle" x="260" y="-83.5" font-family="Helvetica,sans-Serif" font-size="10.00">ps_twi_sda</text>
</a>
</g>
<!-- Node2&#45;&gt;Node3 -->
<g id="edge4" class="edge"><title>Node2&#45;&gt;Node3</title>
<path fill="none" stroke="midnightblue" d="M173.019,-57.589C187.32,-62.3144 204.765,-68.0789 220.195,-73.1774"/>
<polygon fill="midnightblue" stroke="midnightblue" points="219.397,-76.5998 229.99,-76.4141 221.593,-69.9532 219.397,-76.5998"/>
</g>
<!-- Node5 -->
<g id="node9" class="node"><title>Node5</title>
<a xlink:href="../../d8/d28/vti__ps_8c.xhtml#a49dfd78503815814186a48488c6a991f" target="_top" xlink:title="ps_twi_write">
<polygon fill="white" stroke="black" points="224.5,-38.5 224.5,-57.5 295.5,-57.5 295.5,-38.5 224.5,-38.5"/>
<text text-anchor="middle" x="260" y="-45.5" font-family="Helvetica,sans-Serif" font-size="10.00">ps_twi_write</text>
</a>
</g>
<!-- Node2&#45;&gt;Node5 -->
<g id="edge8" class="edge"><title>Node2&#45;&gt;Node5</title>
<path fill="none" stroke="midnightblue" d="M187.805,-48C196.379,-48 205.384,-48 213.996,-48"/>
<polygon fill="midnightblue" stroke="midnightblue" points="214.251,-51.5001 224.251,-48 214.251,-44.5001 214.251,-51.5001"/>
</g>
<!-- Node6 -->
<g id="node12" class="node"><title>Node6</title>
<a xlink:href="../../d8/d28/vti__ps_8c.xhtml#acbe3495716ae246bf71d2419dfabed72" target="_top" xlink:title="ps_twi_read">
<polygon fill="white" stroke="black" points="225.5,-0.5 225.5,-19.5 294.5,-19.5 294.5,-0.5 225.5,-0.5"/>
<text text-anchor="middle" x="260" y="-7.5" font-family="Helvetica,sans-Serif" font-size="10.00">ps_twi_read</text>
</a>
</g>
<!-- Node2&#45;&gt;Node6 -->
<g id="edge12" class="edge"><title>Node2&#45;&gt;Node6</title>
<path fill="none" stroke="midnightblue" d="M173.019,-38.411C187.32,-33.6856 204.765,-27.9211 220.195,-22.8226"/>
<polygon fill="midnightblue" stroke="midnightblue" points="221.593,-26.0468 229.99,-19.5859 219.397,-19.4002 221.593,-26.0468"/>
</g>
<!-- Node4 -->
<g id="node7" class="node"><title>Node4</title>
<a xlink:href="../../d8/d28/vti__ps_8c.xhtml#aeec2d2e61bf0b7d2e9f09c4b4fac4490" target="_top" xlink:title="twi_delay">
<polygon fill="white" stroke="black" points="332,-38.5 332,-57.5 390,-57.5 390,-38.5 332,-38.5"/>
<text text-anchor="middle" x="361" y="-45.5" font-family="Helvetica,sans-Serif" font-size="10.00">twi_delay</text>
</a>
</g>
<!-- Node3&#45;&gt;Node4 -->
<g id="edge6" class="edge"><title>Node3&#45;&gt;Node4</title>
<path fill="none" stroke="midnightblue" d="M285.982,-76.411C297.941,-71.8206 312.455,-66.2497 325.451,-61.2612"/>
<polygon fill="midnightblue" stroke="midnightblue" points="326.944,-64.437 335.026,-57.5859 324.436,-57.9019 326.944,-64.437"/>
</g>
<!-- Node5&#45;&gt;Node4 -->
<g id="edge10" class="edge"><title>Node5&#45;&gt;Node4</title>
<path fill="none" stroke="midnightblue" d="M295.625,-48C304.029,-48 313.064,-48 321.63,-48"/>
<polygon fill="midnightblue" stroke="midnightblue" points="321.771,-51.5001 331.771,-48 321.771,-44.5001 321.771,-51.5001"/>
</g>
<!-- Node6&#45;&gt;Node4 -->
<g id="edge14" class="edge"><title>Node6&#45;&gt;Node4</title>
<path fill="none" stroke="midnightblue" d="M285.982,-19.589C297.941,-24.1794 312.455,-29.7503 325.451,-34.7388"/>
<polygon fill="midnightblue" stroke="midnightblue" points="324.436,-38.0981 335.026,-38.4141 326.944,-31.563 324.436,-38.0981"/>
</g>
</g>
</svg>
