<?xml version="1.0" encoding="UTF-8" standalone="no"?>
<!DOCTYPE svg PUBLIC "-//W3C//DTD SVG 1.1//EN"
 "http://www.w3.org/Graphics/SVG/1.1/DTD/svg11.dtd">
<!-- Generated by graphviz version 2.28.0 (20121221.0049)
 -->
<!-- Title: ps_read_register Pages: 1 -->
<svg width="300pt" height="104pt"
 viewBox="0.00 0.00 300.00 104.00" xmlns="http://www.w3.org/2000/svg" xmlns:xlink="http://www.w3.org/1999/xlink">
<g id="graph1" class="graph" transform="scale(1 1) rotate(0) translate(4 100)">
<title>ps_read_register</title>
<polygon fill="white" stroke="white" points="-4,5 -4,-100 297,-100 297,5 -4,5"/>
<!-- Node1 -->
<g id="node1" class="node"><title>Node1</title>
<polygon fill="#bfbfbf" stroke="black" points="0.5,-38.5 0.5,-57.5 89.5,-57.5 89.5,-38.5 0.5,-38.5"/>
<text text-anchor="middle" x="45" y="-45.5" font-family="Helvetica,sans-Serif" font-size="10.00">ps_read_register</text>
</g>
<!-- Node2 -->
<g id="node3" class="node"><title>Node2</title>
<a xlink:href="../../d8/d28/vti__ps_8c.xhtml#a5a111736e7d7fbbed73c189ed1d45b81" target="_top" xlink:title="ps_twi_sda">
<polygon fill="white" stroke="black" points="129,-76.5 129,-95.5 195,-95.5 195,-76.5 129,-76.5"/>
<text text-anchor="middle" x="162" y="-83.5" font-family="Helvetica,sans-Serif" font-size="10.00">ps_twi_sda</text>
</a>
</g>
<!-- Node1&#45;&gt;Node2 -->
<g id="edge2" class="edge"><title>Node1&#45;&gt;Node2</title>
<path fill="none" stroke="midnightblue" d="M75.0194,-57.589C89.32,-62.3144 106.765,-68.0789 122.195,-73.1774"/>
<polygon fill="midnightblue" stroke="midnightblue" points="121.397,-76.5998 131.99,-76.4141 123.593,-69.9532 121.397,-76.5998"/>
</g>
<!-- Node4 -->
<g id="node7" class="node"><title>Node4</title>
<a xlink:href="../../d8/d28/vti__ps_8c.xhtml#a49dfd78503815814186a48488c6a991f" target="_top" xlink:title="ps_twi_write">
<polygon fill="white" stroke="black" points="126.5,-38.5 126.5,-57.5 197.5,-57.5 197.5,-38.5 126.5,-38.5"/>
<text text-anchor="middle" x="162" y="-45.5" font-family="Helvetica,sans-Serif" font-size="10.00">ps_twi_write</text>
</a>
</g>
<!-- Node1&#45;&gt;Node4 -->
<g id="edge6" class="edge"><title>Node1&#45;&gt;Node4</title>
<path fill="none" stroke="midnightblue" d="M89.8046,-48C98.3786,-48 107.384,-48 115.996,-48"/>
<polygon fill="midnightblue" stroke="midnightblue" points="116.251,-51.5001 126.251,-48 116.251,-44.5001 116.251,-51.5001"/>
</g>
<!-- Node5 -->
<g id="node10" class="node"><title>Node5</title>
<a xlink:href="../../d8/d28/vti__ps_8c.xhtml#acbe3495716ae246bf71d2419dfabed72" target="_top" xlink:title="ps_twi_read">
<polygon fill="white" stroke="black" points="127.5,-0.5 127.5,-19.5 196.5,-19.5 196.5,-0.5 127.5,-0.5"/>
<text text-anchor="middle" x="162" y="-7.5" font-family="Helvetica,sans-Serif" font-size="10.00">ps_twi_read</text>
</a>
</g>
<!-- Node1&#45;&gt;Node5 -->
<g id="edge10" class="edge"><title>Node1&#45;&gt;Node5</title>
<path fill="none" stroke="midnightblue" d="M75.0194,-38.411C89.32,-33.6856 106.765,-27.9211 122.195,-22.8226"/>
<polygon fill="midnightblue" stroke="midnightblue" points="123.593,-26.0468 131.99,-19.5859 121.397,-19.4002 123.593,-26.0468"/>
</g>
<!-- Node3 -->
<g id="node5" class="node"><title>Node3</title>
<a xlink:href="../../d8/d28/vti__ps_8c.xhtml#aeec2d2e61bf0b7d2e9f09c4b4fac4490" target="_top" xlink:title="twi_delay">
<polygon fill="white" stroke="black" points="234,-38.5 234,-57.5 292,-57.5 292,-38.5 234,-38.5"/>
<text text-anchor="middle" x="263" y="-45.5" font-family="Helvetica,sans-Serif" font-size="10.00">twi_delay</text>
</a>
</g>
<!-- Node2&#45;&gt;Node3 -->
<g id="edge4" class="edge"><title>Node2&#45;&gt;Node3</title>
<path fill="none" stroke="midnightblue" d="M187.982,-76.411C199.941,-71.8206 214.455,-66.2497 227.451,-61.2612"/>
<polygon fill="midnightblue" stroke="midnightblue" points="228.944,-64.437 237.026,-57.5859 226.436,-57.9019 228.944,-64.437"/>
</g>
<!-- Node4&#45;&gt;Node3 -->
<g id="edge8" class="edge"><title>Node4&#45;&gt;Node3</title>
<path fill="none" stroke="midnightblue" d="M197.625,-48C206.029,-48 215.064,-48 223.63,-48"/>
<polygon fill="midnightblue" stroke="midnightblue" points="223.771,-51.5001 233.771,-48 223.771,-44.5001 223.771,-51.5001"/>
</g>
<!-- Node5&#45;&gt;Node3 -->
<g id="edge12" class="edge"><title>Node5&#45;&gt;Node3</title>
<path fill="none" stroke="midnightblue" d="M187.982,-19.589C199.941,-24.1794 214.455,-29.7503 227.451,-34.7388"/>
<polygon fill="midnightblue" stroke="midnightblue" points="226.436,-38.0981 237.026,-38.4141 228.944,-31.563 226.436,-38.0981"/>
</g>
</g>
</svg>
