<?xml version="1.0" encoding="UTF-8" standalone="no"?>
<!DOCTYPE svg PUBLIC "-//W3C//DTD SVG 1.1//EN"
 "http://www.w3.org/Graphics/SVG/1.1/DTD/svg11.dtd">
<!-- Generated by graphviz version 2.28.0 (20121221.0049)
 -->
<!-- Title: ps_get_temp Pages: 1 -->
<svg width="410pt" height="104pt"
 viewBox="0.00 0.00 410.00 104.00" xmlns="http://www.w3.org/2000/svg" xmlns:xlink="http://www.w3.org/1999/xlink">
<g id="graph1" class="graph" transform="scale(1 1) rotate(0) translate(4 100)">
<title>ps_get_temp</title>
<polygon fill="white" stroke="white" points="-4,5 -4,-100 407,-100 407,5 -4,5"/>
<!-- Node1 -->
<g id="node1" class="node"><title>Node1</title>
<polygon fill="#bfbfbf" stroke="black" points="0.5,-38.5 0.5,-57.5 73.5,-57.5 73.5,-38.5 0.5,-38.5"/>
<text text-anchor="middle" x="37" y="-45.5" font-family="Helvetica,sans-Serif" font-size="10.00">ps_get_temp</text>
</g>
<!-- Node2 -->
<g id="node3" class="node"><title>Node2</title>
<a xlink:href="../../d8/d28/vti__ps_8c.xhtml#aa8c959c733fb193f7db8c74889fc8f01" target="_top" xlink:title="ps_read_register">
<polygon fill="white" stroke="black" points="110.5,-38.5 110.5,-57.5 199.5,-57.5 199.5,-38.5 110.5,-38.5"/>
<text text-anchor="middle" x="155" y="-45.5" font-family="Helvetica,sans-Serif" font-size="10.00">ps_read_register</text>
</a>
</g>
<!-- Node1&#45;&gt;Node2 -->
<g id="edge2" class="edge"><title>Node1&#45;&gt;Node2</title>
<path fill="none" stroke="midnightblue" d="M73.7503,-48C82.1662,-48 91.3187,-48 100.331,-48"/>
<polygon fill="midnightblue" stroke="midnightblue" points="100.4,-51.5001 110.4,-48 100.4,-44.5001 100.4,-51.5001"/>
</g>
<!-- Node3 -->
<g id="node5" class="node"><title>Node3</title>
<a xlink:href="../../d8/d28/vti__ps_8c.xhtml#a5a111736e7d7fbbed73c189ed1d45b81" target="_top" xlink:title="ps_twi_sda">
<polygon fill="white" stroke="black" points="239,-76.5 239,-95.5 305,-95.5 305,-76.5 239,-76.5"/>
<text text-anchor="middle" x="272" y="-83.5" font-family="Helvetica,sans-Serif" font-size="10.00">ps_twi_sda</text>
</a>
</g>
<!-- Node2&#45;&gt;Node3 -->
<g id="edge4" class="edge"><title>Node2&#45;&gt;Node3</title>
<path fill="none" stroke="midnightblue" d="M185.019,-57.589C199.32,-62.3144 216.765,-68.0789 232.195,-73.1774"/>
<polygon fill="midnightblue" stroke="midnightblue" points="231.397,-76.5998 241.99,-76.4141 233.593,-69.9532 231.397,-76.5998"/>
</g>
<!-- Node5 -->
<g id="node9" class="node"><title>Node5</title>
<a xlink:href="../../d8/d28/vti__ps_8c.xhtml#a49dfd78503815814186a48488c6a991f" target="_top" xlink:title="ps_twi_write">
<polygon fill="white" stroke="black" points="236.5,-38.5 236.5,-57.5 307.5,-57.5 307.5,-38.5 236.5,-38.5"/>
<text text-anchor="middle" x="272" y="-45.5" font-family="Helvetica,sans-Serif" font-size="10.00">ps_twi_write</text>
</a>
</g>
<!-- Node2&#45;&gt;Node5 -->
<g id="edge8" class="edge"><title>Node2&#45;&gt;Node5</title>
<path fill="none" stroke="midnightblue" d="M199.805,-48C208.379,-48 217.384,-48 225.996,-48"/>
<polygon fill="midnightblue" stroke="midnightblue" points="226.251,-51.5001 236.251,-48 226.251,-44.5001 226.251,-51.5001"/>
</g>
<!-- Node6 -->
<g id="node12" class="node"><title>Node6</title>
<a xlink:href="../../d8/d28/vti__ps_8c.xhtml#acbe3495716ae246bf71d2419dfabed72" target="_top" xlink:title="ps_twi_read">
<polygon fill="white" stroke="black" points="237.5,-0.5 237.5,-19.5 306.5,-19.5 306.5,-0.5 237.5,-0.5"/>
<text text-anchor="middle" x="272" y="-7.5" font-family="Helvetica,sans-Serif" font-size="10.00">ps_twi_read</text>
</a>
</g>
<!-- Node2&#45;&gt;Node6 -->
<g id="edge12" class="edge"><title>Node2&#45;&gt;Node6</title>
<path fill="none" stroke="midnightblue" d="M185.019,-38.411C199.32,-33.6856 216.765,-27.9211 232.195,-22.8226"/>
<polygon fill="midnightblue" stroke="midnightblue" points="233.593,-26.0468 241.99,-19.5859 231.397,-19.4002 233.593,-26.0468"/>
</g>
<!-- Node4 -->
<g id="node7" class="node"><title>Node4</title>
<a xlink:href="../../d8/d28/vti__ps_8c.xhtml#aeec2d2e61bf0b7d2e9f09c4b4fac4490" target="_top" xlink:title="twi_delay">
<polygon fill="white" stroke="black" points="344,-38.5 344,-57.5 402,-57.5 402,-38.5 344,-38.5"/>
<text text-anchor="middle" x="373" y="-45.5" font-family="Helvetica,sans-Serif" font-size="10.00">twi_delay</text>
</a>
</g>
<!-- Node3&#45;&gt;Node4 -->
<g id="edge6" class="edge"><title>Node3&#45;&gt;Node4</title>
<path fill="none" stroke="midnightblue" d="M297.982,-76.411C309.941,-71.8206 324.455,-66.2497 337.451,-61.2612"/>
<polygon fill="midnightblue" stroke="midnightblue" points="338.944,-64.437 347.026,-57.5859 336.436,-57.9019 338.944,-64.437"/>
</g>
<!-- Node5&#45;&gt;Node4 -->
<g id="edge10" class="edge"><title>Node5&#45;&gt;Node4</title>
<path fill="none" stroke="midnightblue" d="M307.625,-48C316.029,-48 325.064,-48 333.63,-48"/>
<polygon fill="midnightblue" stroke="midnightblue" points="333.771,-51.5001 343.771,-48 333.771,-44.5001 333.771,-51.5001"/>
</g>
<!-- Node6&#45;&gt;Node4 -->
<g id="edge14" class="edge"><title>Node6&#45;&gt;Node4</title>
<path fill="none" stroke="midnightblue" d="M297.982,-19.589C309.941,-24.1794 324.455,-29.7503 337.451,-34.7388"/>
<polygon fill="midnightblue" stroke="midnightblue" points="336.436,-38.0981 347.026,-38.4141 338.944,-31.563 336.436,-38.0981"/>
</g>
</g>
</svg>
