<?xml version="1.0" encoding="UTF-8" standalone="no"?>
<!DOCTYPE svg PUBLIC "-//W3C//DTD SVG 1.1//EN"
 "http://www.w3.org/Graphics/SVG/1.1/DTD/svg11.dtd">
<!-- Generated by graphviz version 2.28.0 (20121221.0049)
 -->
<!-- Title: close_radio Pages: 1 -->
<svg width="406pt" height="66pt"
 viewBox="0.00 0.00 406.00 66.00" xmlns="http://www.w3.org/2000/svg" xmlns:xlink="http://www.w3.org/1999/xlink">
<g id="graph1" class="graph" transform="scale(1 1) rotate(0) translate(4 62)">
<title>close_radio</title>
<polygon fill="white" stroke="white" points="-4,5 -4,-62 403,-62 403,5 -4,5"/>
<!-- Node1 -->
<g id="node1" class="node"><title>Node1</title>
<polygon fill="#bfbfbf" stroke="black" points="0,-19.5 0,-38.5 66,-38.5 66,-19.5 0,-19.5"/>
<text text-anchor="middle" x="33" y="-26.5" font-family="Helvetica,sans-Serif" font-size="10.00">close_radio</text>
</g>
<!-- Node2 -->
<g id="node3" class="node"><title>Node2</title>
<a xlink:href="../../dd/d16/radio_8c.xhtml#af181029cf06b94f0f4ceaafec1c3f209" target="_top" xlink:title="radio_reset">
<polygon fill="white" stroke="black" points="115.5,-38.5 115.5,-57.5 180.5,-57.5 180.5,-38.5 115.5,-38.5"/>
<text text-anchor="middle" x="148" y="-45.5" font-family="Helvetica,sans-Serif" font-size="10.00">radio_reset</text>
</a>
</g>
<!-- Node1&#45;&gt;Node2 -->
<g id="edge2" class="edge"><title>Node1&#45;&gt;Node2</title>
<path fill="none" stroke="midnightblue" d="M66.079,-34.3938C78.2297,-36.4369 92.2463,-38.7936 105.164,-40.9657"/>
<polygon fill="midnightblue" stroke="midnightblue" points="104.79,-44.4518 115.232,-42.6585 105.951,-37.5487 104.79,-44.4518"/>
</g>
<!-- Node6 -->
<g id="node11" class="node"><title>Node6</title>
<a xlink:href="../../dd/d16/radio_8c.xhtml#a3b62a2ba4f2a38a10ab1f523980b6e40" target="_top" xlink:title="radio_powerdown">
<polygon fill="white" stroke="black" points="102,-0.5 102,-19.5 194,-19.5 194,-0.5 102,-0.5"/>
<text text-anchor="middle" x="148" y="-7.5" font-family="Helvetica,sans-Serif" font-size="10.00">radio_powerdown</text>
</a>
</g>
<!-- Node1&#45;&gt;Node6 -->
<g id="edge10" class="edge"><title>Node1&#45;&gt;Node6</title>
<path fill="none" stroke="midnightblue" d="M66.079,-23.6062C74.1383,-22.2511 83.0186,-20.7579 91.8546,-19.2722"/>
<polygon fill="midnightblue" stroke="midnightblue" points="92.4847,-22.7155 101.766,-17.6057 91.3239,-15.8124 92.4847,-22.7155"/>
</g>
<!-- Node3 -->
<g id="node5" class="node"><title>Node3</title>
<a xlink:href="../../d6/dc2/rf1a_8c.xhtml#a945d18674a1ebb9b90e50dd79c1b616d" target="_top" xlink:title="Strobe">
<polygon fill="white" stroke="black" points="230.5,-19.5 230.5,-38.5 275.5,-38.5 275.5,-19.5 230.5,-19.5"/>
<text text-anchor="middle" x="253" y="-26.5" font-family="Helvetica,sans-Serif" font-size="10.00">Strobe</text>
</a>
</g>
<!-- Node2&#45;&gt;Node3 -->
<g id="edge4" class="edge"><title>Node2&#45;&gt;Node3</title>
<path fill="none" stroke="midnightblue" d="M180.744,-42.1443C193.305,-39.8273 207.713,-37.1694 220.272,-34.8527"/>
<polygon fill="midnightblue" stroke="midnightblue" points="221.107,-38.2579 230.306,-33.0018 219.837,-31.3741 221.107,-38.2579"/>
</g>
<!-- Node4 -->
<g id="node7" class="node"><title>Node4</title>
<a xlink:href="../../d6/dc2/rf1a_8c.xhtml#a2054867692e5cbdbb05e4e259f9f6638" target="_top" xlink:title="ReadSingleReg">
<polygon fill="white" stroke="black" points="312.5,-38.5 312.5,-57.5 397.5,-57.5 397.5,-38.5 312.5,-38.5"/>
<text text-anchor="middle" x="355" y="-45.5" font-family="Helvetica,sans-Serif" font-size="10.00">ReadSingleReg</text>
</a>
</g>
<!-- Node3&#45;&gt;Node4 -->
<g id="edge6" class="edge"><title>Node3&#45;&gt;Node4</title>
<path fill="none" stroke="midnightblue" d="M275.699,-33.1227C283.545,-34.6135 292.778,-36.3678 302.099,-38.1388"/>
<polygon fill="midnightblue" stroke="midnightblue" points="301.709,-41.6272 312.186,-40.0554 303.015,-34.7502 301.709,-41.6272"/>
</g>
<!-- Node5 -->
<g id="node9" class="node"><title>Node5</title>
<a xlink:href="../../d6/dc2/rf1a_8c.xhtml#abcff9c644002de49b819433c321f3e82" target="_top" xlink:title="WriteSingleReg">
<polygon fill="white" stroke="black" points="312.5,-0.5 312.5,-19.5 397.5,-19.5 397.5,-0.5 312.5,-0.5"/>
<text text-anchor="middle" x="355" y="-7.5" font-family="Helvetica,sans-Serif" font-size="10.00">WriteSingleReg</text>
</a>
</g>
<!-- Node3&#45;&gt;Node5 -->
<g id="edge8" class="edge"><title>Node3&#45;&gt;Node5</title>
<path fill="none" stroke="midnightblue" d="M275.699,-24.8773C283.545,-23.3865 292.778,-21.6322 302.099,-19.8612"/>
<polygon fill="midnightblue" stroke="midnightblue" points="303.015,-23.2498 312.186,-17.9446 301.709,-16.3728 303.015,-23.2498"/>
</g>
<!-- Node6&#45;&gt;Node3 -->
<g id="edge12" class="edge"><title>Node6&#45;&gt;Node3</title>
<path fill="none" stroke="midnightblue" d="M194.177,-18.3337C202.995,-19.9602 212.063,-21.633 220.327,-23.1575"/>
<polygon fill="midnightblue" stroke="midnightblue" points="219.817,-26.6223 230.286,-24.9945 221.087,-19.7385 219.817,-26.6223"/>
</g>
</g>
</svg>
