<?xml version="1.0" encoding="UTF-8" standalone="no"?>
<!DOCTYPE svg PUBLIC "-//W3C//DTD SVG 1.1//EN"
 "http://www.w3.org/Graphics/SVG/1.1/DTD/svg11.dtd">
<!-- Generated by graphviz version 2.28.0 (20121221.0049)
 -->
<!-- Title: open_radio Pages: 1 -->
<svg width="378pt" height="66pt"
 viewBox="0.00 0.00 378.00 66.00" xmlns="http://www.w3.org/2000/svg" xmlns:xlink="http://www.w3.org/1999/xlink">
<g id="graph1" class="graph" transform="scale(1 1) rotate(0) translate(4 62)">
<title>open_radio</title>
<polygon fill="white" stroke="white" points="-4,5 -4,-62 375,-62 375,5 -4,5"/>
<!-- Node1 -->
<g id="node1" class="node"><title>Node1</title>
<polygon fill="#bfbfbf" stroke="black" points="0,-19.5 0,-38.5 64,-38.5 64,-19.5 0,-19.5"/>
<text text-anchor="middle" x="32" y="-26.5" font-family="Helvetica,sans-Serif" font-size="10.00">open_radio</text>
</g>
<!-- Node2 -->
<g id="node3" class="node"><title>Node2</title>
<a xlink:href="../../dd/d16/radio_8c.xhtml#af181029cf06b94f0f4ceaafec1c3f209" target="_top" xlink:title="radio_reset">
<polygon fill="white" stroke="black" points="100.5,-19.5 100.5,-38.5 165.5,-38.5 165.5,-19.5 100.5,-19.5"/>
<text text-anchor="middle" x="133" y="-26.5" font-family="Helvetica,sans-Serif" font-size="10.00">radio_reset</text>
</a>
</g>
<!-- Node1&#45;&gt;Node2 -->
<g id="edge2" class="edge"><title>Node1&#45;&gt;Node2</title>
<path fill="none" stroke="midnightblue" d="M64.0526,-29C72.3671,-29 81.4919,-29 90.2811,-29"/>
<polygon fill="midnightblue" stroke="midnightblue" points="90.3759,-32.5001 100.376,-29 90.3759,-25.5001 90.3759,-32.5001"/>
</g>
<!-- Node3 -->
<g id="node5" class="node"><title>Node3</title>
<a xlink:href="../../d6/dc2/rf1a_8c.xhtml#a945d18674a1ebb9b90e50dd79c1b616d" target="_top" xlink:title="Strobe">
<polygon fill="white" stroke="black" points="202.5,-19.5 202.5,-38.5 247.5,-38.5 247.5,-19.5 202.5,-19.5"/>
<text text-anchor="middle" x="225" y="-26.5" font-family="Helvetica,sans-Serif" font-size="10.00">Strobe</text>
</a>
</g>
<!-- Node2&#45;&gt;Node3 -->
<g id="edge4" class="edge"><title>Node2&#45;&gt;Node3</title>
<path fill="none" stroke="midnightblue" d="M165.731,-29C174.366,-29 183.717,-29 192.347,-29"/>
<polygon fill="midnightblue" stroke="midnightblue" points="192.421,-32.5001 202.421,-29 192.421,-25.5001 192.421,-32.5001"/>
</g>
<!-- Node4 -->
<g id="node7" class="node"><title>Node4</title>
<a xlink:href="../../d6/dc2/rf1a_8c.xhtml#a2054867692e5cbdbb05e4e259f9f6638" target="_top" xlink:title="ReadSingleReg">
<polygon fill="white" stroke="black" points="284.5,-38.5 284.5,-57.5 369.5,-57.5 369.5,-38.5 284.5,-38.5"/>
<text text-anchor="middle" x="327" y="-45.5" font-family="Helvetica,sans-Serif" font-size="10.00">ReadSingleReg</text>
</a>
</g>
<!-- Node3&#45;&gt;Node4 -->
<g id="edge6" class="edge"><title>Node3&#45;&gt;Node4</title>
<path fill="none" stroke="midnightblue" d="M247.699,-33.1227C255.545,-34.6135 264.778,-36.3678 274.099,-38.1388"/>
<polygon fill="midnightblue" stroke="midnightblue" points="273.709,-41.6272 284.186,-40.0554 275.015,-34.7502 273.709,-41.6272"/>
</g>
<!-- Node5 -->
<g id="node9" class="node"><title>Node5</title>
<a xlink:href="../../d6/dc2/rf1a_8c.xhtml#abcff9c644002de49b819433c321f3e82" target="_top" xlink:title="WriteSingleReg">
<polygon fill="white" stroke="black" points="284.5,-0.5 284.5,-19.5 369.5,-19.5 369.5,-0.5 284.5,-0.5"/>
<text text-anchor="middle" x="327" y="-7.5" font-family="Helvetica,sans-Serif" font-size="10.00">WriteSingleReg</text>
</a>
</g>
<!-- Node3&#45;&gt;Node5 -->
<g id="edge8" class="edge"><title>Node3&#45;&gt;Node5</title>
<path fill="none" stroke="midnightblue" d="M247.699,-24.8773C255.545,-23.3865 264.778,-21.6322 274.099,-19.8612"/>
<polygon fill="midnightblue" stroke="midnightblue" points="275.015,-23.2498 284.186,-17.9446 273.709,-16.3728 275.015,-23.2498"/>
</g>
</g>
</svg>
