<?xml version="1.0" encoding="UTF-8" standalone="no"?>
<!DOCTYPE svg PUBLIC "-//W3C//DTD SVG 1.1//EN"
 "http://www.w3.org/Graphics/SVG/1.1/DTD/svg11.dtd">
<!-- Generated by graphviz version 2.28.0 (20121221.0049)
 -->
<!-- Title: alarm_deactivated Pages: 1 -->
<svg width="672pt" height="66pt"
 viewBox="0.00 0.00 672.00 66.00" xmlns="http://www.w3.org/2000/svg" xmlns:xlink="http://www.w3.org/1999/xlink">
<g id="graph1" class="graph" transform="scale(1 1) rotate(0) translate(4 62)">
<title>alarm_deactivated</title>
<polygon fill="white" stroke="white" points="-4,5 -4,-62 669,-62 669,5 -4,5"/>
<!-- Node1 -->
<g id="node1" class="node"><title>Node1</title>
<polygon fill="#bfbfbf" stroke="black" points="0,-19.5 0,-38.5 96,-38.5 96,-19.5 0,-19.5"/>
<text text-anchor="middle" x="48" y="-26.5" font-family="Helvetica,sans-Serif" font-size="10.00">alarm_deactivated</text>
</g>
<!-- Node2 -->
<g id="node3" class="node"><title>Node2</title>
<a xlink:href="../../db/d85/display_8c.xhtml#aa150336a018e90f37fd0285047b541f6" target="_top" xlink:title="Clears the screen.">
<polygon fill="white" stroke="black" points="132,-19.5 132,-38.5 206,-38.5 206,-19.5 132,-19.5"/>
<text text-anchor="middle" x="169" y="-26.5" font-family="Helvetica,sans-Serif" font-size="10.00">display_clear</text>
</a>
</g>
<!-- Node1&#45;&gt;Node2 -->
<g id="edge2" class="edge"><title>Node1&#45;&gt;Node2</title>
<path fill="none" stroke="midnightblue" d="M96.032,-29C104.53,-29 113.384,-29 121.857,-29"/>
<polygon fill="midnightblue" stroke="midnightblue" points="121.953,-32.5001 131.953,-29 121.953,-25.5001 121.953,-32.5001"/>
</g>
<!-- Node3 -->
<g id="node5" class="node"><title>Node3</title>
<a xlink:href="../../db/d85/display_8c.xhtml#a6f2d5cdda31a73b43a569cb3d1a64165" target="_top" xlink:title="Displays several consecutive characters.">
<polygon fill="white" stroke="black" points="242.5,-38.5 242.5,-57.5 319.5,-57.5 319.5,-38.5 242.5,-38.5"/>
<text text-anchor="middle" x="281" y="-45.5" font-family="Helvetica,sans-Serif" font-size="10.00">display_chars</text>
</a>
</g>
<!-- Node2&#45;&gt;Node3 -->
<g id="edge4" class="edge"><title>Node2&#45;&gt;Node3</title>
<path fill="none" stroke="midnightblue" d="M206.018,-35.2213C214.486,-36.6839 223.637,-38.2646 232.522,-39.7993"/>
<polygon fill="midnightblue" stroke="midnightblue" points="231.94,-43.2504 242.389,-41.5036 233.131,-36.3526 231.94,-43.2504"/>
</g>
<!-- Node7 -->
<g id="node13" class="node"><title>Node7</title>
<a xlink:href="../../db/d85/display_8c.xhtml#af604e78dcc4e0f1a204b2180c5e54957" target="_top" xlink:title="Displays a symbol.">
<polygon fill="white" stroke="black" points="356,-0.5 356,-19.5 440,-19.5 440,-0.5 356,-0.5"/>
<text text-anchor="middle" x="398" y="-7.5" font-family="Helvetica,sans-Serif" font-size="10.00">display_symbol</text>
</a>
</g>
<!-- Node2&#45;&gt;Node7 -->
<g id="edge12" class="edge"><title>Node2&#45;&gt;Node7</title>
<path fill="none" stroke="midnightblue" d="M206.22,-25.9684C243.918,-22.8131 303.277,-17.8447 345.77,-14.288"/>
<polygon fill="midnightblue" stroke="midnightblue" points="346.242,-17.7608 355.916,-13.4388 345.659,-10.7852 346.242,-17.7608"/>
</g>
<!-- Node4 -->
<g id="node7" class="node"><title>Node4</title>
<a xlink:href="../../db/d85/display_8c.xhtml#a3ae30196af91197037d50cb49de1d109" target="_top" xlink:title="Displays a single character.">
<polygon fill="white" stroke="black" points="362.5,-38.5 362.5,-57.5 433.5,-57.5 433.5,-38.5 362.5,-38.5"/>
<text text-anchor="middle" x="398" y="-45.5" font-family="Helvetica,sans-Serif" font-size="10.00">display_char</text>
</a>
</g>
<!-- Node3&#45;&gt;Node4 -->
<g id="edge6" class="edge"><title>Node3&#45;&gt;Node4</title>
<path fill="none" stroke="midnightblue" d="M319.655,-48C330.08,-48 341.496,-48 352.281,-48"/>
<polygon fill="midnightblue" stroke="midnightblue" points="352.374,-51.5001 362.374,-48 352.374,-44.5001 352.374,-51.5001"/>
</g>
<!-- Node5 -->
<g id="node9" class="node"><title>Node5</title>
<a xlink:href="../../db/d85/display_8c.xhtml#a9275035317878022cf9eacf6b0a5be72" target="_top" xlink:title="Display a custom collection of segments.">
<polygon fill="white" stroke="black" points="476,-38.5 476,-57.5 544,-57.5 544,-38.5 476,-38.5"/>
<text text-anchor="middle" x="510" y="-45.5" font-family="Helvetica,sans-Serif" font-size="10.00">display_bits</text>
</a>
</g>
<!-- Node4&#45;&gt;Node5 -->
<g id="edge8" class="edge"><title>Node4&#45;&gt;Node5</title>
<path fill="none" stroke="midnightblue" d="M433.503,-48C443.721,-48 455.04,-48 465.738,-48"/>
<polygon fill="midnightblue" stroke="midnightblue" points="465.748,-51.5001 475.748,-48 465.748,-44.5001 465.748,-51.5001"/>
</g>
<!-- Node6 -->
<g id="node11" class="node"><title>Node6</title>
<a xlink:href="../../db/d85/display_8c.xhtml#a710739913e8ea1b71dd433b8311211fd" target="_top" xlink:title="write_lcd_mem">
<polygon fill="white" stroke="black" points="580.5,-19.5 580.5,-38.5 663.5,-38.5 663.5,-19.5 580.5,-19.5"/>
<text text-anchor="middle" x="622" y="-26.5" font-family="Helvetica,sans-Serif" font-size="10.00">write_lcd_mem</text>
</a>
</g>
<!-- Node5&#45;&gt;Node6 -->
<g id="edge10" class="edge"><title>Node5&#45;&gt;Node6</title>
<path fill="none" stroke="midnightblue" d="M544.004,-42.2994C552.28,-40.8698 561.352,-39.3029 570.273,-37.762"/>
<polygon fill="midnightblue" stroke="midnightblue" points="570.972,-41.1931 580.231,-36.042 569.781,-34.2952 570.972,-41.1931"/>
</g>
<!-- Node7&#45;&gt;Node6 -->
<g id="edge14" class="edge"><title>Node7&#45;&gt;Node6</title>
<path fill="none" stroke="midnightblue" d="M440.236,-13.5292C476.955,-16.6718 530.802,-21.2804 570.174,-24.65"/>
<polygon fill="midnightblue" stroke="midnightblue" points="570.097,-28.1562 580.359,-25.5218 570.694,-21.1817 570.097,-28.1562"/>
</g>
</g>
</svg>
