<?xml version="1.0" encoding="UTF-8" standalone="no"?>
<!DOCTYPE svg PUBLIC "-//W3C//DTD SVG 1.1//EN"
 "http://www.w3.org/Graphics/SVG/1.1/DTD/svg11.dtd">
<!-- Generated by graphviz version 2.28.0 (20121221.0049)
 -->
<!-- Title: mod_alarm_init Pages: 1 -->
<svg width="854pt" height="446pt"
 viewBox="0.00 0.00 854.00 446.00" xmlns="http://www.w3.org/2000/svg" xmlns:xlink="http://www.w3.org/1999/xlink">
<g id="graph1" class="graph" transform="scale(1 1) rotate(0) translate(4 442)">
<title>mod_alarm_init</title>
<polygon fill="white" stroke="white" points="-4,5 -4,-442 851,-442 851,5 -4,5"/>
<!-- Node1 -->
<g id="node1" class="node"><title>Node1</title>
<polygon fill="#bfbfbf" stroke="black" points="0.5,-190.5 0.5,-209.5 83.5,-209.5 83.5,-190.5 0.5,-190.5"/>
<text text-anchor="middle" x="42" y="-197.5" font-family="Helvetica,sans-Serif" font-size="10.00">mod_alarm_init</text>
</g>
<!-- Node2 -->
<g id="node3" class="node"><title>Node2</title>
<a xlink:href="../../d2/df2/openchronos_8c.xhtml#a71490cfda7ca71ac20d681a8a7a994e1" target="_top" xlink:title="Adds an entry to the main menu.">
<polygon fill="white" stroke="black" points="123.5,-323.5 123.5,-342.5 212.5,-342.5 212.5,-323.5 123.5,-323.5"/>
<text text-anchor="middle" x="168" y="-330.5" font-family="Helvetica,sans-Serif" font-size="10.00">menu_add_entry</text>
</a>
</g>
<!-- Node1&#45;&gt;Node2 -->
<g id="edge2" class="edge"><title>Node1&#45;&gt;Node2</title>
<path fill="none" stroke="midnightblue" d="M47.1118,-209.664C56.7593,-231.272 82.8716,-283.948 120,-314 122.035,-315.647 124.232,-317.168 126.526,-318.57"/>
<polygon fill="midnightblue" stroke="midnightblue" points="125.233,-321.845 135.713,-323.402 128.491,-315.649 125.233,-321.845"/>
</g>
<!-- Node3 -->
<g id="node5" class="node"><title>Node3</title>
<a xlink:href="../../df/dce/alarm_8c.xhtml#ac45981ec8f139799de2761059031da27" target="_top" xlink:title="num_pressed">
<polygon fill="white" stroke="black" points="130.5,-285.5 130.5,-304.5 205.5,-304.5 205.5,-285.5 130.5,-285.5"/>
<text text-anchor="middle" x="168" y="-292.5" font-family="Helvetica,sans-Serif" font-size="10.00">num_pressed</text>
</a>
</g>
<!-- Node1&#45;&gt;Node3 -->
<g id="edge4" class="edge"><title>Node1&#45;&gt;Node3</title>
<path fill="none" stroke="midnightblue" d="M55.8031,-209.809C77.2624,-226.249 120.667,-259.503 146.443,-279.251"/>
<polygon fill="midnightblue" stroke="midnightblue" points="144.384,-282.083 154.451,-285.386 148.642,-276.526 144.384,-282.083"/>
</g>
<!-- Node11 -->
<g id="node21" class="node"><title>Node11</title>
<a xlink:href="../../df/dce/alarm_8c.xhtml#a98c2f38c8be9842b760af29757d87694" target="_top" xlink:title="star_long_pressed">
<polygon fill="white" stroke="black" points="120,-57.5 120,-76.5 216,-76.5 216,-57.5 120,-57.5"/>
<text text-anchor="middle" x="168" y="-64.5" font-family="Helvetica,sans-Serif" font-size="10.00">star_long_pressed</text>
</a>
</g>
<!-- Node1&#45;&gt;Node11 -->
<g id="edge20" class="edge"><title>Node1&#45;&gt;Node11</title>
<path fill="none" stroke="midnightblue" d="M51.9178,-190.435C72.6401,-168.209 124.288,-112.812 150.774,-84.4033"/>
<polygon fill="midnightblue" stroke="midnightblue" points="153.569,-86.5382 157.828,-76.8372 148.449,-81.7647 153.569,-86.5382"/>
</g>
<!-- Node16 -->
<g id="node31" class="node"><title>Node16</title>
<a xlink:href="../../df/dce/alarm_8c.xhtml#a7db846d88e6ebb4e4a72147a623593a5" target="_top" xlink:title="alarm_activated">
<polygon fill="white" stroke="black" points="125,-190.5 125,-209.5 211,-209.5 211,-190.5 125,-190.5"/>
<text text-anchor="middle" x="168" y="-197.5" font-family="Helvetica,sans-Serif" font-size="10.00">alarm_activated</text>
</a>
</g>
<!-- Node1&#45;&gt;Node16 -->
<g id="edge30" class="edge"><title>Node1&#45;&gt;Node16</title>
<path fill="none" stroke="midnightblue" d="M83.6022,-200C93.4554,-200 104.13,-200 114.448,-200"/>
<polygon fill="midnightblue" stroke="midnightblue" points="114.603,-203.5 124.603,-200 114.603,-196.5 114.603,-203.5"/>
</g>
<!-- Node18 -->
<g id="node37" class="node"><title>Node18</title>
<a xlink:href="../../df/dce/alarm_8c.xhtml#a392283ff1f270ab3890e54f026d0800f" target="_top" xlink:title="alarm_deactivated">
<polygon fill="white" stroke="black" points="120,-152.5 120,-171.5 216,-171.5 216,-152.5 120,-152.5"/>
<text text-anchor="middle" x="168" y="-159.5" font-family="Helvetica,sans-Serif" font-size="10.00">alarm_deactivated</text>
</a>
</g>
<!-- Node1&#45;&gt;Node18 -->
<g id="edge38" class="edge"><title>Node1&#45;&gt;Node18</title>
<path fill="none" stroke="midnightblue" d="M74.2904,-190.411C90.0039,-185.596 109.238,-179.701 126.106,-174.532"/>
<polygon fill="midnightblue" stroke="midnightblue" points="127.184,-177.862 135.72,-171.586 125.133,-171.17 127.184,-177.862"/>
</g>
<!-- Node4 -->
<g id="node7" class="node"><title>Node4</title>
<a xlink:href="../../d2/df2/openchronos_8c.xhtml#a5aeb07d7031b5d53ca8605bf398714a2" target="_top" xlink:title="Registers a node in the message bus.">
<polygon fill="white" stroke="black" points="257.5,-418.5 257.5,-437.5 388.5,-437.5 388.5,-418.5 257.5,-418.5"/>
<text text-anchor="middle" x="323" y="-425.5" font-family="Helvetica,sans-Serif" font-size="10.00">sys_messagebus_register</text>
</a>
</g>
<!-- Node3&#45;&gt;Node4 -->
<g id="edge6" class="edge"><title>Node3&#45;&gt;Node4</title>
<path fill="none" stroke="midnightblue" d="M202.971,-304.72C207.764,-307.176 212.307,-310.225 216,-314 247.575,-346.276 218.559,-378.661 252,-409 253.743,-410.581 255.604,-412.033 257.558,-413.365"/>
<polygon fill="midnightblue" stroke="midnightblue" points="256.198,-416.617 266.629,-418.477 259.635,-410.518 256.198,-416.617"/>
</g>
<!-- Node5 -->
<g id="node9" class="node"><title>Node5</title>
<a xlink:href="../../df/dce/alarm_8c.xhtml#aef665620bc5f0e8461604ae0f0891b11" target="_top" xlink:title="alarm_event">
<polygon fill="white" stroke="black" points="288,-380.5 288,-399.5 358,-399.5 358,-380.5 288,-380.5"/>
<text text-anchor="middle" x="323" y="-387.5" font-family="Helvetica,sans-Serif" font-size="10.00">alarm_event</text>
</a>
</g>
<!-- Node3&#45;&gt;Node5 -->
<g id="edge8" class="edge"><title>Node3&#45;&gt;Node5</title>
<path fill="none" stroke="midnightblue" d="M200.871,-304.709C206.258,-307.21 211.542,-310.276 216,-314 238.997,-333.207 227.9,-353.196 252,-371 259.587,-376.605 268.727,-380.556 277.862,-383.342"/>
<polygon fill="midnightblue" stroke="midnightblue" points="277.137,-386.771 287.698,-385.931 278.918,-380.001 277.137,-386.771"/>
</g>
<!-- Node6 -->
<g id="node11" class="node"><title>Node6</title>
<a xlink:href="../../d2/df2/openchronos_8c.xhtml#a60705ce0564ce52c1977a32cee3215c2" target="_top" xlink:title="Unregisters a node from the message bus.">
<polygon fill="white" stroke="black" points="252.5,-342.5 252.5,-361.5 393.5,-361.5 393.5,-342.5 252.5,-342.5"/>
<text text-anchor="middle" x="323" y="-349.5" font-family="Helvetica,sans-Serif" font-size="10.00">sys_messagebus_unregister</text>
</a>
</g>
<!-- Node3&#45;&gt;Node6 -->
<g id="edge10" class="edge"><title>Node3&#45;&gt;Node6</title>
<path fill="none" stroke="midnightblue" d="M192.696,-304.569C213.04,-312.756 240.802,-323.857 252,-328 262.135,-331.75 273.168,-335.627 283.413,-339.142"/>
<polygon fill="midnightblue" stroke="midnightblue" points="282.346,-342.476 292.94,-342.386 284.602,-335.849 282.346,-342.476"/>
</g>
<!-- Node7 -->
<g id="node13" class="node"><title>Node7</title>
<a xlink:href="../../db/d85/display_8c.xhtml#af604e78dcc4e0f1a204b2180c5e54957" target="_top" xlink:title="Displays a symbol.">
<polygon fill="white" stroke="black" points="430,-190.5 430,-209.5 514,-209.5 514,-190.5 430,-190.5"/>
<text text-anchor="middle" x="472" y="-197.5" font-family="Helvetica,sans-Serif" font-size="10.00">display_symbol</text>
</a>
</g>
<!-- Node3&#45;&gt;Node7 -->
<g id="edge12" class="edge"><title>Node3&#45;&gt;Node7</title>
<path fill="none" stroke="midnightblue" d="M205.783,-304.254C252.161,-313.915 333.175,-323.995 394,-295 427.054,-279.243 450.52,-241.596 462.314,-218.707"/>
<polygon fill="midnightblue" stroke="midnightblue" points="465.504,-220.152 466.777,-209.634 459.223,-217.063 465.504,-220.152"/>
</g>
<!-- Node9 -->
<g id="node17" class="node"><title>Node9</title>
<a xlink:href="../../d4/d9d/rtca_8c.xhtml#a2b32ba853a3e2aeafb8b9b6903a00ff0" target="_top" xlink:title="rtca_enable_alarm">
<polygon fill="white" stroke="black" points="275,-266.5 275,-285.5 371,-285.5 371,-266.5 275,-266.5"/>
<text text-anchor="middle" x="323" y="-273.5" font-family="Helvetica,sans-Serif" font-size="10.00">rtca_enable_alarm</text>
</a>
</g>
<!-- Node3&#45;&gt;Node9 -->
<g id="edge16" class="edge"><title>Node3&#45;&gt;Node9</title>
<path fill="none" stroke="midnightblue" d="M205.647,-290.449C223.339,-288.252 244.976,-285.565 264.771,-283.107"/>
<polygon fill="midnightblue" stroke="midnightblue" points="265.432,-286.552 274.924,-281.846 264.569,-279.605 265.432,-286.552"/>
</g>
<!-- Node10 -->
<g id="node19" class="node"><title>Node10</title>
<a xlink:href="../../d4/d9d/rtca_8c.xhtml#a9efdfe5536e269e564ccd6705967f851" target="_top" xlink:title="rtca_disable_alarm">
<polygon fill="white" stroke="black" points="274,-228.5 274,-247.5 372,-247.5 372,-228.5 274,-228.5"/>
<text text-anchor="middle" x="323" y="-235.5" font-family="Helvetica,sans-Serif" font-size="10.00">rtca_disable_alarm</text>
</a>
</g>
<!-- Node3&#45;&gt;Node10 -->
<g id="edge18" class="edge"><title>Node3&#45;&gt;Node10</title>
<path fill="none" stroke="midnightblue" d="M187.75,-285.339C204.335,-277.056 229.348,-265.197 252,-257 258.524,-254.639 265.482,-252.415 272.385,-250.377"/>
<polygon fill="midnightblue" stroke="midnightblue" points="273.739,-253.631 282.402,-247.531 271.826,-246.897 273.739,-253.631"/>
</g>
<!-- Node8 -->
<g id="node15" class="node"><title>Node8</title>
<a xlink:href="../../db/d85/display_8c.xhtml#a710739913e8ea1b71dd433b8311211fd" target="_top" xlink:title="write_lcd_mem">
<polygon fill="white" stroke="black" points="762.5,-171.5 762.5,-190.5 845.5,-190.5 845.5,-171.5 762.5,-171.5"/>
<text text-anchor="middle" x="804" y="-178.5" font-family="Helvetica,sans-Serif" font-size="10.00">write_lcd_mem</text>
</a>
</g>
<!-- Node7&#45;&gt;Node8 -->
<g id="edge14" class="edge"><title>Node7&#45;&gt;Node8</title>
<path fill="none" stroke="midnightblue" d="M514.127,-197.632C574.481,-194.157 686.942,-187.682 752.318,-183.918"/>
<polygon fill="midnightblue" stroke="midnightblue" points="752.609,-187.407 762.391,-183.338 752.206,-180.419 752.609,-187.407"/>
</g>
<!-- Node12 -->
<g id="node23" class="node"><title>Node12</title>
<a xlink:href="../../d4/d9d/rtca_8c.xhtml#a4a9416bb8eed18b589af594abff8d051" target="_top" xlink:title="rtca_get_alarm">
<polygon fill="white" stroke="black" points="431.5,-95.5 431.5,-114.5 512.5,-114.5 512.5,-95.5 431.5,-95.5"/>
<text text-anchor="middle" x="472" y="-102.5" font-family="Helvetica,sans-Serif" font-size="10.00">rtca_get_alarm</text>
</a>
</g>
<!-- Node11&#45;&gt;Node12 -->
<g id="edge22" class="edge"><title>Node11&#45;&gt;Node12</title>
<path fill="none" stroke="midnightblue" d="M216.188,-72.9375C271.941,-79.9529 364.293,-91.5732 421.172,-98.7303"/>
<polygon fill="midnightblue" stroke="midnightblue" points="421.005,-102.237 431.364,-100.013 421.879,-95.2915 421.005,-102.237"/>
</g>
<!-- Node13 -->
<g id="node25" class="node"><title>Node13</title>
<a xlink:href="../../d2/df2/openchronos_8c.xhtml#afb7a89cc8739b9788a27e80d8b0d90e9" target="_top" xlink:title="Enters edit mode.">
<polygon fill="white" stroke="black" points="268,-38.5 268,-57.5 378,-57.5 378,-38.5 268,-38.5"/>
<text text-anchor="middle" x="323" y="-45.5" font-family="Helvetica,sans-Serif" font-size="10.00">menu_editmode_start</text>
</a>
</g>
<!-- Node11&#45;&gt;Node13 -->
<g id="edge24" class="edge"><title>Node11&#45;&gt;Node13</title>
<path fill="none" stroke="midnightblue" d="M216.153,-61.1443C229.295,-59.5124 243.799,-57.7113 257.745,-55.9794"/>
<polygon fill="midnightblue" stroke="midnightblue" points="258.281,-59.4398 267.774,-54.734 257.418,-52.4931 258.281,-59.4398"/>
</g>
<!-- Node14 -->
<g id="node27" class="node"><title>Node14</title>
<a xlink:href="../../df/dce/alarm_8c.xhtml#ac11d2dfb4c4ae0e8458aea46b10f7f49" target="_top" xlink:title="edit_save">
<polygon fill="white" stroke="black" points="293.5,-0.5 293.5,-19.5 352.5,-19.5 352.5,-0.5 293.5,-0.5"/>
<text text-anchor="middle" x="323" y="-7.5" font-family="Helvetica,sans-Serif" font-size="10.00">edit_save</text>
</a>
</g>
<!-- Node11&#45;&gt;Node14 -->
<g id="edge26" class="edge"><title>Node11&#45;&gt;Node14</title>
<path fill="none" stroke="midnightblue" d="M187.75,-57.3394C204.335,-49.0562 229.348,-37.1966 252,-29 262.035,-25.3687 273.098,-22.0593 283.408,-19.2568"/>
<polygon fill="midnightblue" stroke="midnightblue" points="284.619,-22.5573 293.401,-16.63 282.84,-15.7873 284.619,-22.5573"/>
</g>
<!-- Node15 -->
<g id="node29" class="node"><title>Node15</title>
<a xlink:href="../../d4/d9d/rtca_8c.xhtml#a6b57069256e25073819ab5c2cf2ba927" target="_top" xlink:title="rtca_set_alarm">
<polygon fill="white" stroke="black" points="431.5,-0.5 431.5,-19.5 512.5,-19.5 512.5,-0.5 431.5,-0.5"/>
<text text-anchor="middle" x="472" y="-7.5" font-family="Helvetica,sans-Serif" font-size="10.00">rtca_set_alarm</text>
</a>
</g>
<!-- Node14&#45;&gt;Node15 -->
<g id="edge28" class="edge"><title>Node14&#45;&gt;Node15</title>
<path fill="none" stroke="midnightblue" d="M352.692,-10C372.111,-10 398.277,-10 421.064,-10"/>
<polygon fill="midnightblue" stroke="midnightblue" points="421.259,-13.5001 431.259,-10 421.259,-6.5001 421.259,-13.5001"/>
</g>
<!-- Node16&#45;&gt;Node7 -->
<g id="edge32" class="edge"><title>Node16&#45;&gt;Node7</title>
<path fill="none" stroke="midnightblue" d="M211.31,-200C265.98,-200 361.088,-200 419.782,-200"/>
<polygon fill="midnightblue" stroke="midnightblue" points="419.944,-203.5 429.944,-200 419.944,-196.5 419.944,-203.5"/>
</g>
<!-- Node17 -->
<g id="node34" class="node"><title>Node17</title>
<a xlink:href="../../df/dce/alarm_8c.xhtml#ab2bf7cdad42dbea9164cc8e6c8fa3650" target="_top" xlink:title="refresh_screen">
<polygon fill="white" stroke="black" points="282.5,-114.5 282.5,-133.5 363.5,-133.5 363.5,-114.5 282.5,-114.5"/>
<text text-anchor="middle" x="323" y="-121.5" font-family="Helvetica,sans-Serif" font-size="10.00">refresh_screen</text>
</a>
</g>
<!-- Node16&#45;&gt;Node17 -->
<g id="edge34" class="edge"><title>Node16&#45;&gt;Node17</title>
<path fill="none" stroke="midnightblue" d="M198.329,-190.407C204.421,-187.803 210.618,-184.668 216,-181 235.223,-167.897 232.031,-154.936 252,-143 258.316,-139.225 265.397,-136.183 272.563,-133.736"/>
<polygon fill="midnightblue" stroke="midnightblue" points="273.782,-137.024 282.325,-130.756 271.739,-130.329 273.782,-137.024"/>
</g>
<!-- Node17&#45;&gt;Node12 -->
<g id="edge36" class="edge"><title>Node17&#45;&gt;Node12</title>
<path fill="none" stroke="midnightblue" d="M363.78,-118.858C381.501,-116.568 402.56,-113.846 421.304,-111.423"/>
<polygon fill="midnightblue" stroke="midnightblue" points="421.974,-114.866 431.443,-110.113 421.077,-107.924 421.974,-114.866"/>
</g>
<!-- Node19 -->
<g id="node39" class="node"><title>Node19</title>
<a xlink:href="../../db/d85/display_8c.xhtml#aa150336a018e90f37fd0285047b541f6" target="_top" xlink:title="Clears the screen.">
<polygon fill="white" stroke="black" points="286,-152.5 286,-171.5 360,-171.5 360,-152.5 286,-152.5"/>
<text text-anchor="middle" x="323" y="-159.5" font-family="Helvetica,sans-Serif" font-size="10.00">display_clear</text>
</a>
</g>
<!-- Node18&#45;&gt;Node19 -->
<g id="edge40" class="edge"><title>Node18&#45;&gt;Node19</title>
<path fill="none" stroke="midnightblue" d="M216.153,-162C235.119,-162 256.921,-162 275.79,-162"/>
<polygon fill="midnightblue" stroke="midnightblue" points="275.935,-165.5 285.935,-162 275.935,-158.5 275.935,-165.5"/>
</g>
<!-- Node19&#45;&gt;Node7 -->
<g id="edge50" class="edge"><title>Node19&#45;&gt;Node7</title>
<path fill="none" stroke="midnightblue" d="M360.337,-171.393C379.626,-176.38 403.55,-182.564 424.213,-187.905"/>
<polygon fill="midnightblue" stroke="midnightblue" points="423.502,-191.337 434.06,-190.451 425.254,-184.559 423.502,-191.337"/>
</g>
<!-- Node20 -->
<g id="node41" class="node"><title>Node20</title>
<a xlink:href="../../db/d85/display_8c.xhtml#a6f2d5cdda31a73b43a569cb3d1a64165" target="_top" xlink:title="Displays several consecutive characters.">
<polygon fill="white" stroke="black" points="433.5,-152.5 433.5,-171.5 510.5,-171.5 510.5,-152.5 433.5,-152.5"/>
<text text-anchor="middle" x="472" y="-159.5" font-family="Helvetica,sans-Serif" font-size="10.00">display_chars</text>
</a>
</g>
<!-- Node19&#45;&gt;Node20 -->
<g id="edge42" class="edge"><title>Node19&#45;&gt;Node20</title>
<path fill="none" stroke="midnightblue" d="M360.337,-162C379.32,-162 402.792,-162 423.227,-162"/>
<polygon fill="midnightblue" stroke="midnightblue" points="423.289,-165.5 433.289,-162 423.288,-158.5 423.289,-165.5"/>
</g>
<!-- Node21 -->
<g id="node43" class="node"><title>Node21</title>
<a xlink:href="../../db/d85/display_8c.xhtml#a3ae30196af91197037d50cb49de1d109" target="_top" xlink:title="Displays a single character.">
<polygon fill="white" stroke="black" points="550.5,-152.5 550.5,-171.5 621.5,-171.5 621.5,-152.5 550.5,-152.5"/>
<text text-anchor="middle" x="586" y="-159.5" font-family="Helvetica,sans-Serif" font-size="10.00">display_char</text>
</a>
</g>
<!-- Node20&#45;&gt;Node21 -->
<g id="edge44" class="edge"><title>Node20&#45;&gt;Node21</title>
<path fill="none" stroke="midnightblue" d="M510.606,-162C520.133,-162 530.46,-162 540.301,-162"/>
<polygon fill="midnightblue" stroke="midnightblue" points="540.326,-165.5 550.326,-162 540.326,-158.5 540.326,-165.5"/>
</g>
<!-- Node22 -->
<g id="node45" class="node"><title>Node22</title>
<a xlink:href="../../db/d85/display_8c.xhtml#a9275035317878022cf9eacf6b0a5be72" target="_top" xlink:title="Display a custom collection of segments.">
<polygon fill="white" stroke="black" points="658,-152.5 658,-171.5 726,-171.5 726,-152.5 658,-152.5"/>
<text text-anchor="middle" x="692" y="-159.5" font-family="Helvetica,sans-Serif" font-size="10.00">display_bits</text>
</a>
</g>
<!-- Node21&#45;&gt;Node22 -->
<g id="edge46" class="edge"><title>Node21&#45;&gt;Node22</title>
<path fill="none" stroke="midnightblue" d="M621.63,-162C630.04,-162 639.133,-162 647.882,-162"/>
<polygon fill="midnightblue" stroke="midnightblue" points="647.931,-165.5 657.931,-162 647.931,-158.5 647.931,-165.5"/>
</g>
<!-- Node22&#45;&gt;Node8 -->
<g id="edge48" class="edge"><title>Node22&#45;&gt;Node8</title>
<path fill="none" stroke="midnightblue" d="M726.004,-167.701C734.28,-169.13 743.352,-170.697 752.273,-172.238"/>
<polygon fill="midnightblue" stroke="midnightblue" points="751.781,-175.705 762.231,-173.958 752.972,-168.807 751.781,-175.705"/>
</g>
</g>
</svg>
