<?xml version="1.0" encoding="UTF-8" standalone="no"?>
<!DOCTYPE svg PUBLIC "-//W3C//DTD SVG 1.1//EN"
 "http://www.w3.org/Graphics/SVG/1.1/DTD/svg11.dtd">
<!-- Generated by graphviz version 2.28.0 (20121221.0049)
 -->
<!-- Title: num_pressed Pages: 1 -->
<svg width="382pt" height="218pt"
 viewBox="0.00 0.00 382.00 218.00" xmlns="http://www.w3.org/2000/svg" xmlns:xlink="http://www.w3.org/1999/xlink">
<g id="graph1" class="graph" transform="scale(1 1) rotate(0) translate(4 214)">
<title>num_pressed</title>
<polygon fill="white" stroke="white" points="-4,5 -4,-214 379,-214 379,5 -4,5"/>
<!-- Node1 -->
<g id="node1" class="node"><title>Node1</title>
<polygon fill="#bfbfbf" stroke="black" points="0.5,-95.5 0.5,-114.5 75.5,-114.5 75.5,-95.5 0.5,-95.5"/>
<text text-anchor="middle" x="38" y="-102.5" font-family="Helvetica,sans-Serif" font-size="10.00">num_pressed</text>
</g>
<!-- Node2 -->
<g id="node3" class="node"><title>Node2</title>
<a xlink:href="../../d2/df2/openchronos_8c.xhtml#a5aeb07d7031b5d53ca8605bf398714a2" target="_top" xlink:title="Registers a node in the message bus.">
<polygon fill="white" stroke="black" points="117.5,-190.5 117.5,-209.5 248.5,-209.5 248.5,-190.5 117.5,-190.5"/>
<text text-anchor="middle" x="183" y="-197.5" font-family="Helvetica,sans-Serif" font-size="10.00">sys_messagebus_register</text>
</a>
</g>
<!-- Node1&#45;&gt;Node2 -->
<g id="edge2" class="edge"><title>Node1&#45;&gt;Node2</title>
<path fill="none" stroke="midnightblue" d="M45.4536,-114.525C56.9142,-130.692 82.4161,-163.456 112,-181 115.655,-183.168 119.564,-185.094 123.595,-186.805"/>
<polygon fill="midnightblue" stroke="midnightblue" points="122.57,-190.16 133.161,-190.419 125.043,-183.611 122.57,-190.16"/>
</g>
<!-- Node3 -->
<g id="node5" class="node"><title>Node3</title>
<a xlink:href="../../df/dce/alarm_8c.xhtml#aef665620bc5f0e8461604ae0f0891b11" target="_top" xlink:title="alarm_event">
<polygon fill="white" stroke="black" points="148,-152.5 148,-171.5 218,-171.5 218,-152.5 148,-152.5"/>
<text text-anchor="middle" x="183" y="-159.5" font-family="Helvetica,sans-Serif" font-size="10.00">alarm_event</text>
</a>
</g>
<!-- Node1&#45;&gt;Node3 -->
<g id="edge4" class="edge"><title>Node1&#45;&gt;Node3</title>
<path fill="none" stroke="midnightblue" d="M55.0543,-114.641C69.5404,-123.025 91.6387,-135.044 112,-143 120.266,-146.23 129.286,-149.121 138.019,-151.616"/>
<polygon fill="midnightblue" stroke="midnightblue" points="137.131,-155.002 147.7,-154.261 138.976,-148.249 137.131,-155.002"/>
</g>
<!-- Node4 -->
<g id="node7" class="node"><title>Node4</title>
<a xlink:href="../../d2/df2/openchronos_8c.xhtml#a60705ce0564ce52c1977a32cee3215c2" target="_top" xlink:title="Unregisters a node from the message bus.">
<polygon fill="white" stroke="black" points="112.5,-114.5 112.5,-133.5 253.5,-133.5 253.5,-114.5 112.5,-114.5"/>
<text text-anchor="middle" x="183" y="-121.5" font-family="Helvetica,sans-Serif" font-size="10.00">sys_messagebus_unregister</text>
</a>
</g>
<!-- Node1&#45;&gt;Node4 -->
<g id="edge6" class="edge"><title>Node1&#45;&gt;Node4</title>
<path fill="none" stroke="midnightblue" d="M75.8261,-109.893C84.0303,-110.983 93.0382,-112.18 102.231,-113.401"/>
<polygon fill="midnightblue" stroke="midnightblue" points="101.875,-116.885 112.249,-114.732 102.797,-109.946 101.875,-116.885"/>
</g>
<!-- Node5 -->
<g id="node9" class="node"><title>Node5</title>
<a xlink:href="../../db/d85/display_8c.xhtml#af604e78dcc4e0f1a204b2180c5e54957" target="_top" xlink:title="Displays a symbol.">
<polygon fill="white" stroke="black" points="141,-76.5 141,-95.5 225,-95.5 225,-76.5 141,-76.5"/>
<text text-anchor="middle" x="183" y="-83.5" font-family="Helvetica,sans-Serif" font-size="10.00">display_symbol</text>
</a>
</g>
<!-- Node1&#45;&gt;Node5 -->
<g id="edge8" class="edge"><title>Node1&#45;&gt;Node5</title>
<path fill="none" stroke="midnightblue" d="M75.8261,-100.107C92.5061,-97.8908 112.508,-95.2332 130.631,-92.8252"/>
<polygon fill="midnightblue" stroke="midnightblue" points="131.307,-96.2663 140.758,-91.4797 130.385,-89.3273 131.307,-96.2663"/>
</g>
<!-- Node7 -->
<g id="node13" class="node"><title>Node7</title>
<a xlink:href="../../d4/d9d/rtca_8c.xhtml#a2b32ba853a3e2aeafb8b9b6903a00ff0" target="_top" xlink:title="rtca_enable_alarm">
<polygon fill="white" stroke="black" points="135,-38.5 135,-57.5 231,-57.5 231,-38.5 135,-38.5"/>
<text text-anchor="middle" x="183" y="-45.5" font-family="Helvetica,sans-Serif" font-size="10.00">rtca_enable_alarm</text>
</a>
</g>
<!-- Node1&#45;&gt;Node7 -->
<g id="edge12" class="edge"><title>Node1&#45;&gt;Node7</title>
<path fill="none" stroke="midnightblue" d="M55.0543,-95.3594C69.5404,-86.9754 91.6387,-74.9559 112,-67 118.004,-64.6541 124.405,-62.4867 130.805,-60.5202"/>
<polygon fill="midnightblue" stroke="midnightblue" points="132.187,-63.7629 140.804,-57.5986 130.224,-57.0438 132.187,-63.7629"/>
</g>
<!-- Node8 -->
<g id="node15" class="node"><title>Node8</title>
<a xlink:href="../../d4/d9d/rtca_8c.xhtml#a9efdfe5536e269e564ccd6705967f851" target="_top" xlink:title="rtca_disable_alarm">
<polygon fill="white" stroke="black" points="134,-0.5 134,-19.5 232,-19.5 232,-0.5 134,-0.5"/>
<text text-anchor="middle" x="183" y="-7.5" font-family="Helvetica,sans-Serif" font-size="10.00">rtca_disable_alarm</text>
</a>
</g>
<!-- Node1&#45;&gt;Node8 -->
<g id="edge14" class="edge"><title>Node1&#45;&gt;Node8</title>
<path fill="none" stroke="midnightblue" d="M45.4536,-95.4754C56.9142,-79.3078 82.4161,-46.5444 112,-29 115.882,-26.6977 120.05,-24.6676 124.346,-22.8786"/>
<polygon fill="midnightblue" stroke="midnightblue" points="125.74,-26.0949 133.898,-19.3354 123.305,-19.5318 125.74,-26.0949"/>
</g>
<!-- Node6 -->
<g id="node11" class="node"><title>Node6</title>
<a xlink:href="../../db/d85/display_8c.xhtml#a710739913e8ea1b71dd433b8311211fd" target="_top" xlink:title="write_lcd_mem">
<polygon fill="white" stroke="black" points="290.5,-76.5 290.5,-95.5 373.5,-95.5 373.5,-76.5 290.5,-76.5"/>
<text text-anchor="middle" x="332" y="-83.5" font-family="Helvetica,sans-Serif" font-size="10.00">write_lcd_mem</text>
</a>
</g>
<!-- Node5&#45;&gt;Node6 -->
<g id="edge10" class="edge"><title>Node5&#45;&gt;Node6</title>
<path fill="none" stroke="midnightblue" d="M225.339,-86C242.456,-86 262.471,-86 280.45,-86"/>
<polygon fill="midnightblue" stroke="midnightblue" points="280.479,-89.5001 290.479,-86 280.479,-82.5001 280.479,-89.5001"/>
</g>
</g>
</svg>
