<?xml version="1.0" encoding="UTF-8" standalone="no"?>
<!DOCTYPE svg PUBLIC "-//W3C//DTD SVG 1.1//EN"
 "http://www.w3.org/Graphics/SVG/1.1/DTD/svg11.dtd">
<!-- Generated by graphviz version 2.28.0 (20121221.0049)
 -->
<!-- Title: star_long_pressed Pages: 1 -->
<svg width="368pt" height="104pt"
 viewBox="0.00 0.00 368.00 104.00" xmlns="http://www.w3.org/2000/svg" xmlns:xlink="http://www.w3.org/1999/xlink">
<g id="graph1" class="graph" transform="scale(1 1) rotate(0) translate(4 100)">
<title>star_long_pressed</title>
<polygon fill="white" stroke="white" points="-4,5 -4,-100 365,-100 365,5 -4,5"/>
<!-- Node1 -->
<g id="node1" class="node"><title>Node1</title>
<polygon fill="#bfbfbf" stroke="black" points="0,-38.5 0,-57.5 96,-57.5 96,-38.5 0,-38.5"/>
<text text-anchor="middle" x="48" y="-45.5" font-family="Helvetica,sans-Serif" font-size="10.00">star_long_pressed</text>
</g>
<!-- Node2 -->
<g id="node3" class="node"><title>Node2</title>
<a xlink:href="../../d4/d9d/rtca_8c.xhtml#a4a9416bb8eed18b589af594abff8d051" target="_top" xlink:title="rtca_get_alarm">
<polygon fill="white" stroke="black" points="146.5,-76.5 146.5,-95.5 227.5,-95.5 227.5,-76.5 146.5,-76.5"/>
<text text-anchor="middle" x="187" y="-83.5" font-family="Helvetica,sans-Serif" font-size="10.00">rtca_get_alarm</text>
</a>
</g>
<!-- Node1&#45;&gt;Node2 -->
<g id="edge2" class="edge"><title>Node1&#45;&gt;Node2</title>
<path fill="none" stroke="midnightblue" d="M83.5709,-57.589C101.175,-62.4719 122.779,-68.4643 141.601,-73.685"/>
<polygon fill="midnightblue" stroke="midnightblue" points="140.868,-77.1138 151.44,-76.4141 142.739,-70.3685 140.868,-77.1138"/>
</g>
<!-- Node3 -->
<g id="node5" class="node"><title>Node3</title>
<a xlink:href="../../d2/df2/openchronos_8c.xhtml#afb7a89cc8739b9788a27e80d8b0d90e9" target="_top" xlink:title="Enters edit mode.">
<polygon fill="white" stroke="black" points="132,-38.5 132,-57.5 242,-57.5 242,-38.5 132,-38.5"/>
<text text-anchor="middle" x="187" y="-45.5" font-family="Helvetica,sans-Serif" font-size="10.00">menu_editmode_start</text>
</a>
</g>
<!-- Node1&#45;&gt;Node3 -->
<g id="edge4" class="edge"><title>Node1&#45;&gt;Node3</title>
<path fill="none" stroke="midnightblue" d="M96.1476,-48C104.381,-48 113.072,-48 121.675,-48"/>
<polygon fill="midnightblue" stroke="midnightblue" points="121.7,-51.5001 131.7,-48 121.7,-44.5001 121.7,-51.5001"/>
</g>
<!-- Node4 -->
<g id="node7" class="node"><title>Node4</title>
<a xlink:href="../../df/dce/alarm_8c.xhtml#ac11d2dfb4c4ae0e8458aea46b10f7f49" target="_top" xlink:title="edit_save">
<polygon fill="white" stroke="black" points="157.5,-0.5 157.5,-19.5 216.5,-19.5 216.5,-0.5 157.5,-0.5"/>
<text text-anchor="middle" x="187" y="-7.5" font-family="Helvetica,sans-Serif" font-size="10.00">edit_save</text>
</a>
</g>
<!-- Node1&#45;&gt;Node4 -->
<g id="edge6" class="edge"><title>Node1&#45;&gt;Node4</title>
<path fill="none" stroke="midnightblue" d="M83.5709,-38.411C103.1,-32.994 127.553,-26.2117 147.668,-20.6323"/>
<polygon fill="midnightblue" stroke="midnightblue" points="148.746,-23.9653 157.447,-17.9198 146.875,-17.22 148.746,-23.9653"/>
</g>
<!-- Node5 -->
<g id="node9" class="node"><title>Node5</title>
<a xlink:href="../../d4/d9d/rtca_8c.xhtml#a6b57069256e25073819ab5c2cf2ba927" target="_top" xlink:title="rtca_set_alarm">
<polygon fill="white" stroke="black" points="278.5,-0.5 278.5,-19.5 359.5,-19.5 359.5,-0.5 278.5,-0.5"/>
<text text-anchor="middle" x="319" y="-7.5" font-family="Helvetica,sans-Serif" font-size="10.00">rtca_set_alarm</text>
</a>
</g>
<!-- Node4&#45;&gt;Node5 -->
<g id="edge8" class="edge"><title>Node4&#45;&gt;Node5</title>
<path fill="none" stroke="midnightblue" d="M216.529,-10C231.649,-10 250.662,-10 268.131,-10"/>
<polygon fill="midnightblue" stroke="midnightblue" points="268.197,-13.5001 278.197,-10 268.197,-6.5001 268.197,-13.5001"/>
</g>
</g>
</svg>
