<?xml version="1.0" encoding="UTF-8" standalone="no"?>
<!DOCTYPE svg PUBLIC "-//W3C//DTD SVG 1.1//EN"
 "http://www.w3.org/Graphics/SVG/1.1/DTD/svg11.dtd">
<!-- Generated by graphviz version 2.28.0 (20121221.0049)
 -->
<!-- Title: alarm_activated Pages: 1 -->
<svg width="334pt" height="66pt"
 viewBox="0.00 0.00 334.00 66.00" xmlns="http://www.w3.org/2000/svg" xmlns:xlink="http://www.w3.org/1999/xlink">
<g id="graph1" class="graph" transform="scale(1 1) rotate(0) translate(4 62)">
<title>alarm_activated</title>
<polygon fill="white" stroke="white" points="-4,5 -4,-62 331,-62 331,5 -4,5"/>
<!-- Node1 -->
<g id="node1" class="node"><title>Node1</title>
<polygon fill="#bfbfbf" stroke="black" points="0,-19.5 0,-38.5 86,-38.5 86,-19.5 0,-19.5"/>
<text text-anchor="middle" x="43" y="-26.5" font-family="Helvetica,sans-Serif" font-size="10.00">alarm_activated</text>
</g>
<!-- Node2 -->
<g id="node3" class="node"><title>Node2</title>
<a xlink:href="../../db/d85/display_8c.xhtml#af604e78dcc4e0f1a204b2180c5e54957" target="_top" xlink:title="Displays a symbol.">
<polygon fill="white" stroke="black" points="122,-38.5 122,-57.5 206,-57.5 206,-38.5 122,-38.5"/>
<text text-anchor="middle" x="164" y="-45.5" font-family="Helvetica,sans-Serif" font-size="10.00">display_symbol</text>
</a>
</g>
<!-- Node1&#45;&gt;Node2 -->
<g id="edge2" class="edge"><title>Node1&#45;&gt;Node2</title>
<path fill="none" stroke="midnightblue" d="M86.29,-35.7522C94.459,-37.0565 103.101,-38.4364 111.525,-39.7814"/>
<polygon fill="midnightblue" stroke="midnightblue" points="111.219,-43.2767 121.646,-41.3972 112.323,-36.3642 111.219,-43.2767"/>
</g>
<!-- Node4 -->
<g id="node7" class="node"><title>Node4</title>
<a xlink:href="../../df/dce/alarm_8c.xhtml#ab2bf7cdad42dbea9164cc8e6c8fa3650" target="_top" xlink:title="refresh_screen">
<polygon fill="white" stroke="black" points="123.5,-0.5 123.5,-19.5 204.5,-19.5 204.5,-0.5 123.5,-0.5"/>
<text text-anchor="middle" x="164" y="-7.5" font-family="Helvetica,sans-Serif" font-size="10.00">refresh_screen</text>
</a>
</g>
<!-- Node1&#45;&gt;Node4 -->
<g id="edge6" class="edge"><title>Node1&#45;&gt;Node4</title>
<path fill="none" stroke="midnightblue" d="M86.29,-22.2478C95.0268,-20.8529 104.305,-19.3714 113.279,-17.9387"/>
<polygon fill="midnightblue" stroke="midnightblue" points="113.912,-21.382 123.235,-16.349 112.808,-14.4695 113.912,-21.382"/>
</g>
<!-- Node3 -->
<g id="node5" class="node"><title>Node3</title>
<a xlink:href="../../db/d85/display_8c.xhtml#a710739913e8ea1b71dd433b8311211fd" target="_top" xlink:title="write_lcd_mem">
<polygon fill="white" stroke="black" points="242.5,-38.5 242.5,-57.5 325.5,-57.5 325.5,-38.5 242.5,-38.5"/>
<text text-anchor="middle" x="284" y="-45.5" font-family="Helvetica,sans-Serif" font-size="10.00">write_lcd_mem</text>
</a>
</g>
<!-- Node2&#45;&gt;Node3 -->
<g id="edge4" class="edge"><title>Node2&#45;&gt;Node3</title>
<path fill="none" stroke="midnightblue" d="M206.271,-48C214.678,-48 223.615,-48 232.306,-48"/>
<polygon fill="midnightblue" stroke="midnightblue" points="232.35,-51.5001 242.35,-48 232.35,-44.5001 232.35,-51.5001"/>
</g>
<!-- Node5 -->
<g id="node9" class="node"><title>Node5</title>
<a xlink:href="../../d4/d9d/rtca_8c.xhtml#a4a9416bb8eed18b589af594abff8d051" target="_top" xlink:title="rtca_get_alarm">
<polygon fill="white" stroke="black" points="243.5,-0.5 243.5,-19.5 324.5,-19.5 324.5,-0.5 243.5,-0.5"/>
<text text-anchor="middle" x="284" y="-7.5" font-family="Helvetica,sans-Serif" font-size="10.00">rtca_get_alarm</text>
</a>
</g>
<!-- Node4&#45;&gt;Node5 -->
<g id="edge8" class="edge"><title>Node4&#45;&gt;Node5</title>
<path fill="none" stroke="midnightblue" d="M204.621,-10C213.766,-10 223.61,-10 233.13,-10"/>
<polygon fill="midnightblue" stroke="midnightblue" points="233.283,-13.5001 243.283,-10 233.283,-6.5001 233.283,-13.5001"/>
</g>
</g>
</svg>
