<?xml version="1.0" encoding="UTF-8" standalone="no"?>
<!DOCTYPE svg PUBLIC "-//W3C//DTD SVG 1.1//EN"
 "http://www.w3.org/Graphics/SVG/1.1/DTD/svg11.dtd">
<!-- Generated by graphviz version 2.28.0 (20121221.0049)
 -->
<!-- Title: battery_event Pages: 1 -->
<svg width="650pt" height="66pt"
 viewBox="0.00 0.00 650.00 66.00" xmlns="http://www.w3.org/2000/svg" xmlns:xlink="http://www.w3.org/1999/xlink">
<g id="graph1" class="graph" transform="scale(1 1) rotate(0) translate(4 62)">
<title>battery_event</title>
<polygon fill="white" stroke="white" points="-4,5 -4,-62 647,-62 647,5 -4,5"/>
<!-- Node1 -->
<g id="node1" class="node"><title>Node1</title>
<polygon fill="#bfbfbf" stroke="black" points="0,-19.5 0,-38.5 76,-38.5 76,-19.5 0,-19.5"/>
<text text-anchor="middle" x="38" y="-26.5" font-family="Helvetica,sans-Serif" font-size="10.00">battery_event</text>
</g>
<!-- Node2 -->
<g id="node3" class="node"><title>Node2</title>
<a xlink:href="../../d8/d7f/modules_2battery_8c.xhtml#ad4bcad30f03f9e6172885b718fd7cce3" target="_top" xlink:title="display_battery">
<polygon fill="white" stroke="black" points="112.5,-19.5 112.5,-38.5 195.5,-38.5 195.5,-19.5 112.5,-19.5"/>
<text text-anchor="middle" x="154" y="-26.5" font-family="Helvetica,sans-Serif" font-size="10.00">display_battery</text>
</a>
</g>
<!-- Node1&#45;&gt;Node2 -->
<g id="edge2" class="edge"><title>Node1&#45;&gt;Node2</title>
<path fill="none" stroke="midnightblue" d="M76.0125,-29C84.3303,-29 93.2982,-29 102.072,-29"/>
<polygon fill="midnightblue" stroke="midnightblue" points="102.232,-32.5001 112.232,-29 102.232,-25.5001 102.232,-32.5001"/>
</g>
<!-- Node3 -->
<g id="node5" class="node"><title>Node3</title>
<a xlink:href="../../db/d85/display_8c.xhtml#a6f2d5cdda31a73b43a569cb3d1a64165" target="_top" xlink:title="Displays several consecutive characters.">
<polygon fill="white" stroke="black" points="232.5,-38.5 232.5,-57.5 309.5,-57.5 309.5,-38.5 232.5,-38.5"/>
<text text-anchor="middle" x="271" y="-45.5" font-family="Helvetica,sans-Serif" font-size="10.00">display_chars</text>
</a>
</g>
<!-- Node2&#45;&gt;Node3 -->
<g id="edge4" class="edge"><title>Node2&#45;&gt;Node3</title>
<path fill="none" stroke="midnightblue" d="M195.545,-35.6987C204.097,-37.1116 213.199,-38.6154 221.995,-40.0688"/>
<polygon fill="midnightblue" stroke="midnightblue" points="221.694,-43.5664 232.131,-41.7433 222.835,-36.66 221.694,-43.5664"/>
</g>
<!-- Node7 -->
<g id="node13" class="node"><title>Node7</title>
<a xlink:href="../../db/d85/display_8c.xhtml#aa537e9d11d9d4e32a82dc123616c68b2" target="_top" xlink:title="Converts an integer from a range into a percent string between 0 and 100.">
<polygon fill="white" stroke="black" points="248,-0.5 248,-19.5 294,-19.5 294,-0.5 248,-0.5"/>
<text text-anchor="middle" x="271" y="-7.5" font-family="Helvetica,sans-Serif" font-size="10.00">_itopct</text>
</a>
</g>
<!-- Node2&#45;&gt;Node7 -->
<g id="edge12" class="edge"><title>Node2&#45;&gt;Node7</title>
<path fill="none" stroke="midnightblue" d="M195.545,-22.3013C209.424,-20.0083 224.75,-17.4761 237.872,-15.3082"/>
<polygon fill="midnightblue" stroke="midnightblue" points="238.557,-18.7425 247.852,-13.6592 237.416,-11.8361 238.557,-18.7425"/>
</g>
<!-- Node4 -->
<g id="node7" class="node"><title>Node4</title>
<a xlink:href="../../db/d85/display_8c.xhtml#a3ae30196af91197037d50cb49de1d109" target="_top" xlink:title="Displays a single character.">
<polygon fill="white" stroke="black" points="346.5,-38.5 346.5,-57.5 417.5,-57.5 417.5,-38.5 346.5,-38.5"/>
<text text-anchor="middle" x="382" y="-45.5" font-family="Helvetica,sans-Serif" font-size="10.00">display_char</text>
</a>
</g>
<!-- Node3&#45;&gt;Node4 -->
<g id="edge6" class="edge"><title>Node3&#45;&gt;Node4</title>
<path fill="none" stroke="midnightblue" d="M309.512,-48C318.098,-48 327.31,-48 336.17,-48"/>
<polygon fill="midnightblue" stroke="midnightblue" points="336.35,-51.5001 346.35,-48 336.35,-44.5001 336.35,-51.5001"/>
</g>
<!-- Node5 -->
<g id="node9" class="node"><title>Node5</title>
<a xlink:href="../../db/d85/display_8c.xhtml#a9275035317878022cf9eacf6b0a5be72" target="_top" xlink:title="Display a custom collection of segments.">
<polygon fill="white" stroke="black" points="454,-38.5 454,-57.5 522,-57.5 522,-38.5 454,-38.5"/>
<text text-anchor="middle" x="488" y="-45.5" font-family="Helvetica,sans-Serif" font-size="10.00">display_bits</text>
</a>
</g>
<!-- Node4&#45;&gt;Node5 -->
<g id="edge8" class="edge"><title>Node4&#45;&gt;Node5</title>
<path fill="none" stroke="midnightblue" d="M417.63,-48C426.04,-48 435.133,-48 443.882,-48"/>
<polygon fill="midnightblue" stroke="midnightblue" points="443.931,-51.5001 453.931,-48 443.931,-44.5001 443.931,-51.5001"/>
</g>
<!-- Node6 -->
<g id="node11" class="node"><title>Node6</title>
<a xlink:href="../../db/d85/display_8c.xhtml#a710739913e8ea1b71dd433b8311211fd" target="_top" xlink:title="write_lcd_mem">
<polygon fill="white" stroke="black" points="558.5,-38.5 558.5,-57.5 641.5,-57.5 641.5,-38.5 558.5,-38.5"/>
<text text-anchor="middle" x="600" y="-45.5" font-family="Helvetica,sans-Serif" font-size="10.00">write_lcd_mem</text>
</a>
</g>
<!-- Node5&#45;&gt;Node6 -->
<g id="edge10" class="edge"><title>Node5&#45;&gt;Node6</title>
<path fill="none" stroke="midnightblue" d="M522.004,-48C530.191,-48 539.157,-48 547.985,-48"/>
<polygon fill="midnightblue" stroke="midnightblue" points="548.231,-51.5001 558.231,-48 548.231,-44.5001 548.231,-51.5001"/>
</g>
<!-- Node8 -->
<g id="node15" class="node"><title>Node8</title>
<a xlink:href="../../db/d85/display_8c.xhtml#a9047d98cd15ffbc79e15c63fca36d70b" target="_top" xlink:title="pseudo sprintf function">
<polygon fill="white" stroke="black" points="357.5,-0.5 357.5,-19.5 406.5,-19.5 406.5,-0.5 357.5,-0.5"/>
<text text-anchor="middle" x="382" y="-7.5" font-family="Helvetica,sans-Serif" font-size="10.00">_sprintf</text>
</a>
</g>
<!-- Node7&#45;&gt;Node8 -->
<g id="edge14" class="edge"><title>Node7&#45;&gt;Node8</title>
<path fill="none" stroke="midnightblue" d="M294.058,-10C309.306,-10 329.882,-10 347.189,-10"/>
<polygon fill="midnightblue" stroke="midnightblue" points="347.466,-13.5001 357.466,-10 347.466,-6.5001 347.466,-13.5001"/>
</g>
</g>
</svg>
