<?xml version="1.0" encoding="UTF-8" standalone="no"?>
<!DOCTYPE svg PUBLIC "-//W3C//DTD SVG 1.1//EN"
 "http://www.w3.org/Graphics/SVG/1.1/DTD/svg11.dtd">
<!-- Generated by graphviz version 2.28.0 (20121221.0049)
 -->
<!-- Title: battery_activate Pages: 1 -->
<!--zoomable 162 -->
<svg id="main" version="1.1" xmlns="http://www.w3.org/2000/svg" xmlns:xlink="http://www.w3.org/1999/xlink" xml:space="preserve" onload="init(evt)">
        <defs>
                <circle id="rim" cx="0" cy="0" r="7"/>
                <circle id="rim2" cx="0" cy="0" r="3.5"/>
                <g id="zoomPlus">
                        <use xlink:href="#rim" fill="#404040">
                                <set attributeName="fill" to="#808080" begin="zoomplus.mouseover" end="zoomplus.mouseout"/>
                        </use>
                        <path d="M-4,0h8M0,-4v8" fill="none" stroke="white" stroke-width="1.5" pointer-events="none"/>
                </g>
                <g id="zoomMin">
                        <use xlink:href="#rim" fill="#404040">
                                <set attributeName="fill" to="#808080" begin="zoomminus.mouseover" end="zoomminus.mouseout"/>
                        </use>
                        <path d="M-4,0h8" fill="none" stroke="white" stroke-width="1.5" pointer-events="none"/>
                </g>
                <g id="dirArrow">
                        <path fill="none" stroke="white" stroke-width="1.5" d="M0,-3.0v7 M-2.5,-0.5L0,-3.0L2.5,-0.5"/>
                </g>
               <g id="resetDef">
                       <use xlink:href="#rim2" fill="#404040">
                               <set attributeName="fill" to="#808080" begin="reset.mouseover" end="reset.mouseout"/>
                       </use>
               </g>
        </defs>

<script type="text/javascript">
var viewWidth = 870;
var viewHeight = 162;
var sectionId = 'dynsection-1';
</script>
<script xlink:href="../../svgpan.js"/>
<svg id="graph" class="graph">
<g id="viewport">
<title>battery_activate</title>
<polygon fill="white" stroke="white" points="-4,5 -4,-157.963 867,-157.963 867,5 -4,5"/>
<!-- Node1 -->
<g id="node1" class="node"><title>Node1</title>
<polygon fill="#bfbfbf" stroke="black" points="0,-58.4626 0,-77.4626 86,-77.4626 86,-58.4626 0,-58.4626"/>
<text text-anchor="middle" x="43" y="-65.4626" font-family="Helvetica,sans-Serif" font-size="10.00">battery_activate</text>
</g>
<!-- Node2 -->
<g id="node3" class="node"><title>Node2</title>
<a xlink:href="../../de/dd8/drivers_2battery_8c.xhtml#a44023812078341ee670c9e845118b7ef" target="_top" xlink:title="Measure the battery voltage.">
<polygon fill="white" stroke="black" points="132.5,-134.463 132.5,-153.463 243.5,-153.463 243.5,-134.463 132.5,-134.463"/>
<text text-anchor="middle" x="188" y="-141.463" font-family="Helvetica,sans-Serif" font-size="10.00">battery_measurement</text>
</a>
</g>
<!-- Node1&#45;&gt;Node2 -->
<g id="edge2" class="edge"><title>Node1&#45;&gt;Node2</title>
<path fill="none" stroke="midnightblue" d="M56.4097,-77.5745C71.3467,-88.8199 97.4882,-107.485 122,-119.963 129.859,-123.963 138.548,-127.641 146.946,-130.852"/>
<polygon fill="midnightblue" stroke="midnightblue" points="146.011,-134.237 156.605,-134.4 148.425,-127.667 146.011,-134.237"/>
</g>
<!-- Node5 -->
<g id="node9" class="node"><title>Node5</title>
<a xlink:href="../../db/d85/display_8c.xhtml#af604e78dcc4e0f1a204b2180c5e54957" target="_top" xlink:title="Displays a symbol.">
<polygon fill="white" stroke="black" points="311,-96.4626 311,-115.463 395,-115.463 395,-96.4626 311,-96.4626"/>
<text text-anchor="middle" x="353" y="-103.463" font-family="Helvetica,sans-Serif" font-size="10.00">display_symbol</text>
</a>
</g>
<!-- Node1&#45;&gt;Node5 -->
<g id="edge30" class="edge"><title>Node1&#45;&gt;Node5</title>
<path fill="none" stroke="midnightblue" d="M78.3206,-77.5518C91.8364,-81.0042 107.554,-84.6213 122,-86.9626 182.854,-96.8256 253.642,-101.696 300.44,-104.013"/>
<polygon fill="midnightblue" stroke="midnightblue" points="300.478,-107.518 310.632,-104.495 300.809,-100.526 300.478,-107.518"/>
</g>
<!-- Node7 -->
<g id="node13" class="node"><title>Node7</title>
<a xlink:href="../../d2/df2/openchronos_8c.xhtml#a5aeb07d7031b5d53ca8605bf398714a2" target="_top" xlink:title="Registers a node in the message bus.">
<polygon fill="white" stroke="black" points="122.5,-58.4626 122.5,-77.4626 253.5,-77.4626 253.5,-58.4626 122.5,-58.4626"/>
<text text-anchor="middle" x="188" y="-65.4626" font-family="Helvetica,sans-Serif" font-size="10.00">sys_messagebus_register</text>
</a>
</g>
<!-- Node1&#45;&gt;Node7 -->
<g id="edge12" class="edge"><title>Node1&#45;&gt;Node7</title>
<path fill="none" stroke="midnightblue" d="M86.1313,-67.9626C94.3917,-67.9626 103.285,-67.9626 112.247,-67.9626"/>
<polygon fill="midnightblue" stroke="midnightblue" points="112.364,-71.4627 122.364,-67.9626 112.364,-64.4627 112.364,-71.4627"/>
</g>
<!-- Node8 -->
<g id="node15" class="node"><title>Node8</title>
<a xlink:href="../../d8/d7f/modules_2battery_8c.xhtml#a43489aac0fce454dd7daf9ce2b46a222" target="_top" xlink:title="battery_event">
<polygon fill="white" stroke="black" points="150,-20.4626 150,-39.4626 226,-39.4626 226,-20.4626 150,-20.4626"/>
<text text-anchor="middle" x="188" y="-27.4626" font-family="Helvetica,sans-Serif" font-size="10.00">battery_event</text>
</a>
</g>
<!-- Node1&#45;&gt;Node8 -->
<g id="edge14" class="edge"><title>Node1&#45;&gt;Node8</title>
<path fill="none" stroke="midnightblue" d="M80.0849,-58.3736C98.6296,-53.4457 121.426,-47.3878 141.199,-42.1335"/>
<polygon fill="midnightblue" stroke="midnightblue" points="142.161,-45.4995 150.927,-39.5486 140.363,-38.7342 142.161,-45.4995"/>
</g>
<!-- Node9 -->
<g id="node17" class="node"><title>Node9</title>
<a xlink:href="../../d8/d7f/modules_2battery_8c.xhtml#ad4bcad30f03f9e6172885b718fd7cce3" target="_top" xlink:title="display_battery">
<polygon fill="white" stroke="black" points="311.5,-20.4626 311.5,-39.4626 394.5,-39.4626 394.5,-20.4626 311.5,-20.4626"/>
<text text-anchor="middle" x="353" y="-27.4626" font-family="Helvetica,sans-Serif" font-size="10.00">display_battery</text>
</a>
</g>
<!-- Node1&#45;&gt;Node9 -->
<g id="edge32" class="edge"><title>Node1&#45;&gt;Node9</title>
<path fill="none" stroke="midnightblue" d="M52.9536,-58.3515C66.3978,-44.7053 93.3007,-20.3314 122,-10.9626 186.582,10.12 266.513,-5.06017 313.129,-17.7155"/>
<polygon fill="midnightblue" stroke="midnightblue" points="312.259,-21.1065 322.833,-20.4451 314.154,-14.368 312.259,-21.1065"/>
</g>
<!-- Node3 -->
<g id="node5" class="node"><title>Node3</title>
<a xlink:href="../../dc/ddc/adc12_8c.xhtml#a6202d56d811a4a15e9675420b4b1f8db" target="_top" xlink:title="Init ADC12. Do single conversion. Turn off ADC12.">
<polygon fill="white" stroke="black" points="290,-134.463 290,-153.463 416,-153.463 416,-134.463 290,-134.463"/>
<text text-anchor="middle" x="353" y="-141.463" font-family="Helvetica,sans-Serif" font-size="10.00">adc12_single_conversion</text>
</a>
</g>
<!-- Node2&#45;&gt;Node3 -->
<g id="edge4" class="edge"><title>Node2&#45;&gt;Node3</title>
<path fill="none" stroke="midnightblue" d="M243.73,-143.963C255.291,-143.963 267.66,-143.963 279.754,-143.963"/>
<polygon fill="midnightblue" stroke="midnightblue" points="279.824,-147.463 289.824,-143.963 279.824,-140.463 279.824,-147.463"/>
</g>
<!-- Node2&#45;&gt;Node5 -->
<g id="edge8" class="edge"><title>Node2&#45;&gt;Node5</title>
<path fill="none" stroke="midnightblue" d="M230.132,-134.374C251.738,-129.337 278.409,-123.119 301.286,-117.786"/>
<polygon fill="midnightblue" stroke="midnightblue" points="302.22,-121.162 311.164,-115.483 300.63,-114.345 302.22,-121.162"/>
</g>
<!-- Node4 -->
<g id="node7" class="node"><title>Node4</title>
<a xlink:href="../../df/d41/timer_8c.xhtml#adc3302861aee9d7f4a1c4c6d25d07343" target="_top" xlink:title="1ms &#45; 1s programmable delay">
<polygon fill="white" stroke="black" points="455,-134.463 455,-153.463 527,-153.463 527,-134.463 455,-134.463"/>
<text text-anchor="middle" x="491" y="-141.463" font-family="Helvetica,sans-Serif" font-size="10.00">timer0_delay</text>
</a>
</g>
<!-- Node3&#45;&gt;Node4 -->
<g id="edge6" class="edge"><title>Node3&#45;&gt;Node4</title>
<path fill="none" stroke="midnightblue" d="M416.03,-143.963C425.701,-143.963 435.535,-143.963 444.74,-143.963"/>
<polygon fill="midnightblue" stroke="midnightblue" points="444.823,-147.463 454.823,-143.963 444.823,-140.463 444.823,-147.463"/>
</g>
<!-- Node6 -->
<g id="node11" class="node"><title>Node6</title>
<a xlink:href="../../db/d85/display_8c.xhtml#a710739913e8ea1b71dd433b8311211fd" target="_top" xlink:title="write_lcd_mem">
<polygon fill="white" stroke="black" points="778.5,-77.4626 778.5,-96.4626 861.5,-96.4626 861.5,-77.4626 778.5,-77.4626"/>
<text text-anchor="middle" x="820" y="-84.4626" font-family="Helvetica,sans-Serif" font-size="10.00">write_lcd_mem</text>
</a>
</g>
<!-- Node5&#45;&gt;Node6 -->
<g id="edge10" class="edge"><title>Node5&#45;&gt;Node6</title>
<path fill="none" stroke="midnightblue" d="M395.266,-104.277C480.447,-100.796 675.509,-92.8257 768.238,-89.0368"/>
<polygon fill="midnightblue" stroke="midnightblue" points="768.642,-92.5233 778.491,-88.6178 768.356,-85.5291 768.642,-92.5233"/>
</g>
<!-- Node8&#45;&gt;Node9 -->
<g id="edge16" class="edge"><title>Node8&#45;&gt;Node9</title>
<path fill="none" stroke="midnightblue" d="M226.395,-29.9626C248.601,-29.9626 277.057,-29.9626 301.267,-29.9626"/>
<polygon fill="midnightblue" stroke="midnightblue" points="301.353,-33.4627 311.353,-29.9626 301.353,-26.4627 301.353,-33.4627"/>
</g>
<!-- Node10 -->
<g id="node19" class="node"><title>Node10</title>
<a xlink:href="../../db/d85/display_8c.xhtml#a6f2d5cdda31a73b43a569cb3d1a64165" target="_top" xlink:title="Displays several consecutive characters.">
<polygon fill="white" stroke="black" points="452.5,-58.4626 452.5,-77.4626 529.5,-77.4626 529.5,-58.4626 452.5,-58.4626"/>
<text text-anchor="middle" x="491" y="-65.4626" font-family="Helvetica,sans-Serif" font-size="10.00">display_chars</text>
</a>
</g>
<!-- Node9&#45;&gt;Node10 -->
<g id="edge18" class="edge"><title>Node9&#45;&gt;Node10</title>
<path fill="none" stroke="midnightblue" d="M388.319,-39.5516C405.794,-44.4346 427.241,-50.4269 445.925,-55.6476"/>
<polygon fill="midnightblue" stroke="midnightblue" points="445.119,-59.0565 455.692,-58.3767 447.003,-52.3147 445.119,-59.0565"/>
</g>
<!-- Node13 -->
<g id="node26" class="node"><title>Node13</title>
<a xlink:href="../../db/d85/display_8c.xhtml#aa537e9d11d9d4e32a82dc123616c68b2" target="_top" xlink:title="Converts an integer from a range into a percent string between 0 and 100.">
<polygon fill="white" stroke="black" points="468,-20.4626 468,-39.4626 514,-39.4626 514,-20.4626 468,-20.4626"/>
<text text-anchor="middle" x="491" y="-27.4626" font-family="Helvetica,sans-Serif" font-size="10.00">_itopct</text>
</a>
</g>
<!-- Node9&#45;&gt;Node13 -->
<g id="edge26" class="edge"><title>Node9&#45;&gt;Node13</title>
<path fill="none" stroke="midnightblue" d="M394.804,-29.9626C414.912,-29.9626 438.818,-29.9626 457.643,-29.9626"/>
<polygon fill="midnightblue" stroke="midnightblue" points="457.797,-33.4627 467.797,-29.9626 457.797,-26.4627 457.797,-33.4627"/>
</g>
<!-- Node11 -->
<g id="node21" class="node"><title>Node11</title>
<a xlink:href="../../db/d85/display_8c.xhtml#a3ae30196af91197037d50cb49de1d109" target="_top" xlink:title="Displays a single character.">
<polygon fill="white" stroke="black" points="566.5,-58.4626 566.5,-77.4626 637.5,-77.4626 637.5,-58.4626 566.5,-58.4626"/>
<text text-anchor="middle" x="602" y="-65.4626" font-family="Helvetica,sans-Serif" font-size="10.00">display_char</text>
</a>
</g>
<!-- Node10&#45;&gt;Node11 -->
<g id="edge20" class="edge"><title>Node10&#45;&gt;Node11</title>
<path fill="none" stroke="midnightblue" d="M529.512,-67.9626C538.098,-67.9626 547.31,-67.9626 556.17,-67.9626"/>
<polygon fill="midnightblue" stroke="midnightblue" points="556.35,-71.4627 566.35,-67.9626 556.35,-64.4627 556.35,-71.4627"/>
</g>
<!-- Node12 -->
<g id="node23" class="node"><title>Node12</title>
<a xlink:href="../../db/d85/display_8c.xhtml#a9275035317878022cf9eacf6b0a5be72" target="_top" xlink:title="Display a custom collection of segments.">
<polygon fill="white" stroke="black" points="674,-58.4626 674,-77.4626 742,-77.4626 742,-58.4626 674,-58.4626"/>
<text text-anchor="middle" x="708" y="-65.4626" font-family="Helvetica,sans-Serif" font-size="10.00">display_bits</text>
</a>
</g>
<!-- Node11&#45;&gt;Node12 -->
<g id="edge22" class="edge"><title>Node11&#45;&gt;Node12</title>
<path fill="none" stroke="midnightblue" d="M637.63,-67.9626C646.04,-67.9626 655.133,-67.9626 663.882,-67.9626"/>
<polygon fill="midnightblue" stroke="midnightblue" points="663.931,-71.4627 673.931,-67.9626 663.931,-64.4627 663.931,-71.4627"/>
</g>
<!-- Node12&#45;&gt;Node6 -->
<g id="edge24" class="edge"><title>Node12&#45;&gt;Node6</title>
<path fill="none" stroke="midnightblue" d="M742.004,-73.6633C750.28,-75.0928 759.352,-76.6598 768.273,-78.2007"/>
<polygon fill="midnightblue" stroke="midnightblue" points="767.781,-81.6674 778.231,-79.9206 768.972,-74.7696 767.781,-81.6674"/>
</g>
<!-- Node14 -->
<g id="node28" class="node"><title>Node14</title>
<a xlink:href="../../db/d85/display_8c.xhtml#a9047d98cd15ffbc79e15c63fca36d70b" target="_top" xlink:title="pseudo sprintf function">
<polygon fill="white" stroke="black" points="577.5,-20.4626 577.5,-39.4626 626.5,-39.4626 626.5,-20.4626 577.5,-20.4626"/>
<text text-anchor="middle" x="602" y="-27.4626" font-family="Helvetica,sans-Serif" font-size="10.00">_sprintf</text>
</a>
</g>
<!-- Node13&#45;&gt;Node14 -->
<g id="edge28" class="edge"><title>Node13&#45;&gt;Node14</title>
<path fill="none" stroke="midnightblue" d="M514.058,-29.9626C529.306,-29.9626 549.882,-29.9626 567.189,-29.9626"/>
<polygon fill="midnightblue" stroke="midnightblue" points="567.466,-33.4627 577.466,-29.9626 567.466,-26.4627 567.466,-33.4627"/>
</g>
</g>
</svg>
        <g id="navigator" transform="translate(0 0)" fill="#404254">
                <rect fill="#f2f5e9" fill-opacity="0.5" stroke="#606060" stroke-width=".5" x="0" y="0" width="60" height="60"/>
                <use id="zoomplus" xlink:href="#zoomPlus" x="17" y="9" onmousedown="handleZoom(evt,'in')"/>
                <use id="zoomminus" xlink:href="#zoomMin" x="42" y="9" onmousedown="handleZoom(evt,'out')"/>
                <use id="reset" xlink:href="#resetDef" x="30" y="36" onmousedown="handleReset()"/>
                <g id="arrowUp" xlink:href="#dirArrow" transform="translate(30 24)" onmousedown="handlePan(0,-1)">
                  <use xlink:href="#rim" fill="#404040">
                        <set attributeName="fill" to="#808080" begin="arrowUp.mouseover" end="arrowUp.mouseout"/>
                  </use>
                  <path fill="none" stroke="white" stroke-width="1.5" d="M0,-3.0v7 M-2.5,-0.5L0,-3.0L2.5,-0.5"/>
                </g>
                <g id="arrowRight" xlink:href="#dirArrow" transform="rotate(90) translate(36 -43)" onmousedown="handlePan(1,0)">
                  <use xlink:href="#rim" fill="#404040">
                        <set attributeName="fill" to="#808080" begin="arrowRight.mouseover" end="arrowRight.mouseout"/>
                  </use>
                  <path fill="none" stroke="white" stroke-width="1.5" d="M0,-3.0v7 M-2.5,-0.5L0,-3.0L2.5,-0.5"/>
                </g>
                <g id="arrowDown" xlink:href="#dirArrow" transform="rotate(180) translate(-30 -48)" onmousedown="handlePan(0,1)">
                  <use xlink:href="#rim" fill="#404040">
                        <set attributeName="fill" to="#808080" begin="arrowDown.mouseover" end="arrowDown.mouseout"/>
                  </use>
                  <path fill="none" stroke="white" stroke-width="1.5" d="M0,-3.0v7 M-2.5,-0.5L0,-3.0L2.5,-0.5"/>
                </g>
                <g id="arrowLeft" xlink:href="#dirArrow" transform="rotate(270) translate(-36 17)" onmousedown="handlePan(-1,0)">
                  <use xlink:href="#rim" fill="#404040">
                        <set attributeName="fill" to="#808080" begin="arrowLeft.mouseover" end="arrowLeft.mouseout"/>
                  </use>
                  <path fill="none" stroke="white" stroke-width="1.5" d="M0,-3.0v7 M-2.5,-0.5L0,-3.0L2.5,-0.5"/>
                </g>
        </g>
        <svg viewBox="0 0 15 15" width="100%" height="30px" preserveAspectRatio="xMaxYMin meet">
         <g id="arrow_out" transform="scale(0.3 0.3)">
          <a xlink:href="modules_2battery_8c_a92137f74f184e66dd8e7743669c9d99a_cgraph_org.svg" target="_base">
           <rect id="button" ry="5" rx="5" y="6" x="6" height="38" width="38"
                fill="#f2f5e9" fill-opacity="0.5" stroke="#606060" stroke-width="1.0"/>
           <path id="arrow"
             d="M 11.500037,31.436501 C 11.940474,20.09759 22.043105,11.32322 32.158766,21.979434 L 37.068811,17.246167 C 37.068811,17.246167 37.088388,32 37.088388,32 L 22.160133,31.978069 C 22.160133,31.978069 26.997745,27.140456 26.997745,27.140456 C 18.528582,18.264221 13.291696,25.230495 11.500037,31.436501 z"
             style="fill:#404040;"/>
          </a>
         </g>
        </svg>
</svg>
