<?xml version="1.0" encoding="UTF-8" standalone="no"?>
<!DOCTYPE svg PUBLIC "-//W3C//DTD SVG 1.1//EN"
 "http://www.w3.org/Graphics/SVG/1.1/DTD/svg11.dtd">
<!-- Generated by graphviz version 2.28.0 (20121221.0049)
 -->
<!-- Title: battery_deactivate Pages: 1 -->
<svg width="850pt" height="142pt"
 viewBox="0.00 0.00 850.00 142.00" xmlns="http://www.w3.org/2000/svg" xmlns:xlink="http://www.w3.org/1999/xlink">
<g id="graph1" class="graph" transform="scale(1 1) rotate(0) translate(4 138)">
<title>battery_deactivate</title>
<polygon fill="white" stroke="white" points="-4,5 -4,-138 847,-138 847,5 -4,5"/>
<!-- Node1 -->
<g id="node1" class="node"><title>Node1</title>
<polygon fill="#bfbfbf" stroke="black" points="0.5,-57.5 0.5,-76.5 97.5,-76.5 97.5,-57.5 0.5,-57.5"/>
<text text-anchor="middle" x="49" y="-64.5" font-family="Helvetica,sans-Serif" font-size="10.00">battery_deactivate</text>
</g>
<!-- Node2 -->
<g id="node3" class="node"><title>Node2</title>
<a xlink:href="../../d2/df2/openchronos_8c.xhtml#a60705ce0564ce52c1977a32cee3215c2" target="_top" xlink:title="Unregisters a node from the message bus.">
<polygon fill="white" stroke="black" points="134.5,-114.5 134.5,-133.5 275.5,-133.5 275.5,-114.5 134.5,-114.5"/>
<text text-anchor="middle" x="205" y="-121.5" font-family="Helvetica,sans-Serif" font-size="10.00">sys_messagebus_unregister</text>
</a>
</g>
<!-- Node1&#45;&gt;Node2 -->
<g id="edge2" class="edge"><title>Node1&#45;&gt;Node2</title>
<path fill="none" stroke="midnightblue" d="M68.9896,-76.6457C85.7835,-84.9193 111.104,-96.7733 134,-105 140.529,-107.346 147.49,-109.562 154.394,-111.596"/>
<polygon fill="midnightblue" stroke="midnightblue" points="153.837,-115.076 164.413,-114.438 155.748,-108.342 153.837,-115.076"/>
</g>
<!-- Node3 -->
<g id="node5" class="node"><title>Node3</title>
<a xlink:href="../../d8/d7f/modules_2battery_8c.xhtml#a43489aac0fce454dd7daf9ce2b46a222" target="_top" xlink:title="battery_event">
<polygon fill="white" stroke="black" points="167,-76.5 167,-95.5 243,-95.5 243,-76.5 167,-76.5"/>
<text text-anchor="middle" x="205" y="-83.5" font-family="Helvetica,sans-Serif" font-size="10.00">battery_event</text>
</a>
</g>
<!-- Node1&#45;&gt;Node3 -->
<g id="edge4" class="edge"><title>Node1&#45;&gt;Node3</title>
<path fill="none" stroke="midnightblue" d="M97.8824,-72.9076C116.656,-75.2238 138.138,-77.8742 156.841,-80.1817"/>
<polygon fill="midnightblue" stroke="midnightblue" points="156.558,-83.6732 166.911,-81.4241 157.415,-76.7259 156.558,-83.6732"/>
</g>
<!-- Node11 -->
<g id="node21" class="node"><title>Node11</title>
<a xlink:href="../../db/d85/display_8c.xhtml#aa150336a018e90f37fd0285047b541f6" target="_top" xlink:title="Clears the screen.">
<polygon fill="white" stroke="black" points="168,-38.5 168,-57.5 242,-57.5 242,-38.5 168,-38.5"/>
<text text-anchor="middle" x="205" y="-45.5" font-family="Helvetica,sans-Serif" font-size="10.00">display_clear</text>
</a>
</g>
<!-- Node1&#45;&gt;Node11 -->
<g id="edge20" class="edge"><title>Node1&#45;&gt;Node11</title>
<path fill="none" stroke="midnightblue" d="M97.8824,-61.0924C116.954,-58.7394 138.821,-56.0416 157.73,-53.7087"/>
<polygon fill="midnightblue" stroke="midnightblue" points="158.398,-57.1529 167.894,-52.4547 157.54,-50.2056 158.398,-57.1529"/>
</g>
<!-- Node12 -->
<g id="node24" class="node"><title>Node12</title>
<a xlink:href="../../db/d85/display_8c.xhtml#af604e78dcc4e0f1a204b2180c5e54957" target="_top" xlink:title="Displays a symbol.">
<polygon fill="white" stroke="black" points="312,-0.5 312,-19.5 396,-19.5 396,-0.5 312,-0.5"/>
<text text-anchor="middle" x="354" y="-7.5" font-family="Helvetica,sans-Serif" font-size="10.00">display_symbol</text>
</a>
</g>
<!-- Node1&#45;&gt;Node12 -->
<g id="edge28" class="edge"><title>Node1&#45;&gt;Node12</title>
<path fill="none" stroke="midnightblue" d="M66.7479,-57.3693C83.2697,-48.3719 109.532,-35.396 134,-29 190.178,-14.3147 256.936,-10.3739 301.855,-9.59328"/>
<polygon fill="midnightblue" stroke="midnightblue" points="301.984,-13.092 311.939,-9.46481 301.895,-6.09259 301.984,-13.092"/>
</g>
<!-- Node4 -->
<g id="node7" class="node"><title>Node4</title>
<a xlink:href="../../d8/d7f/modules_2battery_8c.xhtml#ad4bcad30f03f9e6172885b718fd7cce3" target="_top" xlink:title="display_battery">
<polygon fill="white" stroke="black" points="312.5,-76.5 312.5,-95.5 395.5,-95.5 395.5,-76.5 312.5,-76.5"/>
<text text-anchor="middle" x="354" y="-83.5" font-family="Helvetica,sans-Serif" font-size="10.00">display_battery</text>
</a>
</g>
<!-- Node3&#45;&gt;Node4 -->
<g id="edge6" class="edge"><title>Node3&#45;&gt;Node4</title>
<path fill="none" stroke="midnightblue" d="M243.094,-86C260.974,-86 282.699,-86 302.098,-86"/>
<polygon fill="midnightblue" stroke="midnightblue" points="302.296,-89.5001 312.296,-86 302.296,-82.5001 302.296,-89.5001"/>
</g>
<!-- Node5 -->
<g id="node9" class="node"><title>Node5</title>
<a xlink:href="../../db/d85/display_8c.xhtml#a6f2d5cdda31a73b43a569cb3d1a64165" target="_top" xlink:title="Displays several consecutive characters.">
<polygon fill="white" stroke="black" points="432.5,-38.5 432.5,-57.5 509.5,-57.5 509.5,-38.5 432.5,-38.5"/>
<text text-anchor="middle" x="471" y="-45.5" font-family="Helvetica,sans-Serif" font-size="10.00">display_chars</text>
</a>
</g>
<!-- Node4&#45;&gt;Node5 -->
<g id="edge8" class="edge"><title>Node4&#45;&gt;Node5</title>
<path fill="none" stroke="midnightblue" d="M384.019,-76.411C398.32,-71.6856 415.765,-65.9211 431.195,-60.8226"/>
<polygon fill="midnightblue" stroke="midnightblue" points="432.593,-64.0468 440.99,-57.5859 430.397,-57.4002 432.593,-64.0468"/>
</g>
<!-- Node9 -->
<g id="node17" class="node"><title>Node9</title>
<a xlink:href="../../db/d85/display_8c.xhtml#aa537e9d11d9d4e32a82dc123616c68b2" target="_top" xlink:title="Converts an integer from a range into a percent string between 0 and 100.">
<polygon fill="white" stroke="black" points="448,-76.5 448,-95.5 494,-95.5 494,-76.5 448,-76.5"/>
<text text-anchor="middle" x="471" y="-83.5" font-family="Helvetica,sans-Serif" font-size="10.00">_itopct</text>
</a>
</g>
<!-- Node4&#45;&gt;Node9 -->
<g id="edge16" class="edge"><title>Node4&#45;&gt;Node9</title>
<path fill="none" stroke="midnightblue" d="M395.545,-86C409.286,-86 424.447,-86 437.481,-86"/>
<polygon fill="midnightblue" stroke="midnightblue" points="437.852,-89.5001 447.852,-86 437.852,-82.5001 437.852,-89.5001"/>
</g>
<!-- Node6 -->
<g id="node11" class="node"><title>Node6</title>
<a xlink:href="../../db/d85/display_8c.xhtml#a3ae30196af91197037d50cb49de1d109" target="_top" xlink:title="Displays a single character.">
<polygon fill="white" stroke="black" points="546.5,-38.5 546.5,-57.5 617.5,-57.5 617.5,-38.5 546.5,-38.5"/>
<text text-anchor="middle" x="582" y="-45.5" font-family="Helvetica,sans-Serif" font-size="10.00">display_char</text>
</a>
</g>
<!-- Node5&#45;&gt;Node6 -->
<g id="edge10" class="edge"><title>Node5&#45;&gt;Node6</title>
<path fill="none" stroke="midnightblue" d="M509.512,-48C518.098,-48 527.31,-48 536.17,-48"/>
<polygon fill="midnightblue" stroke="midnightblue" points="536.35,-51.5001 546.35,-48 536.35,-44.5001 536.35,-51.5001"/>
</g>
<!-- Node7 -->
<g id="node13" class="node"><title>Node7</title>
<a xlink:href="../../db/d85/display_8c.xhtml#a9275035317878022cf9eacf6b0a5be72" target="_top" xlink:title="Display a custom collection of segments.">
<polygon fill="white" stroke="black" points="654,-38.5 654,-57.5 722,-57.5 722,-38.5 654,-38.5"/>
<text text-anchor="middle" x="688" y="-45.5" font-family="Helvetica,sans-Serif" font-size="10.00">display_bits</text>
</a>
</g>
<!-- Node6&#45;&gt;Node7 -->
<g id="edge12" class="edge"><title>Node6&#45;&gt;Node7</title>
<path fill="none" stroke="midnightblue" d="M617.63,-48C626.04,-48 635.133,-48 643.882,-48"/>
<polygon fill="midnightblue" stroke="midnightblue" points="643.931,-51.5001 653.931,-48 643.931,-44.5001 643.931,-51.5001"/>
</g>
<!-- Node8 -->
<g id="node15" class="node"><title>Node8</title>
<a xlink:href="../../db/d85/display_8c.xhtml#a710739913e8ea1b71dd433b8311211fd" target="_top" xlink:title="write_lcd_mem">
<polygon fill="white" stroke="black" points="758.5,-19.5 758.5,-38.5 841.5,-38.5 841.5,-19.5 758.5,-19.5"/>
<text text-anchor="middle" x="800" y="-26.5" font-family="Helvetica,sans-Serif" font-size="10.00">write_lcd_mem</text>
</a>
</g>
<!-- Node7&#45;&gt;Node8 -->
<g id="edge14" class="edge"><title>Node7&#45;&gt;Node8</title>
<path fill="none" stroke="midnightblue" d="M722.004,-42.2994C730.28,-40.8698 739.352,-39.3029 748.273,-37.762"/>
<polygon fill="midnightblue" stroke="midnightblue" points="748.972,-41.1931 758.231,-36.042 747.781,-34.2952 748.972,-41.1931"/>
</g>
<!-- Node10 -->
<g id="node19" class="node"><title>Node10</title>
<a xlink:href="../../db/d85/display_8c.xhtml#a9047d98cd15ffbc79e15c63fca36d70b" target="_top" xlink:title="pseudo sprintf function">
<polygon fill="white" stroke="black" points="557.5,-76.5 557.5,-95.5 606.5,-95.5 606.5,-76.5 557.5,-76.5"/>
<text text-anchor="middle" x="582" y="-83.5" font-family="Helvetica,sans-Serif" font-size="10.00">_sprintf</text>
</a>
</g>
<!-- Node9&#45;&gt;Node10 -->
<g id="edge18" class="edge"><title>Node9&#45;&gt;Node10</title>
<path fill="none" stroke="midnightblue" d="M494.058,-86C509.306,-86 529.882,-86 547.189,-86"/>
<polygon fill="midnightblue" stroke="midnightblue" points="547.466,-89.5001 557.466,-86 547.466,-82.5001 547.466,-89.5001"/>
</g>
<!-- Node11&#45;&gt;Node5 -->
<g id="edge22" class="edge"><title>Node11&#45;&gt;Node5</title>
<path fill="none" stroke="midnightblue" d="M242.155,-48C288.791,-48 370.059,-48 421.88,-48"/>
<polygon fill="midnightblue" stroke="midnightblue" points="422.15,-51.5001 432.15,-48 422.15,-44.5001 422.15,-51.5001"/>
</g>
<!-- Node11&#45;&gt;Node12 -->
<g id="edge24" class="edge"><title>Node11&#45;&gt;Node12</title>
<path fill="none" stroke="midnightblue" d="M242.337,-38.6067C261.626,-33.6204 285.55,-27.4362 306.213,-22.0947"/>
<polygon fill="midnightblue" stroke="midnightblue" points="307.254,-25.4406 316.06,-19.5491 305.502,-18.6634 307.254,-25.4406"/>
</g>
<!-- Node12&#45;&gt;Node8 -->
<g id="edge26" class="edge"><title>Node12&#45;&gt;Node8</title>
<path fill="none" stroke="midnightblue" d="M396.372,-11.7704C477.961,-15.2619 659.374,-23.025 748.122,-26.8228"/>
<polygon fill="midnightblue" stroke="midnightblue" points="748.075,-30.3239 758.216,-27.2547 748.374,-23.3303 748.075,-30.3239"/>
</g>
</g>
</svg>
