<?xml version="1.0" encoding="UTF-8" standalone="no"?>
<!DOCTYPE svg PUBLIC "-//W3C//DTD SVG 1.1//EN"
 "http://www.w3.org/Graphics/SVG/1.1/DTD/svg11.dtd">
<!-- Generated by graphviz version 2.28.0 (20121221.0049)
 -->
<!-- Title: mod_battery_init Pages: 1 -->
<svg width="1018pt" height="294pt"
 viewBox="0.00 0.00 1018.00 294.00" xmlns="http://www.w3.org/2000/svg" xmlns:xlink="http://www.w3.org/1999/xlink">
<g id="graph1" class="graph" transform="scale(1 1) rotate(0) translate(4 290)">
<title>mod_battery_init</title>
<polygon fill="white" stroke="white" points="-4,5 -4,-290 1015,-290 1015,5 -4,5"/>
<!-- Node1 -->
<g id="node1" class="node"><title>Node1</title>
<polygon fill="#bfbfbf" stroke="black" points="0.5,-171.5 0.5,-190.5 89.5,-190.5 89.5,-171.5 0.5,-171.5"/>
<text text-anchor="middle" x="45" y="-178.5" font-family="Helvetica,sans-Serif" font-size="10.00">mod_battery_init</text>
</g>
<!-- Node2 -->
<g id="node3" class="node"><title>Node2</title>
<a xlink:href="../../d2/df2/openchronos_8c.xhtml#a71490cfda7ca71ac20d681a8a7a994e1" target="_top" xlink:title="Adds an entry to the main menu.">
<polygon fill="white" stroke="black" points="130.5,-209.5 130.5,-228.5 219.5,-228.5 219.5,-209.5 130.5,-209.5"/>
<text text-anchor="middle" x="175" y="-216.5" font-family="Helvetica,sans-Serif" font-size="10.00">menu_add_entry</text>
</a>
</g>
<!-- Node1&#45;&gt;Node2 -->
<g id="edge2" class="edge"><title>Node1&#45;&gt;Node2</title>
<path fill="none" stroke="midnightblue" d="M78.2998,-190.589C94.5202,-195.404 114.375,-201.299 131.787,-206.468"/>
<polygon fill="midnightblue" stroke="midnightblue" points="131.128,-209.923 141.711,-209.414 133.12,-203.213 131.128,-209.923"/>
</g>
<!-- Node3 -->
<g id="node5" class="node"><title>Node3</title>
<a xlink:href="../../d8/d7f/modules_2battery_8c.xhtml#a92137f74f184e66dd8e7743669c9d99a" target="_top" xlink:title="battery_activate">
<polygon fill="white" stroke="black" points="132,-171.5 132,-190.5 218,-190.5 218,-171.5 132,-171.5"/>
<text text-anchor="middle" x="175" y="-178.5" font-family="Helvetica,sans-Serif" font-size="10.00">battery_activate</text>
</a>
</g>
<!-- Node1&#45;&gt;Node3 -->
<g id="edge4" class="edge"><title>Node1&#45;&gt;Node3</title>
<path fill="none" stroke="midnightblue" d="M89.6923,-181C100.01,-181 111.114,-181 121.767,-181"/>
<polygon fill="midnightblue" stroke="midnightblue" points="121.803,-184.5 131.803,-181 121.803,-177.5 121.803,-184.5"/>
</g>
<!-- Node17 -->
<g id="node36" class="node"><title>Node17</title>
<a xlink:href="../../d8/d7f/modules_2battery_8c.xhtml#a2832f3aa7d41237008e1d0fe507c1d8d" target="_top" xlink:title="battery_deactivate">
<polygon fill="white" stroke="black" points="126.5,-76.5 126.5,-95.5 223.5,-95.5 223.5,-76.5 126.5,-76.5"/>
<text text-anchor="middle" x="175" y="-83.5" font-family="Helvetica,sans-Serif" font-size="10.00">battery_deactivate</text>
</a>
</g>
<!-- Node1&#45;&gt;Node17 -->
<g id="edge38" class="edge"><title>Node1&#45;&gt;Node17</title>
<path fill="none" stroke="midnightblue" d="M59.2161,-171.191C81.3676,-154.751 126.172,-121.497 152.78,-101.749"/>
<polygon fill="midnightblue" stroke="midnightblue" points="155.102,-104.384 161.046,-95.614 150.93,-98.7633 155.102,-104.384"/>
</g>
<!-- Node4 -->
<g id="node7" class="node"><title>Node4</title>
<a xlink:href="../../de/dd8/drivers_2battery_8c.xhtml#a44023812078341ee670c9e845118b7ef" target="_top" xlink:title="Measure the battery voltage.">
<polygon fill="white" stroke="black" points="275.5,-266.5 275.5,-285.5 386.5,-285.5 386.5,-266.5 275.5,-266.5"/>
<text text-anchor="middle" x="331" y="-273.5" font-family="Helvetica,sans-Serif" font-size="10.00">battery_measurement</text>
</a>
</g>
<!-- Node3&#45;&gt;Node4 -->
<g id="edge6" class="edge"><title>Node3&#45;&gt;Node4</title>
<path fill="none" stroke="midnightblue" d="M207.917,-190.559C213.603,-193.093 219.227,-196.21 224,-200 246.014,-217.479 237.585,-235.039 260,-252 265.575,-256.219 271.944,-259.729 278.516,-262.64"/>
<polygon fill="midnightblue" stroke="midnightblue" points="277.636,-266.056 288.222,-266.491 280.218,-259.55 277.636,-266.056"/>
</g>
<!-- Node7 -->
<g id="node13" class="node"><title>Node7</title>
<a xlink:href="../../db/d85/display_8c.xhtml#af604e78dcc4e0f1a204b2180c5e54957" target="_top" xlink:title="Displays a symbol.">
<polygon fill="white" stroke="black" points="459,-114.5 459,-133.5 543,-133.5 543,-114.5 459,-114.5"/>
<text text-anchor="middle" x="501" y="-121.5" font-family="Helvetica,sans-Serif" font-size="10.00">display_symbol</text>
</a>
</g>
<!-- Node3&#45;&gt;Node7 -->
<g id="edge34" class="edge"><title>Node3&#45;&gt;Node7</title>
<path fill="none" stroke="midnightblue" d="M201.627,-190.549C208.924,-193.428 216.835,-196.703 224,-200 240.435,-207.563 242.439,-214.65 260,-219 321.26,-234.174 343.507,-242.698 402,-219 440.219,-203.516 471.763,-165.184 488.046,-142.222"/>
<polygon fill="midnightblue" stroke="midnightblue" points="491.116,-143.933 493.884,-133.707 485.343,-139.975 491.116,-143.933"/>
</g>
<!-- Node9 -->
<g id="node17" class="node"><title>Node9</title>
<a xlink:href="../../d2/df2/openchronos_8c.xhtml#a5aeb07d7031b5d53ca8605bf398714a2" target="_top" xlink:title="Registers a node in the message bus.">
<polygon fill="white" stroke="black" points="265.5,-190.5 265.5,-209.5 396.5,-209.5 396.5,-190.5 265.5,-190.5"/>
<text text-anchor="middle" x="331" y="-197.5" font-family="Helvetica,sans-Serif" font-size="10.00">sys_messagebus_register</text>
</a>
</g>
<!-- Node3&#45;&gt;Node9 -->
<g id="edge16" class="edge"><title>Node3&#45;&gt;Node9</title>
<path fill="none" stroke="midnightblue" d="M218.081,-186.192C229.606,-187.614 242.454,-189.199 255.221,-190.774"/>
<polygon fill="midnightblue" stroke="midnightblue" points="255.062,-194.281 265.415,-192.032 255.919,-187.334 255.062,-194.281"/>
</g>
<!-- Node10 -->
<g id="node19" class="node"><title>Node10</title>
<a xlink:href="../../d8/d7f/modules_2battery_8c.xhtml#a43489aac0fce454dd7daf9ce2b46a222" target="_top" xlink:title="battery_event">
<polygon fill="white" stroke="black" points="293,-76.5 293,-95.5 369,-95.5 369,-76.5 293,-76.5"/>
<text text-anchor="middle" x="331" y="-83.5" font-family="Helvetica,sans-Serif" font-size="10.00">battery_event</text>
</a>
</g>
<!-- Node3&#45;&gt;Node10 -->
<g id="edge18" class="edge"><title>Node3&#45;&gt;Node10</title>
<path fill="none" stroke="midnightblue" d="M191.614,-171.368C218.478,-154.796 273.632,-120.772 305.604,-101.049"/>
<polygon fill="midnightblue" stroke="midnightblue" points="307.672,-103.886 314.345,-95.6574 303.996,-97.9289 307.672,-103.886"/>
</g>
<!-- Node11 -->
<g id="node21" class="node"><title>Node11</title>
<a xlink:href="../../d8/d7f/modules_2battery_8c.xhtml#ad4bcad30f03f9e6172885b718fd7cce3" target="_top" xlink:title="display_battery">
<polygon fill="white" stroke="black" points="459.5,-76.5 459.5,-95.5 542.5,-95.5 542.5,-76.5 459.5,-76.5"/>
<text text-anchor="middle" x="501" y="-83.5" font-family="Helvetica,sans-Serif" font-size="10.00">display_battery</text>
</a>
</g>
<!-- Node3&#45;&gt;Node11 -->
<g id="edge36" class="edge"><title>Node3&#45;&gt;Node11</title>
<path fill="none" stroke="midnightblue" d="M208.55,-171.456C267.62,-154.136 392.401,-117.549 457.874,-98.3516"/>
<polygon fill="midnightblue" stroke="midnightblue" points="458.861,-101.71 467.472,-95.5376 456.891,-94.9927 458.861,-101.71"/>
</g>
<!-- Node5 -->
<g id="node9" class="node"><title>Node5</title>
<a xlink:href="../../dc/ddc/adc12_8c.xhtml#a6202d56d811a4a15e9675420b4b1f8db" target="_top" xlink:title="Init ADC12. Do single conversion. Turn off ADC12.">
<polygon fill="white" stroke="black" points="438,-266.5 438,-285.5 564,-285.5 564,-266.5 438,-266.5"/>
<text text-anchor="middle" x="501" y="-273.5" font-family="Helvetica,sans-Serif" font-size="10.00">adc12_single_conversion</text>
</a>
</g>
<!-- Node4&#45;&gt;Node5 -->
<g id="edge8" class="edge"><title>Node4&#45;&gt;Node5</title>
<path fill="none" stroke="midnightblue" d="M386.545,-276C399.6,-276 413.743,-276 427.469,-276"/>
<polygon fill="midnightblue" stroke="midnightblue" points="427.86,-279.5 437.86,-276 427.86,-272.5 427.86,-279.5"/>
</g>
<!-- Node4&#45;&gt;Node7 -->
<g id="edge12" class="edge"><title>Node4&#45;&gt;Node7</title>
<path fill="none" stroke="midnightblue" d="M372.839,-266.466C382.944,-262.942 393.345,-258.229 402,-252 443.272,-222.296 475.324,-170.282 490.454,-142.587"/>
<polygon fill="midnightblue" stroke="midnightblue" points="493.644,-144.043 495.248,-133.57 487.463,-140.756 493.644,-144.043"/>
</g>
<!-- Node6 -->
<g id="node11" class="node"><title>Node6</title>
<a xlink:href="../../df/d41/timer_8c.xhtml#adc3302861aee9d7f4a1c4c6d25d07343" target="_top" xlink:title="1ms &#45; 1s programmable delay">
<polygon fill="white" stroke="black" points="603,-266.5 603,-285.5 675,-285.5 675,-266.5 603,-266.5"/>
<text text-anchor="middle" x="639" y="-273.5" font-family="Helvetica,sans-Serif" font-size="10.00">timer0_delay</text>
</a>
</g>
<!-- Node5&#45;&gt;Node6 -->
<g id="edge10" class="edge"><title>Node5&#45;&gt;Node6</title>
<path fill="none" stroke="midnightblue" d="M564.03,-276C573.701,-276 583.535,-276 592.74,-276"/>
<polygon fill="midnightblue" stroke="midnightblue" points="592.823,-279.5 602.823,-276 592.823,-272.5 592.823,-279.5"/>
</g>
<!-- Node8 -->
<g id="node15" class="node"><title>Node8</title>
<a xlink:href="../../db/d85/display_8c.xhtml#a710739913e8ea1b71dd433b8311211fd" target="_top" xlink:title="write_lcd_mem">
<polygon fill="white" stroke="black" points="926.5,-85.5 926.5,-104.5 1009.5,-104.5 1009.5,-85.5 926.5,-85.5"/>
<text text-anchor="middle" x="968" y="-92.5" font-family="Helvetica,sans-Serif" font-size="10.00">write_lcd_mem</text>
</a>
</g>
<!-- Node7&#45;&gt;Node8 -->
<g id="edge14" class="edge"><title>Node7&#45;&gt;Node8</title>
<path fill="none" stroke="midnightblue" d="M543.266,-121.426C628.447,-116.114 823.509,-103.949 916.238,-98.1658"/>
<polygon fill="midnightblue" stroke="midnightblue" points="916.728,-101.642 926.491,-97.5264 916.292,-94.6557 916.728,-101.642"/>
</g>
<!-- Node10&#45;&gt;Node11 -->
<g id="edge20" class="edge"><title>Node10&#45;&gt;Node11</title>
<path fill="none" stroke="midnightblue" d="M369.285,-86C392.734,-86 423.306,-86 448.987,-86"/>
<polygon fill="midnightblue" stroke="midnightblue" points="449.292,-89.5001 459.292,-86 449.292,-82.5001 449.292,-89.5001"/>
</g>
<!-- Node12 -->
<g id="node23" class="node"><title>Node12</title>
<a xlink:href="../../db/d85/display_8c.xhtml#a6f2d5cdda31a73b43a569cb3d1a64165" target="_top" xlink:title="Displays several consecutive characters.">
<polygon fill="white" stroke="black" points="600.5,-38.5 600.5,-57.5 677.5,-57.5 677.5,-38.5 600.5,-38.5"/>
<text text-anchor="middle" x="639" y="-45.5" font-family="Helvetica,sans-Serif" font-size="10.00">display_chars</text>
</a>
</g>
<!-- Node11&#45;&gt;Node12 -->
<g id="edge22" class="edge"><title>Node11&#45;&gt;Node12</title>
<path fill="none" stroke="midnightblue" d="M536.319,-76.411C553.794,-71.5281 575.241,-65.5357 593.925,-60.315"/>
<polygon fill="midnightblue" stroke="midnightblue" points="595.003,-63.6479 603.692,-57.5859 593.119,-56.9062 595.003,-63.6479"/>
</g>
<!-- Node15 -->
<g id="node30" class="node"><title>Node15</title>
<a xlink:href="../../db/d85/display_8c.xhtml#aa537e9d11d9d4e32a82dc123616c68b2" target="_top" xlink:title="Converts an integer from a range into a percent string between 0 and 100.">
<polygon fill="white" stroke="black" points="616,-76.5 616,-95.5 662,-95.5 662,-76.5 616,-76.5"/>
<text text-anchor="middle" x="639" y="-83.5" font-family="Helvetica,sans-Serif" font-size="10.00">_itopct</text>
</a>
</g>
<!-- Node11&#45;&gt;Node15 -->
<g id="edge30" class="edge"><title>Node11&#45;&gt;Node15</title>
<path fill="none" stroke="midnightblue" d="M542.804,-86C562.912,-86 586.818,-86 605.643,-86"/>
<polygon fill="midnightblue" stroke="midnightblue" points="605.797,-89.5001 615.797,-86 605.797,-82.5001 605.797,-89.5001"/>
</g>
<!-- Node13 -->
<g id="node25" class="node"><title>Node13</title>
<a xlink:href="../../db/d85/display_8c.xhtml#a3ae30196af91197037d50cb49de1d109" target="_top" xlink:title="Displays a single character.">
<polygon fill="white" stroke="black" points="714.5,-38.5 714.5,-57.5 785.5,-57.5 785.5,-38.5 714.5,-38.5"/>
<text text-anchor="middle" x="750" y="-45.5" font-family="Helvetica,sans-Serif" font-size="10.00">display_char</text>
</a>
</g>
<!-- Node12&#45;&gt;Node13 -->
<g id="edge24" class="edge"><title>Node12&#45;&gt;Node13</title>
<path fill="none" stroke="midnightblue" d="M677.512,-48C686.098,-48 695.31,-48 704.17,-48"/>
<polygon fill="midnightblue" stroke="midnightblue" points="704.35,-51.5001 714.35,-48 704.35,-44.5001 704.35,-51.5001"/>
</g>
<!-- Node14 -->
<g id="node27" class="node"><title>Node14</title>
<a xlink:href="../../db/d85/display_8c.xhtml#a9275035317878022cf9eacf6b0a5be72" target="_top" xlink:title="Display a custom collection of segments.">
<polygon fill="white" stroke="black" points="822,-57.5 822,-76.5 890,-76.5 890,-57.5 822,-57.5"/>
<text text-anchor="middle" x="856" y="-64.5" font-family="Helvetica,sans-Serif" font-size="10.00">display_bits</text>
</a>
</g>
<!-- Node13&#45;&gt;Node14 -->
<g id="edge26" class="edge"><title>Node13&#45;&gt;Node14</title>
<path fill="none" stroke="midnightblue" d="M785.63,-54.3267C794.04,-55.863 803.133,-57.5244 811.882,-59.1226"/>
<polygon fill="midnightblue" stroke="midnightblue" points="811.465,-62.6043 821.931,-60.9585 812.723,-55.7182 811.465,-62.6043"/>
</g>
<!-- Node14&#45;&gt;Node8 -->
<g id="edge28" class="edge"><title>Node14&#45;&gt;Node8</title>
<path fill="none" stroke="midnightblue" d="M890.004,-75.4009C899.306,-77.7689 909.614,-80.3927 919.583,-82.9303"/>
<polygon fill="midnightblue" stroke="midnightblue" points="918.835,-86.3514 929.389,-85.4264 920.562,-79.5677 918.835,-86.3514"/>
</g>
<!-- Node16 -->
<g id="node32" class="node"><title>Node16</title>
<a xlink:href="../../db/d85/display_8c.xhtml#a9047d98cd15ffbc79e15c63fca36d70b" target="_top" xlink:title="pseudo sprintf function">
<polygon fill="white" stroke="black" points="725.5,-76.5 725.5,-95.5 774.5,-95.5 774.5,-76.5 725.5,-76.5"/>
<text text-anchor="middle" x="750" y="-83.5" font-family="Helvetica,sans-Serif" font-size="10.00">_sprintf</text>
</a>
</g>
<!-- Node15&#45;&gt;Node16 -->
<g id="edge32" class="edge"><title>Node15&#45;&gt;Node16</title>
<path fill="none" stroke="midnightblue" d="M662.058,-86C677.306,-86 697.882,-86 715.189,-86"/>
<polygon fill="midnightblue" stroke="midnightblue" points="715.466,-89.5001 725.466,-86 715.466,-82.5001 715.466,-89.5001"/>
</g>
<!-- Node17&#45;&gt;Node7 -->
<g id="edge50" class="edge"><title>Node17&#45;&gt;Node7</title>
<path fill="none" stroke="midnightblue" d="M212.998,-95.5725C227.559,-99.0228 244.479,-102.643 260,-105 324.62,-114.814 399.846,-119.728 448.609,-122.066"/>
<polygon fill="midnightblue" stroke="midnightblue" points="448.449,-125.562 458.6,-122.527 448.772,-118.57 448.449,-125.562"/>
</g>
<!-- Node17&#45;&gt;Node10 -->
<g id="edge42" class="edge"><title>Node17&#45;&gt;Node10</title>
<path fill="none" stroke="midnightblue" d="M223.882,-86C242.656,-86 264.138,-86 282.841,-86"/>
<polygon fill="midnightblue" stroke="midnightblue" points="282.911,-89.5001 292.911,-86 282.911,-82.5001 282.911,-89.5001"/>
</g>
<!-- Node18 -->
<g id="node38" class="node"><title>Node18</title>
<a xlink:href="../../d2/df2/openchronos_8c.xhtml#a60705ce0564ce52c1977a32cee3215c2" target="_top" xlink:title="Unregisters a node from the message bus.">
<polygon fill="white" stroke="black" points="260.5,-0.5 260.5,-19.5 401.5,-19.5 401.5,-0.5 260.5,-0.5"/>
<text text-anchor="middle" x="331" y="-7.5" font-family="Helvetica,sans-Serif" font-size="10.00">sys_messagebus_unregister</text>
</a>
</g>
<!-- Node17&#45;&gt;Node18 -->
<g id="edge40" class="edge"><title>Node17&#45;&gt;Node18</title>
<path fill="none" stroke="midnightblue" d="M187.489,-76.3585C203.011,-63.7832 231.974,-41.8744 260,-29 265.078,-26.6674 270.498,-24.5726 275.991,-22.7032"/>
<polygon fill="midnightblue" stroke="midnightblue" points="277.411,-25.9252 285.895,-19.5791 275.305,-19.2494 277.411,-25.9252"/>
</g>
<!-- Node19 -->
<g id="node41" class="node"><title>Node19</title>
<a xlink:href="../../db/d85/display_8c.xhtml#aa150336a018e90f37fd0285047b541f6" target="_top" xlink:title="Clears the screen.">
<polygon fill="white" stroke="black" points="294,-38.5 294,-57.5 368,-57.5 368,-38.5 294,-38.5"/>
<text text-anchor="middle" x="331" y="-45.5" font-family="Helvetica,sans-Serif" font-size="10.00">display_clear</text>
</a>
</g>
<!-- Node17&#45;&gt;Node19 -->
<g id="edge44" class="edge"><title>Node17&#45;&gt;Node19</title>
<path fill="none" stroke="midnightblue" d="M214.861,-76.411C235.878,-71.2249 261.967,-64.7873 283.995,-59.352"/>
<polygon fill="midnightblue" stroke="midnightblue" points="284.926,-62.7272 293.797,-56.9333 283.249,-55.931 284.926,-62.7272"/>
</g>
<!-- Node19&#45;&gt;Node7 -->
<g id="edge48" class="edge"><title>Node19&#45;&gt;Node7</title>
<path fill="none" stroke="midnightblue" d="M368.051,-53.8098C379.444,-56.6637 391.732,-60.8625 402,-67 421.969,-78.9358 418.226,-92.7431 438,-105 441.552,-107.202 445.378,-109.165 449.324,-110.912"/>
<polygon fill="midnightblue" stroke="midnightblue" points="448.088,-114.187 458.674,-114.607 450.66,-107.676 448.088,-114.187"/>
</g>
<!-- Node19&#45;&gt;Node12 -->
<g id="edge46" class="edge"><title>Node19&#45;&gt;Node12</title>
<path fill="none" stroke="midnightblue" d="M368.002,-48C423.11,-48 528.45,-48 589.998,-48"/>
<polygon fill="midnightblue" stroke="midnightblue" points="590.223,-51.5001 600.223,-48 590.222,-44.5001 590.223,-51.5001"/>
</g>
</g>
</svg>
