<?xml version="1.0" encoding="UTF-8" standalone="no"?>
<!DOCTYPE svg PUBLIC "-//W3C//DTD SVG 1.1//EN"
 "http://www.w3.org/Graphics/SVG/1.1/DTD/svg11.dtd">
<!-- Generated by graphviz version 2.28.0 (20121221.0049)
 -->
<!-- Title: modules Pages: 1 -->
<svg width="89pt" height="188pt"
 viewBox="0.00 0.00 89.00 188.00" xmlns="http://www.w3.org/2000/svg" xmlns:xlink="http://www.w3.org/1999/xlink">
<g id="graph1" class="graph" transform="scale(1 1) rotate(0) translate(4 184)">
<title>modules</title>
<polygon fill="white" stroke="white" points="-4,5 -4,-184 86,-184 86,5 -4,5"/>
<!-- dir_e05d7e2b1ecd646af5bb94391405f3b5 -->
<g id="node1" class="node"><title>dir_e05d7e2b1ecd646af5bb94391405f3b5</title>
<a xlink:href="dir_e05d7e2b1ecd646af5bb94391405f3b5.xhtml" target="_top" xlink:title="modules">
<polygon fill="#eeeeff" stroke="black" points="81,-180 27,-180 27,-144 81,-144 81,-180"/>
<text text-anchor="middle" x="54" y="-159.5" font-family="Helvetica,sans-Serif" font-size="10.00">modules</text>
</a>
</g>
<!-- dir_14bc92f4b96c8519b376567118ac28b3 -->
<g id="node2" class="node"><title>dir_14bc92f4b96c8519b376567118ac28b3</title>
<a xlink:href="dir_14bc92f4b96c8519b376567118ac28b3.xhtml" target="_top" xlink:title="drivers">
<polygon fill="none" stroke="black" points="54,-108 0,-108 0,-72 54,-72 54,-108"/>
<text text-anchor="middle" x="27" y="-87.5" font-family="Helvetica,sans-Serif" font-size="10.00">drivers</text>
</a>
</g>
<!-- dir_e05d7e2b1ecd646af5bb94391405f3b5&#45;&gt;dir_14bc92f4b96c8519b376567118ac28b3 -->
<g id="edge6" class="edge"><title>dir_e05d7e2b1ecd646af5bb94391405f3b5&#45;&gt;dir_14bc92f4b96c8519b376567118ac28b3</title>
<path fill="none" stroke="black" d="M47.3258,-143.697C44.2851,-135.813 40.6173,-126.304 37.2393,-117.546"/>
<polygon fill="black" stroke="black" points="40.4617,-116.175 33.5974,-108.104 33.9307,-118.694 40.4617,-116.175"/>
<a xlink:href="dir_000003_000002.xhtml" target="_top" xlink:title="23">
<text text-anchor="middle" x="44.4043" y="-116.007" font-family="Helvetica,sans-Serif" font-size="10.00">23</text>
</a>
</g>
<!-- dir_4270bfced15e0e73154b13468c7c9ad9 -->
<g id="node3" class="node"><title>dir_4270bfced15e0e73154b13468c7c9ad9</title>
<a xlink:href="dir_4270bfced15e0e73154b13468c7c9ad9.xhtml" target="_top" xlink:title="core">
<polygon fill="none" stroke="black" points="54,-36 0,-36 0,-0 54,-0 54,-36"/>
<text text-anchor="middle" x="27" y="-15.5" font-family="Helvetica,sans-Serif" font-size="10.00">core</text>
</a>
</g>
<!-- dir_e05d7e2b1ecd646af5bb94391405f3b5&#45;&gt;dir_4270bfced15e0e73154b13468c7c9ad9 -->
<g id="edge8" class="edge"><title>dir_e05d7e2b1ecd646af5bb94391405f3b5&#45;&gt;dir_4270bfced15e0e73154b13468c7c9ad9</title>
<path fill="none" stroke="black" d="M59.6461,-143.877C64.7573,-125.661 70.4405,-96.196 63,-72 59.9911,-62.2153 54.493,-52.6161 48.6843,-44.3336"/>
<polygon fill="black" stroke="black" points="51.4072,-42.1306 42.6099,-36.2264 45.8052,-46.3279 51.4072,-42.1306"/>
<a xlink:href="dir_000003_000001.xhtml" target="_top" xlink:title="11">
<text text-anchor="middle" x="55.8348" y="-40.8048" font-family="Helvetica,sans-Serif" font-size="10.00">11</text>
</a>
</g>
<!-- dir_14bc92f4b96c8519b376567118ac28b3&#45;&gt;dir_4270bfced15e0e73154b13468c7c9ad9 -->
<g id="edge2" class="edge"><title>dir_14bc92f4b96c8519b376567118ac28b3&#45;&gt;dir_4270bfced15e0e73154b13468c7c9ad9</title>
<path fill="none" stroke="black" d="M21.0843,-71.6966C20.2886,-63.9827 20.0621,-54.7125 20.4047,-46.1124"/>
<polygon fill="black" stroke="black" points="23.8984,-46.3243 21.105,-36.1043 16.9154,-45.8356 23.8984,-46.3243"/>
<a xlink:href="dir_000002_000001.xhtml" target="_top" xlink:title="18">
<text text-anchor="middle" x="26.4799" y="-47.6083" font-family="Helvetica,sans-Serif" font-size="10.00">18</text>
</a>
</g>
<!-- dir_4270bfced15e0e73154b13468c7c9ad9&#45;&gt;dir_14bc92f4b96c8519b376567118ac28b3 -->
<g id="edge4" class="edge"><title>dir_4270bfced15e0e73154b13468c7c9ad9&#45;&gt;dir_14bc92f4b96c8519b376567118ac28b3</title>
<path fill="none" stroke="black" d="M32.895,-36.1043C33.7005,-43.7913 33.9369,-53.0537 33.604,-61.6651"/>
<polygon fill="black" stroke="black" points="30.1085,-61.4805 32.9157,-71.6966 37.0921,-61.9597 30.1085,-61.4805"/>
<a xlink:href="dir_000001_000002.xhtml" target="_top" xlink:title="12">
<text text-anchor="middle" x="27.5219" y="-55.2" font-family="Helvetica,sans-Serif" font-size="10.00">12</text>
</a>
</g>
</g>
</svg>
