<?xml version="1.0" encoding="UTF-8" standalone="no"?>
<!DOCTYPE svg PUBLIC "-//W3C//DTD SVG 1.1//EN"
 "http://www.w3.org/Graphics/SVG/1.1/DTD/svg11.dtd">
<!-- Generated by graphviz version 2.28.0 (20121221.0049)
 -->
<!-- Title: drivers Pages: 1 -->
<svg width="90pt" height="188pt"
 viewBox="0.00 0.00 90.00 188.00" xmlns="http://www.w3.org/2000/svg" xmlns:xlink="http://www.w3.org/1999/xlink">
<g id="graph1" class="graph" transform="scale(1 1) rotate(0) translate(4 184)">
<title>drivers</title>
<polygon fill="white" stroke="white" points="-4,5 -4,-184 87,-184 87,5 -4,5"/>
<!-- dir_14bc92f4b96c8519b376567118ac28b3 -->
<g id="node1" class="node"><title>dir_14bc92f4b96c8519b376567118ac28b3</title>
<a xlink:href="dir_14bc92f4b96c8519b376567118ac28b3.xhtml" target="_top" xlink:title="drivers">
<polygon fill="#eeeeff" stroke="black" points="82,-180 28,-180 28,-144 82,-144 82,-180"/>
<text text-anchor="middle" x="55" y="-159.5" font-family="Helvetica,sans-Serif" font-size="10.00">drivers</text>
</a>
</g>
<!-- dir_9f351d46ce3cc29445a41dc3a31e6919 -->
<g id="node2" class="node"><title>dir_9f351d46ce3cc29445a41dc3a31e6919</title>
<a xlink:href="dir_9f351d46ce3cc29445a41dc3a31e6919.xhtml" target="_top" xlink:title="config">
<polygon fill="none" stroke="black" points="54,-36 0,-36 0,-0 54,-0 54,-36"/>
<text text-anchor="middle" x="27" y="-15.5" font-family="Helvetica,sans-Serif" font-size="10.00">config</text>
</a>
</g>
<!-- dir_14bc92f4b96c8519b376567118ac28b3&#45;&gt;dir_9f351d46ce3cc29445a41dc3a31e6919 -->
<g id="edge2" class="edge"><title>dir_14bc92f4b96c8519b376567118ac28b3&#45;&gt;dir_9f351d46ce3cc29445a41dc3a31e6919</title>
<path fill="none" stroke="black" d="M39.3901,-143.774C31.6271,-134.03 23.0541,-121.184 19,-108 12.7868,-87.7951 15.4541,-63.8851 19.3085,-45.9382"/>
<polygon fill="black" stroke="black" points="22.7313,-46.6736 21.657,-36.1334 15.9239,-45.043 22.7313,-46.6736"/>
<a xlink:href="dir_000002_000000.xhtml" target="_top" xlink:title="1">
<text text-anchor="middle" x="24.6552" y="-48.3307" font-family="Helvetica,sans-Serif" font-size="10.00">1</text>
</a>
</g>
<!-- dir_4270bfced15e0e73154b13468c7c9ad9 -->
<g id="node3" class="node"><title>dir_4270bfced15e0e73154b13468c7c9ad9</title>
<a xlink:href="dir_4270bfced15e0e73154b13468c7c9ad9.xhtml" target="_top" xlink:title="core">
<polygon fill="none" stroke="black" points="82,-108 28,-108 28,-72 82,-72 82,-108"/>
<text text-anchor="middle" x="55" y="-87.5" font-family="Helvetica,sans-Serif" font-size="10.00">core</text>
</a>
</g>
<!-- dir_14bc92f4b96c8519b376567118ac28b3&#45;&gt;dir_4270bfced15e0e73154b13468c7c9ad9 -->
<g id="edge4" class="edge"><title>dir_14bc92f4b96c8519b376567118ac28b3&#45;&gt;dir_4270bfced15e0e73154b13468c7c9ad9</title>
<path fill="none" stroke="black" d="M49.0843,-143.697C48.2886,-135.983 48.0621,-126.712 48.4047,-118.112"/>
<polygon fill="black" stroke="black" points="51.8984,-118.324 49.105,-108.104 44.9154,-117.836 51.8984,-118.324"/>
<a xlink:href="dir_000002_000001.xhtml" target="_top" xlink:title="18">
<text text-anchor="middle" x="54.4799" y="-119.608" font-family="Helvetica,sans-Serif" font-size="10.00">18</text>
</a>
</g>
<!-- dir_4270bfced15e0e73154b13468c7c9ad9&#45;&gt;dir_14bc92f4b96c8519b376567118ac28b3 -->
<g id="edge8" class="edge"><title>dir_4270bfced15e0e73154b13468c7c9ad9&#45;&gt;dir_14bc92f4b96c8519b376567118ac28b3</title>
<path fill="none" stroke="black" d="M60.895,-108.104C61.7005,-115.791 61.9369,-125.054 61.604,-133.665"/>
<polygon fill="black" stroke="black" points="58.1085,-133.48 60.9157,-143.697 65.0921,-133.96 58.1085,-133.48"/>
<a xlink:href="dir_000001_000002.xhtml" target="_top" xlink:title="12">
<text text-anchor="middle" x="55.5219" y="-127.2" font-family="Helvetica,sans-Serif" font-size="10.00">12</text>
</a>
</g>
<!-- dir_4270bfced15e0e73154b13468c7c9ad9&#45;&gt;dir_9f351d46ce3cc29445a41dc3a31e6919 -->
<g id="edge6" class="edge"><title>dir_4270bfced15e0e73154b13468c7c9ad9&#45;&gt;dir_9f351d46ce3cc29445a41dc3a31e6919</title>
<path fill="none" stroke="black" d="M48.0786,-71.6966C44.9253,-63.8132 41.1217,-54.3042 37.6186,-45.5464"/>
<polygon fill="black" stroke="black" points="40.8054,-44.0892 33.8417,-36.1043 34.306,-46.689 40.8054,-44.0892"/>
<a xlink:href="dir_000001_000000.xhtml" target="_top" xlink:title="1">
<text text-anchor="middle" x="44.7765" y="-43.8723" font-family="Helvetica,sans-Serif" font-size="10.00">1</text>
</a>
</g>
</g>
</svg>
