<?xml version="1.0" encoding="UTF-8" standalone="no"?>
<!DOCTYPE svg PUBLIC "-//W3C//DTD SVG 1.1//EN"
 "http://www.w3.org/Graphics/SVG/1.1/DTD/svg11.dtd">
<!-- Generated by graphviz version 2.28.0 (20121221.0049)
 -->
<!-- Title: Strobe Pages: 1 -->
<svg width="176pt" height="66pt"
 viewBox="0.00 0.00 176.00 66.00" xmlns="http://www.w3.org/2000/svg" xmlns:xlink="http://www.w3.org/1999/xlink">
<g id="graph1" class="graph" transform="scale(1 1) rotate(0) translate(4 62)">
<title>Strobe</title>
<polygon fill="white" stroke="white" points="-4,5 -4,-62 173,-62 173,5 -4,5"/>
<!-- Node1 -->
<g id="node1" class="node"><title>Node1</title>
<polygon fill="#bfbfbf" stroke="black" points="0.5,-19.5 0.5,-38.5 45.5,-38.5 45.5,-19.5 0.5,-19.5"/>
<text text-anchor="middle" x="23" y="-26.5" font-family="Helvetica,sans-Serif" font-size="10.00">Strobe</text>
</g>
<!-- Node2 -->
<g id="node3" class="node"><title>Node2</title>
<a xlink:href="../../d6/dc2/rf1a_8c.xhtml#a2054867692e5cbdbb05e4e259f9f6638" target="_top" xlink:title="ReadSingleReg">
<polygon fill="white" stroke="black" points="82.5,-38.5 82.5,-57.5 167.5,-57.5 167.5,-38.5 82.5,-38.5"/>
<text text-anchor="middle" x="125" y="-45.5" font-family="Helvetica,sans-Serif" font-size="10.00">ReadSingleReg</text>
</a>
</g>
<!-- Node1&#45;&gt;Node2 -->
<g id="edge2" class="edge"><title>Node1&#45;&gt;Node2</title>
<path fill="none" stroke="midnightblue" d="M45.6985,-33.1227C53.5449,-34.6135 62.7777,-36.3678 72.0987,-38.1388"/>
<polygon fill="midnightblue" stroke="midnightblue" points="71.7087,-41.6272 82.1862,-40.0554 73.0153,-34.7502 71.7087,-41.6272"/>
</g>
<!-- Node3 -->
<g id="node5" class="node"><title>Node3</title>
<a xlink:href="../../d6/dc2/rf1a_8c.xhtml#abcff9c644002de49b819433c321f3e82" target="_top" xlink:title="WriteSingleReg">
<polygon fill="white" stroke="black" points="82.5,-0.5 82.5,-19.5 167.5,-19.5 167.5,-0.5 82.5,-0.5"/>
<text text-anchor="middle" x="125" y="-7.5" font-family="Helvetica,sans-Serif" font-size="10.00">WriteSingleReg</text>
</a>
</g>
<!-- Node1&#45;&gt;Node3 -->
<g id="edge4" class="edge"><title>Node1&#45;&gt;Node3</title>
<path fill="none" stroke="midnightblue" d="M45.6985,-24.8773C53.5449,-23.3865 62.7777,-21.6322 72.0987,-19.8612"/>
<polygon fill="midnightblue" stroke="midnightblue" points="73.0153,-23.2498 82.1862,-17.9446 71.7087,-16.3728 73.0153,-23.2498"/>
</g>
</g>
</svg>
