<?xml version="1.0" encoding="UTF-8" standalone="no"?>
<!DOCTYPE svg PUBLIC "-//W3C//DTD SVG 1.1//EN"
 "http://www.w3.org/Graphics/SVG/1.1/DTD/svg11.dtd">
<!-- Generated by graphviz version 2.28.0 (20121221.0049)
 -->
<!-- Title: ResetRadioCore Pages: 1 -->
<svg width="302pt" height="66pt"
 viewBox="0.00 0.00 302.00 66.00" xmlns="http://www.w3.org/2000/svg" xmlns:xlink="http://www.w3.org/1999/xlink">
<g id="graph1" class="graph" transform="scale(1 1) rotate(0) translate(4 62)">
<title>ResetRadioCore</title>
<polygon fill="white" stroke="white" points="-4,5 -4,-62 299,-62 299,5 -4,5"/>
<!-- Node1 -->
<g id="node1" class="node"><title>Node1</title>
<polygon fill="#bfbfbf" stroke="black" points="0.5,-19.5 0.5,-38.5 89.5,-38.5 89.5,-19.5 0.5,-19.5"/>
<text text-anchor="middle" x="45" y="-26.5" font-family="Helvetica,sans-Serif" font-size="10.00">ResetRadioCore</text>
</g>
<!-- Node2 -->
<g id="node3" class="node"><title>Node2</title>
<a xlink:href="../../d6/dc2/rf1a_8c.xhtml#a945d18674a1ebb9b90e50dd79c1b616d" target="_top" xlink:title="Strobe">
<polygon fill="white" stroke="black" points="126.5,-19.5 126.5,-38.5 171.5,-38.5 171.5,-19.5 126.5,-19.5"/>
<text text-anchor="middle" x="149" y="-26.5" font-family="Helvetica,sans-Serif" font-size="10.00">Strobe</text>
</a>
</g>
<!-- Node1&#45;&gt;Node2 -->
<g id="edge2" class="edge"><title>Node1&#45;&gt;Node2</title>
<path fill="none" stroke="midnightblue" d="M89.553,-29C98.5381,-29 107.838,-29 116.306,-29"/>
<polygon fill="midnightblue" stroke="midnightblue" points="116.499,-32.5001 126.499,-29 116.499,-25.5001 116.499,-32.5001"/>
</g>
<!-- Node3 -->
<g id="node5" class="node"><title>Node3</title>
<a xlink:href="../../d6/dc2/rf1a_8c.xhtml#a2054867692e5cbdbb05e4e259f9f6638" target="_top" xlink:title="ReadSingleReg">
<polygon fill="white" stroke="black" points="208.5,-38.5 208.5,-57.5 293.5,-57.5 293.5,-38.5 208.5,-38.5"/>
<text text-anchor="middle" x="251" y="-45.5" font-family="Helvetica,sans-Serif" font-size="10.00">ReadSingleReg</text>
</a>
</g>
<!-- Node2&#45;&gt;Node3 -->
<g id="edge4" class="edge"><title>Node2&#45;&gt;Node3</title>
<path fill="none" stroke="midnightblue" d="M171.699,-33.1227C179.545,-34.6135 188.778,-36.3678 198.099,-38.1388"/>
<polygon fill="midnightblue" stroke="midnightblue" points="197.709,-41.6272 208.186,-40.0554 199.015,-34.7502 197.709,-41.6272"/>
</g>
<!-- Node4 -->
<g id="node7" class="node"><title>Node4</title>
<a xlink:href="../../d6/dc2/rf1a_8c.xhtml#abcff9c644002de49b819433c321f3e82" target="_top" xlink:title="WriteSingleReg">
<polygon fill="white" stroke="black" points="208.5,-0.5 208.5,-19.5 293.5,-19.5 293.5,-0.5 208.5,-0.5"/>
<text text-anchor="middle" x="251" y="-7.5" font-family="Helvetica,sans-Serif" font-size="10.00">WriteSingleReg</text>
</a>
</g>
<!-- Node2&#45;&gt;Node4 -->
<g id="edge6" class="edge"><title>Node2&#45;&gt;Node4</title>
<path fill="none" stroke="midnightblue" d="M171.699,-24.8773C179.545,-23.3865 188.778,-21.6322 198.099,-19.8612"/>
<polygon fill="midnightblue" stroke="midnightblue" points="199.015,-23.2498 208.186,-17.9446 197.709,-16.3728 199.015,-23.2498"/>
</g>
</g>
</svg>
