<?xml version="1.0" encoding="UTF-8" standalone="no"?>
<!DOCTYPE svg PUBLIC "-//W3C//DTD SVG 1.1//EN"
 "http://www.w3.org/Graphics/SVG/1.1/DTD/svg11.dtd">
<!-- Generated by graphviz version 2.28.0 (20121221.0049)
 -->
<!-- Title: drivers/temperature.c Pages: 1 -->
<svg width="360pt" height="196pt"
 viewBox="0.00 0.00 360.00 196.00" xmlns="http://www.w3.org/2000/svg" xmlns:xlink="http://www.w3.org/1999/xlink">
<g id="graph1" class="graph" transform="scale(1 1) rotate(0) translate(4 192)">
<title>drivers/temperature.c</title>
<polygon fill="white" stroke="white" points="-4,5 -4,-192 357,-192 357,5 -4,5"/>
<!-- Node1 -->
<g id="node1" class="node"><title>Node1</title>
<polygon fill="#bfbfbf" stroke="black" points="133.5,-168.5 133.5,-187.5 242.5,-187.5 242.5,-168.5 133.5,-168.5"/>
<text text-anchor="middle" x="188" y="-175.5" font-family="Helvetica,sans-Serif" font-size="10.00">drivers/temperature.c</text>
</g>
<!-- Node2 -->
<g id="node3" class="node"><title>Node2</title>
<a xlink:href="../../d6/d91/temperature_8h.xhtml" target="_top" xlink:title="temperature.h">
<polygon fill="white" stroke="black" points="-0.5,-112.5 -0.5,-131.5 76.5,-131.5 76.5,-112.5 -0.5,-112.5"/>
<text text-anchor="middle" x="38" y="-119.5" font-family="Helvetica,sans-Serif" font-size="10.00">temperature.h</text>
</a>
</g>
<!-- Node1&#45;&gt;Node2 -->
<g id="edge2" class="edge"><title>Node1&#45;&gt;Node2</title>
<path fill="none" stroke="midnightblue" d="M164.232,-168.444C139.107,-159.399 99.289,-145.064 71.0996,-134.916"/>
<polygon fill="midnightblue" stroke="midnightblue" points="72.2512,-131.611 61.6567,-131.516 69.8801,-138.197 72.2512,-131.611"/>
</g>
<!-- Node7 -->
<g id="node13" class="node"><title>Node7</title>
<a xlink:href="../../d2/d54/ports_8h.xhtml" target="_top" xlink:title="ports.h">
<polygon fill="white" stroke="black" points="94.5,-112.5 94.5,-131.5 141.5,-131.5 141.5,-112.5 94.5,-112.5"/>
<text text-anchor="middle" x="118" y="-119.5" font-family="Helvetica,sans-Serif" font-size="10.00">ports.h</text>
</a>
</g>
<!-- Node1&#45;&gt;Node7 -->
<g id="edge12" class="edge"><title>Node1&#45;&gt;Node7</title>
<path fill="none" stroke="midnightblue" d="M176.753,-168.324C166.203,-160.185 150.199,-147.839 137.558,-138.087"/>
<polygon fill="midnightblue" stroke="midnightblue" points="139.507,-135.171 129.451,-131.834 135.231,-140.713 139.507,-135.171"/>
</g>
<!-- Node8 -->
<g id="node15" class="node"><title>Node8</title>
<a xlink:href="../../d4/d68/display_8h.xhtml" target="_top" xlink:title="Display driver.">
<polygon fill="white" stroke="black" points="160,-112.5 160,-131.5 216,-131.5 216,-112.5 160,-112.5"/>
<text text-anchor="middle" x="188" y="-119.5" font-family="Helvetica,sans-Serif" font-size="10.00">display.h</text>
</a>
</g>
<!-- Node1&#45;&gt;Node8 -->
<g id="edge14" class="edge"><title>Node1&#45;&gt;Node8</title>
<path fill="none" stroke="midnightblue" d="M188,-168.083C188,-161.006 188,-150.861 188,-141.986"/>
<polygon fill="midnightblue" stroke="midnightblue" points="191.5,-141.751 188,-131.751 184.5,-141.751 191.5,-141.751"/>
</g>
<!-- Node9 -->
<g id="node18" class="node"><title>Node9</title>
<a xlink:href="../../d1/d67/adc12_8h.xhtml" target="_top" xlink:title="ADC12 header file.">
<polygon fill="white" stroke="black" points="234.5,-112.5 234.5,-131.5 285.5,-131.5 285.5,-112.5 234.5,-112.5"/>
<text text-anchor="middle" x="260" y="-119.5" font-family="Helvetica,sans-Serif" font-size="10.00">adc12.h</text>
</a>
</g>
<!-- Node1&#45;&gt;Node9 -->
<g id="edge18" class="edge"><title>Node1&#45;&gt;Node9</title>
<path fill="none" stroke="midnightblue" d="M199.568,-168.324C210.42,-160.185 226.881,-147.839 239.883,-138.087"/>
<polygon fill="midnightblue" stroke="midnightblue" points="242.321,-140.634 248.221,-131.834 238.121,-135.034 242.321,-140.634"/>
</g>
<!-- Node10 -->
<g id="node21" class="node"><title>Node10</title>
<a xlink:href="../../d5/dd0/timer_8h.xhtml" target="_top" xlink:title="openchronos&#45;ng timer driver">
<polygon fill="white" stroke="black" points="303.5,-112.5 303.5,-131.5 350.5,-131.5 350.5,-112.5 303.5,-112.5"/>
<text text-anchor="middle" x="327" y="-119.5" font-family="Helvetica,sans-Serif" font-size="10.00">timer.h</text>
</a>
</g>
<!-- Node1&#45;&gt;Node10 -->
<g id="edge22" class="edge"><title>Node1&#45;&gt;Node10</title>
<path fill="none" stroke="midnightblue" d="M210.025,-168.444C233.104,-159.478 269.562,-145.314 295.641,-135.183"/>
<polygon fill="midnightblue" stroke="midnightblue" points="297.024,-138.4 305.078,-131.516 294.489,-131.875 297.024,-138.4"/>
</g>
<!-- Node3 -->
<g id="node5" class="node"><title>Node3</title>
<a xlink:href="../../d9/d95/openchronos_8h.xhtml" target="_top" xlink:title="Main include file.">
<polygon fill="white" stroke="black" points="173,-56.5 173,-75.5 275,-75.5 275,-56.5 173,-56.5"/>
<text text-anchor="middle" x="224" y="-63.5" font-family="Helvetica,sans-Serif" font-size="10.00">core/openchronos.h</text>
</a>
</g>
<!-- Node2&#45;&gt;Node3 -->
<g id="edge4" class="edge"><title>Node2&#45;&gt;Node3</title>
<path fill="none" stroke="midnightblue" d="M67.4723,-112.444C99.1712,-103.241 149.732,-88.5617 184.775,-78.3879"/>
<polygon fill="midnightblue" stroke="midnightblue" points="186.038,-81.6658 194.666,-75.5164 184.086,-74.9434 186.038,-81.6658"/>
</g>
<!-- Node4 -->
<g id="node7" class="node"><title>Node4</title>
<polygon fill="white" stroke="#bfbfbf" points="128,-0.5 128,-19.5 176,-19.5 176,-0.5 128,-0.5"/>
<text text-anchor="middle" x="152" y="-7.5" font-family="Helvetica,sans-Serif" font-size="10.00">stdlib.h</text>
</g>
<!-- Node3&#45;&gt;Node4 -->
<g id="edge6" class="edge"><title>Node3&#45;&gt;Node4</title>
<path fill="none" stroke="midnightblue" d="M212.432,-56.324C201.58,-48.1849 185.119,-35.8395 172.117,-26.0874"/>
<polygon fill="midnightblue" stroke="midnightblue" points="173.879,-23.0339 163.779,-19.8339 169.679,-28.6339 173.879,-23.0339"/>
</g>
<!-- Node5 -->
<g id="node9" class="node"><title>Node5</title>
<polygon fill="white" stroke="#bfbfbf" points="194.5,-0.5 194.5,-19.5 253.5,-19.5 253.5,-0.5 194.5,-0.5"/>
<text text-anchor="middle" x="224" y="-7.5" font-family="Helvetica,sans-Serif" font-size="10.00">msp430.h</text>
</g>
<!-- Node3&#45;&gt;Node5 -->
<g id="edge8" class="edge"><title>Node3&#45;&gt;Node5</title>
<path fill="none" stroke="midnightblue" d="M224,-56.083C224,-49.0059 224,-38.8611 224,-29.9865"/>
<polygon fill="midnightblue" stroke="midnightblue" points="227.5,-29.751 224,-19.7511 220.5,-29.7511 227.5,-29.751"/>
</g>
<!-- Node6 -->
<g id="node11" class="node"><title>Node6</title>
<a xlink:href="../../db/d16/config_8h.xhtml" target="_top" xlink:title="config/config.h">
<polygon fill="white" stroke="black" points="272,-0.5 272,-19.5 352,-19.5 352,-0.5 272,-0.5"/>
<text text-anchor="middle" x="312" y="-7.5" font-family="Helvetica,sans-Serif" font-size="10.00">config/config.h</text>
</a>
</g>
<!-- Node3&#45;&gt;Node6 -->
<g id="edge10" class="edge"><title>Node3&#45;&gt;Node6</title>
<path fill="none" stroke="midnightblue" d="M238.139,-56.324C251.866,-47.9002 272.936,-34.9709 289.064,-25.0741"/>
<polygon fill="midnightblue" stroke="midnightblue" points="291.204,-27.8678 297.896,-19.6545 287.543,-21.9016 291.204,-27.8678"/>
</g>
<!-- Node8&#45;&gt;Node3 -->
<g id="edge16" class="edge"><title>Node8&#45;&gt;Node3</title>
<path fill="none" stroke="midnightblue" d="M193.945,-112.083C198.977,-104.534 206.337,-93.4948 212.513,-84.2298"/>
<polygon fill="midnightblue" stroke="midnightblue" points="215.531,-86.0131 218.166,-75.7511 209.707,-82.1301 215.531,-86.0131"/>
</g>
<!-- Node9&#45;&gt;Node3 -->
<g id="edge20" class="edge"><title>Node9&#45;&gt;Node3</title>
<path fill="none" stroke="midnightblue" d="M254.055,-112.083C249.023,-104.534 241.663,-93.4948 235.487,-84.2298"/>
<polygon fill="midnightblue" stroke="midnightblue" points="238.293,-82.1301 229.834,-75.7511 232.469,-86.0131 238.293,-82.1301"/>
</g>
<!-- Node10&#45;&gt;Node3 -->
<g id="edge24" class="edge"><title>Node10&#45;&gt;Node3</title>
<path fill="none" stroke="midnightblue" d="M310.451,-112.324C294.008,-103.703 268.565,-90.3643 249.532,-80.3855"/>
<polygon fill="midnightblue" stroke="midnightblue" points="250.989,-77.198 240.508,-75.6545 247.739,-83.3977 250.989,-77.198"/>
</g>
</g>
</svg>
