<?xml version="1.0" encoding="UTF-8" standalone="no"?>
<!DOCTYPE svg PUBLIC "-//W3C//DTD SVG 1.1//EN"
 "http://www.w3.org/Graphics/SVG/1.1/DTD/svg11.dtd">
<!-- Generated by graphviz version 2.28.0 (20121221.0049)
 -->
<!-- Title: drivers/battery.h Pages: 1 -->
<svg width="429pt" height="84pt"
 viewBox="0.00 0.00 429.00 84.00" xmlns="http://www.w3.org/2000/svg" xmlns:xlink="http://www.w3.org/1999/xlink">
<g id="graph1" class="graph" transform="scale(1 1) rotate(0) translate(4 80)">
<title>drivers/battery.h</title>
<polygon fill="white" stroke="white" points="-4,5 -4,-80 426,-80 426,5 -4,5"/>
<!-- Node1 -->
<g id="node1" class="node"><title>Node1</title>
<polygon fill="#bfbfbf" stroke="black" points="174.5,-56.5 174.5,-75.5 261.5,-75.5 261.5,-56.5 174.5,-56.5"/>
<text text-anchor="middle" x="218" y="-63.5" font-family="Helvetica,sans-Serif" font-size="10.00">drivers/battery.h</text>
</g>
<!-- Node2 -->
<g id="node3" class="node"><title>Node2</title>
<a xlink:href="../../d2/df2/openchronos_8c.xhtml" target="_top" xlink:title="Main loop &amp; user interface.">
<polygon fill="white" stroke="black" points="0,-0.5 0,-19.5 102,-19.5 102,-0.5 0,-0.5"/>
<text text-anchor="middle" x="51" y="-7.5" font-family="Helvetica,sans-Serif" font-size="10.00">core/openchronos.c</text>
</a>
</g>
<!-- Node1&#45;&gt;Node2 -->
<g id="edge2" class="edge"><title>Node1&#45;&gt;Node2</title>
<path fill="none" stroke="midnightblue" d="M181.83,-53.3044C150.363,-43.1294 105.506,-28.6246 77.3378,-19.5164"/>
<polygon fill="midnightblue" stroke="midnightblue" points="180.947,-56.697 191.538,-56.4435 183.1,-50.0366 180.947,-56.697"/>
</g>
<!-- Node3 -->
<g id="node5" class="node"><title>Node3</title>
<a xlink:href="../../de/dd8/drivers_2battery_8c.xhtml" target="_top" xlink:title="Battery voltage measurement driver.">
<polygon fill="white" stroke="black" points="120.5,-0.5 120.5,-19.5 207.5,-19.5 207.5,-0.5 120.5,-0.5"/>
<text text-anchor="middle" x="164" y="-7.5" font-family="Helvetica,sans-Serif" font-size="10.00">drivers/battery.c</text>
</a>
</g>
<!-- Node1&#45;&gt;Node3 -->
<g id="edge4" class="edge"><title>Node1&#45;&gt;Node3</title>
<path fill="none" stroke="midnightblue" d="M202.002,-49.0024C192.433,-39.4329 180.639,-27.6389 172.751,-19.7511"/>
<polygon fill="midnightblue" stroke="midnightblue" points="199.537,-51.4868 209.083,-56.083 204.487,-46.537 199.537,-51.4868"/>
</g>
<!-- Node4 -->
<g id="node7" class="node"><title>Node4</title>
<a xlink:href="../../d8/d7f/modules_2battery_8c.xhtml" target="_top" xlink:title="modules/battery.c">
<polygon fill="white" stroke="black" points="225.5,-0.5 225.5,-19.5 320.5,-19.5 320.5,-0.5 225.5,-0.5"/>
<text text-anchor="middle" x="273" y="-7.5" font-family="Helvetica,sans-Serif" font-size="10.00">modules/battery.c</text>
</a>
</g>
<!-- Node1&#45;&gt;Node4 -->
<g id="edge6" class="edge"><title>Node1&#45;&gt;Node4</title>
<path fill="none" stroke="midnightblue" d="M234.294,-49.0024C244.041,-39.4329 256.053,-27.6389 264.087,-19.7511"/>
<polygon fill="midnightblue" stroke="midnightblue" points="231.766,-46.5796 227.082,-56.083 236.67,-51.5746 231.766,-46.5796"/>
</g>
<!-- Node5 -->
<g id="node9" class="node"><title>Node5</title>
<a xlink:href="../../d1/dc6/rfbsl_8c.xhtml" target="_top" xlink:title="modules/rfbsl.c">
<polygon fill="white" stroke="black" points="338.5,-0.5 338.5,-19.5 421.5,-19.5 421.5,-0.5 338.5,-0.5"/>
<text text-anchor="middle" x="380" y="-7.5" font-family="Helvetica,sans-Serif" font-size="10.00">modules/rfbsl.c</text>
</a>
</g>
<!-- Node1&#45;&gt;Node5 -->
<g id="edge8" class="edge"><title>Node1&#45;&gt;Node5</title>
<path fill="none" stroke="midnightblue" d="M253.484,-53.172C283.988,-43.0039 327.245,-28.5852 354.451,-19.5164"/>
<polygon fill="midnightblue" stroke="midnightblue" points="252.049,-49.9608 243.669,-56.4435 254.263,-56.6016 252.049,-49.9608"/>
</g>
</g>
</svg>
