<?xml version="1.0" encoding="UTF-8" standalone="no"?>
<!DOCTYPE svg PUBLIC "-//W3C//DTD SVG 1.1//EN"
 "http://www.w3.org/Graphics/SVG/1.1/DTD/svg11.dtd">
<!-- Generated by graphviz version 2.28.0 (20121221.0049)
 -->
<!-- Title: display_clear Pages: 1 -->
<svg width="540pt" height="66pt"
 viewBox="0.00 0.00 540.00 66.00" xmlns="http://www.w3.org/2000/svg" xmlns:xlink="http://www.w3.org/1999/xlink">
<g id="graph1" class="graph" transform="scale(1 1) rotate(0) translate(4 62)">
<title>display_clear</title>
<polygon fill="white" stroke="white" points="-4,5 -4,-62 537,-62 537,5 -4,5"/>
<!-- Node1 -->
<g id="node1" class="node"><title>Node1</title>
<polygon fill="#bfbfbf" stroke="black" points="0,-19.5 0,-38.5 74,-38.5 74,-19.5 0,-19.5"/>
<text text-anchor="middle" x="37" y="-26.5" font-family="Helvetica,sans-Serif" font-size="10.00">display_clear</text>
</g>
<!-- Node2 -->
<g id="node3" class="node"><title>Node2</title>
<a xlink:href="../../db/d85/display_8c.xhtml#a6f2d5cdda31a73b43a569cb3d1a64165" target="_top" xlink:title="Displays several consecutive characters.">
<polygon fill="white" stroke="black" points="110.5,-38.5 110.5,-57.5 187.5,-57.5 187.5,-38.5 110.5,-38.5"/>
<text text-anchor="middle" x="149" y="-45.5" font-family="Helvetica,sans-Serif" font-size="10.00">display_chars</text>
</a>
</g>
<!-- Node1&#45;&gt;Node2 -->
<g id="edge2" class="edge"><title>Node1&#45;&gt;Node2</title>
<path fill="none" stroke="midnightblue" d="M74.0181,-35.2213C82.4857,-36.6839 91.6374,-38.2646 100.522,-39.7993"/>
<polygon fill="midnightblue" stroke="midnightblue" points="99.9396,-43.2504 110.389,-41.5036 101.131,-36.3526 99.9396,-43.2504"/>
</g>
<!-- Node6 -->
<g id="node11" class="node"><title>Node6</title>
<a xlink:href="../../db/d85/display_8c.xhtml#af604e78dcc4e0f1a204b2180c5e54957" target="_top" xlink:title="Displays a symbol.">
<polygon fill="white" stroke="black" points="224,-0.5 224,-19.5 308,-19.5 308,-0.5 224,-0.5"/>
<text text-anchor="middle" x="266" y="-7.5" font-family="Helvetica,sans-Serif" font-size="10.00">display_symbol</text>
</a>
</g>
<!-- Node1&#45;&gt;Node6 -->
<g id="edge10" class="edge"><title>Node1&#45;&gt;Node6</title>
<path fill="none" stroke="midnightblue" d="M74.2198,-25.9684C111.918,-22.8131 171.277,-17.8447 213.77,-14.288"/>
<polygon fill="midnightblue" stroke="midnightblue" points="214.242,-17.7608 223.916,-13.4388 213.659,-10.7852 214.242,-17.7608"/>
</g>
<!-- Node3 -->
<g id="node5" class="node"><title>Node3</title>
<a xlink:href="../../db/d85/display_8c.xhtml#a3ae30196af91197037d50cb49de1d109" target="_top" xlink:title="Displays a single character.">
<polygon fill="white" stroke="black" points="230.5,-38.5 230.5,-57.5 301.5,-57.5 301.5,-38.5 230.5,-38.5"/>
<text text-anchor="middle" x="266" y="-45.5" font-family="Helvetica,sans-Serif" font-size="10.00">display_char</text>
</a>
</g>
<!-- Node2&#45;&gt;Node3 -->
<g id="edge4" class="edge"><title>Node2&#45;&gt;Node3</title>
<path fill="none" stroke="midnightblue" d="M187.655,-48C198.08,-48 209.496,-48 220.281,-48"/>
<polygon fill="midnightblue" stroke="midnightblue" points="220.374,-51.5001 230.374,-48 220.374,-44.5001 220.374,-51.5001"/>
</g>
<!-- Node4 -->
<g id="node7" class="node"><title>Node4</title>
<a xlink:href="../../db/d85/display_8c.xhtml#a9275035317878022cf9eacf6b0a5be72" target="_top" xlink:title="Display a custom collection of segments.">
<polygon fill="white" stroke="black" points="344,-38.5 344,-57.5 412,-57.5 412,-38.5 344,-38.5"/>
<text text-anchor="middle" x="378" y="-45.5" font-family="Helvetica,sans-Serif" font-size="10.00">display_bits</text>
</a>
</g>
<!-- Node3&#45;&gt;Node4 -->
<g id="edge6" class="edge"><title>Node3&#45;&gt;Node4</title>
<path fill="none" stroke="midnightblue" d="M301.503,-48C311.721,-48 323.04,-48 333.738,-48"/>
<polygon fill="midnightblue" stroke="midnightblue" points="333.748,-51.5001 343.748,-48 333.748,-44.5001 333.748,-51.5001"/>
</g>
<!-- Node5 -->
<g id="node9" class="node"><title>Node5</title>
<a xlink:href="../../db/d85/display_8c.xhtml#a710739913e8ea1b71dd433b8311211fd" target="_top" xlink:title="write_lcd_mem">
<polygon fill="white" stroke="black" points="448.5,-19.5 448.5,-38.5 531.5,-38.5 531.5,-19.5 448.5,-19.5"/>
<text text-anchor="middle" x="490" y="-26.5" font-family="Helvetica,sans-Serif" font-size="10.00">write_lcd_mem</text>
</a>
</g>
<!-- Node4&#45;&gt;Node5 -->
<g id="edge8" class="edge"><title>Node4&#45;&gt;Node5</title>
<path fill="none" stroke="midnightblue" d="M412.004,-42.2994C420.28,-40.8698 429.352,-39.3029 438.273,-37.762"/>
<polygon fill="midnightblue" stroke="midnightblue" points="438.972,-41.1931 448.231,-36.042 437.781,-34.2952 438.972,-41.1931"/>
</g>
<!-- Node6&#45;&gt;Node5 -->
<g id="edge12" class="edge"><title>Node6&#45;&gt;Node5</title>
<path fill="none" stroke="midnightblue" d="M308.236,-13.5292C344.955,-16.6718 398.802,-21.2804 438.174,-24.65"/>
<polygon fill="midnightblue" stroke="midnightblue" points="438.097,-28.1562 448.359,-25.5218 438.694,-21.1817 438.097,-28.1562"/>
</g>
</g>
</svg>
