<?xml version="1.0" encoding="UTF-8" standalone="no"?>
<!DOCTYPE svg PUBLIC "-//W3C//DTD SVG 1.1//EN"
 "http://www.w3.org/Graphics/SVG/1.1/DTD/svg11.dtd">
<!-- Generated by graphviz version 2.28.0 (20121221.0049)
 -->
<!-- Title: drivers/ports.c Pages: 1 -->
<svg width="238pt" height="196pt"
 viewBox="0.00 0.00 237.80 196.00" xmlns="http://www.w3.org/2000/svg" xmlns:xlink="http://www.w3.org/1999/xlink">
<g id="graph1" class="graph" transform="scale(1 1) rotate(0) translate(4 192)">
<title>drivers/ports.c</title>
<polygon fill="white" stroke="white" points="-4,5 -4,-192 234.797,-192 234.797,5 -4,5"/>
<!-- Node1 -->
<g id="node1" class="node"><title>Node1</title>
<polygon fill="#bfbfbf" stroke="black" points="29.2972,-168.5 29.2972,-187.5 108.297,-187.5 108.297,-168.5 29.2972,-168.5"/>
<text text-anchor="middle" x="68.7972" y="-175.5" font-family="Helvetica,sans-Serif" font-size="10.00">drivers/ports.c</text>
</g>
<!-- Node2 -->
<g id="node3" class="node"><title>Node2</title>
<a xlink:href="../../d9/d95/openchronos_8h.xhtml" target="_top" xlink:title="Main include file.">
<polygon fill="white" stroke="black" points="50.7972,-56.5 50.7972,-75.5 152.797,-75.5 152.797,-56.5 50.7972,-56.5"/>
<text text-anchor="middle" x="101.797" y="-63.5" font-family="Helvetica,sans-Serif" font-size="10.00">core/openchronos.h</text>
</a>
</g>
<!-- Node1&#45;&gt;Node2 -->
<g id="edge2" class="edge"><title>Node1&#45;&gt;Node2</title>
<path fill="none" stroke="midnightblue" d="M48.449,-168.46C24.2234,-157.004 -11.1916,-135.376 3.79718,-112 14.0717,-95.9762 31.6428,-85.5824 49.0942,-78.874"/>
<polygon fill="midnightblue" stroke="midnightblue" points="50.44,-82.1114 58.7299,-75.5139 48.1351,-75.5018 50.44,-82.1114"/>
</g>
<!-- Node6 -->
<g id="node11" class="node"><title>Node6</title>
<a xlink:href="../../d2/d54/ports_8h.xhtml" target="_top" xlink:title="ports.h">
<polygon fill="white" stroke="black" points="13.2972,-112.5 13.2972,-131.5 60.2972,-131.5 60.2972,-112.5 13.2972,-112.5"/>
<text text-anchor="middle" x="36.7972" y="-119.5" font-family="Helvetica,sans-Serif" font-size="10.00">ports.h</text>
</a>
</g>
<!-- Node1&#45;&gt;Node6 -->
<g id="edge10" class="edge"><title>Node1&#45;&gt;Node6</title>
<path fill="none" stroke="midnightblue" d="M63.513,-168.083C59.0862,-160.613 52.6339,-149.724 47.1793,-140.52"/>
<polygon fill="midnightblue" stroke="midnightblue" points="50.0921,-138.57 41.983,-131.751 44.07,-142.138 50.0921,-138.57"/>
</g>
<!-- Node7 -->
<g id="node13" class="node"><title>Node7</title>
<a xlink:href="../../d5/dd0/timer_8h.xhtml" target="_top" xlink:title="openchronos&#45;ng timer driver">
<polygon fill="white" stroke="black" points="78.2972,-112.5 78.2972,-131.5 125.297,-131.5 125.297,-112.5 78.2972,-112.5"/>
<text text-anchor="middle" x="101.797" y="-119.5" font-family="Helvetica,sans-Serif" font-size="10.00">timer.h</text>
</a>
</g>
<!-- Node1&#45;&gt;Node7 -->
<g id="edge12" class="edge"><title>Node1&#45;&gt;Node7</title>
<path fill="none" stroke="midnightblue" d="M74.2465,-168.083C78.8116,-160.613 85.4656,-149.724 91.0906,-140.52"/>
<polygon fill="midnightblue" stroke="midnightblue" points="94.2212,-142.109 96.4493,-131.751 88.2483,-138.459 94.2212,-142.109"/>
</g>
<!-- Node8 -->
<g id="node16" class="node"><title>Node8</title>
<a xlink:href="../../d4/d68/display_8h.xhtml" target="_top" xlink:title="Display driver.">
<polygon fill="white" stroke="black" points="143.797,-112.5 143.797,-131.5 199.797,-131.5 199.797,-112.5 143.797,-112.5"/>
<text text-anchor="middle" x="171.797" y="-119.5" font-family="Helvetica,sans-Serif" font-size="10.00">display.h</text>
</a>
</g>
<!-- Node1&#45;&gt;Node8 -->
<g id="edge16" class="edge"><title>Node1&#45;&gt;Node8</title>
<path fill="none" stroke="midnightblue" d="M85.3459,-168.324C101.789,-159.703 127.232,-146.364 146.266,-136.386"/>
<polygon fill="midnightblue" stroke="midnightblue" points="148.058,-139.398 155.29,-131.655 144.808,-133.198 148.058,-139.398"/>
</g>
<!-- Node3 -->
<g id="node5" class="node"><title>Node3</title>
<polygon fill="white" stroke="#bfbfbf" points="5.79718,-0.5 5.79718,-19.5 53.7972,-19.5 53.7972,-0.5 5.79718,-0.5"/>
<text text-anchor="middle" x="29.7972" y="-7.5" font-family="Helvetica,sans-Serif" font-size="10.00">stdlib.h</text>
</g>
<!-- Node2&#45;&gt;Node3 -->
<g id="edge4" class="edge"><title>Node2&#45;&gt;Node3</title>
<path fill="none" stroke="midnightblue" d="M90.2291,-56.324C79.377,-48.1849 62.9165,-35.8395 49.9138,-26.0874"/>
<polygon fill="midnightblue" stroke="midnightblue" points="51.6757,-23.0339 41.5757,-19.8339 47.4757,-28.6339 51.6757,-23.0339"/>
</g>
<!-- Node4 -->
<g id="node7" class="node"><title>Node4</title>
<polygon fill="white" stroke="#bfbfbf" points="72.2972,-0.5 72.2972,-19.5 131.297,-19.5 131.297,-0.5 72.2972,-0.5"/>
<text text-anchor="middle" x="101.797" y="-7.5" font-family="Helvetica,sans-Serif" font-size="10.00">msp430.h</text>
</g>
<!-- Node2&#45;&gt;Node4 -->
<g id="edge6" class="edge"><title>Node2&#45;&gt;Node4</title>
<path fill="none" stroke="midnightblue" d="M101.797,-56.083C101.797,-49.0059 101.797,-38.8611 101.797,-29.9865"/>
<polygon fill="midnightblue" stroke="midnightblue" points="105.297,-29.751 101.797,-19.7511 98.2973,-29.7511 105.297,-29.751"/>
</g>
<!-- Node5 -->
<g id="node9" class="node"><title>Node5</title>
<a xlink:href="../../db/d16/config_8h.xhtml" target="_top" xlink:title="config/config.h">
<polygon fill="white" stroke="black" points="149.797,-0.5 149.797,-19.5 229.797,-19.5 229.797,-0.5 149.797,-0.5"/>
<text text-anchor="middle" x="189.797" y="-7.5" font-family="Helvetica,sans-Serif" font-size="10.00">config/config.h</text>
</a>
</g>
<!-- Node2&#45;&gt;Node5 -->
<g id="edge8" class="edge"><title>Node2&#45;&gt;Node5</title>
<path fill="none" stroke="midnightblue" d="M115.936,-56.324C129.663,-47.9002 150.733,-34.9709 166.862,-25.0741"/>
<polygon fill="midnightblue" stroke="midnightblue" points="169.001,-27.8678 175.694,-19.6545 165.34,-21.9016 169.001,-27.8678"/>
</g>
<!-- Node7&#45;&gt;Node2 -->
<g id="edge14" class="edge"><title>Node7&#45;&gt;Node2</title>
<path fill="none" stroke="midnightblue" d="M101.797,-112.083C101.797,-105.006 101.797,-94.8611 101.797,-85.9865"/>
<polygon fill="midnightblue" stroke="midnightblue" points="105.297,-85.751 101.797,-75.7511 98.2973,-85.7511 105.297,-85.751"/>
</g>
<!-- Node8&#45;&gt;Node2 -->
<g id="edge18" class="edge"><title>Node8&#45;&gt;Node2</title>
<path fill="none" stroke="midnightblue" d="M160.55,-112.324C150,-104.185 133.997,-91.8395 121.355,-82.0874"/>
<polygon fill="midnightblue" stroke="midnightblue" points="123.304,-79.1707 113.249,-75.8339 119.029,-84.7132 123.304,-79.1707"/>
</g>
</g>
</svg>
