<?xml version="1.0" encoding="UTF-8" standalone="no"?>
<!DOCTYPE svg PUBLIC "-//W3C//DTD SVG 1.1//EN"
 "http://www.w3.org/Graphics/SVG/1.1/DTD/svg11.dtd">
<!-- Generated by graphviz version 2.28.0 (20121221.0049)
 -->
<!-- Title: drivers/timer.h Pages: 1 -->
<svg width="839pt" height="84pt"
 viewBox="0.00 0.00 839.00 84.00" xmlns="http://www.w3.org/2000/svg" xmlns:xlink="http://www.w3.org/1999/xlink">
<g id="graph1" class="graph" transform="scale(1 1) rotate(0) translate(4 80)">
<title>drivers/timer.h</title>
<polygon fill="white" stroke="white" points="-4,5 -4,-80 836,-80 836,5 -4,5"/>
<!-- Node1 -->
<g id="node1" class="node"><title>Node1</title>
<polygon fill="#bfbfbf" stroke="black" points="382.5,-56.5 382.5,-75.5 461.5,-75.5 461.5,-56.5 382.5,-56.5"/>
<text text-anchor="middle" x="422" y="-63.5" font-family="Helvetica,sans-Serif" font-size="10.00">drivers/timer.h</text>
</g>
<!-- Node2 -->
<g id="node3" class="node"><title>Node2</title>
<a xlink:href="../../d2/df2/openchronos_8c.xhtml" target="_top" xlink:title="Main loop &amp; user interface.">
<polygon fill="white" stroke="black" points="0,-0.5 0,-19.5 102,-19.5 102,-0.5 0,-0.5"/>
<text text-anchor="middle" x="51" y="-7.5" font-family="Helvetica,sans-Serif" font-size="10.00">core/openchronos.c</text>
</a>
</g>
<!-- Node1&#45;&gt;Node2 -->
<g id="edge2" class="edge"><title>Node1&#45;&gt;Node2</title>
<path fill="none" stroke="midnightblue" d="M372.034,-57.8517C310.583,-49.0415 203.093,-33.5695 111,-20 108.082,-19.5701 105.085,-19.1265 102.06,-18.6775"/>
<polygon fill="midnightblue" stroke="midnightblue" points="371.829,-61.358 382.225,-59.3122 372.822,-54.4288 371.829,-61.358"/>
</g>
<!-- Node3 -->
<g id="node5" class="node"><title>Node3</title>
<a xlink:href="../../dc/ddc/adc12_8c.xhtml" target="_top" xlink:title="ADC12 functions.">
<polygon fill="white" stroke="black" points="120.5,-0.5 120.5,-19.5 203.5,-19.5 203.5,-0.5 120.5,-0.5"/>
<text text-anchor="middle" x="162" y="-7.5" font-family="Helvetica,sans-Serif" font-size="10.00">drivers/adc12.c</text>
</a>
</g>
<!-- Node1&#45;&gt;Node3 -->
<g id="edge4" class="edge"><title>Node1&#45;&gt;Node3</title>
<path fill="none" stroke="midnightblue" d="M372.146,-54.6458C323.028,-44.4444 248.879,-29.044 203.055,-19.5268"/>
<polygon fill="midnightblue" stroke="midnightblue" points="371.726,-58.133 382.229,-56.7398 373.149,-51.2793 371.726,-58.133"/>
</g>
<!-- Node4 -->
<g id="node7" class="node"><title>Node4</title>
<a xlink:href="../../d3/d4c/buzzer_8c.xhtml" target="_top" xlink:title="drivers/buzzer.c">
<polygon fill="white" stroke="black" points="222,-0.5 222,-19.5 308,-19.5 308,-0.5 222,-0.5"/>
<text text-anchor="middle" x="265" y="-7.5" font-family="Helvetica,sans-Serif" font-size="10.00">drivers/buzzer.c</text>
</a>
</g>
<!-- Node1&#45;&gt;Node4 -->
<g id="edge6" class="edge"><title>Node1&#45;&gt;Node4</title>
<path fill="none" stroke="midnightblue" d="M387.611,-53.172C358.048,-43.0039 316.127,-28.5852 289.761,-19.5164"/>
<polygon fill="midnightblue" stroke="midnightblue" points="386.528,-56.5007 397.123,-56.4435 388.805,-49.8813 386.528,-56.5007"/>
</g>
<!-- Node5 -->
<g id="node9" class="node"><title>Node5</title>
<a xlink:href="../../d0/d6e/ports_8c.xhtml" target="_top" xlink:title="drivers/ports.c">
<polygon fill="white" stroke="black" points="326.5,-0.5 326.5,-19.5 405.5,-19.5 405.5,-0.5 326.5,-0.5"/>
<text text-anchor="middle" x="366" y="-7.5" font-family="Helvetica,sans-Serif" font-size="10.00">drivers/ports.c</text>
</a>
</g>
<!-- Node1&#45;&gt;Node5 -->
<g id="edge8" class="edge"><title>Node1&#45;&gt;Node5</title>
<path fill="none" stroke="midnightblue" d="M405.67,-49.2533C395.735,-39.6731 383.412,-27.7906 375.161,-19.8339"/>
<polygon fill="midnightblue" stroke="midnightblue" points="403.375,-51.902 413.003,-56.324 408.234,-46.8631 403.375,-51.902"/>
</g>
<!-- Node6 -->
<g id="node11" class="node"><title>Node6</title>
<a xlink:href="../../d8/dd8/drivers_2temperature_8c.xhtml" target="_top" xlink:title="drivers/temperature.c">
<polygon fill="white" stroke="black" points="423.5,-0.5 423.5,-19.5 532.5,-19.5 532.5,-0.5 423.5,-0.5"/>
<text text-anchor="middle" x="478" y="-7.5" font-family="Helvetica,sans-Serif" font-size="10.00">drivers/temperature.c</text>
</a>
</g>
<!-- Node1&#45;&gt;Node6 -->
<g id="edge10" class="edge"><title>Node1&#45;&gt;Node6</title>
<path fill="none" stroke="midnightblue" d="M438.33,-49.2533C448.265,-39.6731 460.588,-27.7906 468.839,-19.8339"/>
<polygon fill="midnightblue" stroke="midnightblue" points="435.766,-46.8631 430.997,-56.324 440.625,-51.902 435.766,-46.8631"/>
</g>
<!-- Node7 -->
<g id="node13" class="node"><title>Node7</title>
<a xlink:href="../../df/d41/timer_8c.xhtml" target="_top" xlink:title="drivers/timer.c">
<polygon fill="white" stroke="black" points="550.5,-0.5 550.5,-19.5 629.5,-19.5 629.5,-0.5 550.5,-0.5"/>
<text text-anchor="middle" x="590" y="-7.5" font-family="Helvetica,sans-Serif" font-size="10.00">drivers/timer.c</text>
</a>
</g>
<!-- Node1&#45;&gt;Node7 -->
<g id="edge12" class="edge"><title>Node1&#45;&gt;Node7</title>
<path fill="none" stroke="midnightblue" d="M458.386,-53.3044C490.042,-43.1294 535.168,-28.6246 563.504,-19.5164"/>
<polygon fill="midnightblue" stroke="midnightblue" points="457.069,-50.0513 448.62,-56.4435 459.211,-56.7155 457.069,-50.0513"/>
</g>
<!-- Node8 -->
<g id="node15" class="node"><title>Node8</title>
<a xlink:href="../../d9/dc8/vti__as_8c.xhtml" target="_top" xlink:title="drivers/vti_as.c">
<polygon fill="white" stroke="black" points="647.5,-0.5 647.5,-19.5 730.5,-19.5 730.5,-0.5 647.5,-0.5"/>
<text text-anchor="middle" x="689" y="-7.5" font-family="Helvetica,sans-Serif" font-size="10.00">drivers/vti_as.c</text>
</a>
</g>
<!-- Node1&#45;&gt;Node8 -->
<g id="edge14" class="edge"><title>Node1&#45;&gt;Node8</title>
<path fill="none" stroke="midnightblue" d="M471.74,-54.9403C522.337,-44.7071 599.867,-29.0269 647.337,-19.4263"/>
<polygon fill="midnightblue" stroke="midnightblue" points="470.792,-51.561 461.684,-56.974 472.18,-58.4221 470.792,-51.561"/>
</g>
<!-- Node9 -->
<g id="node17" class="node"><title>Node9</title>
<a xlink:href="../../d8/d28/vti__ps_8c.xhtml" target="_top" xlink:title="drivers/vti_ps.c">
<polygon fill="white" stroke="black" points="748.5,-0.5 748.5,-19.5 831.5,-19.5 831.5,-0.5 748.5,-0.5"/>
<text text-anchor="middle" x="790" y="-7.5" font-family="Helvetica,sans-Serif" font-size="10.00">drivers/vti_ps.c</text>
</a>
</g>
<!-- Node1&#45;&gt;Node9 -->
<g id="edge16" class="edge"><title>Node1&#45;&gt;Node9</title>
<path fill="none" stroke="midnightblue" d="M471.573,-58.4884C534.03,-50.1637 644.619,-35.0223 739,-20 742.019,-19.5195 745.136,-19.0079 748.271,-18.4819"/>
<polygon fill="midnightblue" stroke="midnightblue" points="471.052,-55.0268 461.6,-59.8142 471.974,-61.9658 471.052,-55.0268"/>
</g>
</g>
</svg>
