<?xml version="1.0" encoding="UTF-8" standalone="no"?>
<!DOCTYPE svg PUBLIC "-//W3C//DTD SVG 1.1//EN"
 "http://www.w3.org/Graphics/SVG/1.1/DTD/svg11.dtd">
<!-- Generated by graphviz version 2.28.0 (20121221.0049)
 -->
<!-- Title: music_deactivate Pages: 1 -->
<svg width="670pt" height="66pt"
 viewBox="0.00 0.00 670.00 66.00" xmlns="http://www.w3.org/2000/svg" xmlns:xlink="http://www.w3.org/1999/xlink">
<g id="graph1" class="graph" transform="scale(1 1) rotate(0) translate(4 62)">
<title>music_deactivate</title>
<polygon fill="white" stroke="white" points="-4,5 -4,-62 667,-62 667,5 -4,5"/>
<!-- Node1 -->
<g id="node1" class="node"><title>Node1</title>
<polygon fill="#bfbfbf" stroke="black" points="0.5,-19.5 0.5,-38.5 93.5,-38.5 93.5,-19.5 0.5,-19.5"/>
<text text-anchor="middle" x="47" y="-26.5" font-family="Helvetica,sans-Serif" font-size="10.00">music_deactivate</text>
</g>
<!-- Node2 -->
<g id="node3" class="node"><title>Node2</title>
<a xlink:href="../../db/d85/display_8c.xhtml#aa150336a018e90f37fd0285047b541f6" target="_top" xlink:title="Clears the screen.">
<polygon fill="white" stroke="black" points="130,-19.5 130,-38.5 204,-38.5 204,-19.5 130,-19.5"/>
<text text-anchor="middle" x="167" y="-26.5" font-family="Helvetica,sans-Serif" font-size="10.00">display_clear</text>
</a>
</g>
<!-- Node1&#45;&gt;Node2 -->
<g id="edge2" class="edge"><title>Node1&#45;&gt;Node2</title>
<path fill="none" stroke="midnightblue" d="M93.6219,-29C102.106,-29 110.979,-29 119.489,-29"/>
<polygon fill="midnightblue" stroke="midnightblue" points="119.638,-32.5001 129.638,-29 119.638,-25.5001 119.638,-32.5001"/>
</g>
<!-- Node3 -->
<g id="node5" class="node"><title>Node3</title>
<a xlink:href="../../db/d85/display_8c.xhtml#a6f2d5cdda31a73b43a569cb3d1a64165" target="_top" xlink:title="Displays several consecutive characters.">
<polygon fill="white" stroke="black" points="240.5,-38.5 240.5,-57.5 317.5,-57.5 317.5,-38.5 240.5,-38.5"/>
<text text-anchor="middle" x="279" y="-45.5" font-family="Helvetica,sans-Serif" font-size="10.00">display_chars</text>
</a>
</g>
<!-- Node2&#45;&gt;Node3 -->
<g id="edge4" class="edge"><title>Node2&#45;&gt;Node3</title>
<path fill="none" stroke="midnightblue" d="M204.018,-35.2213C212.486,-36.6839 221.637,-38.2646 230.522,-39.7993"/>
<polygon fill="midnightblue" stroke="midnightblue" points="229.94,-43.2504 240.389,-41.5036 231.131,-36.3526 229.94,-43.2504"/>
</g>
<!-- Node7 -->
<g id="node13" class="node"><title>Node7</title>
<a xlink:href="../../db/d85/display_8c.xhtml#af604e78dcc4e0f1a204b2180c5e54957" target="_top" xlink:title="Displays a symbol.">
<polygon fill="white" stroke="black" points="354,-0.5 354,-19.5 438,-19.5 438,-0.5 354,-0.5"/>
<text text-anchor="middle" x="396" y="-7.5" font-family="Helvetica,sans-Serif" font-size="10.00">display_symbol</text>
</a>
</g>
<!-- Node2&#45;&gt;Node7 -->
<g id="edge12" class="edge"><title>Node2&#45;&gt;Node7</title>
<path fill="none" stroke="midnightblue" d="M204.22,-25.9684C241.918,-22.8131 301.277,-17.8447 343.77,-14.288"/>
<polygon fill="midnightblue" stroke="midnightblue" points="344.242,-17.7608 353.916,-13.4388 343.659,-10.7852 344.242,-17.7608"/>
</g>
<!-- Node4 -->
<g id="node7" class="node"><title>Node4</title>
<a xlink:href="../../db/d85/display_8c.xhtml#a3ae30196af91197037d50cb49de1d109" target="_top" xlink:title="Displays a single character.">
<polygon fill="white" stroke="black" points="360.5,-38.5 360.5,-57.5 431.5,-57.5 431.5,-38.5 360.5,-38.5"/>
<text text-anchor="middle" x="396" y="-45.5" font-family="Helvetica,sans-Serif" font-size="10.00">display_char</text>
</a>
</g>
<!-- Node3&#45;&gt;Node4 -->
<g id="edge6" class="edge"><title>Node3&#45;&gt;Node4</title>
<path fill="none" stroke="midnightblue" d="M317.655,-48C328.08,-48 339.496,-48 350.281,-48"/>
<polygon fill="midnightblue" stroke="midnightblue" points="350.374,-51.5001 360.374,-48 350.374,-44.5001 350.374,-51.5001"/>
</g>
<!-- Node5 -->
<g id="node9" class="node"><title>Node5</title>
<a xlink:href="../../db/d85/display_8c.xhtml#a9275035317878022cf9eacf6b0a5be72" target="_top" xlink:title="Display a custom collection of segments.">
<polygon fill="white" stroke="black" points="474,-38.5 474,-57.5 542,-57.5 542,-38.5 474,-38.5"/>
<text text-anchor="middle" x="508" y="-45.5" font-family="Helvetica,sans-Serif" font-size="10.00">display_bits</text>
</a>
</g>
<!-- Node4&#45;&gt;Node5 -->
<g id="edge8" class="edge"><title>Node4&#45;&gt;Node5</title>
<path fill="none" stroke="midnightblue" d="M431.503,-48C441.721,-48 453.04,-48 463.738,-48"/>
<polygon fill="midnightblue" stroke="midnightblue" points="463.748,-51.5001 473.748,-48 463.748,-44.5001 463.748,-51.5001"/>
</g>
<!-- Node6 -->
<g id="node11" class="node"><title>Node6</title>
<a xlink:href="../../db/d85/display_8c.xhtml#a710739913e8ea1b71dd433b8311211fd" target="_top" xlink:title="write_lcd_mem">
<polygon fill="white" stroke="black" points="578.5,-19.5 578.5,-38.5 661.5,-38.5 661.5,-19.5 578.5,-19.5"/>
<text text-anchor="middle" x="620" y="-26.5" font-family="Helvetica,sans-Serif" font-size="10.00">write_lcd_mem</text>
</a>
</g>
<!-- Node5&#45;&gt;Node6 -->
<g id="edge10" class="edge"><title>Node5&#45;&gt;Node6</title>
<path fill="none" stroke="midnightblue" d="M542.004,-42.2994C550.28,-40.8698 559.352,-39.3029 568.273,-37.762"/>
<polygon fill="midnightblue" stroke="midnightblue" points="568.972,-41.1931 578.231,-36.042 567.781,-34.2952 568.972,-41.1931"/>
</g>
<!-- Node7&#45;&gt;Node6 -->
<g id="edge14" class="edge"><title>Node7&#45;&gt;Node6</title>
<path fill="none" stroke="midnightblue" d="M438.236,-13.5292C474.955,-16.6718 528.802,-21.2804 568.174,-24.65"/>
<polygon fill="midnightblue" stroke="midnightblue" points="568.097,-28.1562 578.359,-25.5218 568.694,-21.1817 568.097,-28.1562"/>
</g>
</g>
</svg>
