<?xml version="1.0" encoding="UTF-8" standalone="no"?>
<!DOCTYPE svg PUBLIC "-//W3C//DTD SVG 1.1//EN"
 "http://www.w3.org/Graphics/SVG/1.1/DTD/svg11.dtd">
<!-- Generated by graphviz version 2.28.0 (20121221.0049)
 -->
<!-- Title: display_data Pages: 1 -->
<!--zoomable 160 -->
<svg id="main" version="1.1" xmlns="http://www.w3.org/2000/svg" xmlns:xlink="http://www.w3.org/1999/xlink" xml:space="preserve" onload="init(evt)">
        <defs>
                <circle id="rim" cx="0" cy="0" r="7"/>
                <circle id="rim2" cx="0" cy="0" r="3.5"/>
                <g id="zoomPlus">
                        <use xlink:href="#rim" fill="#404040">
                                <set attributeName="fill" to="#808080" begin="zoomplus.mouseover" end="zoomplus.mouseout"/>
                        </use>
                        <path d="M-4,0h8M0,-4v8" fill="none" stroke="white" stroke-width="1.5" pointer-events="none"/>
                </g>
                <g id="zoomMin">
                        <use xlink:href="#rim" fill="#404040">
                                <set attributeName="fill" to="#808080" begin="zoomminus.mouseover" end="zoomminus.mouseout"/>
                        </use>
                        <path d="M-4,0h8" fill="none" stroke="white" stroke-width="1.5" pointer-events="none"/>
                </g>
                <g id="dirArrow">
                        <path fill="none" stroke="white" stroke-width="1.5" d="M0,-3.0v7 M-2.5,-0.5L0,-3.0L2.5,-0.5"/>
                </g>
               <g id="resetDef">
                       <use xlink:href="#rim2" fill="#404040">
                               <set attributeName="fill" to="#808080" begin="reset.mouseover" end="reset.mouseout"/>
                       </use>
               </g>
        </defs>

<script type="text/javascript">
var viewWidth = 558;
var viewHeight = 160;
var sectionId = 'dynsection-5';
</script>
<script xlink:href="../../svgpan.js"/>
<svg id="graph" class="graph">
<g id="viewport">
<title>display_data</title>
<polygon fill="white" stroke="white" points="-4,5 -4,-156.464 555,-156.464 555,5 -4,5"/>
<!-- Node1 -->
<g id="node1" class="node"><title>Node1</title>
<polygon fill="#bfbfbf" stroke="black" points="0.5,-77.5 0.5,-96.5 71.5,-96.5 71.5,-77.5 0.5,-77.5"/>
<text text-anchor="middle" x="36" y="-84.5" font-family="Helvetica,sans-Serif" font-size="10.00">display_data</text>
</g>
<!-- Node2 -->
<g id="node3" class="node"><title>Node2</title>
<a xlink:href="../../db/d85/display_8c.xhtml#a3ae30196af91197037d50cb49de1d109" target="_top" xlink:title="Displays a single character.">
<polygon fill="white" stroke="black" points="248.5,-115.5 248.5,-134.5 319.5,-134.5 319.5,-115.5 248.5,-115.5"/>
<text text-anchor="middle" x="284" y="-122.5" font-family="Helvetica,sans-Serif" font-size="10.00">display_char</text>
</a>
</g>
<!-- Node1&#45;&gt;Node2 -->
<g id="edge2" class="edge"><title>Node1&#45;&gt;Node2</title>
<path fill="none" stroke="midnightblue" d="M44.9604,-96.592C56.9619,-110.214 81.1591,-134.559 108,-144 154.511,-160.36 211.901,-148.554 247.987,-137.585"/>
<polygon fill="midnightblue" stroke="midnightblue" points="249.103,-140.902 257.573,-134.537 246.982,-134.231 249.103,-140.902"/>
</g>
<!-- Node5 -->
<g id="node9" class="node"><title>Node5</title>
<a xlink:href="../../db/d85/display_8c.xhtml#a6f2d5cdda31a73b43a569cb3d1a64165" target="_top" xlink:title="Displays several consecutive characters.">
<polygon fill="white" stroke="black" points="118.5,-115.5 118.5,-134.5 195.5,-134.5 195.5,-115.5 118.5,-115.5"/>
<text text-anchor="middle" x="157" y="-122.5" font-family="Helvetica,sans-Serif" font-size="10.00">display_chars</text>
</a>
</g>
<!-- Node1&#45;&gt;Node5 -->
<g id="edge8" class="edge"><title>Node1&#45;&gt;Node5</title>
<path fill="none" stroke="midnightblue" d="M67.0287,-96.589C81.9677,-101.359 100.223,-107.189 116.301,-112.323"/>
<polygon fill="midnightblue" stroke="midnightblue" points="115.39,-115.706 125.981,-115.414 117.519,-109.038 115.39,-115.706"/>
</g>
<!-- Node6 -->
<g id="node12" class="node"><title>Node6</title>
<a xlink:href="../../db/d85/display_8c.xhtml#a9047d98cd15ffbc79e15c63fca36d70b" target="_top" xlink:title="pseudo sprintf function">
<polygon fill="white" stroke="black" points="132.5,-77.5 132.5,-96.5 181.5,-96.5 181.5,-77.5 132.5,-77.5"/>
<text text-anchor="middle" x="157" y="-84.5" font-family="Helvetica,sans-Serif" font-size="10.00">_sprintf</text>
</a>
</g>
<!-- Node1&#45;&gt;Node6 -->
<g id="edge12" class="edge"><title>Node1&#45;&gt;Node6</title>
<path fill="none" stroke="midnightblue" d="M71.7396,-87C87.5697,-87 106.246,-87 121.987,-87"/>
<polygon fill="midnightblue" stroke="midnightblue" points="122.345,-90.5001 132.345,-87 122.345,-83.5001 122.345,-90.5001"/>
</g>
<!-- Node7 -->
<g id="node14" class="node"><title>Node7</title>
<a xlink:href="../../d1/d2d/accelerometer_8c.xhtml#ada05d6860a0eb4054d6aab60f359317c" target="_top" xlink:title="acceleration_value\l_is_positive">
<polygon fill="white" stroke="black" points="108,-28 108,-58 206,-58 206,-28 108,-28"/>
<text text-anchor="start" x="116" y="-46" font-family="Helvetica,sans-Serif" font-size="10.00">acceleration_value</text>
<text text-anchor="middle" x="157" y="-35" font-family="Helvetica,sans-Serif" font-size="10.00">_is_positive</text>
</a>
</g>
<!-- Node1&#45;&gt;Node7 -->
<g id="edge14" class="edge"><title>Node1&#45;&gt;Node7</title>
<path fill="none" stroke="midnightblue" d="M62.8212,-77.4527C75.3819,-72.8084 90.9282,-67.0602 105.699,-61.5986"/>
<polygon fill="midnightblue" stroke="midnightblue" points="107.089,-64.8162 115.255,-58.0654 104.662,-58.2506 107.089,-64.8162"/>
</g>
<!-- Node8 -->
<g id="node16" class="node"><title>Node8</title>
<a xlink:href="../../db/d85/display_8c.xhtml#af604e78dcc4e0f1a204b2180c5e54957" target="_top" xlink:title="Displays a symbol.">
<polygon fill="white" stroke="black" points="242,-0.5 242,-19.5 326,-19.5 326,-0.5 242,-0.5"/>
<text text-anchor="middle" x="284" y="-7.5" font-family="Helvetica,sans-Serif" font-size="10.00">display_symbol</text>
</a>
</g>
<!-- Node1&#45;&gt;Node8 -->
<g id="edge16" class="edge"><title>Node1&#45;&gt;Node8</title>
<path fill="none" stroke="midnightblue" d="M43.2644,-77.4462C54.2138,-61.6985 78.5012,-30.765 108,-18 146.996,-1.12529 195.549,-0.286285 231.614,-3.00619"/>
<polygon fill="midnightblue" stroke="midnightblue" points="231.641,-6.52179 241.908,-3.90369 232.249,0.451758 231.641,-6.52179"/>
</g>
<!-- Node3 -->
<g id="node5" class="node"><title>Node3</title>
<a xlink:href="../../db/d85/display_8c.xhtml#a9275035317878022cf9eacf6b0a5be72" target="_top" xlink:title="Display a custom collection of segments.">
<polygon fill="white" stroke="black" points="362,-104.5 362,-123.5 430,-123.5 430,-104.5 362,-104.5"/>
<text text-anchor="middle" x="396" y="-111.5" font-family="Helvetica,sans-Serif" font-size="10.00">display_bits</text>
</a>
</g>
<!-- Node2&#45;&gt;Node3 -->
<g id="edge4" class="edge"><title>Node2&#45;&gt;Node3</title>
<path fill="none" stroke="midnightblue" d="M319.503,-121.55C329.721,-120.528 341.04,-119.396 351.738,-118.326"/>
<polygon fill="midnightblue" stroke="midnightblue" points="352.146,-121.803 361.748,-117.325 351.449,-114.838 352.146,-121.803"/>
</g>
<!-- Node4 -->
<g id="node7" class="node"><title>Node4</title>
<a xlink:href="../../db/d85/display_8c.xhtml#a710739913e8ea1b71dd433b8311211fd" target="_top" xlink:title="write_lcd_mem">
<polygon fill="white" stroke="black" points="466.5,-74.5 466.5,-93.5 549.5,-93.5 549.5,-74.5 466.5,-74.5"/>
<text text-anchor="middle" x="508" y="-81.5" font-family="Helvetica,sans-Serif" font-size="10.00">write_lcd_mem</text>
</a>
</g>
<!-- Node3&#45;&gt;Node4 -->
<g id="edge6" class="edge"><title>Node3&#45;&gt;Node4</title>
<path fill="none" stroke="midnightblue" d="M430.004,-104.999C440.178,-102.224 451.556,-99.1212 462.377,-96.1699"/>
<polygon fill="midnightblue" stroke="midnightblue" points="463.381,-99.5239 472.108,-93.516 461.539,-92.7706 463.381,-99.5239"/>
</g>
<!-- Node5&#45;&gt;Node2 -->
<g id="edge10" class="edge"><title>Node5&#45;&gt;Node2</title>
<path fill="none" stroke="midnightblue" d="M195.504,-125C208.799,-125 223.901,-125 237.771,-125"/>
<polygon fill="midnightblue" stroke="midnightblue" points="238.087,-128.5 248.087,-125 238.087,-121.5 238.087,-128.5"/>
</g>
<!-- Node8&#45;&gt;Node4 -->
<g id="edge18" class="edge"><title>Node8&#45;&gt;Node4</title>
<path fill="none" stroke="midnightblue" d="M313.568,-19.5227C353.089,-32.6963 424.549,-56.5162 468.673,-71.2244"/>
<polygon fill="midnightblue" stroke="midnightblue" points="467.596,-74.5547 478.19,-74.3966 469.81,-67.9139 467.596,-74.5547"/>
</g>
</g>
</svg>
        <g id="navigator" transform="translate(0 0)" fill="#404254">
                <rect fill="#f2f5e9" fill-opacity="0.5" stroke="#606060" stroke-width=".5" x="0" y="0" width="60" height="60"/>
                <use id="zoomplus" xlink:href="#zoomPlus" x="17" y="9" onmousedown="handleZoom(evt,'in')"/>
                <use id="zoomminus" xlink:href="#zoomMin" x="42" y="9" onmousedown="handleZoom(evt,'out')"/>
                <use id="reset" xlink:href="#resetDef" x="30" y="36" onmousedown="handleReset()"/>
                <g id="arrowUp" xlink:href="#dirArrow" transform="translate(30 24)" onmousedown="handlePan(0,-1)">
                  <use xlink:href="#rim" fill="#404040">
                        <set attributeName="fill" to="#808080" begin="arrowUp.mouseover" end="arrowUp.mouseout"/>
                  </use>
                  <path fill="none" stroke="white" stroke-width="1.5" d="M0,-3.0v7 M-2.5,-0.5L0,-3.0L2.5,-0.5"/>
                </g>
                <g id="arrowRight" xlink:href="#dirArrow" transform="rotate(90) translate(36 -43)" onmousedown="handlePan(1,0)">
                  <use xlink:href="#rim" fill="#404040">
                        <set attributeName="fill" to="#808080" begin="arrowRight.mouseover" end="arrowRight.mouseout"/>
                  </use>
                  <path fill="none" stroke="white" stroke-width="1.5" d="M0,-3.0v7 M-2.5,-0.5L0,-3.0L2.5,-0.5"/>
                </g>
                <g id="arrowDown" xlink:href="#dirArrow" transform="rotate(180) translate(-30 -48)" onmousedown="handlePan(0,1)">
                  <use xlink:href="#rim" fill="#404040">
                        <set attributeName="fill" to="#808080" begin="arrowDown.mouseover" end="arrowDown.mouseout"/>
                  </use>
                  <path fill="none" stroke="white" stroke-width="1.5" d="M0,-3.0v7 M-2.5,-0.5L0,-3.0L2.5,-0.5"/>
                </g>
                <g id="arrowLeft" xlink:href="#dirArrow" transform="rotate(270) translate(-36 17)" onmousedown="handlePan(-1,0)">
                  <use xlink:href="#rim" fill="#404040">
                        <set attributeName="fill" to="#808080" begin="arrowLeft.mouseover" end="arrowLeft.mouseout"/>
                  </use>
                  <path fill="none" stroke="white" stroke-width="1.5" d="M0,-3.0v7 M-2.5,-0.5L0,-3.0L2.5,-0.5"/>
                </g>
        </g>
        <svg viewBox="0 0 15 15" width="100%" height="30px" preserveAspectRatio="xMaxYMin meet">
         <g id="arrow_out" transform="scale(0.3 0.3)">
          <a xlink:href="accelerometer_8c_a395794d1c6c3446e651f1d8751308121_cgraph_org.svg" target="_base">
           <rect id="button" ry="5" rx="5" y="6" x="6" height="38" width="38"
                fill="#f2f5e9" fill-opacity="0.5" stroke="#606060" stroke-width="1.0"/>
           <path id="arrow"
             d="M 11.500037,31.436501 C 11.940474,20.09759 22.043105,11.32322 32.158766,21.979434 L 37.068811,17.246167 C 37.068811,17.246167 37.088388,32 37.088388,32 L 22.160133,31.978069 C 22.160133,31.978069 26.997745,27.140456 26.997745,27.140456 C 18.528582,18.264221 13.291696,25.230495 11.500037,31.436501 z"
             style="fill:#404040;"/>
          </a>
         </g>
        </svg>
</svg>
