<?xml version="1.0" encoding="UTF-8" standalone="no"?>
<!DOCTYPE svg PUBLIC "-//W3C//DTD SVG 1.1//EN"
 "http://www.w3.org/Graphics/SVG/1.1/DTD/svg11.dtd">
<!-- Generated by graphviz version 2.28.0 (20121221.0049)
 -->
<!-- Title: num_pressed Pages: 1 -->
<svg width="642pt" height="28pt"
 viewBox="0.00 0.00 642.00 28.00" xmlns="http://www.w3.org/2000/svg" xmlns:xlink="http://www.w3.org/1999/xlink">
<g id="graph1" class="graph" transform="scale(1 1) rotate(0) translate(4 24)">
<title>num_pressed</title>
<polygon fill="white" stroke="white" points="-4,5 -4,-24 639,-24 639,5 -4,5"/>
<!-- Node1 -->
<g id="node1" class="node"><title>Node1</title>
<polygon fill="#bfbfbf" stroke="black" points="0.5,-0.5 0.5,-19.5 75.5,-19.5 75.5,-0.5 0.5,-0.5"/>
<text text-anchor="middle" x="38" y="-7.5" font-family="Helvetica,sans-Serif" font-size="10.00">num_pressed</text>
</g>
<!-- Node2 -->
<g id="node3" class="node"><title>Node2</title>
<a xlink:href="../../d1/d2d/accelerometer_8c.xhtml#a04a6d2a31e79c09343524b363d57fe7a" target="_top" xlink:title="update_menu">
<polygon fill="white" stroke="black" points="112.5,-0.5 112.5,-19.5 187.5,-19.5 187.5,-0.5 112.5,-0.5"/>
<text text-anchor="middle" x="150" y="-7.5" font-family="Helvetica,sans-Serif" font-size="10.00">update_menu</text>
</a>
</g>
<!-- Node1&#45;&gt;Node2 -->
<g id="edge2" class="edge"><title>Node1&#45;&gt;Node2</title>
<path fill="none" stroke="midnightblue" d="M75.6284,-10C84.0735,-10 93.1714,-10 101.989,-10"/>
<polygon fill="midnightblue" stroke="midnightblue" points="102.157,-13.5001 112.156,-10 102.156,-6.5001 102.157,-13.5001"/>
</g>
<!-- Node3 -->
<g id="node5" class="node"><title>Node3</title>
<a xlink:href="../../db/d85/display_8c.xhtml#a6f2d5cdda31a73b43a569cb3d1a64165" target="_top" xlink:title="Displays several consecutive characters.">
<polygon fill="white" stroke="black" points="224.5,-0.5 224.5,-19.5 301.5,-19.5 301.5,-0.5 224.5,-0.5"/>
<text text-anchor="middle" x="263" y="-7.5" font-family="Helvetica,sans-Serif" font-size="10.00">display_chars</text>
</a>
</g>
<!-- Node2&#45;&gt;Node3 -->
<g id="edge4" class="edge"><title>Node2&#45;&gt;Node3</title>
<path fill="none" stroke="midnightblue" d="M187.653,-10C196.095,-10 205.198,-10 214.04,-10"/>
<polygon fill="midnightblue" stroke="midnightblue" points="214.245,-13.5001 224.245,-10 214.245,-6.5001 214.245,-13.5001"/>
</g>
<!-- Node4 -->
<g id="node7" class="node"><title>Node4</title>
<a xlink:href="../../db/d85/display_8c.xhtml#a3ae30196af91197037d50cb49de1d109" target="_top" xlink:title="Displays a single character.">
<polygon fill="white" stroke="black" points="338.5,-0.5 338.5,-19.5 409.5,-19.5 409.5,-0.5 338.5,-0.5"/>
<text text-anchor="middle" x="374" y="-7.5" font-family="Helvetica,sans-Serif" font-size="10.00">display_char</text>
</a>
</g>
<!-- Node3&#45;&gt;Node4 -->
<g id="edge6" class="edge"><title>Node3&#45;&gt;Node4</title>
<path fill="none" stroke="midnightblue" d="M301.512,-10C310.098,-10 319.31,-10 328.17,-10"/>
<polygon fill="midnightblue" stroke="midnightblue" points="328.35,-13.5001 338.35,-10 328.35,-6.5001 328.35,-13.5001"/>
</g>
<!-- Node5 -->
<g id="node9" class="node"><title>Node5</title>
<a xlink:href="../../db/d85/display_8c.xhtml#a9275035317878022cf9eacf6b0a5be72" target="_top" xlink:title="Display a custom collection of segments.">
<polygon fill="white" stroke="black" points="446,-0.5 446,-19.5 514,-19.5 514,-0.5 446,-0.5"/>
<text text-anchor="middle" x="480" y="-7.5" font-family="Helvetica,sans-Serif" font-size="10.00">display_bits</text>
</a>
</g>
<!-- Node4&#45;&gt;Node5 -->
<g id="edge8" class="edge"><title>Node4&#45;&gt;Node5</title>
<path fill="none" stroke="midnightblue" d="M409.63,-10C418.04,-10 427.133,-10 435.882,-10"/>
<polygon fill="midnightblue" stroke="midnightblue" points="435.931,-13.5001 445.931,-10 435.931,-6.5001 435.931,-13.5001"/>
</g>
<!-- Node6 -->
<g id="node11" class="node"><title>Node6</title>
<a xlink:href="../../db/d85/display_8c.xhtml#a710739913e8ea1b71dd433b8311211fd" target="_top" xlink:title="write_lcd_mem">
<polygon fill="white" stroke="black" points="550.5,-0.5 550.5,-19.5 633.5,-19.5 633.5,-0.5 550.5,-0.5"/>
<text text-anchor="middle" x="592" y="-7.5" font-family="Helvetica,sans-Serif" font-size="10.00">write_lcd_mem</text>
</a>
</g>
<!-- Node5&#45;&gt;Node6 -->
<g id="edge10" class="edge"><title>Node5&#45;&gt;Node6</title>
<path fill="none" stroke="midnightblue" d="M514.004,-10C522.191,-10 531.157,-10 539.985,-10"/>
<polygon fill="midnightblue" stroke="midnightblue" points="540.231,-13.5001 550.231,-10 540.231,-6.5001 540.231,-13.5001"/>
</g>
</g>
</svg>
