<?xml version="1.0" encoding="UTF-8" standalone="no"?>
<!DOCTYPE svg PUBLIC "-//W3C//DTD SVG 1.1//EN"
 "http://www.w3.org/Graphics/SVG/1.1/DTD/svg11.dtd">
<!-- Generated by graphviz version 2.28.0 (20121221.0049)
 -->
<!-- Title: as_event Pages: 1 -->
<svg width="682pt" height="337pt"
 viewBox="0.00 0.00 682.00 337.47" xmlns="http://www.w3.org/2000/svg" xmlns:xlink="http://www.w3.org/1999/xlink">
<g id="graph1" class="graph" transform="scale(1 1) rotate(0) translate(4 333.469)">
<title>as_event</title>
<polygon fill="white" stroke="white" points="-4,5 -4,-333.469 679,-333.469 679,5 -4,5"/>
<!-- Node1 -->
<g id="node1" class="node"><title>Node1</title>
<polygon fill="#bfbfbf" stroke="black" points="0,-195.969 0,-214.969 56,-214.969 56,-195.969 0,-195.969"/>
<text text-anchor="middle" x="28" y="-202.969" font-family="Helvetica,sans-Serif" font-size="10.00">as_event</text>
</g>
<!-- Node2 -->
<g id="node3" class="node"><title>Node2</title>
<a xlink:href="../../d9/d8e/vti__as_8h.xhtml#a73481abbeea9355be57fe38b57a79a12" target="_top" xlink:title="as_stop">
<polygon fill="white" stroke="black" points="118.5,-309.969 118.5,-328.969 169.5,-328.969 169.5,-309.969 118.5,-309.969"/>
<text text-anchor="middle" x="144" y="-316.969" font-family="Helvetica,sans-Serif" font-size="10.00">as_stop</text>
</a>
</g>
<!-- Node1&#45;&gt;Node2 -->
<g id="edge2" class="edge"><title>Node1&#45;&gt;Node2</title>
<path fill="none" stroke="midnightblue" d="M32.8778,-214.993C41.0418,-233.914 61.7739,-276.476 92,-300.469 97.0024,-304.439 102.919,-307.638 108.917,-310.195"/>
<polygon fill="midnightblue" stroke="midnightblue" points="107.7,-313.476 118.293,-313.704 110.154,-306.921 107.7,-313.476"/>
</g>
<!-- Node3 -->
<g id="node5" class="node"><title>Node3</title>
<a xlink:href="../../d9/d8e/vti__as_8h.xhtml#ab8f3382742af6bc6d4100cb2ff3503ee" target="_top" xlink:title="as_get_status">
<polygon fill="white" stroke="black" points="105,-271.969 105,-290.969 183,-290.969 183,-271.969 105,-271.969"/>
<text text-anchor="middle" x="144" y="-278.969" font-family="Helvetica,sans-Serif" font-size="10.00">as_get_status</text>
</a>
</g>
<!-- Node1&#45;&gt;Node3 -->
<g id="edge4" class="edge"><title>Node1&#45;&gt;Node3</title>
<path fill="none" stroke="midnightblue" d="M37.4996,-215.164C48.8449,-227.598 70.0672,-249.141 92,-262.469 95.2173,-264.424 98.6685,-266.23 102.203,-267.887"/>
<polygon fill="midnightblue" stroke="midnightblue" points="101.078,-271.213 111.649,-271.924 103.829,-264.776 101.078,-271.213"/>
</g>
<!-- Node4 -->
<g id="node7" class="node"><title>Node4</title>
<a xlink:href="../../d3/d4c/buzzer_8c.xhtml#a6ec06c5367637f000e6c5deedc6bab1b" target="_top" xlink:title="Play a sequence of notes using the buzzer.">
<polygon fill="white" stroke="black" points="109.5,-233.969 109.5,-252.969 178.5,-252.969 178.5,-233.969 109.5,-233.969"/>
<text text-anchor="middle" x="144" y="-240.969" font-family="Helvetica,sans-Serif" font-size="10.00">buzzer_play</text>
</a>
</g>
<!-- Node1&#45;&gt;Node4 -->
<g id="edge6" class="edge"><title>Node1&#45;&gt;Node4</title>
<path fill="none" stroke="midnightblue" d="M56.0164,-214.474C70.5203,-219.309 88.6449,-225.35 104.59,-230.665"/>
<polygon fill="midnightblue" stroke="midnightblue" points="103.591,-234.022 114.185,-233.863 105.805,-227.381 103.591,-234.022"/>
</g>
<!-- Node7 -->
<g id="node13" class="node"><title>Node7</title>
<a xlink:href="../../d9/d8e/vti__as_8h.xhtml#ae20bbb28e4b58198a517f379b7920a3b" target="_top" xlink:title="as_get_data">
<polygon fill="white" stroke="black" points="109,-195.969 109,-214.969 179,-214.969 179,-195.969 109,-195.969"/>
<text text-anchor="middle" x="144" y="-202.969" font-family="Helvetica,sans-Serif" font-size="10.00">as_get_data</text>
</a>
</g>
<!-- Node1&#45;&gt;Node7 -->
<g id="edge12" class="edge"><title>Node1&#45;&gt;Node7</title>
<path fill="none" stroke="midnightblue" d="M56.0164,-205.469C68.7322,-205.469 84.2311,-205.469 98.6044,-205.469"/>
<polygon fill="midnightblue" stroke="midnightblue" points="98.8156,-208.969 108.816,-205.469 98.8155,-201.969 98.8156,-208.969"/>
</g>
<!-- Node8 -->
<g id="node15" class="node"><title>Node8</title>
<a xlink:href="../../db/d85/display_8c.xhtml#a0e030727a1bc4d1418bb96cc71350203" target="_top" xlink:title="Activates a virtual screen.">
<polygon fill="white" stroke="black" points="92,-157.969 92,-176.969 196,-176.969 196,-157.969 92,-157.969"/>
<text text-anchor="middle" x="144" y="-164.969" font-family="Helvetica,sans-Serif" font-size="10.00">lcd_screen_activate</text>
</a>
</g>
<!-- Node1&#45;&gt;Node8 -->
<g id="edge14" class="edge"><title>Node1&#45;&gt;Node8</title>
<path fill="none" stroke="midnightblue" d="M56.0164,-196.463C70.5203,-191.628 88.6449,-185.587 104.59,-180.272"/>
<polygon fill="midnightblue" stroke="midnightblue" points="105.805,-183.556 114.185,-177.074 103.591,-176.916 105.805,-183.556"/>
</g>
<!-- Node10 -->
<g id="node19" class="node"><title>Node10</title>
<a xlink:href="../../d1/d2d/accelerometer_8c.xhtml#a395794d1c6c3446e651f1d8751308121" target="_top" xlink:title="display_data">
<polygon fill="white" stroke="black" points="108.5,-119.969 108.5,-138.969 179.5,-138.969 179.5,-119.969 108.5,-119.969"/>
<text text-anchor="middle" x="144" y="-126.969" font-family="Helvetica,sans-Serif" font-size="10.00">display_data</text>
</a>
</g>
<!-- Node1&#45;&gt;Node10 -->
<g id="edge18" class="edge"><title>Node1&#45;&gt;Node10</title>
<path fill="none" stroke="midnightblue" d="M37.4996,-195.773C48.8449,-183.339 70.0672,-161.796 92,-148.469 95.2173,-146.514 98.6685,-144.707 102.203,-143.05"/>
<polygon fill="midnightblue" stroke="midnightblue" points="103.829,-146.161 111.649,-139.013 101.078,-139.724 103.829,-146.161"/>
</g>
<!-- Node18 -->
<g id="node37" class="node"><title>Node18</title>
<a xlink:href="../../d9/d8e/vti__as_8h.xhtml#a09ea2bd655c59ec47643c5a7a25da589" target="_top" xlink:title="as_read_register">
<polygon fill="white" stroke="black" points="99.5,-81.9686 99.5,-100.969 188.5,-100.969 188.5,-81.9686 99.5,-81.9686"/>
<text text-anchor="middle" x="144" y="-88.9686" font-family="Helvetica,sans-Serif" font-size="10.00">as_read_register</text>
</a>
</g>
<!-- Node1&#45;&gt;Node18 -->
<g id="edge38" class="edge"><title>Node1&#45;&gt;Node18</title>
<path fill="none" stroke="midnightblue" d="M32.8778,-195.944C41.0418,-177.023 61.7739,-134.461 92,-110.469 94.2549,-108.679 96.6955,-107.046 99.2456,-105.558"/>
<polygon fill="midnightblue" stroke="midnightblue" points="100.867,-108.66 108.227,-101.039 97.721,-102.407 100.867,-108.66"/>
</g>
<!-- Node5 -->
<g id="node9" class="node"><title>Node5</title>
<a xlink:href="../../df/d41/timer_8c.xhtml#adc3302861aee9d7f4a1c4c6d25d07343" target="_top" xlink:title="1ms &#45; 1s programmable delay">
<polygon fill="white" stroke="black" points="245,-271.969 245,-290.969 317,-290.969 317,-271.969 245,-271.969"/>
<text text-anchor="middle" x="281" y="-278.969" font-family="Helvetica,sans-Serif" font-size="10.00">timer0_delay</text>
</a>
</g>
<!-- Node4&#45;&gt;Node5 -->
<g id="edge8" class="edge"><title>Node4&#45;&gt;Node5</title>
<path fill="none" stroke="midnightblue" d="M178.718,-252.96C196.195,-257.879 217.742,-263.944 236.464,-269.214"/>
<polygon fill="midnightblue" stroke="midnightblue" points="235.67,-272.626 246.244,-271.967 237.566,-265.888 235.67,-272.626"/>
</g>
<!-- Node6 -->
<g id="node11" class="node"><title>Node6</title>
<a xlink:href="../../d3/d4c/buzzer_8c.xhtml#a0b5e97d5c00be597d96fd80c6cd1ad56" target="_top" xlink:title="buzzer_stop">
<polygon fill="white" stroke="black" points="246,-233.969 246,-252.969 316,-252.969 316,-233.969 246,-233.969"/>
<text text-anchor="middle" x="281" y="-240.969" font-family="Helvetica,sans-Serif" font-size="10.00">buzzer_stop</text>
</a>
</g>
<!-- Node4&#45;&gt;Node6 -->
<g id="edge10" class="edge"><title>Node4&#45;&gt;Node6</title>
<path fill="none" stroke="midnightblue" d="M178.718,-243.469C195.903,-243.469 217.023,-243.469 235.522,-243.469"/>
<polygon fill="midnightblue" stroke="midnightblue" points="235.774,-246.969 245.774,-243.469 235.774,-239.969 235.774,-246.969"/>
</g>
<!-- Node9 -->
<g id="node17" class="node"><title>Node9</title>
<a xlink:href="../../d2/df2/openchronos_8c.xhtml#a72f5591868e0c66a539eacdcd0b520d7" target="_top" xlink:title="Increment/decrements value by one without exiting the [lower, upper] interval.">
<polygon fill="white" stroke="black" points="245.5,-195.969 245.5,-214.969 316.5,-214.969 316.5,-195.969 245.5,-195.969"/>
<text text-anchor="middle" x="281" y="-202.969" font-family="Helvetica,sans-Serif" font-size="10.00">helpers_loop</text>
</a>
</g>
<!-- Node8&#45;&gt;Node9 -->
<g id="edge16" class="edge"><title>Node8&#45;&gt;Node9</title>
<path fill="none" stroke="midnightblue" d="M179.066,-177.058C196.413,-181.941 217.702,-187.933 236.249,-193.154"/>
<polygon fill="midnightblue" stroke="midnightblue" points="235.37,-196.542 245.945,-195.883 237.267,-189.804 235.37,-196.542"/>
</g>
<!-- Node11 -->
<g id="node21" class="node"><title>Node11</title>
<a xlink:href="../../db/d85/display_8c.xhtml#a3ae30196af91197037d50cb49de1d109" target="_top" xlink:title="Displays a single character.">
<polygon fill="white" stroke="black" points="372.5,-119.969 372.5,-138.969 443.5,-138.969 443.5,-119.969 372.5,-119.969"/>
<text text-anchor="middle" x="408" y="-126.969" font-family="Helvetica,sans-Serif" font-size="10.00">display_char</text>
</a>
</g>
<!-- Node10&#45;&gt;Node11 -->
<g id="edge20" class="edge"><title>Node10&#45;&gt;Node11</title>
<path fill="none" stroke="midnightblue" d="M179.853,-138.876C195.644,-142.672 214.631,-146.594 232,-148.469 275.304,-153.142 286.763,-153.724 330,-148.469 341.84,-147.029 354.484,-144.389 366.032,-141.524"/>
<polygon fill="midnightblue" stroke="midnightblue" points="367.051,-144.876 375.85,-138.974 365.291,-138.101 367.051,-144.876"/>
</g>
<!-- Node14 -->
<g id="node27" class="node"><title>Node14</title>
<a xlink:href="../../db/d85/display_8c.xhtml#a6f2d5cdda31a73b43a569cb3d1a64165" target="_top" xlink:title="Displays several consecutive characters.">
<polygon fill="white" stroke="black" points="242.5,-119.969 242.5,-138.969 319.5,-138.969 319.5,-119.969 242.5,-119.969"/>
<text text-anchor="middle" x="281" y="-126.969" font-family="Helvetica,sans-Serif" font-size="10.00">display_chars</text>
</a>
</g>
<!-- Node10&#45;&gt;Node14 -->
<g id="edge26" class="edge"><title>Node10&#45;&gt;Node14</title>
<path fill="none" stroke="midnightblue" d="M179.766,-129.469C195.552,-129.469 214.489,-129.469 231.632,-129.469"/>
<polygon fill="midnightblue" stroke="midnightblue" points="232.03,-132.969 242.03,-129.469 232.03,-125.969 232.03,-132.969"/>
</g>
<!-- Node15 -->
<g id="node30" class="node"><title>Node15</title>
<a xlink:href="../../db/d85/display_8c.xhtml#a9047d98cd15ffbc79e15c63fca36d70b" target="_top" xlink:title="pseudo sprintf function">
<polygon fill="white" stroke="black" points="256.5,-81.9686 256.5,-100.969 305.5,-100.969 305.5,-81.9686 256.5,-81.9686"/>
<text text-anchor="middle" x="281" y="-88.9686" font-family="Helvetica,sans-Serif" font-size="10.00">_sprintf</text>
</a>
</g>
<!-- Node10&#45;&gt;Node15 -->
<g id="edge30" class="edge"><title>Node10&#45;&gt;Node15</title>
<path fill="none" stroke="midnightblue" d="M179.066,-119.88C199.647,-114.086 225.776,-106.732 246.292,-100.957"/>
<polygon fill="midnightblue" stroke="midnightblue" points="247.479,-104.259 256.156,-98.1802 245.582,-97.5207 247.479,-104.259"/>
</g>
<!-- Node16 -->
<g id="node32" class="node"><title>Node16</title>
<a xlink:href="../../d1/d2d/accelerometer_8c.xhtml#ada05d6860a0eb4054d6aab60f359317c" target="_top" xlink:title="acceleration_value\l_is_positive">
<polygon fill="white" stroke="black" points="232,-32.4686 232,-62.4686 330,-62.4686 330,-32.4686 232,-32.4686"/>
<text text-anchor="start" x="240" y="-50.4686" font-family="Helvetica,sans-Serif" font-size="10.00">acceleration_value</text>
<text text-anchor="middle" x="281" y="-39.4686" font-family="Helvetica,sans-Serif" font-size="10.00">_is_positive</text>
</a>
</g>
<!-- Node10&#45;&gt;Node16 -->
<g id="edge32" class="edge"><title>Node10&#45;&gt;Node16</title>
<path fill="none" stroke="midnightblue" d="M177.374,-119.95C183.81,-117.368 190.326,-114.222 196,-110.469 215.402,-97.6313 213.428,-86.4792 232,-72.4686 234.067,-70.9089 236.246,-69.3954 238.488,-67.936"/>
<polygon fill="midnightblue" stroke="midnightblue" points="240.592,-70.7545 247.348,-62.5931 236.977,-64.7601 240.592,-70.7545"/>
</g>
<!-- Node17 -->
<g id="node34" class="node"><title>Node17</title>
<a xlink:href="../../db/d85/display_8c.xhtml#af604e78dcc4e0f1a204b2180c5e54957" target="_top" xlink:title="Displays a symbol.">
<polygon fill="white" stroke="black" points="366,-4.96857 366,-23.9686 450,-23.9686 450,-4.96857 366,-4.96857"/>
<text text-anchor="middle" x="408" y="-11.9686" font-family="Helvetica,sans-Serif" font-size="10.00">display_symbol</text>
</a>
</g>
<!-- Node10&#45;&gt;Node17 -->
<g id="edge34" class="edge"><title>Node10&#45;&gt;Node17</title>
<path fill="none" stroke="midnightblue" d="M179.65,-121.011C185.624,-118.375 191.385,-114.939 196,-110.469 226.35,-81.0655 197.463,-46.8175 232,-22.4686 267.899,2.84074 318.99,2.13976 356.705,-3.27922"/>
<polygon fill="midnightblue" stroke="midnightblue" points="356.539,-6.79673 366.965,-4.91506 357.641,0.115945 356.539,-6.79673"/>
</g>
<!-- Node12 -->
<g id="node23" class="node"><title>Node12</title>
<a xlink:href="../../db/d85/display_8c.xhtml#a9275035317878022cf9eacf6b0a5be72" target="_top" xlink:title="Display a custom collection of segments.">
<polygon fill="white" stroke="black" points="486,-108.969 486,-127.969 554,-127.969 554,-108.969 486,-108.969"/>
<text text-anchor="middle" x="520" y="-115.969" font-family="Helvetica,sans-Serif" font-size="10.00">display_bits</text>
</a>
</g>
<!-- Node11&#45;&gt;Node12 -->
<g id="edge22" class="edge"><title>Node11&#45;&gt;Node12</title>
<path fill="none" stroke="midnightblue" d="M443.503,-126.018C453.721,-124.996 465.04,-123.865 475.738,-122.795"/>
<polygon fill="midnightblue" stroke="midnightblue" points="476.146,-126.272 485.748,-121.794 475.449,-119.306 476.146,-126.272"/>
</g>
<!-- Node13 -->
<g id="node25" class="node"><title>Node13</title>
<a xlink:href="../../db/d85/display_8c.xhtml#a710739913e8ea1b71dd433b8311211fd" target="_top" xlink:title="write_lcd_mem">
<polygon fill="white" stroke="black" points="590.5,-78.9686 590.5,-97.9686 673.5,-97.9686 673.5,-78.9686 590.5,-78.9686"/>
<text text-anchor="middle" x="632" y="-85.9686" font-family="Helvetica,sans-Serif" font-size="10.00">write_lcd_mem</text>
</a>
</g>
<!-- Node12&#45;&gt;Node13 -->
<g id="edge24" class="edge"><title>Node12&#45;&gt;Node13</title>
<path fill="none" stroke="midnightblue" d="M554.004,-109.468C564.178,-106.693 575.556,-103.59 586.377,-100.639"/>
<polygon fill="midnightblue" stroke="midnightblue" points="587.381,-103.993 596.108,-97.9846 585.539,-97.2392 587.381,-103.993"/>
</g>
<!-- Node14&#45;&gt;Node11 -->
<g id="edge28" class="edge"><title>Node14&#45;&gt;Node11</title>
<path fill="none" stroke="midnightblue" d="M319.504,-129.469C332.799,-129.469 347.901,-129.469 361.771,-129.469"/>
<polygon fill="midnightblue" stroke="midnightblue" points="362.087,-132.969 372.087,-129.469 362.087,-125.969 362.087,-132.969"/>
</g>
<!-- Node17&#45;&gt;Node13 -->
<g id="edge36" class="edge"><title>Node17&#45;&gt;Node13</title>
<path fill="none" stroke="midnightblue" d="M437.568,-23.9913C477.089,-37.1649 548.549,-60.9848 592.673,-75.693"/>
<polygon fill="midnightblue" stroke="midnightblue" points="591.596,-79.0232 602.19,-78.8652 593.81,-72.3825 591.596,-79.0232"/>
</g>
</g>
</svg>
