<?xml version="1.0" encoding="UTF-8" standalone="no"?>
<!DOCTYPE svg PUBLIC "-//W3C//DTD SVG 1.1//EN"
 "http://www.w3.org/Graphics/SVG/1.1/DTD/svg11.dtd">
<!-- Generated by graphviz version 2.28.0 (20121221.0049)
 -->
<!-- Title: mod_accelerometer_init Pages: 1 -->
<svg width="1038pt" height="522pt"
 viewBox="0.00 0.00 1038.00 522.00" xmlns="http://www.w3.org/2000/svg" xmlns:xlink="http://www.w3.org/1999/xlink">
<g id="graph1" class="graph" transform="scale(1 1) rotate(0) translate(4 518)">
<title>mod_accelerometer_init</title>
<polygon fill="white" stroke="white" points="-4,5 -4,-518 1035,-518 1035,5 -4,5"/>
<!-- Node1 -->
<g id="node1" class="node"><title>Node1</title>
<polygon fill="#bfbfbf" stroke="black" points="0,-380.5 0,-399.5 120,-399.5 120,-380.5 0,-380.5"/>
<text text-anchor="middle" x="60" y="-387.5" font-family="Helvetica,sans-Serif" font-size="10.00">mod_accelerometer_init</text>
</g>
<!-- Node2 -->
<g id="node3" class="node"><title>Node2</title>
<a xlink:href="../../d2/df2/openchronos_8c.xhtml#a71490cfda7ca71ac20d681a8a7a994e1" target="_top" xlink:title="Adds an entry to the main menu.">
<polygon fill="white" stroke="black" points="156.5,-494.5 156.5,-513.5 245.5,-513.5 245.5,-494.5 156.5,-494.5"/>
<text text-anchor="middle" x="201" y="-501.5" font-family="Helvetica,sans-Serif" font-size="10.00">menu_add_entry</text>
</a>
</g>
<!-- Node1&#45;&gt;Node2 -->
<g id="edge2" class="edge"><title>Node1&#45;&gt;Node2</title>
<path fill="none" stroke="midnightblue" d="M68.4303,-399.545C83.3107,-418.131 118.565,-459.58 156,-485 158.534,-486.721 161.249,-488.339 164.041,-489.85"/>
<polygon fill="midnightblue" stroke="midnightblue" points="162.572,-493.028 173.091,-494.298 165.66,-486.746 162.572,-493.028"/>
</g>
<!-- Node3 -->
<g id="node5" class="node"><title>Node3</title>
<a xlink:href="../../d1/d2d/accelerometer_8c.xhtml#a09dcca3ff3ba8b0a0045abf6f09a87c8" target="_top" xlink:title="up_btn">
<polygon fill="white" stroke="black" points="330,-456.5 330,-475.5 376,-475.5 376,-456.5 330,-456.5"/>
<text text-anchor="middle" x="353" y="-463.5" font-family="Helvetica,sans-Serif" font-size="10.00">up_btn</text>
</a>
</g>
<!-- Node1&#45;&gt;Node3 -->
<g id="edge4" class="edge"><title>Node1&#45;&gt;Node3</title>
<path fill="none" stroke="midnightblue" d="M97.5607,-399.548C155.067,-414.567 265.696,-443.46 320.142,-457.68"/>
<polygon fill="midnightblue" stroke="midnightblue" points="319.38,-461.098 329.94,-460.239 321.149,-454.325 319.38,-461.098"/>
</g>
<!-- Node13 -->
<g id="node26" class="node"><title>Node13</title>
<a xlink:href="../../d1/d2d/accelerometer_8c.xhtml#af695d552d42de689963fb72f77bffbe8" target="_top" xlink:title="down_btn">
<polygon fill="white" stroke="black" points="171.5,-380.5 171.5,-399.5 230.5,-399.5 230.5,-380.5 171.5,-380.5"/>
<text text-anchor="middle" x="201" y="-387.5" font-family="Helvetica,sans-Serif" font-size="10.00">down_btn</text>
</a>
</g>
<!-- Node1&#45;&gt;Node13 -->
<g id="edge26" class="edge"><title>Node1&#45;&gt;Node13</title>
<path fill="none" stroke="midnightblue" d="M120.352,-390C134.187,-390 148.571,-390 161.246,-390"/>
<polygon fill="midnightblue" stroke="midnightblue" points="161.441,-393.5 171.441,-390 161.441,-386.5 161.441,-393.5"/>
</g>
<!-- Node14 -->
<g id="node29" class="node"><title>Node14</title>
<a xlink:href="../../d1/d2d/accelerometer_8c.xhtml#ac45981ec8f139799de2761059031da27" target="_top" xlink:title="num_pressed">
<polygon fill="white" stroke="black" points="163.5,-456.5 163.5,-475.5 238.5,-475.5 238.5,-456.5 163.5,-456.5"/>
<text text-anchor="middle" x="201" y="-463.5" font-family="Helvetica,sans-Serif" font-size="10.00">num_pressed</text>
</a>
</g>
<!-- Node1&#45;&gt;Node14 -->
<g id="edge30" class="edge"><title>Node1&#45;&gt;Node14</title>
<path fill="none" stroke="midnightblue" d="M78.5051,-399.592C97.5629,-410.032 128.94,-427.214 156,-442 161.577,-445.047 167.552,-448.309 173.245,-451.415"/>
<polygon fill="midnightblue" stroke="midnightblue" points="171.985,-454.714 182.44,-456.429 175.337,-448.569 171.985,-454.714"/>
</g>
<!-- Node15 -->
<g id="node32" class="node"><title>Node15</title>
<a xlink:href="../../d1/d2d/accelerometer_8c.xhtml#a98c2f38c8be9842b760af29757d87694" target="_top" xlink:title="star_long_pressed">
<polygon fill="white" stroke="black" points="305,-190.5 305,-209.5 401,-209.5 401,-190.5 305,-190.5"/>
<text text-anchor="middle" x="353" y="-197.5" font-family="Helvetica,sans-Serif" font-size="10.00">star_long_pressed</text>
</a>
</g>
<!-- Node1&#45;&gt;Node15 -->
<g id="edge34" class="edge"><title>Node1&#45;&gt;Node15</title>
<path fill="none" stroke="midnightblue" d="M69.2313,-380.332C84.9293,-362.238 120.734,-322.601 156,-295 207.5,-254.693 221.864,-244.702 282,-219 287.489,-216.654 293.346,-214.525 299.246,-212.614"/>
<polygon fill="midnightblue" stroke="midnightblue" points="300.608,-215.858 309.158,-209.602 298.573,-209.16 300.608,-215.858"/>
</g>
<!-- Node17 -->
<g id="node38" class="node"><title>Node17</title>
<a xlink:href="../../d1/d2d/accelerometer_8c.xhtml#abcbcaa7863416e641f147bce3d882790" target="_top" xlink:title="acc_activated">
<polygon fill="white" stroke="black" points="162.5,-304.5 162.5,-323.5 239.5,-323.5 239.5,-304.5 162.5,-304.5"/>
<text text-anchor="middle" x="201" y="-311.5" font-family="Helvetica,sans-Serif" font-size="10.00">acc_activated</text>
</a>
</g>
<!-- Node1&#45;&gt;Node17 -->
<g id="edge42" class="edge"><title>Node1&#45;&gt;Node17</title>
<path fill="none" stroke="midnightblue" d="M78.6044,-380.375C102.626,-367.24 145.865,-343.599 173.729,-328.364"/>
<polygon fill="midnightblue" stroke="midnightblue" points="175.443,-331.416 182.538,-323.547 172.085,-325.274 175.443,-331.416"/>
</g>
<!-- Node31 -->
<g id="node73" class="node"><title>Node31</title>
<a xlink:href="../../d1/d2d/accelerometer_8c.xhtml#a1beaf4dc0dba31d59b95641a3d199524" target="_top" xlink:title="acc_deactivated">
<polygon fill="white" stroke="black" points="157,-95.5 157,-114.5 245,-114.5 245,-95.5 157,-95.5"/>
<text text-anchor="middle" x="201" y="-102.5" font-family="Helvetica,sans-Serif" font-size="10.00">acc_deactivated</text>
</a>
</g>
<!-- Node1&#45;&gt;Node31 -->
<g id="edge84" class="edge"><title>Node1&#45;&gt;Node31</title>
<path fill="none" stroke="midnightblue" d="M65.7847,-380.19C85.9181,-338.909 163.952,-178.912 190.836,-123.789"/>
<polygon fill="midnightblue" stroke="midnightblue" points="193.998,-125.291 195.235,-114.769 187.706,-122.223 193.998,-125.291"/>
</g>
<!-- Node4 -->
<g id="node7" class="node"><title>Node4</title>
<a xlink:href="../../d9/d8e/vti__as_8h.xhtml#af27f4b90b36b436e9b0486b48387fdf4" target="_top" xlink:title="change_mode">
<polygon fill="white" stroke="black" points="473.5,-456.5 473.5,-475.5 550.5,-475.5 550.5,-456.5 473.5,-456.5"/>
<text text-anchor="middle" x="512" y="-463.5" font-family="Helvetica,sans-Serif" font-size="10.00">change_mode</text>
</a>
</g>
<!-- Node3&#45;&gt;Node4 -->
<g id="edge6" class="edge"><title>Node3&#45;&gt;Node4</title>
<path fill="none" stroke="midnightblue" d="M376.161,-466C398.595,-466 434.003,-466 462.906,-466"/>
<polygon fill="midnightblue" stroke="midnightblue" points="463.225,-469.5 473.224,-466 463.224,-462.5 463.225,-469.5"/>
</g>
<!-- Node5 -->
<g id="node9" class="node"><title>Node5</title>
<a xlink:href="../../d1/d2d/accelerometer_8c.xhtml#a04a6d2a31e79c09343524b363d57fe7a" target="_top" xlink:title="update_menu">
<polygon fill="white" stroke="black" points="474.5,-494.5 474.5,-513.5 549.5,-513.5 549.5,-494.5 474.5,-494.5"/>
<text text-anchor="middle" x="512" y="-501.5" font-family="Helvetica,sans-Serif" font-size="10.00">update_menu</text>
</a>
</g>
<!-- Node3&#45;&gt;Node5 -->
<g id="edge8" class="edge"><title>Node3&#45;&gt;Node5</title>
<path fill="none" stroke="midnightblue" d="M376.161,-471.364C398.996,-476.891 435.272,-485.671 464.449,-492.733"/>
<polygon fill="midnightblue" stroke="midnightblue" points="463.897,-496.2 474.44,-495.151 465.544,-489.397 463.897,-496.2"/>
</g>
<!-- Node6 -->
<g id="node11" class="node"><title>Node6</title>
<a xlink:href="../../db/d85/display_8c.xhtml#a6f2d5cdda31a73b43a569cb3d1a64165" target="_top" xlink:title="Displays several consecutive characters.">
<polygon fill="white" stroke="black" points="610.5,-373.5 610.5,-392.5 687.5,-392.5 687.5,-373.5 610.5,-373.5"/>
<text text-anchor="middle" x="649" y="-380.5" font-family="Helvetica,sans-Serif" font-size="10.00">display_chars</text>
</a>
</g>
<!-- Node3&#45;&gt;Node6 -->
<g id="edge20" class="edge"><title>Node3&#45;&gt;Node6</title>
<path fill="none" stroke="midnightblue" d="M376.098,-459.762C424.52,-446.091 540.731,-413.284 604.427,-395.301"/>
<polygon fill="midnightblue" stroke="midnightblue" points="605.507,-398.633 614.18,-392.548 603.606,-391.896 605.507,-398.633"/>
</g>
<!-- Node10 -->
<g id="node19" class="node"><title>Node10</title>
<a xlink:href="../../d9/d8e/vti__as_8h.xhtml#a09ea2bd655c59ec47643c5a7a25da589" target="_top" xlink:title="as_read_register">
<polygon fill="white" stroke="black" points="467.5,-234.5 467.5,-253.5 556.5,-253.5 556.5,-234.5 467.5,-234.5"/>
<text text-anchor="middle" x="512" y="-241.5" font-family="Helvetica,sans-Serif" font-size="10.00">as_read_register</text>
</a>
</g>
<!-- Node3&#45;&gt;Node10 -->
<g id="edge18" class="edge"><title>Node3&#45;&gt;Node10</title>
<path fill="none" stroke="midnightblue" d="M359.126,-456.337C370.737,-434.431 399.913,-379.295 424,-333 440.147,-301.965 433.842,-286.231 460,-263 461.751,-261.445 463.64,-260.013 465.626,-258.695"/>
<polygon fill="midnightblue" stroke="midnightblue" points="467.752,-261.519 474.808,-253.616 464.364,-255.394 467.752,-261.519"/>
</g>
<!-- Node11 -->
<g id="node22" class="node"><title>Node11</title>
<a xlink:href="../../db/d85/display_8c.xhtml#a0e030727a1bc4d1418bb96cc71350203" target="_top" xlink:title="Activates a virtual screen.">
<polygon fill="white" stroke="black" points="460,-329.5 460,-348.5 564,-348.5 564,-329.5 460,-329.5"/>
<text text-anchor="middle" x="512" y="-336.5" font-family="Helvetica,sans-Serif" font-size="10.00">lcd_screen_activate</text>
</a>
</g>
<!-- Node3&#45;&gt;Node11 -->
<g id="edge22" class="edge"><title>Node3&#45;&gt;Node11</title>
<path fill="none" stroke="midnightblue" d="M376.216,-461.625C390.724,-458.02 409.578,-451.863 424,-442 457.304,-419.223 485.203,-380.42 499.876,-357.5"/>
<polygon fill="midnightblue" stroke="midnightblue" points="503.015,-359.081 505.332,-348.743 497.073,-355.38 503.015,-359.081"/>
</g>
<!-- Node5&#45;&gt;Node6 -->
<g id="edge10" class="edge"><title>Node5&#45;&gt;Node6</title>
<path fill="none" stroke="midnightblue" d="M546.384,-494.454C552.539,-491.909 558.691,-488.784 564,-485 596.201,-462.048 623.122,-423.76 637.274,-401.194"/>
<polygon fill="midnightblue" stroke="midnightblue" points="640.312,-402.935 642.536,-392.576 634.337,-399.287 640.312,-402.935"/>
</g>
<!-- Node7 -->
<g id="node13" class="node"><title>Node7</title>
<a xlink:href="../../db/d85/display_8c.xhtml#a3ae30196af91197037d50cb49de1d109" target="_top" xlink:title="Displays a single character.">
<polygon fill="white" stroke="black" points="734.5,-240.5 734.5,-259.5 805.5,-259.5 805.5,-240.5 734.5,-240.5"/>
<text text-anchor="middle" x="770" y="-247.5" font-family="Helvetica,sans-Serif" font-size="10.00">display_char</text>
</a>
</g>
<!-- Node6&#45;&gt;Node7 -->
<g id="edge12" class="edge"><title>Node6&#45;&gt;Node7</title>
<path fill="none" stroke="midnightblue" d="M673.982,-373.481C682.179,-369.491 691.028,-364.299 698,-358 726.718,-332.056 748.968,-292.047 760.429,-268.702"/>
<polygon fill="midnightblue" stroke="midnightblue" points="763.656,-270.066 764.795,-259.533 757.336,-267.057 763.656,-270.066"/>
</g>
<!-- Node8 -->
<g id="node15" class="node"><title>Node8</title>
<a xlink:href="../../db/d85/display_8c.xhtml#a9275035317878022cf9eacf6b0a5be72" target="_top" xlink:title="Display a custom collection of segments.">
<polygon fill="white" stroke="black" points="842,-240.5 842,-259.5 910,-259.5 910,-240.5 842,-240.5"/>
<text text-anchor="middle" x="876" y="-247.5" font-family="Helvetica,sans-Serif" font-size="10.00">display_bits</text>
</a>
</g>
<!-- Node7&#45;&gt;Node8 -->
<g id="edge14" class="edge"><title>Node7&#45;&gt;Node8</title>
<path fill="none" stroke="midnightblue" d="M805.63,-250C814.04,-250 823.133,-250 831.882,-250"/>
<polygon fill="midnightblue" stroke="midnightblue" points="831.931,-253.5 841.931,-250 831.931,-246.5 831.931,-253.5"/>
</g>
<!-- Node9 -->
<g id="node17" class="node"><title>Node9</title>
<a xlink:href="../../db/d85/display_8c.xhtml#a710739913e8ea1b71dd433b8311211fd" target="_top" xlink:title="write_lcd_mem">
<polygon fill="white" stroke="black" points="946.5,-221.5 946.5,-240.5 1029.5,-240.5 1029.5,-221.5 946.5,-221.5"/>
<text text-anchor="middle" x="988" y="-228.5" font-family="Helvetica,sans-Serif" font-size="10.00">write_lcd_mem</text>
</a>
</g>
<!-- Node8&#45;&gt;Node9 -->
<g id="edge16" class="edge"><title>Node8&#45;&gt;Node9</title>
<path fill="none" stroke="midnightblue" d="M910.004,-244.299C918.28,-242.87 927.352,-241.303 936.273,-239.762"/>
<polygon fill="midnightblue" stroke="midnightblue" points="936.972,-243.193 946.231,-238.042 935.781,-236.295 936.972,-243.193"/>
</g>
<!-- Node12 -->
<g id="node24" class="node"><title>Node12</title>
<a xlink:href="../../d2/df2/openchronos_8c.xhtml#a72f5591868e0c66a539eacdcd0b520d7" target="_top" xlink:title="Increment/decrements value by one without exiting the [lower, upper] interval.">
<polygon fill="white" stroke="black" points="613.5,-329.5 613.5,-348.5 684.5,-348.5 684.5,-329.5 613.5,-329.5"/>
<text text-anchor="middle" x="649" y="-336.5" font-family="Helvetica,sans-Serif" font-size="10.00">helpers_loop</text>
</a>
</g>
<!-- Node11&#45;&gt;Node12 -->
<g id="edge24" class="edge"><title>Node11&#45;&gt;Node12</title>
<path fill="none" stroke="midnightblue" d="M564.038,-339C576.871,-339 590.55,-339 603.061,-339"/>
<polygon fill="midnightblue" stroke="midnightblue" points="603.251,-342.5 613.251,-339 603.251,-335.5 603.251,-342.5"/>
</g>
<!-- Node13&#45;&gt;Node11 -->
<g id="edge28" class="edge"><title>Node13&#45;&gt;Node11</title>
<path fill="none" stroke="midnightblue" d="M230.516,-385.293C280.184,-377.096 383.599,-360.027 450.028,-349.063"/>
<polygon fill="midnightblue" stroke="midnightblue" points="450.657,-352.507 459.953,-347.425 449.517,-345.6 450.657,-352.507"/>
</g>
<!-- Node14&#45;&gt;Node5 -->
<g id="edge32" class="edge"><title>Node14&#45;&gt;Node5</title>
<path fill="none" stroke="midnightblue" d="M237.215,-475.572C251.08,-479.022 267.198,-482.642 282,-485 344.632,-494.978 417.787,-499.89 464.242,-502.181"/>
<polygon fill="midnightblue" stroke="midnightblue" points="464.154,-505.68 474.308,-502.657 464.484,-498.688 464.154,-505.68"/>
</g>
<!-- Node15&#45;&gt;Node11 -->
<g id="edge40" class="edge"><title>Node15&#45;&gt;Node11</title>
<path fill="none" stroke="midnightblue" d="M401.31,-206.649C409.532,-209.451 417.512,-213.411 424,-219 454.156,-244.977 435.219,-269.853 460,-301 466.909,-309.684 476.253,-317.406 485.056,-323.583"/>
<polygon fill="midnightblue" stroke="midnightblue" points="483.299,-326.617 493.568,-329.224 487.166,-320.782 483.299,-326.617"/>
</g>
<!-- Node16 -->
<g id="node34" class="node"><title>Node16</title>
<a xlink:href="../../db/d85/display_8c.xhtml#af604e78dcc4e0f1a204b2180c5e54957" target="_top" xlink:title="Displays a symbol.">
<polygon fill="white" stroke="black" points="607,-202.5 607,-221.5 691,-221.5 691,-202.5 607,-202.5"/>
<text text-anchor="middle" x="649" y="-209.5" font-family="Helvetica,sans-Serif" font-size="10.00">display_symbol</text>
</a>
</g>
<!-- Node15&#45;&gt;Node16 -->
<g id="edge36" class="edge"><title>Node15&#45;&gt;Node16</title>
<path fill="none" stroke="midnightblue" d="M401.236,-201.928C454.608,-204.106 541.2,-207.641 596.333,-209.891"/>
<polygon fill="midnightblue" stroke="midnightblue" points="596.449,-213.399 606.583,-210.31 596.734,-206.405 596.449,-213.399"/>
</g>
<!-- Node16&#45;&gt;Node9 -->
<g id="edge38" class="edge"><title>Node16&#45;&gt;Node9</title>
<path fill="none" stroke="midnightblue" d="M691.323,-214.33C753.051,-217.81 869.221,-224.36 936.098,-228.13"/>
<polygon fill="midnightblue" stroke="midnightblue" points="936.211,-231.642 946.392,-228.711 936.605,-224.653 936.211,-231.642"/>
</g>
<!-- Node17&#45;&gt;Node6 -->
<g id="edge78" class="edge"><title>Node17&#45;&gt;Node6</title>
<path fill="none" stroke="midnightblue" d="M218.223,-323.547C233.955,-332.303 258.784,-344.819 282,-351 393.099,-380.579 529.192,-384.369 600.007,-384.022"/>
<polygon fill="midnightblue" stroke="midnightblue" points="600.413,-387.519 610.385,-383.939 600.357,-380.52 600.413,-387.519"/>
</g>
<!-- Node17&#45;&gt;Node11 -->
<g id="edge82" class="edge"><title>Node17&#45;&gt;Node11</title>
<path fill="none" stroke="midnightblue" d="M235.188,-323.509C249.469,-327.176 266.429,-330.969 282,-333 338.462,-340.364 403.396,-341.368 449.665,-340.822"/>
<polygon fill="midnightblue" stroke="midnightblue" points="449.883,-344.319 459.831,-340.674 449.781,-337.32 449.883,-344.319"/>
</g>
<!-- Node18 -->
<g id="node40" class="node"><title>Node18</title>
<a xlink:href="../../d2/df2/openchronos_8c.xhtml#a5aeb07d7031b5d53ca8605bf398714a2" target="_top" xlink:title="Registers a node in the message bus.">
<polygon fill="white" stroke="black" points="287.5,-304.5 287.5,-323.5 418.5,-323.5 418.5,-304.5 287.5,-304.5"/>
<text text-anchor="middle" x="353" y="-311.5" font-family="Helvetica,sans-Serif" font-size="10.00">sys_messagebus_register</text>
</a>
</g>
<!-- Node17&#45;&gt;Node18 -->
<g id="edge44" class="edge"><title>Node17&#45;&gt;Node18</title>
<path fill="none" stroke="midnightblue" d="M239.851,-314C251.219,-314 264.111,-314 277.002,-314"/>
<polygon fill="midnightblue" stroke="midnightblue" points="277.312,-317.5 287.312,-314 277.312,-310.5 277.312,-317.5"/>
</g>
<!-- Node19 -->
<g id="node42" class="node"><title>Node19</title>
<a xlink:href="../../d1/d2d/accelerometer_8c.xhtml#afbcf13abd555b9a4a97848c75f4a0479" target="_top" xlink:title="as_event">
<polygon fill="white" stroke="black" points="325,-76.5 325,-95.5 381,-95.5 381,-76.5 325,-76.5"/>
<text text-anchor="middle" x="353" y="-83.5" font-family="Helvetica,sans-Serif" font-size="10.00">as_event</text>
</a>
</g>
<!-- Node17&#45;&gt;Node19 -->
<g id="edge46" class="edge"><title>Node17&#45;&gt;Node19</title>
<path fill="none" stroke="midnightblue" d="M204.839,-304.286C213.207,-276.807 239.866,-197.01 282,-143 294.853,-126.525 313.305,-111.75 328.038,-101.372"/>
<polygon fill="midnightblue" stroke="midnightblue" points="330.356,-104.028 336.647,-95.5036 326.413,-98.2442 330.356,-104.028"/>
</g>
<!-- Node29 -->
<g id="node67" class="node"><title>Node29</title>
<a xlink:href="../../db/d85/display_8c.xhtml#a4c1000a508e4527145c75b4827d81dd8" target="_top" xlink:title="Creates virtual screens.">
<polygon fill="white" stroke="black" points="302.5,-266.5 302.5,-285.5 403.5,-285.5 403.5,-266.5 302.5,-266.5"/>
<text text-anchor="middle" x="353" y="-273.5" font-family="Helvetica,sans-Serif" font-size="10.00">lcd_screens_create</text>
</a>
</g>
<!-- Node17&#45;&gt;Node29 -->
<g id="edge76" class="edge"><title>Node17&#45;&gt;Node29</title>
<path fill="none" stroke="midnightblue" d="M239.851,-304.411C259.467,-299.442 283.619,-293.323 304.479,-288.039"/>
<polygon fill="midnightblue" stroke="midnightblue" points="305.587,-291.369 314.421,-285.52 303.868,-284.583 305.587,-291.369"/>
</g>
<!-- Node30 -->
<g id="node70" class="node"><title>Node30</title>
<a xlink:href="../../d9/d8e/vti__as_8h.xhtml#a2dd95e0d4309895c2585eeeea2981d61" target="_top" xlink:title="as_start">
<polygon fill="white" stroke="black" points="327,-228.5 327,-247.5 379,-247.5 379,-228.5 327,-228.5"/>
<text text-anchor="middle" x="353" y="-235.5" font-family="Helvetica,sans-Serif" font-size="10.00">as_start</text>
</a>
</g>
<!-- Node17&#45;&gt;Node30 -->
<g id="edge80" class="edge"><title>Node17&#45;&gt;Node30</title>
<path fill="none" stroke="midnightblue" d="M212.857,-304.326C227.546,-291.715 255.025,-269.767 282,-257 293.004,-251.792 305.68,-247.808 317.196,-244.866"/>
<polygon fill="midnightblue" stroke="midnightblue" points="318.029,-248.265 326.946,-242.544 316.408,-241.456 318.029,-248.265"/>
</g>
<!-- Node19&#45;&gt;Node10 -->
<g id="edge74" class="edge"><title>Node19&#45;&gt;Node10</title>
<path fill="none" stroke="midnightblue" d="M381.188,-90.0711C395.355,-93.3906 412.149,-99.3541 424,-110 452.104,-135.246 439.183,-155.475 460,-187 469.656,-201.623 482.91,-216.317 493.486,-227.123"/>
<polygon fill="midnightblue" stroke="midnightblue" points="491.073,-229.66 500.624,-234.247 496.018,-224.706 491.073,-229.66"/>
</g>
<!-- Node19&#45;&gt;Node11 -->
<g id="edge60" class="edge"><title>Node19&#45;&gt;Node11</title>
<path fill="none" stroke="midnightblue" d="M371.485,-95.602C387.632,-105.394 411.019,-122.097 424,-143 461.995,-204.184 420.697,-240.647 460,-301 465.965,-310.16 474.944,-317.918 483.713,-323.989"/>
<polygon fill="midnightblue" stroke="midnightblue" points="481.985,-327.039 492.293,-329.487 485.762,-321.145 481.985,-327.039"/>
</g>
<!-- Node20 -->
<g id="node44" class="node"><title>Node20</title>
<a xlink:href="../../d9/d8e/vti__as_8h.xhtml#a73481abbeea9355be57fe38b57a79a12" target="_top" xlink:title="as_stop">
<polygon fill="white" stroke="black" points="486.5,-0.5 486.5,-19.5 537.5,-19.5 537.5,-0.5 486.5,-0.5"/>
<text text-anchor="middle" x="512" y="-7.5" font-family="Helvetica,sans-Serif" font-size="10.00">as_stop</text>
</a>
</g>
<!-- Node19&#45;&gt;Node20 -->
<g id="edge48" class="edge"><title>Node19&#45;&gt;Node20</title>
<path fill="none" stroke="midnightblue" d="M381.295,-82.1745C394.838,-79.412 411.029,-74.7526 424,-67 443.969,-55.0642 440.598,-41.8373 460,-29 465.099,-25.6265 470.878,-22.7446 476.668,-20.3212"/>
<polygon fill="midnightblue" stroke="midnightblue" points="478.193,-23.4862 486.304,-16.67 475.713,-16.9403 478.193,-23.4862"/>
</g>
<!-- Node21 -->
<g id="node46" class="node"><title>Node21</title>
<a xlink:href="../../d9/d8e/vti__as_8h.xhtml#ab8f3382742af6bc6d4100cb2ff3503ee" target="_top" xlink:title="as_get_status">
<polygon fill="white" stroke="black" points="473,-158.5 473,-177.5 551,-177.5 551,-158.5 473,-158.5"/>
<text text-anchor="middle" x="512" y="-165.5" font-family="Helvetica,sans-Serif" font-size="10.00">as_get_status</text>
</a>
</g>
<!-- Node19&#45;&gt;Node21 -->
<g id="edge50" class="edge"><title>Node19&#45;&gt;Node21</title>
<path fill="none" stroke="midnightblue" d="M381.005,-91.8996C394.628,-95.683 410.979,-101.509 424,-110 443.759,-122.885 440.412,-135.856 460,-149 462.872,-150.927 465.966,-152.692 469.159,-154.301"/>
<polygon fill="midnightblue" stroke="midnightblue" points="467.765,-157.512 478.32,-158.43 470.642,-151.13 467.765,-157.512"/>
</g>
<!-- Node22 -->
<g id="node48" class="node"><title>Node22</title>
<a xlink:href="../../d3/d4c/buzzer_8c.xhtml#a6ec06c5367637f000e6c5deedc6bab1b" target="_top" xlink:title="Play a sequence of notes using the buzzer.">
<polygon fill="white" stroke="black" points="477.5,-38.5 477.5,-57.5 546.5,-57.5 546.5,-38.5 477.5,-38.5"/>
<text text-anchor="middle" x="512" y="-45.5" font-family="Helvetica,sans-Serif" font-size="10.00">buzzer_play</text>
</a>
</g>
<!-- Node19&#45;&gt;Node22 -->
<g id="edge52" class="edge"><title>Node19&#45;&gt;Node22</title>
<path fill="none" stroke="midnightblue" d="M381.347,-79.3809C405.134,-73.6236 440.019,-65.18 467.614,-58.5012"/>
<polygon fill="midnightblue" stroke="midnightblue" points="468.52,-61.8829 477.416,-56.1286 466.873,-55.0794 468.52,-61.8829"/>
</g>
<!-- Node25 -->
<g id="node54" class="node"><title>Node25</title>
<a xlink:href="../../d9/d8e/vti__as_8h.xhtml#ae20bbb28e4b58198a517f379b7920a3b" target="_top" xlink:title="as_get_data">
<polygon fill="white" stroke="black" points="477,-76.5 477,-95.5 547,-95.5 547,-76.5 477,-76.5"/>
<text text-anchor="middle" x="512" y="-83.5" font-family="Helvetica,sans-Serif" font-size="10.00">as_get_data</text>
</a>
</g>
<!-- Node19&#45;&gt;Node25 -->
<g id="edge58" class="edge"><title>Node19&#45;&gt;Node25</title>
<path fill="none" stroke="midnightblue" d="M381.347,-86C404.874,-86 439.258,-86 466.706,-86"/>
<polygon fill="midnightblue" stroke="midnightblue" points="466.849,-89.5001 476.849,-86 466.849,-82.5001 466.849,-89.5001"/>
</g>
<!-- Node26 -->
<g id="node57" class="node"><title>Node26</title>
<a xlink:href="../../d1/d2d/accelerometer_8c.xhtml#a395794d1c6c3446e651f1d8751308121" target="_top" xlink:title="display_data">
<polygon fill="white" stroke="black" points="476.5,-120.5 476.5,-139.5 547.5,-139.5 547.5,-120.5 476.5,-120.5"/>
<text text-anchor="middle" x="512" y="-127.5" font-family="Helvetica,sans-Serif" font-size="10.00">display_data</text>
</a>
</g>
<!-- Node19&#45;&gt;Node26 -->
<g id="edge62" class="edge"><title>Node19&#45;&gt;Node26</title>
<path fill="none" stroke="midnightblue" d="M381.347,-93.6642C404.977,-100.287 439.561,-109.979 467.068,-117.688"/>
<polygon fill="midnightblue" stroke="midnightblue" points="466.275,-121.1 476.849,-120.429 468.164,-114.36 466.275,-121.1"/>
</g>
<!-- Node23 -->
<g id="node50" class="node"><title>Node23</title>
<a xlink:href="../../df/d41/timer_8c.xhtml#adc3302861aee9d7f4a1c4c6d25d07343" target="_top" xlink:title="1ms &#45; 1s programmable delay">
<polygon fill="white" stroke="black" points="613,-38.5 613,-57.5 685,-57.5 685,-38.5 613,-38.5"/>
<text text-anchor="middle" x="649" y="-45.5" font-family="Helvetica,sans-Serif" font-size="10.00">timer0_delay</text>
</a>
</g>
<!-- Node22&#45;&gt;Node23 -->
<g id="edge54" class="edge"><title>Node22&#45;&gt;Node23</title>
<path fill="none" stroke="midnightblue" d="M546.718,-48C563.64,-48 584.379,-48 602.673,-48"/>
<polygon fill="midnightblue" stroke="midnightblue" points="602.829,-51.5001 612.829,-48 602.829,-44.5001 602.829,-51.5001"/>
</g>
<!-- Node24 -->
<g id="node52" class="node"><title>Node24</title>
<a xlink:href="../../d3/d4c/buzzer_8c.xhtml#a0b5e97d5c00be597d96fd80c6cd1ad56" target="_top" xlink:title="buzzer_stop">
<polygon fill="white" stroke="black" points="614,-0.5 614,-19.5 684,-19.5 684,-0.5 614,-0.5"/>
<text text-anchor="middle" x="649" y="-7.5" font-family="Helvetica,sans-Serif" font-size="10.00">buzzer_stop</text>
</a>
</g>
<!-- Node22&#45;&gt;Node24 -->
<g id="edge56" class="edge"><title>Node22&#45;&gt;Node24</title>
<path fill="none" stroke="midnightblue" d="M546.718,-38.509C564.195,-33.5896 585.742,-27.5243 604.464,-22.2546"/>
<polygon fill="midnightblue" stroke="midnightblue" points="605.566,-25.5804 614.244,-19.5017 603.67,-18.8422 605.566,-25.5804"/>
</g>
<!-- Node26&#45;&gt;Node6 -->
<g id="edge66" class="edge"><title>Node26&#45;&gt;Node6</title>
<path fill="none" stroke="midnightblue" d="M547.698,-137.336C553.888,-140.075 559.717,-143.836 564,-149 624.17,-221.552 544.424,-281.871 600,-358 602.895,-361.965 606.607,-365.353 610.683,-368.234"/>
<polygon fill="midnightblue" stroke="midnightblue" points="609.037,-371.328 619.415,-373.459 612.631,-365.321 609.037,-371.328"/>
</g>
<!-- Node26&#45;&gt;Node7 -->
<g id="edge64" class="edge"><title>Node26&#45;&gt;Node7</title>
<path fill="none" stroke="midnightblue" d="M545.537,-139.587C591.095,-153.264 671.31,-178.338 698,-193 717.963,-203.967 737.947,-220.646 751.604,-233.133"/>
<polygon fill="midnightblue" stroke="midnightblue" points="749.541,-235.997 759.233,-240.278 754.326,-230.888 749.541,-235.997"/>
</g>
<!-- Node26&#45;&gt;Node16 -->
<g id="edge72" class="edge"><title>Node26&#45;&gt;Node16</title>
<path fill="none" stroke="midnightblue" d="M545.68,-139.57C552.026,-142.136 558.429,-145.262 564,-149 583.588,-162.144 581.143,-173.827 600,-188 604.771,-191.586 610.161,-194.88 615.56,-197.804"/>
<polygon fill="midnightblue" stroke="midnightblue" points="614.046,-200.961 624.548,-202.361 617.211,-194.717 614.046,-200.961"/>
</g>
<!-- Node27 -->
<g id="node61" class="node"><title>Node27</title>
<a xlink:href="../../db/d85/display_8c.xhtml#a9047d98cd15ffbc79e15c63fca36d70b" target="_top" xlink:title="pseudo sprintf function">
<polygon fill="white" stroke="black" points="624.5,-126.5 624.5,-145.5 673.5,-145.5 673.5,-126.5 624.5,-126.5"/>
<text text-anchor="middle" x="649" y="-133.5" font-family="Helvetica,sans-Serif" font-size="10.00">_sprintf</text>
</a>
</g>
<!-- Node26&#45;&gt;Node27 -->
<g id="edge68" class="edge"><title>Node26&#45;&gt;Node27</title>
<path fill="none" stroke="midnightblue" d="M547.766,-131.545C568.256,-132.456 594.057,-133.603 614.35,-134.504"/>
<polygon fill="midnightblue" stroke="midnightblue" points="614.257,-138.004 624.403,-134.951 614.568,-131.011 614.257,-138.004"/>
</g>
<!-- Node28 -->
<g id="node63" class="node"><title>Node28</title>
<a xlink:href="../../d1/d2d/accelerometer_8c.xhtml#ada05d6860a0eb4054d6aab60f359317c" target="_top" xlink:title="acceleration_value\l_is_positive">
<polygon fill="white" stroke="black" points="600,-77 600,-107 698,-107 698,-77 600,-77"/>
<text text-anchor="start" x="608" y="-95" font-family="Helvetica,sans-Serif" font-size="10.00">acceleration_value</text>
<text text-anchor="middle" x="649" y="-84" font-family="Helvetica,sans-Serif" font-size="10.00">_is_positive</text>
</a>
</g>
<!-- Node26&#45;&gt;Node28 -->
<g id="edge70" class="edge"><title>Node26&#45;&gt;Node28</title>
<path fill="none" stroke="midnightblue" d="M547.066,-120.411C560.077,-116.749 575.304,-112.463 589.929,-108.346"/>
<polygon fill="midnightblue" stroke="midnightblue" points="591.245,-111.611 599.923,-105.533 589.349,-104.873 591.245,-111.611"/>
</g>
<!-- Node31&#45;&gt;Node19 -->
<g id="edge98" class="edge"><title>Node31&#45;&gt;Node19</title>
<path fill="none" stroke="midnightblue" d="M245.386,-99.5044C267.296,-96.7292 293.611,-93.3959 314.616,-90.7353"/>
<polygon fill="midnightblue" stroke="midnightblue" points="315.279,-94.1794 324.76,-89.4504 314.399,-87.2348 315.279,-94.1794"/>
</g>
<!-- Node31&#45;&gt;Node20 -->
<g id="edge100" class="edge"><title>Node31&#45;&gt;Node20</title>
<path fill="none" stroke="midnightblue" d="M208.587,-95.4181C220.806,-78.5386 248.784,-43.8841 282,-29 345.834,-0.395952 429.655,-2.06196 476.137,-5.9513"/>
<polygon fill="midnightblue" stroke="midnightblue" points="476.013,-9.45465 486.292,-6.88739 476.656,-2.48419 476.013,-9.45465"/>
</g>
<!-- Node32 -->
<g id="node75" class="node"><title>Node32</title>
<a xlink:href="../../db/d85/display_8c.xhtml#acef5af52e5b50c8ba28846cbc0c3e683" target="_top" xlink:title="Destroys all virtual screen.">
<polygon fill="white" stroke="black" points="299.5,-152.5 299.5,-171.5 406.5,-171.5 406.5,-152.5 299.5,-152.5"/>
<text text-anchor="middle" x="353" y="-159.5" font-family="Helvetica,sans-Serif" font-size="10.00">lcd_screens_destroy</text>
</a>
</g>
<!-- Node31&#45;&gt;Node32 -->
<g id="edge86" class="edge"><title>Node31&#45;&gt;Node32</title>
<path fill="none" stroke="midnightblue" d="M224.269,-114.613C240.239,-121.402 262.32,-130.575 282,-138 292.111,-141.815 303.135,-145.714 313.381,-149.23"/>
<polygon fill="midnightblue" stroke="midnightblue" points="312.315,-152.564 322.91,-152.468 314.568,-145.937 312.315,-152.564"/>
</g>
<!-- Node33 -->
<g id="node78" class="node"><title>Node33</title>
<a xlink:href="../../db/d85/display_8c.xhtml#aa150336a018e90f37fd0285047b541f6" target="_top" xlink:title="Clears the screen.">
<polygon fill="white" stroke="black" points="475,-272.5 475,-291.5 549,-291.5 549,-272.5 475,-272.5"/>
<text text-anchor="middle" x="512" y="-279.5" font-family="Helvetica,sans-Serif" font-size="10.00">display_clear</text>
</a>
</g>
<!-- Node31&#45;&gt;Node33 -->
<g id="edge90" class="edge"><title>Node31&#45;&gt;Node33</title>
<path fill="none" stroke="midnightblue" d="M245.455,-107.102C302.423,-110.733 398.158,-120.131 424,-143 465.699,-179.901 421.931,-222.365 460,-263 461.809,-264.931 463.832,-266.666 466.001,-268.227"/>
<polygon fill="midnightblue" stroke="midnightblue" points="464.539,-271.425 474.946,-273.416 468.052,-265.37 464.539,-271.425"/>
</g>
<!-- Node34 -->
<g id="node82" class="node"><title>Node34</title>
<a xlink:href="../../d2/df2/openchronos_8c.xhtml#a60705ce0564ce52c1977a32cee3215c2" target="_top" xlink:title="Unregisters a node from the message bus.">
<polygon fill="white" stroke="black" points="282.5,-38.5 282.5,-57.5 423.5,-57.5 423.5,-38.5 282.5,-38.5"/>
<text text-anchor="middle" x="353" y="-45.5" font-family="Helvetica,sans-Serif" font-size="10.00">sys_messagebus_unregister</text>
</a>
</g>
<!-- Node31&#45;&gt;Node34 -->
<g id="edge96" class="edge"><title>Node31&#45;&gt;Node34</title>
<path fill="none" stroke="midnightblue" d="M219.715,-95.4587C235.669,-87.14 259.935,-75.1606 282,-67 288.428,-64.6228 295.286,-62.3976 302.101,-60.3673"/>
<polygon fill="midnightblue" stroke="midnightblue" points="303.348,-63.6512 312,-57.5371 301.424,-56.9209 303.348,-63.6512"/>
</g>
<!-- Node32&#45;&gt;Node11 -->
<g id="edge88" class="edge"><title>Node32&#45;&gt;Node11</title>
<path fill="none" stroke="midnightblue" d="M406.519,-169.809C412.978,-172.535 419.038,-176.168 424,-181 463.889,-219.849 428.059,-255.391 460,-301 466.271,-309.954 475.319,-317.665 484.058,-323.756"/>
<polygon fill="midnightblue" stroke="midnightblue" points="482.287,-326.78 492.58,-329.293 486.101,-320.91 482.287,-326.78"/>
</g>
<!-- Node33&#45;&gt;Node6 -->
<g id="edge92" class="edge"><title>Node33&#45;&gt;Node6</title>
<path fill="none" stroke="midnightblue" d="M527.36,-291.7C537.869,-299.033 552.279,-309.586 564,-320 581.392,-335.452 581.428,-343.989 600,-358 605.218,-361.936 611.144,-365.579 617.009,-368.798"/>
<polygon fill="midnightblue" stroke="midnightblue" points="615.573,-371.996 626.063,-373.487 618.793,-365.78 615.573,-371.996"/>
</g>
<!-- Node33&#45;&gt;Node16 -->
<g id="edge94" class="edge"><title>Node33&#45;&gt;Node16</title>
<path fill="none" stroke="midnightblue" d="M541.457,-272.481C548.911,-269.696 556.857,-266.46 564,-263 585.764,-252.456 609.18,-237.952 625.746,-227.107"/>
<polygon fill="midnightblue" stroke="midnightblue" points="627.791,-229.95 634.191,-221.506 623.922,-224.117 627.791,-229.95"/>
</g>
</g>
</svg>
