<?xml version="1.0" encoding="UTF-8" standalone="no"?>
<!DOCTYPE svg PUBLIC "-//W3C//DTD SVG 1.1//EN"
 "http://www.w3.org/Graphics/SVG/1.1/DTD/svg11.dtd">
<!-- Generated by graphviz version 2.28.0 (20121221.0049)
 -->
<!-- Title: acc_activated Pages: 1 -->
<!--zoomable 382 -->
<svg id="main" version="1.1" xmlns="http://www.w3.org/2000/svg" xmlns:xlink="http://www.w3.org/1999/xlink" xml:space="preserve" onload="init(evt)">
        <defs>
                <circle id="rim" cx="0" cy="0" r="7"/>
                <circle id="rim2" cx="0" cy="0" r="3.5"/>
                <g id="zoomPlus">
                        <use xlink:href="#rim" fill="#404040">
                                <set attributeName="fill" to="#808080" begin="zoomplus.mouseover" end="zoomplus.mouseout"/>
                        </use>
                        <path d="M-4,0h8M0,-4v8" fill="none" stroke="white" stroke-width="1.5" pointer-events="none"/>
                </g>
                <g id="zoomMin">
                        <use xlink:href="#rim" fill="#404040">
                                <set attributeName="fill" to="#808080" begin="zoomminus.mouseover" end="zoomminus.mouseout"/>
                        </use>
                        <path d="M-4,0h8" fill="none" stroke="white" stroke-width="1.5" pointer-events="none"/>
                </g>
                <g id="dirArrow">
                        <path fill="none" stroke="white" stroke-width="1.5" d="M0,-3.0v7 M-2.5,-0.5L0,-3.0L2.5,-0.5"/>
                </g>
               <g id="resetDef">
                       <use xlink:href="#rim2" fill="#404040">
                               <set attributeName="fill" to="#808080" begin="reset.mouseover" end="reset.mouseout"/>
                       </use>
               </g>
        </defs>

<script type="text/javascript">
var viewWidth = 872;
var viewHeight = 382;
var sectionId = 'dynsection-1';
</script>
<script xlink:href="../../svgpan.js"/>
<svg id="graph" class="graph">
<g id="viewport">
<title>acc_activated</title>
<polygon fill="white" stroke="white" points="-4,5 -4,-378 869,-378 869,5 -4,5"/>
<!-- Node1 -->
<g id="node1" class="node"><title>Node1</title>
<polygon fill="#bfbfbf" stroke="black" points="0.5,-95.5 0.5,-114.5 77.5,-114.5 77.5,-95.5 0.5,-95.5"/>
<text text-anchor="middle" x="39" y="-102.5" font-family="Helvetica,sans-Serif" font-size="10.00">acc_activated</text>
</g>
<!-- Node2 -->
<g id="node3" class="node"><title>Node2</title>
<a xlink:href="../../d2/df2/openchronos_8c.xhtml#a5aeb07d7031b5d53ca8605bf398714a2" target="_top" xlink:title="Registers a node in the message bus.">
<polygon fill="white" stroke="black" points="114.5,-228.5 114.5,-247.5 245.5,-247.5 245.5,-228.5 114.5,-228.5"/>
<text text-anchor="middle" x="180" y="-235.5" font-family="Helvetica,sans-Serif" font-size="10.00">sys_messagebus_register</text>
</a>
</g>
<!-- Node1&#45;&gt;Node2 -->
<g id="edge2" class="edge"><title>Node1&#45;&gt;Node2</title>
<path fill="none" stroke="midnightblue" d="M43.5105,-114.604C52.0318,-136.557 75.9504,-190.687 114,-219 116.513,-220.87 119.207,-222.556 122.016,-224.077"/>
<polygon fill="midnightblue" stroke="midnightblue" points="120.762,-227.354 131.306,-228.393 123.712,-221.005 120.762,-227.354"/>
</g>
<!-- Node3 -->
<g id="node5" class="node"><title>Node3</title>
<a xlink:href="../../d1/d2d/accelerometer_8c.xhtml#afbcf13abd555b9a4a97848c75f4a0479" target="_top" xlink:title="as_event">
<polygon fill="white" stroke="black" points="152,-190.5 152,-209.5 208,-209.5 208,-190.5 152,-190.5"/>
<text text-anchor="middle" x="180" y="-197.5" font-family="Helvetica,sans-Serif" font-size="10.00">as_event</text>
</a>
</g>
<!-- Node1&#45;&gt;Node3 -->
<g id="edge4" class="edge"><title>Node1&#45;&gt;Node3</title>
<path fill="none" stroke="midnightblue" d="M54.093,-114.632C78.2368,-131.133 127.696,-164.936 156.608,-184.696"/>
<polygon fill="midnightblue" stroke="midnightblue" points="154.639,-187.59 164.87,-190.343 158.589,-181.81 154.639,-187.59"/>
</g>
<!-- Node10 -->
<g id="node19" class="node"><title>Node10</title>
<a xlink:href="../../db/d85/display_8c.xhtml#a0e030727a1bc4d1418bb96cc71350203" target="_top" xlink:title="Activates a virtual screen.">
<polygon fill="white" stroke="black" points="282,-76.5 282,-95.5 386,-95.5 386,-76.5 282,-76.5"/>
<text text-anchor="middle" x="334" y="-83.5" font-family="Helvetica,sans-Serif" font-size="10.00">lcd_screen_activate</text>
</a>
</g>
<!-- Node1&#45;&gt;Node10 -->
<g id="edge50" class="edge"><title>Node1&#45;&gt;Node10</title>
<path fill="none" stroke="midnightblue" d="M77.7048,-102.555C126.768,-99.3734 213.129,-93.7732 271.678,-89.9765"/>
<polygon fill="midnightblue" stroke="midnightblue" points="272.156,-93.4529 281.909,-89.3131 271.703,-86.4676 272.156,-93.4529"/>
</g>
<!-- Node16 -->
<g id="node31" class="node"><title>Node16</title>
<a xlink:href="../../db/d85/display_8c.xhtml#a6f2d5cdda31a73b43a569cb3d1a64165" target="_top" xlink:title="Displays several consecutive characters.">
<polygon fill="white" stroke="black" points="432.5,-114.5 432.5,-133.5 509.5,-133.5 509.5,-114.5 432.5,-114.5"/>
<text text-anchor="middle" x="471" y="-121.5" font-family="Helvetica,sans-Serif" font-size="10.00">display_chars</text>
</a>
</g>
<!-- Node1&#45;&gt;Node16 -->
<g id="edge46" class="edge"><title>Node1&#45;&gt;Node16</title>
<path fill="none" stroke="midnightblue" d="M77.6333,-107.749C89.2863,-108.544 102.17,-109.368 114,-110 224.302,-115.894 353.953,-120.378 422.282,-122.55"/>
<polygon fill="midnightblue" stroke="midnightblue" points="422.204,-126.05 432.309,-122.867 422.424,-119.053 422.204,-126.05"/>
</g>
<!-- Node21 -->
<g id="node43" class="node"><title>Node21</title>
<a xlink:href="../../db/d85/display_8c.xhtml#a4c1000a508e4527145c75b4827d81dd8" target="_top" xlink:title="Creates virtual screens.">
<polygon fill="white" stroke="black" points="129.5,-38.5 129.5,-57.5 230.5,-57.5 230.5,-38.5 129.5,-38.5"/>
<text text-anchor="middle" x="180" y="-45.5" font-family="Helvetica,sans-Serif" font-size="10.00">lcd_screens_create</text>
</a>
</g>
<!-- Node1&#45;&gt;Node21 -->
<g id="edge44" class="edge"><title>Node1&#45;&gt;Node21</title>
<path fill="none" stroke="midnightblue" d="M60.5768,-95.3871C75.3385,-88.5984 95.7599,-79.4251 114,-72 123.179,-68.2636 133.181,-64.4465 142.527,-60.9877"/>
<polygon fill="midnightblue" stroke="midnightblue" points="143.779,-64.2564 151.966,-57.5312 141.372,-57.6832 143.779,-64.2564"/>
</g>
<!-- Node22 -->
<g id="node46" class="node"><title>Node22</title>
<a xlink:href="../../d9/d8e/vti__as_8h.xhtml#a2dd95e0d4309895c2585eeeea2981d61" target="_top" xlink:title="as_start">
<polygon fill="white" stroke="black" points="154,-0.5 154,-19.5 206,-19.5 206,-0.5 154,-0.5"/>
<text text-anchor="middle" x="180" y="-7.5" font-family="Helvetica,sans-Serif" font-size="10.00">as_start</text>
</a>
</g>
<!-- Node1&#45;&gt;Node22 -->
<g id="edge48" class="edge"><title>Node1&#45;&gt;Node22</title>
<path fill="none" stroke="midnightblue" d="M46.7983,-95.2815C58.6071,-79.1217 84.4901,-46.7516 114,-29 123.067,-23.5457 133.793,-19.5781 143.89,-16.726"/>
<polygon fill="midnightblue" stroke="midnightblue" points="144.865,-20.0896 153.693,-14.232 143.139,-13.3057 144.865,-20.0896"/>
</g>
<!-- Node4 -->
<g id="node7" class="node"><title>Node4</title>
<a xlink:href="../../d9/d8e/vti__as_8h.xhtml#a73481abbeea9355be57fe38b57a79a12" target="_top" xlink:title="as_stop">
<polygon fill="white" stroke="black" points="308.5,-342.5 308.5,-361.5 359.5,-361.5 359.5,-342.5 308.5,-342.5"/>
<text text-anchor="middle" x="334" y="-349.5" font-family="Helvetica,sans-Serif" font-size="10.00">as_stop</text>
</a>
</g>
<!-- Node3&#45;&gt;Node4 -->
<g id="edge6" class="edge"><title>Node3&#45;&gt;Node4</title>
<path fill="none" stroke="midnightblue" d="M208.006,-202.034C221.005,-204.34 235.917,-209.132 246,-219 283.972,-256.165 245.395,-294.488 282,-333 286.571,-337.809 292.471,-341.409 298.628,-344.102"/>
<polygon fill="midnightblue" stroke="midnightblue" points="297.765,-347.512 308.36,-347.63 300.151,-340.931 297.765,-347.512"/>
</g>
<!-- Node5 -->
<g id="node9" class="node"><title>Node5</title>
<a xlink:href="../../d9/d8e/vti__as_8h.xhtml#ab8f3382742af6bc6d4100cb2ff3503ee" target="_top" xlink:title="as_get_status">
<polygon fill="white" stroke="black" points="295,-304.5 295,-323.5 373,-323.5 373,-304.5 295,-304.5"/>
<text text-anchor="middle" x="334" y="-311.5" font-family="Helvetica,sans-Serif" font-size="10.00">as_get_status</text>
</a>
</g>
<!-- Node3&#45;&gt;Node5 -->
<g id="edge8" class="edge"><title>Node3&#45;&gt;Node5</title>
<path fill="none" stroke="midnightblue" d="M208.101,-202.761C220.812,-205.255 235.447,-209.995 246,-219 274.432,-243.261 254.463,-269.729 282,-295 283.697,-296.557 285.533,-297.99 287.466,-299.308"/>
<polygon fill="midnightblue" stroke="midnightblue" points="286.009,-302.505 296.437,-304.383 289.456,-296.413 286.009,-302.505"/>
</g>
<!-- Node6 -->
<g id="node11" class="node"><title>Node6</title>
<a xlink:href="../../d3/d4c/buzzer_8c.xhtml#a6ec06c5367637f000e6c5deedc6bab1b" target="_top" xlink:title="Play a sequence of notes using the buzzer.">
<polygon fill="white" stroke="black" points="299.5,-228.5 299.5,-247.5 368.5,-247.5 368.5,-228.5 299.5,-228.5"/>
<text text-anchor="middle" x="334" y="-235.5" font-family="Helvetica,sans-Serif" font-size="10.00">buzzer_play</text>
</a>
</g>
<!-- Node3&#45;&gt;Node6 -->
<g id="edge10" class="edge"><title>Node3&#45;&gt;Node6</title>
<path fill="none" stroke="midnightblue" d="M208.175,-206.794C230.814,-212.454 263.479,-220.62 289.715,-227.179"/>
<polygon fill="midnightblue" stroke="midnightblue" points="288.871,-230.575 299.421,-229.605 290.568,-223.784 288.871,-230.575"/>
</g>
<!-- Node9 -->
<g id="node17" class="node"><title>Node9</title>
<a xlink:href="../../d9/d8e/vti__as_8h.xhtml#ae20bbb28e4b58198a517f379b7920a3b" target="_top" xlink:title="as_get_data">
<polygon fill="white" stroke="black" points="299,-266.5 299,-285.5 369,-285.5 369,-266.5 299,-266.5"/>
<text text-anchor="middle" x="334" y="-273.5" font-family="Helvetica,sans-Serif" font-size="10.00">as_get_data</text>
</a>
</g>
<!-- Node3&#45;&gt;Node9 -->
<g id="edge16" class="edge"><title>Node3&#45;&gt;Node9</title>
<path fill="none" stroke="midnightblue" d="M208.254,-204.603C220.422,-207.481 234.563,-212.013 246,-219 265.853,-231.128 262.598,-244.163 282,-257 284.925,-258.936 288.075,-260.709 291.322,-262.328"/>
<polygon fill="midnightblue" stroke="midnightblue" points="290.068,-265.601 300.626,-266.481 292.922,-259.209 290.068,-265.601"/>
</g>
<!-- Node3&#45;&gt;Node10 -->
<g id="edge18" class="edge"><title>Node3&#45;&gt;Node10</title>
<path fill="none" stroke="midnightblue" d="M193.698,-190.477C219.786,-170.911 279.652,-126.011 311.75,-101.937"/>
<polygon fill="midnightblue" stroke="midnightblue" points="314.116,-104.538 320.016,-95.738 309.916,-98.9381 314.116,-104.538"/>
</g>
<!-- Node12 -->
<g id="node23" class="node"><title>Node12</title>
<a xlink:href="../../d1/d2d/accelerometer_8c.xhtml#a395794d1c6c3446e651f1d8751308121" target="_top" xlink:title="display_data">
<polygon fill="white" stroke="black" points="298.5,-190.5 298.5,-209.5 369.5,-209.5 369.5,-190.5 298.5,-190.5"/>
<text text-anchor="middle" x="334" y="-197.5" font-family="Helvetica,sans-Serif" font-size="10.00">display_data</text>
</a>
</g>
<!-- Node3&#45;&gt;Node12 -->
<g id="edge22" class="edge"><title>Node3&#45;&gt;Node12</title>
<path fill="none" stroke="midnightblue" d="M208.175,-200C230.413,-200 262.324,-200 288.314,-200"/>
<polygon fill="midnightblue" stroke="midnightblue" points="288.314,-203.5 298.314,-200 288.314,-196.5 288.314,-203.5"/>
</g>
<!-- Node20 -->
<g id="node41" class="node"><title>Node20</title>
<a xlink:href="../../d9/d8e/vti__as_8h.xhtml#a09ea2bd655c59ec47643c5a7a25da589" target="_top" xlink:title="as_read_register">
<polygon fill="white" stroke="black" points="289.5,-152.5 289.5,-171.5 378.5,-171.5 378.5,-152.5 289.5,-152.5"/>
<text text-anchor="middle" x="334" y="-159.5" font-family="Helvetica,sans-Serif" font-size="10.00">as_read_register</text>
</a>
</g>
<!-- Node3&#45;&gt;Node20 -->
<g id="edge42" class="edge"><title>Node3&#45;&gt;Node20</title>
<path fill="none" stroke="midnightblue" d="M208.175,-193.206C229.508,-187.873 259.744,-180.314 285.114,-173.972"/>
<polygon fill="midnightblue" stroke="midnightblue" points="286.075,-177.339 294.927,-171.518 284.377,-170.548 286.075,-177.339"/>
</g>
<!-- Node7 -->
<g id="node13" class="node"><title>Node7</title>
<a xlink:href="../../df/d41/timer_8c.xhtml#adc3302861aee9d7f4a1c4c6d25d07343" target="_top" xlink:title="1ms &#45; 1s programmable delay">
<polygon fill="white" stroke="black" points="435,-316.5 435,-335.5 507,-335.5 507,-316.5 435,-316.5"/>
<text text-anchor="middle" x="471" y="-323.5" font-family="Helvetica,sans-Serif" font-size="10.00">timer0_delay</text>
</a>
</g>
<!-- Node6&#45;&gt;Node7 -->
<g id="edge12" class="edge"><title>Node6&#45;&gt;Node7</title>
<path fill="none" stroke="midnightblue" d="M368.585,-247.273C374.722,-249.843 380.817,-253.046 386,-257 407.771,-273.609 400.399,-290.171 422,-307 424.287,-308.782 426.762,-310.416 429.341,-311.913"/>
<polygon fill="midnightblue" stroke="midnightblue" points="427.886,-315.099 438.391,-316.481 431.041,-308.85 427.886,-315.099"/>
</g>
<!-- Node8 -->
<g id="node15" class="node"><title>Node8</title>
<a xlink:href="../../d3/d4c/buzzer_8c.xhtml#a0b5e97d5c00be597d96fd80c6cd1ad56" target="_top" xlink:title="buzzer_stop">
<polygon fill="white" stroke="black" points="436,-354.5 436,-373.5 506,-373.5 506,-354.5 436,-354.5"/>
<text text-anchor="middle" x="471" y="-361.5" font-family="Helvetica,sans-Serif" font-size="10.00">buzzer_stop</text>
</a>
</g>
<!-- Node6&#45;&gt;Node8 -->
<g id="edge14" class="edge"><title>Node6&#45;&gt;Node8</title>
<path fill="none" stroke="midnightblue" d="M368.594,-246C374.942,-248.692 381.114,-252.266 386,-257 416.35,-286.403 391.95,-315.291 422,-345 423.605,-346.587 425.359,-348.046 427.217,-349.386"/>
<polygon fill="midnightblue" stroke="midnightblue" points="425.505,-352.44 435.89,-354.534 429.078,-346.42 425.505,-352.44"/>
</g>
<!-- Node11 -->
<g id="node21" class="node"><title>Node11</title>
<a xlink:href="../../d2/df2/openchronos_8c.xhtml#a72f5591868e0c66a539eacdcd0b520d7" target="_top" xlink:title="Increment/decrements value by one without exiting the [lower, upper] interval.">
<polygon fill="white" stroke="black" points="435.5,-76.5 435.5,-95.5 506.5,-95.5 506.5,-76.5 435.5,-76.5"/>
<text text-anchor="middle" x="471" y="-83.5" font-family="Helvetica,sans-Serif" font-size="10.00">helpers_loop</text>
</a>
</g>
<!-- Node10&#45;&gt;Node11 -->
<g id="edge20" class="edge"><title>Node10&#45;&gt;Node11</title>
<path fill="none" stroke="midnightblue" d="M386.038,-86C398.871,-86 412.55,-86 425.061,-86"/>
<polygon fill="midnightblue" stroke="midnightblue" points="425.251,-89.5001 435.251,-86 425.251,-82.5001 425.251,-89.5001"/>
</g>
<!-- Node13 -->
<g id="node25" class="node"><title>Node13</title>
<a xlink:href="../../db/d85/display_8c.xhtml#a3ae30196af91197037d50cb49de1d109" target="_top" xlink:title="Displays a single character.">
<polygon fill="white" stroke="black" points="562.5,-152.5 562.5,-171.5 633.5,-171.5 633.5,-152.5 562.5,-152.5"/>
<text text-anchor="middle" x="598" y="-159.5" font-family="Helvetica,sans-Serif" font-size="10.00">display_char</text>
</a>
</g>
<!-- Node12&#45;&gt;Node13 -->
<g id="edge24" class="edge"><title>Node12&#45;&gt;Node13</title>
<path fill="none" stroke="midnightblue" d="M369.521,-194.993C416.451,-188.187 500.447,-176.004 552.19,-168.499"/>
<polygon fill="midnightblue" stroke="midnightblue" points="553.008,-171.917 562.402,-167.018 552.003,-164.99 553.008,-171.917"/>
</g>
<!-- Node12&#45;&gt;Node16 -->
<g id="edge30" class="edge"><title>Node12&#45;&gt;Node16</title>
<path fill="none" stroke="midnightblue" d="M366.369,-190.485C373.076,-187.862 379.956,-184.7 386,-181 404.512,-169.668 404.12,-160.306 422,-148 427.113,-144.481 432.816,-141.168 438.456,-138.192"/>
<polygon fill="midnightblue" stroke="midnightblue" points="440.398,-141.134 447.771,-133.525 437.262,-134.875 440.398,-141.134"/>
</g>
<!-- Node17 -->
<g id="node34" class="node"><title>Node17</title>
<a xlink:href="../../db/d85/display_8c.xhtml#a9047d98cd15ffbc79e15c63fca36d70b" target="_top" xlink:title="pseudo sprintf function">
<polygon fill="white" stroke="black" points="446.5,-278.5 446.5,-297.5 495.5,-297.5 495.5,-278.5 446.5,-278.5"/>
<text text-anchor="middle" x="471" y="-285.5" font-family="Helvetica,sans-Serif" font-size="10.00">_sprintf</text>
</a>
</g>
<!-- Node12&#45;&gt;Node17 -->
<g id="edge34" class="edge"><title>Node12&#45;&gt;Node17</title>
<path fill="none" stroke="midnightblue" d="M369.088,-209.538C375.048,-212.065 380.948,-215.184 386,-219 407.564,-235.287 400.751,-251.304 422,-268 426.437,-271.486 431.568,-274.462 436.79,-276.969"/>
<polygon fill="midnightblue" stroke="midnightblue" points="435.588,-280.262 446.159,-280.985 438.346,-273.828 435.588,-280.262"/>
</g>
<!-- Node18 -->
<g id="node36" class="node"><title>Node18</title>
<a xlink:href="../../d1/d2d/accelerometer_8c.xhtml#ada05d6860a0eb4054d6aab60f359317c" target="_top" xlink:title="acceleration_value\l_is_positive">
<polygon fill="white" stroke="black" points="422,-229 422,-259 520,-259 520,-229 422,-229"/>
<text text-anchor="start" x="430" y="-247" font-family="Helvetica,sans-Serif" font-size="10.00">acceleration_value</text>
<text text-anchor="middle" x="471" y="-236" font-family="Helvetica,sans-Serif" font-size="10.00">_is_positive</text>
</a>
</g>
<!-- Node12&#45;&gt;Node18 -->
<g id="edge36" class="edge"><title>Node12&#45;&gt;Node18</title>
<path fill="none" stroke="midnightblue" d="M364.293,-209.547C378.814,-214.28 396.852,-220.159 413.893,-225.713"/>
<polygon fill="midnightblue" stroke="midnightblue" points="413.184,-229.163 423.777,-228.935 415.354,-222.508 413.184,-229.163"/>
</g>
<!-- Node19 -->
<g id="node38" class="node"><title>Node19</title>
<a xlink:href="../../db/d85/display_8c.xhtml#af604e78dcc4e0f1a204b2180c5e54957" target="_top" xlink:title="Displays a symbol.">
<polygon fill="white" stroke="black" points="556,-190.5 556,-209.5 640,-209.5 640,-190.5 556,-190.5"/>
<text text-anchor="middle" x="598" y="-197.5" font-family="Helvetica,sans-Serif" font-size="10.00">display_symbol</text>
</a>
</g>
<!-- Node12&#45;&gt;Node19 -->
<g id="edge38" class="edge"><title>Node12&#45;&gt;Node19</title>
<path fill="none" stroke="midnightblue" d="M369.521,-200C414.594,-200 493.861,-200 545.904,-200"/>
<polygon fill="midnightblue" stroke="midnightblue" points="545.931,-203.5 555.931,-200 545.931,-196.5 545.931,-203.5"/>
</g>
<!-- Node14 -->
<g id="node27" class="node"><title>Node14</title>
<a xlink:href="../../db/d85/display_8c.xhtml#a9275035317878022cf9eacf6b0a5be72" target="_top" xlink:title="Display a custom collection of segments.">
<polygon fill="white" stroke="black" points="676,-152.5 676,-171.5 744,-171.5 744,-152.5 676,-152.5"/>
<text text-anchor="middle" x="710" y="-159.5" font-family="Helvetica,sans-Serif" font-size="10.00">display_bits</text>
</a>
</g>
<!-- Node13&#45;&gt;Node14 -->
<g id="edge26" class="edge"><title>Node13&#45;&gt;Node14</title>
<path fill="none" stroke="midnightblue" d="M633.503,-162C643.721,-162 655.04,-162 665.738,-162"/>
<polygon fill="midnightblue" stroke="midnightblue" points="665.748,-165.5 675.748,-162 665.748,-158.5 665.748,-165.5"/>
</g>
<!-- Node15 -->
<g id="node29" class="node"><title>Node15</title>
<a xlink:href="../../db/d85/display_8c.xhtml#a710739913e8ea1b71dd433b8311211fd" target="_top" xlink:title="write_lcd_mem">
<polygon fill="white" stroke="black" points="780.5,-171.5 780.5,-190.5 863.5,-190.5 863.5,-171.5 780.5,-171.5"/>
<text text-anchor="middle" x="822" y="-178.5" font-family="Helvetica,sans-Serif" font-size="10.00">write_lcd_mem</text>
</a>
</g>
<!-- Node14&#45;&gt;Node15 -->
<g id="edge28" class="edge"><title>Node14&#45;&gt;Node15</title>
<path fill="none" stroke="midnightblue" d="M744.004,-167.701C752.28,-169.13 761.352,-170.697 770.273,-172.238"/>
<polygon fill="midnightblue" stroke="midnightblue" points="769.781,-175.705 780.231,-173.958 770.972,-168.807 769.781,-175.705"/>
</g>
<!-- Node16&#45;&gt;Node13 -->
<g id="edge32" class="edge"><title>Node16&#45;&gt;Node13</title>
<path fill="none" stroke="midnightblue" d="M503.543,-133.589C519.383,-138.404 538.773,-144.299 555.776,-149.468"/>
<polygon fill="midnightblue" stroke="midnightblue" points="554.882,-152.854 565.467,-152.414 556.918,-146.157 554.882,-152.854"/>
</g>
<!-- Node19&#45;&gt;Node15 -->
<g id="edge40" class="edge"><title>Node19&#45;&gt;Node15</title>
<path fill="none" stroke="midnightblue" d="M640.236,-196.471C676.955,-193.328 730.802,-188.72 770.174,-185.35"/>
<polygon fill="midnightblue" stroke="midnightblue" points="770.694,-188.818 780.359,-184.478 770.097,-181.844 770.694,-188.818"/>
</g>
</g>
</svg>
        <g id="navigator" transform="translate(0 0)" fill="#404254">
                <rect fill="#f2f5e9" fill-opacity="0.5" stroke="#606060" stroke-width=".5" x="0" y="0" width="60" height="60"/>
                <use id="zoomplus" xlink:href="#zoomPlus" x="17" y="9" onmousedown="handleZoom(evt,'in')"/>
                <use id="zoomminus" xlink:href="#zoomMin" x="42" y="9" onmousedown="handleZoom(evt,'out')"/>
                <use id="reset" xlink:href="#resetDef" x="30" y="36" onmousedown="handleReset()"/>
                <g id="arrowUp" xlink:href="#dirArrow" transform="translate(30 24)" onmousedown="handlePan(0,-1)">
                  <use xlink:href="#rim" fill="#404040">
                        <set attributeName="fill" to="#808080" begin="arrowUp.mouseover" end="arrowUp.mouseout"/>
                  </use>
                  <path fill="none" stroke="white" stroke-width="1.5" d="M0,-3.0v7 M-2.5,-0.5L0,-3.0L2.5,-0.5"/>
                </g>
                <g id="arrowRight" xlink:href="#dirArrow" transform="rotate(90) translate(36 -43)" onmousedown="handlePan(1,0)">
                  <use xlink:href="#rim" fill="#404040">
                        <set attributeName="fill" to="#808080" begin="arrowRight.mouseover" end="arrowRight.mouseout"/>
                  </use>
                  <path fill="none" stroke="white" stroke-width="1.5" d="M0,-3.0v7 M-2.5,-0.5L0,-3.0L2.5,-0.5"/>
                </g>
                <g id="arrowDown" xlink:href="#dirArrow" transform="rotate(180) translate(-30 -48)" onmousedown="handlePan(0,1)">
                  <use xlink:href="#rim" fill="#404040">
                        <set attributeName="fill" to="#808080" begin="arrowDown.mouseover" end="arrowDown.mouseout"/>
                  </use>
                  <path fill="none" stroke="white" stroke-width="1.5" d="M0,-3.0v7 M-2.5,-0.5L0,-3.0L2.5,-0.5"/>
                </g>
                <g id="arrowLeft" xlink:href="#dirArrow" transform="rotate(270) translate(-36 17)" onmousedown="handlePan(-1,0)">
                  <use xlink:href="#rim" fill="#404040">
                        <set attributeName="fill" to="#808080" begin="arrowLeft.mouseover" end="arrowLeft.mouseout"/>
                  </use>
                  <path fill="none" stroke="white" stroke-width="1.5" d="M0,-3.0v7 M-2.5,-0.5L0,-3.0L2.5,-0.5"/>
                </g>
        </g>
        <svg viewBox="0 0 15 15" width="100%" height="30px" preserveAspectRatio="xMaxYMin meet">
         <g id="arrow_out" transform="scale(0.3 0.3)">
          <a xlink:href="accelerometer_8c_abcbcaa7863416e641f147bce3d882790_cgraph_org.svg" target="_base">
           <rect id="button" ry="5" rx="5" y="6" x="6" height="38" width="38"
                fill="#f2f5e9" fill-opacity="0.5" stroke="#606060" stroke-width="1.0"/>
           <path id="arrow"
             d="M 11.500037,31.436501 C 11.940474,20.09759 22.043105,11.32322 32.158766,21.979434 L 37.068811,17.246167 C 37.068811,17.246167 37.088388,32 37.088388,32 L 22.160133,31.978069 C 22.160133,31.978069 26.997745,27.140456 26.997745,27.140456 C 18.528582,18.264221 13.291696,25.230495 11.500037,31.436501 z"
             style="fill:#404040;"/>
          </a>
         </g>
        </svg>
</svg>
