<?xml version="1.0" encoding="UTF-8" standalone="no"?>
<!DOCTYPE svg PUBLIC "-//W3C//DTD SVG 1.1//EN"
 "http://www.w3.org/Graphics/SVG/1.1/DTD/svg11.dtd">
<!-- Generated by graphviz version 2.28.0 (20121221.0049)
 -->
<!-- Title: up_btn Pages: 1 -->
<svg width="640pt" height="180pt"
 viewBox="0.00 0.00 640.00 180.00" xmlns="http://www.w3.org/2000/svg" xmlns:xlink="http://www.w3.org/1999/xlink">
<g id="graph1" class="graph" transform="scale(1 1) rotate(0) translate(4 176)">
<title>up_btn</title>
<polygon fill="white" stroke="white" points="-4,5 -4,-176 637,-176 637,5 -4,5"/>
<!-- Node1 -->
<g id="node1" class="node"><title>Node1</title>
<polygon fill="#bfbfbf" stroke="black" points="0,-76.5 0,-95.5 46,-95.5 46,-76.5 0,-76.5"/>
<text text-anchor="middle" x="23" y="-83.5" font-family="Helvetica,sans-Serif" font-size="10.00">up_btn</text>
</g>
<!-- Node2 -->
<g id="node3" class="node"><title>Node2</title>
<a xlink:href="../../d9/d8e/vti__as_8h.xhtml#af27f4b90b36b436e9b0486b48387fdf4" target="_top" xlink:title="change_mode">
<polygon fill="white" stroke="black" points="95.5,-152.5 95.5,-171.5 172.5,-171.5 172.5,-152.5 95.5,-152.5"/>
<text text-anchor="middle" x="134" y="-159.5" font-family="Helvetica,sans-Serif" font-size="10.00">change_mode</text>
</a>
</g>
<!-- Node1&#45;&gt;Node2 -->
<g id="edge2" class="edge"><title>Node1&#45;&gt;Node2</title>
<path fill="none" stroke="midnightblue" d="M31.6608,-95.7391C41.9279,-108.219 61.2741,-129.813 82,-143 85.0916,-144.967 88.4169,-146.774 91.8341,-148.425"/>
<polygon fill="midnightblue" stroke="midnightblue" points="90.4324,-151.632 100.997,-152.43 93.2362,-145.218 90.4324,-151.632"/>
</g>
<!-- Node3 -->
<g id="node5" class="node"><title>Node3</title>
<a xlink:href="../../d1/d2d/accelerometer_8c.xhtml#a04a6d2a31e79c09343524b363d57fe7a" target="_top" xlink:title="update_menu">
<polygon fill="white" stroke="black" points="96.5,-114.5 96.5,-133.5 171.5,-133.5 171.5,-114.5 96.5,-114.5"/>
<text text-anchor="middle" x="134" y="-121.5" font-family="Helvetica,sans-Serif" font-size="10.00">update_menu</text>
</a>
</g>
<!-- Node1&#45;&gt;Node3 -->
<g id="edge4" class="edge"><title>Node1&#45;&gt;Node3</title>
<path fill="none" stroke="midnightblue" d="M46.0578,-93.6899C60.4102,-98.6935 79.4821,-105.342 96.1057,-111.138"/>
<polygon fill="midnightblue" stroke="midnightblue" points="94.9614,-114.445 105.556,-114.432 97.2658,-107.836 94.9614,-114.445"/>
</g>
<!-- Node4 -->
<g id="node7" class="node"><title>Node4</title>
<a xlink:href="../../db/d85/display_8c.xhtml#a6f2d5cdda31a73b43a569cb3d1a64165" target="_top" xlink:title="Displays several consecutive characters.">
<polygon fill="white" stroke="black" points="222.5,-95.5 222.5,-114.5 299.5,-114.5 299.5,-95.5 222.5,-95.5"/>
<text text-anchor="middle" x="261" y="-102.5" font-family="Helvetica,sans-Serif" font-size="10.00">display_chars</text>
</a>
</g>
<!-- Node1&#45;&gt;Node4 -->
<g id="edge16" class="edge"><title>Node1&#45;&gt;Node4</title>
<path fill="none" stroke="midnightblue" d="M46.2023,-87.7875C83.9889,-90.8296 161.614,-97.0791 212.198,-101.152"/>
<polygon fill="midnightblue" stroke="midnightblue" points="211.997,-104.647 222.246,-101.96 212.559,-97.6692 211.997,-104.647"/>
</g>
<!-- Node8 -->
<g id="node15" class="node"><title>Node8</title>
<a xlink:href="../../d9/d8e/vti__as_8h.xhtml#a09ea2bd655c59ec47643c5a7a25da589" target="_top" xlink:title="as_read_register">
<polygon fill="white" stroke="black" points="89.5,-38.5 89.5,-57.5 178.5,-57.5 178.5,-38.5 89.5,-38.5"/>
<text text-anchor="middle" x="134" y="-45.5" font-family="Helvetica,sans-Serif" font-size="10.00">as_read_register</text>
</a>
</g>
<!-- Node1&#45;&gt;Node8 -->
<g id="edge14" class="edge"><title>Node1&#45;&gt;Node8</title>
<path fill="none" stroke="midnightblue" d="M46.0578,-78.3101C60.4102,-73.3065 79.4821,-66.6576 96.1057,-60.8622"/>
<polygon fill="midnightblue" stroke="midnightblue" points="97.2658,-64.1645 105.556,-57.5675 94.9614,-57.5546 97.2658,-64.1645"/>
</g>
<!-- Node9 -->
<g id="node18" class="node"><title>Node9</title>
<a xlink:href="../../db/d85/display_8c.xhtml#a0e030727a1bc4d1418bb96cc71350203" target="_top" xlink:title="Activates a virtual screen.">
<polygon fill="white" stroke="black" points="82,-0.5 82,-19.5 186,-19.5 186,-0.5 82,-0.5"/>
<text text-anchor="middle" x="134" y="-7.5" font-family="Helvetica,sans-Serif" font-size="10.00">lcd_screen_activate</text>
</a>
</g>
<!-- Node1&#45;&gt;Node9 -->
<g id="edge18" class="edge"><title>Node1&#45;&gt;Node9</title>
<path fill="none" stroke="midnightblue" d="M31.6608,-76.2609C41.9279,-63.7806 61.2741,-42.1872 82,-29 85.0916,-27.0329 88.4169,-25.2258 91.8341,-23.5753"/>
<polygon fill="midnightblue" stroke="midnightblue" points="93.2362,-26.7823 100.997,-19.5699 90.4324,-20.3683 93.2362,-26.7823"/>
</g>
<!-- Node3&#45;&gt;Node4 -->
<g id="edge6" class="edge"><title>Node3&#45;&gt;Node4</title>
<path fill="none" stroke="midnightblue" d="M171.828,-118.402C184.453,-116.483 198.77,-114.307 212.14,-112.275"/>
<polygon fill="midnightblue" stroke="midnightblue" points="212.775,-115.718 222.135,-110.755 211.723,-108.798 212.775,-115.718"/>
</g>
<!-- Node5 -->
<g id="node9" class="node"><title>Node5</title>
<a xlink:href="../../db/d85/display_8c.xhtml#a3ae30196af91197037d50cb49de1d109" target="_top" xlink:title="Displays a single character.">
<polygon fill="white" stroke="black" points="336.5,-95.5 336.5,-114.5 407.5,-114.5 407.5,-95.5 336.5,-95.5"/>
<text text-anchor="middle" x="372" y="-102.5" font-family="Helvetica,sans-Serif" font-size="10.00">display_char</text>
</a>
</g>
<!-- Node4&#45;&gt;Node5 -->
<g id="edge8" class="edge"><title>Node4&#45;&gt;Node5</title>
<path fill="none" stroke="midnightblue" d="M299.512,-105C308.098,-105 317.31,-105 326.17,-105"/>
<polygon fill="midnightblue" stroke="midnightblue" points="326.35,-108.5 336.35,-105 326.35,-101.5 326.35,-108.5"/>
</g>
<!-- Node6 -->
<g id="node11" class="node"><title>Node6</title>
<a xlink:href="../../db/d85/display_8c.xhtml#a9275035317878022cf9eacf6b0a5be72" target="_top" xlink:title="Display a custom collection of segments.">
<polygon fill="white" stroke="black" points="444,-95.5 444,-114.5 512,-114.5 512,-95.5 444,-95.5"/>
<text text-anchor="middle" x="478" y="-102.5" font-family="Helvetica,sans-Serif" font-size="10.00">display_bits</text>
</a>
</g>
<!-- Node5&#45;&gt;Node6 -->
<g id="edge10" class="edge"><title>Node5&#45;&gt;Node6</title>
<path fill="none" stroke="midnightblue" d="M407.63,-105C416.04,-105 425.133,-105 433.882,-105"/>
<polygon fill="midnightblue" stroke="midnightblue" points="433.931,-108.5 443.931,-105 433.931,-101.5 433.931,-108.5"/>
</g>
<!-- Node7 -->
<g id="node13" class="node"><title>Node7</title>
<a xlink:href="../../db/d85/display_8c.xhtml#a710739913e8ea1b71dd433b8311211fd" target="_top" xlink:title="write_lcd_mem">
<polygon fill="white" stroke="black" points="548.5,-95.5 548.5,-114.5 631.5,-114.5 631.5,-95.5 548.5,-95.5"/>
<text text-anchor="middle" x="590" y="-102.5" font-family="Helvetica,sans-Serif" font-size="10.00">write_lcd_mem</text>
</a>
</g>
<!-- Node6&#45;&gt;Node7 -->
<g id="edge12" class="edge"><title>Node6&#45;&gt;Node7</title>
<path fill="none" stroke="midnightblue" d="M512.004,-105C520.191,-105 529.157,-105 537.985,-105"/>
<polygon fill="midnightblue" stroke="midnightblue" points="538.231,-108.5 548.231,-105 538.231,-101.5 538.231,-108.5"/>
</g>
<!-- Node10 -->
<g id="node20" class="node"><title>Node10</title>
<a xlink:href="../../d2/df2/openchronos_8c.xhtml#a72f5591868e0c66a539eacdcd0b520d7" target="_top" xlink:title="Increment/decrements value by one without exiting the [lower, upper] interval.">
<polygon fill="white" stroke="black" points="225.5,-0.5 225.5,-19.5 296.5,-19.5 296.5,-0.5 225.5,-0.5"/>
<text text-anchor="middle" x="261" y="-7.5" font-family="Helvetica,sans-Serif" font-size="10.00">helpers_loop</text>
</a>
</g>
<!-- Node9&#45;&gt;Node10 -->
<g id="edge20" class="edge"><title>Node9&#45;&gt;Node10</title>
<path fill="none" stroke="midnightblue" d="M186.203,-10C195.908,-10 205.988,-10 215.466,-10"/>
<polygon fill="midnightblue" stroke="midnightblue" points="215.468,-13.5001 225.468,-10 215.468,-6.5001 215.468,-13.5001"/>
</g>
</g>
</svg>
