<?xml version="1.0" encoding="UTF-8" standalone="no"?>
<!DOCTYPE svg PUBLIC "-//W3C//DTD SVG 1.1//EN"
 "http://www.w3.org/Graphics/SVG/1.1/DTD/svg11.dtd">
<!-- Generated by graphviz version 2.28.0 (20121221.0049)
 -->
<!-- Title: convert_acceleration_value_to_mgrav Pages: 1 -->
<svg width="250pt" height="38pt"
 viewBox="0.00 0.00 250.00 38.00" xmlns="http://www.w3.org/2000/svg" xmlns:xlink="http://www.w3.org/1999/xlink">
<g id="graph1" class="graph" transform="scale(1 1) rotate(0) translate(4 34)">
<title>convert_acceleration_value_to_mgrav</title>
<polygon fill="white" stroke="white" points="-4,5 -4,-34 247,-34 247,5 -4,5"/>
<!-- Node1 -->
<g id="node1" class="node"><title>Node1</title>
<polygon fill="#bfbfbf" stroke="black" points="0.5,-0 0.5,-30 107.5,-30 107.5,-0 0.5,-0"/>
<text text-anchor="start" x="8.5" y="-18" font-family="Helvetica,sans-Serif" font-size="10.00">convert_acceleration</text>
<text text-anchor="middle" x="54" y="-7" font-family="Helvetica,sans-Serif" font-size="10.00">_value_to_mgrav</text>
</g>
<!-- Node2 -->
<g id="node3" class="node"><title>Node2</title>
<a xlink:href="../../d1/d2d/accelerometer_8c.xhtml#ada05d6860a0eb4054d6aab60f359317c" target="_top" xlink:title="acceleration_value\l_is_positive">
<polygon fill="white" stroke="black" points="144,-0 144,-30 242,-30 242,-0 144,-0"/>
<text text-anchor="start" x="152" y="-18" font-family="Helvetica,sans-Serif" font-size="10.00">acceleration_value</text>
<text text-anchor="middle" x="193" y="-7" font-family="Helvetica,sans-Serif" font-size="10.00">_is_positive</text>
</a>
</g>
<!-- Node1&#45;&gt;Node2 -->
<g id="edge2" class="edge"><title>Node1&#45;&gt;Node2</title>
<path fill="none" stroke="midnightblue" d="M107.576,-15C116.145,-15 125.066,-15 133.762,-15"/>
<polygon fill="midnightblue" stroke="midnightblue" points="133.831,-18.5001 143.831,-15 133.831,-11.5001 133.831,-18.5001"/>
</g>
</g>
</svg>
