<?xml version="1.0" encoding="UTF-8" standalone="no"?>
<!DOCTYPE svg PUBLIC "-//W3C//DTD SVG 1.1//EN"
 "http://www.w3.org/Graphics/SVG/1.1/DTD/svg11.dtd">
<!-- Generated by graphviz version 2.28.0 (20121221.0049)
 -->
<!-- Title: acc_deactivated Pages: 1 -->
<svg width="880pt" height="306pt"
 viewBox="0.00 0.00 880.00 306.00" xmlns="http://www.w3.org/2000/svg" xmlns:xlink="http://www.w3.org/1999/xlink">
<g id="graph1" class="graph" transform="scale(1 1) rotate(0) translate(4 302)">
<title>acc_deactivated</title>
<polygon fill="white" stroke="white" points="-4,5 -4,-302 877,-302 877,5 -4,5"/>
<!-- Node1 -->
<g id="node1" class="node"><title>Node1</title>
<polygon fill="#bfbfbf" stroke="black" points="0,-163.5 0,-182.5 88,-182.5 88,-163.5 0,-163.5"/>
<text text-anchor="middle" x="44" y="-170.5" font-family="Helvetica,sans-Serif" font-size="10.00">acc_deactivated</text>
</g>
<!-- Node2 -->
<g id="node3" class="node"><title>Node2</title>
<a xlink:href="../../db/d85/display_8c.xhtml#acef5af52e5b50c8ba28846cbc0c3e683" target="_top" xlink:title="Destroys all virtual screen.">
<polygon fill="white" stroke="black" points="141.5,-253.5 141.5,-272.5 248.5,-272.5 248.5,-253.5 141.5,-253.5"/>
<text text-anchor="middle" x="195" y="-260.5" font-family="Helvetica,sans-Serif" font-size="10.00">lcd_screens_destroy</text>
</a>
</g>
<!-- Node1&#45;&gt;Node2 -->
<g id="edge2" class="edge"><title>Node1&#45;&gt;Node2</title>
<path fill="none" stroke="midnightblue" d="M55.5919,-182.669C70.1677,-195.612 97.612,-218.71 124,-234 134.3,-239.968 146.064,-245.34 156.972,-249.792"/>
<polygon fill="midnightblue" stroke="midnightblue" points="155.69,-253.049 166.277,-253.46 158.257,-246.537 155.69,-253.049"/>
</g>
<!-- Node5 -->
<g id="node9" class="node"><title>Node5</title>
<a xlink:href="../../db/d85/display_8c.xhtml#aa150336a018e90f37fd0285047b541f6" target="_top" xlink:title="Clears the screen.">
<polygon fill="white" stroke="black" points="317,-6.5 317,-25.5 391,-25.5 391,-6.5 317,-6.5"/>
<text text-anchor="middle" x="354" y="-13.5" font-family="Helvetica,sans-Serif" font-size="10.00">display_clear</text>
</a>
</g>
<!-- Node1&#45;&gt;Node5 -->
<g id="edge8" class="edge"><title>Node1&#45;&gt;Node5</title>
<path fill="none" stroke="midnightblue" d="M83.74,-163.462C146.172,-148.027 262.465,-118.992 266,-116 296.068,-90.5457 273.299,-61.9857 302,-35 303.867,-33.2444 305.911,-31.6475 308.074,-30.1954"/>
<polygon fill="midnightblue" stroke="midnightblue" points="309.851,-33.2119 316.878,-25.2831 306.44,-27.0991 309.851,-33.2119"/>
</g>
<!-- Node11 -->
<g id="node22" class="node"><title>Node11</title>
<a xlink:href="../../d2/df2/openchronos_8c.xhtml#a60705ce0564ce52c1977a32cee3215c2" target="_top" xlink:title="Unregisters a node from the message bus.">
<polygon fill="white" stroke="black" points="124.5,-87.5 124.5,-106.5 265.5,-106.5 265.5,-87.5 124.5,-87.5"/>
<text text-anchor="middle" x="195" y="-94.5" font-family="Helvetica,sans-Serif" font-size="10.00">sys_messagebus_unregister</text>
</a>
</g>
<!-- Node1&#45;&gt;Node11 -->
<g id="edge22" class="edge"><title>Node1&#45;&gt;Node11</title>
<path fill="none" stroke="midnightblue" d="M57.5392,-163.301C72.6393,-151.971 99.0886,-133.225 124,-121 132.47,-116.843 141.841,-113.097 150.898,-109.867"/>
<polygon fill="midnightblue" stroke="midnightblue" points="152.216,-113.115 160.547,-106.569 149.952,-106.491 152.216,-113.115"/>
</g>
<!-- Node12 -->
<g id="node24" class="node"><title>Node12</title>
<a xlink:href="../../d1/d2d/accelerometer_8c.xhtml#afbcf13abd555b9a4a97848c75f4a0479" target="_top" xlink:title="as_event">
<polygon fill="white" stroke="black" points="167,-163.5 167,-182.5 223,-182.5 223,-163.5 167,-163.5"/>
<text text-anchor="middle" x="195" y="-170.5" font-family="Helvetica,sans-Serif" font-size="10.00">as_event</text>
</a>
</g>
<!-- Node1&#45;&gt;Node12 -->
<g id="edge24" class="edge"><title>Node1&#45;&gt;Node12</title>
<path fill="none" stroke="midnightblue" d="M88.097,-173C109.861,-173 136.001,-173 156.865,-173"/>
<polygon fill="midnightblue" stroke="midnightblue" points="156.942,-176.5 166.942,-173 156.942,-169.5 156.942,-176.5"/>
</g>
<!-- Node13 -->
<g id="node26" class="node"><title>Node13</title>
<a xlink:href="../../d9/d8e/vti__as_8h.xhtml#a73481abbeea9355be57fe38b57a79a12" target="_top" xlink:title="as_stop">
<polygon fill="white" stroke="black" points="328.5,-234.5 328.5,-253.5 379.5,-253.5 379.5,-234.5 328.5,-234.5"/>
<text text-anchor="middle" x="354" y="-241.5" font-family="Helvetica,sans-Serif" font-size="10.00">as_stop</text>
</a>
</g>
<!-- Node1&#45;&gt;Node13 -->
<g id="edge54" class="edge"><title>Node1&#45;&gt;Node13</title>
<path fill="none" stroke="midnightblue" d="M84.3564,-182.57C97.0071,-185.618 111.088,-188.981 124,-192 192.872,-208.101 273.566,-226.26 318.429,-236.294"/>
<polygon fill="midnightblue" stroke="midnightblue" points="317.716,-239.721 328.239,-238.486 319.243,-232.889 317.716,-239.721"/>
</g>
<!-- Node3 -->
<g id="node5" class="node"><title>Node3</title>
<a xlink:href="../../db/d85/display_8c.xhtml#a0e030727a1bc4d1418bb96cc71350203" target="_top" xlink:title="Activates a virtual screen.">
<polygon fill="white" stroke="black" points="302,-272.5 302,-291.5 406,-291.5 406,-272.5 302,-272.5"/>
<text text-anchor="middle" x="354" y="-279.5" font-family="Helvetica,sans-Serif" font-size="10.00">lcd_screen_activate</text>
</a>
</g>
<!-- Node2&#45;&gt;Node3 -->
<g id="edge4" class="edge"><title>Node2&#45;&gt;Node3</title>
<path fill="none" stroke="midnightblue" d="M248.715,-269.38C262.479,-271.045 277.432,-272.855 291.603,-274.57"/>
<polygon fill="midnightblue" stroke="midnightblue" points="291.407,-278.072 301.755,-275.798 292.248,-271.122 291.407,-278.072"/>
</g>
<!-- Node4 -->
<g id="node7" class="node"><title>Node4</title>
<a xlink:href="../../d2/df2/openchronos_8c.xhtml#a72f5591868e0c66a539eacdcd0b520d7" target="_top" xlink:title="Increment/decrements value by one without exiting the [lower, upper] interval.">
<polygon fill="white" stroke="black" points="455.5,-278.5 455.5,-297.5 526.5,-297.5 526.5,-278.5 455.5,-278.5"/>
<text text-anchor="middle" x="491" y="-285.5" font-family="Helvetica,sans-Serif" font-size="10.00">helpers_loop</text>
</a>
</g>
<!-- Node3&#45;&gt;Node4 -->
<g id="edge6" class="edge"><title>Node3&#45;&gt;Node4</title>
<path fill="none" stroke="midnightblue" d="M406.038,-284.268C418.871,-284.839 432.55,-285.447 445.061,-286.003"/>
<polygon fill="midnightblue" stroke="midnightblue" points="445.105,-289.508 455.251,-286.456 445.416,-282.515 445.105,-289.508"/>
</g>
<!-- Node6 -->
<g id="node11" class="node"><title>Node6</title>
<a xlink:href="../../db/d85/display_8c.xhtml#a6f2d5cdda31a73b43a569cb3d1a64165" target="_top" xlink:title="Displays several consecutive characters.">
<polygon fill="white" stroke="black" points="452.5,-38.5 452.5,-57.5 529.5,-57.5 529.5,-38.5 452.5,-38.5"/>
<text text-anchor="middle" x="491" y="-45.5" font-family="Helvetica,sans-Serif" font-size="10.00">display_chars</text>
</a>
</g>
<!-- Node5&#45;&gt;Node6 -->
<g id="edge10" class="edge"><title>Node5&#45;&gt;Node6</title>
<path fill="none" stroke="midnightblue" d="M391.178,-24.5754C406.83,-28.2856 425.369,-32.6801 442.138,-36.6549"/>
<polygon fill="midnightblue" stroke="midnightblue" points="441.77,-40.1647 452.308,-39.0656 443.385,-33.3534 441.77,-40.1647"/>
</g>
<!-- Node10 -->
<g id="node19" class="node"><title>Node10</title>
<a xlink:href="../../db/d85/display_8c.xhtml#af604e78dcc4e0f1a204b2180c5e54957" target="_top" xlink:title="Displays a symbol.">
<polygon fill="white" stroke="black" points="449,-0.5 449,-19.5 533,-19.5 533,-0.5 449,-0.5"/>
<text text-anchor="middle" x="491" y="-7.5" font-family="Helvetica,sans-Serif" font-size="10.00">display_symbol</text>
</a>
</g>
<!-- Node5&#45;&gt;Node10 -->
<g id="edge18" class="edge"><title>Node5&#45;&gt;Node10</title>
<path fill="none" stroke="midnightblue" d="M391.178,-14.3921C405.785,-13.7429 422.908,-12.9819 438.758,-12.2774"/>
<polygon fill="midnightblue" stroke="midnightblue" points="439.117,-15.765 448.951,-11.8244 438.806,-8.77193 439.117,-15.765"/>
</g>
<!-- Node7 -->
<g id="node13" class="node"><title>Node7</title>
<a xlink:href="../../db/d85/display_8c.xhtml#a3ae30196af91197037d50cb49de1d109" target="_top" xlink:title="Displays a single character.">
<polygon fill="white" stroke="black" points="576.5,-38.5 576.5,-57.5 647.5,-57.5 647.5,-38.5 576.5,-38.5"/>
<text text-anchor="middle" x="612" y="-45.5" font-family="Helvetica,sans-Serif" font-size="10.00">display_char</text>
</a>
</g>
<!-- Node6&#45;&gt;Node7 -->
<g id="edge12" class="edge"><title>Node6&#45;&gt;Node7</title>
<path fill="none" stroke="midnightblue" d="M529.652,-48C541.239,-48 554.109,-48 566.129,-48"/>
<polygon fill="midnightblue" stroke="midnightblue" points="566.42,-51.5001 576.42,-48 566.42,-44.5001 566.42,-51.5001"/>
</g>
<!-- Node8 -->
<g id="node15" class="node"><title>Node8</title>
<a xlink:href="../../db/d85/display_8c.xhtml#a9275035317878022cf9eacf6b0a5be72" target="_top" xlink:title="Display a custom collection of segments.">
<polygon fill="white" stroke="black" points="684,-38.5 684,-57.5 752,-57.5 752,-38.5 684,-38.5"/>
<text text-anchor="middle" x="718" y="-45.5" font-family="Helvetica,sans-Serif" font-size="10.00">display_bits</text>
</a>
</g>
<!-- Node7&#45;&gt;Node8 -->
<g id="edge14" class="edge"><title>Node7&#45;&gt;Node8</title>
<path fill="none" stroke="midnightblue" d="M647.63,-48C656.04,-48 665.133,-48 673.882,-48"/>
<polygon fill="midnightblue" stroke="midnightblue" points="673.931,-51.5001 683.931,-48 673.931,-44.5001 673.931,-51.5001"/>
</g>
<!-- Node9 -->
<g id="node17" class="node"><title>Node9</title>
<a xlink:href="../../db/d85/display_8c.xhtml#a710739913e8ea1b71dd433b8311211fd" target="_top" xlink:title="write_lcd_mem">
<polygon fill="white" stroke="black" points="788.5,-19.5 788.5,-38.5 871.5,-38.5 871.5,-19.5 788.5,-19.5"/>
<text text-anchor="middle" x="830" y="-26.5" font-family="Helvetica,sans-Serif" font-size="10.00">write_lcd_mem</text>
</a>
</g>
<!-- Node8&#45;&gt;Node9 -->
<g id="edge16" class="edge"><title>Node8&#45;&gt;Node9</title>
<path fill="none" stroke="midnightblue" d="M752.004,-42.2994C760.28,-40.8698 769.352,-39.3029 778.273,-37.762"/>
<polygon fill="midnightblue" stroke="midnightblue" points="778.972,-41.1931 788.231,-36.042 777.781,-34.2952 778.972,-41.1931"/>
</g>
<!-- Node10&#45;&gt;Node9 -->
<g id="edge20" class="edge"><title>Node10&#45;&gt;Node9</title>
<path fill="none" stroke="midnightblue" d="M533.323,-12.3298C595.051,-15.81 711.221,-22.3597 778.098,-26.1301"/>
<polygon fill="midnightblue" stroke="midnightblue" points="778.211,-29.642 788.392,-26.7105 778.605,-22.6531 778.211,-29.642"/>
</g>
<!-- Node12&#45;&gt;Node3 -->
<g id="edge38" class="edge"><title>Node12&#45;&gt;Node3</title>
<path fill="none" stroke="midnightblue" d="M205.065,-182.667C222.382,-200.653 262.014,-239.557 302,-263 305.388,-264.986 309.02,-266.828 312.727,-268.521"/>
<polygon fill="midnightblue" stroke="midnightblue" points="311.428,-271.771 322.004,-272.416 314.139,-265.317 311.428,-271.771"/>
</g>
<!-- Node12&#45;&gt;Node13 -->
<g id="edge26" class="edge"><title>Node12&#45;&gt;Node13</title>
<path fill="none" stroke="midnightblue" d="M216.947,-182.575C230.918,-189.034 249.652,-197.838 266,-206 282.186,-214.082 285.489,-217.604 302,-225 307.414,-227.425 313.239,-229.803 318.949,-232.012"/>
<polygon fill="midnightblue" stroke="midnightblue" points="317.764,-235.305 328.356,-235.547 320.227,-228.753 317.764,-235.305"/>
</g>
<!-- Node14 -->
<g id="node28" class="node"><title>Node14</title>
<a xlink:href="../../d9/d8e/vti__as_8h.xhtml#ab8f3382742af6bc6d4100cb2ff3503ee" target="_top" xlink:title="as_get_status">
<polygon fill="white" stroke="black" points="315,-44.5 315,-63.5 393,-63.5 393,-44.5 315,-44.5"/>
<text text-anchor="middle" x="354" y="-51.5" font-family="Helvetica,sans-Serif" font-size="10.00">as_get_status</text>
</a>
</g>
<!-- Node12&#45;&gt;Node14 -->
<g id="edge28" class="edge"><title>Node12&#45;&gt;Node14</title>
<path fill="none" stroke="midnightblue" d="M223.166,-168.905C237.328,-165.579 254.122,-159.616 266,-149 293.867,-124.093 274.463,-98.2714 302,-73 303.697,-71.4428 305.533,-70.0098 307.466,-68.6916"/>
<polygon fill="midnightblue" stroke="midnightblue" points="309.456,-71.5874 316.437,-63.6173 306.009,-65.4946 309.456,-71.5874"/>
</g>
<!-- Node15 -->
<g id="node30" class="node"><title>Node15</title>
<a xlink:href="../../d3/d4c/buzzer_8c.xhtml#a6ec06c5367637f000e6c5deedc6bab1b" target="_top" xlink:title="Play a sequence of notes using the buzzer.">
<polygon fill="white" stroke="black" points="319.5,-196.5 319.5,-215.5 388.5,-215.5 388.5,-196.5 319.5,-196.5"/>
<text text-anchor="middle" x="354" y="-203.5" font-family="Helvetica,sans-Serif" font-size="10.00">buzzer_play</text>
</a>
</g>
<!-- Node12&#45;&gt;Node15 -->
<g id="edge30" class="edge"><title>Node12&#45;&gt;Node15</title>
<path fill="none" stroke="midnightblue" d="M223.347,-178.748C247.134,-183.748 282.019,-191.08 309.614,-196.881"/>
<polygon fill="midnightblue" stroke="midnightblue" points="308.91,-200.309 319.416,-198.941 310.35,-193.459 308.91,-200.309"/>
</g>
<!-- Node18 -->
<g id="node36" class="node"><title>Node18</title>
<a xlink:href="../../d9/d8e/vti__as_8h.xhtml#ae20bbb28e4b58198a517f379b7920a3b" target="_top" xlink:title="as_get_data">
<polygon fill="white" stroke="black" points="319,-158.5 319,-177.5 389,-177.5 389,-158.5 319,-158.5"/>
<text text-anchor="middle" x="354" y="-165.5" font-family="Helvetica,sans-Serif" font-size="10.00">as_get_data</text>
</a>
</g>
<!-- Node12&#45;&gt;Node18 -->
<g id="edge36" class="edge"><title>Node12&#45;&gt;Node18</title>
<path fill="none" stroke="midnightblue" d="M223.347,-172.129C246.874,-171.38 281.258,-170.285 308.706,-169.411"/>
<polygon fill="midnightblue" stroke="midnightblue" points="308.965,-172.904 318.849,-169.088 308.742,-165.908 308.965,-172.904"/>
</g>
<!-- Node19 -->
<g id="node39" class="node"><title>Node19</title>
<a xlink:href="../../d1/d2d/accelerometer_8c.xhtml#a395794d1c6c3446e651f1d8751308121" target="_top" xlink:title="display_data">
<polygon fill="white" stroke="black" points="318.5,-120.5 318.5,-139.5 389.5,-139.5 389.5,-120.5 318.5,-120.5"/>
<text text-anchor="middle" x="354" y="-127.5" font-family="Helvetica,sans-Serif" font-size="10.00">display_data</text>
</a>
</g>
<!-- Node12&#45;&gt;Node19 -->
<g id="edge40" class="edge"><title>Node12&#45;&gt;Node19</title>
<path fill="none" stroke="midnightblue" d="M223.347,-165.51C246.821,-159.081 281.103,-149.691 308.521,-142.182"/>
<polygon fill="midnightblue" stroke="midnightblue" points="309.558,-145.527 318.278,-139.51 307.709,-138.776 309.558,-145.527"/>
</g>
<!-- Node22 -->
<g id="node48" class="node"><title>Node22</title>
<a xlink:href="../../d9/d8e/vti__as_8h.xhtml#a09ea2bd655c59ec47643c5a7a25da589" target="_top" xlink:title="as_read_register">
<polygon fill="white" stroke="black" points="309.5,-82.5 309.5,-101.5 398.5,-101.5 398.5,-82.5 309.5,-82.5"/>
<text text-anchor="middle" x="354" y="-89.5" font-family="Helvetica,sans-Serif" font-size="10.00">as_read_register</text>
</a>
</g>
<!-- Node12&#45;&gt;Node22 -->
<g id="edge52" class="edge"><title>Node12&#45;&gt;Node22</title>
<path fill="none" stroke="midnightblue" d="M223.297,-166.935C236.841,-163.131 253.032,-157.337 266,-149 285.569,-136.419 282.598,-123.837 302,-111 304.925,-109.064 308.075,-107.291 311.322,-105.672"/>
<polygon fill="midnightblue" stroke="midnightblue" points="312.922,-108.791 320.626,-101.519 310.068,-102.399 312.922,-108.791"/>
</g>
<!-- Node16 -->
<g id="node32" class="node"><title>Node16</title>
<a xlink:href="../../df/d41/timer_8c.xhtml#adc3302861aee9d7f4a1c4c6d25d07343" target="_top" xlink:title="1ms &#45; 1s programmable delay">
<polygon fill="white" stroke="black" points="455,-202.5 455,-221.5 527,-221.5 527,-202.5 455,-202.5"/>
<text text-anchor="middle" x="491" y="-209.5" font-family="Helvetica,sans-Serif" font-size="10.00">timer0_delay</text>
</a>
</g>
<!-- Node15&#45;&gt;Node16 -->
<g id="edge32" class="edge"><title>Node15&#45;&gt;Node16</title>
<path fill="none" stroke="midnightblue" d="M388.718,-207.499C405.64,-208.251 426.379,-209.172 444.673,-209.985"/>
<polygon fill="midnightblue" stroke="midnightblue" points="444.684,-213.489 454.829,-210.437 444.994,-206.496 444.684,-213.489"/>
</g>
<!-- Node17 -->
<g id="node34" class="node"><title>Node17</title>
<a xlink:href="../../d3/d4c/buzzer_8c.xhtml#a0b5e97d5c00be597d96fd80c6cd1ad56" target="_top" xlink:title="buzzer_stop">
<polygon fill="white" stroke="black" points="456,-240.5 456,-259.5 526,-259.5 526,-240.5 456,-240.5"/>
<text text-anchor="middle" x="491" y="-247.5" font-family="Helvetica,sans-Serif" font-size="10.00">buzzer_stop</text>
</a>
</g>
<!-- Node15&#45;&gt;Node17 -->
<g id="edge34" class="edge"><title>Node15&#45;&gt;Node17</title>
<path fill="none" stroke="midnightblue" d="M384.293,-215.547C403.841,-221.919 429.764,-230.367 451.046,-237.304"/>
<polygon fill="midnightblue" stroke="midnightblue" points="450.172,-240.7 460.764,-240.471 452.341,-234.045 450.172,-240.7"/>
</g>
<!-- Node19&#45;&gt;Node6 -->
<g id="edge44" class="edge"><title>Node19&#45;&gt;Node6</title>
<path fill="none" stroke="midnightblue" d="M388.394,-120.468C394.548,-117.921 400.697,-114.793 406,-111 426.552,-96.3017 421.598,-81.9061 442,-67 444.489,-65.1817 447.175,-63.509 449.961,-61.9756"/>
<polygon fill="midnightblue" stroke="midnightblue" points="451.614,-65.0638 459.078,-57.5449 448.554,-58.7679 451.614,-65.0638"/>
</g>
<!-- Node19&#45;&gt;Node7 -->
<g id="edge42" class="edge"><title>Node19&#45;&gt;Node7</title>
<path fill="none" stroke="midnightblue" d="M389.533,-130.767C427.83,-130.405 490.709,-126.154 540,-105 561.614,-95.724 582.089,-77.9744 595.447,-64.7353"/>
<polygon fill="midnightblue" stroke="midnightblue" points="597.968,-67.1628 602.444,-57.5597 592.956,-62.2757 597.968,-67.1628"/>
</g>
<!-- Node19&#45;&gt;Node10 -->
<g id="edge50" class="edge"><title>Node19&#45;&gt;Node10</title>
<path fill="none" stroke="midnightblue" d="M389.559,-121.447C395.541,-118.82 401.329,-115.412 406,-111 434.936,-83.6702 413.343,-56.6219 442,-29 443.625,-27.4334 445.395,-25.9911 447.266,-24.6639"/>
<polygon fill="midnightblue" stroke="midnightblue" points="449.122,-27.6329 455.975,-19.5528 445.579,-21.5957 449.122,-27.6329"/>
</g>
<!-- Node20 -->
<g id="node43" class="node"><title>Node20</title>
<a xlink:href="../../db/d85/display_8c.xhtml#a9047d98cd15ffbc79e15c63fca36d70b" target="_top" xlink:title="pseudo sprintf function">
<polygon fill="white" stroke="black" points="466.5,-76.5 466.5,-95.5 515.5,-95.5 515.5,-76.5 466.5,-76.5"/>
<text text-anchor="middle" x="491" y="-83.5" font-family="Helvetica,sans-Serif" font-size="10.00">_sprintf</text>
</a>
</g>
<!-- Node19&#45;&gt;Node20 -->
<g id="edge46" class="edge"><title>Node19&#45;&gt;Node20</title>
<path fill="none" stroke="midnightblue" d="M384.293,-120.453C405.544,-113.527 434.327,-104.145 456.493,-96.9207"/>
<polygon fill="midnightblue" stroke="midnightblue" points="457.738,-100.196 466.161,-93.7698 455.569,-93.5409 457.738,-100.196"/>
</g>
<!-- Node21 -->
<g id="node45" class="node"><title>Node21</title>
<a xlink:href="../../d1/d2d/accelerometer_8c.xhtml#ada05d6860a0eb4054d6aab60f359317c" target="_top" xlink:title="acceleration_value\l_is_positive">
<polygon fill="white" stroke="black" points="442,-153 442,-183 540,-183 540,-153 442,-153"/>
<text text-anchor="start" x="450" y="-171" font-family="Helvetica,sans-Serif" font-size="10.00">acceleration_value</text>
<text text-anchor="middle" x="491" y="-160" font-family="Helvetica,sans-Serif" font-size="10.00">_is_positive</text>
</a>
</g>
<!-- Node19&#45;&gt;Node21 -->
<g id="edge48" class="edge"><title>Node19&#45;&gt;Node21</title>
<path fill="none" stroke="midnightblue" d="M389.066,-139.589C402.077,-143.251 417.304,-147.537 431.929,-151.654"/>
<polygon fill="midnightblue" stroke="midnightblue" points="431.349,-155.127 441.923,-154.467 433.245,-148.389 431.349,-155.127"/>
</g>
</g>
</svg>
