<?xml version="1.0" encoding="UTF-8" standalone="no"?>
<!DOCTYPE svg PUBLIC "-//W3C//DTD SVG 1.1//EN"
 "http://www.w3.org/Graphics/SVG/1.1/DTD/svg11.dtd">
<!-- Generated by graphviz version 2.28.0 (20121221.0049)
 -->
<!-- Title: RTC_A_ISR Pages: 1 -->
<svg width="236pt" height="66pt"
 viewBox="0.00 0.00 236.00 66.00" xmlns="http://www.w3.org/2000/svg" xmlns:xlink="http://www.w3.org/1999/xlink">
<g id="graph1" class="graph" transform="scale(1 1) rotate(0) translate(4 62)">
<title>RTC_A_ISR</title>
<polygon fill="white" stroke="white" points="-4,5 -4,-62 233,-62 233,5 -4,5"/>
<!-- Node1 -->
<g id="node1" class="node"><title>Node1</title>
<polygon fill="#bfbfbf" stroke="black" points="0,-19.5 0,-38.5 72,-38.5 72,-19.5 0,-19.5"/>
<text text-anchor="middle" x="36" y="-26.5" font-family="Helvetica,sans-Serif" font-size="10.00">RTC_A_ISR</text>
</g>
<!-- Node2 -->
<g id="node3" class="node"><title>Node2</title>
<a xlink:href="../../d4/d53/rtc__dst_8h.xhtml#a0aa62a4d99807283f85c0c4f121f3c77" target="_top" xlink:title="rtc_dst_hourly_update">
<polygon fill="white" stroke="black" points="111.5,-38.5 111.5,-57.5 224.5,-57.5 224.5,-38.5 111.5,-38.5"/>
<text text-anchor="middle" x="168" y="-45.5" font-family="Helvetica,sans-Serif" font-size="10.00">rtc_dst_hourly_update</text>
</a>
</g>
<!-- Node1&#45;&gt;Node2 -->
<g id="edge2" class="edge"><title>Node1&#45;&gt;Node2</title>
<path fill="none" stroke="midnightblue" d="M72.1799,-34.1417C81.2033,-35.4605 91.2057,-36.9224 101.232,-38.3878"/>
<polygon fill="midnightblue" stroke="midnightblue" points="100.831,-41.8662 111.232,-39.8493 101.843,-34.9398 100.831,-41.8662"/>
</g>
<!-- Node3 -->
<g id="node5" class="node"><title>Node3</title>
<a xlink:href="../../d4/d53/rtc__dst_8h.xhtml#ad054f92362bb72817d29c5a54898b6f9" target="_top" xlink:title="rtc_dst_calculate_dates">
<polygon fill="white" stroke="black" points="108,-0.5 108,-19.5 228,-19.5 228,-0.5 108,-0.5"/>
<text text-anchor="middle" x="168" y="-7.5" font-family="Helvetica,sans-Serif" font-size="10.00">rtc_dst_calculate_dates</text>
</a>
</g>
<!-- Node1&#45;&gt;Node3 -->
<g id="edge4" class="edge"><title>Node1&#45;&gt;Node3</title>
<path fill="none" stroke="midnightblue" d="M72.1799,-23.8583C80.1565,-22.6925 88.898,-21.4149 97.7451,-20.1219"/>
<polygon fill="midnightblue" stroke="midnightblue" points="98.3547,-23.57 107.743,-18.6606 97.3423,-16.6436 98.3547,-23.57"/>
</g>
</g>
</svg>
