<?xml version="1.0" encoding="UTF-8" standalone="no"?>
<!DOCTYPE svg PUBLIC "-//W3C//DTD SVG 1.1//EN"
 "http://www.w3.org/Graphics/SVG/1.1/DTD/svg11.dtd">
<!-- Generated by graphviz version 2.28.0 (20121221.0049)
 -->
<!-- Title: buttonUp Pages: 1 -->
<svg width="790pt" height="294pt"
 viewBox="0.00 0.00 790.00 294.00" xmlns="http://www.w3.org/2000/svg" xmlns:xlink="http://www.w3.org/1999/xlink">
<g id="graph1" class="graph" transform="scale(1 1) rotate(0) translate(4 290)">
<title>buttonUp</title>
<polygon fill="white" stroke="white" points="-4,5 -4,-290 787,-290 787,5 -4,5"/>
<!-- Node1 -->
<g id="node1" class="node"><title>Node1</title>
<polygon fill="#bfbfbf" stroke="black" points="0,-180.5 0,-199.5 56,-199.5 56,-180.5 0,-180.5"/>
<text text-anchor="middle" x="28" y="-187.5" font-family="Helvetica,sans-Serif" font-size="10.00">buttonUp</text>
</g>
<!-- Node2 -->
<g id="node3" class="node"><title>Node2</title>
<a xlink:href="../../db/d85/display_8c.xhtml#a0e030727a1bc4d1418bb96cc71350203" target="_top" xlink:title="Activates a virtual screen.">
<polygon fill="white" stroke="black" points="92,-228.5 92,-247.5 196,-247.5 196,-228.5 92,-228.5"/>
<text text-anchor="middle" x="144" y="-235.5" font-family="Helvetica,sans-Serif" font-size="10.00">lcd_screen_activate</text>
</a>
</g>
<!-- Node1&#45;&gt;Node2 -->
<g id="edge2" class="edge"><title>Node1&#45;&gt;Node2</title>
<path fill="none" stroke="midnightblue" d="M51.7956,-199.598C68.7271,-206.727 92.0482,-216.547 110.869,-224.471"/>
<polygon fill="midnightblue" stroke="midnightblue" points="109.669,-227.764 120.244,-228.418 112.386,-221.312 109.669,-227.764"/>
</g>
<!-- Node4 -->
<g id="node7" class="node"><title>Node4</title>
<a xlink:href="../../db/d52/tide_8c.xhtml#add9c243943294a693b79fd92d6cfc99c" target="_top" xlink:title="drawScreen">
<polygon fill="white" stroke="black" points="110,-133.5 110,-152.5 178,-152.5 178,-133.5 110,-133.5"/>
<text text-anchor="middle" x="144" y="-140.5" font-family="Helvetica,sans-Serif" font-size="10.00">drawScreen</text>
</a>
</g>
<!-- Node1&#45;&gt;Node4 -->
<g id="edge6" class="edge"><title>Node1&#45;&gt;Node4</title>
<path fill="none" stroke="midnightblue" d="M52.0696,-180.489C68.8014,-173.591 91.666,-164.164 110.281,-156.489"/>
<polygon fill="midnightblue" stroke="midnightblue" points="111.662,-159.706 119.573,-152.658 108.994,-153.234 111.662,-159.706"/>
</g>
<!-- Node3 -->
<g id="node5" class="node"><title>Node3</title>
<a xlink:href="../../d2/df2/openchronos_8c.xhtml#a72f5591868e0c66a539eacdcd0b520d7" target="_top" xlink:title="Increment/decrements value by one without exiting the [lower, upper] interval.">
<polygon fill="white" stroke="black" points="245.5,-266.5 245.5,-285.5 316.5,-285.5 316.5,-266.5 245.5,-266.5"/>
<text text-anchor="middle" x="281" y="-273.5" font-family="Helvetica,sans-Serif" font-size="10.00">helpers_loop</text>
</a>
</g>
<!-- Node2&#45;&gt;Node3 -->
<g id="edge4" class="edge"><title>Node2&#45;&gt;Node3</title>
<path fill="none" stroke="midnightblue" d="M179.066,-247.589C196.413,-252.472 217.702,-258.464 236.249,-263.685"/>
<polygon fill="midnightblue" stroke="midnightblue" points="235.37,-267.074 245.945,-266.414 237.267,-260.335 235.37,-267.074"/>
</g>
<!-- Node5 -->
<g id="node9" class="node"><title>Node5</title>
<a xlink:href="../../db/d85/display_8c.xhtml#aa150336a018e90f37fd0285047b541f6" target="_top" xlink:title="Clears the screen.">
<polygon fill="white" stroke="black" points="244,-190.5 244,-209.5 318,-209.5 318,-190.5 244,-190.5"/>
<text text-anchor="middle" x="281" y="-197.5" font-family="Helvetica,sans-Serif" font-size="10.00">display_clear</text>
</a>
</g>
<!-- Node4&#45;&gt;Node5 -->
<g id="edge8" class="edge"><title>Node4&#45;&gt;Node5</title>
<path fill="none" stroke="midnightblue" d="M166.363,-152.579C183.92,-160.391 209.479,-171.628 232,-181 236.52,-182.881 241.296,-184.824 246.014,-186.718"/>
<polygon fill="midnightblue" stroke="midnightblue" points="244.929,-190.053 255.515,-190.498 247.517,-183.549 244.929,-190.053"/>
</g>
<!-- Node6 -->
<g id="node11" class="node"><title>Node6</title>
<a xlink:href="../../db/d85/display_8c.xhtml#a6f2d5cdda31a73b43a569cb3d1a64165" target="_top" xlink:title="Displays several consecutive characters.">
<polygon fill="white" stroke="black" points="369.5,-190.5 369.5,-209.5 446.5,-209.5 446.5,-190.5 369.5,-190.5"/>
<text text-anchor="middle" x="408" y="-197.5" font-family="Helvetica,sans-Serif" font-size="10.00">display_chars</text>
</a>
</g>
<!-- Node4&#45;&gt;Node6 -->
<g id="edge36" class="edge"><title>Node4&#45;&gt;Node6</title>
<path fill="none" stroke="midnightblue" d="M152.042,-152.608C165.359,-169.86 196.136,-205.541 232,-219 278.553,-236.47 336.62,-224.059 372.761,-212.692"/>
<polygon fill="midnightblue" stroke="midnightblue" points="373.94,-215.989 382.346,-209.54 371.753,-209.339 373.94,-215.989"/>
</g>
<!-- Node10 -->
<g id="node19" class="node"><title>Node10</title>
<a xlink:href="../../db/d85/display_8c.xhtml#af604e78dcc4e0f1a204b2180c5e54957" target="_top" xlink:title="Displays a symbol.">
<polygon fill="white" stroke="black" points="366,-152.5 366,-171.5 450,-171.5 450,-152.5 366,-152.5"/>
<text text-anchor="middle" x="408" y="-159.5" font-family="Helvetica,sans-Serif" font-size="10.00">display_symbol</text>
</a>
</g>
<!-- Node4&#45;&gt;Node10 -->
<g id="edge30" class="edge"><title>Node4&#45;&gt;Node10</title>
<path fill="none" stroke="midnightblue" d="M178.23,-140.595C215.373,-138.465 277.233,-136.586 330,-143 341.84,-144.439 354.484,-147.08 366.032,-149.944"/>
<polygon fill="midnightblue" stroke="midnightblue" points="365.291,-153.368 375.85,-152.494 367.051,-146.593 365.291,-153.368"/>
</g>
<!-- Node11 -->
<g id="node22" class="node"><title>Node11</title>
<a xlink:href="../../db/d52/tide_8c.xhtml#adcd9a1bde3289e795b11fdcf0276aead" target="_top" xlink:title="timeNowInMinutes">
<polygon fill="white" stroke="black" points="232,-76.5 232,-95.5 330,-95.5 330,-76.5 232,-76.5"/>
<text text-anchor="middle" x="281" y="-83.5" font-family="Helvetica,sans-Serif" font-size="10.00">timeNowInMinutes</text>
</a>
</g>
<!-- Node4&#45;&gt;Node11 -->
<g id="edge22" class="edge"><title>Node4&#45;&gt;Node11</title>
<path fill="none" stroke="midnightblue" d="M167.596,-133.459C189.596,-124.171 223.243,-109.964 247.993,-99.5143"/>
<polygon fill="midnightblue" stroke="midnightblue" points="249.479,-102.686 257.33,-95.5716 246.756,-96.237 249.479,-102.686"/>
</g>
<!-- Node12 -->
<g id="node24" class="node"><title>Node12</title>
<a xlink:href="../../db/d52/tide_8c.xhtml#ab6741cd0eea258802916a855f36f8e55" target="_top" xlink:title="timeInMinutes">
<polygon fill="white" stroke="black" points="369,-57.5 369,-76.5 447,-76.5 447,-57.5 369,-57.5"/>
<text text-anchor="middle" x="408" y="-64.5" font-family="Helvetica,sans-Serif" font-size="10.00">timeInMinutes</text>
</a>
</g>
<!-- Node4&#45;&gt;Node12 -->
<g id="edge26" class="edge"><title>Node4&#45;&gt;Node12</title>
<path fill="none" stroke="midnightblue" d="M152.042,-133.392C165.359,-116.14 196.136,-80.4587 232,-67 272.646,-51.7466 322.441,-53.5216 358.507,-58.0675"/>
<polygon fill="midnightblue" stroke="midnightblue" points="358.38,-61.583 368.764,-59.481 359.335,-54.6485 358.38,-61.583"/>
</g>
<!-- Node13 -->
<g id="node27" class="node"><title>Node13</title>
<a xlink:href="../../db/d52/tide_8c.xhtml#aa8fd833b89760ca87a163163aae14187" target="_top" xlink:title="timeFromMinutes">
<polygon fill="white" stroke="black" points="235,-0.5 235,-19.5 327,-19.5 327,-0.5 235,-0.5"/>
<text text-anchor="middle" x="281" y="-7.5" font-family="Helvetica,sans-Serif" font-size="10.00">timeFromMinutes</text>
</a>
</g>
<!-- Node4&#45;&gt;Node13 -->
<g id="edge28" class="edge"><title>Node4&#45;&gt;Node13</title>
<path fill="none" stroke="midnightblue" d="M150.635,-133.395C163.07,-112.871 194.735,-64.16 232,-34 236.436,-30.4099 241.497,-27.1638 246.63,-24.3027"/>
<polygon fill="midnightblue" stroke="midnightblue" points="248.532,-27.2603 255.828,-19.5773 245.333,-21.0339 248.532,-27.2603"/>
</g>
<!-- Node14 -->
<g id="node30" class="node"><title>Node14</title>
<a xlink:href="../../db/d52/tide_8c.xhtml#ac19d24cc6cc0121e720da442159a050e" target="_top" xlink:title="blinkCol">
<polygon fill="white" stroke="black" points="255,-152.5 255,-171.5 307,-171.5 307,-152.5 255,-152.5"/>
<text text-anchor="middle" x="281" y="-159.5" font-family="Helvetica,sans-Serif" font-size="10.00">blinkCol</text>
</a>
</g>
<!-- Node4&#45;&gt;Node14 -->
<g id="edge32" class="edge"><title>Node4&#45;&gt;Node14</title>
<path fill="none" stroke="midnightblue" d="M178.025,-147.648C198.325,-150.505 224.312,-154.162 244.972,-157.07"/>
<polygon fill="midnightblue" stroke="midnightblue" points="244.544,-160.544 254.934,-158.472 245.519,-153.613 244.544,-160.544"/>
</g>
<!-- Node5&#45;&gt;Node6 -->
<g id="edge10" class="edge"><title>Node5&#45;&gt;Node6</title>
<path fill="none" stroke="midnightblue" d="M318.155,-200C330.911,-200 345.458,-200 359.037,-200"/>
<polygon fill="midnightblue" stroke="midnightblue" points="359.186,-203.5 369.186,-200 359.186,-196.5 359.186,-203.5"/>
</g>
<!-- Node5&#45;&gt;Node10 -->
<g id="edge18" class="edge"><title>Node5&#45;&gt;Node10</title>
<path fill="none" stroke="midnightblue" d="M313.543,-190.411C329.383,-185.596 348.773,-179.701 365.776,-174.532"/>
<polygon fill="midnightblue" stroke="midnightblue" points="366.918,-177.843 375.467,-171.586 364.882,-171.146 366.918,-177.843"/>
</g>
<!-- Node7 -->
<g id="node13" class="node"><title>Node7</title>
<a xlink:href="../../db/d85/display_8c.xhtml#a3ae30196af91197037d50cb49de1d109" target="_top" xlink:title="Displays a single character.">
<polygon fill="white" stroke="black" points="486.5,-190.5 486.5,-209.5 557.5,-209.5 557.5,-190.5 486.5,-190.5"/>
<text text-anchor="middle" x="522" y="-197.5" font-family="Helvetica,sans-Serif" font-size="10.00">display_char</text>
</a>
</g>
<!-- Node6&#45;&gt;Node7 -->
<g id="edge12" class="edge"><title>Node6&#45;&gt;Node7</title>
<path fill="none" stroke="midnightblue" d="M446.606,-200C456.133,-200 466.46,-200 476.301,-200"/>
<polygon fill="midnightblue" stroke="midnightblue" points="476.326,-203.5 486.326,-200 476.326,-196.5 476.326,-203.5"/>
</g>
<!-- Node8 -->
<g id="node15" class="node"><title>Node8</title>
<a xlink:href="../../db/d85/display_8c.xhtml#a9275035317878022cf9eacf6b0a5be72" target="_top" xlink:title="Display a custom collection of segments.">
<polygon fill="white" stroke="black" points="594,-190.5 594,-209.5 662,-209.5 662,-190.5 594,-190.5"/>
<text text-anchor="middle" x="628" y="-197.5" font-family="Helvetica,sans-Serif" font-size="10.00">display_bits</text>
</a>
</g>
<!-- Node7&#45;&gt;Node8 -->
<g id="edge14" class="edge"><title>Node7&#45;&gt;Node8</title>
<path fill="none" stroke="midnightblue" d="M557.63,-200C566.04,-200 575.133,-200 583.882,-200"/>
<polygon fill="midnightblue" stroke="midnightblue" points="583.931,-203.5 593.931,-200 583.931,-196.5 583.931,-203.5"/>
</g>
<!-- Node9 -->
<g id="node17" class="node"><title>Node9</title>
<a xlink:href="../../db/d85/display_8c.xhtml#a710739913e8ea1b71dd433b8311211fd" target="_top" xlink:title="write_lcd_mem">
<polygon fill="white" stroke="black" points="698.5,-171.5 698.5,-190.5 781.5,-190.5 781.5,-171.5 698.5,-171.5"/>
<text text-anchor="middle" x="740" y="-178.5" font-family="Helvetica,sans-Serif" font-size="10.00">write_lcd_mem</text>
</a>
</g>
<!-- Node8&#45;&gt;Node9 -->
<g id="edge16" class="edge"><title>Node8&#45;&gt;Node9</title>
<path fill="none" stroke="midnightblue" d="M662.004,-194.299C670.28,-192.87 679.352,-191.303 688.273,-189.762"/>
<polygon fill="midnightblue" stroke="midnightblue" points="688.972,-193.193 698.231,-188.042 687.781,-186.295 688.972,-193.193"/>
</g>
<!-- Node10&#45;&gt;Node9 -->
<g id="edge20" class="edge"><title>Node10&#45;&gt;Node9</title>
<path fill="none" stroke="midnightblue" d="M450.127,-164.368C510.481,-167.843 622.942,-174.318 688.318,-178.082"/>
<polygon fill="midnightblue" stroke="midnightblue" points="688.206,-181.581 698.391,-178.662 688.609,-174.593 688.206,-181.581"/>
</g>
<!-- Node11&#45;&gt;Node12 -->
<g id="edge24" class="edge"><title>Node11&#45;&gt;Node12</title>
<path fill="none" stroke="midnightblue" d="M330.328,-78.6541C339.712,-77.2277 349.547,-75.7329 358.923,-74.3078"/>
<polygon fill="midnightblue" stroke="midnightblue" points="359.513,-77.7583 368.874,-72.7952 358.461,-70.8377 359.513,-77.7583"/>
</g>
<!-- Node14&#45;&gt;Node10 -->
<g id="edge34" class="edge"><title>Node14&#45;&gt;Node10</title>
<path fill="none" stroke="midnightblue" d="M307.296,-162C321.238,-162 339.064,-162 355.777,-162"/>
<polygon fill="midnightblue" stroke="midnightblue" points="355.995,-165.5 365.995,-162 355.995,-158.5 355.995,-165.5"/>
</g>
</g>
</svg>
