<?xml version="1.0" encoding="UTF-8" standalone="no"?>
<!DOCTYPE svg PUBLIC "-//W3C//DTD SVG 1.1//EN"
 "http://www.w3.org/Graphics/SVG/1.1/DTD/svg11.dtd">
<!-- Generated by graphviz version 2.28.0 (20121221.0049)
 -->
<!-- Title: activate Pages: 1 -->
<!--zoomable 294 -->
<svg id="main" version="1.1" xmlns="http://www.w3.org/2000/svg" xmlns:xlink="http://www.w3.org/1999/xlink" xml:space="preserve" onload="init(evt)">
        <defs>
                <circle id="rim" cx="0" cy="0" r="7"/>
                <circle id="rim2" cx="0" cy="0" r="3.5"/>
                <g id="zoomPlus">
                        <use xlink:href="#rim" fill="#404040">
                                <set attributeName="fill" to="#808080" begin="zoomplus.mouseover" end="zoomplus.mouseout"/>
                        </use>
                        <path d="M-4,0h8M0,-4v8" fill="none" stroke="white" stroke-width="1.5" pointer-events="none"/>
                </g>
                <g id="zoomMin">
                        <use xlink:href="#rim" fill="#404040">
                                <set attributeName="fill" to="#808080" begin="zoomminus.mouseover" end="zoomminus.mouseout"/>
                        </use>
                        <path d="M-4,0h8" fill="none" stroke="white" stroke-width="1.5" pointer-events="none"/>
                </g>
                <g id="dirArrow">
                        <path fill="none" stroke="white" stroke-width="1.5" d="M0,-3.0v7 M-2.5,-0.5L0,-3.0L2.5,-0.5"/>
                </g>
               <g id="resetDef">
                       <use xlink:href="#rim2" fill="#404040">
                               <set attributeName="fill" to="#808080" begin="reset.mouseover" end="reset.mouseout"/>
                       </use>
               </g>
        </defs>

<script type="text/javascript">
var viewWidth = 786;
var viewHeight = 294;
var sectionId = 'dynsection-1';
</script>
<script xlink:href="../../svgpan.js"/>
<svg id="graph" class="graph">
<g id="viewport">
<title>activate</title>
<polygon fill="white" stroke="white" points="-4,5 -4,-290 783,-290 783,5 -4,5"/>
<!-- Node1 -->
<g id="node1" class="node"><title>Node1</title>
<polygon fill="#bfbfbf" stroke="black" points="0.5,-228.5 0.5,-247.5 51.5,-247.5 51.5,-228.5 0.5,-228.5"/>
<text text-anchor="middle" x="26" y="-235.5" font-family="Helvetica,sans-Serif" font-size="10.00">activate</text>
</g>
<!-- Node2 -->
<g id="node3" class="node"><title>Node2</title>
<a xlink:href="../../db/d85/display_8c.xhtml#a4c1000a508e4527145c75b4827d81dd8" target="_top" xlink:title="Creates virtual screens.">
<polygon fill="white" stroke="black" points="89.5,-266.5 89.5,-285.5 190.5,-285.5 190.5,-266.5 89.5,-266.5"/>
<text text-anchor="middle" x="140" y="-273.5" font-family="Helvetica,sans-Serif" font-size="10.00">lcd_screens_create</text>
</a>
</g>
<!-- Node1&#45;&gt;Node2 -->
<g id="edge2" class="edge"><title>Node1&#45;&gt;Node2</title>
<path fill="none" stroke="midnightblue" d="M51.5789,-246.339C66.0833,-251.26 84.7458,-257.592 101.1,-263.141"/>
<polygon fill="midnightblue" stroke="midnightblue" points="100.333,-266.577 110.927,-266.475 102.582,-259.948 100.333,-266.577"/>
</g>
<!-- Node3 -->
<g id="node5" class="node"><title>Node3</title>
<a xlink:href="../../db/d85/display_8c.xhtml#a0e030727a1bc4d1418bb96cc71350203" target="_top" xlink:title="Activates a virtual screen.">
<polygon fill="white" stroke="black" points="88,-228.5 88,-247.5 192,-247.5 192,-228.5 88,-228.5"/>
<text text-anchor="middle" x="140" y="-235.5" font-family="Helvetica,sans-Serif" font-size="10.00">lcd_screen_activate</text>
</a>
</g>
<!-- Node1&#45;&gt;Node3 -->
<g id="edge4" class="edge"><title>Node1&#45;&gt;Node3</title>
<path fill="none" stroke="midnightblue" d="M51.5789,-238C59.4287,-238 68.4965,-238 77.7572,-238"/>
<polygon fill="midnightblue" stroke="midnightblue" points="77.8332,-241.5 87.8332,-238 77.8332,-234.5 77.8332,-241.5"/>
</g>
<!-- Node5 -->
<g id="node9" class="node"><title>Node5</title>
<a xlink:href="../../db/d52/tide_8c.xhtml#add9c243943294a693b79fd92d6cfc99c" target="_top" xlink:title="drawScreen">
<polygon fill="white" stroke="black" points="106,-133.5 106,-152.5 174,-152.5 174,-133.5 106,-133.5"/>
<text text-anchor="middle" x="140" y="-140.5" font-family="Helvetica,sans-Serif" font-size="10.00">drawScreen</text>
</a>
</g>
<!-- Node1&#45;&gt;Node5 -->
<g id="edge8" class="edge"><title>Node1&#45;&gt;Node5</title>
<path fill="none" stroke="midnightblue" d="M38.5641,-228.191C57.7781,-211.894 96.4705,-179.074 119.821,-159.268"/>
<polygon fill="midnightblue" stroke="midnightblue" points="122.303,-161.752 127.666,-152.614 117.775,-156.413 122.303,-161.752"/>
</g>
<!-- Node4 -->
<g id="node7" class="node"><title>Node4</title>
<a xlink:href="../../d2/df2/openchronos_8c.xhtml#a72f5591868e0c66a539eacdcd0b520d7" target="_top" xlink:title="Increment/decrements value by one without exiting the [lower, upper] interval.">
<polygon fill="white" stroke="black" points="241.5,-266.5 241.5,-285.5 312.5,-285.5 312.5,-266.5 241.5,-266.5"/>
<text text-anchor="middle" x="277" y="-273.5" font-family="Helvetica,sans-Serif" font-size="10.00">helpers_loop</text>
</a>
</g>
<!-- Node3&#45;&gt;Node4 -->
<g id="edge6" class="edge"><title>Node3&#45;&gt;Node4</title>
<path fill="none" stroke="midnightblue" d="M175.066,-247.589C192.413,-252.472 213.702,-258.464 232.249,-263.685"/>
<polygon fill="midnightblue" stroke="midnightblue" points="231.37,-267.074 241.945,-266.414 233.267,-260.335 231.37,-267.074"/>
</g>
<!-- Node6 -->
<g id="node11" class="node"><title>Node6</title>
<a xlink:href="../../db/d85/display_8c.xhtml#aa150336a018e90f37fd0285047b541f6" target="_top" xlink:title="Clears the screen.">
<polygon fill="white" stroke="black" points="240,-190.5 240,-209.5 314,-209.5 314,-190.5 240,-190.5"/>
<text text-anchor="middle" x="277" y="-197.5" font-family="Helvetica,sans-Serif" font-size="10.00">display_clear</text>
</a>
</g>
<!-- Node5&#45;&gt;Node6 -->
<g id="edge10" class="edge"><title>Node5&#45;&gt;Node6</title>
<path fill="none" stroke="midnightblue" d="M162.363,-152.579C179.92,-160.391 205.479,-171.628 228,-181 232.52,-182.881 237.296,-184.824 242.014,-186.718"/>
<polygon fill="midnightblue" stroke="midnightblue" points="240.929,-190.053 251.515,-190.498 243.517,-183.549 240.929,-190.053"/>
</g>
<!-- Node7 -->
<g id="node13" class="node"><title>Node7</title>
<a xlink:href="../../db/d85/display_8c.xhtml#a6f2d5cdda31a73b43a569cb3d1a64165" target="_top" xlink:title="Displays several consecutive characters.">
<polygon fill="white" stroke="black" points="365.5,-190.5 365.5,-209.5 442.5,-209.5 442.5,-190.5 365.5,-190.5"/>
<text text-anchor="middle" x="404" y="-197.5" font-family="Helvetica,sans-Serif" font-size="10.00">display_chars</text>
</a>
</g>
<!-- Node5&#45;&gt;Node7 -->
<g id="edge38" class="edge"><title>Node5&#45;&gt;Node7</title>
<path fill="none" stroke="midnightblue" d="M148.042,-152.608C161.359,-169.86 192.136,-205.541 228,-219 274.553,-236.47 332.62,-224.059 368.761,-212.692"/>
<polygon fill="midnightblue" stroke="midnightblue" points="369.94,-215.989 378.346,-209.54 367.753,-209.339 369.94,-215.989"/>
</g>
<!-- Node11 -->
<g id="node21" class="node"><title>Node11</title>
<a xlink:href="../../db/d85/display_8c.xhtml#af604e78dcc4e0f1a204b2180c5e54957" target="_top" xlink:title="Displays a symbol.">
<polygon fill="white" stroke="black" points="362,-152.5 362,-171.5 446,-171.5 446,-152.5 362,-152.5"/>
<text text-anchor="middle" x="404" y="-159.5" font-family="Helvetica,sans-Serif" font-size="10.00">display_symbol</text>
</a>
</g>
<!-- Node5&#45;&gt;Node11 -->
<g id="edge32" class="edge"><title>Node5&#45;&gt;Node11</title>
<path fill="none" stroke="midnightblue" d="M174.23,-140.595C211.373,-138.465 273.233,-136.586 326,-143 337.84,-144.439 350.484,-147.08 362.032,-149.944"/>
<polygon fill="midnightblue" stroke="midnightblue" points="361.291,-153.368 371.85,-152.494 363.051,-146.593 361.291,-153.368"/>
</g>
<!-- Node12 -->
<g id="node24" class="node"><title>Node12</title>
<a xlink:href="../../db/d52/tide_8c.xhtml#adcd9a1bde3289e795b11fdcf0276aead" target="_top" xlink:title="timeNowInMinutes">
<polygon fill="white" stroke="black" points="228,-76.5 228,-95.5 326,-95.5 326,-76.5 228,-76.5"/>
<text text-anchor="middle" x="277" y="-83.5" font-family="Helvetica,sans-Serif" font-size="10.00">timeNowInMinutes</text>
</a>
</g>
<!-- Node5&#45;&gt;Node12 -->
<g id="edge24" class="edge"><title>Node5&#45;&gt;Node12</title>
<path fill="none" stroke="midnightblue" d="M163.596,-133.459C185.596,-124.171 219.243,-109.964 243.993,-99.5143"/>
<polygon fill="midnightblue" stroke="midnightblue" points="245.479,-102.686 253.33,-95.5716 242.756,-96.237 245.479,-102.686"/>
</g>
<!-- Node13 -->
<g id="node26" class="node"><title>Node13</title>
<a xlink:href="../../db/d52/tide_8c.xhtml#ab6741cd0eea258802916a855f36f8e55" target="_top" xlink:title="timeInMinutes">
<polygon fill="white" stroke="black" points="365,-57.5 365,-76.5 443,-76.5 443,-57.5 365,-57.5"/>
<text text-anchor="middle" x="404" y="-64.5" font-family="Helvetica,sans-Serif" font-size="10.00">timeInMinutes</text>
</a>
</g>
<!-- Node5&#45;&gt;Node13 -->
<g id="edge28" class="edge"><title>Node5&#45;&gt;Node13</title>
<path fill="none" stroke="midnightblue" d="M148.042,-133.392C161.359,-116.14 192.136,-80.4587 228,-67 268.646,-51.7466 318.441,-53.5216 354.507,-58.0675"/>
<polygon fill="midnightblue" stroke="midnightblue" points="354.38,-61.583 364.764,-59.481 355.335,-54.6485 354.38,-61.583"/>
</g>
<!-- Node14 -->
<g id="node29" class="node"><title>Node14</title>
<a xlink:href="../../db/d52/tide_8c.xhtml#aa8fd833b89760ca87a163163aae14187" target="_top" xlink:title="timeFromMinutes">
<polygon fill="white" stroke="black" points="231,-0.5 231,-19.5 323,-19.5 323,-0.5 231,-0.5"/>
<text text-anchor="middle" x="277" y="-7.5" font-family="Helvetica,sans-Serif" font-size="10.00">timeFromMinutes</text>
</a>
</g>
<!-- Node5&#45;&gt;Node14 -->
<g id="edge30" class="edge"><title>Node5&#45;&gt;Node14</title>
<path fill="none" stroke="midnightblue" d="M146.635,-133.395C159.07,-112.871 190.735,-64.16 228,-34 232.436,-30.4099 237.497,-27.1638 242.63,-24.3027"/>
<polygon fill="midnightblue" stroke="midnightblue" points="244.532,-27.2603 251.828,-19.5773 241.333,-21.0339 244.532,-27.2603"/>
</g>
<!-- Node15 -->
<g id="node32" class="node"><title>Node15</title>
<a xlink:href="../../db/d52/tide_8c.xhtml#ac19d24cc6cc0121e720da442159a050e" target="_top" xlink:title="blinkCol">
<polygon fill="white" stroke="black" points="251,-152.5 251,-171.5 303,-171.5 303,-152.5 251,-152.5"/>
<text text-anchor="middle" x="277" y="-159.5" font-family="Helvetica,sans-Serif" font-size="10.00">blinkCol</text>
</a>
</g>
<!-- Node5&#45;&gt;Node15 -->
<g id="edge34" class="edge"><title>Node5&#45;&gt;Node15</title>
<path fill="none" stroke="midnightblue" d="M174.025,-147.648C194.325,-150.505 220.312,-154.162 240.972,-157.07"/>
<polygon fill="midnightblue" stroke="midnightblue" points="240.544,-160.544 250.934,-158.472 241.519,-153.613 240.544,-160.544"/>
</g>
<!-- Node6&#45;&gt;Node7 -->
<g id="edge12" class="edge"><title>Node6&#45;&gt;Node7</title>
<path fill="none" stroke="midnightblue" d="M314.155,-200C326.911,-200 341.458,-200 355.037,-200"/>
<polygon fill="midnightblue" stroke="midnightblue" points="355.186,-203.5 365.186,-200 355.186,-196.5 355.186,-203.5"/>
</g>
<!-- Node6&#45;&gt;Node11 -->
<g id="edge20" class="edge"><title>Node6&#45;&gt;Node11</title>
<path fill="none" stroke="midnightblue" d="M309.543,-190.411C325.383,-185.596 344.773,-179.701 361.776,-174.532"/>
<polygon fill="midnightblue" stroke="midnightblue" points="362.918,-177.843 371.467,-171.586 360.882,-171.146 362.918,-177.843"/>
</g>
<!-- Node8 -->
<g id="node15" class="node"><title>Node8</title>
<a xlink:href="../../db/d85/display_8c.xhtml#a3ae30196af91197037d50cb49de1d109" target="_top" xlink:title="Displays a single character.">
<polygon fill="white" stroke="black" points="482.5,-190.5 482.5,-209.5 553.5,-209.5 553.5,-190.5 482.5,-190.5"/>
<text text-anchor="middle" x="518" y="-197.5" font-family="Helvetica,sans-Serif" font-size="10.00">display_char</text>
</a>
</g>
<!-- Node7&#45;&gt;Node8 -->
<g id="edge14" class="edge"><title>Node7&#45;&gt;Node8</title>
<path fill="none" stroke="midnightblue" d="M442.606,-200C452.133,-200 462.46,-200 472.301,-200"/>
<polygon fill="midnightblue" stroke="midnightblue" points="472.326,-203.5 482.326,-200 472.326,-196.5 472.326,-203.5"/>
</g>
<!-- Node9 -->
<g id="node17" class="node"><title>Node9</title>
<a xlink:href="../../db/d85/display_8c.xhtml#a9275035317878022cf9eacf6b0a5be72" target="_top" xlink:title="Display a custom collection of segments.">
<polygon fill="white" stroke="black" points="590,-190.5 590,-209.5 658,-209.5 658,-190.5 590,-190.5"/>
<text text-anchor="middle" x="624" y="-197.5" font-family="Helvetica,sans-Serif" font-size="10.00">display_bits</text>
</a>
</g>
<!-- Node8&#45;&gt;Node9 -->
<g id="edge16" class="edge"><title>Node8&#45;&gt;Node9</title>
<path fill="none" stroke="midnightblue" d="M553.63,-200C562.04,-200 571.133,-200 579.882,-200"/>
<polygon fill="midnightblue" stroke="midnightblue" points="579.931,-203.5 589.931,-200 579.931,-196.5 579.931,-203.5"/>
</g>
<!-- Node10 -->
<g id="node19" class="node"><title>Node10</title>
<a xlink:href="../../db/d85/display_8c.xhtml#a710739913e8ea1b71dd433b8311211fd" target="_top" xlink:title="write_lcd_mem">
<polygon fill="white" stroke="black" points="694.5,-171.5 694.5,-190.5 777.5,-190.5 777.5,-171.5 694.5,-171.5"/>
<text text-anchor="middle" x="736" y="-178.5" font-family="Helvetica,sans-Serif" font-size="10.00">write_lcd_mem</text>
</a>
</g>
<!-- Node9&#45;&gt;Node10 -->
<g id="edge18" class="edge"><title>Node9&#45;&gt;Node10</title>
<path fill="none" stroke="midnightblue" d="M658.004,-194.299C666.28,-192.87 675.352,-191.303 684.273,-189.762"/>
<polygon fill="midnightblue" stroke="midnightblue" points="684.972,-193.193 694.231,-188.042 683.781,-186.295 684.972,-193.193"/>
</g>
<!-- Node11&#45;&gt;Node10 -->
<g id="edge22" class="edge"><title>Node11&#45;&gt;Node10</title>
<path fill="none" stroke="midnightblue" d="M446.127,-164.368C506.481,-167.843 618.942,-174.318 684.318,-178.082"/>
<polygon fill="midnightblue" stroke="midnightblue" points="684.206,-181.581 694.391,-178.662 684.609,-174.593 684.206,-181.581"/>
</g>
<!-- Node12&#45;&gt;Node13 -->
<g id="edge26" class="edge"><title>Node12&#45;&gt;Node13</title>
<path fill="none" stroke="midnightblue" d="M326.328,-78.6541C335.712,-77.2277 345.547,-75.7329 354.923,-74.3078"/>
<polygon fill="midnightblue" stroke="midnightblue" points="355.513,-77.7583 364.874,-72.7952 354.461,-70.8377 355.513,-77.7583"/>
</g>
<!-- Node15&#45;&gt;Node11 -->
<g id="edge36" class="edge"><title>Node15&#45;&gt;Node11</title>
<path fill="none" stroke="midnightblue" d="M303.296,-162C317.238,-162 335.064,-162 351.777,-162"/>
<polygon fill="midnightblue" stroke="midnightblue" points="351.995,-165.5 361.995,-162 351.995,-158.5 351.995,-165.5"/>
</g>
</g>
</svg>
        <g id="navigator" transform="translate(0 0)" fill="#404254">
                <rect fill="#f2f5e9" fill-opacity="0.5" stroke="#606060" stroke-width=".5" x="0" y="0" width="60" height="60"/>
                <use id="zoomplus" xlink:href="#zoomPlus" x="17" y="9" onmousedown="handleZoom(evt,'in')"/>
                <use id="zoomminus" xlink:href="#zoomMin" x="42" y="9" onmousedown="handleZoom(evt,'out')"/>
                <use id="reset" xlink:href="#resetDef" x="30" y="36" onmousedown="handleReset()"/>
                <g id="arrowUp" xlink:href="#dirArrow" transform="translate(30 24)" onmousedown="handlePan(0,-1)">
                  <use xlink:href="#rim" fill="#404040">
                        <set attributeName="fill" to="#808080" begin="arrowUp.mouseover" end="arrowUp.mouseout"/>
                  </use>
                  <path fill="none" stroke="white" stroke-width="1.5" d="M0,-3.0v7 M-2.5,-0.5L0,-3.0L2.5,-0.5"/>
                </g>
                <g id="arrowRight" xlink:href="#dirArrow" transform="rotate(90) translate(36 -43)" onmousedown="handlePan(1,0)">
                  <use xlink:href="#rim" fill="#404040">
                        <set attributeName="fill" to="#808080" begin="arrowRight.mouseover" end="arrowRight.mouseout"/>
                  </use>
                  <path fill="none" stroke="white" stroke-width="1.5" d="M0,-3.0v7 M-2.5,-0.5L0,-3.0L2.5,-0.5"/>
                </g>
                <g id="arrowDown" xlink:href="#dirArrow" transform="rotate(180) translate(-30 -48)" onmousedown="handlePan(0,1)">
                  <use xlink:href="#rim" fill="#404040">
                        <set attributeName="fill" to="#808080" begin="arrowDown.mouseover" end="arrowDown.mouseout"/>
                  </use>
                  <path fill="none" stroke="white" stroke-width="1.5" d="M0,-3.0v7 M-2.5,-0.5L0,-3.0L2.5,-0.5"/>
                </g>
                <g id="arrowLeft" xlink:href="#dirArrow" transform="rotate(270) translate(-36 17)" onmousedown="handlePan(-1,0)">
                  <use xlink:href="#rim" fill="#404040">
                        <set attributeName="fill" to="#808080" begin="arrowLeft.mouseover" end="arrowLeft.mouseout"/>
                  </use>
                  <path fill="none" stroke="white" stroke-width="1.5" d="M0,-3.0v7 M-2.5,-0.5L0,-3.0L2.5,-0.5"/>
                </g>
        </g>
        <svg viewBox="0 0 15 15" width="100%" height="30px" preserveAspectRatio="xMaxYMin meet">
         <g id="arrow_out" transform="scale(0.3 0.3)">
          <a xlink:href="tide_8c_a94cf1888e4c44d0e5ff68b1e81f2b08d_cgraph_org.svg" target="_base">
           <rect id="button" ry="5" rx="5" y="6" x="6" height="38" width="38"
                fill="#f2f5e9" fill-opacity="0.5" stroke="#606060" stroke-width="1.0"/>
           <path id="arrow"
             d="M 11.500037,31.436501 C 11.940474,20.09759 22.043105,11.32322 32.158766,21.979434 L 37.068811,17.246167 C 37.068811,17.246167 37.088388,32 37.088388,32 L 22.160133,31.978069 C 22.160133,31.978069 26.997745,27.140456 26.997745,27.140456 C 18.528582,18.264221 13.291696,25.230495 11.500037,31.436501 z"
             style="fill:#404040;"/>
          </a>
         </g>
        </svg>
</svg>
