<?xml version="1.0" encoding="UTF-8" standalone="no"?>
<!DOCTYPE svg PUBLIC "-//W3C//DTD SVG 1.1//EN"
 "http://www.w3.org/Graphics/SVG/1.1/DTD/svg11.dtd">
<!-- Generated by graphviz version 2.28.0 (20121221.0049)
 -->
<!-- Title: drawScreen Pages: 1 -->
<!--zoomable 223 -->
<svg id="main" version="1.1" xmlns="http://www.w3.org/2000/svg" xmlns:xlink="http://www.w3.org/1999/xlink" xml:space="preserve" onload="init(evt)">
        <defs>
                <circle id="rim" cx="0" cy="0" r="7"/>
                <circle id="rim2" cx="0" cy="0" r="3.5"/>
                <g id="zoomPlus">
                        <use xlink:href="#rim" fill="#404040">
                                <set attributeName="fill" to="#808080" begin="zoomplus.mouseover" end="zoomplus.mouseout"/>
                        </use>
                        <path d="M-4,0h8M0,-4v8" fill="none" stroke="white" stroke-width="1.5" pointer-events="none"/>
                </g>
                <g id="zoomMin">
                        <use xlink:href="#rim" fill="#404040">
                                <set attributeName="fill" to="#808080" begin="zoomminus.mouseover" end="zoomminus.mouseout"/>
                        </use>
                        <path d="M-4,0h8" fill="none" stroke="white" stroke-width="1.5" pointer-events="none"/>
                </g>
                <g id="dirArrow">
                        <path fill="none" stroke="white" stroke-width="1.5" d="M0,-3.0v7 M-2.5,-0.5L0,-3.0L2.5,-0.5"/>
                </g>
               <g id="resetDef">
                       <use xlink:href="#rim2" fill="#404040">
                               <set attributeName="fill" to="#808080" begin="reset.mouseover" end="reset.mouseout"/>
                       </use>
               </g>
        </defs>

<script type="text/javascript">
var viewWidth = 662;
var viewHeight = 223;
var sectionId = 'dynsection-6';
</script>
<script xlink:href="../../svgpan.js"/>
<svg id="graph" class="graph">
<g id="viewport">
<title>drawScreen</title>
<polygon fill="white" stroke="white" points="-4,5 -4,-218.962 659,-218.962 659,5 -4,5"/>
<!-- Node1 -->
<g id="node1" class="node"><title>Node1</title>
<polygon fill="#bfbfbf" stroke="black" points="0,-97.9812 0,-116.981 68,-116.981 68,-97.9812 0,-97.9812"/>
<text text-anchor="middle" x="34" y="-104.981" font-family="Helvetica,sans-Serif" font-size="10.00">drawScreen</text>
</g>
<!-- Node2 -->
<g id="node3" class="node"><title>Node2</title>
<a xlink:href="../../db/d85/display_8c.xhtml#aa150336a018e90f37fd0285047b541f6" target="_top" xlink:title="Clears the screen.">
<polygon fill="white" stroke="black" points="116,-173.981 116,-192.981 190,-192.981 190,-173.981 116,-173.981"/>
<text text-anchor="middle" x="153" y="-180.981" font-family="Helvetica,sans-Serif" font-size="10.00">display_clear</text>
</a>
</g>
<!-- Node1&#45;&gt;Node2 -->
<g id="edge2" class="edge"><title>Node1&#45;&gt;Node2</title>
<path fill="none" stroke="midnightblue" d="M44.5385,-117.046C57.2122,-129.338 80.7235,-150.728 104,-164.481 107.238,-166.395 110.705,-168.191 114.238,-169.858"/>
<polygon fill="midnightblue" stroke="midnightblue" points="113.069,-173.167 123.634,-173.958 115.868,-166.751 113.069,-173.167"/>
</g>
<!-- Node3 -->
<g id="node5" class="node"><title>Node3</title>
<a xlink:href="../../db/d85/display_8c.xhtml#a6f2d5cdda31a73b43a569cb3d1a64165" target="_top" xlink:title="Displays several consecutive characters.">
<polygon fill="white" stroke="black" points="241.5,-173.981 241.5,-192.981 318.5,-192.981 318.5,-173.981 241.5,-173.981"/>
<text text-anchor="middle" x="280" y="-180.981" font-family="Helvetica,sans-Serif" font-size="10.00">display_chars</text>
</a>
</g>
<!-- Node1&#45;&gt;Node3 -->
<g id="edge30" class="edge"><title>Node1&#45;&gt;Node3</title>
<path fill="none" stroke="midnightblue" d="M38.4829,-117.079C46.4292,-137.348 68.0395,-184.155 104,-202.481 149.919,-225.883 211.284,-210.206 247.816,-196.783"/>
<polygon fill="midnightblue" stroke="midnightblue" points="249.348,-199.944 257.428,-193.091 246.838,-193.409 249.348,-199.944"/>
</g>
<!-- Node7 -->
<g id="node13" class="node"><title>Node7</title>
<a xlink:href="../../db/d85/display_8c.xhtml#af604e78dcc4e0f1a204b2180c5e54957" target="_top" xlink:title="Displays a symbol.">
<polygon fill="white" stroke="black" points="238,-135.981 238,-154.981 322,-154.981 322,-135.981 238,-135.981"/>
<text text-anchor="middle" x="280" y="-142.981" font-family="Helvetica,sans-Serif" font-size="10.00">display_symbol</text>
</a>
</g>
<!-- Node1&#45;&gt;Node7 -->
<g id="edge24" class="edge"><title>Node1&#45;&gt;Node7</title>
<path fill="none" stroke="midnightblue" d="M68.1364,-109.986C101.964,-112.84 155.903,-118.207 202,-126.481 212.578,-128.38 223.864,-130.887 234.443,-133.455"/>
<polygon fill="midnightblue" stroke="midnightblue" points="233.773,-136.895 244.322,-135.918 235.466,-130.103 233.773,-136.895"/>
</g>
<!-- Node8 -->
<g id="node16" class="node"><title>Node8</title>
<a xlink:href="../../db/d52/tide_8c.xhtml#adcd9a1bde3289e795b11fdcf0276aead" target="_top" xlink:title="timeNowInMinutes">
<polygon fill="white" stroke="black" points="104,-59.9812 104,-78.9812 202,-78.9812 202,-59.9812 104,-59.9812"/>
<text text-anchor="middle" x="153" y="-66.9812" font-family="Helvetica,sans-Serif" font-size="10.00">timeNowInMinutes</text>
</a>
</g>
<!-- Node1&#45;&gt;Node8 -->
<g id="edge16" class="edge"><title>Node1&#45;&gt;Node8</title>
<path fill="none" stroke="midnightblue" d="M64.524,-97.8922C79.2119,-93.1218 97.1601,-87.2925 112.968,-82.1584"/>
<polygon fill="midnightblue" stroke="midnightblue" points="114.056,-85.4851 122.485,-79.0672 111.893,-78.8274 114.056,-85.4851"/>
</g>
<!-- Node9 -->
<g id="node18" class="node"><title>Node9</title>
<a xlink:href="../../db/d52/tide_8c.xhtml#ab6741cd0eea258802916a855f36f8e55" target="_top" xlink:title="timeInMinutes">
<polygon fill="white" stroke="black" points="241,-21.9812 241,-40.9812 319,-40.9812 319,-21.9812 241,-21.9812"/>
<text text-anchor="middle" x="280" y="-28.9812" font-family="Helvetica,sans-Serif" font-size="10.00">timeInMinutes</text>
</a>
</g>
<!-- Node1&#45;&gt;Node9 -->
<g id="edge20" class="edge"><title>Node1&#45;&gt;Node9</title>
<path fill="none" stroke="midnightblue" d="M38.4829,-97.8837C46.4292,-77.6148 68.0395,-30.8074 104,-12.4812 149.919,10.9202 211.284,-4.7561 247.816,-18.1795"/>
<polygon fill="midnightblue" stroke="midnightblue" points="246.838,-21.5531 257.428,-21.8715 249.348,-15.0185 246.838,-21.5531"/>
</g>
<!-- Node10 -->
<g id="node21" class="node"><title>Node10</title>
<a xlink:href="../../db/d52/tide_8c.xhtml#aa8fd833b89760ca87a163163aae14187" target="_top" xlink:title="timeFromMinutes">
<polygon fill="white" stroke="black" points="107,-21.9812 107,-40.9812 199,-40.9812 199,-21.9812 107,-21.9812"/>
<text text-anchor="middle" x="153" y="-28.9812" font-family="Helvetica,sans-Serif" font-size="10.00">timeFromMinutes</text>
</a>
</g>
<!-- Node1&#45;&gt;Node10 -->
<g id="edge22" class="edge"><title>Node1&#45;&gt;Node10</title>
<path fill="none" stroke="midnightblue" d="M44.5385,-97.9164C57.2122,-85.6245 80.7235,-64.2345 104,-50.4812 107.238,-48.5678 110.705,-46.7711 114.238,-45.1042"/>
<polygon fill="midnightblue" stroke="midnightblue" points="115.868,-48.2116 123.634,-41.0044 113.069,-41.7958 115.868,-48.2116"/>
</g>
<!-- Node11 -->
<g id="node24" class="node"><title>Node11</title>
<a xlink:href="../../db/d52/tide_8c.xhtml#ac19d24cc6cc0121e720da442159a050e" target="_top" xlink:title="blinkCol">
<polygon fill="white" stroke="black" points="127,-135.981 127,-154.981 179,-154.981 179,-135.981 127,-135.981"/>
<text text-anchor="middle" x="153" y="-142.981" font-family="Helvetica,sans-Serif" font-size="10.00">blinkCol</text>
</a>
</g>
<!-- Node1&#45;&gt;Node11 -->
<g id="edge26" class="edge"><title>Node1&#45;&gt;Node11</title>
<path fill="none" stroke="midnightblue" d="M64.524,-117.07C80.4453,-122.241 100.197,-128.656 116.901,-134.082"/>
<polygon fill="midnightblue" stroke="midnightblue" points="116.255,-137.552 126.847,-137.312 118.417,-130.894 116.255,-137.552"/>
</g>
<!-- Node2&#45;&gt;Node3 -->
<g id="edge4" class="edge"><title>Node2&#45;&gt;Node3</title>
<path fill="none" stroke="midnightblue" d="M190.155,-183.481C202.911,-183.481 217.458,-183.481 231.037,-183.481"/>
<polygon fill="midnightblue" stroke="midnightblue" points="231.186,-186.981 241.186,-183.481 231.186,-179.981 231.186,-186.981"/>
</g>
<!-- Node2&#45;&gt;Node7 -->
<g id="edge12" class="edge"><title>Node2&#45;&gt;Node7</title>
<path fill="none" stroke="midnightblue" d="M185.543,-173.892C201.383,-169.077 220.773,-163.182 237.776,-158.013"/>
<polygon fill="midnightblue" stroke="midnightblue" points="238.918,-161.324 247.467,-155.067 236.882,-154.627 238.918,-161.324"/>
</g>
<!-- Node4 -->
<g id="node7" class="node"><title>Node4</title>
<a xlink:href="../../db/d85/display_8c.xhtml#a3ae30196af91197037d50cb49de1d109" target="_top" xlink:title="Displays a single character.">
<polygon fill="white" stroke="black" points="358.5,-173.981 358.5,-192.981 429.5,-192.981 429.5,-173.981 358.5,-173.981"/>
<text text-anchor="middle" x="394" y="-180.981" font-family="Helvetica,sans-Serif" font-size="10.00">display_char</text>
</a>
</g>
<!-- Node3&#45;&gt;Node4 -->
<g id="edge6" class="edge"><title>Node3&#45;&gt;Node4</title>
<path fill="none" stroke="midnightblue" d="M318.606,-183.481C328.133,-183.481 338.46,-183.481 348.301,-183.481"/>
<polygon fill="midnightblue" stroke="midnightblue" points="348.326,-186.981 358.326,-183.481 348.326,-179.981 348.326,-186.981"/>
</g>
<!-- Node5 -->
<g id="node9" class="node"><title>Node5</title>
<a xlink:href="../../db/d85/display_8c.xhtml#a9275035317878022cf9eacf6b0a5be72" target="_top" xlink:title="Display a custom collection of segments.">
<polygon fill="white" stroke="black" points="466,-173.981 466,-192.981 534,-192.981 534,-173.981 466,-173.981"/>
<text text-anchor="middle" x="500" y="-180.981" font-family="Helvetica,sans-Serif" font-size="10.00">display_bits</text>
</a>
</g>
<!-- Node4&#45;&gt;Node5 -->
<g id="edge8" class="edge"><title>Node4&#45;&gt;Node5</title>
<path fill="none" stroke="midnightblue" d="M429.63,-183.481C438.04,-183.481 447.133,-183.481 455.882,-183.481"/>
<polygon fill="midnightblue" stroke="midnightblue" points="455.931,-186.981 465.931,-183.481 455.931,-179.981 455.931,-186.981"/>
</g>
<!-- Node6 -->
<g id="node11" class="node"><title>Node6</title>
<a xlink:href="../../db/d85/display_8c.xhtml#a710739913e8ea1b71dd433b8311211fd" target="_top" xlink:title="write_lcd_mem">
<polygon fill="white" stroke="black" points="570.5,-154.981 570.5,-173.981 653.5,-173.981 653.5,-154.981 570.5,-154.981"/>
<text text-anchor="middle" x="612" y="-161.981" font-family="Helvetica,sans-Serif" font-size="10.00">write_lcd_mem</text>
</a>
</g>
<!-- Node5&#45;&gt;Node6 -->
<g id="edge10" class="edge"><title>Node5&#45;&gt;Node6</title>
<path fill="none" stroke="midnightblue" d="M534.004,-177.781C542.28,-176.351 551.352,-174.784 560.273,-173.243"/>
<polygon fill="midnightblue" stroke="midnightblue" points="560.972,-176.674 570.231,-171.523 559.781,-169.776 560.972,-176.674"/>
</g>
<!-- Node7&#45;&gt;Node6 -->
<g id="edge14" class="edge"><title>Node7&#45;&gt;Node6</title>
<path fill="none" stroke="midnightblue" d="M322.127,-147.849C382.481,-151.324 494.942,-157.799 560.318,-161.563"/>
<polygon fill="midnightblue" stroke="midnightblue" points="560.206,-165.062 570.391,-162.143 560.609,-158.074 560.206,-165.062"/>
</g>
<!-- Node8&#45;&gt;Node9 -->
<g id="edge18" class="edge"><title>Node8&#45;&gt;Node9</title>
<path fill="none" stroke="midnightblue" d="M185.543,-59.8922C201.383,-55.0768 220.773,-49.1824 237.776,-44.0132"/>
<polygon fill="midnightblue" stroke="midnightblue" points="238.918,-47.3245 247.467,-41.0672 236.882,-40.6271 238.918,-47.3245"/>
</g>
<!-- Node11&#45;&gt;Node7 -->
<g id="edge28" class="edge"><title>Node11&#45;&gt;Node7</title>
<path fill="none" stroke="midnightblue" d="M179.296,-145.481C193.238,-145.481 211.064,-145.481 227.777,-145.481"/>
<polygon fill="midnightblue" stroke="midnightblue" points="227.995,-148.981 237.995,-145.481 227.995,-141.981 227.995,-148.981"/>
</g>
</g>
</svg>
        <g id="navigator" transform="translate(0 0)" fill="#404254">
                <rect fill="#f2f5e9" fill-opacity="0.5" stroke="#606060" stroke-width=".5" x="0" y="0" width="60" height="60"/>
                <use id="zoomplus" xlink:href="#zoomPlus" x="17" y="9" onmousedown="handleZoom(evt,'in')"/>
                <use id="zoomminus" xlink:href="#zoomMin" x="42" y="9" onmousedown="handleZoom(evt,'out')"/>
                <use id="reset" xlink:href="#resetDef" x="30" y="36" onmousedown="handleReset()"/>
                <g id="arrowUp" xlink:href="#dirArrow" transform="translate(30 24)" onmousedown="handlePan(0,-1)">
                  <use xlink:href="#rim" fill="#404040">
                        <set attributeName="fill" to="#808080" begin="arrowUp.mouseover" end="arrowUp.mouseout"/>
                  </use>
                  <path fill="none" stroke="white" stroke-width="1.5" d="M0,-3.0v7 M-2.5,-0.5L0,-3.0L2.5,-0.5"/>
                </g>
                <g id="arrowRight" xlink:href="#dirArrow" transform="rotate(90) translate(36 -43)" onmousedown="handlePan(1,0)">
                  <use xlink:href="#rim" fill="#404040">
                        <set attributeName="fill" to="#808080" begin="arrowRight.mouseover" end="arrowRight.mouseout"/>
                  </use>
                  <path fill="none" stroke="white" stroke-width="1.5" d="M0,-3.0v7 M-2.5,-0.5L0,-3.0L2.5,-0.5"/>
                </g>
                <g id="arrowDown" xlink:href="#dirArrow" transform="rotate(180) translate(-30 -48)" onmousedown="handlePan(0,1)">
                  <use xlink:href="#rim" fill="#404040">
                        <set attributeName="fill" to="#808080" begin="arrowDown.mouseover" end="arrowDown.mouseout"/>
                  </use>
                  <path fill="none" stroke="white" stroke-width="1.5" d="M0,-3.0v7 M-2.5,-0.5L0,-3.0L2.5,-0.5"/>
                </g>
                <g id="arrowLeft" xlink:href="#dirArrow" transform="rotate(270) translate(-36 17)" onmousedown="handlePan(-1,0)">
                  <use xlink:href="#rim" fill="#404040">
                        <set attributeName="fill" to="#808080" begin="arrowLeft.mouseover" end="arrowLeft.mouseout"/>
                  </use>
                  <path fill="none" stroke="white" stroke-width="1.5" d="M0,-3.0v7 M-2.5,-0.5L0,-3.0L2.5,-0.5"/>
                </g>
        </g>
        <svg viewBox="0 0 15 15" width="100%" height="30px" preserveAspectRatio="xMaxYMin meet">
         <g id="arrow_out" transform="scale(0.3 0.3)">
          <a xlink:href="tide_8c_add9c243943294a693b79fd92d6cfc99c_cgraph_org.svg" target="_base">
           <rect id="button" ry="5" rx="5" y="6" x="6" height="38" width="38"
                fill="#f2f5e9" fill-opacity="0.5" stroke="#606060" stroke-width="1.0"/>
           <path id="arrow"
             d="M 11.500037,31.436501 C 11.940474,20.09759 22.043105,11.32322 32.158766,21.979434 L 37.068811,17.246167 C 37.068811,17.246167 37.088388,32 37.088388,32 L 22.160133,31.978069 C 22.160133,31.978069 26.997745,27.140456 26.997745,27.140456 C 18.528582,18.264221 13.291696,25.230495 11.500037,31.436501 z"
             style="fill:#404040;"/>
          </a>
         </g>
        </svg>
</svg>
