<?xml version="1.0" encoding="UTF-8" standalone="no"?>
<!DOCTYPE svg PUBLIC "-//W3C//DTD SVG 1.1//EN"
 "http://www.w3.org/Graphics/SVG/1.1/DTD/svg11.dtd">
<!-- Generated by graphviz version 2.28.0 (20121221.0049)
 -->
<!-- Title: endEditing Pages: 1 -->
<!--zoomable 271 -->
<svg id="main" version="1.1" xmlns="http://www.w3.org/2000/svg" xmlns:xlink="http://www.w3.org/1999/xlink" xml:space="preserve" onload="init(evt)">
        <defs>
                <circle id="rim" cx="0" cy="0" r="7"/>
                <circle id="rim2" cx="0" cy="0" r="3.5"/>
                <g id="zoomPlus">
                        <use xlink:href="#rim" fill="#404040">
                                <set attributeName="fill" to="#808080" begin="zoomplus.mouseover" end="zoomplus.mouseout"/>
                        </use>
                        <path d="M-4,0h8M0,-4v8" fill="none" stroke="white" stroke-width="1.5" pointer-events="none"/>
                </g>
                <g id="zoomMin">
                        <use xlink:href="#rim" fill="#404040">
                                <set attributeName="fill" to="#808080" begin="zoomminus.mouseover" end="zoomminus.mouseout"/>
                        </use>
                        <path d="M-4,0h8" fill="none" stroke="white" stroke-width="1.5" pointer-events="none"/>
                </g>
                <g id="dirArrow">
                        <path fill="none" stroke="white" stroke-width="1.5" d="M0,-3.0v7 M-2.5,-0.5L0,-3.0L2.5,-0.5"/>
                </g>
               <g id="resetDef">
                       <use xlink:href="#rim2" fill="#404040">
                               <set attributeName="fill" to="#808080" begin="reset.mouseover" end="reset.mouseout"/>
                       </use>
               </g>
        </defs>

<script type="text/javascript">
var viewWidth = 760;
var viewHeight = 271;
var sectionId = 'dynsection-13';
</script>
<script xlink:href="../../svgpan.js"/>
<svg id="graph" class="graph">
<g id="viewport">
<title>endEditing</title>
<polygon fill="white" stroke="white" points="-4,5 -4,-266.806 757,-266.806 757,5 -4,5"/>
<!-- Node1 -->
<g id="node1" class="node"><title>Node1</title>
<polygon fill="#bfbfbf" stroke="black" points="0,-190.5 0,-209.5 62,-209.5 62,-190.5 0,-190.5"/>
<text text-anchor="middle" x="31" y="-197.5" font-family="Helvetica,sans-Serif" font-size="10.00">endEditing</text>
</g>
<!-- Node2 -->
<g id="node3" class="node"><title>Node2</title>
<a xlink:href="../../db/d52/tide_8c.xhtml#ab6741cd0eea258802916a855f36f8e55" target="_top" xlink:title="timeInMinutes">
<polygon fill="white" stroke="black" points="339,-228.5 339,-247.5 417,-247.5 417,-228.5 339,-228.5"/>
<text text-anchor="middle" x="378" y="-235.5" font-family="Helvetica,sans-Serif" font-size="10.00">timeInMinutes</text>
</a>
</g>
<!-- Node1&#45;&gt;Node2 -->
<g id="edge2" class="edge"><title>Node1&#45;&gt;Node2</title>
<path fill="none" stroke="midnightblue" d="M48.3363,-209.537C61.4079,-216.827 80.3997,-226.671 98,-233 183.075,-263.595 210.251,-267.909 300,-257 311.84,-255.561 324.484,-252.92 336.032,-250.056"/>
<polygon fill="midnightblue" stroke="midnightblue" points="337.051,-253.407 345.85,-247.506 335.291,-246.632 337.051,-253.407"/>
</g>
<!-- Node3 -->
<g id="node5" class="node"><title>Node3</title>
<a xlink:href="../../db/d52/tide_8c.xhtml#adcd9a1bde3289e795b11fdcf0276aead" target="_top" xlink:title="timeNowInMinutes">
<polygon fill="white" stroke="black" points="202,-228.5 202,-247.5 300,-247.5 300,-228.5 202,-228.5"/>
<text text-anchor="middle" x="251" y="-235.5" font-family="Helvetica,sans-Serif" font-size="10.00">timeNowInMinutes</text>
</a>
</g>
<!-- Node1&#45;&gt;Node3 -->
<g id="edge4" class="edge"><title>Node1&#45;&gt;Node3</title>
<path fill="none" stroke="midnightblue" d="M62.1619,-206.745C73.3875,-209.164 86.2515,-211.828 98,-214 128.884,-219.71 163.458,-225.237 191.82,-229.545"/>
<polygon fill="midnightblue" stroke="midnightblue" points="191.559,-233.045 201.969,-231.075 192.603,-226.123 191.559,-233.045"/>
</g>
<!-- Node4 -->
<g id="node8" class="node"><title>Node4</title>
<a xlink:href="../../db/d52/tide_8c.xhtml#aa8fd833b89760ca87a163163aae14187" target="_top" xlink:title="timeFromMinutes">
<polygon fill="white" stroke="black" points="205,-190.5 205,-209.5 297,-209.5 297,-190.5 205,-190.5"/>
<text text-anchor="middle" x="251" y="-197.5" font-family="Helvetica,sans-Serif" font-size="10.00">timeFromMinutes</text>
</a>
</g>
<!-- Node1&#45;&gt;Node4 -->
<g id="edge8" class="edge"><title>Node1&#45;&gt;Node4</title>
<path fill="none" stroke="midnightblue" d="M62.312,-200C96.4657,-200 152.69,-200 194.712,-200"/>
<polygon fill="midnightblue" stroke="midnightblue" points="194.797,-203.5 204.797,-200 194.797,-196.5 194.797,-203.5"/>
</g>
<!-- Node5 -->
<g id="node10" class="node"><title>Node5</title>
<a xlink:href="../../db/d85/display_8c.xhtml#aa150336a018e90f37fd0285047b541f6" target="_top" xlink:title="Clears the screen.">
<polygon fill="white" stroke="black" points="214,-0.5 214,-19.5 288,-19.5 288,-0.5 214,-0.5"/>
<text text-anchor="middle" x="251" y="-7.5" font-family="Helvetica,sans-Serif" font-size="10.00">display_clear</text>
</a>
</g>
<!-- Node1&#45;&gt;Node5 -->
<g id="edge10" class="edge"><title>Node1&#45;&gt;Node5</title>
<path fill="none" stroke="midnightblue" d="M39.3293,-190.3C50.9241,-175.263 74.5921,-145.789 98,-124 140.193,-84.7249 195.609,-45.9494 226.536,-25.2922"/>
<polygon fill="midnightblue" stroke="midnightblue" points="228.54,-28.1631 234.942,-19.7215 224.673,-22.328 228.54,-28.1631"/>
</g>
<!-- Node11 -->
<g id="node23" class="node"><title>Node11</title>
<a xlink:href="../../db/d52/tide_8c.xhtml#add9c243943294a693b79fd92d6cfc99c" target="_top" xlink:title="drawScreen">
<polygon fill="white" stroke="black" points="98,-133.5 98,-152.5 166,-152.5 166,-133.5 98,-133.5"/>
<text text-anchor="middle" x="132" y="-140.5" font-family="Helvetica,sans-Serif" font-size="10.00">drawScreen</text>
</a>
</g>
<!-- Node1&#45;&gt;Node11 -->
<g id="edge24" class="edge"><title>Node1&#45;&gt;Node11</title>
<path fill="none" stroke="midnightblue" d="M48.794,-190.331C64.3905,-181.351 87.828,-167.857 105.692,-157.571"/>
<polygon fill="midnightblue" stroke="midnightblue" points="107.534,-160.549 114.454,-152.526 104.041,-154.483 107.534,-160.549"/>
</g>
<!-- Node3&#45;&gt;Node2 -->
<g id="edge6" class="edge"><title>Node3&#45;&gt;Node2</title>
<path fill="none" stroke="midnightblue" d="M300.328,-238C309.613,-238 319.337,-238 328.623,-238"/>
<polygon fill="midnightblue" stroke="midnightblue" points="328.874,-241.5 338.874,-238 328.874,-234.5 328.874,-241.5"/>
</g>
<!-- Node6 -->
<g id="node12" class="node"><title>Node6</title>
<a xlink:href="../../db/d85/display_8c.xhtml#a6f2d5cdda31a73b43a569cb3d1a64165" target="_top" xlink:title="Displays several consecutive characters.">
<polygon fill="white" stroke="black" points="339.5,-38.5 339.5,-57.5 416.5,-57.5 416.5,-38.5 339.5,-38.5"/>
<text text-anchor="middle" x="378" y="-45.5" font-family="Helvetica,sans-Serif" font-size="10.00">display_chars</text>
</a>
</g>
<!-- Node5&#45;&gt;Node6 -->
<g id="edge12" class="edge"><title>Node5&#45;&gt;Node6</title>
<path fill="none" stroke="midnightblue" d="M283.543,-19.589C299.383,-24.4044 318.773,-30.2988 335.776,-35.468"/>
<polygon fill="midnightblue" stroke="midnightblue" points="334.882,-38.8541 345.467,-38.4141 336.918,-32.1567 334.882,-38.8541"/>
</g>
<!-- Node10 -->
<g id="node20" class="node"><title>Node10</title>
<a xlink:href="../../db/d85/display_8c.xhtml#af604e78dcc4e0f1a204b2180c5e54957" target="_top" xlink:title="Displays a symbol.">
<polygon fill="white" stroke="black" points="336,-76.5 336,-95.5 420,-95.5 420,-76.5 336,-76.5"/>
<text text-anchor="middle" x="378" y="-83.5" font-family="Helvetica,sans-Serif" font-size="10.00">display_symbol</text>
</a>
</g>
<!-- Node5&#45;&gt;Node10 -->
<g id="edge20" class="edge"><title>Node5&#45;&gt;Node10</title>
<path fill="none" stroke="midnightblue" d="M264.676,-19.5604C280.769,-31.47 309.62,-52.0677 336,-67 339.028,-68.7137 342.236,-70.4038 345.473,-72.027"/>
<polygon fill="midnightblue" stroke="midnightblue" points="344.011,-75.2077 354.54,-76.3888 347.046,-68.8997 344.011,-75.2077"/>
</g>
<!-- Node7 -->
<g id="node14" class="node"><title>Node7</title>
<a xlink:href="../../db/d85/display_8c.xhtml#a3ae30196af91197037d50cb49de1d109" target="_top" xlink:title="Displays a single character.">
<polygon fill="white" stroke="black" points="456.5,-38.5 456.5,-57.5 527.5,-57.5 527.5,-38.5 456.5,-38.5"/>
<text text-anchor="middle" x="492" y="-45.5" font-family="Helvetica,sans-Serif" font-size="10.00">display_char</text>
</a>
</g>
<!-- Node6&#45;&gt;Node7 -->
<g id="edge14" class="edge"><title>Node6&#45;&gt;Node7</title>
<path fill="none" stroke="midnightblue" d="M416.606,-48C426.133,-48 436.46,-48 446.301,-48"/>
<polygon fill="midnightblue" stroke="midnightblue" points="446.326,-51.5001 456.326,-48 446.326,-44.5001 446.326,-51.5001"/>
</g>
<!-- Node8 -->
<g id="node16" class="node"><title>Node8</title>
<a xlink:href="../../db/d85/display_8c.xhtml#a9275035317878022cf9eacf6b0a5be72" target="_top" xlink:title="Display a custom collection of segments.">
<polygon fill="white" stroke="black" points="564,-38.5 564,-57.5 632,-57.5 632,-38.5 564,-38.5"/>
<text text-anchor="middle" x="598" y="-45.5" font-family="Helvetica,sans-Serif" font-size="10.00">display_bits</text>
</a>
</g>
<!-- Node7&#45;&gt;Node8 -->
<g id="edge16" class="edge"><title>Node7&#45;&gt;Node8</title>
<path fill="none" stroke="midnightblue" d="M527.63,-48C536.04,-48 545.133,-48 553.882,-48"/>
<polygon fill="midnightblue" stroke="midnightblue" points="553.931,-51.5001 563.931,-48 553.931,-44.5001 553.931,-51.5001"/>
</g>
<!-- Node9 -->
<g id="node18" class="node"><title>Node9</title>
<a xlink:href="../../db/d85/display_8c.xhtml#a710739913e8ea1b71dd433b8311211fd" target="_top" xlink:title="write_lcd_mem">
<polygon fill="white" stroke="black" points="668.5,-57.5 668.5,-76.5 751.5,-76.5 751.5,-57.5 668.5,-57.5"/>
<text text-anchor="middle" x="710" y="-64.5" font-family="Helvetica,sans-Serif" font-size="10.00">write_lcd_mem</text>
</a>
</g>
<!-- Node8&#45;&gt;Node9 -->
<g id="edge18" class="edge"><title>Node8&#45;&gt;Node9</title>
<path fill="none" stroke="midnightblue" d="M632.004,-53.7006C640.28,-55.1302 649.352,-56.6971 658.273,-58.238"/>
<polygon fill="midnightblue" stroke="midnightblue" points="657.781,-61.7048 668.231,-59.958 658.972,-54.8069 657.781,-61.7048"/>
</g>
<!-- Node10&#45;&gt;Node9 -->
<g id="edge22" class="edge"><title>Node10&#45;&gt;Node9</title>
<path fill="none" stroke="midnightblue" d="M420.127,-83.6321C480.481,-80.1572 592.942,-73.6821 658.318,-69.9181"/>
<polygon fill="midnightblue" stroke="midnightblue" points="658.609,-73.4072 668.391,-69.3381 658.206,-66.4188 658.609,-73.4072"/>
</g>
<!-- Node11&#45;&gt;Node2 -->
<g id="edge30" class="edge"><title>Node11&#45;&gt;Node2</title>
<path fill="none" stroke="midnightblue" d="M166.307,-146.477C200.978,-151.021 256.225,-160.898 300,-181 322.238,-191.212 344.347,-208.512 359.131,-221.381"/>
<polygon fill="midnightblue" stroke="midnightblue" points="357.147,-224.302 366.935,-228.359 361.813,-219.084 357.147,-224.302"/>
</g>
<!-- Node11&#45;&gt;Node3 -->
<g id="edge28" class="edge"><title>Node11&#45;&gt;Node3</title>
<path fill="none" stroke="midnightblue" d="M139.541,-152.709C150.668,-168.566 174.741,-200.14 202,-219 204.69,-220.861 207.589,-222.578 210.582,-224.154"/>
<polygon fill="midnightblue" stroke="midnightblue" points="209.193,-227.368 219.731,-228.461 212.174,-221.035 209.193,-227.368"/>
</g>
<!-- Node11&#45;&gt;Node4 -->
<g id="edge32" class="edge"><title>Node11&#45;&gt;Node4</title>
<path fill="none" stroke="midnightblue" d="M152.583,-152.541C171.312,-161.665 199.781,-175.534 221.114,-185.927"/>
<polygon fill="midnightblue" stroke="midnightblue" points="219.83,-189.195 230.353,-190.428 222.896,-182.902 219.83,-189.195"/>
</g>
<!-- Node11&#45;&gt;Node5 -->
<g id="edge26" class="edge"><title>Node11&#45;&gt;Node5</title>
<path fill="none" stroke="midnightblue" d="M136.955,-133.33C145.818,-112.68 169.105,-63.7388 202,-34 205.959,-30.421 210.549,-27.242 215.29,-24.4633"/>
<polygon fill="midnightblue" stroke="midnightblue" points="217.262,-27.3803 224.467,-19.6129 213.991,-21.1915 217.262,-27.3803"/>
</g>
<!-- Node11&#45;&gt;Node6 -->
<g id="edge40" class="edge"><title>Node11&#45;&gt;Node6</title>
<path fill="none" stroke="midnightblue" d="M141.295,-133.341C153.286,-120.04 176.801,-96.3332 202,-84 242.191,-64.3292 292.657,-55.3962 329.054,-51.3456"/>
<polygon fill="midnightblue" stroke="midnightblue" points="329.809,-54.7867 339.399,-50.2832 329.093,-47.8233 329.809,-54.7867"/>
</g>
<!-- Node11&#45;&gt;Node10 -->
<g id="edge34" class="edge"><title>Node11&#45;&gt;Node10</title>
<path fill="none" stroke="midnightblue" d="M146.534,-133.417C159.941,-124.455 181.395,-111.505 202,-105 242.317,-92.2729 290.166,-87.7526 325.632,-86.286"/>
<polygon fill="midnightblue" stroke="midnightblue" points="325.88,-89.7796 335.753,-85.936 325.638,-82.7838 325.88,-89.7796"/>
</g>
<!-- Node12 -->
<g id="node30" class="node"><title>Node12</title>
<a xlink:href="../../db/d52/tide_8c.xhtml#ac19d24cc6cc0121e720da442159a050e" target="_top" xlink:title="blinkCol">
<polygon fill="white" stroke="black" points="225,-114.5 225,-133.5 277,-133.5 277,-114.5 225,-114.5"/>
<text text-anchor="middle" x="251" y="-121.5" font-family="Helvetica,sans-Serif" font-size="10.00">blinkCol</text>
</a>
</g>
<!-- Node11&#45;&gt;Node12 -->
<g id="edge36" class="edge"><title>Node11&#45;&gt;Node12</title>
<path fill="none" stroke="midnightblue" d="M166.215,-137.606C181.365,-135.146 199.317,-132.231 214.71,-129.731"/>
<polygon fill="midnightblue" stroke="midnightblue" points="215.582,-133.135 224.892,-128.077 214.46,-126.226 215.582,-133.135"/>
</g>
<!-- Node12&#45;&gt;Node10 -->
<g id="edge38" class="edge"><title>Node12&#45;&gt;Node10</title>
<path fill="none" stroke="midnightblue" d="M277.296,-116.31C294.062,-111.213 316.446,-104.408 335.756,-98.5382"/>
<polygon fill="midnightblue" stroke="midnightblue" points="336.978,-101.825 345.528,-95.5675 334.942,-95.1275 336.978,-101.825"/>
</g>
</g>
</svg>
        <g id="navigator" transform="translate(0 0)" fill="#404254">
                <rect fill="#f2f5e9" fill-opacity="0.5" stroke="#606060" stroke-width=".5" x="0" y="0" width="60" height="60"/>
                <use id="zoomplus" xlink:href="#zoomPlus" x="17" y="9" onmousedown="handleZoom(evt,'in')"/>
                <use id="zoomminus" xlink:href="#zoomMin" x="42" y="9" onmousedown="handleZoom(evt,'out')"/>
                <use id="reset" xlink:href="#resetDef" x="30" y="36" onmousedown="handleReset()"/>
                <g id="arrowUp" xlink:href="#dirArrow" transform="translate(30 24)" onmousedown="handlePan(0,-1)">
                  <use xlink:href="#rim" fill="#404040">
                        <set attributeName="fill" to="#808080" begin="arrowUp.mouseover" end="arrowUp.mouseout"/>
                  </use>
                  <path fill="none" stroke="white" stroke-width="1.5" d="M0,-3.0v7 M-2.5,-0.5L0,-3.0L2.5,-0.5"/>
                </g>
                <g id="arrowRight" xlink:href="#dirArrow" transform="rotate(90) translate(36 -43)" onmousedown="handlePan(1,0)">
                  <use xlink:href="#rim" fill="#404040">
                        <set attributeName="fill" to="#808080" begin="arrowRight.mouseover" end="arrowRight.mouseout"/>
                  </use>
                  <path fill="none" stroke="white" stroke-width="1.5" d="M0,-3.0v7 M-2.5,-0.5L0,-3.0L2.5,-0.5"/>
                </g>
                <g id="arrowDown" xlink:href="#dirArrow" transform="rotate(180) translate(-30 -48)" onmousedown="handlePan(0,1)">
                  <use xlink:href="#rim" fill="#404040">
                        <set attributeName="fill" to="#808080" begin="arrowDown.mouseover" end="arrowDown.mouseout"/>
                  </use>
                  <path fill="none" stroke="white" stroke-width="1.5" d="M0,-3.0v7 M-2.5,-0.5L0,-3.0L2.5,-0.5"/>
                </g>
                <g id="arrowLeft" xlink:href="#dirArrow" transform="rotate(270) translate(-36 17)" onmousedown="handlePan(-1,0)">
                  <use xlink:href="#rim" fill="#404040">
                        <set attributeName="fill" to="#808080" begin="arrowLeft.mouseover" end="arrowLeft.mouseout"/>
                  </use>
                  <path fill="none" stroke="white" stroke-width="1.5" d="M0,-3.0v7 M-2.5,-0.5L0,-3.0L2.5,-0.5"/>
                </g>
        </g>
        <svg viewBox="0 0 15 15" width="100%" height="30px" preserveAspectRatio="xMaxYMin meet">
         <g id="arrow_out" transform="scale(0.3 0.3)">
          <a xlink:href="tide_8c_a2765e984b5f8ae1aed6650d6dc444707_cgraph_org.svg" target="_base">
           <rect id="button" ry="5" rx="5" y="6" x="6" height="38" width="38"
                fill="#f2f5e9" fill-opacity="0.5" stroke="#606060" stroke-width="1.0"/>
           <path id="arrow"
             d="M 11.500037,31.436501 C 11.940474,20.09759 22.043105,11.32322 32.158766,21.979434 L 37.068811,17.246167 C 37.068811,17.246167 37.088388,32 37.088388,32 L 22.160133,31.978069 C 22.160133,31.978069 26.997745,27.140456 26.997745,27.140456 C 18.528582,18.264221 13.291696,25.230495 11.500037,31.436501 z"
             style="fill:#404040;"/>
          </a>
         </g>
        </svg>
</svg>
