<?xml version="1.0" encoding="UTF-8" standalone="no"?>
<!DOCTYPE svg PUBLIC "-//W3C//DTD SVG 1.1//EN"
 "http://www.w3.org/Graphics/SVG/1.1/DTD/svg11.dtd">
<!-- Generated by graphviz version 2.28.0 (20121221.0049)
 -->
<!-- Title: buttonDown Pages: 1 -->
<svg width="804pt" height="294pt"
 viewBox="0.00 0.00 804.00 294.00" xmlns="http://www.w3.org/2000/svg" xmlns:xlink="http://www.w3.org/1999/xlink">
<g id="graph1" class="graph" transform="scale(1 1) rotate(0) translate(4 290)">
<title>buttonDown</title>
<polygon fill="white" stroke="white" points="-4,5 -4,-290 801,-290 801,5 -4,5"/>
<!-- Node1 -->
<g id="node1" class="node"><title>Node1</title>
<polygon fill="#bfbfbf" stroke="black" points="0.5,-180.5 0.5,-199.5 69.5,-199.5 69.5,-180.5 0.5,-180.5"/>
<text text-anchor="middle" x="35" y="-187.5" font-family="Helvetica,sans-Serif" font-size="10.00">buttonDown</text>
</g>
<!-- Node2 -->
<g id="node3" class="node"><title>Node2</title>
<a xlink:href="../../db/d85/display_8c.xhtml#a0e030727a1bc4d1418bb96cc71350203" target="_top" xlink:title="Activates a virtual screen.">
<polygon fill="white" stroke="black" points="106,-228.5 106,-247.5 210,-247.5 210,-228.5 106,-228.5"/>
<text text-anchor="middle" x="158" y="-235.5" font-family="Helvetica,sans-Serif" font-size="10.00">lcd_screen_activate</text>
</a>
</g>
<!-- Node1&#45;&gt;Node2 -->
<g id="edge2" class="edge"><title>Node1&#45;&gt;Node2</title>
<path fill="none" stroke="midnightblue" d="M60.1953,-199.598C78.3314,-206.793 103.374,-216.727 123.445,-224.689"/>
<polygon fill="midnightblue" stroke="midnightblue" points="122.261,-227.984 132.847,-228.418 124.842,-221.478 122.261,-227.984"/>
</g>
<!-- Node4 -->
<g id="node7" class="node"><title>Node4</title>
<a xlink:href="../../db/d52/tide_8c.xhtml#add9c243943294a693b79fd92d6cfc99c" target="_top" xlink:title="drawScreen">
<polygon fill="white" stroke="black" points="124,-133.5 124,-152.5 192,-152.5 192,-133.5 124,-133.5"/>
<text text-anchor="middle" x="158" y="-140.5" font-family="Helvetica,sans-Serif" font-size="10.00">drawScreen</text>
</a>
</g>
<!-- Node1&#45;&gt;Node4 -->
<g id="edge6" class="edge"><title>Node1&#45;&gt;Node4</title>
<path fill="none" stroke="midnightblue" d="M60.4862,-180.489C78.3268,-173.559 102.737,-164.077 122.544,-156.384"/>
<polygon fill="midnightblue" stroke="midnightblue" points="124.081,-159.542 132.135,-152.658 121.546,-153.017 124.081,-159.542"/>
</g>
<!-- Node3 -->
<g id="node5" class="node"><title>Node3</title>
<a xlink:href="../../d2/df2/openchronos_8c.xhtml#a72f5591868e0c66a539eacdcd0b520d7" target="_top" xlink:title="Increment/decrements value by one without exiting the [lower, upper] interval.">
<polygon fill="white" stroke="black" points="259.5,-266.5 259.5,-285.5 330.5,-285.5 330.5,-266.5 259.5,-266.5"/>
<text text-anchor="middle" x="295" y="-273.5" font-family="Helvetica,sans-Serif" font-size="10.00">helpers_loop</text>
</a>
</g>
<!-- Node2&#45;&gt;Node3 -->
<g id="edge4" class="edge"><title>Node2&#45;&gt;Node3</title>
<path fill="none" stroke="midnightblue" d="M193.066,-247.589C210.413,-252.472 231.702,-258.464 250.249,-263.685"/>
<polygon fill="midnightblue" stroke="midnightblue" points="249.37,-267.074 259.945,-266.414 251.267,-260.335 249.37,-267.074"/>
</g>
<!-- Node5 -->
<g id="node9" class="node"><title>Node5</title>
<a xlink:href="../../db/d85/display_8c.xhtml#aa150336a018e90f37fd0285047b541f6" target="_top" xlink:title="Clears the screen.">
<polygon fill="white" stroke="black" points="258,-190.5 258,-209.5 332,-209.5 332,-190.5 258,-190.5"/>
<text text-anchor="middle" x="295" y="-197.5" font-family="Helvetica,sans-Serif" font-size="10.00">display_clear</text>
</a>
</g>
<!-- Node4&#45;&gt;Node5 -->
<g id="edge8" class="edge"><title>Node4&#45;&gt;Node5</title>
<path fill="none" stroke="midnightblue" d="M180.363,-152.579C197.92,-160.391 223.479,-171.628 246,-181 250.52,-182.881 255.296,-184.824 260.014,-186.718"/>
<polygon fill="midnightblue" stroke="midnightblue" points="258.929,-190.053 269.515,-190.498 261.517,-183.549 258.929,-190.053"/>
</g>
<!-- Node6 -->
<g id="node11" class="node"><title>Node6</title>
<a xlink:href="../../db/d85/display_8c.xhtml#a6f2d5cdda31a73b43a569cb3d1a64165" target="_top" xlink:title="Displays several consecutive characters.">
<polygon fill="white" stroke="black" points="383.5,-190.5 383.5,-209.5 460.5,-209.5 460.5,-190.5 383.5,-190.5"/>
<text text-anchor="middle" x="422" y="-197.5" font-family="Helvetica,sans-Serif" font-size="10.00">display_chars</text>
</a>
</g>
<!-- Node4&#45;&gt;Node6 -->
<g id="edge36" class="edge"><title>Node4&#45;&gt;Node6</title>
<path fill="none" stroke="midnightblue" d="M166.042,-152.608C179.359,-169.86 210.136,-205.541 246,-219 292.553,-236.47 350.62,-224.059 386.761,-212.692"/>
<polygon fill="midnightblue" stroke="midnightblue" points="387.94,-215.989 396.346,-209.54 385.753,-209.339 387.94,-215.989"/>
</g>
<!-- Node10 -->
<g id="node19" class="node"><title>Node10</title>
<a xlink:href="../../db/d85/display_8c.xhtml#af604e78dcc4e0f1a204b2180c5e54957" target="_top" xlink:title="Displays a symbol.">
<polygon fill="white" stroke="black" points="380,-152.5 380,-171.5 464,-171.5 464,-152.5 380,-152.5"/>
<text text-anchor="middle" x="422" y="-159.5" font-family="Helvetica,sans-Serif" font-size="10.00">display_symbol</text>
</a>
</g>
<!-- Node4&#45;&gt;Node10 -->
<g id="edge30" class="edge"><title>Node4&#45;&gt;Node10</title>
<path fill="none" stroke="midnightblue" d="M192.23,-140.595C229.373,-138.465 291.233,-136.586 344,-143 355.84,-144.439 368.484,-147.08 380.032,-149.944"/>
<polygon fill="midnightblue" stroke="midnightblue" points="379.291,-153.368 389.85,-152.494 381.051,-146.593 379.291,-153.368"/>
</g>
<!-- Node11 -->
<g id="node22" class="node"><title>Node11</title>
<a xlink:href="../../db/d52/tide_8c.xhtml#adcd9a1bde3289e795b11fdcf0276aead" target="_top" xlink:title="timeNowInMinutes">
<polygon fill="white" stroke="black" points="246,-76.5 246,-95.5 344,-95.5 344,-76.5 246,-76.5"/>
<text text-anchor="middle" x="295" y="-83.5" font-family="Helvetica,sans-Serif" font-size="10.00">timeNowInMinutes</text>
</a>
</g>
<!-- Node4&#45;&gt;Node11 -->
<g id="edge22" class="edge"><title>Node4&#45;&gt;Node11</title>
<path fill="none" stroke="midnightblue" d="M181.596,-133.459C203.596,-124.171 237.243,-109.964 261.993,-99.5143"/>
<polygon fill="midnightblue" stroke="midnightblue" points="263.479,-102.686 271.33,-95.5716 260.756,-96.237 263.479,-102.686"/>
</g>
<!-- Node12 -->
<g id="node24" class="node"><title>Node12</title>
<a xlink:href="../../db/d52/tide_8c.xhtml#ab6741cd0eea258802916a855f36f8e55" target="_top" xlink:title="timeInMinutes">
<polygon fill="white" stroke="black" points="383,-57.5 383,-76.5 461,-76.5 461,-57.5 383,-57.5"/>
<text text-anchor="middle" x="422" y="-64.5" font-family="Helvetica,sans-Serif" font-size="10.00">timeInMinutes</text>
</a>
</g>
<!-- Node4&#45;&gt;Node12 -->
<g id="edge26" class="edge"><title>Node4&#45;&gt;Node12</title>
<path fill="none" stroke="midnightblue" d="M166.042,-133.392C179.359,-116.14 210.136,-80.4587 246,-67 286.646,-51.7466 336.441,-53.5216 372.507,-58.0675"/>
<polygon fill="midnightblue" stroke="midnightblue" points="372.38,-61.583 382.764,-59.481 373.335,-54.6485 372.38,-61.583"/>
</g>
<!-- Node13 -->
<g id="node27" class="node"><title>Node13</title>
<a xlink:href="../../db/d52/tide_8c.xhtml#aa8fd833b89760ca87a163163aae14187" target="_top" xlink:title="timeFromMinutes">
<polygon fill="white" stroke="black" points="249,-0.5 249,-19.5 341,-19.5 341,-0.5 249,-0.5"/>
<text text-anchor="middle" x="295" y="-7.5" font-family="Helvetica,sans-Serif" font-size="10.00">timeFromMinutes</text>
</a>
</g>
<!-- Node4&#45;&gt;Node13 -->
<g id="edge28" class="edge"><title>Node4&#45;&gt;Node13</title>
<path fill="none" stroke="midnightblue" d="M164.635,-133.395C177.07,-112.871 208.735,-64.16 246,-34 250.436,-30.4099 255.497,-27.1638 260.63,-24.3027"/>
<polygon fill="midnightblue" stroke="midnightblue" points="262.532,-27.2603 269.828,-19.5773 259.333,-21.0339 262.532,-27.2603"/>
</g>
<!-- Node14 -->
<g id="node30" class="node"><title>Node14</title>
<a xlink:href="../../db/d52/tide_8c.xhtml#ac19d24cc6cc0121e720da442159a050e" target="_top" xlink:title="blinkCol">
<polygon fill="white" stroke="black" points="269,-152.5 269,-171.5 321,-171.5 321,-152.5 269,-152.5"/>
<text text-anchor="middle" x="295" y="-159.5" font-family="Helvetica,sans-Serif" font-size="10.00">blinkCol</text>
</a>
</g>
<!-- Node4&#45;&gt;Node14 -->
<g id="edge32" class="edge"><title>Node4&#45;&gt;Node14</title>
<path fill="none" stroke="midnightblue" d="M192.025,-147.648C212.325,-150.505 238.312,-154.162 258.972,-157.07"/>
<polygon fill="midnightblue" stroke="midnightblue" points="258.544,-160.544 268.934,-158.472 259.519,-153.613 258.544,-160.544"/>
</g>
<!-- Node5&#45;&gt;Node6 -->
<g id="edge10" class="edge"><title>Node5&#45;&gt;Node6</title>
<path fill="none" stroke="midnightblue" d="M332.155,-200C344.911,-200 359.458,-200 373.037,-200"/>
<polygon fill="midnightblue" stroke="midnightblue" points="373.186,-203.5 383.186,-200 373.186,-196.5 373.186,-203.5"/>
</g>
<!-- Node5&#45;&gt;Node10 -->
<g id="edge18" class="edge"><title>Node5&#45;&gt;Node10</title>
<path fill="none" stroke="midnightblue" d="M327.543,-190.411C343.383,-185.596 362.773,-179.701 379.776,-174.532"/>
<polygon fill="midnightblue" stroke="midnightblue" points="380.918,-177.843 389.467,-171.586 378.882,-171.146 380.918,-177.843"/>
</g>
<!-- Node7 -->
<g id="node13" class="node"><title>Node7</title>
<a xlink:href="../../db/d85/display_8c.xhtml#a3ae30196af91197037d50cb49de1d109" target="_top" xlink:title="Displays a single character.">
<polygon fill="white" stroke="black" points="500.5,-190.5 500.5,-209.5 571.5,-209.5 571.5,-190.5 500.5,-190.5"/>
<text text-anchor="middle" x="536" y="-197.5" font-family="Helvetica,sans-Serif" font-size="10.00">display_char</text>
</a>
</g>
<!-- Node6&#45;&gt;Node7 -->
<g id="edge12" class="edge"><title>Node6&#45;&gt;Node7</title>
<path fill="none" stroke="midnightblue" d="M460.606,-200C470.133,-200 480.46,-200 490.301,-200"/>
<polygon fill="midnightblue" stroke="midnightblue" points="490.326,-203.5 500.326,-200 490.326,-196.5 490.326,-203.5"/>
</g>
<!-- Node8 -->
<g id="node15" class="node"><title>Node8</title>
<a xlink:href="../../db/d85/display_8c.xhtml#a9275035317878022cf9eacf6b0a5be72" target="_top" xlink:title="Display a custom collection of segments.">
<polygon fill="white" stroke="black" points="608,-190.5 608,-209.5 676,-209.5 676,-190.5 608,-190.5"/>
<text text-anchor="middle" x="642" y="-197.5" font-family="Helvetica,sans-Serif" font-size="10.00">display_bits</text>
</a>
</g>
<!-- Node7&#45;&gt;Node8 -->
<g id="edge14" class="edge"><title>Node7&#45;&gt;Node8</title>
<path fill="none" stroke="midnightblue" d="M571.63,-200C580.04,-200 589.133,-200 597.882,-200"/>
<polygon fill="midnightblue" stroke="midnightblue" points="597.931,-203.5 607.931,-200 597.931,-196.5 597.931,-203.5"/>
</g>
<!-- Node9 -->
<g id="node17" class="node"><title>Node9</title>
<a xlink:href="../../db/d85/display_8c.xhtml#a710739913e8ea1b71dd433b8311211fd" target="_top" xlink:title="write_lcd_mem">
<polygon fill="white" stroke="black" points="712.5,-171.5 712.5,-190.5 795.5,-190.5 795.5,-171.5 712.5,-171.5"/>
<text text-anchor="middle" x="754" y="-178.5" font-family="Helvetica,sans-Serif" font-size="10.00">write_lcd_mem</text>
</a>
</g>
<!-- Node8&#45;&gt;Node9 -->
<g id="edge16" class="edge"><title>Node8&#45;&gt;Node9</title>
<path fill="none" stroke="midnightblue" d="M676.004,-194.299C684.28,-192.87 693.352,-191.303 702.273,-189.762"/>
<polygon fill="midnightblue" stroke="midnightblue" points="702.972,-193.193 712.231,-188.042 701.781,-186.295 702.972,-193.193"/>
</g>
<!-- Node10&#45;&gt;Node9 -->
<g id="edge20" class="edge"><title>Node10&#45;&gt;Node9</title>
<path fill="none" stroke="midnightblue" d="M464.127,-164.368C524.481,-167.843 636.942,-174.318 702.318,-178.082"/>
<polygon fill="midnightblue" stroke="midnightblue" points="702.206,-181.581 712.391,-178.662 702.609,-174.593 702.206,-181.581"/>
</g>
<!-- Node11&#45;&gt;Node12 -->
<g id="edge24" class="edge"><title>Node11&#45;&gt;Node12</title>
<path fill="none" stroke="midnightblue" d="M344.328,-78.6541C353.712,-77.2277 363.547,-75.7329 372.923,-74.3078"/>
<polygon fill="midnightblue" stroke="midnightblue" points="373.513,-77.7583 382.874,-72.7952 372.461,-70.8377 373.513,-77.7583"/>
</g>
<!-- Node14&#45;&gt;Node10 -->
<g id="edge34" class="edge"><title>Node14&#45;&gt;Node10</title>
<path fill="none" stroke="midnightblue" d="M321.296,-162C335.238,-162 353.064,-162 369.777,-162"/>
<polygon fill="midnightblue" stroke="midnightblue" points="369.995,-165.5 379.995,-162 369.995,-158.5 369.995,-165.5"/>
</g>
</g>
</svg>
