<?xml version="1.0" encoding="UTF-8" standalone="no"?>
<!DOCTYPE svg PUBLIC "-//W3C//DTD SVG 1.1//EN"
 "http://www.w3.org/Graphics/SVG/1.1/DTD/svg11.dtd">
<!-- Generated by graphviz version 2.28.0 (20121221.0049)
 -->
<!-- Title: mod_tide_init Pages: 1 -->
<svg width="1122pt" height="610pt"
 viewBox="0.00 0.00 1122.00 609.79" xmlns="http://www.w3.org/2000/svg" xmlns:xlink="http://www.w3.org/1999/xlink">
<g id="graph1" class="graph" transform="scale(1 1) rotate(0) translate(4 605.786)">
<title>mod_tide_init</title>
<polygon fill="white" stroke="white" points="-4,5 -4,-605.786 1119,-605.786 1119,5 -4,5"/>
<!-- Node1 -->
<g id="node1" class="node"><title>Node1</title>
<polygon fill="#bfbfbf" stroke="black" points="0,-279.865 0,-298.865 74,-298.865 74,-279.865 0,-279.865"/>
<text text-anchor="middle" x="37" y="-286.865" font-family="Helvetica,sans-Serif" font-size="10.00">mod_tide_init</text>
</g>
<!-- Node2 -->
<g id="node3" class="node"><title>Node2</title>
<a xlink:href="../../d2/df2/openchronos_8c.xhtml#a5aeb07d7031b5d53ca8605bf398714a2" target="_top" xlink:title="Registers a node in the message bus.">
<polygon fill="white" stroke="black" points="110.5,-545.865 110.5,-564.865 241.5,-564.865 241.5,-545.865 110.5,-545.865"/>
<text text-anchor="middle" x="176" y="-552.865" font-family="Helvetica,sans-Serif" font-size="10.00">sys_messagebus_register</text>
</a>
</g>
<!-- Node1&#45;&gt;Node2 -->
<g id="edge2" class="edge"><title>Node1&#45;&gt;Node2</title>
<path fill="none" stroke="midnightblue" d="M37.9683,-299.17C38.3863,-335.18 44.6449,-461.651 110,-531.365 113.61,-535.215 117.891,-538.451 122.509,-541.169"/>
<polygon fill="midnightblue" stroke="midnightblue" points="121.205,-544.431 131.713,-545.785 124.343,-538.173 121.205,-544.431"/>
</g>
<!-- Node3 -->
<g id="node5" class="node"><title>Node3</title>
<a xlink:href="../../db/d52/tide_8c.xhtml#a9a6d13b57c7a29f41ed8638808991094" target="_top" xlink:title="minuteTick">
<polygon fill="white" stroke="black" points="300.5,-507.865 300.5,-526.865 365.5,-526.865 365.5,-507.865 300.5,-507.865"/>
<text text-anchor="middle" x="333" y="-514.865" font-family="Helvetica,sans-Serif" font-size="10.00">minuteTick</text>
</a>
</g>
<!-- Node1&#45;&gt;Node3 -->
<g id="edge4" class="edge"><title>Node1&#45;&gt;Node3</title>
<path fill="none" stroke="midnightblue" d="M38.0653,-299.062C38.8648,-332.399 46.3922,-443.013 110,-493.365 161.255,-533.938 241.309,-531.473 289.984,-525.065"/>
<polygon fill="midnightblue" stroke="midnightblue" points="290.765,-528.489 300.168,-523.606 289.772,-521.559 290.765,-528.489"/>
</g>
<!-- Node5 -->
<g id="node9" class="node"><title>Node5</title>
<a xlink:href="../../db/d52/tide_8c.xhtml#aa8fd833b89760ca87a163163aae14187" target="_top" xlink:title="timeFromMinutes">
<polygon fill="white" stroke="black" points="567,-431.865 567,-450.865 659,-450.865 659,-431.865 567,-431.865"/>
<text text-anchor="middle" x="613" y="-438.865" font-family="Helvetica,sans-Serif" font-size="10.00">timeFromMinutes</text>
</a>
</g>
<!-- Node1&#45;&gt;Node5 -->
<g id="edge102" class="edge"><title>Node1&#45;&gt;Node5</title>
<path fill="none" stroke="midnightblue" d="M48.0277,-298.905C61.333,-311.171 85.9535,-332.533 110,-346.365 237.678,-419.805 278.022,-432.729 424,-452.365 468.427,-458.34 519.193,-454.76 556.764,-450.145"/>
<polygon fill="midnightblue" stroke="midnightblue" points="557.526,-453.576 566.995,-448.823 556.629,-446.634 557.526,-453.576"/>
</g>
<!-- Node15 -->
<g id="node36" class="node"><title>Node15</title>
<a xlink:href="../../d2/df2/openchronos_8c.xhtml#a71490cfda7ca71ac20d681a8a7a994e1" target="_top" xlink:title="Adds an entry to the main menu.">
<polygon fill="white" stroke="black" points="131.5,-317.865 131.5,-336.865 220.5,-336.865 220.5,-317.865 131.5,-317.865"/>
<text text-anchor="middle" x="176" y="-324.865" font-family="Helvetica,sans-Serif" font-size="10.00">menu_add_entry</text>
</a>
</g>
<!-- Node1&#45;&gt;Node15 -->
<g id="edge42" class="edge"><title>Node1&#45;&gt;Node15</title>
<path fill="none" stroke="midnightblue" d="M72.5709,-298.954C90.1752,-303.837 111.779,-309.829 130.601,-315.05"/>
<polygon fill="midnightblue" stroke="midnightblue" points="129.868,-318.478 140.44,-317.779 131.739,-311.733 129.868,-318.478"/>
</g>
<!-- Node16 -->
<g id="node38" class="node"><title>Node16</title>
<a xlink:href="../../db/d52/tide_8c.xhtml#a637bd2a826f81571d1f05c71e381da64" target="_top" xlink:title="buttonUp">
<polygon fill="white" stroke="black" points="305,-89.8646 305,-108.865 361,-108.865 361,-89.8646 305,-89.8646"/>
<text text-anchor="middle" x="333" y="-96.8646" font-family="Helvetica,sans-Serif" font-size="10.00">buttonUp</text>
</a>
</g>
<!-- Node1&#45;&gt;Node16 -->
<g id="edge44" class="edge"><title>Node1&#45;&gt;Node16</title>
<path fill="none" stroke="midnightblue" d="M44.5716,-279.685C56.1868,-263.143 81.7964,-229.116 110,-207.365 168.496,-162.251 248.853,-128.93 295.121,-111.971"/>
<polygon fill="midnightblue" stroke="midnightblue" points="296.513,-115.19 304.732,-108.504 294.138,-108.605 296.513,-115.19"/>
</g>
<!-- Node19 -->
<g id="node45" class="node"><title>Node19</title>
<a xlink:href="../../db/d52/tide_8c.xhtml#a9048643f43ed021401a1a507d45ec756" target="_top" xlink:title="buttonDown">
<polygon fill="white" stroke="black" points="298.5,-165.865 298.5,-184.865 367.5,-184.865 367.5,-165.865 298.5,-165.865"/>
<text text-anchor="middle" x="333" y="-172.865" font-family="Helvetica,sans-Serif" font-size="10.00">buttonDown</text>
</a>
</g>
<!-- Node1&#45;&gt;Node19 -->
<g id="edge52" class="edge"><title>Node1&#45;&gt;Node19</title>
<path fill="none" stroke="midnightblue" d="M62.5606,-279.841C114.983,-259.514 237.925,-211.843 297.895,-188.589"/>
<polygon fill="midnightblue" stroke="midnightblue" points="299.244,-191.82 307.303,-184.941 296.714,-185.293 299.244,-191.82"/>
</g>
<!-- Node20 -->
<g id="node49" class="node"><title>Node20</title>
<a xlink:href="../../db/d52/tide_8c.xhtml#a26236c0c913b82ade8f8b94159cf2761" target="_top" xlink:title="longStarButton">
<polygon fill="white" stroke="black" points="135.5,-279.865 135.5,-298.865 216.5,-298.865 216.5,-279.865 135.5,-279.865"/>
<text text-anchor="middle" x="176" y="-286.865" font-family="Helvetica,sans-Serif" font-size="10.00">longStarButton</text>
</a>
</g>
<!-- Node1&#45;&gt;Node20 -->
<g id="edge58" class="edge"><title>Node1&#45;&gt;Node20</title>
<path fill="none" stroke="midnightblue" d="M74.3538,-289.365C89.8464,-289.365 108.176,-289.365 124.92,-289.365"/>
<polygon fill="midnightblue" stroke="midnightblue" points="125.101,-292.865 135.101,-289.365 125.101,-285.865 125.101,-292.865"/>
</g>
<!-- Node23 -->
<g id="node66" class="node"><title>Node23</title>
<a xlink:href="../../db/d52/tide_8c.xhtml#a94cf1888e4c44d0e5ff68b1e81f2b08d" target="_top" xlink:title="activate">
<polygon fill="white" stroke="black" points="307.5,-51.8646 307.5,-70.8646 358.5,-70.8646 358.5,-51.8646 307.5,-51.8646"/>
<text text-anchor="middle" x="333" y="-58.8646" font-family="Helvetica,sans-Serif" font-size="10.00">activate</text>
</a>
</g>
<!-- Node1&#45;&gt;Node23 -->
<g id="edge86" class="edge"><title>Node1&#45;&gt;Node23</title>
<path fill="none" stroke="midnightblue" d="M39.5895,-279.494C44.5808,-251.736 62.5316,-172.29 110,-130.365 163.576,-83.0454 249.274,-68.1745 297.007,-63.5029"/>
<polygon fill="midnightblue" stroke="midnightblue" points="297.501,-66.9729 307.155,-62.6083 296.887,-60 297.501,-66.9729"/>
</g>
<!-- Node25 -->
<g id="node72" class="node"><title>Node25</title>
<a xlink:href="../../db/d52/tide_8c.xhtml#aa5ff3907e5d36703b805ea8b4c3452eb" target="_top" xlink:title="deactivate">
<polygon fill="white" stroke="black" points="145,-13.8646 145,-32.8646 207,-32.8646 207,-13.8646 145,-13.8646"/>
<text text-anchor="middle" x="176" y="-20.8646" font-family="Helvetica,sans-Serif" font-size="10.00">deactivate</text>
</a>
</g>
<!-- Node1&#45;&gt;Node25 -->
<g id="edge94" class="edge"><title>Node1&#45;&gt;Node25</title>
<path fill="none" stroke="midnightblue" d="M38.3812,-279.681C40.2251,-245.184 50.7873,-126.613 110,-56.3646 116.79,-48.3088 126.038,-42.0025 135.427,-37.1599"/>
<polygon fill="midnightblue" stroke="midnightblue" points="137.197,-40.1964 144.777,-32.7946 134.235,-33.8536 137.197,-40.1964"/>
</g>
<!-- Node4 -->
<g id="node7" class="node"><title>Node4</title>
<a xlink:href="../../db/d52/tide_8c.xhtml#ab6741cd0eea258802916a855f36f8e55" target="_top" xlink:title="timeInMinutes">
<polygon fill="white" stroke="black" points="701,-355.865 701,-374.865 779,-374.865 779,-355.865 701,-355.865"/>
<text text-anchor="middle" x="740" y="-362.865" font-family="Helvetica,sans-Serif" font-size="10.00">timeInMinutes</text>
</a>
</g>
<!-- Node3&#45;&gt;Node4 -->
<g id="edge6" class="edge"><title>Node3&#45;&gt;Node4</title>
<path fill="none" stroke="midnightblue" d="M365.635,-521.203C404.361,-525.026 471.732,-528.835 528,-517.365 591.416,-504.437 610.319,-499.322 662,-460.365 690.521,-438.865 714.81,-404.596 728.112,-383.625"/>
<polygon fill="midnightblue" stroke="midnightblue" points="731.149,-385.367 733.426,-375.02 725.194,-381.689 731.149,-385.367"/>
</g>
<!-- Node3&#45;&gt;Node5 -->
<g id="edge8" class="edge"><title>Node3&#45;&gt;Node5</title>
<path fill="none" stroke="midnightblue" d="M365.513,-517.567C404.694,-516.902 473.104,-512.703 528,-493.365 551.75,-484.998 575.886,-469.126 592.154,-457.108"/>
<polygon fill="midnightblue" stroke="midnightblue" points="594.482,-459.735 600.33,-450.9 590.249,-454.16 594.482,-459.735"/>
</g>
<!-- Node6 -->
<g id="node11" class="node"><title>Node6</title>
<a xlink:href="../../db/d52/tide_8c.xhtml#add9c243943294a693b79fd92d6cfc99c" target="_top" xlink:title="drawScreen">
<polygon fill="white" stroke="black" points="442,-241.865 442,-260.865 510,-260.865 510,-241.865 442,-241.865"/>
<text text-anchor="middle" x="476" y="-248.865" font-family="Helvetica,sans-Serif" font-size="10.00">drawScreen</text>
</a>
</g>
<!-- Node3&#45;&gt;Node6 -->
<g id="edge10" class="edge"><title>Node3&#45;&gt;Node6</title>
<path fill="none" stroke="midnightblue" d="M339.185,-507.582C359.96,-468.391 437.38,-322.335 465.072,-270.094"/>
<polygon fill="midnightblue" stroke="midnightblue" points="468.325,-271.43 469.916,-260.956 462.14,-268.152 468.325,-271.43"/>
</g>
<!-- Node6&#45;&gt;Node4 -->
<g id="edge30" class="edge"><title>Node6&#45;&gt;Node4</title>
<path fill="none" stroke="midnightblue" d="M510.141,-259.553C548.005,-269.565 611.278,-288.318 662,-313.365 682.554,-323.514 704.016,-338.419 719.044,-349.673"/>
<polygon fill="midnightblue" stroke="midnightblue" points="717.02,-352.531 727.094,-355.813 721.266,-346.965 717.02,-352.531"/>
</g>
<!-- Node6&#45;&gt;Node5 -->
<g id="edge32" class="edge"><title>Node6&#45;&gt;Node5</title>
<path fill="none" stroke="midnightblue" d="M482.738,-260.982C496.144,-283.254 530.899,-339.867 564,-384.365 574.214,-398.096 586.689,-412.855 596.361,-423.915"/>
<polygon fill="midnightblue" stroke="midnightblue" points="593.882,-426.396 603.126,-431.572 599.128,-421.761 593.882,-426.396"/>
</g>
<!-- Node7 -->
<g id="node13" class="node"><title>Node7</title>
<a xlink:href="../../db/d85/display_8c.xhtml#aa150336a018e90f37fd0285047b541f6" target="_top" xlink:title="Clears the screen.">
<polygon fill="white" stroke="black" points="576,-127.865 576,-146.865 650,-146.865 650,-127.865 576,-127.865"/>
<text text-anchor="middle" x="613" y="-134.865" font-family="Helvetica,sans-Serif" font-size="10.00">display_clear</text>
</a>
</g>
<!-- Node6&#45;&gt;Node7 -->
<g id="edge12" class="edge"><title>Node6&#45;&gt;Node7</title>
<path fill="none" stroke="midnightblue" d="M505.817,-241.796C513.684,-238.181 521.752,-233.432 528,-227.365 553.383,-202.718 537.854,-180.201 564,-156.365 565.722,-154.795 567.589,-153.348 569.555,-152.015"/>
<polygon fill="midnightblue" stroke="midnightblue" points="571.668,-154.841 578.653,-146.875 568.225,-148.746 571.668,-154.841"/>
</g>
<!-- Node8 -->
<g id="node15" class="node"><title>Node8</title>
<a xlink:href="../../db/d85/display_8c.xhtml#a6f2d5cdda31a73b43a569cb3d1a64165" target="_top" xlink:title="Displays several consecutive characters.">
<polygon fill="white" stroke="black" points="701.5,-203.865 701.5,-222.865 778.5,-222.865 778.5,-203.865 701.5,-203.865"/>
<text text-anchor="middle" x="740" y="-210.865" font-family="Helvetica,sans-Serif" font-size="10.00">display_chars</text>
</a>
</g>
<!-- Node6&#45;&gt;Node8 -->
<g id="edge40" class="edge"><title>Node6&#45;&gt;Node8</title>
<path fill="none" stroke="midnightblue" d="M510.157,-247.578C547.234,-243.225 609.037,-235.609 662,-227.365 671.566,-225.876 681.771,-224.131 691.52,-222.388"/>
<polygon fill="midnightblue" stroke="midnightblue" points="692.252,-225.813 701.467,-220.584 691.003,-218.925 692.252,-225.813"/>
</g>
<!-- Node12 -->
<g id="node23" class="node"><title>Node12</title>
<a xlink:href="../../db/d85/display_8c.xhtml#af604e78dcc4e0f1a204b2180c5e54957" target="_top" xlink:title="Displays a symbol.">
<polygon fill="white" stroke="black" points="698,-165.865 698,-184.865 782,-184.865 782,-165.865 698,-165.865"/>
<text text-anchor="middle" x="740" y="-172.865" font-family="Helvetica,sans-Serif" font-size="10.00">display_symbol</text>
</a>
</g>
<!-- Node6&#45;&gt;Node12 -->
<g id="edge34" class="edge"><title>Node6&#45;&gt;Node12</title>
<path fill="none" stroke="midnightblue" d="M509.917,-241.816C557.174,-228.108 644.274,-202.842 696.391,-187.725"/>
<polygon fill="midnightblue" stroke="midnightblue" points="697.382,-191.081 706.011,-184.934 695.432,-184.358 697.382,-191.081"/>
</g>
<!-- Node13 -->
<g id="node26" class="node"><title>Node13</title>
<a xlink:href="../../db/d52/tide_8c.xhtml#adcd9a1bde3289e795b11fdcf0276aead" target="_top" xlink:title="timeNowInMinutes">
<polygon fill="white" stroke="black" points="564,-355.865 564,-374.865 662,-374.865 662,-355.865 564,-355.865"/>
<text text-anchor="middle" x="613" y="-362.865" font-family="Helvetica,sans-Serif" font-size="10.00">timeNowInMinutes</text>
</a>
</g>
<!-- Node6&#45;&gt;Node13 -->
<g id="edge26" class="edge"><title>Node6&#45;&gt;Node13</title>
<path fill="none" stroke="midnightblue" d="M488.51,-261.084C511.724,-280.687 564.362,-325.137 592.843,-349.187"/>
<polygon fill="midnightblue" stroke="midnightblue" points="590.621,-351.892 600.519,-355.67 595.137,-346.544 590.621,-351.892"/>
</g>
<!-- Node14 -->
<g id="node32" class="node"><title>Node14</title>
<a xlink:href="../../db/d52/tide_8c.xhtml#ac19d24cc6cc0121e720da442159a050e" target="_top" xlink:title="blinkCol">
<polygon fill="white" stroke="black" points="587,-165.865 587,-184.865 639,-184.865 639,-165.865 587,-165.865"/>
<text text-anchor="middle" x="613" y="-172.865" font-family="Helvetica,sans-Serif" font-size="10.00">blinkCol</text>
</a>
</g>
<!-- Node6&#45;&gt;Node14 -->
<g id="edge36" class="edge"><title>Node6&#45;&gt;Node14</title>
<path fill="none" stroke="midnightblue" d="M500.159,-241.775C509.09,-237.742 519.243,-232.739 528,-227.365 545.276,-216.762 546.852,-210.172 564,-199.365 569.483,-195.909 575.53,-192.559 581.431,-189.513"/>
<polygon fill="midnightblue" stroke="midnightblue" points="583.09,-192.597 590.479,-185.005 579.968,-186.332 583.09,-192.597"/>
</g>
<!-- Node7&#45;&gt;Node8 -->
<g id="edge14" class="edge"><title>Node7&#45;&gt;Node8</title>
<path fill="none" stroke="midnightblue" d="M643.956,-146.886C650.178,-149.494 656.506,-152.649 662,-156.365 681.271,-169.398 679.109,-180.787 698,-194.365 700.329,-196.039 702.829,-197.622 705.404,-199.107"/>
<polygon fill="midnightblue" stroke="midnightblue" points="703.823,-202.229 714.306,-203.761 707.066,-196.026 703.823,-202.229"/>
</g>
<!-- Node7&#45;&gt;Node12 -->
<g id="edge22" class="edge"><title>Node7&#45;&gt;Node12</title>
<path fill="none" stroke="midnightblue" d="M645.543,-146.954C661.383,-151.769 680.773,-157.663 697.776,-162.833"/>
<polygon fill="midnightblue" stroke="midnightblue" points="696.882,-166.219 707.467,-165.779 698.918,-159.521 696.882,-166.219"/>
</g>
<!-- Node9 -->
<g id="node17" class="node"><title>Node9</title>
<a xlink:href="../../db/d85/display_8c.xhtml#a3ae30196af91197037d50cb49de1d109" target="_top" xlink:title="Displays a single character.">
<polygon fill="white" stroke="black" points="818.5,-203.865 818.5,-222.865 889.5,-222.865 889.5,-203.865 818.5,-203.865"/>
<text text-anchor="middle" x="854" y="-210.865" font-family="Helvetica,sans-Serif" font-size="10.00">display_char</text>
</a>
</g>
<!-- Node8&#45;&gt;Node9 -->
<g id="edge16" class="edge"><title>Node8&#45;&gt;Node9</title>
<path fill="none" stroke="midnightblue" d="M778.606,-213.365C788.133,-213.365 798.46,-213.365 808.301,-213.365"/>
<polygon fill="midnightblue" stroke="midnightblue" points="808.326,-216.865 818.326,-213.365 808.326,-209.865 808.326,-216.865"/>
</g>
<!-- Node10 -->
<g id="node19" class="node"><title>Node10</title>
<a xlink:href="../../db/d85/display_8c.xhtml#a9275035317878022cf9eacf6b0a5be72" target="_top" xlink:title="Display a custom collection of segments.">
<polygon fill="white" stroke="black" points="926,-203.865 926,-222.865 994,-222.865 994,-203.865 926,-203.865"/>
<text text-anchor="middle" x="960" y="-210.865" font-family="Helvetica,sans-Serif" font-size="10.00">display_bits</text>
</a>
</g>
<!-- Node9&#45;&gt;Node10 -->
<g id="edge18" class="edge"><title>Node9&#45;&gt;Node10</title>
<path fill="none" stroke="midnightblue" d="M889.63,-213.365C898.04,-213.365 907.133,-213.365 915.882,-213.365"/>
<polygon fill="midnightblue" stroke="midnightblue" points="915.931,-216.865 925.931,-213.365 915.931,-209.865 915.931,-216.865"/>
</g>
<!-- Node11 -->
<g id="node21" class="node"><title>Node11</title>
<a xlink:href="../../db/d85/display_8c.xhtml#a710739913e8ea1b71dd433b8311211fd" target="_top" xlink:title="write_lcd_mem">
<polygon fill="white" stroke="black" points="1030.5,-184.865 1030.5,-203.865 1113.5,-203.865 1113.5,-184.865 1030.5,-184.865"/>
<text text-anchor="middle" x="1072" y="-191.865" font-family="Helvetica,sans-Serif" font-size="10.00">write_lcd_mem</text>
</a>
</g>
<!-- Node10&#45;&gt;Node11 -->
<g id="edge20" class="edge"><title>Node10&#45;&gt;Node11</title>
<path fill="none" stroke="midnightblue" d="M994.004,-207.664C1002.28,-206.234 1011.35,-204.668 1020.27,-203.127"/>
<polygon fill="midnightblue" stroke="midnightblue" points="1020.97,-206.558 1030.23,-201.407 1019.78,-199.66 1020.97,-206.558"/>
</g>
<!-- Node12&#45;&gt;Node11 -->
<g id="edge24" class="edge"><title>Node12&#45;&gt;Node11</title>
<path fill="none" stroke="midnightblue" d="M782.127,-177.733C842.481,-181.207 954.942,-187.683 1020.32,-191.447"/>
<polygon fill="midnightblue" stroke="midnightblue" points="1020.21,-194.946 1030.39,-192.027 1020.61,-187.957 1020.21,-194.946"/>
</g>
<!-- Node13&#45;&gt;Node4 -->
<g id="edge28" class="edge"><title>Node13&#45;&gt;Node4</title>
<path fill="none" stroke="midnightblue" d="M662.328,-365.365C671.613,-365.365 681.337,-365.365 690.623,-365.365"/>
<polygon fill="midnightblue" stroke="midnightblue" points="690.874,-368.865 700.874,-365.365 690.874,-361.865 690.874,-368.865"/>
</g>
<!-- Node14&#45;&gt;Node12 -->
<g id="edge38" class="edge"><title>Node14&#45;&gt;Node12</title>
<path fill="none" stroke="midnightblue" d="M639.296,-175.365C653.238,-175.365 671.064,-175.365 687.777,-175.365"/>
<polygon fill="midnightblue" stroke="midnightblue" points="687.995,-178.865 697.995,-175.365 687.995,-171.865 687.995,-178.865"/>
</g>
<!-- Node16&#45;&gt;Node6 -->
<g id="edge50" class="edge"><title>Node16&#45;&gt;Node6</title>
<path fill="none" stroke="midnightblue" d="M343.223,-109C354.013,-120.296 372.391,-139.607 388,-156.365 413.096,-183.307 441.895,-214.887 459.255,-233.996"/>
<polygon fill="midnightblue" stroke="midnightblue" points="456.849,-236.553 466.162,-241.605 462.032,-231.848 456.849,-236.553"/>
</g>
<!-- Node17 -->
<g id="node40" class="node"><title>Node17</title>
<a xlink:href="../../db/d85/display_8c.xhtml#a0e030727a1bc4d1418bb96cc71350203" target="_top" xlink:title="Activates a virtual screen.">
<polygon fill="white" stroke="black" points="424,-89.8646 424,-108.865 528,-108.865 528,-89.8646 424,-89.8646"/>
<text text-anchor="middle" x="476" y="-96.8646" font-family="Helvetica,sans-Serif" font-size="10.00">lcd_screen_activate</text>
</a>
</g>
<!-- Node16&#45;&gt;Node17 -->
<g id="edge46" class="edge"><title>Node16&#45;&gt;Node17</title>
<path fill="none" stroke="midnightblue" d="M361.186,-99.3646C376.176,-99.3646 395.431,-99.3646 413.824,-99.3646"/>
<polygon fill="midnightblue" stroke="midnightblue" points="413.921,-102.865 423.921,-99.3646 413.921,-95.8647 413.921,-102.865"/>
</g>
<!-- Node18 -->
<g id="node42" class="node"><title>Node18</title>
<a xlink:href="../../d2/df2/openchronos_8c.xhtml#a72f5591868e0c66a539eacdcd0b520d7" target="_top" xlink:title="Increment/decrements value by one without exiting the [lower, upper] interval.">
<polygon fill="white" stroke="black" points="577.5,-89.8646 577.5,-108.865 648.5,-108.865 648.5,-89.8646 577.5,-89.8646"/>
<text text-anchor="middle" x="613" y="-96.8646" font-family="Helvetica,sans-Serif" font-size="10.00">helpers_loop</text>
</a>
</g>
<!-- Node17&#45;&gt;Node18 -->
<g id="edge48" class="edge"><title>Node17&#45;&gt;Node18</title>
<path fill="none" stroke="midnightblue" d="M528.038,-99.3646C540.871,-99.3646 554.55,-99.3646 567.061,-99.3646"/>
<polygon fill="midnightblue" stroke="midnightblue" points="567.251,-102.865 577.251,-99.3646 567.251,-95.8647 567.251,-102.865"/>
</g>
<!-- Node19&#45;&gt;Node6 -->
<g id="edge56" class="edge"><title>Node19&#45;&gt;Node6</title>
<path fill="none" stroke="midnightblue" d="M351.858,-184.99C376.225,-198.124 420.086,-221.766 448.351,-237"/>
<polygon fill="midnightblue" stroke="midnightblue" points="446.824,-240.154 457.287,-241.817 450.145,-233.992 446.824,-240.154"/>
</g>
<!-- Node19&#45;&gt;Node17 -->
<g id="edge54" class="edge"><title>Node19&#45;&gt;Node17</title>
<path fill="none" stroke="midnightblue" d="M358.824,-165.827C368.218,-161.836 378.847,-156.847 388,-151.365 405.389,-140.95 406.724,-133.967 424,-123.365 429.884,-119.754 436.398,-116.31 442.748,-113.216"/>
<polygon fill="midnightblue" stroke="midnightblue" points="444.272,-116.368 451.841,-108.955 441.301,-110.029 444.272,-116.368"/>
</g>
<!-- Node20&#45;&gt;Node4 -->
<g id="edge66" class="edge"><title>Node20&#45;&gt;Node4</title>
<path fill="none" stroke="midnightblue" d="M216.764,-293.529C226.236,-296.355 235.477,-300.95 242,-308.365 309.762,-385.389 200.007,-469.72 278,-536.365 408.383,-647.776 525.912,-602.731 662,-498.365 700.485,-468.85 723.139,-414.192 733.041,-384.979"/>
<polygon fill="midnightblue" stroke="midnightblue" points="736.477,-385.726 736.217,-375.134 729.815,-383.576 736.477,-385.726"/>
</g>
<!-- Node20&#45;&gt;Node5 -->
<g id="edge68" class="edge"><title>Node20&#45;&gt;Node5</title>
<path fill="none" stroke="midnightblue" d="M216.537,-295.593C225.579,-298.398 234.674,-302.466 242,-308.365 268.025,-329.32 251.094,-354.552 278,-374.365 360.952,-435.446 485.647,-444.425 556.879,-443.925"/>
<polygon fill="midnightblue" stroke="midnightblue" points="557.038,-447.424 566.989,-443.788 556.943,-440.424 557.038,-447.424"/>
</g>
<!-- Node20&#45;&gt;Node7 -->
<g id="edge60" class="edge"><title>Node20&#45;&gt;Node7</title>
<path fill="none" stroke="midnightblue" d="M192.391,-279.716C216.144,-264.938 260.793,-237.642 278,-230.365 330.326,-208.234 487.097,-168.172 565.825,-148.658"/>
<polygon fill="midnightblue" stroke="midnightblue" points="567.073,-151.955 575.941,-146.157 565.393,-145.159 567.073,-151.955"/>
</g>
<!-- Node20&#45;&gt;Node13 -->
<g id="edge64" class="edge"><title>Node20&#45;&gt;Node13</title>
<path fill="none" stroke="midnightblue" d="M216.565,-297.32C225.316,-300.046 234.275,-303.645 242,-308.365 261.853,-320.493 257.023,-336.304 278,-346.365 366.664,-388.89 484.141,-383.476 553.538,-374.934"/>
<polygon fill="midnightblue" stroke="midnightblue" points="554.368,-378.355 563.835,-373.599 553.468,-371.413 554.368,-378.355"/>
</g>
<!-- Node20&#45;&gt;Node14 -->
<g id="edge70" class="edge"><title>Node20&#45;&gt;Node14</title>
<path fill="none" stroke="midnightblue" d="M213.34,-279.841C295.78,-258.236 496.09,-205.741 577.119,-184.506"/>
<polygon fill="midnightblue" stroke="midnightblue" points="578.057,-187.878 586.843,-181.958 576.282,-181.107 578.057,-187.878"/>
</g>
<!-- Node20&#45;&gt;Node17 -->
<g id="edge62" class="edge"><title>Node20&#45;&gt;Node17</title>
<path fill="none" stroke="midnightblue" d="M181.594,-279.637C193.708,-255.052 228.994,-189.998 278,-156.365 301.069,-140.532 370.069,-122.655 419.904,-111.212"/>
<polygon fill="midnightblue" stroke="midnightblue" points="420.933,-114.567 429.91,-108.941 419.384,-107.741 420.933,-114.567"/>
</g>
<!-- Node21 -->
<g id="node57" class="node"><title>Node21</title>
<a xlink:href="../../d2/df2/openchronos_8c.xhtml#afb7a89cc8739b9788a27e80d8b0d90e9" target="_top" xlink:title="Enters edit mode.">
<polygon fill="white" stroke="black" points="278,-279.865 278,-298.865 388,-298.865 388,-279.865 278,-279.865"/>
<text text-anchor="middle" x="333" y="-286.865" font-family="Helvetica,sans-Serif" font-size="10.00">menu_editmode_start</text>
</a>
</g>
<!-- Node20&#45;&gt;Node21 -->
<g id="edge72" class="edge"><title>Node20&#45;&gt;Node21</title>
<path fill="none" stroke="midnightblue" d="M216.514,-289.365C232.109,-289.365 250.431,-289.365 267.829,-289.365"/>
<polygon fill="midnightblue" stroke="midnightblue" points="267.938,-292.865 277.938,-289.365 267.938,-285.865 267.938,-292.865"/>
</g>
<!-- Node22 -->
<g id="node59" class="node"><title>Node22</title>
<a xlink:href="../../db/d52/tide_8c.xhtml#a2765e984b5f8ae1aed6650d6dc444707" target="_top" xlink:title="endEditing">
<polygon fill="white" stroke="black" points="302,-317.865 302,-336.865 364,-336.865 364,-317.865 302,-317.865"/>
<text text-anchor="middle" x="333" y="-324.865" font-family="Helvetica,sans-Serif" font-size="10.00">endEditing</text>
</a>
</g>
<!-- Node20&#45;&gt;Node22 -->
<g id="edge74" class="edge"><title>Node20&#45;&gt;Node22</title>
<path fill="none" stroke="midnightblue" d="M216.113,-298.954C239.237,-304.623 268.461,-311.787 291.777,-317.503"/>
<polygon fill="midnightblue" stroke="midnightblue" points="291.155,-320.955 301.7,-319.936 292.821,-314.156 291.155,-320.955"/>
</g>
<!-- Node22&#45;&gt;Node4 -->
<g id="edge76" class="edge"><title>Node22&#45;&gt;Node4</title>
<path fill="none" stroke="midnightblue" d="M364.101,-326.88C422.164,-326.435 553.487,-327.814 662,-346.365 672.697,-348.193 684.105,-350.697 694.773,-353.286"/>
<polygon fill="midnightblue" stroke="midnightblue" points="694.177,-356.745 704.727,-355.776 695.875,-349.954 694.177,-356.745"/>
</g>
<!-- Node22&#45;&gt;Node5 -->
<g id="edge80" class="edge"><title>Node22&#45;&gt;Node5</title>
<path fill="none" stroke="midnightblue" d="M357.224,-336.888C406.589,-357.131 522.087,-404.494 579.047,-427.851"/>
<polygon fill="midnightblue" stroke="midnightblue" points="578.066,-431.232 588.647,-431.788 580.722,-424.756 578.066,-431.232"/>
</g>
<!-- Node22&#45;&gt;Node6 -->
<g id="edge84" class="edge"><title>Node22&#45;&gt;Node6</title>
<path fill="none" stroke="midnightblue" d="M364.115,-319.171C372.17,-316.346 380.67,-312.76 388,-308.365 406.615,-297.203 405.975,-287.457 424,-275.365 429.44,-271.715 435.521,-268.334 441.538,-265.329"/>
<polygon fill="midnightblue" stroke="midnightblue" points="443.291,-268.372 450.836,-260.934 440.299,-262.043 443.291,-268.372"/>
</g>
<!-- Node22&#45;&gt;Node7 -->
<g id="edge82" class="edge"><title>Node22&#45;&gt;Node7</title>
<path fill="none" stroke="midnightblue" d="M364.007,-321.405C372.516,-318.569 381.281,-314.418 388,-308.365 415.767,-283.346 398.308,-259.51 424,-232.365 463.679,-190.442 525.901,-164.1 567.781,-150.064"/>
<polygon fill="midnightblue" stroke="midnightblue" points="569.011,-153.344 577.439,-146.923 566.846,-146.687 569.011,-153.344"/>
</g>
<!-- Node22&#45;&gt;Node13 -->
<g id="edge78" class="edge"><title>Node22&#45;&gt;Node13</title>
<path fill="none" stroke="midnightblue" d="M364.296,-330.713C402.516,-335.029 470.233,-342.981 528,-351.365 536.308,-352.57 545.063,-353.93 553.658,-355.316"/>
<polygon fill="midnightblue" stroke="midnightblue" points="553.204,-358.788 563.638,-356.947 554.333,-351.88 553.204,-358.788"/>
</g>
<!-- Node23&#45;&gt;Node6 -->
<g id="edge92" class="edge"><title>Node23&#45;&gt;Node6</title>
<path fill="none" stroke="midnightblue" d="M358.633,-65.8276C368.649,-68.6415 379.776,-73.1623 388,-80.3646 435.71,-122.145 460.576,-196.365 470.187,-231.661"/>
<polygon fill="midnightblue" stroke="midnightblue" points="466.883,-232.862 472.782,-241.663 473.659,-231.105 466.883,-232.862"/>
</g>
<!-- Node23&#45;&gt;Node17 -->
<g id="edge90" class="edge"><title>Node23&#45;&gt;Node17</title>
<path fill="none" stroke="midnightblue" d="M358.56,-67.9837C378.167,-73.2679 406.171,-80.815 429.802,-87.1836"/>
<polygon fill="midnightblue" stroke="midnightblue" points="429.058,-90.608 439.624,-89.8308 430.88,-83.8491 429.058,-90.608"/>
</g>
<!-- Node24 -->
<g id="node68" class="node"><title>Node24</title>
<a xlink:href="../../db/d85/display_8c.xhtml#a4c1000a508e4527145c75b4827d81dd8" target="_top" xlink:title="Creates virtual screens.">
<polygon fill="white" stroke="black" points="425.5,-51.8646 425.5,-70.8646 526.5,-70.8646 526.5,-51.8646 425.5,-51.8646"/>
<text text-anchor="middle" x="476" y="-58.8646" font-family="Helvetica,sans-Serif" font-size="10.00">lcd_screens_create</text>
</a>
</g>
<!-- Node23&#45;&gt;Node24 -->
<g id="edge88" class="edge"><title>Node23&#45;&gt;Node24</title>
<path fill="none" stroke="midnightblue" d="M358.56,-61.3646C374.215,-61.3646 395.224,-61.3646 415.085,-61.3646"/>
<polygon fill="midnightblue" stroke="midnightblue" points="415.332,-64.8647 425.332,-61.3646 415.332,-57.8647 415.332,-64.8647"/>
</g>
<!-- Node25&#45;&gt;Node7 -->
<g id="edge100" class="edge"><title>Node25&#45;&gt;Node7</title>
<path fill="none" stroke="midnightblue" d="M207.288,-16.1419C227.241,-11.7623 254.017,-6.60086 278,-4.36464 326.678,0.174156 339.54,2.09524 388,-4.36464 451.908,-12.8838 478.552,-0.990982 528,-42.3646 556.665,-66.3491 536.721,-92.8151 564,-118.365 565.648,-119.908 567.436,-121.331 569.321,-122.643"/>
<polygon fill="midnightblue" stroke="midnightblue" points="567.663,-125.728 578.07,-127.712 571.172,-119.671 567.663,-125.728"/>
</g>
<!-- Node26 -->
<g id="node74" class="node"><title>Node26</title>
<a xlink:href="../../db/d85/display_8c.xhtml#acef5af52e5b50c8ba28846cbc0c3e683" target="_top" xlink:title="Destroys all virtual screen.">
<polygon fill="white" stroke="black" points="279.5,-13.8646 279.5,-32.8646 386.5,-32.8646 386.5,-13.8646 279.5,-13.8646"/>
<text text-anchor="middle" x="333" y="-20.8646" font-family="Helvetica,sans-Serif" font-size="10.00">lcd_screens_destroy</text>
</a>
</g>
<!-- Node25&#45;&gt;Node26 -->
<g id="edge96" class="edge"><title>Node25&#45;&gt;Node26</title>
<path fill="none" stroke="midnightblue" d="M207.254,-23.3646C224.899,-23.3646 247.827,-23.3646 269.206,-23.3646"/>
<polygon fill="midnightblue" stroke="midnightblue" points="269.22,-26.8647 279.22,-23.3646 269.22,-19.8647 269.22,-26.8647"/>
</g>
<!-- Node26&#45;&gt;Node17 -->
<g id="edge98" class="edge"><title>Node26&#45;&gt;Node17</title>
<path fill="none" stroke="midnightblue" d="M368.852,-32.8846C375.481,-35.4432 382.163,-38.5791 388,-42.3646 407.519,-55.0239 404.598,-67.5273 424,-80.3646 426.925,-82.3002 430.075,-84.074 433.322,-85.6922"/>
<polygon fill="midnightblue" stroke="midnightblue" points="432.068,-88.9653 442.626,-89.8458 434.922,-82.5733 432.068,-88.9653"/>
</g>
</g>
</svg>
