<?xml version="1.0" encoding="UTF-8" standalone="no"?>
<!DOCTYPE svg PUBLIC "-//W3C//DTD SVG 1.1//EN"
 "http://www.w3.org/Graphics/SVG/1.1/DTD/svg11.dtd">
<!-- Generated by graphviz version 2.28.0 (20121221.0049)
 -->
<!-- Title: longStarButton Pages: 1 -->
<svg width="930pt" height="422pt"
 viewBox="0.00 0.00 930.00 421.64" xmlns="http://www.w3.org/2000/svg" xmlns:xlink="http://www.w3.org/1999/xlink">
<g id="graph1" class="graph" transform="scale(1 1) rotate(0) translate(4 417.64)">
<title>longStarButton</title>
<polygon fill="white" stroke="white" points="-4,5 -4,-417.64 927,-417.64 927,5 -4,5"/>
<!-- Node1 -->
<g id="node1" class="node"><title>Node1</title>
<polygon fill="#bfbfbf" stroke="black" points="0.5,-194.195 0.5,-213.195 81.5,-213.195 81.5,-194.195 0.5,-194.195"/>
<text text-anchor="middle" x="41" y="-201.195" font-family="Helvetica,sans-Serif" font-size="10.00">longStarButton</text>
</g>
<!-- Node2 -->
<g id="node3" class="node"><title>Node2</title>
<a xlink:href="../../db/d85/display_8c.xhtml#aa150336a018e90f37fd0285047b541f6" target="_top" xlink:title="Clears the screen.">
<polygon fill="white" stroke="black" points="384,-61.1948 384,-80.1948 458,-80.1948 458,-61.1948 384,-61.1948"/>
<text text-anchor="middle" x="421" y="-68.1948" font-family="Helvetica,sans-Serif" font-size="10.00">display_clear</text>
</a>
</g>
<!-- Node1&#45;&gt;Node2 -->
<g id="edge2" class="edge"><title>Node1&#45;&gt;Node2</title>
<path fill="none" stroke="midnightblue" d="M56.3231,-194.169C90.5607,-171.913 180.521,-116.442 264,-90.6948 299.867,-79.6326 342.194,-74.6838 373.702,-72.4726"/>
<polygon fill="midnightblue" stroke="midnightblue" points="374.19,-75.9488 383.948,-71.8228 373.747,-68.9629 374.19,-75.9488"/>
</g>
<!-- Node8 -->
<g id="node16" class="node"><title>Node8</title>
<a xlink:href="../../db/d85/display_8c.xhtml#a0e030727a1bc4d1418bb96cc71350203" target="_top" xlink:title="Activates a virtual screen.">
<polygon fill="white" stroke="black" points="121,-346.195 121,-365.195 225,-365.195 225,-346.195 121,-346.195"/>
<text text-anchor="middle" x="173" y="-353.195" font-family="Helvetica,sans-Serif" font-size="10.00">lcd_screen_activate</text>
</a>
</g>
<!-- Node1&#45;&gt;Node8 -->
<g id="edge16" class="edge"><title>Node1&#45;&gt;Node8</title>
<path fill="none" stroke="midnightblue" d="M47.4688,-213.417C58.9472,-233.345 87.0602,-279.722 118,-312.695 127.482,-322.8 139.414,-332.548 149.649,-340.201"/>
<polygon fill="midnightblue" stroke="midnightblue" points="147.611,-343.047 157.757,-346.099 151.729,-337.386 147.611,-343.047"/>
</g>
<!-- Node10 -->
<g id="node20" class="node"><title>Node10</title>
<a xlink:href="../../db/d52/tide_8c.xhtml#adcd9a1bde3289e795b11fdcf0276aead" target="_top" xlink:title="timeNowInMinutes">
<polygon fill="white" stroke="black" points="372,-270.195 372,-289.195 470,-289.195 470,-270.195 372,-270.195"/>
<text text-anchor="middle" x="421" y="-277.195" font-family="Helvetica,sans-Serif" font-size="10.00">timeNowInMinutes</text>
</a>
</g>
<!-- Node1&#45;&gt;Node10 -->
<g id="edge20" class="edge"><title>Node1&#45;&gt;Node10</title>
<path fill="none" stroke="midnightblue" d="M57.7084,-213.313C72.6746,-222.043 96.1073,-234.603 118,-241.695 199.858,-268.213 299.762,-276.371 361.639,-278.796"/>
<polygon fill="midnightblue" stroke="midnightblue" points="361.868,-282.306 371.986,-279.162 362.116,-275.311 361.868,-282.306"/>
</g>
<!-- Node11 -->
<g id="node22" class="node"><title>Node11</title>
<a xlink:href="../../db/d52/tide_8c.xhtml#ab6741cd0eea258802916a855f36f8e55" target="_top" xlink:title="timeInMinutes">
<polygon fill="white" stroke="black" points="509,-298.195 509,-317.195 587,-317.195 587,-298.195 509,-298.195"/>
<text text-anchor="middle" x="548" y="-305.195" font-family="Helvetica,sans-Serif" font-size="10.00">timeInMinutes</text>
</a>
</g>
<!-- Node1&#45;&gt;Node11 -->
<g id="edge24" class="edge"><title>Node1&#45;&gt;Node11</title>
<path fill="none" stroke="midnightblue" d="M43.0714,-213.463C46.904,-243.267 62.7976,-333.509 118,-374.695 244.921,-469.389 452.412,-363.56 522.782,-322.536"/>
<polygon fill="midnightblue" stroke="midnightblue" points="524.59,-325.533 531.412,-317.427 521.024,-319.51 524.59,-325.533"/>
</g>
<!-- Node12 -->
<g id="node25" class="node"><title>Node12</title>
<a xlink:href="../../db/d52/tide_8c.xhtml#aa8fd833b89760ca87a163163aae14187" target="_top" xlink:title="timeFromMinutes">
<polygon fill="white" stroke="black" points="375,-213.195 375,-232.195 467,-232.195 467,-213.195 375,-213.195"/>
<text text-anchor="middle" x="421" y="-220.195" font-family="Helvetica,sans-Serif" font-size="10.00">timeFromMinutes</text>
</a>
</g>
<!-- Node1&#45;&gt;Node12 -->
<g id="edge26" class="edge"><title>Node1&#45;&gt;Node12</title>
<path fill="none" stroke="midnightblue" d="M81.5776,-202.566C119.251,-201.758 177.525,-201.203 228,-203.695 274.023,-205.966 326.027,-211.283 364.293,-215.716"/>
<polygon fill="midnightblue" stroke="midnightblue" points="364.365,-219.249 374.705,-216.94 365.182,-212.297 364.365,-219.249"/>
</g>
<!-- Node13 -->
<g id="node27" class="node"><title>Node13</title>
<a xlink:href="../../db/d52/tide_8c.xhtml#ac19d24cc6cc0121e720da442159a050e" target="_top" xlink:title="blinkCol">
<polygon fill="white" stroke="black" points="395,-23.1948 395,-42.1948 447,-42.1948 447,-23.1948 395,-23.1948"/>
<text text-anchor="middle" x="421" y="-30.1948" font-family="Helvetica,sans-Serif" font-size="10.00">blinkCol</text>
</a>
</g>
<!-- Node1&#45;&gt;Node13 -->
<g id="edge28" class="edge"><title>Node1&#45;&gt;Node13</title>
<path fill="none" stroke="midnightblue" d="M42.8013,-194.034C45.8951,-163.741 59.9776,-70.402 118,-32.6948 200.701,21.0505 324.933,-4.1918 385.002,-21.3577"/>
<polygon fill="midnightblue" stroke="midnightblue" points="384.181,-24.7645 394.763,-24.239 386.163,-18.0509 384.181,-24.7645"/>
</g>
<!-- Node14 -->
<g id="node30" class="node"><title>Node14</title>
<a xlink:href="../../d2/df2/openchronos_8c.xhtml#afb7a89cc8739b9788a27e80d8b0d90e9" target="_top" xlink:title="Enters edit mode.">
<polygon fill="white" stroke="black" points="118,-42.1948 118,-61.1948 228,-61.1948 228,-42.1948 118,-42.1948"/>
<text text-anchor="middle" x="173" y="-49.1948" font-family="Helvetica,sans-Serif" font-size="10.00">menu_editmode_start</text>
</a>
</g>
<!-- Node1&#45;&gt;Node14 -->
<g id="edge32" class="edge"><title>Node1&#45;&gt;Node14</title>
<path fill="none" stroke="midnightblue" d="M45.3815,-193.989C53.9746,-170.613 78.7869,-110.548 118,-75.6948 122.265,-71.9036 127.227,-68.6269 132.38,-65.82"/>
<polygon fill="midnightblue" stroke="midnightblue" points="134.29,-68.7835 141.755,-61.2654 131.231,-62.4873 134.29,-68.7835"/>
</g>
<!-- Node15 -->
<g id="node32" class="node"><title>Node15</title>
<a xlink:href="../../db/d52/tide_8c.xhtml#a2765e984b5f8ae1aed6650d6dc444707" target="_top" xlink:title="endEditing">
<polygon fill="white" stroke="black" points="142,-213.195 142,-232.195 204,-232.195 204,-213.195 142,-213.195"/>
<text text-anchor="middle" x="173" y="-220.195" font-family="Helvetica,sans-Serif" font-size="10.00">endEditing</text>
</a>
</g>
<!-- Node1&#45;&gt;Node15 -->
<g id="edge34" class="edge"><title>Node1&#45;&gt;Node15</title>
<path fill="none" stroke="midnightblue" d="M81.7107,-209.499C97.5137,-211.808 115.679,-214.463 131.554,-216.784"/>
<polygon fill="midnightblue" stroke="midnightblue" points="131.207,-220.27 141.608,-218.253 132.219,-213.343 131.207,-220.27"/>
</g>
<!-- Node3 -->
<g id="node5" class="node"><title>Node3</title>
<a xlink:href="../../db/d85/display_8c.xhtml#a6f2d5cdda31a73b43a569cb3d1a64165" target="_top" xlink:title="Displays several consecutive characters.">
<polygon fill="white" stroke="black" points="509.5,-99.1948 509.5,-118.195 586.5,-118.195 586.5,-99.1948 509.5,-99.1948"/>
<text text-anchor="middle" x="548" y="-106.195" font-family="Helvetica,sans-Serif" font-size="10.00">display_chars</text>
</a>
</g>
<!-- Node2&#45;&gt;Node3 -->
<g id="edge4" class="edge"><title>Node2&#45;&gt;Node3</title>
<path fill="none" stroke="midnightblue" d="M453.543,-80.2838C469.383,-85.0992 488.773,-90.9936 505.776,-96.1628"/>
<polygon fill="midnightblue" stroke="midnightblue" points="504.882,-99.5489 515.467,-99.1088 506.918,-92.8515 504.882,-99.5489"/>
</g>
<!-- Node7 -->
<g id="node13" class="node"><title>Node7</title>
<a xlink:href="../../db/d85/display_8c.xhtml#af604e78dcc4e0f1a204b2180c5e54957" target="_top" xlink:title="Displays a symbol.">
<polygon fill="white" stroke="black" points="506,-61.1948 506,-80.1948 590,-80.1948 590,-61.1948 506,-61.1948"/>
<text text-anchor="middle" x="548" y="-68.1948" font-family="Helvetica,sans-Serif" font-size="10.00">display_symbol</text>
</a>
</g>
<!-- Node2&#45;&gt;Node7 -->
<g id="edge12" class="edge"><title>Node2&#45;&gt;Node7</title>
<path fill="none" stroke="midnightblue" d="M458.155,-70.6948C469.759,-70.6948 482.847,-70.6948 495.338,-70.6948"/>
<polygon fill="midnightblue" stroke="midnightblue" points="495.645,-74.1949 505.645,-70.6948 495.645,-67.1949 495.645,-74.1949"/>
</g>
<!-- Node4 -->
<g id="node7" class="node"><title>Node4</title>
<a xlink:href="../../db/d85/display_8c.xhtml#a3ae30196af91197037d50cb49de1d109" target="_top" xlink:title="Displays a single character.">
<polygon fill="white" stroke="black" points="626.5,-99.1948 626.5,-118.195 697.5,-118.195 697.5,-99.1948 626.5,-99.1948"/>
<text text-anchor="middle" x="662" y="-106.195" font-family="Helvetica,sans-Serif" font-size="10.00">display_char</text>
</a>
</g>
<!-- Node3&#45;&gt;Node4 -->
<g id="edge6" class="edge"><title>Node3&#45;&gt;Node4</title>
<path fill="none" stroke="midnightblue" d="M586.606,-108.695C596.133,-108.695 606.46,-108.695 616.301,-108.695"/>
<polygon fill="midnightblue" stroke="midnightblue" points="616.326,-112.195 626.326,-108.695 616.326,-105.195 616.326,-112.195"/>
</g>
<!-- Node5 -->
<g id="node9" class="node"><title>Node5</title>
<a xlink:href="../../db/d85/display_8c.xhtml#a9275035317878022cf9eacf6b0a5be72" target="_top" xlink:title="Display a custom collection of segments.">
<polygon fill="white" stroke="black" points="734,-99.1948 734,-118.195 802,-118.195 802,-99.1948 734,-99.1948"/>
<text text-anchor="middle" x="768" y="-106.195" font-family="Helvetica,sans-Serif" font-size="10.00">display_bits</text>
</a>
</g>
<!-- Node4&#45;&gt;Node5 -->
<g id="edge8" class="edge"><title>Node4&#45;&gt;Node5</title>
<path fill="none" stroke="midnightblue" d="M697.63,-108.695C706.04,-108.695 715.133,-108.695 723.882,-108.695"/>
<polygon fill="midnightblue" stroke="midnightblue" points="723.931,-112.195 733.931,-108.695 723.931,-105.195 723.931,-112.195"/>
</g>
<!-- Node6 -->
<g id="node11" class="node"><title>Node6</title>
<a xlink:href="../../db/d85/display_8c.xhtml#a710739913e8ea1b71dd433b8311211fd" target="_top" xlink:title="write_lcd_mem">
<polygon fill="white" stroke="black" points="838.5,-80.1948 838.5,-99.1948 921.5,-99.1948 921.5,-80.1948 838.5,-80.1948"/>
<text text-anchor="middle" x="880" y="-87.1948" font-family="Helvetica,sans-Serif" font-size="10.00">write_lcd_mem</text>
</a>
</g>
<!-- Node5&#45;&gt;Node6 -->
<g id="edge10" class="edge"><title>Node5&#45;&gt;Node6</title>
<path fill="none" stroke="midnightblue" d="M802.004,-102.994C810.28,-101.565 819.352,-99.9976 828.273,-98.4567"/>
<polygon fill="midnightblue" stroke="midnightblue" points="828.972,-101.888 838.231,-96.7368 827.781,-94.99 828.972,-101.888"/>
</g>
<!-- Node7&#45;&gt;Node6 -->
<g id="edge14" class="edge"><title>Node7&#45;&gt;Node6</title>
<path fill="none" stroke="midnightblue" d="M590.127,-73.0627C650.481,-76.5376 762.942,-83.0127 828.318,-86.7767"/>
<polygon fill="midnightblue" stroke="midnightblue" points="828.206,-90.276 838.391,-87.3567 828.609,-83.2876 828.206,-90.276"/>
</g>
<!-- Node9 -->
<g id="node18" class="node"><title>Node9</title>
<a xlink:href="../../d2/df2/openchronos_8c.xhtml#a72f5591868e0c66a539eacdcd0b520d7" target="_top" xlink:title="Increment/decrements value by one without exiting the [lower, upper] interval.">
<polygon fill="white" stroke="black" points="264.5,-365.195 264.5,-384.195 335.5,-384.195 335.5,-365.195 264.5,-365.195"/>
<text text-anchor="middle" x="300" y="-372.195" font-family="Helvetica,sans-Serif" font-size="10.00">helpers_loop</text>
</a>
</g>
<!-- Node8&#45;&gt;Node9 -->
<g id="edge18" class="edge"><title>Node8&#45;&gt;Node9</title>
<path fill="none" stroke="midnightblue" d="M225.203,-363.478C234.908,-364.953 244.988,-366.485 254.466,-367.926"/>
<polygon fill="midnightblue" stroke="midnightblue" points="254.056,-371.403 264.468,-369.446 255.108,-364.483 254.056,-371.403"/>
</g>
<!-- Node10&#45;&gt;Node11 -->
<g id="edge22" class="edge"><title>Node10&#45;&gt;Node11</title>
<path fill="none" stroke="midnightblue" d="M464.668,-289.252C475.606,-291.703 487.449,-294.355 498.651,-296.865"/>
<polygon fill="midnightblue" stroke="midnightblue" points="498.191,-300.348 508.714,-299.119 499.721,-293.518 498.191,-300.348"/>
</g>
<!-- Node13&#45;&gt;Node7 -->
<g id="edge30" class="edge"><title>Node13&#45;&gt;Node7</title>
<path fill="none" stroke="midnightblue" d="M447.296,-40.3847C464.062,-45.4818 486.446,-52.2863 505.756,-58.1566"/>
<polygon fill="midnightblue" stroke="midnightblue" points="504.942,-61.5673 515.528,-61.1272 506.978,-54.8699 504.942,-61.5673"/>
</g>
<!-- Node15&#45;&gt;Node2 -->
<g id="edge42" class="edge"><title>Node15&#45;&gt;Node2</title>
<path fill="none" stroke="midnightblue" d="M180.798,-212.936C194.473,-193.975 227.166,-151.899 264,-127.695 297.849,-105.452 341.52,-90.4569 374.043,-81.453"/>
<polygon fill="midnightblue" stroke="midnightblue" points="375.002,-84.8195 383.755,-78.8497 373.19,-78.0582 375.002,-84.8195"/>
</g>
<!-- Node15&#45;&gt;Node10 -->
<g id="edge38" class="edge"><title>Node15&#45;&gt;Node10</title>
<path fill="none" stroke="midnightblue" d="M204.164,-229.684C245.215,-239.196 319.247,-256.35 369.009,-267.88"/>
<polygon fill="midnightblue" stroke="midnightblue" points="368.397,-271.331 378.929,-270.178 369.977,-264.511 368.397,-271.331"/>
</g>
<!-- Node15&#45;&gt;Node11 -->
<g id="edge36" class="edge"><title>Node15&#45;&gt;Node11</title>
<path fill="none" stroke="midnightblue" d="M191.92,-232.236C209.837,-241.54 238.341,-255.709 264,-265.695 310.774,-283.897 322.567,-290.007 372,-298.695 414.406,-306.147 463.411,-308.11 498.758,-308.376"/>
<polygon fill="midnightblue" stroke="midnightblue" points="498.795,-311.876 508.806,-308.408 498.818,-304.876 498.795,-311.876"/>
</g>
<!-- Node15&#45;&gt;Node12 -->
<g id="edge40" class="edge"><title>Node15&#45;&gt;Node12</title>
<path fill="none" stroke="midnightblue" d="M204.164,-222.695C244.051,-222.695 315.076,-222.695 364.719,-222.695"/>
<polygon fill="midnightblue" stroke="midnightblue" points="364.969,-226.195 374.969,-222.695 364.969,-219.195 364.969,-226.195"/>
</g>
<!-- Node16 -->
<g id="node38" class="node"><title>Node16</title>
<a xlink:href="../../db/d52/tide_8c.xhtml#add9c243943294a693b79fd92d6cfc99c" target="_top" xlink:title="drawScreen">
<polygon fill="white" stroke="black" points="266,-137.195 266,-156.195 334,-156.195 334,-137.195 266,-137.195"/>
<text text-anchor="middle" x="300" y="-144.195" font-family="Helvetica,sans-Serif" font-size="10.00">drawScreen</text>
</a>
</g>
<!-- Node15&#45;&gt;Node16 -->
<g id="edge44" class="edge"><title>Node15&#45;&gt;Node16</title>
<path fill="none" stroke="midnightblue" d="M189.831,-213.069C211.246,-200.049 249.643,-176.704 274.718,-161.458"/>
<polygon fill="midnightblue" stroke="midnightblue" points="276.571,-164.428 283.297,-156.242 272.934,-158.447 276.571,-164.428"/>
</g>
<!-- Node16&#45;&gt;Node2 -->
<g id="edge46" class="edge"><title>Node16&#45;&gt;Node2</title>
<path fill="none" stroke="midnightblue" d="M315.44,-137.078C321.805,-132.766 329.337,-127.563 336,-122.695 352.366,-110.736 354.852,-105.502 372,-94.6948 377.483,-91.2392 383.53,-87.8896 389.431,-84.8434"/>
<polygon fill="midnightblue" stroke="midnightblue" points="391.09,-87.9273 398.479,-80.3347 387.968,-81.662 391.09,-87.9273"/>
</g>
<!-- Node16&#45;&gt;Node3 -->
<g id="edge58" class="edge"><title>Node16&#45;&gt;Node3</title>
<path fill="none" stroke="midnightblue" d="M334.088,-142.382C368.2,-137.845 422.901,-130.318 470,-122.695 479.557,-121.148 489.758,-119.378 499.505,-117.628"/>
<polygon fill="midnightblue" stroke="midnightblue" points="500.238,-121.053 509.453,-115.823 498.988,-114.165 500.238,-121.053"/>
</g>
<!-- Node16&#45;&gt;Node7 -->
<g id="edge54" class="edge"><title>Node16&#45;&gt;Node7</title>
<path fill="none" stroke="midnightblue" d="M328.57,-137.11C341.688,-132.618 357.614,-127.262 372,-122.695 416.679,-108.511 468.144,-93.3594 503.641,-83.0928"/>
<polygon fill="midnightblue" stroke="midnightblue" points="505.027,-86.336 513.664,-80.201 503.086,-79.6103 505.027,-86.336"/>
</g>
<!-- Node16&#45;&gt;Node10 -->
<g id="edge48" class="edge"><title>Node16&#45;&gt;Node10</title>
<path fill="none" stroke="midnightblue" d="M306.926,-156.225C318.281,-174.087 344.437,-213.354 372,-241.695 379.7,-249.612 389.057,-257.362 397.457,-263.777"/>
<polygon fill="midnightblue" stroke="midnightblue" points="395.638,-266.785 405.755,-269.929 399.807,-261.162 395.638,-266.785"/>
</g>
<!-- Node16&#45;&gt;Node11 -->
<g id="edge50" class="edge"><title>Node16&#45;&gt;Node11</title>
<path fill="none" stroke="midnightblue" d="M334.226,-151.781C370.431,-158.635 428.699,-173.62 470,-203.695 501.324,-226.504 525.391,-265.786 537.762,-288.991"/>
<polygon fill="midnightblue" stroke="midnightblue" points="534.78,-290.844 542.471,-298.131 541.002,-287.638 534.78,-290.844"/>
</g>
<!-- Node16&#45;&gt;Node12 -->
<g id="edge52" class="edge"><title>Node16&#45;&gt;Node12</title>
<path fill="none" stroke="midnightblue" d="M315.44,-156.312C321.805,-160.624 329.337,-165.826 336,-170.695 352.366,-182.654 354.852,-187.888 372,-198.695 377.483,-202.15 383.53,-205.5 389.431,-208.546"/>
<polygon fill="midnightblue" stroke="midnightblue" points="387.968,-211.728 398.479,-213.055 391.09,-205.462 387.968,-211.728"/>
</g>
<!-- Node16&#45;&gt;Node13 -->
<g id="edge56" class="edge"><title>Node16&#45;&gt;Node13</title>
<path fill="none" stroke="midnightblue" d="M305.893,-136.947C315.858,-118.006 340.272,-75.9626 372,-51.6948 375.973,-48.6558 380.495,-46.0389 385.139,-43.8043"/>
<polygon fill="midnightblue" stroke="midnightblue" points="386.866,-46.8733 394.702,-39.7421 384.129,-40.4305 386.866,-46.8733"/>
</g>
</g>
</svg>
