<?xml version="1.0" encoding="UTF-8" standalone="no"?>
<!DOCTYPE svg PUBLIC "-//W3C//DTD SVG 1.1//EN"
 "http://www.w3.org/Graphics/SVG/1.1/DTD/svg11.dtd">
<!-- Generated by graphviz version 2.28.0 (20121221.0049)
 -->
<!-- Title: deactivate Pages: 1 -->
<svg width="702pt" height="104pt"
 viewBox="0.00 0.00 702.00 104.00" xmlns="http://www.w3.org/2000/svg" xmlns:xlink="http://www.w3.org/1999/xlink">
<g id="graph1" class="graph" transform="scale(1 1) rotate(0) translate(4 100)">
<title>deactivate</title>
<polygon fill="white" stroke="white" points="-4,5 -4,-100 699,-100 699,5 -4,5"/>
<!-- Node1 -->
<g id="node1" class="node"><title>Node1</title>
<polygon fill="#bfbfbf" stroke="black" points="0,-57.5 0,-76.5 62,-76.5 62,-57.5 0,-57.5"/>
<text text-anchor="middle" x="31" y="-64.5" font-family="Helvetica,sans-Serif" font-size="10.00">deactivate</text>
</g>
<!-- Node2 -->
<g id="node3" class="node"><title>Node2</title>
<a xlink:href="../../db/d85/display_8c.xhtml#acef5af52e5b50c8ba28846cbc0c3e683" target="_top" xlink:title="Destroys all virtual screen.">
<polygon fill="white" stroke="black" points="98.5,-76.5 98.5,-95.5 205.5,-95.5 205.5,-76.5 98.5,-76.5"/>
<text text-anchor="middle" x="152" y="-83.5" font-family="Helvetica,sans-Serif" font-size="10.00">lcd_screens_destroy</text>
</a>
</g>
<!-- Node1&#45;&gt;Node2 -->
<g id="edge2" class="edge"><title>Node1&#45;&gt;Node2</title>
<path fill="none" stroke="midnightblue" d="M62.0287,-71.7945C70.119,-73.0862 79.1817,-74.5332 88.3446,-75.9962"/>
<polygon fill="midnightblue" stroke="midnightblue" points="87.8584,-79.4628 98.2852,-77.5833 88.9621,-72.5504 87.8584,-79.4628"/>
</g>
<!-- Node5 -->
<g id="node9" class="node"><title>Node5</title>
<a xlink:href="../../db/d85/display_8c.xhtml#aa150336a018e90f37fd0285047b541f6" target="_top" xlink:title="Clears the screen.">
<polygon fill="white" stroke="black" points="115,-38.5 115,-57.5 189,-57.5 189,-38.5 115,-38.5"/>
<text text-anchor="middle" x="152" y="-45.5" font-family="Helvetica,sans-Serif" font-size="10.00">display_clear</text>
</a>
</g>
<!-- Node1&#45;&gt;Node5 -->
<g id="edge8" class="edge"><title>Node1&#45;&gt;Node5</title>
<path fill="none" stroke="midnightblue" d="M62.0287,-62.2055C74.8827,-60.1532 90.1918,-57.7089 104.457,-55.4313"/>
<polygon fill="midnightblue" stroke="midnightblue" points="105.286,-58.8433 114.609,-53.8103 104.182,-51.9309 105.286,-58.8433"/>
</g>
<!-- Node3 -->
<g id="node5" class="node"><title>Node3</title>
<a xlink:href="../../db/d85/display_8c.xhtml#a0e030727a1bc4d1418bb96cc71350203" target="_top" xlink:title="Activates a virtual screen.">
<polygon fill="white" stroke="black" points="242,-76.5 242,-95.5 346,-95.5 346,-76.5 242,-76.5"/>
<text text-anchor="middle" x="294" y="-83.5" font-family="Helvetica,sans-Serif" font-size="10.00">lcd_screen_activate</text>
</a>
</g>
<!-- Node2&#45;&gt;Node3 -->
<g id="edge4" class="edge"><title>Node2&#45;&gt;Node3</title>
<path fill="none" stroke="midnightblue" d="M205.529,-86C214.006,-86 222.847,-86 231.513,-86"/>
<polygon fill="midnightblue" stroke="midnightblue" points="231.571,-89.5001 241.571,-86 231.571,-82.5001 231.571,-89.5001"/>
</g>
<!-- Node4 -->
<g id="node7" class="node"><title>Node4</title>
<a xlink:href="../../d2/df2/openchronos_8c.xhtml#a72f5591868e0c66a539eacdcd0b520d7" target="_top" xlink:title="Increment/decrements value by one without exiting the [lower, upper] interval.">
<polygon fill="white" stroke="black" points="382.5,-76.5 382.5,-95.5 453.5,-95.5 453.5,-76.5 382.5,-76.5"/>
<text text-anchor="middle" x="418" y="-83.5" font-family="Helvetica,sans-Serif" font-size="10.00">helpers_loop</text>
</a>
</g>
<!-- Node3&#45;&gt;Node4 -->
<g id="edge6" class="edge"><title>Node3&#45;&gt;Node4</title>
<path fill="none" stroke="midnightblue" d="M346.032,-86C354.759,-86 363.766,-86 372.312,-86"/>
<polygon fill="midnightblue" stroke="midnightblue" points="372.458,-89.5001 382.458,-86 372.458,-82.5001 372.458,-89.5001"/>
</g>
<!-- Node6 -->
<g id="node11" class="node"><title>Node6</title>
<a xlink:href="../../db/d85/display_8c.xhtml#a6f2d5cdda31a73b43a569cb3d1a64165" target="_top" xlink:title="Displays several consecutive characters.">
<polygon fill="white" stroke="black" points="255.5,-38.5 255.5,-57.5 332.5,-57.5 332.5,-38.5 255.5,-38.5"/>
<text text-anchor="middle" x="294" y="-45.5" font-family="Helvetica,sans-Serif" font-size="10.00">display_chars</text>
</a>
</g>
<!-- Node5&#45;&gt;Node6 -->
<g id="edge10" class="edge"><title>Node5&#45;&gt;Node6</title>
<path fill="none" stroke="midnightblue" d="M189.053,-48C206.064,-48 226.603,-48 244.917,-48"/>
<polygon fill="midnightblue" stroke="midnightblue" points="245.111,-51.5001 255.111,-48 245.111,-44.5001 245.111,-51.5001"/>
</g>
<!-- Node10 -->
<g id="node19" class="node"><title>Node10</title>
<a xlink:href="../../db/d85/display_8c.xhtml#af604e78dcc4e0f1a204b2180c5e54957" target="_top" xlink:title="Displays a symbol.">
<polygon fill="white" stroke="black" points="490,-0.5 490,-19.5 574,-19.5 574,-0.5 490,-0.5"/>
<text text-anchor="middle" x="532" y="-7.5" font-family="Helvetica,sans-Serif" font-size="10.00">display_symbol</text>
</a>
</g>
<!-- Node5&#45;&gt;Node10 -->
<g id="edge18" class="edge"><title>Node5&#45;&gt;Node10</title>
<path fill="none" stroke="midnightblue" d="M189.163,-39.0384C205.247,-35.375 224.473,-31.434 242,-29 324.69,-17.5168 421.683,-12.9367 479.645,-11.1358"/>
<polygon fill="midnightblue" stroke="midnightblue" points="479.759,-14.634 489.651,-10.8405 479.552,-7.63706 479.759,-14.634"/>
</g>
<!-- Node7 -->
<g id="node13" class="node"><title>Node7</title>
<a xlink:href="../../db/d85/display_8c.xhtml#a3ae30196af91197037d50cb49de1d109" target="_top" xlink:title="Displays a single character.">
<polygon fill="white" stroke="black" points="382.5,-38.5 382.5,-57.5 453.5,-57.5 453.5,-38.5 382.5,-38.5"/>
<text text-anchor="middle" x="418" y="-45.5" font-family="Helvetica,sans-Serif" font-size="10.00">display_char</text>
</a>
</g>
<!-- Node6&#45;&gt;Node7 -->
<g id="edge12" class="edge"><title>Node6&#45;&gt;Node7</title>
<path fill="none" stroke="midnightblue" d="M332.6,-48C345.085,-48 359.112,-48 372.091,-48"/>
<polygon fill="midnightblue" stroke="midnightblue" points="372.227,-51.5001 382.227,-48 372.227,-44.5001 372.227,-51.5001"/>
</g>
<!-- Node8 -->
<g id="node15" class="node"><title>Node8</title>
<a xlink:href="../../db/d85/display_8c.xhtml#a9275035317878022cf9eacf6b0a5be72" target="_top" xlink:title="Display a custom collection of segments.">
<polygon fill="white" stroke="black" points="498,-38.5 498,-57.5 566,-57.5 566,-38.5 498,-38.5"/>
<text text-anchor="middle" x="532" y="-45.5" font-family="Helvetica,sans-Serif" font-size="10.00">display_bits</text>
</a>
</g>
<!-- Node7&#45;&gt;Node8 -->
<g id="edge14" class="edge"><title>Node7&#45;&gt;Node8</title>
<path fill="none" stroke="midnightblue" d="M453.518,-48C464.344,-48 476.432,-48 487.781,-48"/>
<polygon fill="midnightblue" stroke="midnightblue" points="487.938,-51.5001 497.938,-48 487.938,-44.5001 487.938,-51.5001"/>
</g>
<!-- Node9 -->
<g id="node17" class="node"><title>Node9</title>
<a xlink:href="../../db/d85/display_8c.xhtml#a710739913e8ea1b71dd433b8311211fd" target="_top" xlink:title="write_lcd_mem">
<polygon fill="white" stroke="black" points="610.5,-19.5 610.5,-38.5 693.5,-38.5 693.5,-19.5 610.5,-19.5"/>
<text text-anchor="middle" x="652" y="-26.5" font-family="Helvetica,sans-Serif" font-size="10.00">write_lcd_mem</text>
</a>
</g>
<!-- Node8&#45;&gt;Node9 -->
<g id="edge16" class="edge"><title>Node8&#45;&gt;Node9</title>
<path fill="none" stroke="midnightblue" d="M566.184,-42.6569C576.728,-40.959 588.643,-39.0405 600.138,-37.1896"/>
<polygon fill="midnightblue" stroke="midnightblue" points="600.77,-40.6331 610.086,-35.5878 599.657,-33.7221 600.77,-40.6331"/>
</g>
<!-- Node10&#45;&gt;Node9 -->
<g id="edge20" class="edge"><title>Node10&#45;&gt;Node9</title>
<path fill="none" stroke="midnightblue" d="M574.271,-16.6453C582.678,-17.999 591.615,-19.438 600.306,-20.8374"/>
<polygon fill="midnightblue" stroke="midnightblue" points="599.921,-24.3203 610.35,-22.4546 601.033,-17.4094 599.921,-24.3203"/>
</g>
</g>
</svg>
