<?xml version="1.0" encoding="UTF-8" standalone="no"?>
<!DOCTYPE svg PUBLIC "-//W3C//DTD SVG 1.1//EN"
 "http://www.w3.org/Graphics/SVG/1.1/DTD/svg11.dtd">
<!-- Generated by graphviz version 2.28.0 (20121221.0049)
 -->
<!-- Title: drivers/battery.c Pages: 1 -->
<svg width="302pt" height="196pt"
 viewBox="0.00 0.00 302.00 196.00" xmlns="http://www.w3.org/2000/svg" xmlns:xlink="http://www.w3.org/1999/xlink">
<g id="graph1" class="graph" transform="scale(1 1) rotate(0) translate(4 192)">
<title>drivers/battery.c</title>
<polygon fill="white" stroke="white" points="-4,5 -4,-192 299,-192 299,5 -4,5"/>
<!-- Node1 -->
<g id="node1" class="node"><title>Node1</title>
<polygon fill="#bfbfbf" stroke="black" points="89.5,-168.5 89.5,-187.5 176.5,-187.5 176.5,-168.5 89.5,-168.5"/>
<text text-anchor="middle" x="133" y="-175.5" font-family="Helvetica,sans-Serif" font-size="10.00">drivers/battery.c</text>
</g>
<!-- Node2 -->
<g id="node3" class="node"><title>Node2</title>
<a xlink:href="../../d9/d95/openchronos_8h.xhtml" target="_top" xlink:title="Main include file.">
<polygon fill="white" stroke="black" points="45,-56.5 45,-75.5 147,-75.5 147,-56.5 45,-56.5"/>
<text text-anchor="middle" x="96" y="-63.5" font-family="Helvetica,sans-Serif" font-size="10.00">core/openchronos.h</text>
</a>
</g>
<!-- Node1&#45;&gt;Node2 -->
<g id="edge2" class="edge"><title>Node1&#45;&gt;Node2</title>
<path fill="none" stroke="midnightblue" d="M89.4964,-171.255C65.2729,-165.587 37.045,-154.334 22,-132 7.36513,-110.275 36.742,-91.2756 62.6987,-79.5188"/>
<polygon fill="midnightblue" stroke="midnightblue" points="64.207,-82.6803 72.0191,-75.5234 61.449,-76.2466 64.207,-82.6803"/>
</g>
<!-- Node6 -->
<g id="node11" class="node"><title>Node6</title>
<a xlink:href="../../d4/d68/display_8h.xhtml" target="_top" xlink:title="Display driver.">
<polygon fill="white" stroke="black" points="31,-112.5 31,-131.5 87,-131.5 87,-112.5 31,-112.5"/>
<text text-anchor="middle" x="59" y="-119.5" font-family="Helvetica,sans-Serif" font-size="10.00">display.h</text>
</a>
</g>
<!-- Node1&#45;&gt;Node6 -->
<g id="edge10" class="edge"><title>Node1&#45;&gt;Node6</title>
<path fill="none" stroke="midnightblue" d="M121.111,-168.324C109.85,-160.107 92.7134,-147.602 79.2909,-137.807"/>
<polygon fill="midnightblue" stroke="midnightblue" points="81.2468,-134.901 71.1057,-131.834 77.1205,-140.556 81.2468,-134.901"/>
</g>
<!-- Node7 -->
<g id="node14" class="node"><title>Node7</title>
<a xlink:href="../../d6/d69/battery_8h.xhtml" target="_top" xlink:title="Battery sensor header file.">
<polygon fill="white" stroke="black" points="105.5,-112.5 105.5,-131.5 160.5,-131.5 160.5,-112.5 105.5,-112.5"/>
<text text-anchor="middle" x="133" y="-119.5" font-family="Helvetica,sans-Serif" font-size="10.00">battery.h</text>
</a>
</g>
<!-- Node1&#45;&gt;Node7 -->
<g id="edge14" class="edge"><title>Node1&#45;&gt;Node7</title>
<path fill="none" stroke="midnightblue" d="M133,-168.083C133,-161.006 133,-150.861 133,-141.986"/>
<polygon fill="midnightblue" stroke="midnightblue" points="136.5,-141.751 133,-131.751 129.5,-141.751 136.5,-141.751"/>
</g>
<!-- Node8 -->
<g id="node17" class="node"><title>Node8</title>
<a xlink:href="../../d2/d54/ports_8h.xhtml" target="_top" xlink:title="ports.h">
<polygon fill="white" stroke="black" points="178.5,-112.5 178.5,-131.5 225.5,-131.5 225.5,-112.5 178.5,-112.5"/>
<text text-anchor="middle" x="202" y="-119.5" font-family="Helvetica,sans-Serif" font-size="10.00">ports.h</text>
</a>
</g>
<!-- Node1&#45;&gt;Node8 -->
<g id="edge18" class="edge"><title>Node1&#45;&gt;Node8</title>
<path fill="none" stroke="midnightblue" d="M144.086,-168.324C154.486,-160.185 170.261,-147.839 182.722,-138.087"/>
<polygon fill="midnightblue" stroke="midnightblue" points="184.994,-140.753 190.712,-131.834 180.68,-135.241 184.994,-140.753"/>
</g>
<!-- Node9 -->
<g id="node19" class="node"><title>Node9</title>
<a xlink:href="../../d1/d67/adc12_8h.xhtml" target="_top" xlink:title="ADC12 header file.">
<polygon fill="white" stroke="black" points="243.5,-112.5 243.5,-131.5 294.5,-131.5 294.5,-112.5 243.5,-112.5"/>
<text text-anchor="middle" x="269" y="-119.5" font-family="Helvetica,sans-Serif" font-size="10.00">adc12.h</text>
</a>
</g>
<!-- Node1&#45;&gt;Node9 -->
<g id="edge20" class="edge"><title>Node1&#45;&gt;Node9</title>
<path fill="none" stroke="midnightblue" d="M154.55,-168.444C177.031,-159.517 212.488,-145.439 237.98,-135.317"/>
<polygon fill="midnightblue" stroke="midnightblue" points="239.549,-138.46 247.551,-131.516 236.965,-131.954 239.549,-138.46"/>
</g>
<!-- Node3 -->
<g id="node5" class="node"><title>Node3</title>
<polygon fill="white" stroke="#bfbfbf" points="0,-0.5 0,-19.5 48,-19.5 48,-0.5 0,-0.5"/>
<text text-anchor="middle" x="24" y="-7.5" font-family="Helvetica,sans-Serif" font-size="10.00">stdlib.h</text>
</g>
<!-- Node2&#45;&gt;Node3 -->
<g id="edge4" class="edge"><title>Node2&#45;&gt;Node3</title>
<path fill="none" stroke="midnightblue" d="M84.432,-56.324C73.5798,-48.1849 57.1193,-35.8395 44.1166,-26.0874"/>
<polygon fill="midnightblue" stroke="midnightblue" points="45.8786,-23.0339 35.7785,-19.8339 41.6785,-28.6339 45.8786,-23.0339"/>
</g>
<!-- Node4 -->
<g id="node7" class="node"><title>Node4</title>
<polygon fill="white" stroke="#bfbfbf" points="66.5,-0.5 66.5,-19.5 125.5,-19.5 125.5,-0.5 66.5,-0.5"/>
<text text-anchor="middle" x="96" y="-7.5" font-family="Helvetica,sans-Serif" font-size="10.00">msp430.h</text>
</g>
<!-- Node2&#45;&gt;Node4 -->
<g id="edge6" class="edge"><title>Node2&#45;&gt;Node4</title>
<path fill="none" stroke="midnightblue" d="M96,-56.083C96,-49.0059 96,-38.8611 96,-29.9865"/>
<polygon fill="midnightblue" stroke="midnightblue" points="99.5001,-29.751 96,-19.7511 92.5001,-29.7511 99.5001,-29.751"/>
</g>
<!-- Node5 -->
<g id="node9" class="node"><title>Node5</title>
<a xlink:href="../../db/d16/config_8h.xhtml" target="_top" xlink:title="config/config.h">
<polygon fill="white" stroke="black" points="144,-0.5 144,-19.5 224,-19.5 224,-0.5 144,-0.5"/>
<text text-anchor="middle" x="184" y="-7.5" font-family="Helvetica,sans-Serif" font-size="10.00">config/config.h</text>
</a>
</g>
<!-- Node2&#45;&gt;Node5 -->
<g id="edge8" class="edge"><title>Node2&#45;&gt;Node5</title>
<path fill="none" stroke="midnightblue" d="M110.139,-56.324C123.866,-47.9002 144.936,-34.9709 161.064,-25.0741"/>
<polygon fill="midnightblue" stroke="midnightblue" points="163.204,-27.8678 169.896,-19.6545 159.543,-21.9016 163.204,-27.8678"/>
</g>
<!-- Node6&#45;&gt;Node2 -->
<g id="edge12" class="edge"><title>Node6&#45;&gt;Node2</title>
<path fill="none" stroke="midnightblue" d="M65.1098,-112.083C70.2822,-104.534 77.8461,-93.4948 84.1944,-84.2298"/>
<polygon fill="midnightblue" stroke="midnightblue" points="87.2388,-85.9787 90.0039,-75.7511 81.4643,-82.0221 87.2388,-85.9787"/>
</g>
<!-- Node7&#45;&gt;Node2 -->
<g id="edge16" class="edge"><title>Node7&#45;&gt;Node2</title>
<path fill="none" stroke="midnightblue" d="M126.89,-112.083C121.718,-104.534 114.154,-93.4948 107.806,-84.2298"/>
<polygon fill="midnightblue" stroke="midnightblue" points="110.536,-82.0221 101.996,-75.7511 104.761,-85.9787 110.536,-82.0221"/>
</g>
<!-- Node9&#45;&gt;Node2 -->
<g id="edge22" class="edge"><title>Node9&#45;&gt;Node2</title>
<path fill="none" stroke="midnightblue" d="M243.473,-113.032C214.342,-103.939 166.439,-88.9868 133.166,-78.601"/>
<polygon fill="midnightblue" stroke="midnightblue" points="133.935,-75.1746 123.347,-75.536 131.85,-81.8567 133.935,-75.1746"/>
</g>
</g>
</svg>
