<?xml version="1.0" encoding="UTF-8" standalone="no"?>
<!DOCTYPE svg PUBLIC "-//W3C//DTD SVG 1.1//EN"
 "http://www.w3.org/Graphics/SVG/1.1/DTD/svg11.dtd">
<!-- Generated by graphviz version 2.28.0 (20121221.0049)
 -->
<!-- Title: drivers/buzzer.h Pages: 1 -->
<svg width="467pt" height="84pt"
 viewBox="0.00 0.00 467.00 84.00" xmlns="http://www.w3.org/2000/svg" xmlns:xlink="http://www.w3.org/1999/xlink">
<g id="graph1" class="graph" transform="scale(1 1) rotate(0) translate(4 80)">
<title>drivers/buzzer.h</title>
<polygon fill="white" stroke="white" points="-4,5 -4,-80 464,-80 464,5 -4,5"/>
<!-- Node1 -->
<g id="node1" class="node"><title>Node1</title>
<polygon fill="#bfbfbf" stroke="black" points="182,-56.5 182,-75.5 268,-75.5 268,-56.5 182,-56.5"/>
<text text-anchor="middle" x="225" y="-63.5" font-family="Helvetica,sans-Serif" font-size="10.00">drivers/buzzer.h</text>
</g>
<!-- Node2 -->
<g id="node3" class="node"><title>Node2</title>
<a xlink:href="../../d2/df2/openchronos_8c.xhtml" target="_top" xlink:title="Main loop &amp; user interface.">
<polygon fill="white" stroke="black" points="0,-0.5 0,-19.5 102,-19.5 102,-0.5 0,-0.5"/>
<text text-anchor="middle" x="51" y="-7.5" font-family="Helvetica,sans-Serif" font-size="10.00">core/openchronos.c</text>
</a>
</g>
<!-- Node1&#45;&gt;Node2 -->
<g id="edge2" class="edge"><title>Node1&#45;&gt;Node2</title>
<path fill="none" stroke="midnightblue" d="M187.739,-53.4363C154.933,-43.2551 107.917,-28.664 78.4418,-19.5164"/>
<polygon fill="midnightblue" stroke="midnightblue" points="186.841,-56.8222 197.429,-56.4435 188.916,-50.1368 186.841,-56.8222"/>
</g>
<!-- Node3 -->
<g id="node5" class="node"><title>Node3</title>
<a xlink:href="../../d3/d4c/buzzer_8c.xhtml" target="_top" xlink:title="drivers/buzzer.c">
<polygon fill="white" stroke="black" points="120,-0.5 120,-19.5 206,-19.5 206,-0.5 120,-0.5"/>
<text text-anchor="middle" x="163" y="-7.5" font-family="Helvetica,sans-Serif" font-size="10.00">drivers/buzzer.c</text>
</a>
</g>
<!-- Node1&#45;&gt;Node3 -->
<g id="edge4" class="edge"><title>Node1&#45;&gt;Node3</title>
<path fill="none" stroke="midnightblue" d="M207.246,-49.5372C196.192,-39.9087 182.369,-27.8694 173.143,-19.8339"/>
<polygon fill="midnightblue" stroke="midnightblue" points="205.199,-52.3954 215.039,-56.324 209.797,-47.1168 205.199,-52.3954"/>
</g>
<!-- Node4 -->
<g id="node7" class="node"><title>Node4</title>
<a xlink:href="../../d1/d2d/accelerometer_8c.xhtml" target="_top" xlink:title="modules/accelerometer.c">
<polygon fill="white" stroke="black" points="224,-0.5 224,-19.5 350,-19.5 350,-0.5 224,-0.5"/>
<text text-anchor="middle" x="287" y="-7.5" font-family="Helvetica,sans-Serif" font-size="10.00">modules/accelerometer.c</text>
</a>
</g>
<!-- Node1&#45;&gt;Node4 -->
<g id="edge6" class="edge"><title>Node1&#45;&gt;Node4</title>
<path fill="none" stroke="midnightblue" d="M242.754,-49.5372C253.808,-39.9087 267.631,-27.8694 276.857,-19.8339"/>
<polygon fill="midnightblue" stroke="midnightblue" points="240.203,-47.1168 234.961,-56.324 244.801,-52.3954 240.203,-47.1168"/>
</g>
<!-- Node5 -->
<g id="node9" class="node"><title>Node5</title>
<a xlink:href="../../dc/da5/music_8c.xhtml" target="_top" xlink:title="modules/music.c">
<polygon fill="white" stroke="black" points="368.5,-0.5 368.5,-19.5 459.5,-19.5 459.5,-0.5 368.5,-0.5"/>
<text text-anchor="middle" x="414" y="-7.5" font-family="Helvetica,sans-Serif" font-size="10.00">modules/music.c</text>
</a>
</g>
<!-- Node1&#45;&gt;Node5 -->
<g id="edge8" class="edge"><title>Node1&#45;&gt;Node5</title>
<path fill="none" stroke="midnightblue" d="M265.013,-53.5677C300.667,-43.381 352.038,-28.7034 384.192,-19.5164"/>
<polygon fill="midnightblue" stroke="midnightblue" points="263.601,-50.3309 254.948,-56.4435 265.524,-57.0616 263.601,-50.3309"/>
</g>
</g>
</svg>
